<?xml version="1.0" encoding="UTF-8"?>
<svg id="Capa_2" data-name="Capa 2" xmlns="http://www.w3.org/2000/svg" viewBox="0 0 1848.01 148.61">
  <defs>
    <style>
      .cls-1 {
        fill: #000;
      }

      .cls-1, .cls-2 {
        stroke-width: 0px;
      }

      .cls-2 {
        fill: #e6e6e6;
      }

      .cls-3 {
        fill: #fff;
        stroke: #000;
        stroke-linecap: round;
        stroke-linejoin: round;
      }
    </style>
  </defs>
  <g id="Layer_1" data-name="Layer 1">
    <g>
      <polygon class="cls-3" points="1667.84 .5 1711.84 40.84 1847.51 51.5 1667.84 .5"/>
      <polygon class="cls-2" points="1711.84 40.84 1706.67 90.3 1847.51 51.5 1711.84 40.84"/>
      <polygon class="cls-3" points="1711.95 41.08 1672.51 85.74 1847.51 51.5 1711.95 41.08"/>
      <g>
        <path class="cls-1" d="M.58,132.76l-.58-1.91c1.9-.57,3.81-1.15,5.75-1.72l.57,1.92c-1.93.57-3.85,1.15-5.74,1.72Z"/>
        <path class="cls-1" d="M833.6,148.61h-.12c-3.92,0-7.92-.03-11.89-.09l.03-2c3.96.06,7.95.09,11.86.09h.12v2ZM845.6,148.52l-.03-2c3.97-.06,8-.15,11.97-.28l.06,2c-3.98.12-8.01.22-12,.28ZM809.58,148.27c-3.95-.11-7.99-.25-12.01-.42l.08-2c4,.17,8.03.31,11.98.42l-.06,2ZM869.59,147.78l-.09-2c3.96-.19,7.98-.41,11.95-.66l.13,2c-3.98.25-8.01.47-11.98.66ZM785.58,147.27c-2.71-.15-5.44-.3-8.2-.48-1.27-.08-2.53-.16-3.79-.24l.13-2c1.25.08,2.51.16,3.78.24,2.75.17,5.48.33,8.19.48l-.11,2ZM893.54,146.26l-.16-1.99c3.96-.32,7.97-.67,11.92-1.05l.19,1.99c-3.97.38-7.99.74-11.95,1.05ZM761.61,145.69c-4.02-.32-8.04-.66-11.96-1.02l.18-1.99c3.9.36,7.92.7,11.93,1.01l-.16,1.99ZM917.42,143.97l-.22-1.99c3.93-.44,7.92-.92,11.88-1.42l.25,1.98c-3.97.51-7.98.99-11.91,1.43ZM737.72,143.49c-4.03-.43-8.04-.89-11.92-1.36l.24-1.99c3.87.47,7.87.93,11.89,1.35l-.21,1.99ZM941.25,140.93l-.28-1.98c3.89-.55,7.87-1.15,11.84-1.76l.31,1.98c-3.97.62-7.96,1.21-11.86,1.77ZM713.9,140.59c-3.96-.55-7.95-1.13-11.87-1.75l.31-1.98c3.91.61,7.89,1.2,11.83,1.74l-.27,1.98ZM964.92,137.25l-.33-1.97c3.93-.66,7.86-1.34,11.8-2.05l.35,1.97c-3.95.71-7.88,1.39-11.82,2.05ZM690.2,136.89c-3.92-.68-7.89-1.41-11.8-2.17l.38-1.96c3.9.75,7.85,1.48,11.76,2.16l-.34,1.97ZM988.54,133.02l-.37-1.96c3.9-.74,7.82-1.49,11.76-2.27l.39,1.96c-3.94.78-7.87,1.53-11.77,2.27ZM666.65,132.34c-3.87-.82-7.81-1.7-11.71-2.59l.45-1.95c3.88.9,7.81,1.77,11.67,2.59l-.42,1.96ZM1012.07,128.4l-.4-1.96c3.88-.79,7.79-1.6,11.73-2.42l.41,1.96c-3.94.82-7.86,1.63-11.74,2.42ZM17.82,127.67l-.55-1.92c3.78-1.09,7.63-2.18,11.56-3.26l.54,1.93c-3.92,1.09-7.76,2.17-11.54,3.26ZM643.28,126.95c-3.78-.94-7.58-1.91-11.61-2.97l.51-1.93c4.02,1.06,7.81,2.02,11.59,2.96l-.48,1.94ZM1035.54,123.51l-.42-1.96c3.87-.82,7.78-1.65,11.72-2.5l.42,1.96c-3.95.85-7.85,1.68-11.72,2.5ZM40.93,121.26l-.52-1.93c3.81-1.02,7.68-2.04,11.62-3.05l.5,1.94c-3.93,1.01-7.79,2.02-11.6,3.04ZM620.09,120.87c-3.88-1.06-7.72-2.13-11.54-3.21l.54-1.93c3.82,1.07,7.66,2.14,11.53,3.2l-.53,1.93ZM1058.99,118.49l-.42-1.96,11.72-2.53.42,1.96-11.72,2.53ZM64.15,115.29l-.48-1.94c3.84-.95,7.73-1.89,11.67-2.82l.46,1.95c-3.94.93-7.82,1.87-11.65,2.82ZM597.05,114.42c-3.83-1.09-7.67-2.17-11.53-3.25l.54-1.93c3.86,1.08,7.7,2.17,11.54,3.26l-.55,1.92ZM1082.42,113.44l-.42-1.96c3.86-.83,7.77-1.67,11.72-2.51l.42,1.96c-3.95.84-7.86,1.68-11.72,2.5ZM87.48,109.76l-.44-1.95c3.86-.87,7.77-1.74,11.72-2.6l.42,1.96c-3.95.85-7.85,1.72-11.7,2.59ZM1105.87,108.45l-.41-1.96c3.86-.81,7.77-1.63,11.74-2.45l.41,1.96c-3.96.82-7.87,1.64-11.73,2.45ZM573.99,107.97c-4.06-1.11-7.84-2.11-11.56-3.08l.5-1.94c3.72.97,7.51,1.98,11.58,3.09l-.53,1.93ZM110.91,104.69l-.4-1.96c3.88-.8,7.81-1.59,11.77-2.37l.38,1.96c-3.96.78-7.88,1.56-11.75,2.36ZM1129.34,103.59l-.4-1.96c3.87-.79,7.79-1.58,11.75-2.37l.39,1.96c-3.97.79-7.88,1.58-11.75,2.37ZM550.83,101.96c-3.91-.96-7.82-1.89-11.64-2.76l.44-1.95c3.82.87,7.75,1.8,11.67,2.76l-.48,1.94ZM134.44,100.08l-.37-1.97c3.9-.72,7.84-1.44,11.82-2.13l.35,1.97c-3.97.7-7.9,1.41-11.8,2.13ZM1152.84,98.89l-.38-1.96c3.88-.76,7.8-1.52,11.78-2.28l.38,1.96c-3.97.76-7.9,1.52-11.77,2.28ZM527.52,96.64c-3.9-.82-7.84-1.61-11.73-2.35l.38-1.96c3.89.74,7.85,1.53,11.76,2.35l-.41,1.96ZM158.06,95.94l-.33-1.97c3.92-.65,7.87-1.28,11.86-1.9l.31,1.98c-3.98.62-7.93,1.25-11.84,1.89ZM1176.38,94.39l-.37-1.97c3.88-.72,7.81-1.45,11.8-2.17l.36,1.97c-3.98.72-7.91,1.45-11.79,2.17ZM181.75,92.27l-.29-1.98c3.93-.57,7.9-1.12,11.89-1.66l.27,1.98c-3.99.54-7.95,1.09-11.87,1.66ZM504.03,92.16c-3.89-.67-7.86-1.32-11.81-1.92l.3-1.98c3.96.61,7.94,1.26,11.84,1.93l-.34,1.97ZM1199.97,90.09l-.35-1.97c3.89-.69,7.83-1.38,11.82-2.07l.34,1.97c-3.98.69-7.92,1.38-11.81,2.07ZM205.51,89.07l-.25-1.98c3.95-.49,7.92-.96,11.92-1.42l.23,1.99c-4,.45-7.96.93-11.9,1.42ZM480.38,88.52c-3.92-.54-7.91-1.05-11.87-1.52l.24-1.99c3.96.48,7.97.99,11.9,1.53l-.27,1.98ZM229.34,86.37l-.21-1.99c3.96-.41,7.94-.8,11.95-1.17l.19,1.99c-4,.37-7.98.76-11.93,1.17ZM1223.59,86.02l-.33-1.97c3.9-.65,7.84-1.31,11.83-1.96l.32,1.97c-3.99.65-7.93,1.3-11.83,1.96ZM456.62,85.66c-3.92-.41-7.93-.81-11.91-1.17l.18-1.99c3.99.36,8.01.76,11.94,1.17l-.21,1.99ZM253.21,84.15l-.16-1.99c3.97-.33,7.96-.64,11.97-.93l.14,1.99c-4.01.29-7.99.6-11.95.93ZM432.79,83.48c-3.89-.3-7.9-.59-11.94-.86l.13-2c4.05.27,8.07.56,11.97.86l-.16,1.99ZM277.12,82.42l-.12-2c3.97-.25,7.97-.47,11.99-.68l.1,2c-4.01.21-8,.43-11.97.68ZM1247.25,82.16l-.31-1.97c3.91-.62,7.86-1.23,11.85-1.85l.3,1.98c-3.99.61-7.94,1.23-11.84,1.84ZM408.89,81.9l-1.93-.1c-3.36-.18-6.71-.34-10.04-.49l.09-2c3.34.15,6.7.31,10.06.49l1.93.1-.11,2ZM301.06,81.19l-.08-2c3.98-.16,7.98-.31,12-.43l.06,2c-4.01.12-8.01.26-11.98.43ZM384.94,80.85c-4.01-.13-8-.24-11.98-.33l.04-2c3.98.09,7.98.2,12,.33l-.07,2ZM325.02,80.46l-.04-2c3.98-.08,7.99-.14,12.01-.17l.02,2c-4.01.04-8.01.1-11.99.17ZM360.98,80.31c-4.01-.05-8.01-.07-11.99-.08v-2c3.99,0,7.99.03,12.01.08l-.02,2ZM1270.95,78.53l-.29-1.98c3.91-.58,7.87-1.16,11.87-1.74l.29,1.98c-4,.58-7.95,1.16-11.86,1.74ZM1294.68,75.1l-.28-1.98c3.92-.55,7.88-1.09,11.88-1.63l.27,1.98c-4,.54-7.96,1.09-11.88,1.63ZM1318.44,71.89l-.26-1.98c3.92-.51,7.89-1.03,11.9-1.54l.25,1.98c-4.01.51-7.97,1.02-11.89,1.53ZM1342.23,68.87l-.25-1.98.64-.08c3.77-.46,7.54-.92,11.28-1.36l.24,1.99c-3.74.44-7.5.9-11.27,1.36l-.63.08ZM1366.05,66.04l-.23-1.99c4-.46,7.97-.91,11.93-1.34l.22,1.99c-3.95.44-7.93.88-11.92,1.34ZM1389.89,63.41l-.21-1.99c4-.43,7.98-.84,11.94-1.25l.2,1.99c-3.96.41-7.93.82-11.93,1.25ZM1413.76,60.96l-.2-1.99c4-.39,7.99-.78,11.95-1.15l.19,1.99c-3.96.37-7.94.76-11.94,1.15ZM1437.64,58.7l-.18-1.99c4.01-.36,8-.72,11.96-1.06l.17,1.99c-3.96.34-7.94.7-11.95,1.06ZM1461.54,56.63l-.16-1.99c4.01-.33,8-.65,11.96-.96l.16,1.99c-3.96.31-7.94.63-11.96.96ZM1485.45,54.75l-.15-1.99c4.02-.3,8.01-.59,11.97-.87l.14,1.99c-3.96.28-7.94.57-11.96.87ZM1509.38,53.05l-.13-2c4.02-.27,8.02-.53,11.98-.78l.12,2c-3.96.25-7.95.51-11.97.78ZM1533.32,51.55l-.12-2c4.03-.24,8.03-.46,11.98-.68l.11,2c-3.95.22-7.95.44-11.97.68ZM1557.27,50.24l-.1-2c4.04-.21,8.03-.4,11.99-.59l.09,2c-3.95.19-7.95.38-11.98.59ZM1581.24,49.11l-.09-2c4.04-.17,8.04-.34,11.99-.49l.08,2c-3.95.15-7.94.32-11.98.49ZM1605.21,48.18l-.07-2c4.05-.14,8.05-.27,12-.4l.06,2c-3.94.12-7.94.25-11.99.4ZM1629.18,47.43l-.05-2c4.06-.11,8.06-.21,12-.3l.05,2c-3.94.09-7.93.19-11.99.3ZM1653.17,46.88l-.04-2c4.07-.08,8.07-.14,12-.2l.03,2c-3.93.06-7.92.13-11.99.2ZM1677.15,46.53l-.02-2c4.09-.04,8.09-.08,12-.11v2c-3.9.03-7.9.06-11.98.11Z"/>
        <path class="cls-1" d="M1702.26,46.36l-.08-1,.08-1c2,0,3.97,0,5.92,0v2c-1.95,0-3.92,0-5.92,0Z"/>
      </g>
    </g>
  </g>
</svg>