<?xml version="1.0" encoding="UTF-8"?>
<svg id="Capa_2" data-name="Capa 2" xmlns="http://www.w3.org/2000/svg" viewBox="0 0 1004.76 900.88">
  <defs>
    <style>
      .cls-1 {
        fill: #000;
      }

      .cls-1, .cls-2, .cls-3 {
        stroke-width: 0px;
      }

      .cls-4 {
        stroke: #000;
      }

      .cls-4, .cls-5 {
        stroke-miterlimit: 10;
      }

      .cls-4, .cls-3 {
        fill: #fff;
      }

      .cls-2 {
        fill: #171738;
      }

      .cls-5 {
        fill: none;
        stroke: #ccc;
        stroke-width: .5px;
      }
    </style>
  </defs>
  <g id="Layer_2" data-name="Layer 2">
    <g>
      <rect class="cls-4" x=".5" y=".5" width="976.89" height="899.88"/>
      <line class="cls-5" x1="74.61" y1="103.65" x2="895.57" y2="103.65"/>
      <line class="cls-5" x1="74.61" y1="143.86" x2="895.57" y2="143.86"/>
      <line class="cls-5" x1="74.61" y1="184.07" x2="895.57" y2="184.07"/>
      <line class="cls-5" x1="74.61" y1="224.28" x2="895.57" y2="224.28"/>
      <line class="cls-5" x1="74.61" y1="264.49" x2="895.57" y2="264.49"/>
      <line class="cls-5" x1="74.61" y1="304.7" x2="895.57" y2="304.7"/>
      <line class="cls-5" x1="74.61" y1="344.91" x2="895.57" y2="344.91"/>
      <line class="cls-5" x1="74.61" y1="385.12" x2="895.57" y2="385.12"/>
      <line class="cls-5" x1="74.61" y1="425.33" x2="895.57" y2="425.33"/>
      <line class="cls-5" x1="74.61" y1="465.54" x2="895.57" y2="465.54"/>
      <line class="cls-5" x1="74.61" y1="505.75" x2="895.57" y2="505.75"/>
      <line class="cls-5" x1="74.61" y1="545.96" x2="895.57" y2="545.96"/>
      <line class="cls-5" x1="74.61" y1="586.17" x2="895.57" y2="586.17"/>
      <line class="cls-5" x1="74.61" y1="626.38" x2="895.57" y2="626.38"/>
      <line class="cls-5" x1="74.61" y1="666.59" x2="895.57" y2="666.59"/>
      <line class="cls-5" x1="74.61" y1="706.8" x2="895.57" y2="706.8"/>
      <line class="cls-5" x1="74.61" y1="747.01" x2="895.57" y2="747.01"/>
      <line class="cls-5" x1="74.61" y1="787.22" x2="895.57" y2="787.22"/>
      <line class="cls-5" x1="74.61" y1="830.58" x2="895.57" y2="830.58"/>
      <circle class="cls-1" cx="955.75" cy="871.53" r="12.33"/>
      <g>
        <rect class="cls-3" x="953.95" y="872.54" width="50.35" height="6.47" rx=".89" ry=".89" transform="translate(1958.26 1751.55) rotate(180)"/>
        <path class="cls-2" d="M1001.07,879.47h-43.88c-2.03,0-3.69-1.66-3.69-3.69s1.66-3.69,3.69-3.69h43.88c2.03,0,3.69,1.66,3.69,3.69s-1.66,3.69-3.69,3.69ZM957.19,873c-1.53,0-2.78,1.25-2.78,2.78s1.25,2.78,2.78,2.78h43.88c1.53,0,2.78-1.25,2.78-2.78s-1.25-2.78-2.78-2.78h-43.88Z"/>
      </g>
      <g>
        <rect class="cls-3" x="953.95" y="864.25" width="50.35" height="6.47" rx=".89" ry=".89" transform="translate(1958.26 1734.97) rotate(180)"/>
        <path class="cls-2" d="M1001.07,871.18h-43.88c-2.03,0-3.69-1.66-3.69-3.69s1.66-3.69,3.69-3.69h43.88c2.03,0,3.69,1.66,3.69,3.69s-1.66,3.69-3.69,3.69ZM957.19,864.71c-1.53,0-2.78,1.25-2.78,2.78s1.25,2.78,2.78,2.78h43.88c1.53,0,2.78-1.25,2.78-2.78s-1.25-2.78-2.78-2.78h-43.88Z"/>
      </g>
      <circle class="cls-1" cx="955.75" cy="838.32" r="12.33"/>
      <g>
        <rect class="cls-3" x="953.95" y="839.33" width="50.35" height="6.47" rx=".89" ry=".89" transform="translate(1958.26 1685.13) rotate(-180)"/>
        <path class="cls-2" d="M1001.07,846.26h-43.88c-2.03,0-3.69-1.66-3.69-3.69s1.66-3.69,3.69-3.69h43.88c2.03,0,3.69,1.66,3.69,3.69s-1.66,3.69-3.69,3.69ZM957.19,839.78c-1.53,0-2.78,1.25-2.78,2.78s1.25,2.78,2.78,2.78h43.88c1.53,0,2.78-1.25,2.78-2.78s-1.25-2.78-2.78-2.78h-43.88Z"/>
      </g>
      <g>
        <rect class="cls-3" x="953.95" y="831.04" width="50.35" height="6.47" rx=".89" ry=".89" transform="translate(1958.26 1668.55) rotate(180)"/>
        <path class="cls-2" d="M1001.07,837.96h-43.88c-2.03,0-3.69-1.66-3.69-3.69s1.66-3.69,3.69-3.69h43.88c2.03,0,3.69,1.66,3.69,3.69s-1.66,3.69-3.69,3.69ZM957.19,831.49c-1.53,0-2.78,1.25-2.78,2.78s1.25,2.78,2.78,2.78h43.88c1.53,0,2.78-1.25,2.78-2.78s-1.25-2.78-2.78-2.78h-43.88Z"/>
      </g>
      <circle class="cls-1" cx="955.75" cy="805.11" r="12.33"/>
      <g>
        <rect class="cls-3" x="953.95" y="806.12" width="50.35" height="6.47" rx=".89" ry=".89" transform="translate(1958.26 1618.7) rotate(-180)"/>
        <path class="cls-2" d="M1001.07,813.04h-43.88c-2.03,0-3.69-1.66-3.69-3.69s1.66-3.69,3.69-3.69h43.88c2.03,0,3.69,1.66,3.69,3.69s-1.66,3.69-3.69,3.69ZM957.19,806.57c-1.53,0-2.78,1.25-2.78,2.78s1.25,2.78,2.78,2.78h43.88c1.53,0,2.78-1.25,2.78-2.78s-1.25-2.78-2.78-2.78h-43.88Z"/>
      </g>
      <g>
        <rect class="cls-3" x="953.95" y="797.83" width="50.35" height="6.47" rx=".89" ry=".89" transform="translate(1958.26 1602.12) rotate(180)"/>
        <path class="cls-2" d="M1001.07,804.75h-43.88c-2.03,0-3.69-1.66-3.69-3.69s1.66-3.69,3.69-3.69h43.88c2.03,0,3.69,1.66,3.69,3.69s-1.66,3.69-3.69,3.69ZM957.19,798.28c-1.53,0-2.78,1.25-2.78,2.78s1.25,2.78,2.78,2.78h43.88c1.53,0,2.78-1.25,2.78-2.78s-1.25-2.78-2.78-2.78h-43.88Z"/>
      </g>
      <circle class="cls-1" cx="955.75" cy="771.89" r="12.33"/>
      <g>
        <rect class="cls-3" x="953.95" y="772.9" width="50.35" height="6.47" rx=".89" ry=".89" transform="translate(1958.26 1552.28) rotate(-180)"/>
        <path class="cls-2" d="M1001.07,779.83h-43.88c-2.03,0-3.69-1.66-3.69-3.69s1.66-3.69,3.69-3.69h43.88c2.03,0,3.69,1.66,3.69,3.69s-1.66,3.69-3.69,3.69ZM957.19,773.36c-1.53,0-2.78,1.25-2.78,2.78s1.25,2.78,2.78,2.78h43.88c1.53,0,2.78-1.25,2.78-2.78s-1.25-2.78-2.78-2.78h-43.88Z"/>
      </g>
      <g>
        <rect class="cls-3" x="953.95" y="764.61" width="50.35" height="6.47" rx=".89" ry=".89" transform="translate(1958.26 1535.7) rotate(-180)"/>
        <path class="cls-2" d="M1001.07,771.54h-43.88c-2.03,0-3.69-1.66-3.69-3.69s1.66-3.69,3.69-3.69h43.88c2.03,0,3.69,1.66,3.69,3.69s-1.66,3.69-3.69,3.69ZM957.19,765.07c-1.53,0-2.78,1.25-2.78,2.78s1.25,2.78,2.78,2.78h43.88c1.53,0,2.78-1.25,2.78-2.78s-1.25-2.78-2.78-2.78h-43.88Z"/>
      </g>
      <circle class="cls-1" cx="955.75" cy="738.68" r="12.33"/>
      <g>
        <rect class="cls-3" x="953.95" y="739.69" width="50.35" height="6.47" rx=".89" ry=".89" transform="translate(1958.26 1485.85) rotate(-180)"/>
        <path class="cls-2" d="M1001.07,746.62h-43.88c-2.03,0-3.69-1.66-3.69-3.69s1.66-3.69,3.69-3.69h43.88c2.03,0,3.69,1.66,3.69,3.69s-1.66,3.69-3.69,3.69ZM957.19,740.15c-1.53,0-2.78,1.25-2.78,2.78s1.25,2.78,2.78,2.78h43.88c1.53,0,2.78-1.25,2.78-2.78s-1.25-2.78-2.78-2.78h-43.88Z"/>
      </g>
      <g>
        <rect class="cls-3" x="953.95" y="731.4" width="50.35" height="6.47" rx=".89" ry=".89" transform="translate(1958.26 1469.27) rotate(180)"/>
        <path class="cls-2" d="M1001.07,738.33h-43.88c-2.03,0-3.69-1.66-3.69-3.69s1.66-3.69,3.69-3.69h43.88c2.03,0,3.69,1.66,3.69,3.69s-1.66,3.69-3.69,3.69ZM957.19,731.86c-1.53,0-2.78,1.25-2.78,2.78s1.25,2.78,2.78,2.78h43.88c1.53,0,2.78-1.25,2.78-2.78s-1.25-2.78-2.78-2.78h-43.88Z"/>
      </g>
      <circle class="cls-1" cx="955.75" cy="705.47" r="12.33"/>
      <g>
        <rect class="cls-3" x="953.95" y="706.48" width="50.35" height="6.47" rx=".89" ry=".89" transform="translate(1958.26 1419.43) rotate(-180)"/>
        <path class="cls-2" d="M1001.07,713.4h-43.88c-2.03,0-3.69-1.66-3.69-3.69s1.66-3.69,3.69-3.69h43.88c2.03,0,3.69,1.66,3.69,3.69s-1.66,3.69-3.69,3.69ZM957.19,706.93c-1.53,0-2.78,1.25-2.78,2.78s1.25,2.78,2.78,2.78h43.88c1.53,0,2.78-1.25,2.78-2.78s-1.25-2.78-2.78-2.78h-43.88Z"/>
      </g>
      <g>
        <rect class="cls-3" x="953.95" y="698.19" width="50.35" height="6.47" rx=".89" ry=".89" transform="translate(1958.26 1402.85) rotate(-180)"/>
        <path class="cls-2" d="M1001.07,705.11h-43.88c-2.03,0-3.69-1.66-3.69-3.69s1.66-3.69,3.69-3.69h43.88c2.03,0,3.69,1.66,3.69,3.69s-1.66,3.69-3.69,3.69ZM957.19,698.64c-1.53,0-2.78,1.25-2.78,2.78s1.25,2.78,2.78,2.78h43.88c1.53,0,2.78-1.25,2.78-2.78s-1.25-2.78-2.78-2.78h-43.88Z"/>
      </g>
      <circle class="cls-1" cx="955.75" cy="672.26" r="12.33"/>
      <g>
        <rect class="cls-3" x="953.95" y="673.27" width="50.35" height="6.47" rx=".89" ry=".89" transform="translate(1958.26 1353) rotate(180)"/>
        <path class="cls-2" d="M1001.07,680.19h-43.88c-2.03,0-3.69-1.66-3.69-3.69s1.66-3.69,3.69-3.69h43.88c2.03,0,3.69,1.66,3.69,3.69s-1.66,3.69-3.69,3.69ZM957.19,673.72c-1.53,0-2.78,1.25-2.78,2.78s1.25,2.78,2.78,2.78h43.88c1.53,0,2.78-1.25,2.78-2.78s-1.25-2.78-2.78-2.78h-43.88Z"/>
      </g>
      <g>
        <rect class="cls-3" x="953.95" y="664.98" width="50.35" height="6.47" rx=".89" ry=".89" transform="translate(1958.26 1336.42) rotate(-180)"/>
        <path class="cls-2" d="M1001.07,671.9h-43.88c-2.03,0-3.69-1.66-3.69-3.69s1.66-3.69,3.69-3.69h43.88c2.03,0,3.69,1.66,3.69,3.69s-1.66,3.69-3.69,3.69ZM957.19,665.43c-1.53,0-2.78,1.25-2.78,2.78s1.25,2.78,2.78,2.78h43.88c1.53,0,2.78-1.25,2.78-2.78s-1.25-2.78-2.78-2.78h-43.88Z"/>
      </g>
      <circle class="cls-1" cx="955.75" cy="639.04" r="12.33"/>
      <g>
        <rect class="cls-3" x="953.95" y="640.05" width="50.35" height="6.47" rx=".89" ry=".89" transform="translate(1958.26 1286.58) rotate(180)"/>
        <path class="cls-2" d="M1001.07,646.98h-43.88c-2.03,0-3.69-1.66-3.69-3.69s1.66-3.69,3.69-3.69h43.88c2.03,0,3.69,1.66,3.69,3.69s-1.66,3.69-3.69,3.69ZM957.19,640.51c-1.53,0-2.78,1.25-2.78,2.78s1.25,2.78,2.78,2.78h43.88c1.53,0,2.78-1.25,2.78-2.78s-1.25-2.78-2.78-2.78h-43.88Z"/>
      </g>
      <g>
        <rect class="cls-3" x="953.95" y="631.76" width="50.35" height="6.47" rx=".89" ry=".89" transform="translate(1958.26 1270) rotate(180)"/>
        <path class="cls-2" d="M1001.07,638.69h-43.88c-2.03,0-3.69-1.66-3.69-3.69s1.66-3.69,3.69-3.69h43.88c2.03,0,3.69,1.66,3.69,3.69s-1.66,3.69-3.69,3.69ZM957.19,632.22c-1.53,0-2.78,1.25-2.78,2.78s1.25,2.78,2.78,2.78h43.88c1.53,0,2.78-1.25,2.78-2.78s-1.25-2.78-2.78-2.78h-43.88Z"/>
      </g>
      <circle class="cls-1" cx="955.75" cy="605.83" r="12.33"/>
      <g>
        <rect class="cls-3" x="953.95" y="606.84" width="50.35" height="6.47" rx=".89" ry=".89" transform="translate(1958.26 1220.15) rotate(180)"/>
        <path class="cls-2" d="M1001.07,613.77h-43.88c-2.03,0-3.69-1.66-3.69-3.69s1.66-3.69,3.69-3.69h43.88c2.03,0,3.69,1.66,3.69,3.69s-1.66,3.69-3.69,3.69ZM957.19,607.3c-1.53,0-2.78,1.25-2.78,2.78s1.25,2.78,2.78,2.78h43.88c1.53,0,2.78-1.25,2.78-2.78s-1.25-2.78-2.78-2.78h-43.88Z"/>
      </g>
      <g>
        <rect class="cls-3" x="953.95" y="598.55" width="50.35" height="6.47" rx=".89" ry=".89" transform="translate(1958.26 1203.57) rotate(180)"/>
        <path class="cls-2" d="M1001.07,605.48h-43.88c-2.03,0-3.69-1.66-3.69-3.69s1.66-3.69,3.69-3.69h43.88c2.03,0,3.69,1.66,3.69,3.69s-1.66,3.69-3.69,3.69ZM957.19,599.01c-1.53,0-2.78,1.25-2.78,2.78s1.25,2.78,2.78,2.78h43.88c1.53,0,2.78-1.25,2.78-2.78s-1.25-2.78-2.78-2.78h-43.88Z"/>
      </g>
      <circle class="cls-1" cx="955.75" cy="572.62" r="12.33"/>
      <g>
        <rect class="cls-3" x="953.95" y="573.63" width="50.35" height="6.47" rx=".89" ry=".89" transform="translate(1958.26 1153.73) rotate(180)"/>
        <path class="cls-2" d="M1001.07,580.55h-43.88c-2.03,0-3.69-1.66-3.69-3.69s1.66-3.69,3.69-3.69h43.88c2.03,0,3.69,1.66,3.69,3.69s-1.66,3.69-3.69,3.69ZM957.19,574.08c-1.53,0-2.78,1.25-2.78,2.78s1.25,2.78,2.78,2.78h43.88c1.53,0,2.78-1.25,2.78-2.78s-1.25-2.78-2.78-2.78h-43.88Z"/>
      </g>
      <g>
        <rect class="cls-3" x="953.95" y="565.34" width="50.35" height="6.47" rx=".89" ry=".89" transform="translate(1958.26 1137.15) rotate(180)"/>
        <path class="cls-2" d="M1001.07,572.26h-43.88c-2.03,0-3.69-1.66-3.69-3.69s1.66-3.69,3.69-3.69h43.88c2.03,0,3.69,1.66,3.69,3.69s-1.66,3.69-3.69,3.69ZM957.19,565.79c-1.53,0-2.78,1.25-2.78,2.78s1.25,2.78,2.78,2.78h43.88c1.53,0,2.78-1.25,2.78-2.78s-1.25-2.78-2.78-2.78h-43.88Z"/>
      </g>
      <circle class="cls-1" cx="955.75" cy="539.41" r="12.33"/>
      <g>
        <rect class="cls-3" x="953.95" y="540.42" width="50.35" height="6.47" rx=".89" ry=".89" transform="translate(1958.26 1087.3) rotate(180)"/>
        <path class="cls-2" d="M1001.07,547.34h-43.88c-2.03,0-3.69-1.66-3.69-3.69s1.66-3.69,3.69-3.69h43.88c2.03,0,3.69,1.66,3.69,3.69s-1.66,3.69-3.69,3.69ZM957.19,540.87c-1.53,0-2.78,1.25-2.78,2.78s1.25,2.78,2.78,2.78h43.88c1.53,0,2.78-1.25,2.78-2.78s-1.25-2.78-2.78-2.78h-43.88Z"/>
      </g>
      <g>
        <rect class="cls-3" x="953.95" y="532.13" width="50.35" height="6.47" rx=".89" ry=".89" transform="translate(1958.26 1070.72) rotate(180)"/>
        <path class="cls-2" d="M1001.07,539.05h-43.88c-2.03,0-3.69-1.66-3.69-3.69s1.66-3.69,3.69-3.69h43.88c2.03,0,3.69,1.66,3.69,3.69s-1.66,3.69-3.69,3.69ZM957.19,532.58c-1.53,0-2.78,1.25-2.78,2.78s1.25,2.78,2.78,2.78h43.88c1.53,0,2.78-1.25,2.78-2.78s-1.25-2.78-2.78-2.78h-43.88Z"/>
      </g>
      <circle class="cls-1" cx="955.75" cy="506.19" r="12.33"/>
      <g>
        <rect class="cls-3" x="953.95" y="507.2" width="50.35" height="6.47" rx=".89" ry=".89" transform="translate(1958.26 1020.88) rotate(180)"/>
        <path class="cls-2" d="M1001.07,514.13h-43.88c-2.03,0-3.69-1.66-3.69-3.69s1.66-3.69,3.69-3.69h43.88c2.03,0,3.69,1.66,3.69,3.69s-1.66,3.69-3.69,3.69ZM957.19,507.66c-1.53,0-2.78,1.25-2.78,2.78s1.25,2.78,2.78,2.78h43.88c1.53,0,2.78-1.25,2.78-2.78s-1.25-2.78-2.78-2.78h-43.88Z"/>
      </g>
      <g>
        <rect class="cls-3" x="953.95" y="498.91" width="50.35" height="6.47" rx=".89" ry=".89" transform="translate(1958.26 1004.3) rotate(-180)"/>
        <path class="cls-2" d="M1001.07,505.84h-43.88c-2.03,0-3.69-1.66-3.69-3.69s1.66-3.69,3.69-3.69h43.88c2.03,0,3.69,1.66,3.69,3.69s-1.66,3.69-3.69,3.69ZM957.19,499.37c-1.53,0-2.78,1.25-2.78,2.78s1.25,2.78,2.78,2.78h43.88c1.53,0,2.78-1.25,2.78-2.78s-1.25-2.78-2.78-2.78h-43.88Z"/>
      </g>
      <circle class="cls-1" cx="955.75" cy="472.98" r="12.33"/>
      <g>
        <rect class="cls-3" x="953.95" y="473.99" width="50.35" height="6.47" rx=".89" ry=".89" transform="translate(1958.26 954.45) rotate(180)"/>
        <path class="cls-2" d="M1001.07,480.92h-43.88c-2.03,0-3.69-1.66-3.69-3.69s1.66-3.69,3.69-3.69h43.88c2.03,0,3.69,1.66,3.69,3.69s-1.66,3.69-3.69,3.69ZM957.19,474.45c-1.53,0-2.78,1.25-2.78,2.78s1.25,2.78,2.78,2.78h43.88c1.53,0,2.78-1.25,2.78-2.78s-1.25-2.78-2.78-2.78h-43.88Z"/>
      </g>
      <g>
        <rect class="cls-3" x="953.95" y="465.7" width="50.35" height="6.47" rx=".89" ry=".89" transform="translate(1958.26 937.87) rotate(-180)"/>
        <path class="cls-2" d="M1001.07,472.63h-43.88c-2.03,0-3.69-1.66-3.69-3.69s1.66-3.69,3.69-3.69h43.88c2.03,0,3.69,1.66,3.69,3.69s-1.66,3.69-3.69,3.69ZM957.19,466.16c-1.53,0-2.78,1.25-2.78,2.78s1.25,2.78,2.78,2.78h43.88c1.53,0,2.78-1.25,2.78-2.78s-1.25-2.78-2.78-2.78h-43.88Z"/>
      </g>
      <circle class="cls-1" cx="955.75" cy="439.77" r="12.33"/>
      <g>
        <rect class="cls-3" x="953.95" y="440.78" width="50.35" height="6.47" rx=".89" ry=".89" transform="translate(1958.26 888.03) rotate(180)"/>
        <path class="cls-2" d="M1001.07,447.7h-43.88c-2.03,0-3.69-1.66-3.69-3.69s1.66-3.69,3.69-3.69h43.88c2.03,0,3.69,1.66,3.69,3.69s-1.66,3.69-3.69,3.69ZM957.19,441.23c-1.53,0-2.78,1.25-2.78,2.78s1.25,2.78,2.78,2.78h43.88c1.53,0,2.78-1.25,2.78-2.78s-1.25-2.78-2.78-2.78h-43.88Z"/>
      </g>
      <g>
        <rect class="cls-3" x="953.95" y="432.49" width="50.35" height="6.47" rx=".89" ry=".89" transform="translate(1958.26 871.45) rotate(180)"/>
        <path class="cls-2" d="M1001.07,439.41h-43.88c-2.03,0-3.69-1.66-3.69-3.69s1.66-3.69,3.69-3.69h43.88c2.03,0,3.69,1.66,3.69,3.69s-1.66,3.69-3.69,3.69ZM957.19,432.94c-1.53,0-2.78,1.25-2.78,2.78s1.25,2.78,2.78,2.78h43.88c1.53,0,2.78-1.25,2.78-2.78s-1.25-2.78-2.78-2.78h-43.88Z"/>
      </g>
      <circle class="cls-1" cx="955.75" cy="406.56" r="12.33"/>
      <g>
        <rect class="cls-3" x="953.95" y="407.57" width="50.35" height="6.47" rx=".89" ry=".89" transform="translate(1958.26 821.6) rotate(180)"/>
        <path class="cls-2" d="M1001.07,414.49h-43.88c-2.03,0-3.69-1.66-3.69-3.69s1.66-3.69,3.69-3.69h43.88c2.03,0,3.69,1.66,3.69,3.69s-1.66,3.69-3.69,3.69ZM957.19,408.02c-1.53,0-2.78,1.25-2.78,2.78s1.25,2.78,2.78,2.78h43.88c1.53,0,2.78-1.25,2.78-2.78s-1.25-2.78-2.78-2.78h-43.88Z"/>
      </g>
      <g>
        <rect class="cls-3" x="953.95" y="399.28" width="50.35" height="6.47" rx=".89" ry=".89" transform="translate(1958.26 805.02) rotate(-180)"/>
        <path class="cls-2" d="M1001.07,406.2h-43.88c-2.03,0-3.69-1.66-3.69-3.69s1.66-3.69,3.69-3.69h43.88c2.03,0,3.69,1.66,3.69,3.69s-1.66,3.69-3.69,3.69ZM957.19,399.73c-1.53,0-2.78,1.25-2.78,2.78s1.25,2.78,2.78,2.78h43.88c1.53,0,2.78-1.25,2.78-2.78s-1.25-2.78-2.78-2.78h-43.88Z"/>
      </g>
      <circle class="cls-1" cx="955.75" cy="373.34" r="12.33"/>
      <g>
        <rect class="cls-3" x="953.95" y="374.35" width="50.35" height="6.47" rx=".89" ry=".89" transform="translate(1958.26 755.18) rotate(-180)"/>
        <path class="cls-2" d="M1001.07,381.28h-43.88c-2.03,0-3.69-1.66-3.69-3.69s1.66-3.69,3.69-3.69h43.88c2.03,0,3.69,1.66,3.69,3.69s-1.66,3.69-3.69,3.69ZM957.19,374.81c-1.53,0-2.78,1.25-2.78,2.78s1.25,2.78,2.78,2.78h43.88c1.53,0,2.78-1.25,2.78-2.78s-1.25-2.78-2.78-2.78h-43.88Z"/>
      </g>
      <g>
        <rect class="cls-3" x="953.95" y="366.06" width="50.35" height="6.47" rx=".89" ry=".89" transform="translate(1958.26 738.6) rotate(-180)"/>
        <path class="cls-2" d="M1001.07,372.99h-43.88c-2.03,0-3.69-1.66-3.69-3.69s1.66-3.69,3.69-3.69h43.88c2.03,0,3.69,1.66,3.69,3.69s-1.66,3.69-3.69,3.69ZM957.19,366.52c-1.53,0-2.78,1.25-2.78,2.78s1.25,2.78,2.78,2.78h43.88c1.53,0,2.78-1.25,2.78-2.78s-1.25-2.78-2.78-2.78h-43.88Z"/>
      </g>
      <circle class="cls-1" cx="955.75" cy="340.13" r="12.33"/>
      <g>
        <rect class="cls-3" x="953.95" y="341.14" width="50.35" height="6.47" rx=".89" ry=".89" transform="translate(1958.26 688.75) rotate(180)"/>
        <path class="cls-2" d="M1001.07,348.07h-43.88c-2.03,0-3.69-1.66-3.69-3.69s1.66-3.69,3.69-3.69h43.88c2.03,0,3.69,1.66,3.69,3.69s-1.66,3.69-3.69,3.69ZM957.19,341.6c-1.53,0-2.78,1.25-2.78,2.78s1.25,2.78,2.78,2.78h43.88c1.53,0,2.78-1.25,2.78-2.78s-1.25-2.78-2.78-2.78h-43.88Z"/>
      </g>
      <g>
        <rect class="cls-3" x="953.95" y="332.85" width="50.35" height="6.47" rx=".89" ry=".89" transform="translate(1958.26 672.17) rotate(180)"/>
        <path class="cls-2" d="M1001.07,339.78h-43.88c-2.03,0-3.69-1.66-3.69-3.69s1.66-3.69,3.69-3.69h43.88c2.03,0,3.69,1.66,3.69,3.69s-1.66,3.69-3.69,3.69ZM957.19,333.31c-1.53,0-2.78,1.25-2.78,2.78s1.25,2.78,2.78,2.78h43.88c1.53,0,2.78-1.25,2.78-2.78s-1.25-2.78-2.78-2.78h-43.88Z"/>
      </g>
      <circle class="cls-1" cx="955.75" cy="306.92" r="12.33"/>
      <g>
        <rect class="cls-3" x="953.95" y="307.93" width="50.35" height="6.47" rx=".89" ry=".89" transform="translate(1958.26 622.33) rotate(180)"/>
        <path class="cls-2" d="M1001.07,314.85h-43.88c-2.03,0-3.69-1.66-3.69-3.69s1.66-3.69,3.69-3.69h43.88c2.03,0,3.69,1.66,3.69,3.69s-1.66,3.69-3.69,3.69ZM957.19,308.38c-1.53,0-2.78,1.25-2.78,2.78s1.25,2.78,2.78,2.78h43.88c1.53,0,2.78-1.25,2.78-2.78s-1.25-2.78-2.78-2.78h-43.88Z"/>
      </g>
      <g>
        <rect class="cls-3" x="953.95" y="299.64" width="50.35" height="6.47" rx=".89" ry=".89" transform="translate(1958.26 605.75) rotate(-180)"/>
        <path class="cls-2" d="M1001.07,306.56h-43.88c-2.03,0-3.69-1.66-3.69-3.69s1.66-3.69,3.69-3.69h43.88c2.03,0,3.69,1.66,3.69,3.69s-1.66,3.69-3.69,3.69ZM957.19,300.09c-1.53,0-2.78,1.25-2.78,2.78s1.25,2.78,2.78,2.78h43.88c1.53,0,2.78-1.25,2.78-2.78s-1.25-2.78-2.78-2.78h-43.88Z"/>
      </g>
      <circle class="cls-1" cx="955.75" cy="273.71" r="12.33"/>
      <g>
        <rect class="cls-3" x="953.95" y="274.72" width="50.35" height="6.47" rx=".89" ry=".89" transform="translate(1958.26 555.9) rotate(-180)"/>
        <path class="cls-2" d="M1001.07,281.64h-43.88c-2.03,0-3.69-1.66-3.69-3.69s1.66-3.69,3.69-3.69h43.88c2.03,0,3.69,1.66,3.69,3.69s-1.66,3.69-3.69,3.69ZM957.19,275.17c-1.53,0-2.78,1.25-2.78,2.78s1.25,2.78,2.78,2.78h43.88c1.53,0,2.78-1.25,2.78-2.78s-1.25-2.78-2.78-2.78h-43.88Z"/>
      </g>
      <g>
        <rect class="cls-3" x="953.95" y="266.43" width="50.35" height="6.47" rx=".89" ry=".89" transform="translate(1958.26 539.32) rotate(180)"/>
        <path class="cls-2" d="M1001.07,273.35h-43.88c-2.03,0-3.69-1.66-3.69-3.69s1.66-3.69,3.69-3.69h43.88c2.03,0,3.69,1.66,3.69,3.69s-1.66,3.69-3.69,3.69ZM957.19,266.88c-1.53,0-2.78,1.25-2.78,2.78s1.25,2.78,2.78,2.78h43.88c1.53,0,2.78-1.25,2.78-2.78s-1.25-2.78-2.78-2.78h-43.88Z"/>
      </g>
      <circle class="cls-1" cx="955.75" cy="240.49" r="12.33"/>
      <g>
        <rect class="cls-3" x="953.95" y="241.5" width="50.35" height="6.47" rx=".89" ry=".89" transform="translate(1958.26 489.48) rotate(180)"/>
        <path class="cls-2" d="M1001.07,248.43h-43.88c-2.03,0-3.69-1.66-3.69-3.69s1.66-3.69,3.69-3.69h43.88c2.03,0,3.69,1.66,3.69,3.69s-1.66,3.69-3.69,3.69ZM957.19,241.96c-1.53,0-2.78,1.25-2.78,2.78s1.25,2.78,2.78,2.78h43.88c1.53,0,2.78-1.25,2.78-2.78s-1.25-2.78-2.78-2.78h-43.88Z"/>
      </g>
      <g>
        <rect class="cls-3" x="953.95" y="233.21" width="50.35" height="6.47" rx=".89" ry=".89" transform="translate(1958.26 472.9) rotate(180)"/>
        <path class="cls-2" d="M1001.07,240.14h-43.88c-2.03,0-3.69-1.66-3.69-3.69s1.66-3.69,3.69-3.69h43.88c2.03,0,3.69,1.66,3.69,3.69s-1.66,3.69-3.69,3.69ZM957.19,233.67c-1.53,0-2.78,1.25-2.78,2.78s1.25,2.78,2.78,2.78h43.88c1.53,0,2.78-1.25,2.78-2.78s-1.25-2.78-2.78-2.78h-43.88Z"/>
      </g>
      <circle class="cls-1" cx="955.75" cy="207.28" r="12.33"/>
      <g>
        <rect class="cls-3" x="953.95" y="208.29" width="50.35" height="6.47" rx=".89" ry=".89" transform="translate(1958.26 423.05) rotate(-180)"/>
        <path class="cls-2" d="M1001.07,215.22h-43.88c-2.03,0-3.69-1.66-3.69-3.69s1.66-3.69,3.69-3.69h43.88c2.03,0,3.69,1.66,3.69,3.69s-1.66,3.69-3.69,3.69ZM957.19,208.75c-1.53,0-2.78,1.25-2.78,2.78s1.25,2.78,2.78,2.78h43.88c1.53,0,2.78-1.25,2.78-2.78s-1.25-2.78-2.78-2.78h-43.88Z"/>
      </g>
      <g>
        <rect class="cls-3" x="953.95" y="200" width="50.35" height="6.47" rx=".89" ry=".89" transform="translate(1958.26 406.47) rotate(180)"/>
        <path class="cls-2" d="M1001.07,206.93h-43.88c-2.03,0-3.69-1.66-3.69-3.69s1.66-3.69,3.69-3.69h43.88c2.03,0,3.69,1.66,3.69,3.69s-1.66,3.69-3.69,3.69ZM957.19,200.46c-1.53,0-2.78,1.25-2.78,2.78s1.25,2.78,2.78,2.78h43.88c1.53,0,2.78-1.25,2.78-2.78s-1.25-2.78-2.78-2.78h-43.88Z"/>
      </g>
      <circle class="cls-1" cx="955.75" cy="174.07" r="12.33"/>
      <g>
        <rect class="cls-3" x="953.95" y="175.08" width="50.35" height="6.47" rx=".89" ry=".89" transform="translate(1958.26 356.63) rotate(-180)"/>
        <path class="cls-2" d="M1001.07,182h-43.88c-2.03,0-3.69-1.66-3.69-3.69s1.66-3.69,3.69-3.69h43.88c2.03,0,3.69,1.66,3.69,3.69s-1.66,3.69-3.69,3.69ZM957.19,175.53c-1.53,0-2.78,1.25-2.78,2.78s1.25,2.78,2.78,2.78h43.88c1.53,0,2.78-1.25,2.78-2.78s-1.25-2.78-2.78-2.78h-43.88Z"/>
      </g>
      <g>
        <rect class="cls-3" x="953.95" y="166.79" width="50.35" height="6.47" rx=".89" ry=".89" transform="translate(1958.26 340.05) rotate(180)"/>
        <path class="cls-2" d="M1001.07,173.71h-43.88c-2.03,0-3.69-1.66-3.69-3.69s1.66-3.69,3.69-3.69h43.88c2.03,0,3.69,1.66,3.69,3.69s-1.66,3.69-3.69,3.69ZM957.19,167.24c-1.53,0-2.78,1.25-2.78,2.78s1.25,2.78,2.78,2.78h43.88c1.53,0,2.78-1.25,2.78-2.78s-1.25-2.78-2.78-2.78h-43.88Z"/>
      </g>
      <circle class="cls-1" cx="955.75" cy="140.86" r="12.33"/>
      <g>
        <rect class="cls-3" x="953.95" y="141.87" width="50.35" height="6.47" rx=".89" ry=".89" transform="translate(1958.26 290.2) rotate(180)"/>
        <path class="cls-2" d="M1001.07,148.79h-43.88c-2.03,0-3.69-1.66-3.69-3.69s1.66-3.69,3.69-3.69h43.88c2.03,0,3.69,1.66,3.69,3.69s-1.66,3.69-3.69,3.69ZM957.19,142.32c-1.53,0-2.78,1.25-2.78,2.78s1.25,2.78,2.78,2.78h43.88c1.53,0,2.78-1.25,2.78-2.78s-1.25-2.78-2.78-2.78h-43.88Z"/>
      </g>
      <g>
        <rect class="cls-3" x="953.95" y="133.58" width="50.35" height="6.47" rx=".89" ry=".89" transform="translate(1958.26 273.62) rotate(180)"/>
        <path class="cls-2" d="M1001.07,140.5h-43.88c-2.03,0-3.69-1.66-3.69-3.69s1.66-3.69,3.69-3.69h43.88c2.03,0,3.69,1.66,3.69,3.69s-1.66,3.69-3.69,3.69ZM957.19,134.03c-1.53,0-2.78,1.25-2.78,2.78s1.25,2.78,2.78,2.78h43.88c1.53,0,2.78-1.25,2.78-2.78s-1.25-2.78-2.78-2.78h-43.88Z"/>
      </g>
      <circle class="cls-1" cx="955.75" cy="107.64" r="12.33"/>
      <g>
        <rect class="cls-3" x="953.95" y="108.65" width="50.35" height="6.47" rx=".89" ry=".89" transform="translate(1958.26 223.78) rotate(-180)"/>
        <path class="cls-2" d="M1001.07,115.58h-43.88c-2.03,0-3.69-1.66-3.69-3.69s1.66-3.69,3.69-3.69h43.88c2.03,0,3.69,1.66,3.69,3.69s-1.66,3.69-3.69,3.69ZM957.19,109.11c-1.53,0-2.78,1.25-2.78,2.78s1.25,2.78,2.78,2.78h43.88c1.53,0,2.78-1.25,2.78-2.78s-1.25-2.78-2.78-2.78h-43.88Z"/>
      </g>
      <g>
        <rect class="cls-3" x="953.95" y="100.36" width="50.35" height="6.47" rx=".89" ry=".89" transform="translate(1958.26 207.2) rotate(180)"/>
        <path class="cls-2" d="M1001.07,107.29h-43.88c-2.03,0-3.69-1.66-3.69-3.69s1.66-3.69,3.69-3.69h43.88c2.03,0,3.69,1.66,3.69,3.69s-1.66,3.69-3.69,3.69ZM957.19,100.82c-1.53,0-2.78,1.25-2.78,2.78s1.25,2.78,2.78,2.78h43.88c1.53,0,2.78-1.25,2.78-2.78s-1.25-2.78-2.78-2.78h-43.88Z"/>
      </g>
      <circle class="cls-1" cx="955.75" cy="74.43" r="12.33"/>
      <g>
        <rect class="cls-3" x="953.95" y="75.44" width="50.35" height="6.47" rx=".89" ry=".89" transform="translate(1958.26 157.35) rotate(180)"/>
        <path class="cls-2" d="M1001.07,82.37h-43.88c-2.03,0-3.69-1.66-3.69-3.69s1.66-3.69,3.69-3.69h43.88c2.03,0,3.69,1.66,3.69,3.69s-1.66,3.69-3.69,3.69ZM957.19,75.9c-1.53,0-2.78,1.25-2.78,2.78s1.25,2.78,2.78,2.78h43.88c1.53,0,2.78-1.25,2.78-2.78s-1.25-2.78-2.78-2.78h-43.88Z"/>
      </g>
      <g>
        <rect class="cls-3" x="953.95" y="67.15" width="50.35" height="6.47" rx=".89" ry=".89" transform="translate(1958.26 140.77) rotate(-180)"/>
        <path class="cls-2" d="M1001.07,74.08h-43.88c-2.03,0-3.69-1.66-3.69-3.69s1.66-3.69,3.69-3.69h43.88c2.03,0,3.69,1.66,3.69,3.69s-1.66,3.69-3.69,3.69ZM957.19,67.61c-1.53,0-2.78,1.25-2.78,2.78s1.25,2.78,2.78,2.78h43.88c1.53,0,2.78-1.25,2.78-2.78s-1.25-2.78-2.78-2.78h-43.88Z"/>
      </g>
      <circle class="cls-1" cx="955.75" cy="41.22" r="12.33"/>
      <g>
        <rect class="cls-3" x="953.95" y="42.23" width="50.35" height="6.47" rx=".89" ry=".89" transform="translate(1958.26 90.93) rotate(-180)"/>
        <path class="cls-2" d="M1001.07,49.15h-43.88c-2.03,0-3.69-1.66-3.69-3.69s1.66-3.69,3.69-3.69h43.88c2.03,0,3.69,1.66,3.69,3.69s-1.66,3.69-3.69,3.69ZM957.19,42.68c-1.53,0-2.78,1.25-2.78,2.78s1.25,2.78,2.78,2.78h43.88c1.53,0,2.78-1.25,2.78-2.78s-1.25-2.78-2.78-2.78h-43.88Z"/>
      </g>
      <g>
        <rect class="cls-3" x="953.95" y="33.94" width="50.35" height="6.47" rx=".89" ry=".89" transform="translate(1958.26 74.35) rotate(180)"/>
        <path class="cls-2" d="M1001.07,40.86h-43.88c-2.03,0-3.69-1.66-3.69-3.69s1.66-3.69,3.69-3.69h43.88c2.03,0,3.69,1.66,3.69,3.69s-1.66,3.69-3.69,3.69ZM957.19,34.39c-1.53,0-2.78,1.25-2.78,2.78s1.25,2.78,2.78,2.78h43.88c1.53,0,2.78-1.25,2.78-2.78s-1.25-2.78-2.78-2.78h-43.88Z"/>
      </g>
    </g>
  </g>
</svg>