<?xml version="1.0" encoding="UTF-8"?>
<svg id="Capa_2" data-name="Capa 2" xmlns="http://www.w3.org/2000/svg" viewBox="0 0 244.05 43.32">
  <defs>
    <style>
      .cls-1 {
        fill: #000;
        stroke-width: 0px;
      }
    </style>
  </defs>
  <g id="Layer_3" data-name="Layer 3">
    <path class="cls-1" d="M232.44,43.32H11.61c-6.4,0-11.61-5.21-11.61-11.61V11.61C0,5.21,5.21,0,11.61,0h220.83c6.4,0,11.61,5.21,11.61,11.61v20.09c0,6.4-5.21,11.61-11.61,11.61ZM11.61,1C5.76,1,1,5.76,1,11.61v20.09c0,5.85,4.76,10.61,10.61,10.61h220.83c5.85,0,10.61-4.76,10.61-10.61V11.61c0-5.85-4.76-10.61-10.61-10.61H11.61Z"/>
  </g>
</svg>