<?xml version="1.0" encoding="UTF-8"?>
<svg id="Capa_2" data-name="Capa 2" xmlns="http://www.w3.org/2000/svg" viewBox="0 0 551.7 69.43">
  <defs>
    <style>
      .cls-1 {
        fill: #000;
        stroke-width: 0px;
      }
    </style>
  </defs>
  <g id="Layer_1" data-name="Layer 1">
    <path class="cls-1" d="M542.33,69.43H9.36c-5.16,0-9.36-4.2-9.36-9.36V9.36C0,4.2,4.2,0,9.36,0h532.97c5.16,0,9.36,4.2,9.36,9.36v50.71c0,5.16-4.2,9.36-9.36,9.36ZM9.36,1C4.75,1,1,4.75,1,9.36v50.71c0,4.61,3.75,8.36,8.36,8.36h532.97c4.61,0,8.36-3.75,8.36-8.36V9.36c0-4.61-3.75-8.36-8.36-8.36H9.36Z"/>
  </g>
</svg>