<?xml version="1.0" encoding="UTF-8"?>
<svg id="Capa_2" data-name="Capa 2" xmlns="http://www.w3.org/2000/svg" viewBox="0 0 284.74 57.97">
  <defs>
    <style>
      .cls-1 {
        fill: #4cf;
        stroke-width: 0px;
      }
    </style>
  </defs>
  <g id="Layer_1" data-name="Layer 1">
    <polygon class="cls-1" points="278.74 4.66 284.74 0 254.52 0 30.22 0 0 0 6 5.92 0 10.36 6 15.23 0 20.31 6 24.33 0 28.99 6 33 0 38.59 6 43.58 0 48.45 6 53.32 0 57.97 30.22 57.97 254.52 57.97 284.74 57.97 278.74 52.06 284.74 47.61 278.74 42.74 284.74 37.67 278.74 33.65 284.74 28.99 278.74 24.97 284.74 19.38 278.74 14.39 284.74 9.52 278.74 4.66"/>
  </g>
</svg>