<?xml version="1.0" encoding="UTF-8"?>
<svg id="Capa_2" data-name="Capa 2" xmlns="http://www.w3.org/2000/svg" viewBox="0 0 358.87 350.55">
  <defs>
    <style>
      .cls-1 {
        fill: #4cf;
      }

      .cls-1, .cls-2, .cls-3, .cls-4, .cls-5, .cls-6, .cls-7, .cls-8, .cls-9, .cls-10, .cls-11, .cls-12, .cls-13, .cls-14, .cls-15, .cls-16, .cls-17, .cls-18 {
        stroke-width: 0px;
      }

      .cls-19, .cls-20 {
        stroke: #000;
      }

      .cls-19, .cls-20, .cls-21 {
        stroke-miterlimit: 10;
      }

      .cls-19, .cls-15 {
        fill: #fff;
      }

      .cls-2 {
        fill: #1a1a1a;
      }

      .cls-3 {
        fill: #bb8161;
      }

      .cls-20, .cls-21 {
        fill: none;
      }

      .cls-4 {
        fill: #1acebb;
      }

      .cls-5 {
        fill: #5c6a7d;
      }

      .cls-6 {
        fill: #3ce8d6;
      }

      .cls-7 {
        fill: #84344f;
      }

      .cls-8 {
        fill: #cb667f;
      }

      .cls-9 {
        fill: #1f242a;
      }

      .cls-10 {
        fill: #414c59;
      }

      .cls-21 {
        stroke: #efeffc;
      }

      .cls-11 {
        fill: #484848;
      }

      .cls-12 {
        fill: #804a2b;
      }

      .cls-13 {
        fill: #333b45;
      }

      .cls-14 {
        fill: #1aa8b0;
      }

      .cls-16 {
        fill: #b2dd45;
      }

      .cls-17 {
        fill: #aa6239;
      }

      .cls-18 {
        fill: #4d5969;
      }
    </style>
  </defs>
  <g id="Layer_1" data-name="Layer 1">
    <g>
      <path class="cls-1" d="M51.79,40.63h292.11v256.11c0,15.95-12.95,28.89-28.89,28.89H22.9V69.52c0-15.95,12.95-28.89,28.89-28.89Z"/>
      <g>
        <rect class="cls-16" x="33.63" y="77.16" width="4.51" height="277" transform="translate(-51.39 15.21) rotate(-14.08)"/>
        <rect class="cls-16" x="41.39" y="75.22" width="4.51" height="277" transform="translate(-50.68 17.04) rotate(-14.08)"/>
        <rect class="cls-16" x="49.15" y="73.27" width="4.51" height="277" transform="translate(-49.98 18.87) rotate(-14.08)"/>
        <rect class="cls-16" x="56.91" y="71.32" width="4.51" height="277" transform="translate(-49.27 20.7) rotate(-14.08)"/>
        <rect class="cls-16" x="64.67" y="69.38" width="4.51" height="277" transform="translate(-48.56 22.53) rotate(-14.08)"/>
        <rect class="cls-16" x="72.43" y="67.43" width="4.51" height="277" transform="translate(-47.86 24.36) rotate(-14.08)"/>
        <rect class="cls-16" x="80.19" y="65.48" width="4.51" height="277" transform="translate(-47.15 26.19) rotate(-14.08)"/>
        <rect class="cls-16" x="87.95" y="63.54" width="4.51" height="277" transform="translate(-46.44 28.02) rotate(-14.08)"/>
        <rect class="cls-16" x="95.71" y="61.59" width="4.51" height="277" transform="translate(-45.74 29.85) rotate(-14.08)"/>
        <rect class="cls-16" x="103.47" y="59.64" width="4.51" height="277" transform="translate(-45.03 31.68) rotate(-14.08)"/>
        <rect class="cls-16" x="111.22" y="57.7" width="4.51" height="277" transform="translate(-44.32 33.5) rotate(-14.08)"/>
        <rect class="cls-16" x="118.98" y="55.75" width="4.51" height="277" transform="translate(-43.62 35.33) rotate(-14.08)"/>
        <rect class="cls-16" x="126.74" y="53.81" width="4.51" height="277" transform="translate(-42.91 37.16) rotate(-14.08)"/>
        <rect class="cls-16" x="134.5" y="51.86" width="4.51" height="277" transform="translate(-42.2 38.99) rotate(-14.08)"/>
        <rect class="cls-16" x="142.26" y="49.91" width="4.51" height="277" transform="translate(-41.5 40.82) rotate(-14.08)"/>
        <rect class="cls-16" x="150.02" y="47.97" width="4.51" height="277" transform="translate(-40.79 42.65) rotate(-14.08)"/>
        <rect class="cls-16" x="157.78" y="46.02" width="4.51" height="277" transform="translate(-40.08 44.48) rotate(-14.08)"/>
        <rect class="cls-16" x="165.54" y="44.07" width="4.51" height="277" transform="translate(-39.38 46.31) rotate(-14.08)"/>
        <rect class="cls-16" x="173.3" y="42.13" width="4.51" height="277" transform="translate(-38.67 48.14) rotate(-14.08)"/>
        <rect class="cls-16" x="181.06" y="40.18" width="4.51" height="277" transform="translate(-37.96 49.97) rotate(-14.08)"/>
        <rect class="cls-16" x="188.82" y="38.23" width="4.51" height="277" transform="translate(-37.26 51.8) rotate(-14.08)"/>
        <rect class="cls-16" x="196.58" y="36.29" width="4.51" height="277" transform="translate(-36.55 53.63) rotate(-14.08)"/>
        <rect class="cls-16" x="204.34" y="34.34" width="4.51" height="277" transform="translate(-35.84 55.46) rotate(-14.08)"/>
        <rect class="cls-16" x="212.1" y="32.39" width="4.51" height="277" transform="translate(-35.14 57.29) rotate(-14.08)"/>
        <rect class="cls-16" x="219.86" y="30.45" width="4.51" height="277" transform="translate(-34.43 59.12) rotate(-14.08)"/>
        <rect class="cls-16" x="227.62" y="28.5" width="4.51" height="277" transform="translate(-33.72 60.95) rotate(-14.08)"/>
        <rect class="cls-16" x="235.38" y="26.56" width="4.51" height="277" transform="translate(-33.02 62.78) rotate(-14.08)"/>
        <rect class="cls-16" x="243.14" y="24.61" width="4.51" height="277" transform="translate(-32.31 64.61) rotate(-14.08)"/>
        <rect class="cls-16" x="250.9" y="22.66" width="4.51" height="277" transform="translate(-31.6 66.43) rotate(-14.08)"/>
        <rect class="cls-16" x="258.66" y="20.72" width="4.51" height="277" transform="translate(-30.9 68.26) rotate(-14.08)"/>
        <rect class="cls-16" x="266.42" y="18.77" width="4.51" height="277" transform="translate(-30.19 70.09) rotate(-14.08)"/>
        <rect class="cls-16" x="274.18" y="16.82" width="4.51" height="277" transform="translate(-29.48 71.92) rotate(-14.08)"/>
        <rect class="cls-16" x="281.94" y="14.88" width="4.51" height="277" transform="translate(-28.78 73.75) rotate(-14.08)"/>
        <rect class="cls-16" x="289.7" y="12.93" width="4.51" height="277" transform="translate(-28.07 75.58) rotate(-14.08)"/>
        <rect class="cls-16" x="297.46" y="10.98" width="4.51" height="277" transform="translate(-27.36 77.41) rotate(-14.08)"/>
        <rect class="cls-16" x="305.22" y="9.04" width="4.51" height="277" transform="translate(-26.66 79.24) rotate(-14.08)"/>
        <rect class="cls-16" x="312.97" y="7.09" width="4.51" height="277" transform="translate(-25.95 81.07) rotate(-14.08)"/>
        <rect class="cls-16" x="320.73" y="5.15" width="4.51" height="277" transform="translate(-25.24 82.9) rotate(-14.08)"/>
      </g>
      <path class="cls-19" d="M12.55,30.28h321v256.11c0,15.95-12.95,28.89-28.89,28.89H12.55V30.28h0Z"/>
      <path class="cls-20" d="M303.97,12.44l-19.11,41.29c-2.51,5.43-.15,11.87,5.28,14.38h0c5.43,2.51,11.87.15,14.38-5.28l19.11-41.29"/>
      <path class="cls-20" d="M323.64,21.54l1.38-2.99c2.95-6.37.17-13.92-6.2-16.87h0c-6.37-2.95-13.92-.17-16.87,6.2l-25.98,56.16c-3.34,7.23-.2,15.79,7.03,19.14h0c7.23,3.34,15.79.2,19.14-7.03l24.05-51.98"/>
      <g>
        <path class="cls-21" d="M286.46,100.4h-36.94c-10.83,0-19.62-8.78-19.62-19.62h0c0-10.83,8.78-19.62,19.62-19.62h13.04c11.6,0,21.01-9.41,21.01-21.01h0c0-11.6-9.41-21.01-21.01-21.01H72.94c-11.6,0-21.01,9.41-21.01,21.01h0c0,11.6,9.41,21.01,21.01,21.01h4.05c10.83,0,19.62,8.78,19.62,19.62h0c0,10.83-8.78,19.62-19.62,19.62h-29.84c-11.6,0-21.01,9.41-21.01,21.01h0c0,11.6,9.41,21.01,21.01,21.01h1.78c11.46,0,20.75,9.29,20.75,20.75h0c0,11.46,9.29,20.75,20.75,20.75h158.2c11.46,0,20.75-9.29,20.75-20.75h0c0-11.46,9.29-20.75,20.75-20.75h0c9.58,0,17.35-7.77,17.35-17.35v-3.66c0-11.6-9.41-21.01-21.01-21.01h0Z"/>
        <rect class="cls-19" x="102.82" y="1.16" width="132.12" height="127.24" rx="63.62" ry="63.62" transform="translate(-6.73 21.46) rotate(-7.13)"/>
        <circle class="cls-21" cx="76.64" cy="80.63" r="8.43"/>
        <circle class="cls-21" cx="250.1" cy="80.63" r="8.43"/>
        <g>
          <path class="cls-2" d="M193.64,35.49c1.12-1.73,1.77-3.79,1.77-6.01,0-6.13-4.97-11.11-11.11-11.11-1.11,0-2.18.17-3.19.47-1.2-2.81-4.4-4.61-8.14-4.61s-7.11,2.43-7.77,4.91c-4.78.42-8.54,4.44-8.54,9.33,0,5.18,4.2,9.37,9.37,9.37,3.33,0,6.25-1.74,7.91-4.36.77,1.99,2.1,3.7,3.8,4.95-1.12,1.73-1.77,3.79-1.77,6.01,0,6.13,4.97,11.11,11.11,11.11s11.11-4.97,11.11-11.11c0-3.68-1.8-6.94-4.56-8.96h0Z"/>
          <ellipse class="cls-11" cx="173.14" cy="19.99" rx="4.63" ry="3.23"/>
          <ellipse class="cls-11" cx="162.52" cy="24.8" rx="2.49" ry="2.02" transform="translate(22.98 111.71) rotate(-40.59)"/>
          <path class="cls-13" d="M187.27,92.86l-27.54-5.69,9.01-43.62,25.02,5.17c3.19.66,5.24,3.78,4.58,6.97l-7.14,34.58c-.37,1.8-2.14,2.96-3.94,2.59h0Z"/>
          <path class="cls-9" d="M179.6,91.28l-19.87-4.1,9.01-43.62,18.6,3.84c3.5.72,5.75,4.14,5.02,7.64l-6.66,32.22c-.58,2.8-3.32,4.6-6.12,4.02h0Z"/>
          <polygon class="cls-17" points="127.09 141.08 120.81 161.56 107.51 157.79 113.97 137.08 127.09 141.08"/>
          <polygon class="cls-12" points="127.09 141.08 123.97 151.27 110.62 147.83 113.97 137.08 127.09 141.08"/>
          <path class="cls-9" d="M146.33,79.6l-24.41,22.57c-1.15,1.06-1.97,2.43-2.37,3.94l-9.24,35.9c-.29,1.1.37,2.23,1.47,2.52l15.94,4.19c.87.23,1.76-.27,2.03-1.13l10.1-32.56c.16-.53.47-1,.88-1.36l27.9-24.46-22.31-9.6Z"/>
          <path class="cls-4" d="M107.51,157.79c-2.89,3.99-12.88,2.27-17.39,1.25-1.29-.29-2.59.43-3.02,1.68l-1.52,4.35c-.29.82.18,1.72,1.03,1.94l30.73,8.29c.88.24,1.76-.36,1.88-1.26l1.58-12.48-13.29-3.77h0Z"/>
          <path class="cls-13" d="M119.53,171.63l-33.26-8.52-.68,1.95c-.29.82.18,1.72,1.03,1.94l30.73,8.29c.88.24,1.76-.36,1.88-1.26l.31-2.41h0Z"/>
          <path class="cls-10" d="M151.82,98.29c-.1,0-.19-.04-.26-.12-.13-.14-.12-.36.03-.49l1.3-1.16c.14-.13.36-.12.49.03.13.14.12.36-.03.49l-1.3,1.16c-.07.06-.15.09-.23.09Z"/>
          <path class="cls-10" d="M128.61,139.14s-.07,0-.1-.02c-.18-.06-.29-.25-.23-.43l1.01-3.3c.06-.18.25-.29.43-.23.18.06.29.25.23.43l-1.01,3.3c-.05.15-.18.25-.33.25h0ZM130.62,132.54s-.07,0-.1-.02c-.18-.06-.29-.25-.23-.43l1.01-3.3c.06-.18.25-.29.43-.23.18.06.29.25.23.43l-1.01,3.3c-.05.15-.18.25-.33.25ZM132.76,125.55s-.07,0-.1-.02c-.18-.06-.29-.25-.23-.43l1.01-3.3c.06-.18.25-.29.43-.23.18.06.29.25.23.43l-1.01,3.3c-.05.15-.18.25-.33.25h0ZM134.77,118.95s-.07,0-.1-.02c-.18-.06-.29-.25-.23-.43l1.01-3.3c.06-.18.25-.29.43-.23.18.06.29.25.23.43l-1.01,3.3c-.05.15-.18.25-.33.25ZM136.79,112.35s-.07,0-.1-.01c-.18-.06-.29-.25-.23-.43l.26-.85c.02-.06.05-.12.1-.16l1.91-1.71c.14-.13.36-.12.49.03.13.14.12.36-.03.49l-1.84,1.65-.23.75c-.05.15-.18.25-.33.25h0ZM141.53,107.49c-.1,0-.19-.04-.26-.12-.13-.14-.12-.36.03-.49l2.57-2.3c.14-.13.36-.12.49.03.13.14.12.36-.03.49l-2.57,2.3c-.07.06-.15.09-.23.09ZM146.67,102.89c-.1,0-.19-.04-.26-.12-.13-.14-.12-.36.03-.49l2.57-2.3c.14-.13.36-.12.49.03.13.14.12.36-.03.49l-2.57,2.3c-.07.06-.15.09-.23.09Z"/>
          <path class="cls-10" d="M127.09,144.1s-.07,0-.1-.01c-.18-.06-.29-.25-.23-.43l.51-1.66c.06-.18.25-.29.43-.23.18.06.29.25.23.43l-.51,1.66c-.05.15-.18.25-.33.25h0Z"/>
          <path class="cls-17" d="M233.26,73.97l-38.02,4.39c-2.59.3-5.15-.83-6.67-2.95l-9.12-12.68c-2.27-3.16-1.87-7.64,1.13-10.11,3.29-2.71,8.14-2.04,10.59,1.37l6.57,9.13c.38.53,1.01.84,1.66.82l33.5-1.1c.27-1.09,1.02-2.2,2.05-2.66s2.31-.35,3.2.35c.89.7,1.29,1.97.9,3.03,2.31-1.01,5.1.23,6.47,2.34,1.37,2.11,1.25,5.01-.06,7.16-1.19,1.95-3.28,3.32-5.55,3.62s-5-1.14-6.65-2.71h0Z"/>
          <path class="cls-12" d="M246,71.03c-1.19,1.95-3.28,3.32-5.55,3.62-2.26.3-5-1.14-6.65-2.71l-38.02,4.39c-2.59.3-5.15-.83-6.67-2.95l-9.26-12.88c-1.11-1.54-1.52-3.36-1.32-5.11-.97,2.28-.77,4.98.78,7.14l9.26,12.88c1.52,2.12,4.08,3.25,6.67,2.95l38.02-4.39c1.65,1.57,4.39,3.01,6.65,2.71,2.26-.3,4.36-1.67,5.55-3.62.53-.87.85-1.86.98-2.88-.13.29-.27.57-.44.84h0Z"/>
          <path class="cls-14" d="M191.17,53.99c-2.36-3.28-6.92-4.02-10.2-1.67-3.28,2.36-4.02,6.92-1.67,10.2l3.9,5.42,11.79-8.64-3.82-5.31h0Z"/>
          <rect class="cls-3" x="213.75" y="65.08" width="15" height="2.68" rx="1.34" ry="1.34" transform="translate(-3.05 11.19) rotate(-2.88)"/>
          <path class="cls-17" d="M111.31,16.39l17.42,36.87c.94,1.99,2.92,3.29,5.12,3.35l18.61.55c4.02.12,7.57-2.93,7.76-6.95.2-4.1-3.01-7.54-7.09-7.66l-12.8-.38c-.73-.02-1.39-.41-1.77-1.04l-17.79-29.8c.96-.71,1.16-2.58.82-3.73-.34-1.14-1.44-2.02-2.63-2.09s-2.39.66-2.86,1.76c.13-.94-.34-1.84-1.17-2.3-.83-.47-1.84-.51-2.77-.34-2.59.49-4.75,2.75-5.12,5.36s1.89,5.21,4.25,6.39h0Z"/>
          <path class="cls-12" d="M154.42,55.19l-18.85-.55c-2.2-.06-4.18-1.36-5.12-3.35l-17.42-36.87c-2.36-1.18-4.61-3.78-4.25-6.39.11-.77.38-1.51.76-2.19-1.31,1.01-2.26,2.52-2.49,4.16-.37,2.61,1.89,5.21,4.25,6.39l17.42,36.87c.94,1.99,2.92,3.29,5.12,3.35l18.85.55c2.75.08,5.18-1.37,6.5-3.57-1.31,1.04-2.97,1.65-4.77,1.6h0Z"/>
          <path class="cls-14" d="M146.63,56.99l6.07.18c4.03.12,7.4-3.06,7.52-7.09.12-4.04-3.06-7.4-7.09-7.52l-5.48-.16-1.02,14.59h0Z"/>
          <rect class="cls-3" x="130.08" y="26.12" width="2.29" height="15.83" rx="1.15" ry="1.15" transform="translate(.56 70.17) rotate(-30)"/>
          <polygon class="cls-17" points="197.94 124.91 221.26 134.82 215.94 147.57 192.4 137.45 197.94 124.91"/>
          <polygon class="cls-12" points="197.94 124.91 213.16 131.37 207.32 143.86 192.4 137.45 197.94 124.91"/>
          <path class="cls-4" d="M215.94,147.57c3.62,3.35.73,13.06-.82,17.41-.44,1.24.12,2.62,1.31,3.2l4.14,2.02c.78.38,1.73.02,2.05-.79l11.89-29.53c.34-.84-.14-1.79-1.03-2.02l-12.21-3.05-5.33,12.75h0Z"/>
          <path class="cls-13" d="M231.11,137.28l-12.41,32.01,1.86.91c.78.38,1.73.02,2.05-.79l11.89-29.53c.34-.84-.14-1.79-1.03-2.02l-2.36-.59Z"/>
          <path class="cls-13" d="M181.44,86.94l-3.27,23.84c-.15,1.07.41,2.11,1.38,2.59l29.55,14.1c.82.4,1.17,1.39.79,2.22l-6.17,13.22c-.38.81-1.33,1.18-2.16.84l-42.33-16.63c-4.09-1.68-6.56-5.88-6.05-10.27l2.26-19.35,1.65-14.18,24.35,3.63h0Z"/>
          <path class="cls-5" d="M205.27,130.32c-.05,0-.1-.01-.15-.04l-1.35-.66c-.17-.08-.24-.29-.16-.47s.29-.24.47-.16l1.35.66c.17.08.24.29.16.47-.06.12-.18.19-.31.19h0ZM200.8,128.12c-.05,0-.1-.01-.15-.04l-3.12-1.53c-.17-.08-.24-.29-.16-.47.08-.17.29-.24.47-.16l3.12,1.53c.17.08.24.29.16.47-.06.12-.18.19-.31.19h0ZM194.55,125.05c-.05,0-.1-.01-.15-.04l-3.12-1.53c-.17-.08-.24-.29-.16-.47.08-.17.29-.24.47-.16l3.12,1.53c.17.08.24.29.16.47-.06.12-.18.19-.31.19h0ZM188.3,121.98c-.05,0-.1-.01-.15-.04l-3.12-1.53c-.17-.08-.24-.29-.16-.47.08-.17.29-.24.47-.16l3.12,1.53c.17.08.24.29.16.47-.06.12-.18.19-.31.19h0ZM182.74,119.48c-.05,0-.1-.01-.15-.04l-3.12-1.53c-.17-.08-.24-.29-.16-.47.08-.17.29-.24.47-.16l3.12,1.53c.17.08.24.29.16.47-.06.12-.18.19-.31.19h0ZM176.5,116.41c-.05,0-.1-.01-.15-.04l-1.09-.54c-.75-.37-1.36-.99-1.72-1.75-.08-.17,0-.38.17-.46.17-.08.38,0,.46.17.29.61.79,1.12,1.4,1.42l1.09.54c.17.08.24.29.16.47-.06.12-.18.19-.31.19h0ZM174.13,110.82s-.02,0-.03,0c-.19-.03-.32-.2-.3-.39l.47-3.45c.03-.19.2-.32.39-.3.19.03.32.2.3.39l-.47,3.45c-.02.18-.18.31-.36.3h0ZM175.07,103.93s-.02,0-.03,0c-.19-.03-.32-.2-.3-.39l.47-3.45c.03-.19.2-.33.39-.3.19.03.32.2.3.39l-.47,3.45c-.02.18-.18.31-.36.3ZM176.01,97.03s-.02,0-.03,0c-.19-.03-.32-.2-.3-.39l.47-3.45c.03-.19.2-.32.39-.3.19.03.32.2.3.39l-.47,3.45c-.02.18-.18.31-.36.3h0Z"/>
          <rect class="cls-18" x="167.33" y="114.34" width="3.65" height="20.33" rx="1.83" ry="1.83" transform="translate(-9.28 235.3) rotate(-68.19)"/>
          <path class="cls-4" d="M176.78,91.09l-31.01-6.41c-2.24-.46-3.68-2.65-3.21-4.89l4.29-20.78c2.23-10.8,12.8-17.75,23.6-15.51h0c10.8,2.23,17.75,12.8,15.51,23.6l-4.29,20.78c-.46,2.24-2.65,3.68-4.89,3.21h0Z"/>
          <path class="cls-6" d="M146.26,79.63h0c.17-.83.99-1.37,1.82-1.2l12.28,2.54c.83.17,1.37.99,1.2,1.82h0c-.17.83-.99,1.37-1.82,1.2l-12.28-2.54c-.83-.17-1.37-.99-1.2-1.82Z"/>
          <path class="cls-15" d="M169.29,53.03c5.08.59,9.52-1.46,10.62-4.68-2.57-2.36-5.79-4.08-9.46-4.84h0c-3.67-.76-7.31-.45-10.6.7-.05.22-.1.45-.12.68-.36,3.85,3.92,7.5,9.56,8.15h0Z"/>
          <path class="cls-13" d="M185.32,47.02l-3.58,17.62c-.52,2.56-.34,5.21.51,7.67l1.65,4.8-1.28,6.2-3.65-8.32c-1.47-3.35-1.85-7.08-1.09-10.66l3.86-18.09,3.58.78Z"/>
          <path class="cls-13" d="M149.8,64.06l-4.91,4.48-1.2,5.8,8.46-7.8c1.33-1.22,2.29-2.79,2.77-4.53l4.97-17.82c-1.43.5-2.8,1.15-4.08,1.95l-4.18,14.93c-.32,1.15-.96,2.19-1.84,2.99h0Z"/>
          <path class="cls-12" d="M170.45,43.51h0c-2.65-.55-5.28-.54-7.78-.06-.39.51-.64,1.07-.7,1.68-.28,2.71,3.06,5.29,7.47,5.75,4.41.46,8.21-1.37,8.49-4.08,0-.02,0-.03,0-.04-2.18-1.54-4.7-2.67-7.47-3.24h0Z"/>
          <circle class="cls-17" cx="182.42" cy="36.38" r="3.04"/>
          <circle class="cls-12" cx="182.42" cy="36.38" r="1.48"/>
          <path class="cls-17" d="M177.92,34.18c-2.81,0-5.26-1.55-6.56-3.83-.2-.36-.7-.37-.91-.02-.83,1.39-2.35,2.33-4.09,2.33-1.07,0-2.05-.35-2.85-.95-.31-.23-.76-.05-.85.32l-.62,2.52c-1.28,5.23,1.92,10.5,7.14,11.79h0c5.23,1.28,10.5-1.92,11.79-7.14l1.49-6.09c.05-.18-.16-.34-.32-.23-1.21.82-2.66,1.31-4.24,1.31h0Z"/>
          <path class="cls-7" d="M168.98,40.76c.27,1.33,1.44,2.34,2.85,2.34,1.6,0,2.91-1.3,2.91-2.91,0-.02,0-.03,0-.05l-5.75.62h0Z"/>
          <path class="cls-8" d="M171.83,43.09c.8,0,1.52-.32,2.05-.84-.34-.52-.93-.86-1.6-.86-.86,0-1.58.57-1.82,1.36.41.22.87.35,1.37.35h0Z"/>
          <path class="cls-15" d="M173.39,40.28l-3.6.39c.42.44,1,.71,1.65.71.83,0,1.54-.44,1.94-1.1Z"/>
          <ellipse class="cls-9" cx="167.36" cy="36.3" rx=".59" ry=".81"/>
          <ellipse class="cls-9" cx="171.94" cy="36.3" rx=".59" ry=".81"/>
        </g>
        <path class="cls-1" d="M213.56,183.91c.25-.83.39-1.72.39-2.63,0-4.99-4.05-9.04-9.04-9.04-1.54,0-2.98.39-4.25,1.06-1.58-5.64-6.74-9.77-12.88-9.77-3.16,0-6.06,1.1-8.35,2.93-2.92-4.06-7.68-6.71-13.07-6.71-7.03,0-13.01,4.52-15.19,10.8-.85-.22-1.74-.34-2.66-.34-5.99,0-10.85,4.86-10.85,10.85,0,.99.14,1.94.39,2.84h75.52Z"/>
        <g>
          <rect class="cls-16" x="284.3" y="182.17" width="22.35" height="5.31" rx="2.15" ry="2.15"/>
          <rect class="cls-16" x="37.69" y="182.17" width="244.44" height="5.31" rx="2.15" ry="2.15"/>
        </g>
      </g>
    </g>
  </g>
</svg>