<?xml version="1.0" encoding="UTF-8"?>
<svg id="Capa_2" data-name="Capa 2" xmlns="http://www.w3.org/2000/svg" xmlns:xlink="http://www.w3.org/1999/xlink" viewBox="0 0 358.87 357.1">
  <defs>
    <style>
      .cls-1 {
        fill: #db635e;
      }

      .cls-1, .cls-2, .cls-3, .cls-4, .cls-5, .cls-6, .cls-7, .cls-8, .cls-9, .cls-10, .cls-11, .cls-12, .cls-13, .cls-14, .cls-15, .cls-16 {
        stroke-width: 0px;
      }

      .cls-2 {
        fill: #fda685;
      }

      .cls-3 {
        fill: #4cf;
      }

      .cls-4 {
        fill: #6db0f9;
      }

      .cls-17, .cls-18 {
        stroke: #000;
      }

      .cls-17, .cls-18, .cls-19 {
        stroke-miterlimit: 10;
      }

      .cls-17, .cls-13 {
        fill: #fff;
      }

      .cls-5 {
        fill: #464c70;
      }

      .cls-6 {
        fill: #05341b;
      }

      .cls-7 {
        fill: #2f344e;
      }

      .cls-18, .cls-9, .cls-19 {
        fill: none;
      }

      .cls-8 {
        fill: #dbdbdb;
      }

      .cls-20 {
        clip-path: url(#clippath-1);
      }

      .cls-10 {
        fill: #1d2033;
      }

      .cls-11 {
        fill: #3695ed;
      }

      .cls-12 {
        fill: #ff8e71;
      }

      .cls-21 {
        clip-path: url(#clippath);
      }

      .cls-19 {
        stroke: #efeffc;
      }

      .cls-14 {
        fill: #006e34;
      }

      .cls-15 {
        fill: #b2dd45;
      }

      .cls-16 {
        fill: #ffbda5;
      }
    </style>
    <clipPath id="clippath">
      <polygon class="cls-9" points="292.06 192.05 51.4 192.05 35.88 0 292.06 0 292.06 192.05"/>
    </clipPath>
    <clipPath id="clippath-1">
      <path class="cls-19" d="M369.47,113.24h0c0-14.35-11.63-25.98-25.98-25.98h-17.61c-14.35,0-25.98-11.63-25.98-25.98h0c0-14.35-11.63-25.98-25.98-25.98H55.81c-14.35,0-25.98,11.63-25.98,25.98h0c0,14.35,11.63,25.98,25.98,25.98h15.04c14.35,0,25.98,11.63,25.98,25.98h0c0,14.35-11.63,25.98-25.98,25.98H26.23c-14.35,0-25.98,11.63-25.98,25.98H.25c0,14.35,11.63,25.98,25.98,25.98h65.15c14.35,0,25.98,11.63,25.98,25.98h0c0,14.35-11.63,25.98-25.98,25.98h-6.44c-14.35,0-25.98,11.63-25.98,25.98h0c0,14.35,11.63,25.98,25.98,25.98h151.98c14.35,0,25.98-11.63,25.98-25.98h0c0-14.35,11.63-25.98,25.98-25.98h9.32c14.35,0,25.98-11.63,25.98-25.98h0c0-14.35-11.63-25.98-25.98-25.98h-31.83c-14.35,0-25.98-11.63-25.98-25.98h0c0-14.35,11.63-25.98,25.98-25.98h77.13c14.35,0,25.98-11.63,25.98-25.98Z"/>
    </clipPath>
  </defs>
  <g id="Layer_1" data-name="Layer 1">
    <g>
      <path class="cls-3" d="M51.79,47.19h292.11v256.11c0,15.95-12.95,28.89-28.89,28.89H22.9V76.08c0-15.95,12.95-28.89,28.89-28.89Z"/>
      <g>
        <rect class="cls-15" x="33.63" y="83.72" width="4.51" height="277" transform="translate(-52.99 15.41) rotate(-14.08)"/>
        <rect class="cls-15" x="41.39" y="81.77" width="4.51" height="277" transform="translate(-52.28 17.24) rotate(-14.08)"/>
        <rect class="cls-15" x="49.15" y="79.82" width="4.51" height="277" transform="translate(-51.57 19.07) rotate(-14.08)"/>
        <rect class="cls-15" x="56.91" y="77.88" width="4.51" height="277" transform="translate(-50.87 20.9) rotate(-14.08)"/>
        <rect class="cls-15" x="64.67" y="75.93" width="4.51" height="277" transform="translate(-50.16 22.73) rotate(-14.08)"/>
        <rect class="cls-15" x="72.43" y="73.98" width="4.51" height="277" transform="translate(-49.45 24.55) rotate(-14.08)"/>
        <rect class="cls-15" x="80.19" y="72.04" width="4.51" height="277" transform="translate(-48.75 26.38) rotate(-14.08)"/>
        <rect class="cls-15" x="87.95" y="70.09" width="4.51" height="277" transform="translate(-48.04 28.21) rotate(-14.08)"/>
        <rect class="cls-15" x="95.71" y="68.15" width="4.51" height="277" transform="translate(-47.33 30.04) rotate(-14.08)"/>
        <rect class="cls-15" x="103.47" y="66.2" width="4.51" height="277" transform="translate(-46.63 31.87) rotate(-14.08)"/>
        <rect class="cls-15" x="111.22" y="64.25" width="4.51" height="277" transform="translate(-45.92 33.7) rotate(-14.08)"/>
        <rect class="cls-15" x="118.98" y="62.31" width="4.51" height="277" transform="translate(-45.21 35.53) rotate(-14.08)"/>
        <rect class="cls-15" x="126.74" y="60.36" width="4.51" height="277" transform="translate(-44.51 37.36) rotate(-14.08)"/>
        <rect class="cls-15" x="134.5" y="58.41" width="4.51" height="277" transform="translate(-43.8 39.19) rotate(-14.08)"/>
        <rect class="cls-15" x="142.26" y="56.47" width="4.51" height="277" transform="translate(-43.09 41.02) rotate(-14.08)"/>
        <rect class="cls-15" x="150.02" y="54.52" width="4.51" height="277" transform="translate(-42.39 42.85) rotate(-14.08)"/>
        <rect class="cls-15" x="157.78" y="52.57" width="4.51" height="277" transform="translate(-41.68 44.68) rotate(-14.08)"/>
        <rect class="cls-15" x="165.54" y="50.63" width="4.51" height="277" transform="translate(-40.97 46.51) rotate(-14.08)"/>
        <rect class="cls-15" x="173.3" y="48.68" width="4.51" height="277" transform="translate(-40.27 48.34) rotate(-14.08)"/>
        <rect class="cls-15" x="181.06" y="46.73" width="4.51" height="277" transform="translate(-39.56 50.17) rotate(-14.08)"/>
        <rect class="cls-15" x="188.82" y="44.79" width="4.51" height="277" transform="translate(-38.85 52) rotate(-14.08)"/>
        <rect class="cls-15" x="196.58" y="42.84" width="4.51" height="277" transform="translate(-38.15 53.83) rotate(-14.08)"/>
        <rect class="cls-15" x="204.34" y="40.9" width="4.51" height="277" transform="translate(-37.44 55.65) rotate(-14.08)"/>
        <rect class="cls-15" x="212.1" y="38.95" width="4.51" height="277" transform="translate(-36.73 57.48) rotate(-14.08)"/>
        <rect class="cls-15" x="219.86" y="37" width="4.51" height="277" transform="translate(-36.02 59.31) rotate(-14.08)"/>
        <rect class="cls-15" x="227.62" y="35.06" width="4.51" height="277" transform="translate(-35.32 61.14) rotate(-14.08)"/>
        <rect class="cls-15" x="235.38" y="33.11" width="4.51" height="277" transform="translate(-34.61 62.97) rotate(-14.08)"/>
        <rect class="cls-15" x="243.14" y="31.16" width="4.51" height="277" transform="translate(-33.9 64.8) rotate(-14.08)"/>
        <rect class="cls-15" x="250.9" y="29.22" width="4.51" height="277" transform="translate(-33.2 66.63) rotate(-14.08)"/>
        <rect class="cls-15" x="258.66" y="27.27" width="4.51" height="277" transform="translate(-32.49 68.46) rotate(-14.08)"/>
        <rect class="cls-15" x="266.42" y="25.32" width="4.51" height="277" transform="translate(-31.78 70.29) rotate(-14.08)"/>
        <rect class="cls-15" x="274.18" y="23.38" width="4.51" height="277" transform="translate(-31.08 72.12) rotate(-14.08)"/>
        <rect class="cls-15" x="281.94" y="21.43" width="4.51" height="277" transform="translate(-30.37 73.95) rotate(-14.08)"/>
        <rect class="cls-15" x="289.7" y="19.49" width="4.51" height="277" transform="translate(-29.66 75.78) rotate(-14.08)"/>
        <rect class="cls-15" x="297.46" y="17.54" width="4.51" height="277" transform="translate(-28.96 77.61) rotate(-14.08)"/>
        <rect class="cls-15" x="305.22" y="15.59" width="4.51" height="277" transform="translate(-28.25 79.44) rotate(-14.08)"/>
        <rect class="cls-15" x="312.97" y="13.65" width="4.51" height="277" transform="translate(-27.54 81.27) rotate(-14.08)"/>
        <rect class="cls-15" x="320.73" y="11.7" width="4.51" height="277" transform="translate(-26.84 83.1) rotate(-14.08)"/>
      </g>
      <path class="cls-17" d="M12.55,36.83h321v256.11c0,15.95-12.95,28.89-28.89,28.89H12.55V36.83h0Z"/>
      <path class="cls-18" d="M303.97,18.99l-19.11,41.29c-2.51,5.43-.15,11.87,5.28,14.38h0c5.43,2.51,11.87.15,14.38-5.28l19.11-41.29"/>
      <path class="cls-18" d="M323.64,28.09l1.38-2.99c2.95-6.37.17-13.92-6.2-16.87h0c-6.37-2.95-13.92-.17-16.87,6.2l-25.98,56.16c-3.34,7.23-.2,15.79,7.03,19.14h0c7.23,3.34,15.79.2,19.14-7.03l24.05-51.98"/>
      <g class="cls-21">
        <g>
          <g>
            <path class="cls-19" d="M369.47,113.24h0c0-14.35-11.63-25.98-25.98-25.98h-17.61c-14.35,0-25.98-11.63-25.98-25.98h0c0-14.35-11.63-25.98-25.98-25.98H55.81c-14.35,0-25.98,11.63-25.98,25.98h0c0,14.35,11.63,25.98,25.98,25.98h15.04c14.35,0,25.98,11.63,25.98,25.98h0c0,14.35-11.63,25.98-25.98,25.98H26.23c-14.35,0-25.98,11.63-25.98,25.98H.25c0,14.35,11.63,25.98,25.98,25.98h65.15c14.35,0,25.98,11.63,25.98,25.98h0c0,14.35-11.63,25.98-25.98,25.98h-6.44c-14.35,0-25.98,11.63-25.98,25.98h0c0,14.35,11.63,25.98,25.98,25.98h151.98c14.35,0,25.98-11.63,25.98-25.98h0c0-14.35,11.63-25.98,25.98-25.98h9.32c14.35,0,25.98-11.63,25.98-25.98h0c0-14.35-11.63-25.98-25.98-25.98h-31.83c-14.35,0-25.98-11.63-25.98-25.98h0c0-14.35,11.63-25.98,25.98-25.98h77.13c14.35,0,25.98-11.63,25.98-25.98Z"/>
            <g>
              <g class="cls-20">
                <path class="cls-19" d="M293.36,262.82h-32.53c-2.89,0-5.24-2.34-5.24-5.24V66.18c0-2.89,2.34-5.24,5.24-5.24h32.53c2.89,0,5.24,2.34,5.24,5.24v191.4c0,2.89-2.34,5.24-5.24,5.24ZM203.68,66.18v191.4c0,2.89,2.34,5.24,5.24,5.24h32.53c2.89,0,5.24-2.34,5.24-5.24V66.18c0-2.89-2.34-5.24-5.24-5.24h-32.53c-2.89,0-5.24,2.34-5.24,5.24ZM151.77,66.18v191.4c0,2.89,2.34,5.24,5.24,5.24h32.53c2.89,0,5.24-2.34,5.24-5.24V66.18c0-2.89-2.34-5.24-5.24-5.24h-32.53c-2.89,0-5.24,2.34-5.24,5.24ZM99.86,66.18v191.4c0,2.89,2.34,5.24,5.24,5.24h32.53c2.89,0,5.24-2.34,5.24-5.24V66.18c0-2.89-2.34-5.24-5.24-5.24h-32.53c-2.89,0-5.24,2.34-5.24,5.24ZM46.97,66.18v191.4c0,2.89,2.34,5.24,5.24,5.24h33.51c2.89,0,5.24-2.34,5.24-5.24V66.18c0-2.89-2.34-5.24-5.24-5.24h-33.51c-2.89,0-5.24,2.34-5.24,5.24Z"/>
                <path class="cls-19" d="M293.36,56.18h-32.53c-2.89,0-5.24-2.34-5.24-5.24v-4.08c0-2.89,2.34-5.24,5.24-5.24h32.53c2.89,0,5.24,2.34,5.24,5.24v4.08c0,2.89-2.34,5.24-5.24,5.24ZM203.68,46.86v4.08c0,2.89,2.34,5.24,5.24,5.24h32.53c2.89,0,5.24-2.34,5.24-5.24v-4.08c0-2.89-2.34-5.24-5.24-5.24h-32.53c-2.89,0-5.24,2.34-5.24,5.24ZM151.77,46.86v4.08c0,2.89,2.34,5.24,5.24,5.24h32.53c2.89,0,5.24-2.34,5.24-5.24v-4.08c0-2.89-2.34-5.24-5.24-5.24h-32.53c-2.89,0-5.24,2.34-5.24,5.24ZM99.86,46.86v4.08c0,2.89,2.34,5.24,5.24,5.24h32.53c2.89,0,5.24-2.34,5.24-5.24v-4.08c0-2.89-2.34-5.24-5.24-5.24h-32.53c-2.89,0-5.24,2.34-5.24,5.24ZM46.97,46.86v4.08c0,2.89,2.34,5.24,5.24,5.24h33.51c2.89,0,5.24-2.34,5.24-5.24v-4.08c0-2.89-2.34-5.24-5.24-5.24h-33.51c-2.89,0-5.24,2.34-5.24,5.24Z"/>
              </g>
              <path class="cls-19" d="M369.47,113.24h0c0-14.35-11.63-25.98-25.98-25.98h-17.61c-14.35,0-25.98-11.63-25.98-25.98h0c0-14.35-11.63-25.98-25.98-25.98H55.81c-14.35,0-25.98,11.63-25.98,25.98h0c0,14.35,11.63,25.98,25.98,25.98h15.04c14.35,0,25.98,11.63,25.98,25.98h0c0,14.35-11.63,25.98-25.98,25.98H26.23c-14.35,0-25.98,11.63-25.98,25.98H.25c0,14.35,11.63,25.98,25.98,25.98h65.15c14.35,0,25.98,11.63,25.98,25.98h0c0,14.35-11.63,25.98-25.98,25.98h-6.44c-14.35,0-25.98,11.63-25.98,25.98h0c0,14.35,11.63,25.98,25.98,25.98h151.98c14.35,0,25.98-11.63,25.98-25.98h0c0-14.35,11.63-25.98,25.98-25.98h9.32c14.35,0,25.98-11.63,25.98-25.98h0c0-14.35-11.63-25.98-25.98-25.98h-31.83c-14.35,0-25.98-11.63-25.98-25.98h0c0-14.35,11.63-25.98,25.98-25.98h77.13c14.35,0,25.98-11.63,25.98-25.98Z"/>
            </g>
            <path class="cls-19" d="M345.42,58.02c0,8.03-6.51,14.54-14.54,14.54-8.03,0-14.54-6.51-14.54-14.54,0-8.03,6.51-14.54,14.54-14.54,8.03,0,14.54,6.51,14.54,14.54Z"/>
            <path class="cls-19" d="M100.38,216.13c0,9.5-7.7,17.2-17.2,17.2-9.5,0-17.2-7.7-17.2-17.2,0-9.5,7.7-17.2,17.2-17.2,9.5,0,17.2,7.7,17.2,17.2Z"/>
          </g>
          <rect class="cls-17" x="104.95" y="30.39" width="137.98" height="132.88" rx="66.44" ry="66.44" transform="translate(-10.67 22.34) rotate(-7.13)"/>
          <g>
            <ellipse class="cls-6" cx="171.1" cy="85.36" rx="24.18" ry="26.3"/>
            <path class="cls-6" d="M189.73,161.25h-37.27c-2.83,0-18.86-1.31-16.82-3.27,12.83-12.32,11.7-67.6,11.7-67.6,0-2.83,2.29-5.12,5.12-5.12h37.27c2.83,0,5.12,2.29,5.12,5.12v65.75c0,2.83-2.29,5.12-5.12,5.12Z"/>
            <g>
              <path class="cls-11" d="M145.38,177.86h59.27s-2.42-36.5-2.42-36.5l.12-15.25c-.39-9.23-7.99-16.52-17.23-16.52h-20.21c-9.24,0-16.84,7.29-17.23,16.52l.06,15.25-2.36,36.5Z"/>
              <path class="cls-13" d="M174.42,128.73c9.16,0,16.27-7.39,17.6-17.68-.31-.14-.63-.26-.96-.38-1.19,9.92-7.94,17.07-16.64,17.07s-15.83-6.89-17.46-16.2c-.32.16-.62.35-.93.53,1.83,9.6,9.33,16.67,18.38,16.67Z"/>
              <rect class="cls-4" x="141.94" y="154.53" width="28.93" height="5.76" rx="2.76" ry="2.76" transform="translate(-10.03 304.16) rotate(-86.59)"/>
            </g>
            <g>
              <polygon class="cls-2" points="183.24 111.66 164.74 111.66 166.71 92.95 181.27 92.95 183.24 111.66"/>
              <path class="cls-2" d="M164.9,109.59c-2.11,0-4.13.4-6,1.09.25,8.13,6.9,14.64,15.09,14.64,8.35,0,15.11-6.77,15.11-15.11,0-.05,0-.09,0-.14-1.28-.3-2.61-.48-3.98-.48h-20.21Z"/>
              <path class="cls-12" d="M181.27,92.95h-14.56s-1.42,13.51-1.42,13.51c2.39,1.18,5.01,1.84,7.77,1.84h0c3.46,0,6.7-1.03,9.53-2.84l-1.32-12.51Z"/>
              <path class="cls-2" d="M174.53,68.55c-14.34,1.48-17.06,9.56-17.51,14.58.04.45.06,1.04.07,1.69.03,2.2-.07,5.04-.07,5.04,0,8.86,7.18,16.04,16.04,16.04h0c8.86,0,16.04-7.18,16.04-16.04v-7.82c0-5.87-5.55-12.64-14.58-13.5Z"/>
              <g>
                <ellipse class="cls-7" cx="171.41" cy="88.29" rx="1.02" ry="1.38" transform="translate(-1.9 3.79) rotate(-1.26)"/>
                <ellipse class="cls-7" cx="178.24" cy="88.29" rx="1.02" ry="1.38" transform="translate(-1.9 3.94) rotate(-1.26)"/>
                <g>
                  <path class="cls-1" d="M168.84,93.91c-.02.09-.04.18-.06.28-.39,2.52,1.33,4.87,3.85,5.27s4.87-1.33,5.27-3.85c.01-.1.02-.19.03-.28l-9.09-1.42Z"/>
                  <path class="cls-12" d="M171.87,96.77c-.89-.06-1.73.16-2.44.58.69,1.09,1.82,1.9,3.19,2.11.98.15,1.93-.02,2.75-.42-.67-1.27-1.96-2.17-3.5-2.27Z"/>
                  <path class="cls-13" d="M168.78,94.19c-.06.37-.06.74-.03,1.1l8.78,1.54c.17-.38.3-.79.37-1.22.01-.1.02-.19.03-.28l-9.09-1.42c-.02.09-.04.18-.06.28Z"/>
                </g>
              </g>
            </g>
            <g>
              <polygon class="cls-10" points="204.57 177.86 161.21 177.86 193.69 306.36 219.16 306.36 204.57 177.86"/>
              <path class="cls-2" d="M198.57,325.66c-9.85,7.53-2.51,13.71-2.51,13.71,0,0,32.21.39,37.81,0,.88-.06,1.65-.15,2.33-.27,2.64-.45,3.46-3.87,1.32-5.49-7.26-5.52-16.17-7.94-16.17-7.94l-2.19-19.31h-25.47s4.88,19.31,4.88,19.31Z"/>
            </g>
            <g>
              <path class="cls-7" d="M145.38,177.86s-10.52,13.25,3.19,37.57l-17.16,86.4,25.34,4.19,24.8-76.66c1.12-3.47,1.7-7.1,1.7-10.75v-40.75s-37.87,0-37.87,0Z"/>
              <path class="cls-2" d="M131.41,301.83l-4.73,23.83c-9.85,7.53-2.51,13.71-2.51,13.71,0,0,32.21.39,37.81,0,.88-.06,1.65-.15,2.33-.27,2.64-.45,3.46-3.87,1.32-5.49-7.26-5.52-14.73-9.49-14.73-9.49l5.85-18.1c-8.53-1.42-19.05-3.16-25.34-4.19Z"/>
              <rect class="cls-5" x="141.04" y="251.34" width="40.35" height="8.3" rx="3.98" ry="3.98" transform="translate(-128.4 341.45) rotate(-74.28)"/>
            </g>
            <g>
              <path class="cls-2" d="M154.81,112.77l-29.74-48.64s3.48-8.32-1.16-10.23c-3.28-1.35-6.56,2.12-6.56,2.12,0,0-3.25-8.9-13.32-3.86-8.11,4.05-10.62,17.18,4.83,20.85l38.89,68.34s10.62-8.72,7.07-28.59Z"/>
              <path class="cls-2" d="M154.81,112.77l-29.74-48.64s3.48-8.32-1.16-10.23c-3.28-1.35-6.56,2.12-6.56,2.12,0,0-3.25-8.9-13.32-3.86-8.11,4.05-10.62,17.18,4.83,20.85l38.89,68.34s10.62-8.72,7.07-28.59Z"/>
              <rect class="cls-16" x="123.76" y="69.78" width="5.59" height="15.54" rx="2.68" ry="2.68" transform="translate(-21.87 77.19) rotate(-31.36)"/>
              <path class="cls-12" d="M110.97,72.4c-15.44-3.67-12.93-16.8-4.83-20.85.57-.28,1.11-.52,1.64-.72-1.13.23-2.38.65-3.76,1.34-8.11,4.05-10.62,17.18,4.83,20.85l38.89,68.34s.64-.53,1.56-1.62l-38.32-67.34Z"/>
            </g>
            <g>
              <path class="cls-2" d="M195.16,112.77l29.74-48.64s-3.48-8.32,1.16-10.23c3.28-1.35,6.56,2.12,6.56,2.12,0,0,3.25-8.9,13.32-3.86,8.11,4.05,10.62,17.18-4.83,20.85l-38.89,68.34s-10.62-8.72-7.07-28.59Z"/>
              <path class="cls-2" d="M195.16,112.77l29.74-48.64s-3.48-8.32,1.16-10.23c3.28-1.35,6.56,2.12,6.56,2.12,0,0,3.25-8.9,13.32-3.86,8.11,4.05,10.62,17.18-4.83,20.85l-38.89,68.34s-10.62-8.72-7.07-28.59Z"/>
              <path class="cls-12" d="M238.99,72.4c15.44-3.67,12.93-16.8,4.83-20.85-.57-.28-1.11-.52-1.64-.72,1.13.23,2.38.65,3.76,1.34,8.11,4.05,10.62,17.18-4.83,20.85l-38.89,68.34s-.64-.53-1.56-1.62l38.32-67.34Z"/>
              <rect class="cls-16" x="205.35" y="85.27" width="25.11" height="6.37" rx="3.05" ry="3.05" transform="translate(28.93 228.43) rotate(-58.62)"/>
            </g>
            <path class="cls-14" d="M189.1,82.52v-.47c0-5.88-5.55-12.64-14.58-13.5-14.34,1.48-17.06,9.56-17.51,14.58.04.45.06,1.04.07,1.69,0,.32,0,.65,0,.98,2.42-3.88,7.98-10.92,16.57-11.32,7.71-.36,13.22,5.27,15.44,8.03Z"/>
          </g>
          <rect class="cls-8" x="69.51" y="339.54" width="211.91" height="6.53" rx="3.26" ry="3.26"/>
        </g>
        <path class="cls-11" d="M110.86,76.55l17.33-8.94,27.56,45.78,1.11,15.33s-4.44,12.22-5.11,12.56-3.56.89-3.56.89l-37.67-64.67.33-.95Z"/>
        <path class="cls-11" d="M239.41,76.77l-17.33-8.94-27.56,45.78-1.11,15.33s4.44,12.22,5.11,12.56,3.56.89,3.56.89l37.67-64.67-.33-.95Z"/>
      </g>
      <g>
        <rect class="cls-15" x="294.32" y="189.27" width="23.34" height="5.55" rx="2.15" ry="2.15"/>
        <rect class="cls-15" x="36.78" y="189.27" width="255.28" height="5.55" rx="2.15" ry="2.15"/>
      </g>
      <path class="cls-3" d="M182.68,9.5l-1.4,5.06c-.14.52.06,1.07.51,1.37l4.38,2.89c1.01.67.58,2.23-.63,2.29l-5.24.23c-.54.02-1,.39-1.15.91l-1.4,5.06c-.32,1.16-1.95,1.24-2.37.11l-1.84-4.91c-.19-.51-.68-.83-1.22-.81l-5.24.23c-1.21.05-1.78-1.47-.83-2.22l4.1-3.27c.42-.34.58-.91.39-1.41l-1.84-4.91c-.42-1.13.85-2.14,1.85-1.48l4.38,2.89c.45.3,1.04.27,1.46-.07l4.1-3.27c.94-.75,2.3.14,1.98,1.31Z"/>
      <path class="cls-3" d="M150.07,45.91l-1.59,5.75c-.14.52.06,1.07.51,1.37l4.98,3.29c1.01.67.58,2.23-.63,2.29l-5.96.27c-.54.02-1,.39-1.15.91l-1.59,5.75c-.32,1.16-1.95,1.24-2.37.11l-2.09-5.59c-.19-.51-.68-.83-1.22-.81l-5.96.27c-1.21.05-1.78-1.47-.83-2.22l4.66-3.72c.42-.34.58-.91.39-1.41l-2.09-5.59c-.42-1.13.85-2.14,1.85-1.48l4.98,3.29c.45.3,1.04.27,1.46-.07l4.66-3.72c.94-.75,2.3.14,1.98,1.31Z"/>
      <path class="cls-3" d="M211.84,30.22l.64,8.18c.04.54.43.99.95,1.11l7.98,1.92c1.17.28,1.3,1.9.19,2.36l-7.59,3.14c-.5.21-.81.71-.77,1.25l.64,8.18c.09,1.2-1.41,1.83-2.19.91l-5.33-6.24c-.35-.41-.93-.55-1.43-.34l-7.59,3.14c-1.12.46-2.17-.77-1.54-1.8l4.29-7c.28-.46.24-1.05-.12-1.46l-5.33-6.24c-.78-.92.06-2.3,1.24-2.02l7.98,1.92c.53.13,1.07-.1,1.35-.56l4.29-7c.63-1.03,2.21-.65,2.31.55Z"/>
      <path class="cls-3" d="M209.38,60.86l.4,5.11c.04.54.43.99.95,1.11l4.99,1.2c1.17.28,1.3,1.9.19,2.36l-4.74,1.96c-.5.21-.81.71-.77,1.25l.4,5.11c.09,1.2-1.41,1.83-2.19.91l-3.33-3.9c-.35-.41-.93-.55-1.43-.34l-4.74,1.96c-1.12.46-2.17-.77-1.54-1.8l2.68-4.37c.28-.46.24-1.05-.12-1.46l-3.33-3.9c-.78-.92.06-2.3,1.24-2.02l4.99,1.2c.53.13,1.07-.1,1.35-.56l2.68-4.37c.63-1.03,2.21-.65,2.31.55Z"/>
      <g>
        <path class="cls-3" d="M187.16,46.64c1.16-4.84-3.05-10-9.4-11.52-6.35-1.52-12.44,1.16-13.6,6-1.1,4.58,2.61,9.43,8.39,11.24l-1.35,3.81,5.76-3.1c5,.05,9.25-2.46,10.2-6.42Z"/>
        <circle class="cls-13" cx="170.55" cy="42.39" r="1.73"/>
        <circle class="cls-13" cx="175.66" cy="43.62" r="1.73"/>
        <circle class="cls-13" cx="180.66" cy="44.82" r="1.73"/>
      </g>
      <path class="cls-3" d="M212.47,22.93c.45-.59.82-1.23,1.07-1.92.91-2.5-.05-5.24-2.41-6.51-1.55-.83-3.32-.82-4.81-.14-.26-1.61-1.23-3.09-2.78-3.92-2.75-1.47-6.22-.25-7.47,2.6-.98,2.25-.88,5.08-.42,7.45.24,1.24.61,2.45,1.09,3.62.24.59,1.57,4,2.2,4.04,4.19.25,10.65-1.47,13.52-5.21Z"/>
      <path class="cls-3" d="M158.61,24.21c.26-.94.38-1.89.35-2.84-.13-3.47-2.65-6.3-6.12-6.67-2.28-.24-4.42.64-5.87,2.2-1.1-1.82-3.01-3.13-5.29-3.36-4.04-.42-7.63,2.77-7.73,6.82-.08,3.2,1.44,6.56,3.16,9.2.9,1.38,1.95,2.66,3.1,3.83.59.59,3.86,4.06,4.65,3.79,5.18-1.77,12.13-7.03,13.75-12.96Z"/>
      <path class="cls-6" d="M161.35,102.69s1.32,4.22,7.23,4.77,13.02-2.38,13.02-2.38l3.56-2.02,4.38-.36,3.82,7.12.53,2.7s-10.1,18.12-22.72,13.6c-12.62-4.52-15.31-17.2-15.31-17.2l5.51-6.22Z"/>
      <path class="cls-6" d="M155.47,111.91l4.08,7.83s3.25,21.89,3.42,29.25c.06,2.61.08,7.94-.75,10.42-1.08,3.25,18.82,3.5,18.93.08.24-7.35.49-10.06-.93-14.92s-5.35-18.83-5.35-18.83c0,0-3.12-6.3-4.41-8.25-1.81-2.72-8.23-10.17-8.23-10.17l-6.75,4.58Z"/>
    </g>
  </g>
</svg>