<?xml version="1.0" encoding="utf-8"?>
<!-- Generator: Adobe Illustrator 28.2.0, SVG Export Plug-In . SVG Version: 6.00 Build 0)  -->
<svg version="1.1" id="Layer_1" xmlns="http://www.w3.org/2000/svg" xmlns:xlink="http://www.w3.org/1999/xlink" x="0px" y="0px"
	 viewBox="0 0 358.9 350.5" style="enable-background:new 0 0 358.9 350.5;" xml:space="preserve">
<style type="text/css">
	.st0{fill:#44CCFF;}
	.st1{fill:#B2DD45;}
	.st2{fill:#FFFFFF;stroke:#000000;stroke-miterlimit:10;}
	.st3{fill:none;stroke:#000000;stroke-miterlimit:10;}
	.st4{fill:none;stroke:#F3F4FE;stroke-miterlimit:10;}
	.st5{fill:#EDEEFE;}
	.st6{fill:#FFA84D;}
	.st7{fill:#FFBE83;}
	.st8{fill:#FFDAB2;}
	.st9{fill:#FF9F8C;}
	.st10{fill:#F78F7A;}
	.st11{fill:#FFECD9;}
	.st12{fill:#4970DB;}
	.st13{fill:#FFC3B5;}
	.st14{fill:#FCB798;}
	.st15{fill:#082A3C;}
	.st16{fill:#FE8F77;}
	.st17{fill:#962F4A;}
	.st18{fill:#E1617F;}
	.st19{fill:#FFFFFF;}
	.st20{fill:#541000;}
	.st21{fill:#011923;}
	.st22{fill:#0F4D68;}
	.st23{fill:#FB8265;}
	.st24{fill:#FCE6D4;}
	.st25{fill:#0D9A73;}
	.st26{fill:#0B8962;}
	.st27{opacity:0.38;fill:#F9E0E5;enable-background:new    ;}
	.st28{fill:#F37492;}
	.st29{fill:#13B887;}
	.st30{fill:#FF6D8D;}
	.st31{fill:#FDEBDD;}
	.st32{fill:#F9E0E5;}
	.st33{fill:#473A82;}
	.st34{fill:#D7E2FF;}
	.st35{fill:#5476EF;}
</style>
<g>
	<g id="Capa_2">
		<g id="Layer_1_00000153682204882190773780000003921459094000518542_">
			<g>
				<path class="st0" d="M51.8,40.6h292.1v256.1c0,16-13,28.9-28.9,28.9H22.9V69.5C22.9,53.6,35.8,40.6,51.8,40.6z"/>
				<g>
					
						<rect x="33.6" y="77.2" transform="matrix(0.97 -0.2433 0.2433 0.97 -51.3872 15.2083)" class="st1" width="4.5" height="277"/>
					
						<rect x="41.4" y="75.2" transform="matrix(0.97 -0.2433 0.2433 0.97 -50.6821 17.0391)" class="st1" width="4.5" height="277"/>
					<rect x="49.1" y="73.3" transform="matrix(0.97 -0.2433 0.2433 0.97 -49.975 18.8665)" class="st1" width="4.5" height="277"/>
					
						<rect x="56.9" y="71.3" transform="matrix(0.97 -0.2433 0.2433 0.97 -49.2676 20.6964)" class="st1" width="4.5" height="277"/>
					
						<rect x="64.7" y="69.4" transform="matrix(0.97 -0.2433 0.2433 0.97 -48.5625 22.5271)" class="st1" width="4.5" height="277"/>
					
						<rect x="72.4" y="67.4" transform="matrix(0.97 -0.2433 0.2433 0.97 -47.8553 24.3546)" class="st1" width="4.5" height="277"/>
					
						<rect x="80.2" y="65.5" transform="matrix(0.97 -0.2433 0.2433 0.97 -47.1479 26.1844)" class="st1" width="4.5" height="277"/>
					<rect x="88" y="63.5" transform="matrix(0.97 -0.2433 0.2433 0.97 -46.4428 28.0152)" class="st1" width="4.5" height="277"/>
					
						<rect x="95.7" y="61.6" transform="matrix(0.97 -0.2433 0.2433 0.97 -45.7357 29.8426)" class="st1" width="4.5" height="277"/>
					
						<rect x="103.5" y="59.6" transform="matrix(0.97 -0.2433 0.2433 0.97 -45.0283 31.6725)" class="st1" width="4.5" height="277"/>
					
						<rect x="111.2" y="57.7" transform="matrix(0.97 -0.2433 0.2433 0.97 -44.3216 33.5006)" class="st1" width="4.5" height="277"/>
					<rect x="119" y="55.8" transform="matrix(0.97 -0.2433 0.2433 0.97 -43.6145 35.3281)" class="st1" width="4.5" height="277"/>
					
						<rect x="126.7" y="53.8" transform="matrix(0.97 -0.2433 0.2433 0.97 -42.9094 37.1588)" class="st1" width="4.5" height="277"/>
					
						<rect x="134.5" y="51.9" transform="matrix(0.97 -0.2433 0.2433 0.97 -42.202 38.9887)" class="st1" width="4.5" height="277"/>
					
						<rect x="142.3" y="49.9" transform="matrix(0.97 -0.2433 0.2433 0.97 -41.4948 40.8161)" class="st1" width="4.5" height="277"/>
					<rect x="150" y="48" transform="matrix(0.97 -0.2433 0.2433 0.97 -40.7897 42.6469)" class="st1" width="4.5" height="277"/>
					<rect x="157.8" y="46" transform="matrix(0.97 -0.2433 0.2433 0.97 -40.0823 44.4767)" class="st1" width="4.5" height="277"/>
					
						<rect x="165.5" y="44.1" transform="matrix(0.97 -0.2433 0.2433 0.97 -39.3752 46.3042)" class="st1" width="4.5" height="277"/>
					
						<rect x="173.3" y="42.1" transform="matrix(0.97 -0.2433 0.2433 0.97 -38.6701 48.1349)" class="st1" width="4.5" height="277"/>
					
						<rect x="181.1" y="40.2" transform="matrix(0.97 -0.2433 0.2433 0.97 -37.9626 49.9648)" class="st1" width="4.5" height="277"/>
					
						<rect x="188.8" y="38.2" transform="matrix(0.97 -0.2433 0.2433 0.97 -37.2555 51.7922)" class="st1" width="4.5" height="277"/>
					
						<rect x="196.6" y="36.3" transform="matrix(0.97 -0.2433 0.2433 0.97 -36.5504 53.623)" class="st1" width="4.5" height="277"/>
					
						<rect x="204.3" y="34.3" transform="matrix(0.97 -0.2433 0.2433 0.97 -35.843 55.4528)" class="st1" width="4.5" height="277"/>
					
						<rect x="212.1" y="32.4" transform="matrix(0.97 -0.2433 0.2433 0.97 -35.1359 57.2803)" class="st1" width="4.5" height="277"/>
					
						<rect x="219.9" y="30.5" transform="matrix(0.97 -0.2433 0.2433 0.97 -34.4308 59.111)" class="st1" width="4.5" height="277"/>
					
						<rect x="227.6" y="28.5" transform="matrix(0.97 -0.2433 0.2433 0.97 -33.7233 60.9409)" class="st1" width="4.5" height="277"/>
					
						<rect x="235.4" y="26.6" transform="matrix(0.97 -0.2433 0.2433 0.97 -33.0185 62.7692)" class="st1" width="4.5" height="277"/>
					
						<rect x="243.1" y="24.6" transform="matrix(0.97 -0.2433 0.2433 0.97 -32.3111 64.5991)" class="st1" width="4.5" height="277"/>
					
						<rect x="250.9" y="22.7" transform="matrix(0.97 -0.2433 0.2433 0.97 -31.6013 66.4286)" class="st1" width="4.5" height="277"/>
					
						<rect x="258.7" y="20.7" transform="matrix(0.97 -0.2433 0.2433 0.97 -30.8964 68.257)" class="st1" width="4.5" height="277"/>
					
						<rect x="266.4" y="18.8" transform="matrix(0.97 -0.2433 0.2433 0.97 -30.189 70.0868)" class="st1" width="4.5" height="277"/>
					
						<rect x="274.2" y="16.8" transform="matrix(0.97 -0.2433 0.2433 0.97 -29.4816 71.9167)" class="st1" width="4.5" height="277"/>
					
						<rect x="281.9" y="14.9" transform="matrix(0.97 -0.2433 0.2433 0.97 -28.7768 73.745)" class="st1" width="4.5" height="277"/>
					
						<rect x="289.7" y="12.9" transform="matrix(0.97 -0.2433 0.2433 0.97 -28.0694 75.5749)" class="st1" width="4.5" height="277"/>
					<rect x="297.5" y="11" transform="matrix(0.97 -0.2433 0.2433 0.97 -27.362 77.4047)" class="st1" width="4.5" height="277"/>
					<rect x="305.2" y="9" transform="matrix(0.97 -0.2433 0.2433 0.97 -26.6571 79.2331)" class="st1" width="4.5" height="277"/>
					<rect x="313" y="7.1" transform="matrix(0.97 -0.2433 0.2433 0.97 -25.9506 81.0606)" class="st1" width="4.5" height="277"/>
					
						<rect x="320.7" y="5.2" transform="matrix(0.97 -0.2433 0.2433 0.97 -25.2455 82.8914)" class="st1" width="4.5" height="277"/>
				</g>
				<path class="st2" d="M12.6,30.3h321v256.1c0,16-13,28.9-28.9,28.9H12.6V30.3L12.6,30.3z"/>
				<path class="st3" d="M304,12.4l-19.1,41.3c-2.5,5.4-0.1,11.9,5.3,14.4l0,0c5.4,2.5,11.9,0.2,14.4-5.3l19.1-41.3"/>
				<path class="st3" d="M323.6,21.5l1.4-3c3-6.4,0.2-13.9-6.2-16.9l0,0c-6.4-3-13.9-0.2-16.9,6.2L276,64c-3.3,7.2-0.2,15.8,7,19.1
					l0,0c7.2,3.3,15.8,0.2,19.1-7l24-52"/>
				<g>
					<path class="st4" d="M319.8,124.9v22.4c0,3.8-1.5,7.3-4,9.8c-1.6,1.6-3.5,2.8-5.7,3.4c-1.3,0.4-2.6,0.6-4,0.6
						c-1.9,0-3.6,0.4-5.1,1.3c-3.5,1.9-5.9,5.5-5.9,9.8v1.7c0,6.1-5,11.1-11.1,11.1H77.2c-3.9,0-7.5-1.6-10.1-4.2
						c-2.6-2.6-4.2-6.2-4.2-10.1c0-3.1,1-5.9,2.6-8.2c0.5-0.7,1-1.3,1.6-1.9c2.6-2.6,6.2-4.2,10.1-4.2h11.3c5.7,0,10.8-2.3,14.5-6
						c3.1-3.1,5.2-7.2,5.8-11.8c0.1-0.6,0.1-1.2,0.2-1.9c0-0.3,0-0.6,0-0.8c0-10.4-7.8-19.1-17.9-20.3c-0.8-0.1-1.7-0.2-2.6-0.2
						h-4.5c-2.1,0-4.1-0.2-6-0.7c-1.9-0.4-3.8-1.1-5.5-1.9c-3-1.4-5.7-3.3-8-5.6c-4.3-4.3-7.2-10-7.9-16.4c-0.1-0.6-0.1-1.2-0.2-1.9
						c0-0.4,0-0.8,0-1.3c0-8.2,3.6-15.6,9.3-20.7c0.7-0.7,1.5-1.3,2.3-1.9c4.5-3.2,10-5.1,16-5.1h0.4c3.6,0,6.9-1.5,9.2-3.8
						s3.8-5.6,3.8-9.2c0-1.3-0.2-2.6-0.6-3.8c-0.2-0.6-0.4-1.3-0.7-1.9c-2.1-4.4-6.6-7.4-11.8-7.4h-5c-3.8,0-7.2-1.5-9.7-4
						c-2.5-2.5-4-5.9-4-9.7c0-0.3,0-0.6,0-0.9c0-0.6,0.1-1.2,0.2-1.9c1.3-6.2,6.8-10.9,13.4-10.9h92.9c6.1,0,11,4.9,11.1,10.9
						c0,0.1,0,0.1,0,0.2v4.5c0,3,1.2,5.8,3.2,7.8s4.8,3.2,7.8,3.2c5.1,0,9.3,3.4,10.6,8c0.2,0.6,0.3,1.2,0.4,1.9
						c0,0.4,0.1,0.8,0.1,1.1V49c0,6.1,4.9,11,11.1,11H232c6.6,0,12.8,1.9,18.1,5.1c0.9,0.6,1.9,1.2,2.7,1.9c1.3,1,2.6,2.1,3.7,3.2
						c5,5,8.5,11.5,9.7,18.8c0.1,0.6,0.2,1.2,0.3,1.9c0.1,1.3,0.2,2.6,0.2,3.9c0,6.1,5,11.1,11,11.1h23c6,0,11.3,2.7,14.8,7
						c0.5,0.6,0.9,1.2,1.4,1.9C318.7,117.6,319.8,121.1,319.8,124.9L319.8,124.9z"/>
					<path class="st5" d="M205.5,43.1H97c-0.2-0.6-0.4-1.3-0.7-1.9h108.9C205.3,41.9,205.4,42.5,205.5,43.1z"/>
					<path class="st5" d="M252.8,67H65.8c0.7-0.7,1.5-1.3,2.3-1.9h182C251,65.7,251.9,66.3,252.8,67L252.8,67z"/>
					<path class="st5" d="M266.4,90.8H56.6c-0.1-0.6-0.1-1.2-0.2-1.9h209.7C266.3,89.5,266.4,90.2,266.4,90.8z"/>
					<path class="st5" d="M316.8,114.6H78.1c-1.9-0.4-3.8-1.1-5.5-1.9h242.9C315.9,113.3,316.4,114,316.8,114.6L316.8,114.6z"/>
					<path class="st5" d="M319.8,136.6v1.9H108.8c0.1-0.6,0.1-1.2,0.2-1.9H319.8L319.8,136.6z"/>
					<path class="st2" d="M160.2,28l5.1-0.6c36.4-4.6,69.6,21.3,74.2,57.7l0,0c4.6,36.4-21.3,69.6-57.7,74.2l-5.1,0.6
						c-36.4,4.6-69.6-21.3-74.2-57.7l0,0C98,65.8,123.8,32.6,160.2,28z"/>
					<g>
						<path class="st1" d="M303.6,182.1h19c1.2,0,2.1,1,2.1,2.1v1.3c0,1.2-1,2.1-2.1,2.1h-19c-1.2,0-2.1-1-2.1-2.1v-1.3
							C301.4,183,302.4,182.1,303.6,182.1z"/>
						<path class="st1" d="M46.1,182.1h251c1.2,0,2.1,1,2.1,2.1v1.3c0,1.2-1,2.1-2.1,2.1h-251c-1.2,0-2.2-1-2.2-2.1v-1.3
							C43.9,183,44.9,182.1,46.1,182.1z"/>
					</g>
					<path class="st5" d="M183.5,17.6v1.7H65.9c0-0.6,0.1-1.2,0.2-1.9h117.4C183.5,17.5,183.5,17.6,183.5,17.6z"/>
					<path class="st5" d="M310,160.4c-1.3,0.4-2.6,0.6-4,0.6c-1.9,0-3.6,0.4-5.1,1.3H65.6c0.5-0.7,1-1.3,1.6-1.9H310z"/>
					<g>
						<path class="st6" d="M85.6,150.1l34.6-37.1c2.9-3.2,7.9-3.3,11-0.4l3.3,3.1c3.2,2.9,3.3,7.9,0.4,11l-34.6,37.1
							c-2.9,3.2-7.9,3.3-11,0.4l-3.3-3.1C82.8,158.2,82.7,153.3,85.6,150.1z"/>
						<path class="st6" d="M85.6,150.1l34.6-37.1c2.9-3.2,7.9-3.3,11-0.4l3.3,3.1c3.2,2.9,3.3,7.9,0.4,11l-34.6,37.1
							c-2.9,3.2-7.9,3.3-11,0.4l-3.3-3.1C82.8,158.2,82.7,153.3,85.6,150.1z"/>
						<path class="st7" d="M136.1,121.8c-0.5-1.2-1.3-2.3-2.3-3.2l-0.1-0.1c-4.1-3.8-10.4-3.6-14.2,0.5L88,152.7
							c-1.8,1.9-2.7,4.3-2.7,6.7c-1.6-3.6-1-7.9,1.8-11l31.5-33.8c3.8-4.1,10.2-4.3,14.2-0.5l0.1,0
							C135.1,116.2,136.2,119,136.1,121.8L136.1,121.8z"/>
						<path class="st6" d="M195.7,181.2c-1.9,0.7-3.9,0.7-5.8,0.2c-3.2-0.8-5.9-3.2-7-6.5l-3.9-11.4l-2.1-6.1l-10.5-30.3
							c-1.8-5.3,1-11,6.3-12.8c1.4-0.5,2.8-0.6,4.2-0.5c0.5,0.1,1.1,0.1,1.6,0.3c3.2,0.8,5.9,3.2,7,6.5l8.9,25.4l7.7,22.5
							C203.8,173.6,201,179.4,195.7,181.2L195.7,181.2z"/>
						<path class="st7" d="M196.4,180.9c-0.2,0.1-0.5,0.2-0.8,0.3c-1.9,0.7-3.9,0.7-5.8,0.2c-3.2-0.8-5.9-3.2-7-6.5L171.6,142
							c-1.8-5.3,1-11,6.3-12.8c1.3-0.4,2.6-0.6,3.9-0.5c-4.8,2.1-7.2,7.5-5.5,12.5l11.3,32.9C188.9,178.1,192.5,180.6,196.4,180.9
							L196.4,180.9z"/>
						<rect x="126.4" y="129.8" class="st8" width="48.7" height="52.2"/>
						<path class="st8" d="M128.3,108.9h45c6.8,0,12.3,5.5,12.3,12.3v8.6c0,9.4-7.7,17.1-17.1,17.1h-35.3c-9.4,0-17.1-7.7-17.1-17.1
							v-8.6C116,114.4,121.5,108.9,128.3,108.9L128.3,108.9z"/>
						<rect x="126.4" y="129.8" class="st8" width="48.7" height="52.2"/>
						<path class="st8" d="M128.3,108.9h45c6.8,0,12.3,5.5,12.3,12.3v8.6c0,9.4-7.7,17.1-17.1,17.1h-35.3c-9.4,0-17.1-7.7-17.1-17.1
							v-8.6C116,114.4,121.5,108.9,128.3,108.9L128.3,108.9z"/>
						<path class="st9" d="M190.1,161.6h42.1c4.3,0,7.8,3.5,7.8,7.8v4.6c0,4.3-3.5,7.8-7.8,7.8h-42.1c-4.3,0-7.8-3.5-7.8-7.8v-4.6
							C182.3,165.1,185.8,161.6,190.1,161.6z"/>
						
							<ellipse transform="matrix(0.9105 -0.4136 0.4136 0.9105 -49.3441 112.8078)" class="st9" cx="235.9" cy="170.4" rx="14.1" ry="11.1"/>
						<path class="st10" d="M248.7,164.6c-0.2-0.4-0.4-0.8-0.6-1.2c1.3,5.3-2.3,11.5-8.8,14.4c-0.6,0.3-1.2,0.5-1.9,0.7
							c-2.8,0.9-5.5,1.1-8,0.6c-0.2,0-0.4,0-0.6,0h-3.7l-33.8,0c-3.6,0-6.8-1.9-8.6-4.8c1.2,4.3,5.1,7.4,9.8,7.4l37.6,0
							c0.2,0,0.4,0,0.6,0c3,0.6,6.5,0.2,9.9-1.3C247.5,177.3,251.2,170.1,248.7,164.6L248.7,164.6z"/>
						<path class="st11" d="M169.5,108.9h-7.8c8.8,0,15.9,7.1,15.9,15.9c0,3.7-0.9,7.1-2.5,10.2c-1.1,2-2.4,3.9-4,5.5
							c-0.5,0.5-1.1,1-1.7,1.5c-1.4,1.1-2.2,2.8-2.2,4.6l0,0V182h7.9v-38.6c1.4-0.9,2.7-1.9,3.9-3.1c4-4,6.4-9.4,6.5-15.5
							C185.6,116.1,178.4,108.9,169.5,108.9L169.5,108.9z"/>
						<path class="st9" d="M236.8,155.5l1.1,0.8c1,0.8,1.2,2.2,0.4,3.2l-5.5,7.3c-0.8,1-2.2,1.2-3.2,0.4l-1.1-0.8
							c-1-0.8-1.2-2.2-0.4-3.2l5.5-7.3C234.3,154.9,235.8,154.7,236.8,155.5z"/>
						<path class="st12" d="M139.8,174.5h6.7c3.2,0,5.9,2.6,5.9,5.9v1.7h-18.4v-1.7C133.9,177.1,136.5,174.5,139.8,174.5
							L139.8,174.5z"/>
						<path class="st9" d="M135.8,169.9c0.2,1.9-0.1,3.9-1,5.7c-1.3,2.5-3.4,4.2-5.9,5c-0.1,0-0.2,0.1-0.2,0.1
							c-0.2,0.1-0.5,0.1-0.7,0.2c-0.1,0-0.2,0-0.2,0.1l0,0c-0.1,0-0.2,0-0.2,0h0c-0.1,0-0.1,0-0.2,0h0c-0.4,0.1-0.9,0.1-1.3,0.1
							c-0.2,0-0.3,0-0.4,0c-0.2,0-0.4,0-0.7,0c-0.2,0-0.5-0.1-0.7-0.1c-0.4-0.1-0.7-0.1-1.1-0.2c-0.6-0.2-1.2-0.4-1.8-0.7l-0.6-0.3
							l0,0l-30.4-15.5c-3.1-1.6-5.1-4.6-5.4-7.9c-0.1-0.5-0.1-1-0.1-1.4c0-0.2,0-0.5,0.1-0.7c0-0.2,0.1-0.5,0.1-0.7
							c0.1-0.4,0.2-0.7,0.2-1.1c0-0.1,0.1-0.2,0.1-0.4c0.1-0.2,0.2-0.5,0.3-0.7c0.1-0.2,0.2-0.5,0.3-0.7c0.1-0.1,0.1-0.2,0.2-0.3
							c0.2-0.3,0.3-0.6,0.5-0.8c0,0,0,0,0-0.1c0.1-0.1,0.1-0.1,0.2-0.2l0,0c1.7-2.2,4.1-3.6,6.8-4c0.2,0,0.3,0,0.5-0.1
							c1.8-0.2,3.7,0.2,5.4,1.1l31,15.8C133.5,163.6,135.5,166.6,135.8,169.9L135.8,169.9z"/>
						
							<ellipse transform="matrix(0.1096 -0.994 0.994 0.1096 -55.2892 280.2799)" class="st9" cx="128.8" cy="171" rx="11.1" ry="14.1"/>
						<g>
							<path class="st13" d="M131.3,182c-1.2,0.1-2.4,0.1-3.7,0c-2.6-0.3-5-1.1-7-2.3c-1.3-0.8-1.3-0.8,0,0l-30.4-15.5
								c-3.1-1.6-5.1-4.6-5.4-7.9c-0.1-0.5-0.1-1-0.1-1.4c0-0.2,0-0.5,0.1-0.7c0-0.2,0.1-0.5,0.1-0.7c0.1-0.4,0.2-0.7,0.2-1.1
								c0-0.1,0.1-0.2,0.1-0.4c0.1-0.2,0.2-0.5,0.3-0.7c0.1-0.2,0.2-0.5,0.3-0.7c0.1-0.1,0.1-0.2,0.2-0.3c0.2-0.3,0.3-0.6,0.5-0.8
								c0,0,0,0,0-0.1c0.1-0.1,0.1-0.1,0.2-0.2l0,0c1.7-2.2,4.1-3.6,6.8-4c0.2,0,0.3,0,0.5-0.1l-2.9,3.7c-0.1,0.1-0.2,0.3-0.3,0.4
								l0,0c-0.1,0.1-0.1,0.1-0.2,0.2c0,0,0,0,0,0.1c-2.9,4.3-2,10.2,2.1,13.5c1.2,1,2.7,1.6,4.1,2c-0.2,0-0.5,0.1-0.7,0.1h-0.1
								l20.3,10.4l8.4,4.3l0.6,0.3c0.6,0.3,1.2,0.5,1.8,0.7c0.2,0.1,0.5,0.1,0.7,0.2c-0.1,0-0.2,0-0.2,0h0c-0.1,0-0.1,0-0.2,0
								C128.5,181.5,129.8,181.8,131.3,182L131.3,182z"/>
							<path class="st14" d="M130.4,160c0,0-0.1,0-0.1,0C130.3,160,130.4,160,130.4,160L130.4,160L130.4,160z"/>
						</g>
						<path class="st9" d="M135.9,158.9l0.4,1.3c0.4,1.2-0.3,2.5-1.5,2.9l-8.7,2.8c-1.2,0.4-2.5-0.3-2.9-1.5l-0.4-1.3
							c-0.4-1.2,0.3-2.5,1.5-2.9l8.7-2.8C134.2,157,135.5,157.7,135.9,158.9z"/>
						<path class="st9" d="M149.5,174.2l-0.7,1.2c-0.6,1.1-2.1,1.5-3.2,0.8l-11.8-6.9c-1.1-0.6-1.5-2.1-0.8-3.2l0.7-1.2
							c0.6-1.1,2.1-1.5,3.2-0.8l11.8,6.9C149.7,171.7,150.1,173.1,149.5,174.2z"/>
						<path class="st9" d="M147.4,179.8l-0.7,1.2c-0.6,1.1-2.1,1.5-3.2,0.8l-11.8-6.9c-1.1-0.6-1.5-2.1-0.8-3.2l0.7-1.2
							c0.6-1.1,2.1-1.5,3.2-0.8l11.8,6.9C147.7,177.2,148,178.6,147.4,179.8z"/>
						<path class="st9" d="M139.6,181.4l-0.7,1.2c-0.6,1.1-2.1,1.5-3.2,0.8l-11.8-6.9c-1.1-0.6-1.5-2.1-0.8-3.2l0.7-1.2
							c0.6-1.1,2.1-1.5,3.2-0.8l11.8,6.9C139.9,178.9,140.2,180.3,139.6,181.4z"/>
						
							<ellipse transform="matrix(0.1096 -0.994 0.994 0.1096 -55.0028 278.0256)" class="st13" cx="127.7" cy="169.7" rx="5.5" ry="7.1"/>
						<g>
							<path class="st15" d="M153.7,87.1l-7.1-24.2c-0.6-2.1,0.9-4.2,3-4.3c7.3-0.2,14.1,4.4,16.2,11.8s-1,14.8-7.2,18.6
								C156.8,90.1,154.4,89.2,153.7,87.1L153.7,87.1z"/>
							<polygon class="st9" points="158.9,91.3 158.9,99.7 158.8,109.7 137.1,109.9 137.1,95.2 137.2,91.5 							"/>
							<path class="st8" d="M161.1,104c0.9,0,1.7,0.8,1.6,1.7l-0.1,1.5l-0.2,2.4c-0.1,0.8-0.7,1.4-1.5,1.4l-25.5,0.6
								c-0.9,0-1.7-0.8-1.6-1.7l0.3-3.9l0,0c0.1-0.8,0.7-1.4,1.5-1.4L161.1,104L161.1,104z"/>
							<path class="st16" d="M158.9,91.5l0,10.5c-1.3,0.7-2.9,1.1-4.5,1.1h-4c-5.5,0-10.4-2.8-13.3-7v-4.6L158.9,91.5z"/>
							<path class="st9" d="M156,100.5l-6.7,0c-7.9,0-14.3-6.4-14.3-14.3l0-14.5c0-4.3,3.5-7.8,7.8-7.8l14.6,0c4,0,7.2,3.2,7.2,7.1
								l0.1,20.9C164.6,96.7,160.7,100.5,156,100.5L156,100.5z"/>
							<path class="st13" d="M164.5,71.9l0.1,19c0,5.3-4.3,9.6-9.6,9.7h-4c-2.1,0-4.1-0.4-5.9-1.1c1.2,0.3,2.6,0.5,3.9,0.5h4
								c5.3,0,9.6-4.3,9.6-9.7l-0.1-19c0-3.2-1.9-5.9-4.6-7.2C161.7,64.7,164.5,68,164.5,71.9L164.5,71.9z"/>
							<g>
								<path class="st17" d="M158.3,87.8c0,0.7-0.3,1.4-0.7,1.9c-0.1,0.1-0.1,0.1-0.2,0.2c-0.4,0.4-1,0.6-1.7,0.7h-0.1
									c-0.6,0-1.1-0.2-1.6-0.5c-0.6-0.4-1.1-1.1-1.1-1.9c0-0.1,0-0.2,0-0.2c0-0.1,0.1-0.3,0.1-0.4s0.2-0.2,0.4-0.2l4.4-0.1
									C158.1,87.3,158.3,87.5,158.3,87.8L158.3,87.8z"/>
								<path class="st18" d="M155.7,90.1c0,0.1,0,0.3,0,0.4h0c-1.4,0-2.6-1-2.7-2.4c0.2-0.1,0.4-0.1,0.6-0.1
									C154.7,88.1,155.7,89,155.7,90.1L155.7,90.1z"/>
								<path class="st19" d="M157.7,87.3c0,0.5-0.8,1-1.8,1c-1,0-1.8-0.4-1.8-0.9L157.7,87.3z"/>
							</g>
							<circle class="st20" cx="150.9" cy="81.1" r="1.1"/>
							<circle class="st20" cx="161.2" cy="81" r="1.1"/>
							<circle class="st15" cx="138.2" cy="65.8" r="6.9"/>
							<circle class="st15" cx="148" cy="61.8" r="10.3"/>
							<circle class="st15" cx="138.2" cy="65.8" r="6.9"/>
							<circle class="st15" cx="148" cy="61.8" r="10.3"/>
							<path class="st21" d="M156.6,56c-1.8-1.4-4-2.3-6.4-2.3c-4.1,0-7.6,2.3-9.2,5.7c-0.3,0.6-0.5,1.2-0.7,1.8
								c-0.9,0-1.7,0.2-2.5,0.5c-2.5,1-4.2,3.5-4.2,6.3c0,1.2,0.3,2.4,0.9,3.4c-1.8-1.2-3-3.3-3-5.7c0-3.8,3-6.8,6.7-6.9
								c1.2-4.3,5.2-7.5,9.9-7.5C151.6,51.4,154.7,53.2,156.6,56L156.6,56z"/>
							<circle class="st15" cx="160.5" cy="60.5" r="13.6"/>
							<circle class="st15" cx="160.5" cy="60.5" r="13.6"/>
							<path class="st22" d="M174.1,60.5c0,7.5-6.1,13.6-13.6,13.6c-0.5,0-1,0-1.5-0.1c6.8-0.8,12-6.5,12-13.5s-5.3-12.7-12-13.5
								c0.5-0.1,1-0.1,1.5-0.1C168,47,174.1,53,174.1,60.5z"/>
							<path class="st15" d="M132.6,82.7l-0.5-15.3c0-1.3,1.1-2.3,2.4-2.1c4.3,1,7.6,4.8,7.8,9.4c0.1,4.6-2.9,8.6-7.1,9.8
								C134,84.9,132.7,84,132.6,82.7L132.6,82.7z"/>
							<path class="st22" d="M132.1,82.9l1.2-11.1c0.1-0.9,1.1-1.6,1.9-1.2c3,1.1,5,4.2,4.6,7.5c-0.4,3.3-2.9,5.9-6.1,6.4
								C132.8,84.7,132,83.9,132.1,82.9L132.1,82.9z"/>
							<circle class="st9" cx="135.9" cy="83" r="5"/>
							<path class="st23" d="M134.3,83.1c0,0.9,0.6,1.7,1.4,2c0.4,0.2,0.9-0.2,0.9-0.6l-0.1-2.9c0-0.5-0.5-0.8-0.9-0.6
								C134.8,81.4,134.2,82.2,134.3,83.1L134.3,83.1z"/>
						</g>
					</g>
					<g>
						<path class="st21" d="M249.3,78.7h7.4c13.9,0,25.2,11.3,25.2,25.2V147h-32.6V78.7C249.3,78.7,249.3,78.7,249.3,78.7z"/>
						<path class="st21" d="M249.3,78.7h7.4c13.9,0,25.2,11.3,25.2,25.2V147h-32.6V78.7C249.3,78.7,249.3,78.7,249.3,78.7z"/>
						<path class="st15" d="M281.9,88v55h-13.4V88c0-7.3-5.9-13.3-13.2-13.3h13.4C276,74.7,281.9,80.7,281.9,88L281.9,88z"/>
						<path class="st22" d="M250.3,142c0.1,0.1,0.1,0.1,0.1,0.2c-0.8,0-1.5,0-2.3,0C248.9,142.1,249.6,142.1,250.3,142L250.3,142z"
							/>
						<path class="st24" d="M255.4,130.5c0,2.5-1.1,4.9-3.1,6.7l-9.8,8.3l-7.2,6.1l-10.8,9.1c-3.7,3.1-9.2,2.7-12.3-1
							c-3.1-3.7-2.7-9.2,1-12.3l27.7-23.5c3.7-3.1,9.2-2.7,12.3,1C254.8,126.5,255.5,128.5,255.4,130.5L255.4,130.5z"/>
						<path class="st24" d="M242.6,145.5l-7.2,6.1c-1.6-1.8-2.5-4.1-2.5-6.6v-0.8c0-4.4,1.4-8.4,3.7-11.8c0.7-1,1.5-1.9,2.3-2.8
							c0.4-0.4,0.8-0.8,1.2-1.1c-1.1,4.8-0.7,9.9,1.4,14.8C241.9,144.1,242.2,144.8,242.6,145.5z"/>
						<path class="st24" d="M255.4,130.5c0,0.3,0,0.7-0.1,1c-0.2-1.6-0.9-3.2-2-4.6c-3.1-3.7-8.6-4.1-12.3-1l-27.7,23.5
							c-1.8,1.5-2.8,3.5-3,5.6c-0.3-2.8,0.7-5.8,3-7.7l27.7-23.5c3.7-3.1,9.2-2.7,12.3,1C254.8,126.5,255.5,128.6,255.4,130.5
							L255.4,130.5z"/>
						<rect x="240.9" y="145.5" class="st25" width="27.3" height="36.5"/>
						<path class="st26" d="M268.1,145.5v7.4c-3.9,2.4-8.3,4.4-13.1,5.8c-4.8,1.4-9.6,2.1-14.1,2.2v-15.4L268.1,145.5L268.1,145.5z"
							/>
						<path class="st24" d="M253.4,124.9c-0.4-0.4-0.7-0.8-1.1-1.1c3,3.7,2.5,9.1-1.1,12.2l-27.7,23.5c-3.3,2.8-8,2.7-11.2,0.1
							c0,0,0.1,0.1,0.1,0.1l0,0c3.1,3.7,8.6,4.1,12.3,1l27.7-23.5C256,134.1,256.5,128.6,253.4,124.9z"/>
						<path class="st24" d="M221.6,162.7l-3.9,0.3c-3.7,0.3-7-2.5-7.3-6.2l-2.9-36.4c-0.3-3.7,2.5-7,6.2-7.3l3.9-0.3
							c3.7-0.3,7,2.5,7.3,6.2l2.9,36.4C228.1,159.1,225.3,162.4,221.6,162.7z"/>
						<path class="st27" d="M215.6,145.5l-1.2,0.1c-1.1,0.1-2.1-0.7-2.2-1.8l-0.8-10.6c-0.1-1.1,0.7-2.1,1.8-2.2l1.2-0.1
							c1.1-0.1,2.1,0.7,2.2,1.8l0.8,10.6C217.6,144.4,216.7,145.4,215.6,145.5z"/>
						<g>
							<path class="st24" d="M287.3,160.2l-3.2,2.4c-3,2.2-7.2,1.6-9.5-1.4l-19.8-26.5c-2.2-3-1.6-7.2,1.4-9.5l3.2-2.4
								c3-2.2,7.2-1.6,9.5,1.4l19.8,26.5C290.9,153.8,290.3,158,287.3,160.2z"/>
							<path class="st24" d="M271.4,191.1l-3.8-1.1c-3.6-1.1-5.6-4.9-4.5-8.4l9.6-31.7c1.1-3.6,4.9-5.6,8.4-4.5l3.8,1.1
								c3.6,1.1,5.6,4.9,4.5,8.4l-9.6,31.7C278.8,190.1,275,192.1,271.4,191.1z"/>
							
								<ellipse transform="matrix(0.837 -0.5473 0.5473 0.837 -57.3118 179.7457)" class="st24" cx="273" cy="186.1" rx="9.2" ry="11.7"/>
							<path class="st24" d="M268.6,191.1c-0.3-0.4-0.5-0.9-0.8-1.4c-1.6-3.2-1.9-6.7-1-9.4c0-0.2,0.1-0.5,0.2-0.7l1.3-4.2l4.9-16.2
								l1-3.2l-2.4-3.2l-12.4-16.5c-2.6-3.5-2.2-8.3,0.8-11.3c0.7-0.7,1.1-1.5,1.3-2.4l0-0.1c-1.3,0.2-2.6,0.8-3.7,1.6
								c-3.9,2.9-4.6,8.4-1.8,12.2l14.8,19.7l-7.1,23.6c-0.1,0.2-0.1,0.5-0.2,0.7c-1.1,3.2-0.5,7.2,1.8,10.8
								c2.9,4.4,7.6,6.6,11.5,5.8C273.8,196.4,270.7,194.3,268.6,191.1L268.6,191.1z"/>
							<path class="st6" d="M284.1,179l-20.3-6.1c-0.5-0.2-0.8-0.7-0.7-1.3l0.2-0.6c0.2-0.5,0.7-0.8,1.3-0.7l20.3,6.1
								c0.5,0.2,0.8,0.7,0.7,1.3l-0.2,0.6C285.2,178.9,284.6,179.2,284.1,179z"/>
							<path class="st28" d="M283.6,175.5l-17.6-5.3c-0.5-0.2-0.8-0.7-0.7-1.3l0.2-0.6c0.2-0.5,0.7-0.8,1.3-0.7l17.6,5.3
								c0.5,0.2,0.8,0.7,0.7,1.3l-0.2,0.6C284.6,175.3,284.1,175.6,283.6,175.5z"/>
						</g>
						<path class="st24" d="M219.7,162.8C219.7,162.8,219.6,162.8,219.7,162.8c-0.3,0-0.5,0-0.8,0c-4.5,0-8.3-3.5-8.7-8l-2.6-32.5
							c-0.4-4.8,3.2-9,8-9.4c0.5,0,1,0,1.5,0c-4.8,0.4-8.3,4.6-7.9,9.4l2.6,32.5C212.1,159.1,215.5,162.5,219.7,162.8L219.7,162.8z"
							/>
						<path class="st25" d="M275.5,142.1v0.8c0,5.5-4.5,9.9-9.9,9.9h-21.3c-5.5,0-9.9-4.5-9.9-9.9v-0.8c0-4.2,1.2-8.1,3.4-11.3
							c3.7-5.6,10-9.3,17.2-9.3c5.7,0,10.9,2.3,14.6,6c0.9,0.9,1.6,1.8,2.3,2.8C274.1,133.6,275.5,137.7,275.5,142.1L275.5,142.1z"
							/>
						<path class="st29" d="M234.2,142.1v0.8c0,5.5,4.4,9.9,9.9,9.9h8.9c-4.4-2.5-8.1-6.5-10.3-11.6c-2.1-4.9-2.4-10-1.4-14.8
							c-0.4,0.3-0.8,0.7-1.2,1.1c-0.9,0.9-1.6,1.8-2.3,2.8C235.5,133.6,234.2,137.7,234.2,142.1L234.2,142.1z"/>
						<path class="st30" d="M255.7,136.2l0.3,1.5c-0.5,0-1,0.1-1.5,0.1c-0.3,0-0.6,0-0.9,0"/>
						
							<ellipse transform="matrix(0.6698 -0.7426 0.7426 0.6698 -16.9633 201.5501)" class="st24" cx="218.1" cy="119.8" rx="9.2" ry="11.7"/>
						<path class="st24" d="M228,118.2c-0.7-1.2-1.6-2.2-2.7-3.2c-4.8-4.3-11.5-4.8-14.9-1c-2.2,2.5-2.5,6.1-1.1,9.5
							c-2.4-3.9-2.5-8.6,0.2-11.5c3.4-3.8,10.1-3.3,14.9,1C226,114.5,227.2,116.3,228,118.2L228,118.2z"/>
						<circle class="st6" cx="266.2" cy="83.1" r="8.3"/>
						<circle class="st15" cx="265.2" cy="86.3" r="7.6"/>
						<path class="st15" d="M249.8,78.2l9.3-0.5c5.2-0.3,9.6,3.7,9.8,8.9l0.9,18.4c0.3,6.8-4.9,12.6-11.7,12.9l-7.2,0.4
							c-6.8,0.3-12.6-4.9-12.9-11.7L237.4,92C237,84.7,242.6,78.6,249.8,78.2L249.8,78.2z"/>
						<path class="st24" d="M260.3,113.4l0.1,2.9l0.2,6.2c0.1,2.1-1.1,4-3.1,4.8c-3.2,1.4-6.9-0.9-7-4.5l0-0.7l-0.3-8.5
							c-0.1-2.1,1.1-4,3.1-4.8c0.3-0.1,0.6-0.2,1-0.3C257.3,108,260.2,110.2,260.3,113.4L260.3,113.4z"/>
						<path class="st24" d="M260.3,113.4l0.1,2.9c-2.4,3-5.9,5.1-9.9,5.9l-0.3-8.5c-0.1-2.1,1.1-4,3.1-4.8c0.3-0.1,0.6-0.2,1-0.3
							C257.3,108,260.2,110.2,260.3,113.4L260.3,113.4z"/>
						<path class="st24" d="M267.8,90.5l0,11c0,9.3-7.6,16.9-16.9,16.9c-7.2,0-13-5.9-13-13.1v-9.2c0-0.1,0-0.1,0-0.2
							c0-0.2,0-0.5,0-0.8c0.5-9.2,8-16.4,17.3-16.5c0.1,0,0.2,0,0.2,0h0.6c0.8,0,1.5,0.1,2.2,0.2C263.7,79.9,267.8,84.7,267.8,90.5
							L267.8,90.5z"/>
						<path class="st24" d="M249.2,118.2c-5-1.8-8.5-6.6-8.5-12.2v-9.2c0-0.1,0-0.1,0-0.2c0-0.2,0-0.5,0-0.8
							c0.5-9.2,8-16.4,17.3-16.5c0.1,0,0.2,0,0.2,0h0.5c0.5,0,0.9,0,1.4,0.1c-0.6-0.2-1.3-0.4-2-0.6c-0.7-0.1-1.5-0.2-2.2-0.2h-0.6
							c-0.1,0-0.2,0-0.2,0c-9.2,0.1-16.8,7.4-17.2,16.5c0,0.2,0,0.5,0,0.8c0,0.1,0,0.1,0,0.2v9.2
							C237.9,111.9,242.8,117.4,249.2,118.2L249.2,118.2z"/>
						<path class="st31" d="M270.6,98.2l-3.6-6.6c-0.4-0.7-0.8-1.2-1.3-1.7l0.4-0.1c0.1-0.1,0.4-1.9,0.4-2c0,0,0-0.1,0-0.1
							c-1.5-4.1-4.5-7.2-8.2-8.8c-0.7-0.1-1.5-0.2-2.2-0.2h-0.6c-0.1,0-0.2,0-0.2,0c-9.2,0.1-16.8,7.4-17.3,16.5
							c3,0.9,6.3,0.8,9.5-0.3l5.1-1.4c3.5-0.9,7.2,0.6,8.9,3.8l0,0c1.7,3.1,5.6,4.3,8.7,2.6l0,0C270.7,99.6,270.9,98.8,270.6,98.2
							L270.6,98.2z"/>
						<path class="st15" d="M260.3,85l3.9-0.2c3.9-0.2,7.3,2.8,7.5,6.7l0.4,7.7c0,0.8-0.5,1.4-1.3,1.5l-2.5,0.1
							c-3.9,0.2-7.3-2.8-7.5-6.7L260.3,85L260.3,85L260.3,85z"/>
						<circle class="st24" cx="267.2" cy="98.3" r="5.3"/>
						<path class="st24" d="M267.7,103.6c-1,8.3-8.2,14.8-16.8,14.8c-1.9,0-3.7-0.4-5.4-1.2c1.1,0.3,2.3,0.5,3.5,0.5
							c8.5,0,15.5-6.2,16.7-14.3c0-0.2,0-0.3,0.1-0.5c0.7-0.1,1.4-0.3,2-0.6c1.4-0.8,2.5-2.2,2.8-3.9c0.3-2.2-0.7-4.3-2.5-5.3
							c2.9,0.5,4.8,3.1,4.4,6C272,101.5,270,103.3,267.7,103.6L267.7,103.6z"/>
						<path class="st32" d="M268,93.1L268,93.1c-0.1,0-0.2,0-0.2,0V93C267.9,93,268,93,268,93.1L268,93.1z"/>
						<path class="st24" d="M269,97.9c-0.2-0.9-0.9-1.6-1.8-1.7c-0.5-0.1-0.8,0.3-0.7,0.8l0.6,2.9c0.1,0.5,0.7,0.7,1,0.4
							C268.8,99.7,269.2,98.8,269,97.9L269,97.9z"/>
						<circle class="st33" cx="242.6" cy="98.8" r="1.3"/>
						<circle class="st33" cx="252.6" cy="98.8" r="1.3"/>
						<path class="st15" d="M252.9,94.3l-19.2,0.7l-0.1-4.4c-0.3-8.3,6.2-15.2,14.5-15.5l19.2-0.7l0.1,4.4
							C267.7,87.1,261.2,94,252.9,94.3L252.9,94.3z"/>
						<path class="st22" d="M237.4,82.9C237.4,82.9,237.4,82.9,237.4,82.9c-1.6,3.9,1.3,8.1,5.4,7.9l7.9-0.3c0.9,0,1.8-0.1,2.7-0.3
							c5.1-0.9,9.4-3.7,12.3-7.7c-2.5,6-7.9,10.4-14.5,11.6c-0.9,0.2-1.8,0.2-2.7,0.3L233.7,95C233.6,90.5,235,86.3,237.4,82.9
							L237.4,82.9z"/>
						<path class="st22" d="M275.9,92.8h0.7c0.7,0,1.2,0.5,1.2,1.2v37.6c0,0.7-0.5,1.2-1.2,1.2h-0.7c-0.7,0-1.2-0.5-1.2-1.2V94.1
							C274.7,93.4,275.2,92.8,275.9,92.8z"/>
						<g>
							<path class="st17" d="M244.9,103.4c0,0.7,0.3,1.4,0.7,1.9c0.1,0.1,0.1,0.1,0.2,0.2c0.4,0.4,1,0.6,1.7,0.7h0.1
								c0.6,0,1.1-0.2,1.6-0.5c0.6-0.4,1.1-1.1,1.1-1.9c0-0.1,0-0.2,0-0.2c0-0.1-0.1-0.3-0.1-0.4s-0.2-0.2-0.4-0.2l-4.4-0.1
								C245.1,102.9,244.9,103.1,244.9,103.4L244.9,103.4z"/>
							<path class="st18" d="M247.5,105.7c0,0.1,0,0.3,0,0.4h0c1.4,0,2.6-1,2.7-2.4c-0.2-0.1-0.4-0.1-0.6-0.1
								C248.5,103.6,247.6,104.6,247.5,105.7L247.5,105.7z"/>
							<path class="st19" d="M245.5,102.9c0,0.5,0.8,1,1.8,1c1,0,1.8-0.4,1.8-0.9L245.5,102.9z"/>
						</g>
						<polygon class="st33" points="253.6,99.4 254.7,97.5 252.4,97.5 						"/>
						<polygon class="st33" points="241.4,99.4 242.4,97.5 240.2,97.5 						"/>
					</g>
					<g>
						<path class="st34" d="M198.8,176.2h1.3c1.2,0,2.2,1,2.2,2.2v0.7h-5.6v-0.7C196.6,177.1,197.6,176.2,198.8,176.2L198.8,176.2z"
							/>
						<path class="st34" d="M193.2,176.2h1.3c1.2,0,2.2,1,2.2,2.2v0.7H191v-0.7C191,177.1,192,176.2,193.2,176.2L193.2,176.2z"/>
						<path class="st34" d="M187.6,176.2h1.3c1.2,0,2.2,1,2.2,2.2v0.7h-5.6v-0.7C185.4,177.1,186.4,176.2,187.6,176.2L187.6,176.2z"
							/>
						<path class="st34" d="M182,176.2h1.3c1.2,0,2.2,1,2.2,2.2v0.7h-5.6v-0.7C179.9,177.1,180.8,176.2,182,176.2L182,176.2z"/>
						<path class="st34" d="M176.4,176.2h1.3c1.2,0,2.2,1,2.2,2.2v0.7h-5.6v-0.7C174.3,177.1,175.2,176.2,176.4,176.2L176.4,176.2z"
							/>
						<path class="st34" d="M170.8,176.2h1.3c1.2,0,2.2,1,2.2,2.2v0.7h-5.6v-0.7C168.7,177.1,169.6,176.2,170.8,176.2L170.8,176.2z"
							/>
						<path class="st34" d="M165.2,176.2h1.3c1.2,0,2.2,1,2.2,2.2v0.7h-5.6v-0.7C163.1,177.1,164.1,176.2,165.2,176.2L165.2,176.2z"
							/>
						<path class="st12" d="M157.4,177.5h60.3c1,0,1.8,0.8,1.8,1.8v1c0,1-0.8,1.8-1.8,1.8h-60.3c-1,0-1.8-0.8-1.8-1.8v-1
							C155.6,178.3,156.4,177.5,157.4,177.5z"/>
						<path class="st35" d="M201.9,182.1h53.3c2.2,0,4.2-1.5,4.7-3.7l10.4-41.2c0.8-3.1-1.5-6.1-4.7-6.1h-47c-2.2,0-4.2,1.5-4.7,3.7
							L201.9,182.1L201.9,182.1z"/>
						<path class="st12" d="M270.3,137.1l-10.4,41.2c-0.5,2.2-2.5,3.7-4.7,3.7h-53.3l1.1-4.6h42.1c2.2,0,4.2-1.5,4.7-3.7l10.4-41.2
							c0.1-0.5,0.2-1,0.1-1.5h5.2C268.7,131.1,271,134.1,270.3,137.1L270.3,137.1z"/>
						<g>
							<circle class="st34" cx="239.4" cy="157.9" r="2.7"/>
							<path class="st34" d="M243,161.9c-0.9,1.4-2.6,2.4-4.4,2.4c-2.9,0-5.2-2.3-5.2-5.2c0-1.9,1-3.5,2.4-4.4
								c-0.5,0.8-0.8,1.8-0.8,2.8c0,2.9,2.3,5.2,5.2,5.2C241.2,162.7,242.2,162.4,243,161.9z"/>
						</g>
					</g>
				</g>
			</g>
		</g>
	</g>
</g>
<g>
	<g>
		<g>
			<path d="M152,247.5V218h-5.6l2.3-8h12v37.5H152z"/>
			<path d="M181.9,248.2c-2.7,0-5.2-0.6-7.3-1.8c-2.2-1.2-3.9-2.8-5.2-4.8c-1.3-2-1.9-4.2-1.9-6.5h8.8c0,0.9,0.3,1.8,0.8,2.6
				c0.5,0.8,1.2,1.4,2,1.8c0.8,0.5,1.8,0.7,2.8,0.7c1,0,1.9-0.2,2.8-0.7c0.8-0.5,1.5-1.1,2-1.8c0.5-0.8,0.8-1.6,0.8-2.6
				c0-0.9-0.2-1.8-0.6-2.6c-0.4-0.8-1.1-1.4-2.2-1.9c-1-0.5-2.5-0.7-4.5-0.7h-10.8L174,210h20.6v8h-13.5l-0.9,3.7l1.9,0.1
				c2.8,0.1,5.2,0.8,7.3,2c2.1,1.2,3.8,2.8,5,4.7c1.2,2,1.8,4.1,1.8,6.5c0,1.8-0.4,3.5-1.1,5.1c-0.7,1.6-1.8,3-3.1,4.2
				c-1.3,1.2-2.8,2.2-4.6,2.8C185.8,247.8,183.9,248.2,181.9,248.2z"/>
			<path d="M215.8,248.2c-2.3,0-4.5-0.5-6.4-1.5c-2-1-3.7-2.4-5.1-4.2c-1.4-1.8-2.6-3.9-3.3-6.2c-0.8-2.3-1.2-4.9-1.2-7.5
				s0.4-5.2,1.2-7.5c0.8-2.3,1.9-4.4,3.3-6.2c1.4-1.8,3.1-3.2,5.1-4.2s4.1-1.5,6.4-1.5c2.3,0,4.5,0.5,6.4,1.5c2,1,3.6,2.4,5.1,4.2
				c1.4,1.8,2.5,3.9,3.3,6.2c0.8,2.3,1.2,4.9,1.2,7.5s-0.4,5.2-1.2,7.5c-0.8,2.3-1.9,4.4-3.3,6.2c-1.4,1.8-3.1,3.2-5.1,4.2
				C220.3,247.7,218.2,248.2,215.8,248.2z M215.8,240.1c1.8,0,3.3-0.5,4.5-1.6c1.2-1.1,2-2.5,2.6-4.2c0.5-1.7,0.8-3.6,0.8-5.5
				c0-2.1-0.3-3.9-0.9-5.7c-0.6-1.7-1.5-3.1-2.6-4.2c-1.2-1-2.6-1.6-4.3-1.6c-1.4,0-2.5,0.3-3.5,1c-1,0.6-1.8,1.5-2.5,2.6
				c-0.6,1.1-1.1,2.3-1.4,3.7c-0.3,1.4-0.5,2.8-0.5,4.2c0,1.9,0.3,3.8,0.8,5.5s1.4,3.2,2.6,4.3S214.1,240.1,215.8,240.1z"/>
			<path d="M269,247.5h-11.5l-10.5-13.5l-1.2,1.3v12.3h-8.8V210h8.8v12.7l11.6-12.7H269l-16.2,17.7L269,247.5z"/>
		</g>
	</g>
	<g>
		<g>
			<path d="M84.6,247.4c-1.3,0-2.5-0.3-3.7-0.8c-1.1-0.5-2.2-1.3-3-2.3c-0.9-1-1.6-2.1-2.1-3.3c-0.5-1.3-0.7-2.6-0.7-4.1
				c0-1.4,0.2-2.8,0.7-4.1c0.5-1.3,1.2-2.4,2.1-3.3c0.9-1,1.9-1.7,3-2.3c1.1-0.5,2.4-0.8,3.7-0.8c1.3,0,2.5,0.3,3.7,0.8
				c1.1,0.5,2.2,1.3,3,2.3c0.9,1,1.6,2.1,2,3.3s0.7,2.6,0.7,4.1c0,1.4-0.2,2.8-0.7,4.1s-1.2,2.4-2,3.3c-0.9,1-1.9,1.7-3,2.3
				C87.1,247.1,85.9,247.4,84.6,247.4z M84.6,245c1,0,1.9-0.2,2.8-0.6c0.9-0.4,1.6-1,2.3-1.8c0.7-0.7,1.2-1.6,1.5-2.6
				c0.4-1,0.6-2,0.6-3.1c0-1.1-0.2-2.1-0.6-3.1c-0.4-1-0.9-1.8-1.6-2.6c-0.7-0.7-1.4-1.3-2.3-1.7c-0.9-0.4-1.8-0.6-2.8-0.6
				c-1,0-1.9,0.2-2.8,0.6c-0.9,0.4-1.6,1-2.3,1.8c-0.7,0.7-1.2,1.6-1.5,2.6c-0.4,1-0.6,2-0.6,3.1c0,1.1,0.2,2.1,0.6,3.1
				c0.4,1,0.9,1.8,1.6,2.6c0.7,0.7,1.4,1.3,2.3,1.7C82.6,244.8,83.6,245,84.6,245z"/>
			<path d="M103.5,247h-3l-5-14.5h2.5l4,11.7l4-11.7h2.5L103.5,247z"/>
			<path d="M116.2,247.4c-1.3,0-2.4-0.3-3.5-1s-1.9-1.6-2.5-2.8c-0.6-1.2-0.9-2.4-0.9-3.8c0-1.1,0.2-2.1,0.5-3s0.9-1.7,1.5-2.4
				c0.6-0.7,1.4-1.2,2.2-1.6c0.8-0.4,1.7-0.6,2.7-0.6c1,0,2,0.2,2.9,0.7s1.6,1,2.2,1.8c0.6,0.8,1.1,1.7,1.4,2.7
				c0.3,1,0.4,2.1,0.3,3.3h-11.3c0.1,0.8,0.4,1.6,0.8,2.2c0.4,0.6,0.9,1.1,1.6,1.5c0.6,0.4,1.3,0.6,2.1,0.6c0.8,0,1.6-0.2,2.2-0.7
				c0.7-0.4,1.2-1.1,1.6-1.8l2.4,0.6c-0.6,1.3-1.4,2.3-2.5,3.1C118.9,247,117.6,247.4,116.2,247.4z M111.7,238.8h9
				c-0.1-0.8-0.3-1.5-0.7-2.2c-0.4-0.7-1-1.2-1.6-1.6s-1.4-0.6-2.1-0.6c-0.8,0-1.5,0.2-2.1,0.6c-0.6,0.4-1.2,0.9-1.6,1.6
				C112.1,237.2,111.8,237.9,111.7,238.8z"/>
			<path d="M125.4,247v-14.5h2.3v1.8c0.5-0.7,1.1-1.2,1.8-1.6c0.7-0.4,1.6-0.6,2.4-0.6c0.5,0,1,0.1,1.5,0.2l-0.9,2.4
				c-0.4-0.1-0.7-0.2-1.1-0.2c-0.7,0-1.3,0.2-1.9,0.5c-0.6,0.4-1,0.8-1.4,1.4c-0.3,0.6-0.5,1.3-0.5,2v8.5H125.4z"/>
		</g>
	</g>
	<g>
		<g>
			<path d="M40.5,276.9l2.1,1.2c-0.6,0.9-1.4,1.6-2.4,2.2c-1,0.6-2,0.8-3.1,0.8c-1.3,0-2.4-0.3-3.5-1c-1-0.7-1.9-1.6-2.5-2.8
				c-0.6-1.2-0.9-2.4-0.9-3.8c0-1.1,0.2-2.1,0.5-3c0.4-0.9,0.9-1.7,1.5-2.4c0.6-0.7,1.4-1.2,2.2-1.6c0.8-0.4,1.7-0.6,2.7-0.6
				c1.1,0,2.2,0.3,3.1,0.8c1,0.5,1.8,1.3,2.4,2.2l-2.1,1.2c-0.4-0.6-1-1-1.6-1.3c-0.6-0.3-1.2-0.5-1.9-0.5c-0.9,0-1.6,0.2-2.3,0.7
				c-0.7,0.5-1.2,1.1-1.6,1.9c-0.4,0.8-0.6,1.7-0.6,2.6c0,0.9,0.2,1.8,0.6,2.6c0.4,0.8,1,1.4,1.7,1.9c0.7,0.5,1.5,0.7,2.3,0.7
				c0.7,0,1.3-0.2,1.9-0.5C39.6,277.8,40.1,277.4,40.5,276.9z"/>
			<path d="M44.8,280.7V259h2.3v21.7H44.8z"/>
			<path d="M61.4,266.2h2.3v14.5h-2.3l-0.1-2.4c-0.4,0.8-1,1.5-1.8,2c-0.8,0.5-1.7,0.8-2.7,0.8c-1,0-2-0.2-2.8-0.6
				c-0.9-0.4-1.7-1-2.3-1.7c-0.7-0.7-1.2-1.5-1.6-2.5s-0.6-1.9-0.6-3c0-1,0.2-2,0.6-2.9c0.4-0.9,0.9-1.7,1.5-2.4
				c0.7-0.7,1.4-1.2,2.3-1.6c0.9-0.4,1.8-0.6,2.8-0.6c1.1,0,2,0.3,2.9,0.8c0.8,0.5,1.5,1.2,2,2.1L61.4,266.2z M56.8,278.7
				c0.9,0,1.7-0.2,2.4-0.7c0.7-0.5,1.2-1.1,1.5-1.9s0.5-1.7,0.5-2.6c0-1-0.2-1.9-0.6-2.7c-0.4-0.8-0.9-1.4-1.6-1.9
				c-0.7-0.5-1.5-0.7-2.4-0.7c-0.9,0-1.7,0.2-2.5,0.7c-0.7,0.5-1.3,1.1-1.8,1.9c-0.4,0.8-0.7,1.7-0.7,2.7c0,1,0.2,1.9,0.7,2.7
				c0.5,0.8,1,1.4,1.8,1.9C55.1,278.5,55.9,278.7,56.8,278.7z"/>
			<path d="M70.7,280.9c-0.7,0-1.5-0.2-2.2-0.4s-1.3-0.6-1.8-1.1c-0.5-0.5-0.9-1-1.2-1.6l2-0.9c0.1,0.3,0.4,0.6,0.7,0.9
				c0.4,0.3,0.8,0.5,1.2,0.7c0.5,0.2,0.9,0.3,1.4,0.3c0.5,0,1-0.1,1.4-0.2c0.4-0.2,0.8-0.4,1.1-0.7c0.3-0.3,0.4-0.7,0.4-1.2
				c0-0.5-0.2-0.9-0.5-1.1c-0.3-0.3-0.7-0.5-1.2-0.7c-0.5-0.2-0.9-0.3-1.4-0.5c-0.9-0.3-1.8-0.6-2.5-0.9c-0.7-0.4-1.3-0.8-1.8-1.3
				c-0.4-0.5-0.6-1.2-0.6-2.1c0-0.9,0.2-1.7,0.7-2.3c0.5-0.7,1.1-1.2,1.9-1.5c0.8-0.4,1.6-0.5,2.5-0.5c1.1,0,2.1,0.3,3,0.8
				c0.9,0.5,1.6,1.2,2.1,2l-1.9,1.1c-0.2-0.3-0.4-0.7-0.7-0.9c-0.3-0.3-0.7-0.5-1.1-0.6c-0.4-0.2-0.8-0.2-1.3-0.2
				c-0.5,0-1,0.1-1.5,0.2c-0.5,0.2-0.8,0.4-1.1,0.7c-0.3,0.3-0.4,0.7-0.4,1.2c0,0.5,0.1,0.8,0.4,1.1c0.3,0.3,0.7,0.5,1.2,0.6
				c0.5,0.1,1,0.3,1.6,0.5c0.8,0.3,1.6,0.6,2.3,1c0.7,0.4,1.3,0.8,1.8,1.4c0.4,0.5,0.7,1.2,0.7,2c0,0.9-0.3,1.7-0.8,2.3
				s-1.2,1.2-2,1.5C72.5,280.8,71.6,281,70.7,280.9z"/>
			<path d="M82.6,280.9c-0.7,0-1.5-0.2-2.2-0.4s-1.3-0.6-1.8-1.1c-0.5-0.5-0.9-1-1.2-1.6l2-0.9c0.1,0.3,0.4,0.6,0.7,0.9
				c0.4,0.3,0.8,0.5,1.2,0.7c0.5,0.2,0.9,0.3,1.4,0.3c0.5,0,1-0.1,1.4-0.2c0.4-0.2,0.8-0.4,1.1-0.7c0.3-0.3,0.4-0.7,0.4-1.2
				c0-0.5-0.2-0.9-0.5-1.1c-0.3-0.3-0.7-0.5-1.2-0.7c-0.5-0.2-0.9-0.3-1.4-0.5c-0.9-0.3-1.8-0.6-2.5-0.9c-0.7-0.4-1.3-0.8-1.8-1.3
				c-0.4-0.5-0.6-1.2-0.6-2.1c0-0.9,0.2-1.7,0.7-2.3c0.5-0.7,1.1-1.2,1.9-1.5c0.8-0.4,1.6-0.5,2.5-0.5c1.1,0,2.1,0.3,3,0.8
				c0.9,0.5,1.6,1.2,2.1,2l-1.9,1.1c-0.2-0.3-0.4-0.7-0.7-0.9c-0.3-0.3-0.7-0.5-1.1-0.6c-0.4-0.2-0.8-0.2-1.3-0.2
				c-0.5,0-1,0.1-1.5,0.2c-0.5,0.2-0.8,0.4-1.1,0.7c-0.3,0.3-0.4,0.7-0.4,1.2c0,0.5,0.1,0.8,0.4,1.1c0.3,0.3,0.7,0.5,1.2,0.6
				c0.5,0.1,1,0.3,1.6,0.5c0.8,0.3,1.6,0.6,2.3,1c0.7,0.4,1.3,0.8,1.8,1.4c0.4,0.5,0.7,1.2,0.7,2c0,0.9-0.3,1.7-0.8,2.3
				c-0.5,0.7-1.2,1.2-2,1.5C84.4,280.8,83.5,281,82.6,280.9z"/>
			<path d="M96.2,281c-1.3,0-2.4-0.3-3.5-1c-1-0.7-1.9-1.6-2.5-2.8c-0.6-1.2-0.9-2.4-0.9-3.8c0-1.1,0.2-2.1,0.5-3
				c0.4-0.9,0.9-1.7,1.5-2.4c0.6-0.7,1.4-1.2,2.2-1.6s1.7-0.6,2.7-0.6c1,0,2,0.2,2.9,0.7c0.9,0.4,1.6,1,2.2,1.8
				c0.6,0.8,1.1,1.7,1.4,2.7c0.3,1,0.4,2.1,0.3,3.3H91.8c0.1,0.8,0.4,1.6,0.8,2.2c0.4,0.6,0.9,1.1,1.6,1.5c0.6,0.4,1.3,0.6,2.1,0.6
				c0.8,0,1.6-0.2,2.2-0.7c0.7-0.4,1.2-1.1,1.6-1.8l2.4,0.6c-0.6,1.3-1.4,2.3-2.5,3.1C98.9,280.6,97.6,281,96.2,281z M91.7,272.4h9
				c-0.1-0.8-0.3-1.5-0.7-2.2c-0.4-0.7-1-1.2-1.6-1.6c-0.7-0.4-1.4-0.6-2.1-0.6c-0.8,0-1.5,0.2-2.1,0.6c-0.6,0.4-1.2,0.9-1.6,1.6
				C92.1,270.8,91.8,271.6,91.7,272.4z"/>
			<path d="M109.7,280.9c-0.7,0-1.5-0.2-2.2-0.4s-1.3-0.6-1.8-1.1c-0.5-0.5-0.9-1-1.2-1.6l2-0.9c0.1,0.3,0.4,0.6,0.7,0.9
				c0.4,0.3,0.8,0.5,1.2,0.7c0.5,0.2,0.9,0.3,1.4,0.3c0.5,0,1-0.1,1.4-0.2c0.4-0.2,0.8-0.4,1.1-0.7c0.3-0.3,0.4-0.7,0.4-1.2
				c0-0.5-0.2-0.9-0.5-1.1c-0.3-0.3-0.7-0.5-1.2-0.7c-0.5-0.2-0.9-0.3-1.4-0.5c-0.9-0.3-1.8-0.6-2.5-0.9c-0.7-0.4-1.3-0.8-1.8-1.3
				c-0.4-0.5-0.6-1.2-0.6-2.1c0-0.9,0.2-1.7,0.7-2.3c0.5-0.7,1.1-1.2,1.9-1.5c0.8-0.4,1.6-0.5,2.5-0.5c1.1,0,2.1,0.3,3,0.8
				c0.9,0.5,1.6,1.2,2.1,2l-1.9,1.1c-0.2-0.3-0.4-0.7-0.7-0.9c-0.3-0.3-0.7-0.5-1.1-0.6c-0.4-0.2-0.8-0.2-1.3-0.2
				c-0.5,0-1,0.1-1.5,0.2c-0.5,0.2-0.8,0.4-1.1,0.7c-0.3,0.3-0.4,0.7-0.4,1.2c0,0.5,0.1,0.8,0.4,1.1c0.3,0.3,0.7,0.5,1.2,0.6
				c0.5,0.1,1,0.3,1.6,0.5c0.8,0.3,1.6,0.6,2.3,1c0.7,0.4,1.3,0.8,1.8,1.4c0.4,0.5,0.7,1.2,0.7,2c0,0.9-0.3,1.7-0.8,2.3
				s-1.2,1.2-2,1.5C111.5,280.8,110.6,281,109.7,280.9z"/>
			<path d="M131.1,268.6H128l0,12h-2.3l0-12h-2.4v-2.4h2.4l0-4.5h2.3l0,4.5h3.1V268.6z"/>
			<path d="M144.3,266.2h2.3v14.5h-2.3l-0.1-2.4c-0.4,0.8-1,1.5-1.8,2c-0.8,0.5-1.7,0.8-2.7,0.8c-1,0-2-0.2-2.8-0.6
				c-0.9-0.4-1.7-1-2.3-1.7s-1.2-1.5-1.6-2.5s-0.6-1.9-0.6-3c0-1,0.2-2,0.6-2.9c0.4-0.9,0.9-1.7,1.5-2.4c0.7-0.7,1.4-1.2,2.3-1.6
				c0.9-0.4,1.8-0.6,2.8-0.6c1.1,0,2,0.3,2.9,0.8c0.8,0.5,1.5,1.2,2,2.1L144.3,266.2z M139.7,278.7c0.9,0,1.7-0.2,2.4-0.7
				c0.7-0.5,1.2-1.1,1.5-1.9c0.4-0.8,0.5-1.7,0.5-2.6c0-1-0.2-1.9-0.6-2.7c-0.4-0.8-0.9-1.4-1.6-1.9c-0.7-0.5-1.5-0.7-2.4-0.7
				c-0.9,0-1.7,0.2-2.5,0.7c-0.7,0.5-1.3,1.1-1.8,1.9c-0.4,0.8-0.7,1.7-0.7,2.7c0,1,0.2,1.9,0.7,2.7c0.5,0.8,1,1.4,1.8,1.9
				S138.8,278.7,139.7,278.7z"/>
			<path d="M148.8,275.2v-9h2.3v8.4c0,0.7,0.2,1.4,0.5,2c0.3,0.6,0.8,1.1,1.4,1.4c0.6,0.4,1.2,0.5,1.9,0.5c0.7,0,1.3-0.2,1.9-0.5
				c0.6-0.4,1-0.8,1.4-1.4c0.3-0.6,0.5-1.3,0.5-2v-8.4h2.3l0,14.5h-2.3l0-1.8c-0.5,0.7-1.1,1.2-1.8,1.6c-0.7,0.4-1.5,0.6-2.4,0.6
				c-1,0-2-0.3-2.8-0.8c-0.9-0.5-1.5-1.2-2-2.1C149.1,277.3,148.8,276.3,148.8,275.2z"/>
			<path d="M174.4,266.2h2.3v14.9c0,1-0.2,1.8-0.6,2.7c-0.4,0.8-0.9,1.5-1.6,2.2c-0.7,0.6-1.4,1.1-2.3,1.4c-0.8,0.3-1.7,0.5-2.6,0.5
				c-1,0-1.9-0.2-2.8-0.7c-0.9-0.4-1.7-1-2.3-1.8c-0.7-0.7-1.1-1.6-1.4-2.5l2.1-1c0.2,0.7,0.5,1.3,0.9,1.8c0.5,0.5,1,1,1.6,1.3
				c0.6,0.3,1.2,0.5,1.9,0.5c0.6,0,1.2-0.1,1.8-0.3c0.6-0.2,1.1-0.5,1.5-0.9c0.5-0.4,0.8-0.8,1.1-1.4c0.3-0.5,0.4-1.1,0.4-1.7v-2.9
				c-0.5,0.8-1.1,1.5-1.9,2c-0.8,0.5-1.7,0.8-2.7,0.8c-1,0-1.9-0.2-2.7-0.6c-0.9-0.4-1.6-0.9-2.2-1.6c-0.6-0.7-1.1-1.5-1.5-2.4
				c-0.4-0.9-0.6-1.9-0.6-2.9c0-1.1,0.2-2,0.6-3c0.4-0.9,0.9-1.7,1.5-2.4c0.6-0.7,1.4-1.2,2.2-1.6s1.8-0.6,2.7-0.6
				c1,0,1.9,0.3,2.7,0.8c0.8,0.5,1.4,1.2,1.9,2V266.2z M169.9,278.7c0.9,0,1.7-0.2,2.3-0.7c0.7-0.5,1.2-1.1,1.5-1.9
				c0.4-0.8,0.5-1.7,0.5-2.6c0-1-0.2-1.8-0.5-2.6s-0.9-1.4-1.5-1.9c-0.7-0.5-1.4-0.7-2.3-0.7c-0.9,0-1.7,0.2-2.4,0.7
				c-0.7,0.5-1.3,1.1-1.7,1.9c-0.4,0.8-0.6,1.7-0.6,2.7c0,1,0.2,1.9,0.6,2.7c0.4,0.8,1,1.4,1.7,1.9
				C168.3,278.5,169.1,278.7,169.9,278.7z"/>
			<path d="M192.3,271.7v9h-2.3v-8.5c0-0.7-0.2-1.4-0.5-2c-0.3-0.6-0.8-1.1-1.4-1.4c-0.6-0.4-1.2-0.5-1.9-0.5
				c-0.7,0-1.3,0.2-1.9,0.5c-0.6,0.4-1,0.8-1.4,1.4c-0.3,0.6-0.5,1.3-0.5,2v8.5h-2.3V259h2.3v9c0.5-0.7,1.1-1.2,1.8-1.6
				c0.7-0.4,1.6-0.6,2.4-0.6c1,0,2,0.3,2.8,0.8c0.9,0.5,1.5,1.2,2,2.1C192,269.6,192.3,270.6,192.3,271.7z"/>
			<path d="M202.2,268.6H199l0,12h-2.3l0-12h-2.4v-2.4h2.4l0-4.5h2.3l0,4.5h3.1V268.6z"/>
			<path d="M213.6,287.9h-2.3v-21.7h2.3v2.5c0.5-0.8,1.1-1.5,1.9-2.1c0.8-0.5,1.7-0.8,2.8-0.8c1,0,1.9,0.2,2.8,0.6
				c0.9,0.4,1.6,0.9,2.3,1.6c0.7,0.7,1.2,1.5,1.6,2.4c0.4,0.9,0.6,1.9,0.6,2.9c0,1.1-0.2,2-0.6,3s-0.9,1.7-1.6,2.4
				c-0.7,0.7-1.4,1.2-2.3,1.6c-0.9,0.4-1.8,0.6-2.8,0.6c-1.1,0-2-0.3-2.8-0.8c-0.8-0.5-1.4-1.2-1.9-2.1V287.9z M218.2,268.2
				c-0.9,0-1.7,0.2-2.3,0.7c-0.7,0.5-1.2,1.1-1.6,1.9c-0.4,0.8-0.5,1.7-0.5,2.6c0,1,0.2,1.8,0.5,2.6c0.4,0.8,0.9,1.4,1.5,1.9
				c0.7,0.5,1.5,0.7,2.4,0.7c0.9,0,1.7-0.2,2.5-0.7c0.7-0.5,1.3-1.1,1.8-1.9c0.4-0.8,0.7-1.7,0.7-2.7c0-1-0.2-1.8-0.7-2.6
				c-0.4-0.8-1-1.4-1.8-1.9C219.9,268.4,219.1,268.2,218.2,268.2z"/>
			<path d="M233.8,281c-1.3,0-2.4-0.3-3.5-1s-1.9-1.6-2.5-2.8c-0.6-1.2-0.9-2.4-0.9-3.8c0-1.1,0.2-2.1,0.5-3
				c0.4-0.9,0.9-1.7,1.5-2.4c0.6-0.7,1.4-1.2,2.2-1.6c0.8-0.4,1.7-0.6,2.7-0.6c1,0,2,0.2,2.9,0.7s1.6,1,2.2,1.8
				c0.6,0.8,1.1,1.7,1.4,2.7c0.3,1,0.4,2.1,0.3,3.3h-11.3c0.1,0.8,0.4,1.6,0.8,2.2c0.4,0.6,0.9,1.1,1.6,1.5s1.3,0.6,2.1,0.6
				c0.8,0,1.6-0.2,2.2-0.7c0.7-0.4,1.2-1.1,1.6-1.8l2.4,0.6c-0.6,1.3-1.4,2.3-2.5,3.1C236.4,280.6,235.1,281,233.8,281z
				 M229.3,272.4h9c-0.1-0.8-0.3-1.5-0.7-2.2c-0.4-0.7-1-1.2-1.6-1.6c-0.7-0.4-1.4-0.6-2.1-0.6s-1.5,0.2-2.1,0.6
				c-0.6,0.4-1.2,0.9-1.6,1.6C229.6,270.8,229.4,271.6,229.3,272.4z"/>
			<path d="M242.9,280.7v-14.5h2.3v1.8c0.5-0.7,1.1-1.2,1.8-1.6c0.7-0.4,1.6-0.6,2.4-0.6c0.5,0,1,0.1,1.5,0.2l-0.9,2.4
				c-0.4-0.1-0.7-0.2-1.1-0.2c-0.7,0-1.3,0.2-1.9,0.5c-0.6,0.4-1,0.8-1.4,1.4c-0.3,0.6-0.5,1.3-0.5,2v8.5H242.9z"/>
			<path d="M269.1,266.2h2.5l-7.5,21.7h-2.5l2.5-7.2l-5-14.5h2.5l3.6,11.1L269.1,266.2z"/>
			<path d="M279.4,281c-1.3,0-2.4-0.3-3.5-1s-1.9-1.6-2.5-2.8c-0.6-1.2-0.9-2.4-0.9-3.8c0-1.1,0.2-2.1,0.5-3
				c0.4-0.9,0.9-1.7,1.5-2.4c0.6-0.7,1.4-1.2,2.2-1.6c0.8-0.4,1.7-0.6,2.7-0.6c1,0,2,0.2,2.9,0.7s1.6,1,2.2,1.8
				c0.6,0.8,1.1,1.7,1.4,2.7c0.3,1,0.4,2.1,0.3,3.3H275c0.1,0.8,0.4,1.6,0.8,2.2c0.4,0.6,0.9,1.1,1.6,1.5c0.6,0.4,1.3,0.6,2.1,0.6
				c0.8,0,1.6-0.2,2.2-0.7c0.7-0.4,1.2-1.1,1.6-1.8l2.4,0.6c-0.6,1.3-1.4,2.3-2.5,3.1C282,280.6,280.8,281,279.4,281z M274.9,272.4
				h9c-0.1-0.8-0.3-1.5-0.7-2.2c-0.4-0.7-1-1.2-1.6-1.6c-0.7-0.4-1.4-0.6-2.1-0.6c-0.8,0-1.5,0.2-2.1,0.6c-0.6,0.4-1.2,0.9-1.6,1.6
				C275.3,270.8,275,271.6,274.9,272.4z"/>
			<path d="M299.6,266.2h2.3v14.5h-2.3l-0.1-2.4c-0.4,0.8-1,1.5-1.8,2c-0.8,0.5-1.7,0.8-2.7,0.8c-1,0-2-0.2-2.8-0.6
				c-0.9-0.4-1.7-1-2.3-1.7c-0.7-0.7-1.2-1.5-1.6-2.5s-0.6-1.9-0.6-3c0-1,0.2-2,0.6-2.9c0.4-0.9,0.9-1.7,1.5-2.4
				c0.7-0.7,1.4-1.2,2.3-1.6c0.9-0.4,1.8-0.6,2.8-0.6c1.1,0,2,0.3,2.9,0.8c0.8,0.5,1.5,1.2,2,2.1L299.6,266.2z M294.9,278.7
				c0.9,0,1.7-0.2,2.4-0.7s1.2-1.1,1.5-1.9s0.5-1.7,0.5-2.6c0-1-0.2-1.9-0.6-2.7c-0.4-0.8-0.9-1.4-1.6-1.9s-1.5-0.7-2.4-0.7
				c-0.9,0-1.7,0.2-2.5,0.7c-0.7,0.5-1.3,1.1-1.8,1.9c-0.4,0.8-0.7,1.7-0.7,2.7c0,1,0.2,1.9,0.7,2.7c0.5,0.8,1,1.4,1.8,1.9
				C293.2,278.5,294,278.7,294.9,278.7z"/>
			<path d="M304.6,280.7v-14.5h2.3v1.8c0.5-0.7,1.1-1.2,1.8-1.6c0.7-0.4,1.6-0.6,2.4-0.6c0.5,0,1,0.1,1.5,0.2l-0.9,2.4
				c-0.4-0.1-0.7-0.2-1.1-0.2c-0.7,0-1.3,0.2-1.9,0.5c-0.6,0.4-1,0.8-1.4,1.4c-0.3,0.6-0.5,1.3-0.5,2v8.5H304.6z"/>
		</g>
	</g>
</g>
</svg>
