<?xml version="1.0" encoding="UTF-8"?>
<svg xmlns="http://www.w3.org/2000/svg" viewBox="0 0 358.87 350.55">
  <defs>
    <style>
      .cls-1 {
        fill: #e1617f;
      }

      .cls-1, .cls-2, .cls-3, .cls-4, .cls-5, .cls-6, .cls-7, .cls-8, .cls-9, .cls-10, .cls-11, .cls-12, .cls-13, .cls-14, .cls-15, .cls-16, .cls-17, .cls-18, .cls-19, .cls-20, .cls-21, .cls-22, .cls-23, .cls-24, .cls-25, .cls-26, .cls-27, .cls-28, .cls-29, .cls-30, .cls-31, .cls-32, .cls-33, .cls-34 {
        stroke-width: 0px;
      }

      .cls-2 {
        fill: #ffa84d;
      }

      .cls-3 {
        fill: #ffbe83;
      }

      .cls-4 {
        fill: #4cf;
      }

      .cls-5 {
        fill: #ff9f8c;
      }

      .cls-35, .cls-36 {
        stroke: #000;
      }

      .cls-35, .cls-36, .cls-37 {
        stroke-miterlimit: 10;
      }

      .cls-35, .cls-27 {
        fill: #fff;
      }

      .cls-6 {
        fill: #473a82;
      }

      .cls-7 {
        fill: #ffdab2;
      }

      .cls-8 {
        fill: #0f4d68;
      }

      .cls-38 {
        isolation: isolate;
      }

      .cls-9 {
        fill: #fdebdd;
      }

      .cls-9, .cls-12 {
        mix-blend-mode: multiply;
      }

      .cls-36, .cls-37 {
        fill: none;
      }

      .cls-10 {
        fill: #962f4a;
      }

      .cls-11 {
        fill: #ffc3b5;
      }

      .cls-12, .cls-24 {
        fill: #fce6d4;
      }

      .cls-13 {
        opacity: .38;
      }

      .cls-13, .cls-31 {
        fill: #f9e0e5;
      }

      .cls-14 {
        fill: #0b8962;
      }

      .cls-15 {
        fill: #fe8f77;
      }

      .cls-16 {
        fill: #541000;
      }

      .cls-17 {
        fill: #fb8265;
      }

      .cls-18 {
        fill: #011923;
      }

      .cls-19 {
        fill: #ff6d8d;
      }

      .cls-20 {
        fill: #d7e2ff;
      }

      .cls-21 {
        fill: #0d9a73;
      }

      .cls-37 {
        stroke: #f3f4fe;
      }

      .cls-22 {
        fill: #fcb798;
      }

      .cls-23 {
        fill: #13b887;
      }

      .cls-25 {
        fill: #f37492;
      }

      .cls-26 {
        fill: #082a3c;
      }

      .cls-28 {
        fill: #b2dd45;
      }

      .cls-29 {
        fill: #5476ef;
      }

      .cls-30 {
        fill: #edeefe;
      }

      .cls-32 {
        fill: #ffecd9;
      }

      .cls-33 {
        fill: #f78f7a;
      }

      .cls-34 {
        fill: #4970db;
      }
    </style>
  </defs>
  <g class="cls-38">
    <g id="Capa_2" data-name="Capa 2">
      <g id="Layer_1" data-name="Layer 1">
        <g>
          <path class="cls-4" d="M51.79,40.63h292.11v256.11c0,15.95-12.95,28.89-28.89,28.89H22.9V69.52c0-15.95,12.95-28.89,28.89-28.89Z"/>
          <g>
            <rect class="cls-28" x="33.63" y="77.16" width="4.51" height="277" transform="translate(-51.39 15.21) rotate(-14.08)"/>
            <rect class="cls-28" x="41.39" y="75.22" width="4.51" height="277" transform="translate(-50.68 17.04) rotate(-14.08)"/>
            <rect class="cls-28" x="49.15" y="73.27" width="4.51" height="277" transform="translate(-49.98 18.87) rotate(-14.08)"/>
            <rect class="cls-28" x="56.91" y="71.32" width="4.51" height="277" transform="translate(-49.27 20.7) rotate(-14.08)"/>
            <rect class="cls-28" x="64.67" y="69.38" width="4.51" height="277" transform="translate(-48.56 22.53) rotate(-14.08)"/>
            <rect class="cls-28" x="72.43" y="67.43" width="4.51" height="277" transform="translate(-47.86 24.36) rotate(-14.08)"/>
            <rect class="cls-28" x="80.19" y="65.48" width="4.51" height="277" transform="translate(-47.15 26.19) rotate(-14.08)"/>
            <rect class="cls-28" x="87.95" y="63.54" width="4.51" height="277" transform="translate(-46.44 28.02) rotate(-14.08)"/>
            <rect class="cls-28" x="95.71" y="61.59" width="4.51" height="277" transform="translate(-45.74 29.85) rotate(-14.08)"/>
            <rect class="cls-28" x="103.47" y="59.64" width="4.51" height="277" transform="translate(-45.03 31.68) rotate(-14.08)"/>
            <rect class="cls-28" x="111.22" y="57.7" width="4.51" height="277" transform="translate(-44.32 33.5) rotate(-14.08)"/>
            <rect class="cls-28" x="118.98" y="55.75" width="4.51" height="277" transform="translate(-43.62 35.33) rotate(-14.08)"/>
            <rect class="cls-28" x="126.74" y="53.81" width="4.51" height="277" transform="translate(-42.91 37.16) rotate(-14.08)"/>
            <rect class="cls-28" x="134.5" y="51.86" width="4.51" height="277" transform="translate(-42.2 38.99) rotate(-14.08)"/>
            <rect class="cls-28" x="142.26" y="49.91" width="4.51" height="277" transform="translate(-41.5 40.82) rotate(-14.08)"/>
            <rect class="cls-28" x="150.02" y="47.97" width="4.51" height="277" transform="translate(-40.79 42.65) rotate(-14.08)"/>
            <rect class="cls-28" x="157.78" y="46.02" width="4.51" height="277" transform="translate(-40.08 44.48) rotate(-14.08)"/>
            <rect class="cls-28" x="165.54" y="44.07" width="4.51" height="277" transform="translate(-39.38 46.31) rotate(-14.08)"/>
            <rect class="cls-28" x="173.3" y="42.13" width="4.51" height="277" transform="translate(-38.67 48.14) rotate(-14.08)"/>
            <rect class="cls-28" x="181.06" y="40.18" width="4.51" height="277" transform="translate(-37.96 49.97) rotate(-14.08)"/>
            <rect class="cls-28" x="188.82" y="38.23" width="4.51" height="277" transform="translate(-37.26 51.8) rotate(-14.08)"/>
            <rect class="cls-28" x="196.58" y="36.29" width="4.51" height="277" transform="translate(-36.55 53.63) rotate(-14.08)"/>
            <rect class="cls-28" x="204.34" y="34.34" width="4.51" height="277" transform="translate(-35.84 55.46) rotate(-14.08)"/>
            <rect class="cls-28" x="212.1" y="32.39" width="4.51" height="277" transform="translate(-35.14 57.29) rotate(-14.08)"/>
            <rect class="cls-28" x="219.86" y="30.45" width="4.51" height="277" transform="translate(-34.43 59.12) rotate(-14.08)"/>
            <rect class="cls-28" x="227.62" y="28.5" width="4.51" height="277" transform="translate(-33.72 60.95) rotate(-14.08)"/>
            <rect class="cls-28" x="235.38" y="26.56" width="4.51" height="277" transform="translate(-33.02 62.78) rotate(-14.08)"/>
            <rect class="cls-28" x="243.14" y="24.61" width="4.51" height="277" transform="translate(-32.31 64.61) rotate(-14.08)"/>
            <rect class="cls-28" x="250.9" y="22.66" width="4.51" height="277" transform="translate(-31.6 66.43) rotate(-14.08)"/>
            <rect class="cls-28" x="258.66" y="20.72" width="4.51" height="277" transform="translate(-30.9 68.26) rotate(-14.08)"/>
            <rect class="cls-28" x="266.42" y="18.77" width="4.51" height="277" transform="translate(-30.19 70.09) rotate(-14.08)"/>
            <rect class="cls-28" x="274.18" y="16.82" width="4.51" height="277" transform="translate(-29.48 71.92) rotate(-14.08)"/>
            <rect class="cls-28" x="281.94" y="14.88" width="4.51" height="277" transform="translate(-28.78 73.75) rotate(-14.08)"/>
            <rect class="cls-28" x="289.7" y="12.93" width="4.51" height="277" transform="translate(-28.07 75.58) rotate(-14.08)"/>
            <rect class="cls-28" x="297.46" y="10.98" width="4.51" height="277" transform="translate(-27.36 77.41) rotate(-14.08)"/>
            <rect class="cls-28" x="305.22" y="9.04" width="4.51" height="277" transform="translate(-26.66 79.24) rotate(-14.08)"/>
            <rect class="cls-28" x="312.97" y="7.09" width="4.51" height="277" transform="translate(-25.95 81.07) rotate(-14.08)"/>
            <rect class="cls-28" x="320.73" y="5.15" width="4.51" height="277" transform="translate(-25.24 82.9) rotate(-14.08)"/>
          </g>
          <path class="cls-35" d="M12.55,30.28h321v256.11c0,15.95-12.95,28.89-28.89,28.89H12.55V30.28h0Z"/>
          <path class="cls-36" d="M303.97,12.44l-19.11,41.29c-2.51,5.43-.15,11.87,5.28,14.38h0c5.43,2.51,11.87.15,14.38-5.28l19.11-41.29"/>
          <path class="cls-36" d="M323.64,21.54l1.38-2.99c2.95-6.37.17-13.92-6.2-16.87h0c-6.37-2.95-13.92-.17-16.87,6.2l-25.98,56.16c-3.34,7.23-.2,15.79,7.03,19.14h0c7.23,3.34,15.79.2,19.14-7.03l24.05-51.98"/>
          <g>
            <path class="cls-37" d="M319.77,124.87v22.36c0,3.81-1.54,7.26-4.04,9.75-1.58,1.58-3.53,2.77-5.71,3.44-1.28.39-2.63.6-4.04.6-1.85,0-3.59.45-5.12,1.26-3.52,1.85-5.93,5.54-5.93,9.8v1.69c0,6.11-4.95,11.06-11.06,11.06H77.22c-3.94,0-7.52-1.6-10.1-4.19-2.58-2.58-4.19-6.16-4.19-10.1,0-3.08.97-5.93,2.63-8.25.47-.67.99-1.29,1.57-1.86,2.58-2.58,6.15-4.17,10.09-4.17h11.31c5.66,0,10.78-2.29,14.49-6,3.11-3.11,5.23-7.21,5.82-11.79.08-.61.14-1.23.16-1.86,0-.27.02-.55.02-.83,0-10.45-7.82-19.07-17.93-20.33-.84-.1-1.69-.16-2.55-.16h-4.46c-2.06,0-4.07-.23-6.01-.66-1.92-.43-3.77-1.05-5.52-1.86-3-1.37-5.71-3.27-8.01-5.58-4.31-4.3-7.2-10.02-7.91-16.39-.07-.61-.12-1.23-.15-1.86-.02-.43-.03-.85-.03-1.29,0-8.23,3.6-15.62,9.31-20.68.74-.66,1.52-1.28,2.34-1.86,4.51-3.21,10.03-5.09,15.99-5.09h.41c3.61,0,6.87-1.46,9.24-3.83s3.83-5.63,3.83-9.24c0-1.33-.2-2.61-.57-3.82-.2-.64-.44-1.26-.73-1.86-2.11-4.37-6.59-7.39-11.77-7.39h-5.01c-3.77,0-7.19-1.53-9.66-4-2.47-2.47-4-5.89-4-9.66,0-.31,0-.62.03-.92.04-.63.13-1.25.25-1.86,1.29-6.21,6.79-10.88,13.38-10.88h92.93c6.05,0,10.96,4.86,11.05,10.88,0,.06,0,.12,0,.18v4.54c0,3.05,1.24,5.82,3.24,7.82,2,2,4.77,3.24,7.82,3.24,5.07,0,9.33,3.41,10.64,8.05.17.6.29,1.22.36,1.86.04.38.06.76.06,1.14v4.68c0,6.11,4.95,11.05,11.06,11.05h15.34c6.63,0,12.83,1.86,18.09,5.09.94.57,1.85,1.19,2.73,1.86,1.31.98,2.55,2.06,3.7,3.21,4.99,4.99,8.47,11.49,9.68,18.76.11.61.19,1.23.26,1.86.15,1.28.22,2.59.22,3.91,0,6.11,4.95,11.05,11.05,11.05h22.95c5.96,0,11.28,2.73,14.79,7.01.49.59.93,1.21,1.35,1.86,1.88,2.96,2.98,6.48,2.98,10.25Z"/>
            <path class="cls-30" d="M205.51,43.13h-108.53c-.2-.64-.44-1.26-.73-1.86h108.9c.17.6.29,1.22.36,1.86Z"/>
            <path class="cls-30" d="M252.8,66.96H65.75c.74-.66,1.52-1.28,2.34-1.86h181.98c.94.57,1.85,1.19,2.73,1.86Z"/>
            <path class="cls-30" d="M266.44,90.79H56.62c-.07-.61-.12-1.23-.15-1.86h209.71c.11.61.19,1.23.26,1.86Z"/>
            <path class="cls-30" d="M316.79,114.62H78.07c-1.92-.43-3.77-1.05-5.52-1.86h242.9c.49.59.93,1.21,1.35,1.86Z"/>
            <path class="cls-30" d="M319.77,136.59v1.86H108.84c.08-.61.14-1.23.16-1.86h210.77Z"/>
            <rect class="cls-35" x="102.03" y="27.2" width="137.98" height="132.88" rx="66.44" ry="66.44" transform="translate(-10.3 21.95) rotate(-7.13)"/>
            <g>
              <rect class="cls-28" x="301.44" y="182.05" width="23.34" height="5.55" rx="2.15" ry="2.15"/>
              <rect class="cls-28" x="43.9" y="182.05" width="255.28" height="5.55" rx="2.15" ry="2.15"/>
            </g>
            <path class="cls-30" d="M183.46,17.62v1.68h-117.61c.04-.63.13-1.25.25-1.86h117.36c0,.06,0,.12,0,.18Z"/>
            <path class="cls-30" d="M310.02,160.42c-1.28.39-2.63.6-4.04.6-1.85,0-3.59.45-5.12,1.26H65.56c.47-.67.99-1.29,1.57-1.86h242.89Z"/>
            <g>
              <rect class="cls-2" x="77.12" y="128.36" width="66.31" height="20.19" rx="7.81" ry="7.81" transform="translate(-66.19 124.65) rotate(-46.99)"/>
              <rect class="cls-2" x="77.12" y="128.36" width="66.31" height="20.19" rx="7.81" ry="7.81" transform="translate(-66.19 124.65) rotate(-46.99)"/>
              <path class="cls-3" d="M136.12,121.75c-.53-1.19-1.3-2.29-2.31-3.23l-.05-.05c-4.06-3.79-10.43-3.57-14.22.49l-31.51,33.77c-1.77,1.9-2.67,4.3-2.7,6.71-1.61-3.58-1.03-7.94,1.82-10.99l31.51-33.77c3.79-4.06,10.16-4.28,14.22-.49l.05.04c2.17,2.02,3.24,4.78,3.2,7.52Z"/>
              <path class="cls-2" d="M195.69,181.21c-1.95.67-3.95.71-5.81.22-3.17-.82-5.88-3.17-7.02-6.5l-3.91-11.41-2.11-6.15-10.54-30.32c-1.81-5.27,1-11.02,6.28-12.83,1.4-.48,2.84-.63,4.23-.5.54.05,1.06.14,1.58.28,3.17.82,5.88,3.17,7.02,6.5l8.86,25.41,7.7,22.46c1.81,5.27-1,11.02-6.28,12.82Z"/>
              <path class="cls-3" d="M196.44,180.92c-.24.11-.5.2-.75.29-1.95.67-3.95.71-5.81.22-3.17-.82-5.88-3.17-7.02-6.5l-11.29-32.94c-1.81-5.27,1-11.02,6.28-12.83,1.31-.45,2.65-.61,3.95-.52-4.78,2.07-7.24,7.51-5.52,12.53l11.29,32.94c1.36,3.96,4.94,6.54,8.87,6.8Z"/>
              <rect class="cls-7" x="126.4" y="129.82" width="48.75" height="52.23"/>
              <path class="cls-7" d="M128.29,108.86h44.97c6.78,0,12.29,5.51,12.29,12.29v8.59c0,9.44-7.67,17.11-17.11,17.11h-35.31c-9.44,0-17.11-7.67-17.11-17.11v-8.59c0-6.78,5.51-12.29,12.29-12.29Z"/>
              <rect class="cls-7" x="126.4" y="129.82" width="48.75" height="52.23"/>
              <path class="cls-7" d="M128.29,108.86h44.97c6.78,0,12.29,5.51,12.29,12.29v8.59c0,9.44-7.67,17.11-17.11,17.11h-35.31c-9.44,0-17.11-7.67-17.11-17.11v-8.59c0-6.78,5.51-12.29,12.29-12.29Z"/>
              <rect class="cls-5" x="182.34" y="161.61" width="57.76" height="20.19" rx="7.81" ry="7.81"/>
              <ellipse class="cls-5" cx="235.87" cy="170.4" rx="14.12" ry="11.07" transform="translate(-49.35 112.78) rotate(-24.43)"/>
              <path class="cls-33" d="M248.72,164.56c-.19-.41-.4-.8-.64-1.16,1.32,5.29-2.33,11.47-8.8,14.41-.61.28-1.23.52-1.85.72-2.76.91-5.54,1.07-8.02.57-.19.01-.38.02-.58.02h-3.72s-33.84.02-33.84.02c-3.62,0-6.8-1.91-8.59-4.78,1.16,4.29,5.09,7.45,9.75,7.45l37.56-.02c.19,0,.38,0,.58-.02,3.03.61,6.53.22,9.87-1.29,7.1-3.23,10.8-10.35,8.27-15.92Z"/>
              <path class="cls-32" d="M169.54,108.86h-7.8c8.77,0,15.88,7.11,15.88,15.87,0,3.66-.89,7.12-2.47,10.16-1.05,2.03-2.41,3.88-4.01,5.48-.54.54-1.1,1.04-1.69,1.52-1.4,1.14-2.23,2.83-2.23,4.63h0v35.52h7.93v-38.56c1.42-.89,2.74-1.94,3.92-3.12,3.97-3.97,6.43-9.43,6.48-15.46.07-8.83-7.19-16.05-16.01-16.05Z"/>
              <rect class="cls-5" x="230.18" y="154.46" width="5.98" height="13.8" rx="2.31" ry="2.31" transform="translate(144.89 -108.1) rotate(37.18)"/>
              <path class="cls-34" d="M139.76,174.46h6.69c3.24,0,5.87,2.63,5.87,5.87v1.72h-18.43v-1.72c0-3.24,2.63-5.87,5.87-5.87Z"/>
              <path class="cls-5" d="M135.82,169.86c.22,1.9-.11,3.88-1.04,5.72-1.27,2.5-3.44,4.24-5.92,5.03-.08.03-.16.05-.24.08-.24.07-.48.13-.73.18-.08.02-.16.03-.25.05h0c-.07.01-.15.03-.23.04h-.04c-.07.01-.14.03-.2.03h-.02c-.43.06-.86.09-1.29.1-.15,0-.3,0-.44,0-.23,0-.45-.02-.67-.04-.24-.03-.48-.06-.72-.1-.36-.06-.72-.15-1.08-.25-.59-.17-1.18-.4-1.75-.7l-.58-.3s0,0,0,0l-30.43-15.53c-3.13-1.6-5.08-4.61-5.45-7.87-.05-.47-.08-.96-.06-1.44,0-.24.02-.49.05-.73.02-.24.06-.48.1-.72.06-.36.15-.72.25-1.08.04-.12.07-.24.11-.36.08-.23.17-.47.26-.7.1-.23.21-.46.32-.69.06-.11.11-.21.17-.31.16-.29.33-.57.51-.83.01-.02.03-.04.04-.06.05-.07.1-.14.15-.21h0c1.65-2.24,4.11-3.64,6.75-4,.17-.02.35-.04.52-.06,1.82-.16,3.7.18,5.44,1.07l31.02,15.83c3.14,1.6,5.08,4.61,5.45,7.87Z"/>
              <ellipse class="cls-5" cx="128.79" cy="170.99" rx="11.07" ry="14.12" transform="translate(-55.28 280.28) rotate(-83.71)"/>
              <g>
                <path class="cls-11" d="M131.31,182.02c-1.2.12-2.45.12-3.73-.02-2.6-.29-4.98-1.11-6.96-2.31t0,0l-30.43-15.53c-3.13-1.6-5.08-4.61-5.45-7.87-.05-.47-.08-.96-.06-1.44,0-.24.02-.49.05-.73.02-.24.06-.48.1-.72.06-.36.15-.72.25-1.08.04-.12.07-.24.11-.36.08-.23.17-.47.26-.7.1-.23.21-.46.32-.69.06-.11.11-.21.17-.31.16-.29.33-.57.51-.83.01-.02.03-.04.04-.06.05-.07.1-.14.15-.21h0c1.65-2.24,4.11-3.64,6.75-4,.17-.02.35-.04.52-.06l-2.94,3.7c-.11.14-.21.28-.31.41h0c-.05.07-.1.14-.15.21-.01.02-.03.04-.04.06-2.89,4.32-2.03,10.2,2.11,13.5,1.25,1,2.67,1.65,4.14,1.97-.24.04-.49.08-.73.11h-.11s20.32,10.38,20.32,10.38l8.42,4.3.59.3c.57.29,1.16.52,1.75.7.23.07.46.13.69.17-.07.01-.15.03-.23.04h-.04c-.07.01-.14.03-.2.03,1.28.49,2.67.85,4.13,1.03Z"/>
                <path class="cls-22" d="M130.39,160.01s-.07,0-.1,0c.06,0,.11.01.16.02l-.06-.03Z"/>
              </g>
              <rect class="cls-5" x="126.57" y="154.74" width="5.98" height="13.8" rx="2.31" ry="2.31" transform="translate(243.63 -11.29) rotate(72.12)"/>
              <rect class="cls-5" x="138.23" y="161.07" width="5.98" height="18.31" rx="2.31" ry="2.31" transform="translate(359.41 134.02) rotate(120.26)"/>
              <rect class="cls-5" x="136.15" y="166.56" width="5.98" height="18.31" rx="2.31" ry="2.31" transform="translate(361.03 144.09) rotate(120.26)"/>
              <rect class="cls-5" x="128.36" y="168.27" width="5.98" height="18.31" rx="2.31" ry="2.31" transform="translate(350.79 153.37) rotate(120.26)"/>
              <ellipse class="cls-11" cx="127.67" cy="169.71" rx="5.54" ry="7.06" transform="translate(-55 278.02) rotate(-83.71)"/>
              <g>
                <path class="cls-26" d="M153.74,87.1l-7.08-24.17c-.6-2.06.86-4.2,3.01-4.27,7.29-.24,14.09,4.44,16.24,11.76s-1.01,14.81-7.18,18.57c-1.89,1.15-4.36.24-4.98-1.89Z"/>
                <polygon class="cls-5" points="158.94 91.35 158.89 99.71 158.84 109.71 137.07 109.87 137.15 95.15 137.17 91.5 158.94 91.35"/>
                <path class="cls-7" d="M161.09,103.97c.94-.02,1.68.78,1.6,1.71l-.13,1.46-.21,2.44c-.07.8-.73,1.42-1.53,1.43l-25.49.57c-.94.02-1.68-.78-1.6-1.71l.34-3.9h0c.07-.8.73-1.42,1.53-1.43l25.5-.57Z"/>
                <path class="cls-15" d="M158.94,91.47l.02,10.52c-1.34.72-2.87,1.13-4.5,1.13h-3.99c-5.53.03-10.41-2.77-13.3-7.03v-4.59s21.77-.03,21.77-.03Z"/>
                <path class="cls-5" d="M143.54,63.93h6.7c7.9,0,14.31,6.41,14.31,14.31v14.54c0,4.3-3.49,7.79-7.79,7.79h-14.65c-3.96,0-7.17-3.21-7.17-7.17v-20.86c0-4.75,3.86-8.61,8.61-8.61Z" transform="translate(299.7 164.07) rotate(179.84)"/>
                <path class="cls-11" d="M164.51,71.91l.05,19c.02,5.32-4.28,9.64-9.6,9.65h-3.98c-2.08.02-4.08-.38-5.9-1.09,1.25.31,2.57.48,3.92.47h3.98c5.32-.03,9.61-4.35,9.6-9.66l-.05-19c0-3.19-1.88-5.94-4.59-7.22,3.73.68,6.56,3.93,6.57,7.86Z"/>
                <g>
                  <path class="cls-10" d="M158.34,87.81c.02.73-.26,1.41-.72,1.9-.06.06-.12.12-.19.18-.45.39-1.03.64-1.67.65h-.11c-.59.02-1.13-.15-1.58-.46-.62-.42-1.05-1.11-1.14-1.9,0-.07-.01-.15-.02-.22,0-.14.05-.27.14-.37s.22-.16.36-.16l4.39-.12c.28,0,.52.22.53.5Z"/>
                  <path class="cls-1" d="M155.7,90.14c0,.14,0,.28-.03.41h-.01c-1.39.04-2.56-1-2.71-2.36.18-.06.38-.09.59-.1,1.17-.03,2.14.89,2.17,2.05Z"/>
                  <path class="cls-27" d="M157.71,87.32c0,.52-.8.96-1.78.99-.99.03-1.8-.37-1.84-.89l3.62-.1Z"/>
                </g>
                <circle class="cls-16" cx="150.94" cy="81.12" r="1.14"/>
                <circle class="cls-16" cx="161.17" cy="81.02" r="1.14"/>
                <circle class="cls-26" cx="138.21" cy="65.77" r="6.87"/>
                <circle class="cls-26" cx="148" cy="61.77" r="10.34"/>
                <circle class="cls-26" cx="138.21" cy="65.77" r="6.87"/>
                <circle class="cls-26" cx="148" cy="61.77" r="10.34"/>
                <path class="cls-18" d="M156.58,55.99c-1.77-1.42-4.01-2.26-6.45-2.26-4.05,0-7.55,2.32-9.25,5.71-.28.56-.51,1.15-.69,1.77-.89.02-1.74.2-2.52.53-2.47,1.04-4.2,3.49-4.2,6.33,0,1.24.32,2.39.9,3.39-1.82-1.24-3.02-3.32-3.02-5.69,0-3.75,3-6.79,6.73-6.87,1.25-4.32,5.22-7.47,9.94-7.47,3.57,0,6.72,1.81,8.58,4.56Z"/>
                <circle class="cls-26" cx="160.52" cy="60.51" r="13.56"/>
                <circle class="cls-26" cx="160.52" cy="60.51" r="13.56"/>
                <path class="cls-8" d="M174.08,60.51c0,7.49-6.07,13.56-13.56,13.56-.51,0-1.02-.03-1.52-.09,6.77-.76,12.04-6.5,12.04-13.47s-5.26-12.72-12.04-13.47c.5-.06,1.01-.09,1.52-.09,7.49,0,13.56,6.07,13.56,13.56Z"/>
                <path class="cls-26" d="M132.61,82.67l-.46-15.31c-.04-1.3,1.15-2.34,2.42-2.05,4.33.97,7.62,4.77,7.76,9.41.14,4.6-2.87,8.56-7.07,9.83-1.29.39-2.6-.53-2.64-1.87Z"/>
                <path class="cls-8" d="M132.11,82.88l1.19-11.06c.1-.94,1.06-1.57,1.95-1.23,3.02,1.13,5,4.19,4.64,7.54-.36,3.32-2.91,5.88-6.07,6.37-.97.15-1.82-.64-1.71-1.61Z"/>
                <circle class="cls-5" cx="135.94" cy="83.01" r="4.99"/>
                <path class="cls-17" d="M134.26,83.13c.03.92.61,1.7,1.42,2.02.42.16.86-.18.85-.63l-.08-2.9c-.01-.47-.51-.76-.94-.56-.76.37-1.27,1.16-1.25,2.06Z"/>
              </g>
            </g>
            <g>
              <path class="cls-18" d="M249.33,78.71h7.36c13.9,0,25.19,11.29,25.19,25.19v43.06h-32.55v-68.25h0Z"/>
              <path class="cls-18" d="M249.33,78.71h7.36c13.9,0,25.19,11.29,25.19,25.19v43.06h-32.55v-68.25h0Z"/>
              <path class="cls-26" d="M281.88,88v54.99h-13.37v-54.99c0-7.32-5.94-13.26-13.25-13.26h13.37c7.32,0,13.26,5.93,13.26,13.26Z"/>
              <path class="cls-8" d="M250.32,141.98c.05.07.1.15.15.22-.77.02-1.52,0-2.27-.04.7-.04,1.41-.1,2.12-.18Z"/>
              <path class="cls-24" d="M255.45,130.54c0,2.48-1.05,4.95-3.09,6.67l-9.77,8.27-7.16,6.06-10.8,9.15c-3.68,3.12-9.2,2.66-12.31-1.02-3.12-3.68-2.66-9.19,1.02-12.31l27.74-23.48c3.68-3.12,9.19-2.66,12.31,1.02,1.39,1.64,2.07,3.65,2.07,5.64Z"/>
              <path class="cls-12" d="M242.58,145.48l-7.16,6.06c-1.55-1.75-2.5-4.06-2.5-6.58v-.75c0-4.39,1.37-8.45,3.7-11.79.7-1,1.48-1.93,2.34-2.79.38-.38.78-.75,1.19-1.1-1.06,4.78-.68,9.94,1.38,14.79.32.74.67,1.46,1.05,2.16Z"/>
              <path class="cls-12" d="M255.45,130.54c0,.34-.02.68-.06,1.02-.2-1.64-.86-3.24-2.01-4.59-3.12-3.68-8.63-4.14-12.31-1.02l-27.74,23.48c-1.76,1.49-2.78,3.52-3.03,5.65-.34-2.82.7-5.75,3.03-7.72l27.74-23.48c3.68-3.12,9.19-2.66,12.31,1.02,1.39,1.64,2.07,3.65,2.07,5.64Z"/>
              <rect class="cls-21" x="240.87" y="145.54" width="27.26" height="36.51"/>
              <path class="cls-14" d="M268.13,145.54v7.37c-3.85,2.39-8.29,4.39-13.15,5.82-4.82,1.42-9.6,2.14-14.11,2.23v-15.43s27.26,0,27.26,0Z"/>
              <path class="cls-12" d="M253.38,124.9c-.35-.42-.74-.79-1.15-1.12,3.01,3.68,2.53,9.11-1.11,12.19l-27.74,23.48c-3.26,2.76-7.96,2.71-11.16.1.03.04.06.08.09.12h0c3.12,3.68,8.63,4.14,12.31,1.02l27.74-23.48c3.68-3.12,4.14-8.63,1.02-12.31Z"/>
              <rect class="cls-24" x="208.87" y="112.86" width="17.47" height="50.06" rx="6.76" ry="6.76" transform="translate(445.49 258.01) rotate(175.43)"/>
              <rect class="cls-13" x="211.86" y="130.88" width="5.19" height="14.63" rx="2.01" ry="2.01" transform="translate(439.24 258.88) rotate(175.43)"/>
              <g>
                <rect class="cls-24" x="263.06" y="119.46" width="17.47" height="46.59" rx="6.76" ry="6.76" transform="translate(574.94 94.22) rotate(143.19)"/>
                <rect class="cls-24" x="267.54" y="144.91" width="17.47" height="46.59" rx="6.76" ry="6.76" transform="translate(492.02 409.19) rotate(-163.17)"/>
                <ellipse class="cls-24" cx="273.01" cy="186.09" rx="9.24" ry="11.72" transform="translate(-57.33 179.72) rotate(-33.18)"/>
                <path class="cls-12" d="M268.62,191.14c-.29-.45-.55-.9-.79-1.36-1.64-3.2-1.94-6.67-.98-9.45.05-.24.11-.48.19-.73l1.26-4.16,4.91-16.23.96-3.18-2.37-3.18-12.37-16.53c-2.62-3.5-2.22-8.33.76-11.35.66-.67,1.14-1.48,1.34-2.4l.02-.09c-1.3.23-2.57.76-3.7,1.61-3.86,2.89-4.65,8.37-1.76,12.23l14.75,19.71-7.13,23.57c-.07.25-.14.49-.18.73-1.1,3.17-.55,7.25,1.77,10.79,2.87,4.39,7.58,6.62,11.53,5.82-3.04-.57-6.1-2.62-8.19-5.82Z"/>
                <rect class="cls-2" x="262.71" y="173.41" width="23.19" height="2.62" rx="1.01" ry="1.01" transform="translate(486.28 421.37) rotate(-163.17)"/>
                <rect class="cls-25" x="264.96" y="170.27" width="20.36" height="2.62" rx="1.01" ry="1.01" transform="translate(488.83 415.47) rotate(-163.17)"/>
              </g>
              <path class="cls-12" d="M219.67,162.83s-.05,0-.07,0c-.24.02-.47.03-.71.03-4.51,0-8.33-3.47-8.7-8.04l-2.59-32.49c-.38-4.81,3.2-9.02,8.01-9.4.5-.04.99-.04,1.47,0-4.78.42-8.33,4.61-7.94,9.4l2.59,32.49c.35,4.31,3.76,7.64,7.93,8Z"/>
              <path class="cls-21" d="M275.5,142.08v.75c0,5.49-4.45,9.95-9.94,9.95h-21.34c-5.49,0-9.95-4.46-9.95-9.95v-.75c0-4.18,1.24-8.07,3.38-11.31,3.69-5.6,10.03-9.3,17.23-9.3,5.69,0,10.85,2.31,14.58,6.04.86.86,1.64,1.79,2.34,2.79,2.33,3.34,3.7,7.4,3.7,11.79Z"/>
              <path class="cls-23" d="M234.16,142.08v.75c0,5.49,4.45,9.95,9.94,9.95h8.95c-4.44-2.54-8.12-6.51-10.29-11.58-2.07-4.85-2.44-10-1.38-14.79-.41.35-.81.71-1.19,1.1-.86.86-1.64,1.79-2.34,2.79-2.33,3.34-3.7,7.4-3.7,11.79Z"/>
              <path class="cls-19" d="M255.66,136.23l.29,1.49c-.48.03-.97.05-1.46.05-.3,0-.59,0-.89-.02"/>
              <ellipse class="cls-24" cx="218.14" cy="119.86" rx="9.24" ry="11.72" transform="translate(-16.98 201.55) rotate(-47.95)"/>
              <path class="cls-12" d="M227.99,118.18c-.7-1.15-1.6-2.25-2.69-3.23-4.81-4.33-11.47-4.78-14.89-.99-2.22,2.46-2.52,6.1-1.14,9.54-2.4-3.94-2.47-8.55.17-11.48,3.42-3.79,10.09-3.35,14.89.99,1.69,1.52,2.92,3.32,3.66,5.18Z"/>
              <circle class="cls-2" cx="266.21" cy="83.1" r="8.32"/>
              <circle class="cls-26" cx="265.25" cy="86.35" r="7.64"/>
              <path class="cls-26" d="M250.83,78.03h9.28c5.18,0,9.39,4.21,9.39,9.39v18.4c0,6.79-5.52,12.31-12.31,12.31h-7.19c-6.79,0-12.31-5.52-12.31-12.31v-14.63c0-7.26,5.89-13.15,13.15-13.15Z" transform="translate(-4.58 12.77) rotate(-2.86)"/>
              <path class="cls-24" d="M260.34,113.42l.09,2.89.2,6.23c.07,2.08-1.15,3.98-3.07,4.79-3.25,1.37-6.86-.94-6.97-4.47l-.02-.65-.27-8.47c-.07-2.08,1.15-3.98,3.07-4.79.32-.13.64-.23.96-.3,2.96-.61,5.92,1.58,6.02,4.76Z"/>
              <path class="cls-12" d="M260.34,113.42l.09,2.89c-2.42,2.96-5.85,5.12-9.86,5.9l-.27-8.47c-.07-2.08,1.15-3.98,3.07-4.79.32-.13.64-.23.96-.3,2.96-.61,5.92,1.58,6.02,4.76Z"/>
              <path class="cls-24" d="M267.83,90.51l-.02,10.98c-.02,9.33-7.59,16.88-16.92,16.86-7.19-.01-13.02-5.86-13.01-13.05v-9.21c.01-.06.02-.11.02-.17,0-.25.01-.5.03-.75.49-9.15,8.02-16.43,17.26-16.54.08,0,.16,0,.24,0h.55c.77,0,1.52.08,2.24.22,5.49,1.06,9.62,5.89,9.61,11.68Z"/>
              <path class="cls-12" d="M249.22,118.23c-4.97-1.84-8.5-6.63-8.49-12.24v-9.21c.02-.06.02-.11.02-.17,0-.25,0-.5.03-.75.49-9.15,8.02-16.43,17.26-16.54.08,0,.16,0,.24,0h.55c.47,0,.94.03,1.4.09-.65-.25-1.32-.45-2.01-.58-.73-.14-1.48-.21-2.24-.22h-.55c-.08,0-.16,0-.24,0-9.24.11-16.77,7.39-17.25,16.54-.02.25-.03.5-.03.75,0,.06,0,.11,0,.17v9.21c-.02,6.63,4.92,12.11,11.32,12.94Z"/>
              <path class="cls-9" d="M270.6,98.18l-3.58-6.6c-.35-.65-.81-1.22-1.33-1.69l.37-.1c.13-.05.38-1.88.37-2.01,0-.03,0-.06-.02-.09-1.47-4.1-4.51-7.2-8.19-8.85-.73-.14-1.48-.22-2.24-.22h-.55c-.08,0-.16,0-.24,0-9.24.11-16.77,7.39-17.26,16.54,3.01.87,6.3.83,9.47-.31l5.06-1.37c3.51-.95,7.21.63,8.94,3.83h0c1.69,3.11,5.58,4.27,8.69,2.58h0c.61-.33.84-1.09.51-1.7Z"/>
              <path class="cls-26" d="M260.72,84.77h3.88c3.92,0,7.11,3.19,7.11,7.11v7.68c0,.77-.62,1.39-1.39,1.39h-2.48c-3.92,0-7.11-3.19-7.11-7.11v-9.07h0Z" transform="translate(-4.3 13.39) rotate(-2.86)"/>
              <circle class="cls-24" cx="267.18" cy="98.3" r="5.29"/>
              <path class="cls-12" d="M267.68,103.57c-1.04,8.34-8.17,14.79-16.78,14.77-1.91,0-3.72-.42-5.36-1.16,1.11.32,2.29.49,3.51.49,8.45.01,15.45-6.18,16.71-14.27.03-.17.05-.33.07-.5.69-.07,1.36-.27,1.96-.58,1.44-.76,2.51-2.17,2.77-3.9.33-2.19-.74-4.27-2.53-5.34,2.85.47,4.81,3.14,4.38,6.01-.36,2.46-2.37,4.26-4.73,4.48Z"/>
              <path class="cls-31" d="M268.04,93.08h-.07s-.09-.02-.14-.03v-.09c.07.04.14.07.21.11Z"/>
              <path class="cls-12" d="M268.96,97.94c-.21-.91-.94-1.57-1.81-1.72-.45-.08-.82.35-.72.79l.65,2.86c.11.47.66.66,1.04.37.68-.52,1.04-1.41.83-2.3Z"/>
              <circle class="cls-6" cx="242.58" cy="98.77" r="1.26"/>
              <circle class="cls-6" cx="252.55" cy="98.77" r="1.26"/>
              <path class="cls-26" d="M248.35,75.01h19.21v4.38c0,8.27-6.71,14.98-14.98,14.98h-19.21v-4.38c0-8.27,6.71-14.98,14.98-14.98Z" transform="translate(503.67 160.8) rotate(178.05)"/>
              <path class="cls-8" d="M237.42,82.88s-.02.05-.03.08c-1.59,3.81,1.36,7.98,5.48,7.84l7.87-.27c.91-.03,1.79-.12,2.66-.27,5.06-.87,9.43-3.71,12.33-7.67-2.5,5.96-7.92,10.44-14.53,11.58-.87.15-1.75.25-2.66.27l-14.82.51c-.15-4.5,1.24-8.69,3.7-12.06Z"/>
              <rect class="cls-8" x="274.7" y="92.83" width="3.15" height="40" rx="1.22" ry="1.22"/>
              <g>
                <path class="cls-10" d="M244.88,103.39c-.02.73.26,1.41.72,1.9.06.06.12.12.19.18.45.39,1.03.64,1.67.65h.11c.59.02,1.13-.15,1.58-.46.62-.42,1.05-1.11,1.14-1.9,0-.07.01-.15.02-.22,0-.14-.05-.27-.14-.37s-.22-.16-.36-.16l-4.39-.12c-.28,0-.52.22-.53.5Z"/>
                <path class="cls-1" d="M247.53,105.72c0,.14,0,.28.03.41h.01c1.39.04,2.56-1,2.71-2.36-.18-.06-.38-.09-.59-.1-1.17-.03-2.14.89-2.17,2.05Z"/>
                <path class="cls-27" d="M245.51,102.9c0,.52.8.96,1.78.99.99.03,1.8-.37,1.84-.89l-3.62-.1Z"/>
              </g>
              <polygon class="cls-6" points="253.65 99.38 254.66 97.51 252.43 97.52 253.65 99.38"/>
              <polygon class="cls-6" points="241.43 99.38 242.44 97.51 240.21 97.52 241.43 99.38"/>
            </g>
            <g>
              <path class="cls-20" d="M198.81,176.16h1.26c1.19,0,2.16.97,2.16,2.16v.74h-5.59v-.74c0-1.19.97-2.16,2.16-2.16Z"/>
              <path class="cls-20" d="M193.21,176.16h1.26c1.19,0,2.16.97,2.16,2.16v.74h-5.59v-.74c0-1.19.97-2.16,2.16-2.16Z"/>
              <path class="cls-20" d="M187.62,176.16h1.26c1.19,0,2.16.97,2.16,2.16v.74h-5.59v-.74c0-1.19.97-2.16,2.16-2.16Z"/>
              <path class="cls-20" d="M182.03,176.16h1.26c1.19,0,2.16.97,2.16,2.16v.74h-5.59v-.74c0-1.19.97-2.16,2.16-2.16Z"/>
              <path class="cls-20" d="M176.43,176.16h1.26c1.19,0,2.16.97,2.16,2.16v.74h-5.59v-.74c0-1.19.97-2.16,2.16-2.16Z"/>
              <path class="cls-20" d="M170.84,176.16h1.26c1.19,0,2.16.97,2.16,2.16v.74h-5.59v-.74c0-1.19.97-2.16,2.16-2.16Z"/>
              <path class="cls-20" d="M165.25,176.16h1.26c1.19,0,2.16.97,2.16,2.16v.74h-5.59v-.74c0-1.19.97-2.16,2.16-2.16Z"/>
              <rect class="cls-34" x="155.65" y="177.49" width="63.84" height="4.56" rx="1.76" ry="1.76"/>
              <path class="cls-29" d="M201.9,182.05h53.26c2.23,0,4.18-1.52,4.73-3.68l10.38-41.25c.77-3.08-1.55-6.06-4.73-6.06h-47.01c-2.23,0-4.18,1.52-4.73,3.68l-11.91,47.31Z"/>
              <path class="cls-34" d="M270.27,137.12l-10.38,41.25c-.55,2.17-2.49,3.68-4.72,3.68h-53.27l1.15-4.56h42.08c2.23,0,4.18-1.52,4.73-3.68l10.38-41.25c.13-.51.17-1.01.14-1.5h5.17c3.17,0,5.5,2.99,4.73,6.06Z"/>
              <g>
                <circle class="cls-20" cx="239.42" cy="157.92" r="2.67"/>
                <path class="cls-20" d="M242.99,161.91c-.93,1.45-2.55,2.41-4.4,2.41-2.88,0-5.22-2.34-5.22-5.22,0-1.85.96-3.47,2.41-4.4-.52.81-.82,1.78-.82,2.81,0,2.88,2.34,5.22,5.22,5.22,1.03,0,2-.3,2.81-.82Z"/>
              </g>
            </g>
          </g>
        </g>
      </g>
    </g>
  </g>
</svg>