<?xml version="1.0" encoding="utf-8"?>
<!-- Generator: Adobe Illustrator 28.2.0, SVG Export Plug-In . SVG Version: 6.00 Build 0)  -->
<svg version="1.1" id="Capa_2" xmlns="http://www.w3.org/2000/svg" xmlns:xlink="http://www.w3.org/1999/xlink" x="0px" y="0px"
	 viewBox="0 0 358.9 357.1" style="enable-background:new 0 0 358.9 357.1;" xml:space="preserve">
<style type="text/css">
	.st0{fill:#44CCFF;}
	.st1{fill:#B2DD45;}
	.st2{fill:#FFFFFF;stroke:#000000;stroke-miterlimit:10;}
	.st3{fill:none;stroke:#000000;stroke-miterlimit:10;}
	.st4{clip-path:url(#SVGID_00000104680002012674591600000015101594224561657778_);}
	.st5{fill:none;stroke:#EFEFFC;stroke-miterlimit:10;}
	.st6{clip-path:url(#SVGID_00000181803454980626924800000010219148375644439183_);}
	.st7{fill:#231F20;}
	.st8{fill:#FFFFFF;}
	.st9{fill:#3695ED;}
	.st10{fill:#6DB0F9;}
	.st11{fill:#FDA685;}
	.st12{fill:#FF8E71;}
	.st13{fill:#2F344E;}
	.st14{fill:#DB635E;}
	.st15{fill:#1D2033;}
	.st16{fill:#464C70;}
	.st17{fill:#FFBDA5;}
	.st18{fill:#DBDBDB;}
	.st19{fill:#FFF2A3;stroke:#231F20;stroke-miterlimit:10;}
	.st20{fill:#FCEF56;}
</style>
<g id="Layer_1">
	<g>
		<path class="st0" d="M51.8,47.2h292.1v256.1c0,16-13,28.9-28.9,28.9H22.9V76.1C22.9,60.1,35.8,47.2,51.8,47.2z"/>
		<g>
			<rect x="33.6" y="83.7" transform="matrix(0.97 -0.2433 0.2433 0.97 -52.9854 15.399)" class="st1" width="4.5" height="277"/>
			<rect x="41.4" y="81.8" transform="matrix(0.97 -0.2433 0.2433 0.97 -52.2859 17.242)" class="st1" width="4.5" height="277"/>
			<rect x="49.1" y="79.8" transform="matrix(0.97 -0.2433 0.2433 0.97 -51.5722 19.0532)" class="st1" width="4.5" height="277"/>
			<rect x="56.9" y="77.9" transform="matrix(0.97 -0.2433 0.2433 0.97 -50.8723 20.8955)" class="st1" width="4.5" height="277"/>
			<rect x="64.7" y="75.9" transform="matrix(0.97 -0.2433 0.2433 0.97 -50.1499 22.7296)" class="st1" width="4.5" height="277"/>
			<rect x="72.4" y="74" transform="matrix(0.97 -0.2433 0.2433 0.97 -49.459 24.5503)" class="st1" width="4.5" height="277"/>
			<rect x="80.2" y="72" transform="matrix(0.97 -0.2433 0.2433 0.97 -48.7362 26.3837)" class="st1" width="4.5" height="277"/>
			<rect x="87.9" y="70.1" transform="matrix(0.97 -0.2433 0.2433 0.97 -48.0455 28.2038)" class="st1" width="4.5" height="277"/>
			<rect x="95.7" y="68.1" transform="matrix(0.97 -0.2433 0.2433 0.97 -47.3233 30.0374)" class="st1" width="4.5" height="277"/>
			<rect x="103.5" y="66.2" transform="matrix(0.97 -0.2433 0.2433 0.97 -46.6231 31.8802)" class="st1" width="4.5" height="277"/>
			<rect x="111.2" y="64.3" transform="matrix(0.97 -0.2433 0.2433 0.97 -45.9318 33.7)" class="st1" width="4.5" height="277"/>
			<rect x="119" y="62.3" transform="matrix(0.97 -0.2433 0.2433 0.97 -45.2097 35.5336)" class="st1" width="4.5" height="277"/>
			<rect x="126.7" y="60.4" transform="matrix(0.97 -0.2433 0.2433 0.97 -44.5183 37.3535)" class="st1" width="4.5" height="277"/>
			<rect x="134.5" y="58.4" transform="matrix(0.97 -0.2433 0.2433 0.97 -43.7959 39.1876)" class="st1" width="4.5" height="277"/>
			<rect x="142.3" y="56.5" transform="matrix(0.97 -0.2433 0.2433 0.97 -43.0966 41.03)" class="st1" width="4.5" height="277"/>
			<rect x="150" y="54.5" transform="matrix(0.97 -0.2433 0.2433 0.97 -42.3824 42.8411)" class="st1" width="4.5" height="277"/>
			<rect x="157.8" y="52.6" transform="matrix(0.97 -0.2433 0.2433 0.97 -41.6828 44.6841)" class="st1" width="4.5" height="277"/>
			<rect x="165.5" y="50.6" transform="matrix(0.97 -0.2433 0.2433 0.97 -40.9695 46.4948)" class="st1" width="4.5" height="277"/>
			<rect x="173.3" y="48.7" transform="matrix(0.97 -0.2433 0.2433 0.97 -40.2693 48.3376)" class="st1" width="4.5" height="277"/>
			<rect x="181.1" y="46.7" transform="matrix(0.97 -0.2433 0.2433 0.97 -39.5468 50.1717)" class="st1" width="4.5" height="277"/>
			<rect x="188.8" y="44.8" transform="matrix(0.97 -0.2433 0.2433 0.97 -38.8563 51.9912)" class="st1" width="4.5" height="277"/>
			<rect x="196.6" y="42.9" transform="matrix(0.97 -0.2433 0.2433 0.97 -38.1562 53.834)" class="st1" width="4.5" height="277"/>
			<rect x="204.3" y="40.9" transform="matrix(0.97 -0.2433 0.2433 0.97 -37.4427 55.6453)" class="st1" width="4.5" height="277"/>
			<rect x="212.1" y="39" transform="matrix(0.97 -0.2433 0.2433 0.97 -36.7431 57.4883)" class="st1" width="4.5" height="277"/>
			<rect x="219.9" y="37" transform="matrix(0.97 -0.2433 0.2433 0.97 -36.0207 59.3224)" class="st1" width="4.5" height="277"/>
			<rect x="227.6" y="35.1" transform="matrix(0.97 -0.2433 0.2433 0.97 -35.3296 61.1418)" class="st1" width="4.5" height="277"/>
			<rect x="235.4" y="33.1" transform="matrix(0.97 -0.2433 0.2433 0.97 -34.6071 62.9759)" class="st1" width="4.5" height="277"/>
			<rect x="243.1" y="31.2" transform="matrix(0.97 -0.2433 0.2433 0.97 -33.9164 64.796)" class="st1" width="4.5" height="277"/>
			<rect x="250.9" y="29.2" transform="matrix(0.97 -0.2433 0.2433 0.97 -33.1936 66.6294)" class="st1" width="4.5" height="277"/>
			<rect x="258.7" y="27.3" transform="matrix(0.97 -0.2433 0.2433 0.97 -32.4941 68.4724)" class="st1" width="4.5" height="277"/>
			<rect x="266.4" y="25.3" transform="matrix(0.97 -0.2433 0.2433 0.97 -31.7804 70.2836)" class="st1" width="4.5" height="277"/>
			<rect x="274.2" y="23.4" transform="matrix(0.97 -0.2433 0.2433 0.97 -31.0806 72.1259)" class="st1" width="4.5" height="277"/>
			<rect x="281.9" y="21.4" transform="matrix(0.97 -0.2433 0.2433 0.97 -30.3669 73.9371)" class="st1" width="4.5" height="277"/>
			<rect x="289.7" y="19.5" transform="matrix(0.97 -0.2433 0.2433 0.97 -29.6676 75.7796)" class="st1" width="4.5" height="277"/>
			<rect x="297.5" y="17.5" transform="matrix(0.97 -0.2433 0.2433 0.97 -28.9446 77.6135)" class="st1" width="4.5" height="277"/>
			<rect x="305.2" y="15.6" transform="matrix(0.97 -0.2433 0.2433 0.97 -28.2538 79.4336)" class="st1" width="4.5" height="277"/>
			<rect x="313" y="13.7" transform="matrix(0.97 -0.2433 0.2433 0.97 -27.554 81.2757)" class="st1" width="4.5" height="277"/>
			<rect x="320.7" y="11.7" transform="matrix(0.97 -0.2433 0.2433 0.97 -26.8398 83.0868)" class="st1" width="4.5" height="277"/>
		</g>
		<path class="st2" d="M12.6,36.8h321v256.1c0,16-13,28.9-28.9,28.9H12.6V36.8L12.6,36.8z"/>
		<path class="st3" d="M304,19l-19.1,41.3c-2.5,5.4-0.1,11.9,5.3,14.4l0,0c5.4,2.5,11.9,0.2,14.4-5.3l19.1-41.3"/>
		<path class="st3" d="M323.6,28.1l1.4-3c3-6.4,0.2-13.9-6.2-16.9l0,0c-6.4-2.9-13.9-0.2-16.9,6.2l-26,56.2
			c-3.3,7.2-0.2,15.8,7,19.1l0,0c7.2,3.3,15.8,0.2,19.1-7l24-52"/>
		<g>
			<g>
				<defs>
					<polygon id="SVGID_1_" points="292.1,192.1 51.4,192.1 35.9,0 292.1,0 					"/>
				</defs>
				<clipPath id="SVGID_00000181806836392795608230000002538770548635198340_">
					<use xlink:href="#SVGID_1_"  style="overflow:visible;"/>
				</clipPath>
				<g style="clip-path:url(#SVGID_00000181806836392795608230000002538770548635198340_);">
					<g>
						<g>
							<path class="st5" d="M369.5,113.2L369.5,113.2c0-14.3-11.6-26-26-26h-17.6c-14.4,0-26-11.6-26-26l0,0c0-14.4-11.6-26-26-26
								H55.8c-14.4,0-26,11.6-26,26l0,0c0,14.4,11.6,26,26,26h15c14.3,0,26,11.6,26,26l0,0c0,14.3-11.6,26-26,26H26.2
								c-14.4,0-26,11.6-26,26l0,0c0,14.4,11.6,26,26,26h65.2c14.3,0,26,11.6,26,26l0,0c0,14.4-11.6,26-26,26H85
								c-14.3,0-26,11.6-26,26l0,0c0,14.4,11.6,26,26,26h152c14.4,0,26-11.6,26-26l0,0c0-14.4,11.6-26,26-26h9.3
								c14.4,0,26-11.6,26-26l0,0c0-14.4-11.6-26-26-26h-31.8c-14.4,0-26-11.6-26-26l0,0c0-14.4,11.6-26,26-26h77.1
								C357.9,139.2,369.5,127.6,369.5,113.2L369.5,113.2z"/>
							<g>
								<g>
									<g>
										<defs>
											<path id="SVGID_00000183969558190028289570000011494769044107663265_" d="M369.5,113.2L369.5,113.2c0-14.3-11.6-26-26-26
												h-17.6c-14.4,0-26-11.6-26-26l0,0c0-14.4-11.6-26-26-26H55.8c-14.4,0-26,11.6-26,26l0,0c0,14.4,11.6,26,26,26h15
												c14.3,0,26,11.6,26,26l0,0c0,14.3-11.6,26-26,26H26.2c-14.4,0-26,11.6-26,26l0,0c0,14.4,11.6,26,26,26h65.2
												c14.3,0,26,11.6,26,26l0,0c0,14.4-11.6,26-26,26H85c-14.3,0-26,11.6-26,26l0,0c0,14.4,11.6,26,26,26h152
												c14.4,0,26-11.6,26-26l0,0c0-14.4,11.6-26,26-26h9.3c14.4,0,26-11.6,26-26l0,0c0-14.4-11.6-26-26-26h-31.8
												c-14.4,0-26-11.6-26-26l0,0c0-14.4,11.6-26,26-26h77.1C357.9,139.2,369.5,127.6,369.5,113.2L369.5,113.2z"/>
										</defs>
										<clipPath id="SVGID_00000082354303232660874930000014884475063004271528_">
											<use xlink:href="#SVGID_00000183969558190028289570000011494769044107663265_"  style="overflow:visible;"/>
										</clipPath>
										<g style="clip-path:url(#SVGID_00000082354303232660874930000014884475063004271528_);">
											<path class="st5" d="M293.4,262.8h-32.5c-2.9,0-5.2-2.3-5.2-5.2V66.2c0-2.9,2.3-5.2,5.2-5.2h32.5c2.9,0,5.2,2.3,5.2,5.2
												v191.4C298.6,260.5,296.3,262.8,293.4,262.8L293.4,262.8z M203.7,66.2v191.4c0,2.9,2.3,5.2,5.2,5.2h32.5
												c2.9,0,5.2-2.3,5.2-5.2V66.2c0-2.9-2.3-5.2-5.2-5.2h-32.5C206,60.9,203.7,63.3,203.7,66.2z M151.8,66.2v191.4
												c0,2.9,2.3,5.2,5.2,5.2h32.5c2.9,0,5.2-2.3,5.2-5.2V66.2c0-2.9-2.3-5.2-5.2-5.2H157C154.1,60.9,151.8,63.3,151.8,66.2z
												 M99.9,66.2v191.4c0,2.9,2.3,5.2,5.2,5.2h32.5c2.9,0,5.2-2.3,5.2-5.2V66.2c0-2.9-2.3-5.2-5.2-5.2h-32.5
												C102.2,60.9,99.9,63.3,99.9,66.2z M47,66.2v191.4c0,2.9,2.3,5.2,5.2,5.2h33.5c2.9,0,5.2-2.3,5.2-5.2V66.2
												c0-2.9-2.3-5.2-5.2-5.2H52.2C49.3,60.9,47,63.3,47,66.2z"/>
											<path class="st5" d="M293.4,56.2h-32.5c-2.9,0-5.2-2.3-5.2-5.2v-4.1c0-2.9,2.3-5.2,5.2-5.2h32.5c2.9,0,5.2,2.3,5.2,5.2
												V51C298.6,53.8,296.3,56.2,293.4,56.2z M203.7,46.9V51c0,2.9,2.3,5.2,5.2,5.2h32.5c2.9,0,5.2-2.3,5.2-5.2v-4.1
												c0-2.9-2.3-5.2-5.2-5.2h-32.5C206,41.6,203.7,44,203.7,46.9z M151.8,46.9V51c0,2.9,2.3,5.2,5.2,5.2h32.5
												c2.9,0,5.2-2.3,5.2-5.2v-4.1c0-2.9-2.3-5.2-5.2-5.2H157C154.1,41.6,151.8,44,151.8,46.9z M99.9,46.9V51
												c0,2.9,2.3,5.2,5.2,5.2h32.5c2.9,0,5.2-2.3,5.2-5.2v-4.1c0-2.9-2.3-5.2-5.2-5.2h-32.5C102.2,41.6,99.9,44,99.9,46.9z
												 M47,46.9V51c0,2.9,2.3,5.2,5.2,5.2h33.5c2.9,0,5.2-2.3,5.2-5.2v-4.1c0-2.9-2.3-5.2-5.2-5.2H52.2
												C49.3,41.6,47,44,47,46.9z"/>
										</g>
									</g>
								</g>
								<path class="st5" d="M369.5,113.2L369.5,113.2c0-14.3-11.6-26-26-26h-17.6c-14.4,0-26-11.6-26-26l0,0c0-14.4-11.6-26-26-26
									H55.8c-14.4,0-26,11.6-26,26l0,0c0,14.4,11.6,26,26,26h15c14.3,0,26,11.6,26,26l0,0c0,14.3-11.6,26-26,26H26.2
									c-14.4,0-26,11.6-26,26l0,0c0,14.4,11.6,26,26,26h65.2c14.3,0,26,11.6,26,26l0,0c0,14.4-11.6,26-26,26H85
									c-14.3,0-26,11.6-26,26l0,0c0,14.4,11.6,26,26,26h152c14.4,0,26-11.6,26-26l0,0c0-14.4,11.6-26,26-26h9.3
									c14.4,0,26-11.6,26-26l0,0c0-14.4-11.6-26-26-26h-31.8c-14.4,0-26-11.6-26-26l0,0c0-14.4,11.6-26,26-26h77.1
									C357.9,139.2,369.5,127.6,369.5,113.2L369.5,113.2z"/>
							</g>
							<path class="st5" d="M345.4,58c0,8-6.5,14.5-14.5,14.5S316.3,66,316.3,58s6.5-14.5,14.5-14.5S345.4,50,345.4,58z"/>
							<path class="st5" d="M100.4,216.1c0,9.5-7.7,17.2-17.2,17.2S66,225.6,66,216.1s7.7-17.2,17.2-17.2S100.4,206.6,100.4,216.1z"
								/>
						</g>
						<path class="st2" d="M163.2,31.2l5.1-0.6c36.4-4.6,69.6,21.3,74.2,57.7l0,0c4.6,36.4-21.3,69.6-57.7,74.2l-5.1,0.6
							c-36.4,4.6-69.6-21.3-74.2-57.7l0,0C100.9,69,126.8,35.8,163.2,31.2z"/>
						<g>
							<path class="st7" d="M194.4,86.6c0-13.6-10.6-24.5-23.7-24.5c-13.1,0-23.7,11-23.7,24.5c0,1.6,0.1,3.1,0.4,4.6v0.1
								c0,0,1.1,51.6-11.5,63.1c-2,1.8,13.7,3.1,16.5,3.1H189c2.8,0,5-2.1,5-4.8V91.2c0,0,0,0,0-0.1
								C194.3,89.7,194.4,88.1,194.4,86.6z"/>
							<ellipse class="st8" cx="173.3" cy="81.6" rx="17.5" ry="16.9"/>
							<g>
								<path class="st9" d="M145.4,177.9h59.3l-2.4-36.5l0.1-15.2c-0.4-9.2-8-16.5-17.2-16.5H165c-9.2,0-16.8,7.3-17.2,16.5
									l0.1,15.2L145.4,177.9z"/>
								<path class="st8" d="M174.4,128.7c9.2,0,16.3-7.4,17.6-17.7c-0.3-0.1-0.6-0.3-1-0.4c-1.2,9.9-7.9,17.1-16.6,17.1
									s-15.8-6.9-17.5-16.2c-0.3,0.2-0.6,0.3-0.9,0.5C157.9,121.7,165.4,128.7,174.4,128.7L174.4,128.7z"/>
								<path class="st10" d="M152.8,168.9l1.4-23.4c0.1-1.5,1.4-2.7,2.9-2.6h0.2c1.5,0.1,2.7,1.4,2.6,2.9l-1.4,23.4
									c-0.1,1.5-1.4,2.7-2.9,2.6h-0.2C153.9,171.7,152.7,170.4,152.8,168.9z"/>
							</g>
							<g>
								<polygon class="st11" points="183.2,111.7 164.7,111.7 166.7,92.9 181.3,92.9 								"/>
								<path class="st11" d="M164.9,109.6c-2.1,0-4.1,0.4-6,1.1c0.2,8.1,6.9,14.6,15.1,14.6c8.4,0,15.1-6.8,15.1-15.1
									c0-0.1,0-0.1,0-0.1c-1.3-0.3-2.6-0.5-4-0.5H164.9L164.9,109.6z"/>
								<path class="st12" d="M181.3,92.9h-14.6l-1.4,13.5c2.4,1.2,5,1.8,7.8,1.8l0,0c3.5,0,6.7-1,9.5-2.8L181.3,92.9z"/>
								<path class="st11" d="M174.5,68.6c-14.3,1.5-17.1,9.6-17.5,14.6c0,0.4,0.1,1,0.1,1.7c0,2.2-0.1,5-0.1,5c0,8.9,7.2,16,16,16
									l0,0c8.9,0,16-7.2,16-16V82C189.1,76.2,183.6,69.4,174.5,68.6L174.5,68.6z"/>
								<g>
									
										<ellipse transform="matrix(0.9998 -2.198846e-02 2.198846e-02 0.9998 -1.9002 3.7903)" class="st13" cx="171.4" cy="88.3" rx="1" ry="1.4"/>
									
										<ellipse transform="matrix(0.9998 -2.198846e-02 2.198846e-02 0.9998 -1.8986 3.9399)" class="st13" cx="178.2" cy="88.3" rx="1" ry="1.4"/>
									<g>
										<path class="st14" d="M168.8,93.9c0,0.1,0,0.2-0.1,0.3c-0.4,2.5,1.3,4.9,3.9,5.3s4.9-1.3,5.3-3.8c0-0.1,0-0.2,0-0.3
											L168.8,93.9L168.8,93.9z"/>
										<path class="st12" d="M171.9,96.8c-0.9-0.1-1.7,0.2-2.4,0.6c0.7,1.1,1.8,1.9,3.2,2.1c1,0.2,1.9,0,2.8-0.4
											C174.7,97.8,173.4,96.9,171.9,96.8z"/>
										<path class="st8" d="M168.8,94.2c-0.1,0.4-0.1,0.7,0,1.1l8.8,1.5c0.2-0.4,0.3-0.8,0.4-1.2c0-0.1,0-0.2,0-0.3l-9.1-1.4
											C168.8,94,168.8,94.1,168.8,94.2z"/>
									</g>
								</g>
							</g>
							<g>
								<polygon class="st15" points="204.6,177.9 161.2,177.9 193.7,306.4 219.2,306.4 								"/>
								<path class="st11" d="M198.6,325.7c-9.9,7.5-2.5,13.7-2.5,13.7s32.2,0.4,37.8,0c0.9-0.1,1.6-0.1,2.3-0.3
									c2.6-0.5,3.5-3.9,1.3-5.5c-7.3-5.5-16.2-7.9-16.2-7.9l-2.2-19.3h-25.5L198.6,325.7L198.6,325.7z"/>
							</g>
							<g>
								<path class="st13" d="M145.4,177.9c0,0-10.5,13.2,3.2,37.6l-17.2,86.4l25.3,4.2l24.8-76.7c1.1-3.5,1.7-7.1,1.7-10.8v-40.8
									L145.4,177.9L145.4,177.9z"/>
								<path class="st11" d="M131.4,301.8l-4.7,23.8c-9.8,7.5-2.5,13.7-2.5,13.7s32.2,0.4,37.8,0c0.9-0.1,1.6-0.1,2.3-0.3
									c2.6-0.5,3.5-3.9,1.3-5.5c-7.3-5.5-14.7-9.5-14.7-9.5l5.9-18.1C148.2,304.6,137.7,302.9,131.4,301.8L131.4,301.8z"/>
								<path class="st16" d="M152.8,270l8.8-31.2c0.6-2.1,2.8-3.3,4.9-2.8l0.3,0.1c2.1,0.6,3.3,2.8,2.8,4.9l-8.8,31.2
									c-0.6,2.1-2.8,3.3-4.9,2.8l-0.3-0.1C153.5,274.3,152.2,272.1,152.8,270z"/>
							</g>
							<g>
								<path class="st11" d="M154.8,112.8l-29.7-48.6c0,0,3.5-8.3-1.2-10.2c-3.3-1.3-6.6,2.1-6.6,2.1s-3.2-8.9-13.3-3.9
									c-8.1,4-10.6,17.2,4.8,20.8l38.9,68.3C147.8,141.3,158.4,132.6,154.8,112.8L154.8,112.8z"/>
								<path class="st11" d="M154.8,112.8l-29.7-48.6c0,0,3.5-8.3-1.2-10.2c-3.3-1.3-6.6,2.1-6.6,2.1s-3.2-8.9-13.3-3.9
									c-8.1,4-10.6,17.2,4.8,20.8l38.9,68.3C147.8,141.3,158.4,132.6,154.8,112.8L154.8,112.8z"/>
								<path class="st17" d="M122.4,71l0.2-0.1c1.3-0.8,2.9-0.4,3.7,0.9l5.3,8.7c0.8,1.3,0.4,2.9-0.9,3.7l-0.2,0.1
									c-1.3,0.8-2.9,0.4-3.7-0.9l-5.3-8.7C120.7,73.4,121.1,71.7,122.4,71z"/>
								<path class="st12" d="M111,72.4c-15.4-3.7-12.9-16.8-4.8-20.8c0.6-0.3,1.1-0.5,1.6-0.7c-1.1,0.2-2.4,0.7-3.8,1.3
									c-8.1,4-10.6,17.2,4.8,20.9l38.9,68.3c0,0,0.6-0.5,1.6-1.6L111,72.4L111,72.4z"/>
							</g>
							<g>
								<path class="st11" d="M195.2,112.8l29.7-48.6c0,0-3.5-8.3,1.2-10.2c3.3-1.3,6.6,2.1,6.6,2.1s3.2-8.9,13.3-3.9
									c8.1,4,10.6,17.2-4.8,20.8l-38.9,68.3C202.2,141.3,191.6,132.6,195.2,112.8L195.2,112.8z"/>
								<path class="st11" d="M195.2,112.8l29.7-48.6c0,0-3.5-8.3,1.2-10.2c3.3-1.3,6.6,2.1,6.6,2.1s3.2-8.9,13.3-3.9
									c8.1,4,10.6,17.2-4.8,20.8l-38.9,68.3C202.2,141.3,191.6,132.6,195.2,112.8L195.2,112.8z"/>
								<path class="st12" d="M239,72.4c15.4-3.7,12.9-16.8,4.8-20.8c-0.6-0.3-1.1-0.5-1.6-0.7c1.1,0.2,2.4,0.7,3.8,1.3
									c8.1,4,10.6,17.2-4.8,20.9l-38.9,68.3c0,0-0.6-0.5-1.6-1.6L239,72.4L239,72.4z"/>
								<path class="st17" d="M210.2,94.9l9.9-16.2c0.9-1.4,2.8-1.9,4.2-1l0.2,0.1c1.4,0.9,1.9,2.8,1,4.2l-9.9,16.2
									c-0.9,1.4-2.8,1.9-4.2,1l-0.2-0.1C209.8,98.2,209.4,96.4,210.2,94.9z"/>
							</g>
							<ellipse class="st11" cx="156" cy="88.4" rx="3.3" ry="3.7"/>
							<ellipse class="st11" cx="189.5" cy="88.3" rx="3.3" ry="3.7"/>
							<path class="st7" d="M156.8,86.6c0,0,7.1-3.2,11.9-3.4c4.8-0.2,15.5,0.5,18.9,1.9c3.4,1.5,4.2,1.8,4.2,1.8s2-10-4.5-14.8
								c-6.3-4.6-12.6-5.6-20-3.6c-6.4,1.7-11.5,7.7-11.1,13.2S156.8,86.6,156.8,86.6z"/>
						</g>
						<path class="st18" d="M72.8,339.5h205.4c1.8,0,3.3,1.5,3.3,3.3l0,0c0,1.8-1.5,3.3-3.3,3.3H72.8c-1.8,0-3.3-1.5-3.3-3.3l0,0
							C69.5,341,71,339.5,72.8,339.5z"/>
					</g>
					<path class="st9" d="M110.9,76.6l17.3-8.9l27.6,45.8l1.1,15.3c0,0-4.4,12.2-5.1,12.6s-3.6,0.9-3.6,0.9l-37.7-64.7L110.9,76.6
						L110.9,76.6z"/>
					<path class="st9" d="M239.4,76.8l-17.3-8.9l-27.6,45.8l-1.1,15.3c0,0,4.4,12.2,5.1,12.6s3.6,0.9,3.6,0.9l37.7-64.7L239.4,76.8
						L239.4,76.8z"/>
				</g>
			</g>
		</g>
		<g>
			<path class="st1" d="M296.5,189.3h19c1.2,0,2.1,1,2.1,2.1v1.3c0,1.2-1,2.1-2.1,2.1h-19c-1.2,0-2.1-1-2.1-2.1v-1.3
				C294.3,190.2,295.3,189.3,296.5,189.3z"/>
			<path class="st1" d="M38.9,189.3h251c1.2,0,2.1,1,2.1,2.1v1.3c0,1.2-1,2.1-2.1,2.1h-251c-1.2,0-2.2-1-2.2-2.1v-1.3
				C36.8,190.2,37.7,189.3,38.9,189.3z"/>
		</g>
		<path class="st0" d="M182.7,9.5l-1.4,5.1c-0.1,0.5,0.1,1.1,0.5,1.4l4.4,2.9c1,0.7,0.6,2.2-0.6,2.3l-5.2,0.2c-0.5,0-1,0.4-1.1,0.9
			l-1.4,5.1c-0.3,1.2-1.9,1.2-2.4,0.1l-1.8-4.9c-0.2-0.5-0.7-0.8-1.2-0.8l-5.2,0.2c-1.2,0-1.8-1.5-0.8-2.2l4.1-3.3
			c0.4-0.3,0.6-0.9,0.4-1.4l-1.8-4.9c-0.4-1.1,0.9-2.1,1.9-1.5l4.4,2.9c0.4,0.3,1,0.3,1.5-0.1l4.1-3.3C181.6,7.4,183,8.3,182.7,9.5
			L182.7,9.5z"/>
		<path class="st0" d="M150.1,45.9l-1.6,5.8c-0.1,0.5,0.1,1.1,0.5,1.4l5,3.3c1,0.7,0.6,2.2-0.6,2.3l-6,0.3c-0.5,0-1,0.4-1.1,0.9
			l-1.6,5.8c-0.3,1.2-1.9,1.2-2.4,0.1l-2.1-5.6c-0.2-0.5-0.7-0.8-1.2-0.8l-6,0.3c-1.2,0-1.8-1.5-0.8-2.2l4.7-3.7
			c0.4-0.3,0.6-0.9,0.4-1.4l-2.1-5.6c-0.4-1.1,0.9-2.1,1.9-1.5l5,3.3c0.4,0.3,1,0.3,1.5-0.1l4.7-3.7C149,43.8,150.4,44.7,150.1,45.9
			L150.1,45.9z"/>
		<path class="st0" d="M211.8,30.2l0.6,8.2c0,0.5,0.4,1,0.9,1.1l8,1.9c1.2,0.3,1.3,1.9,0.2,2.4l-7.6,3.1c-0.5,0.2-0.8,0.7-0.8,1.2
			l0.6,8.2c0.1,1.2-1.4,1.8-2.2,0.9l-5.3-6.2c-0.4-0.4-0.9-0.5-1.4-0.3l-7.6,3.1c-1.1,0.5-2.2-0.8-1.5-1.8l4.3-7
			c0.3-0.5,0.2-1-0.1-1.5l-5.3-6.2c-0.8-0.9,0.1-2.3,1.2-2l8,1.9c0.5,0.1,1.1-0.1,1.4-0.6l4.3-7C210.1,28.6,211.7,29,211.8,30.2
			L211.8,30.2z"/>
		<path class="st0" d="M209.4,60.9l0.4,5.1c0,0.5,0.4,1,0.9,1.1l5,1.2c1.2,0.3,1.3,1.9,0.2,2.4l-4.7,2c-0.5,0.2-0.8,0.7-0.8,1.2
			l0.4,5.1c0.1,1.2-1.4,1.8-2.2,0.9l-3.3-3.9c-0.4-0.4-0.9-0.6-1.4-0.3l-4.7,2c-1.1,0.5-2.2-0.8-1.5-1.8l2.7-4.4
			c0.3-0.5,0.2-1.1-0.1-1.5l-3.3-3.9c-0.8-0.9,0.1-2.3,1.2-2l5,1.2c0.5,0.1,1.1-0.1,1.4-0.6l2.7-4.4
			C207.7,59.3,209.3,59.7,209.4,60.9L209.4,60.9z"/>
		<g>
			<path class="st0" d="M187.2,46.6c1.2-4.8-3.1-10-9.4-11.5c-6.4-1.5-12.4,1.2-13.6,6c-1.1,4.6,2.6,9.4,8.4,11.2l-1.4,3.8L177,53
				C182,53.1,186.2,50.6,187.2,46.6L187.2,46.6z"/>
			<circle class="st8" cx="170.6" cy="42.4" r="1.7"/>
			<circle class="st8" cx="175.7" cy="43.6" r="1.7"/>
			<circle class="st8" cx="180.7" cy="44.8" r="1.7"/>
		</g>
		<path class="st0" d="M212.5,22.9c0.4-0.6,0.8-1.2,1.1-1.9c0.9-2.5-0.1-5.2-2.4-6.5c-1.6-0.8-3.3-0.8-4.8-0.1
			c-0.3-1.6-1.2-3.1-2.8-3.9c-2.8-1.5-6.2-0.2-7.5,2.6c-1,2.2-0.9,5.1-0.4,7.4c0.2,1.2,0.6,2.5,1.1,3.6c0.2,0.6,1.6,4,2.2,4
			C203.1,28.4,209.6,26.7,212.5,22.9L212.5,22.9z"/>
		<path class="st0" d="M158.6,24.2c0.3-0.9,0.4-1.9,0.4-2.8c-0.1-3.5-2.6-6.3-6.1-6.7c-2.3-0.2-4.4,0.6-5.9,2.2
			c-1.1-1.8-3-3.1-5.3-3.4c-4-0.4-7.6,2.8-7.7,6.8c-0.1,3.2,1.4,6.6,3.2,9.2c0.9,1.4,1.9,2.7,3.1,3.8c0.6,0.6,3.9,4.1,4.6,3.8
			C150,35.4,157,30.1,158.6,24.2L158.6,24.2z"/>
	</g>
</g>
<path class="st19" d="M259.8,172.2"/>
<g>
	<g>
		<path class="st20" d="M91.2,175.6c-0.7,0-1.4-0.4-1.9-0.9c-0.3-0.4-0.5-0.9-0.5-1.4h-0.1l0.2-0.6l2.4-8.4c0.2-0.5-0.1-1.1-0.5-1.5
			l-7.2-4.9c-0.8-0.6-1.2-1.6-0.9-2.6c0.3-1,1.1-1.6,2.2-1.7l8.7-0.3c0.6,0,1.1-0.4,1.2-0.9l2.4-8.4c0.3-1,1.2-1.7,2.2-1.7
			s1.8,0.6,2.2,1.5l2.9,8.2c0.2,0.5,0.7,0.9,1.3,0.9l8.7-0.3c1.1,0,1.9,0.6,2.3,1.6c0.3,1,0,2-0.8,2.6l-6.9,5.3
			c-0.5,0.4-0.6,1-0.4,1.5l2.9,8.2c0.3,0.7,0.2,1.5-0.3,2.1c-0.4,0.6-1.2,1-1.9,1c-0.5,0-0.9-0.1-1.3-0.4l-7.2-4.9
			c-0.2-0.2-0.5-0.2-0.7-0.2c-0.3,0-0.6,0.1-0.8,0.3l-6.9,5.3C92.1,175.4,91.7,175.6,91.2,175.6z"/>
		<path class="st7" d="M99.5,142.9c0.7,0,1.4,0.4,1.7,1.2l2.9,8.2c0.3,0.7,1,1.2,1.7,1.2l0,0l8.7-0.3c0,0,0,0,0.1,0
			c1.7,0,2.5,2.2,1.1,3.3l-6.9,5.3c-0.6,0.5-0.9,1.3-0.6,2.1l2.9,8.2c0.5,1.3-0.6,2.4-1.7,2.4c-0.3,0-0.7-0.1-1-0.3l-7.2-4.9
			c-0.3-0.2-0.7-0.3-1-0.3c-0.4,0-0.8,0.1-1.1,0.4l-6.9,5.3c-0.3,0.3-0.7,0.4-1.1,0.4c-1.1,0-2.1-1.1-1.8-2.3l0,0l2.4-8.4
			c0.2-0.8-0.1-1.6-0.7-2l-7.2-4.9c-1.5-1-0.8-3.3,1-3.3l8.7-0.3c0.8,0,1.5-0.5,1.7-1.3l2.4-8.4C98,143.3,98.7,142.9,99.5,142.9
			 M99.5,141.9L99.5,141.9c-1.3,0-2.4,0.8-2.7,2l-2.4,8.4c-0.1,0.3-0.4,0.6-0.8,0.6l-8.7,0.3c-1.2,0-2.3,0.8-2.6,2
			c-0.3,1.2,0.1,2.4,1.1,3.1l7.2,4.9c0.3,0.2,0.4,0.6,0.3,0.9l-2.4,8.4l-0.4,1.3h0.3c0.1,0.4,0.2,0.8,0.5,1.2
			c0.5,0.7,1.4,1.1,2.3,1.1c0.6,0,1.2-0.2,1.7-0.6l6.9-5.3c0.1-0.1,0.3-0.2,0.5-0.2s0.3,0,0.5,0.1l7.2,4.9c0.5,0.3,1,0.5,1.6,0.5
			c0.9,0,1.8-0.5,2.3-1.2s0.7-1.7,0.3-2.6l-2.9-8.2c-0.1-0.3,0-0.7,0.3-0.9l6.9-5.3c1-0.7,1.3-2,1-3.1c-0.4-1.2-1.4-1.9-2.7-1.9
			h-0.1l-8.7,0.3c-0.4,0-0.7-0.2-0.8-0.5l-2.9-8.2C101.7,142.6,100.7,141.9,99.5,141.9L99.5,141.9z"/>
	</g>
	<g>
		<path class="st20" d="M127.8,175.6c-0.7,0-1.4-0.4-1.9-0.9c-0.3-0.4-0.5-0.9-0.5-1.4h-0.1l0.2-0.6l2.4-8.4
			c0.2-0.5-0.1-1.1-0.5-1.5l-7.2-4.9c-0.8-0.6-1.2-1.6-0.9-2.6c0.3-1,1.1-1.6,2.2-1.7l8.7-0.3c0.6,0,1.1-0.4,1.2-0.9l2.4-8.4
			c0.3-1,1.2-1.7,2.2-1.7s1.8,0.6,2.2,1.5l2.9,8.2c0.2,0.5,0.7,0.9,1.3,0.9l8.7-0.3c1.1,0,1.9,0.6,2.3,1.6c0.3,1,0,2-0.8,2.6
			l-6.9,5.3c-0.5,0.4-0.6,1-0.4,1.5l2.9,8.2c0.3,0.7,0.2,1.5-0.3,2.1c-0.4,0.6-1.2,1-1.9,1c-0.5,0-0.9-0.1-1.3-0.4l-7.2-4.9
			c-0.2-0.2-0.5-0.2-0.7-0.2c-0.3,0-0.6,0.1-0.8,0.3l-6.9,5.3C128.8,175.4,128.3,175.6,127.8,175.6z"/>
		<path class="st7" d="M136.2,142.9c0.7,0,1.4,0.4,1.7,1.2l2.9,8.2c0.3,0.7,1,1.2,1.7,1.2l0,0l8.7-0.3c0,0,0,0,0.1,0
			c1.7,0,2.5,2.2,1.1,3.3l-6.9,5.3c-0.6,0.5-0.9,1.3-0.6,2.1l2.9,8.2c0.5,1.3-0.6,2.4-1.7,2.4c-0.3,0-0.7-0.1-1-0.3l-7.2-4.9
			c-0.3-0.2-0.7-0.3-1-0.3c-0.4,0-0.8,0.1-1.1,0.4l-6.9,5.3c-0.3,0.3-0.7,0.4-1.1,0.4c-1.1,0-2.1-1.1-1.8-2.3l0,0l2.4-8.4
			c0.2-0.8-0.1-1.6-0.7-2l-7.2-4.9c-1.5-1-0.8-3.3,1-3.3l8.7-0.3c0.8,0,1.5-0.5,1.7-1.3l2.4-8.4
			C134.7,143.3,135.4,142.9,136.2,142.9 M136.2,141.9L136.2,141.9c-1.3,0-2.4,0.8-2.7,2l-2.4,8.4c-0.1,0.3-0.4,0.6-0.8,0.6l-8.7,0.3
			c-1.2,0-2.3,0.8-2.6,2c-0.3,1.2,0.1,2.4,1.1,3.1l7.2,4.9c0.3,0.2,0.4,0.6,0.3,0.9l-2.4,8.4l-0.4,1.3h0.3c0.1,0.4,0.2,0.8,0.5,1.2
			c0.5,0.7,1.4,1.1,2.3,1.1c0.6,0,1.2-0.2,1.7-0.6l6.9-5.3c0.1-0.1,0.3-0.2,0.5-0.2s0.3,0,0.5,0.1l7.2,4.9c0.5,0.3,1,0.5,1.6,0.5
			c0.9,0,1.8-0.5,2.3-1.2s0.7-1.7,0.3-2.6l-2.9-8.2c-0.1-0.3,0-0.7,0.3-0.9l6.9-5.3c1-0.7,1.3-2,1-3.1c-0.4-1.2-1.4-1.9-2.7-1.9
			h-0.1l-8.7,0.3c-0.4,0-0.7-0.2-0.8-0.5l-2.9-8.2C138.4,142.6,137.4,141.9,136.2,141.9L136.2,141.9z"/>
	</g>
	<g>
		<path class="st20" d="M166.6,175.6c-0.7,0-1.4-0.4-1.9-0.9c-0.3-0.4-0.5-0.9-0.5-1.4h-0.1l0.2-0.6l2.4-8.4
			c0.2-0.5-0.1-1.1-0.5-1.5l-7.2-4.9c-0.8-0.6-1.2-1.6-0.9-2.6s1.1-1.6,2.2-1.7l8.7-0.3c0.6,0,1.1-0.4,1.2-0.9l2.4-8.4
			c0.3-1,1.2-1.7,2.2-1.7s1.8,0.6,2.2,1.5l2.9,8.2c0.2,0.5,0.7,0.9,1.3,0.9l8.7-0.3c1.1,0,1.9,0.6,2.3,1.6c0.3,1,0,2-0.8,2.6
			l-6.9,5.3c-0.5,0.4-0.6,1-0.4,1.5l2.9,8.2c0.3,0.7,0.2,1.5-0.3,2.1c-0.4,0.6-1.2,1-1.9,1c-0.5,0-0.9-0.1-1.3-0.4l-7.2-4.9
			c-0.2-0.2-0.5-0.2-0.7-0.2c-0.3,0-0.6,0.1-0.8,0.3l-6.9,5.3C167.6,175.4,167.1,175.6,166.6,175.6z"/>
		<path class="st7" d="M175,142.9c0.7,0,1.4,0.4,1.7,1.2l2.9,8.2c0.3,0.7,1,1.2,1.7,1.2l0,0l8.7-0.3c0,0,0,0,0.1,0
			c1.7,0,2.5,2.2,1.1,3.3l-6.9,5.3c-0.6,0.5-0.9,1.3-0.6,2.1l2.9,8.2c0.5,1.3-0.6,2.4-1.7,2.4c-0.3,0-0.7-0.1-1-0.3l-7.2-4.9
			c-0.3-0.2-0.7-0.3-1-0.3c-0.4,0-0.8,0.1-1.1,0.4l-6.9,5.3c-0.3,0.3-0.7,0.4-1.1,0.4c-1.1,0-2.1-1.1-1.8-2.3l0,0l2.4-8.4
			c0.2-0.8-0.1-1.6-0.7-2l-7.2-4.9c-1.5-1-0.8-3.3,1-3.3l8.7-0.3c0.8,0,1.5-0.5,1.7-1.3l2.4-8.4C173.4,143.3,174.2,142.9,175,142.9
			 M175,141.9L175,141.9c-1.3,0-2.4,0.8-2.7,2l-2.4,8.4c-0.1,0.3-0.4,0.6-0.8,0.6l-8.7,0.3c-1.2,0-2.3,0.8-2.6,2s0.1,2.4,1.1,3.1
			l7.2,4.9c0.3,0.2,0.4,0.6,0.3,0.9l-2.4,8.4l-0.4,1.3h0.3c0.1,0.4,0.2,0.8,0.5,1.2c0.5,0.7,1.4,1.1,2.3,1.1c0.6,0,1.2-0.2,1.7-0.6
			l6.9-5.3c0.1-0.1,0.3-0.2,0.5-0.2s0.3,0,0.5,0.1l7.2,4.9c0.5,0.3,1,0.5,1.6,0.5c0.9,0,1.8-0.5,2.3-1.2s0.7-1.7,0.3-2.6l-2.9-8.2
			c-0.1-0.3,0-0.7,0.3-0.9l6.9-5.3c1-0.7,1.3-2,1-3.1c-0.4-1.2-1.4-1.9-2.7-1.9h-0.1l-8.7,0.3c-0.4,0-0.7-0.2-0.8-0.5l-2.9-8.2
			C177.2,142.6,176.2,141.9,175,141.9L175,141.9z"/>
	</g>
	<g>
		<path class="st20" d="M207.5,175.6c-0.7,0-1.4-0.4-1.9-0.9c-0.3-0.4-0.5-0.9-0.5-1.4H205l0.2-0.6l2.4-8.4c0.2-0.5-0.1-1.1-0.5-1.5
			l-7.2-4.9c-0.8-0.6-1.2-1.6-0.9-2.6s1.1-1.6,2.2-1.7l8.7-0.3c0.6,0,1.1-0.4,1.2-0.9l2.4-8.4c0.3-1,1.2-1.7,2.2-1.7
			s1.8,0.6,2.2,1.5l2.9,8.2c0.2,0.5,0.7,0.9,1.3,0.9l8.7-0.3c1.1,0,1.9,0.6,2.3,1.6c0.3,1,0,2-0.8,2.6l-6.9,5.3
			c-0.5,0.4-0.6,1-0.4,1.5l2.9,8.2c0.3,0.7,0.2,1.5-0.3,2.1c-0.4,0.6-1.2,1-1.9,1c-0.5,0-0.9-0.1-1.3-0.4l-7.2-4.9
			c-0.2-0.2-0.5-0.2-0.7-0.2c-0.3,0-0.6,0.1-0.8,0.3l-6.9,5.3C208.5,175.4,208.1,175.6,207.5,175.6z"/>
		<path class="st7" d="M215.9,142.9c0.7,0,1.4,0.4,1.7,1.2l2.9,8.2c0.3,0.7,1,1.2,1.7,1.2l0,0l8.7-0.3c0,0,0,0,0.1,0
			c1.7,0,2.5,2.2,1.1,3.3l-6.9,5.3c-0.6,0.5-0.9,1.3-0.6,2.1l2.9,8.2c0.5,1.3-0.6,2.4-1.7,2.4c-0.3,0-0.7-0.1-1-0.3l-7.2-4.9
			c-0.3-0.2-0.7-0.3-1-0.3c-0.4,0-0.8,0.1-1.1,0.4l-6.9,5.3c-0.3,0.3-0.7,0.4-1.1,0.4c-1.1,0-2.1-1.1-1.8-2.3l0,0l2.4-8.4
			c0.2-0.8-0.1-1.6-0.7-2l-7.2-4.9c-1.5-1-0.8-3.3,1-3.3l8.7-0.3c0.8,0,1.5-0.5,1.7-1.3l2.4-8.4
			C214.4,143.3,215.1,142.9,215.9,142.9 M215.9,141.9L215.9,141.9c-1.3,0-2.4,0.8-2.7,2l-2.4,8.4c-0.1,0.3-0.4,0.6-0.8,0.6l-8.7,0.3
			c-1.2,0-2.3,0.8-2.6,2s0.1,2.4,1.1,3.1l7.2,4.9c0.3,0.2,0.4,0.6,0.3,0.9l-2.4,8.4l-0.4,1.3h0.3c0.1,0.4,0.2,0.8,0.5,1.2
			c0.5,0.7,1.4,1.1,2.3,1.1c0.6,0,1.2-0.2,1.7-0.6l6.9-5.3c0.1-0.1,0.3-0.2,0.5-0.2s0.3,0,0.5,0.1l7.2,4.9c0.5,0.3,1,0.5,1.6,0.5
			c0.9,0,1.8-0.5,2.3-1.2s0.7-1.7,0.3-2.6l-2.9-8.2c-0.1-0.3,0-0.7,0.3-0.9l6.9-5.3c1-0.7,1.3-2,1-3.1c-0.4-1.2-1.4-1.9-2.7-1.9
			h-0.1l-8.7,0.3c-0.4,0-0.7-0.2-0.8-0.5l-2.9-8.2C218.1,142.6,217.1,141.9,215.9,141.9L215.9,141.9z"/>
	</g>
	<g>
		<path class="st20" d="M246.3,175.6c-0.7,0-1.4-0.4-1.9-0.9c-0.3-0.4-0.5-0.9-0.5-1.4h-0.1l0.2-0.6l2.4-8.4
			c0.2-0.6-0.1-1.1-0.5-1.5l-7.2-4.9c-0.8-0.6-1.2-1.6-0.9-2.6s1.1-1.6,2.2-1.7l8.7-0.3c0.6,0,1.1-0.4,1.2-0.9l2.4-8.4
			c0.3-1,1.2-1.7,2.2-1.7s1.8,0.6,2.2,1.5l2.9,8.2c0.2,0.5,0.7,0.9,1.3,0.9l8.7-0.3c1.1,0,1.9,0.6,2.3,1.6c0.3,1,0,2-0.8,2.6
			l-6.9,5.3c-0.5,0.4-0.6,1-0.4,1.5l2.9,8.2c0.3,0.7,0.2,1.5-0.3,2.1c-0.4,0.6-1.2,1-1.9,1c-0.5,0-0.9-0.1-1.3-0.4l-7.2-4.9
			c-0.2-0.2-0.5-0.2-0.7-0.2c-0.3,0-0.6,0.1-0.8,0.3l-6.9,5.3C247.3,175.4,246.8,175.6,246.3,175.6z"/>
		<path class="st7" d="M254.7,142.9c0.7,0,1.4,0.4,1.7,1.2l2.9,8.2c0.3,0.7,1,1.2,1.7,1.2l0,0l8.7-0.3c0,0,0,0,0.1,0
			c1.7,0,2.5,2.2,1.1,3.3l-6.9,5.3c-0.6,0.5-0.9,1.3-0.6,2.1l2.9,8.2c0.5,1.3-0.6,2.4-1.7,2.4c-0.3,0-0.7-0.1-1-0.3l-7.2-4.9
			c-0.3-0.2-0.7-0.3-1-0.3c-0.4,0-0.8,0.1-1.1,0.4l-6.9,5.3c-0.3,0.3-0.7,0.4-1.1,0.4c-1.1,0-2.1-1.1-1.8-2.3l0,0l2.4-8.4
			c0.2-0.8-0.1-1.6-0.7-2l-7.2-4.9c-1.5-1-0.8-3.3,1-3.3l8.7-0.3c0.8,0,1.5-0.5,1.7-1.3l2.4-8.4
			C253.2,143.3,253.9,142.9,254.7,142.9 M254.7,141.9L254.7,141.9c-1.3,0-2.4,0.8-2.7,2l-2.4,8.4c-0.1,0.3-0.4,0.6-0.8,0.6l-8.7,0.3
			c-1.2,0-2.3,0.8-2.6,2s0.1,2.4,1.1,3.1l7.2,4.9c0.3,0.2,0.4,0.6,0.3,0.9l-2.4,8.4l-0.4,1.3h0.3c0.1,0.4,0.2,0.8,0.5,1.2
			c0.5,0.7,1.4,1.1,2.3,1.1c0.6,0,1.2-0.2,1.7-0.6l6.9-5.3c0.1-0.1,0.3-0.2,0.5-0.2s0.3,0,0.5,0.1l7.2,4.9c0.5,0.3,1,0.5,1.6,0.5
			c0.9,0,1.8-0.5,2.3-1.2s0.7-1.7,0.3-2.6l-2.9-8.2c-0.1-0.3,0-0.7,0.3-0.9l6.9-5.3c1-0.7,1.3-2,1-3.1c-0.4-1.2-1.4-1.9-2.7-1.9
			h-0.1l-8.7,0.3c-0.4,0-0.7-0.2-0.8-0.5l-2.9-8.2C256.9,142.6,255.9,141.9,254.7,141.9L254.7,141.9z"/>
	</g>
	<path class="st8" d="M270.9,156.5c1.4-1.1,0.6-3.3-1.2-3.3l-8.7,0.3c-0.8,0-1.5-0.5-1.8-1.2l-2.9-8.2c-0.3-0.9-1.1-1.3-1.9-1.2
		l1,26.1c0.3,0,0.7,0.1,1,0.3l7.2,4.9c1.4,1,3.3-0.5,2.7-2.1l-2.9-8.2c-0.3-0.7,0-1.6,0.6-2.1L270.9,156.5z"/>
</g>
<g>
	<path d="M133.4,255v-7.3h-14v-7.1l12.4-18.6h8.7v18.6h2.4v7.1h-2.4v7.3H133.4z M127.6,240.6h5.8v-9.1L127.6,240.6z"/>
	<path d="M151.1,255.6c-1,0-1.8-0.3-2.5-1c-0.7-0.7-1-1.5-1-2.5c0-1,0.3-1.8,1-2.5c0.7-0.7,1.5-1,2.5-1c1,0,1.8,0.3,2.5,1
		s1,1.5,1,2.5c0,1-0.3,1.8-1,2.5S152.1,255.6,151.1,255.6z"/>
	<path d="M170.7,255.6c-2.2,0-4.2-0.5-5.9-1.6s-3.1-2.5-4.2-4.2c-1-1.8-1.5-3.7-1.5-5.7h7.1c0,0.8,0.2,1.6,0.6,2.3
		c0.4,0.7,1,1.2,1.6,1.6c0.7,0.4,1.4,0.6,2.3,0.6c0.8,0,1.6-0.2,2.2-0.6c0.7-0.4,1.2-0.9,1.6-1.6c0.4-0.7,0.6-1.4,0.6-2.3
		c0-0.8-0.2-1.6-0.5-2.3c-0.3-0.7-0.9-1.3-1.7-1.7c-0.8-0.4-2-0.6-3.6-0.6h-8.7l3.7-17.4H181v7.1h-10.9l-0.7,3.3l1.5,0
		c2.2,0.1,4.2,0.7,5.9,1.7c1.7,1.1,3.1,2.4,4,4.2c1,1.7,1.5,3.6,1.5,5.8c0,1.6-0.3,3.1-0.9,4.5c-0.6,1.4-1.4,2.6-2.5,3.7
		c-1.1,1.1-2.3,1.9-3.7,2.5C173.8,255.3,172.3,255.6,170.7,255.6z"/>
	<path d="M203.7,222l-9.6,35.7H187l9.6-35.7H203.7z"/>
	<path d="M218.8,255.6c-2.2,0-4.2-0.5-5.9-1.6s-3.1-2.5-4.2-4.2c-1-1.8-1.5-3.7-1.5-5.7h7.1c0,0.8,0.2,1.6,0.6,2.3
		c0.4,0.7,1,1.2,1.6,1.6c0.7,0.4,1.4,0.6,2.3,0.6c0.8,0,1.6-0.2,2.2-0.6c0.7-0.4,1.2-0.9,1.6-1.6c0.4-0.7,0.6-1.4,0.6-2.3
		c0-0.8-0.2-1.6-0.5-2.3c-0.3-0.7-0.9-1.3-1.7-1.7c-0.8-0.4-2-0.6-3.6-0.6h-8.7l3.7-17.4H229v7.1h-10.9l-0.7,3.3l1.5,0
		c2.2,0.1,4.2,0.7,5.9,1.7c1.7,1.1,3.1,2.4,4,4.2c1,1.7,1.5,3.6,1.5,5.8c0,1.6-0.3,3.1-0.9,4.5c-0.6,1.4-1.4,2.6-2.5,3.7
		c-1.1,1.1-2.3,1.9-3.7,2.5C221.9,255.3,220.4,255.6,218.8,255.6z"/>
</g>
<g>
	<path d="M102,287.7c-1.4,0-2.7-0.4-3.8-1.1c-1.1-0.7-2.1-1.7-2.7-2.9c-0.7-1.2-1-2.5-1-4c0-1.1,0.2-2.1,0.6-3.1
		c0.4-1,0.9-1.8,1.6-2.5c0.7-0.7,1.5-1.3,2.4-1.7c0.9-0.4,1.9-0.6,2.9-0.6c1.4,0,2.7,0.4,3.8,1.1c1.1,0.7,2.1,1.7,2.7,2.9
		c0.7,1.2,1,2.5,1,4c0,1.1-0.2,2.1-0.6,3.1c-0.4,1-0.9,1.8-1.6,2.5c-0.7,0.7-1.5,1.3-2.4,1.7C104,287.4,103,287.7,102,287.7z
		 M102,285.1c0.9,0,1.8-0.2,2.6-0.7c0.8-0.5,1.4-1.2,1.8-2c0.4-0.8,0.7-1.7,0.7-2.7c0-1-0.2-1.9-0.7-2.7c-0.4-0.8-1-1.5-1.8-2
		c-0.8-0.5-1.6-0.7-2.5-0.7c-0.9,0-1.8,0.2-2.6,0.7c-0.8,0.5-1.4,1.2-1.8,2c-0.4,0.8-0.7,1.7-0.7,2.7c0,1,0.2,1.9,0.7,2.7
		c0.5,0.8,1.1,1.5,1.8,1.9C100.3,284.9,101.1,285.1,102,285.1z"/>
	<path d="M125.4,277.9v9.4h-2.5v-8.8c0-0.8-0.2-1.5-0.6-2.1c-0.4-0.6-0.9-1.1-1.5-1.5c-0.6-0.4-1.3-0.6-2.1-0.6
		c-0.8,0-1.4,0.2-2.1,0.6c-0.6,0.4-1.1,0.9-1.5,1.5c-0.4,0.6-0.6,1.3-0.6,2.1v8.8h-2.5v-15.1h2.5v1.9c0.5-0.7,1.2-1.3,2-1.7
		c0.8-0.4,1.7-0.6,2.7-0.6c1.1,0,2.2,0.3,3.1,0.8c0.9,0.5,1.7,1.3,2.2,2.2C125.1,275.7,125.4,276.7,125.4,277.9z"/>
	<path d="M151.7,266.1v2.5h-7v18.6h-2.5v-18.6h-7v-2.5H151.7z"/>
	<path d="M152.3,287.3v-15.1h2.5v1.9c0.5-0.7,1.2-1.3,2-1.7c0.8-0.4,1.7-0.6,2.7-0.6c0.6,0,1.1,0.1,1.7,0.2l-1,2.5
		c-0.4-0.1-0.8-0.2-1.2-0.2c-0.8,0-1.4,0.2-2.1,0.6c-0.6,0.4-1.1,0.9-1.5,1.5c-0.4,0.6-0.6,1.3-0.6,2.1v8.8H152.3z"/>
	<path d="M162.4,281.5v-9.4h2.5v8.8c0,0.8,0.2,1.5,0.6,2.1s0.9,1.1,1.5,1.5c0.6,0.4,1.3,0.6,2.1,0.6c0.8,0,1.5-0.2,2.1-0.6
		c0.6-0.4,1.1-0.9,1.5-1.5s0.6-1.3,0.6-2.1v-8.8h2.5l0,15.1h-2.5l0-1.9c-0.5,0.7-1.2,1.3-2,1.7c-0.8,0.4-1.7,0.6-2.6,0.6
		c-1.1,0-2.2-0.3-3.1-0.8c-0.9-0.5-1.7-1.3-2.2-2.2C162.6,283.7,162.4,282.7,162.4,281.5z"/>
	<path d="M183.3,287.5c-0.8,0-1.6-0.2-2.4-0.5c-0.8-0.3-1.4-0.7-2-1.1s-1-1-1.3-1.7l2.2-0.9c0.2,0.3,0.4,0.7,0.8,1
		c0.4,0.3,0.8,0.5,1.4,0.7c0.5,0.2,1,0.3,1.6,0.3c0.6,0,1.1-0.1,1.6-0.3c0.5-0.2,0.9-0.4,1.2-0.8c0.3-0.3,0.5-0.7,0.5-1.2
		c0-0.5-0.2-0.9-0.5-1.2c-0.3-0.3-0.8-0.5-1.3-0.7c-0.5-0.2-1-0.3-1.5-0.5c-1-0.3-2-0.6-2.8-0.9c-0.8-0.4-1.5-0.8-1.9-1.4
		c-0.5-0.6-0.7-1.3-0.7-2.2c0-0.9,0.3-1.7,0.8-2.4c0.5-0.7,1.2-1.2,2-1.6c0.8-0.4,1.8-0.6,2.7-0.6c1.2,0,2.3,0.3,3.3,0.8
		c1,0.5,1.8,1.2,2.2,2.1l-2,1.2c-0.2-0.4-0.4-0.7-0.8-1c-0.4-0.3-0.8-0.5-1.2-0.7c-0.5-0.2-0.9-0.2-1.4-0.3c-0.6,0-1.1,0.1-1.6,0.2
		c-0.5,0.2-0.9,0.4-1.2,0.8c-0.3,0.3-0.5,0.8-0.5,1.3c0,0.5,0.2,0.9,0.5,1.1c0.3,0.3,0.8,0.5,1.3,0.6c0.5,0.2,1.1,0.3,1.7,0.5
		c0.9,0.3,1.8,0.6,2.6,1c0.8,0.4,1.4,0.9,1.9,1.4c0.5,0.6,0.7,1.3,0.7,2.1c0,0.9-0.3,1.7-0.8,2.4c-0.6,0.7-1.3,1.2-2.2,1.6
		C185.3,287.4,184.3,287.6,183.3,287.5z"/>
	<path d="M199.5,274.7h-3.4l0,12.6h-2.5l0-12.6H191v-2.5h2.6l0-4.7h2.5l0,4.7h3.4V274.7z"/>
	<path d="M204.3,294.8h-2.5v-22.6h2.5v2.6c0.5-0.9,1.2-1.6,2.1-2.2c0.9-0.5,1.9-0.8,3-0.8c1.1,0,2.1,0.2,3.1,0.6
		c1,0.4,1.8,1,2.5,1.7c0.7,0.7,1.3,1.6,1.7,2.5c0.4,1,0.6,2,0.6,3.1c0,1.1-0.2,2.1-0.6,3.1c-0.4,1-1,1.8-1.7,2.5
		c-0.7,0.7-1.6,1.3-2.5,1.7c-1,0.4-2,0.6-3.1,0.6c-1.2,0-2.2-0.3-3-0.8c-0.9-0.5-1.5-1.3-2.1-2.2V294.8z M209.4,274.2
		c-1,0-1.8,0.2-2.6,0.7c-0.7,0.5-1.3,1.2-1.7,2c-0.4,0.8-0.6,1.7-0.6,2.8c0,1,0.2,1.9,0.6,2.8c0.4,0.8,1,1.5,1.7,2
		c0.7,0.5,1.6,0.7,2.6,0.7c1,0,1.9-0.2,2.7-0.7s1.5-1.1,2-2c0.5-0.8,0.7-1.8,0.7-2.8c0-1-0.2-1.9-0.7-2.8c-0.5-0.8-1.1-1.5-1.9-2
		C211.3,274.5,210.4,274.2,209.4,274.2z"/>
	<path d="M221,269.7c-0.4,0-0.7-0.1-1-0.4c-0.3-0.3-0.4-0.6-0.4-1c0-0.4,0.1-0.7,0.4-1c0.3-0.3,0.6-0.4,1-0.4s0.7,0.1,1,0.4
		s0.4,0.6,0.4,1c0,0.4-0.1,0.7-0.4,1C221.7,269.6,221.4,269.7,221,269.7z M219.7,272.2h2.5v15.1h-2.5V272.2z"/>
	<path d="M225.9,287.3v-22.6h2.5v22.6H225.9z"/>
	<path d="M238.6,287.7c-1.4,0-2.7-0.4-3.8-1.1c-1.1-0.7-2.1-1.7-2.7-2.9c-0.7-1.2-1-2.5-1-4c0-1.1,0.2-2.1,0.6-3.1
		c0.4-1,0.9-1.8,1.6-2.5s1.5-1.3,2.4-1.7c0.9-0.4,1.9-0.6,2.9-0.6c1.4,0,2.7,0.4,3.8,1.1c1.1,0.7,2.1,1.7,2.7,2.9s1,2.5,1,4
		c0,1.1-0.2,2.1-0.6,3.1c-0.4,1-0.9,1.8-1.6,2.5c-0.7,0.7-1.5,1.3-2.4,1.7C240.6,287.4,239.6,287.7,238.6,287.7z M238.6,285.1
		c0.9,0,1.8-0.2,2.6-0.7c0.8-0.5,1.4-1.2,1.8-2c0.4-0.8,0.7-1.7,0.7-2.7c0-1-0.2-1.9-0.7-2.7c-0.4-0.8-1-1.5-1.8-2
		c-0.8-0.5-1.6-0.7-2.5-0.7c-0.9,0-1.8,0.2-2.6,0.7c-0.8,0.5-1.4,1.2-1.8,2c-0.4,0.8-0.7,1.7-0.7,2.7c0,1,0.2,1.9,0.7,2.7
		c0.5,0.8,1.1,1.5,1.8,1.9C236.8,284.9,237.7,285.1,238.6,285.1z"/>
	<path d="M256.3,274.7h-3.4l0,12.6h-2.5l0-12.6h-2.6v-2.5h2.6l0-4.7h2.5l0,4.7h3.4V274.7z"/>
</g>
</svg>
