<?xml version="1.0" encoding="utf-8"?>
<!-- Generator: Adobe Illustrator 28.2.0, SVG Export Plug-In . SVG Version: 6.00 Build 0)  -->
<svg version="1.1" id="Capa_2" xmlns="http://www.w3.org/2000/svg" xmlns:xlink="http://www.w3.org/1999/xlink" x="0px" y="0px"
	 viewBox="0 0 358.9 350.5" style="enable-background:new 0 0 358.9 350.5;" xml:space="preserve">
<style type="text/css">
	.st0{fill:#44CCFF;}
	.st1{fill:#B2DD45;}
	.st2{fill:#FFFFFF;stroke:#000000;stroke-miterlimit:10;}
	.st3{fill:none;stroke:#000000;stroke-miterlimit:10;}
	.st4{fill:none;stroke:#EFEFFC;stroke-miterlimit:10;}
	.st5{fill:#1A1A1A;}
	.st6{fill:#484848;}
	.st7{fill:#333B45;}
	.st8{fill:#1F242A;}
	.st9{fill:#AA6239;}
	.st10{fill:#804A2B;}
	.st11{fill:#1ACEBB;}
	.st12{fill:#414C59;}
	.st13{fill:#1AA8B0;}
	.st14{fill:#BB8161;}
	.st15{fill:#5C6A7D;}
	.st16{fill:#4D5969;}
	.st17{fill:#3CE8D6;}
	.st18{fill:#FFFFFF;}
	.st19{fill:#84344F;}
	.st20{fill:#CB667F;}
</style>
<g id="Layer_1">
	<g>
		<path class="st0" d="M51.8,40.6h292.1v256.1c0,16-13,28.9-28.9,28.9H22.9V69.5C22.9,53.6,35.8,40.6,51.8,40.6z"/>
		<g>
			<rect x="33.6" y="77.2" transform="matrix(0.97 -0.2433 0.2433 0.97 -51.3872 15.2083)" class="st1" width="4.5" height="277"/>
			<rect x="41.4" y="75.2" transform="matrix(0.97 -0.2433 0.2433 0.97 -50.6821 17.0391)" class="st1" width="4.5" height="277"/>
			<rect x="49.1" y="73.3" transform="matrix(0.97 -0.2433 0.2433 0.97 -49.975 18.8665)" class="st1" width="4.5" height="277"/>
			<rect x="56.9" y="71.3" transform="matrix(0.97 -0.2433 0.2433 0.97 -49.2676 20.6964)" class="st1" width="4.5" height="277"/>
			<rect x="64.7" y="69.4" transform="matrix(0.97 -0.2433 0.2433 0.97 -48.5625 22.5271)" class="st1" width="4.5" height="277"/>
			<rect x="72.4" y="67.4" transform="matrix(0.97 -0.2433 0.2433 0.97 -47.8553 24.3546)" class="st1" width="4.5" height="277"/>
			<rect x="80.2" y="65.5" transform="matrix(0.97 -0.2433 0.2433 0.97 -47.1479 26.1844)" class="st1" width="4.5" height="277"/>
			<rect x="88" y="63.5" transform="matrix(0.97 -0.2433 0.2433 0.97 -46.4428 28.0152)" class="st1" width="4.5" height="277"/>
			<rect x="95.7" y="61.6" transform="matrix(0.97 -0.2433 0.2433 0.97 -45.7357 29.8426)" class="st1" width="4.5" height="277"/>
			<rect x="103.5" y="59.6" transform="matrix(0.97 -0.2433 0.2433 0.97 -45.0283 31.6725)" class="st1" width="4.5" height="277"/>
			<rect x="111.2" y="57.7" transform="matrix(0.97 -0.2433 0.2433 0.97 -44.3216 33.5006)" class="st1" width="4.5" height="277"/>
			<rect x="119" y="55.8" transform="matrix(0.97 -0.2433 0.2433 0.97 -43.6145 35.3281)" class="st1" width="4.5" height="277"/>
			<rect x="126.7" y="53.8" transform="matrix(0.97 -0.2433 0.2433 0.97 -42.9094 37.1588)" class="st1" width="4.5" height="277"/>
			<rect x="134.5" y="51.9" transform="matrix(0.97 -0.2433 0.2433 0.97 -42.202 38.9887)" class="st1" width="4.5" height="277"/>
			<rect x="142.3" y="49.9" transform="matrix(0.97 -0.2433 0.2433 0.97 -41.4948 40.8161)" class="st1" width="4.5" height="277"/>
			<rect x="150" y="48" transform="matrix(0.97 -0.2433 0.2433 0.97 -40.7897 42.6469)" class="st1" width="4.5" height="277"/>
			<rect x="157.8" y="46" transform="matrix(0.97 -0.2433 0.2433 0.97 -40.0823 44.4767)" class="st1" width="4.5" height="277"/>
			<rect x="165.5" y="44.1" transform="matrix(0.97 -0.2433 0.2433 0.97 -39.3752 46.3042)" class="st1" width="4.5" height="277"/>
			<rect x="173.3" y="42.1" transform="matrix(0.97 -0.2433 0.2433 0.97 -38.6701 48.1349)" class="st1" width="4.5" height="277"/>
			<rect x="181.1" y="40.2" transform="matrix(0.97 -0.2433 0.2433 0.97 -37.9626 49.9648)" class="st1" width="4.5" height="277"/>
			<rect x="188.8" y="38.2" transform="matrix(0.97 -0.2433 0.2433 0.97 -37.2555 51.7922)" class="st1" width="4.5" height="277"/>
			<rect x="196.6" y="36.3" transform="matrix(0.97 -0.2433 0.2433 0.97 -36.5504 53.623)" class="st1" width="4.5" height="277"/>
			<rect x="204.3" y="34.3" transform="matrix(0.97 -0.2433 0.2433 0.97 -35.843 55.4528)" class="st1" width="4.5" height="277"/>
			<rect x="212.1" y="32.4" transform="matrix(0.97 -0.2433 0.2433 0.97 -35.1359 57.2803)" class="st1" width="4.5" height="277"/>
			<rect x="219.9" y="30.5" transform="matrix(0.97 -0.2433 0.2433 0.97 -34.4308 59.111)" class="st1" width="4.5" height="277"/>
			<rect x="227.6" y="28.5" transform="matrix(0.97 -0.2433 0.2433 0.97 -33.7233 60.9409)" class="st1" width="4.5" height="277"/>
			<rect x="235.4" y="26.6" transform="matrix(0.97 -0.2433 0.2433 0.97 -33.0185 62.7692)" class="st1" width="4.5" height="277"/>
			<rect x="243.1" y="24.6" transform="matrix(0.97 -0.2433 0.2433 0.97 -32.3111 64.5991)" class="st1" width="4.5" height="277"/>
			<rect x="250.9" y="22.7" transform="matrix(0.97 -0.2433 0.2433 0.97 -31.6013 66.4286)" class="st1" width="4.5" height="277"/>
			<rect x="258.7" y="20.7" transform="matrix(0.97 -0.2433 0.2433 0.97 -30.8964 68.257)" class="st1" width="4.5" height="277"/>
			<rect x="266.4" y="18.8" transform="matrix(0.97 -0.2433 0.2433 0.97 -30.189 70.0868)" class="st1" width="4.5" height="277"/>
			<rect x="274.2" y="16.8" transform="matrix(0.97 -0.2433 0.2433 0.97 -29.4816 71.9167)" class="st1" width="4.5" height="277"/>
			<rect x="281.9" y="14.9" transform="matrix(0.97 -0.2433 0.2433 0.97 -28.7768 73.745)" class="st1" width="4.5" height="277"/>
			<rect x="289.7" y="12.9" transform="matrix(0.97 -0.2433 0.2433 0.97 -28.0694 75.5749)" class="st1" width="4.5" height="277"/>
			<rect x="297.5" y="11" transform="matrix(0.97 -0.2433 0.2433 0.97 -27.362 77.4047)" class="st1" width="4.5" height="277"/>
			<rect x="305.2" y="9" transform="matrix(0.97 -0.2433 0.2433 0.97 -26.6571 79.2331)" class="st1" width="4.5" height="277"/>
			<rect x="313" y="7.1" transform="matrix(0.97 -0.2433 0.2433 0.97 -25.9506 81.0606)" class="st1" width="4.5" height="277"/>
			<rect x="320.7" y="5.2" transform="matrix(0.97 -0.2433 0.2433 0.97 -25.2455 82.8914)" class="st1" width="4.5" height="277"/>
		</g>
		<path class="st2" d="M12.6,30.3h321v256.1c0,16-13,28.9-28.9,28.9H12.6V30.3L12.6,30.3z"/>
		<path class="st3" d="M304,12.4l-19.1,41.3c-2.5,5.4-0.1,11.9,5.3,14.4l0,0c5.4,2.5,11.9,0.2,14.4-5.3l19.1-41.3"/>
		<path class="st3" d="M323.6,21.5l1.4-3c3-6.4,0.2-13.9-6.2-16.9l0,0c-6.4-3-13.9-0.2-16.9,6.2L276,64c-3.3,7.2-0.2,15.8,7,19.1
			l0,0c7.2,3.3,15.8,0.2,19.1-7l24-52"/>
		<g>
			<path class="st4" d="M286.5,100.4h-36.9c-10.8,0-19.6-8.8-19.6-19.6l0,0c0-10.8,8.8-19.6,19.6-19.6h13c11.6,0,21-9.4,21-21l0,0
				c0-11.6-9.4-21-21-21H72.9c-11.6,0-21,9.4-21,21l0,0c0,11.6,9.4,21,21,21H77c10.8,0,19.6,8.8,19.6,19.6l0,0
				c0,10.8-8.8,19.6-19.6,19.6H47.2c-11.6,0-21,9.4-21,21l0,0c0,11.6,9.4,21,21,21h1.8c11.5,0,20.8,9.3,20.8,20.8l0,0
				c0,11.5,9.3,20.8,20.8,20.8h158.2c11.5,0,20.8-9.3,20.8-20.8l0,0c0-11.5,9.3-20.8,20.8-20.8l0,0c9.6,0,17.4-7.8,17.4-17.3v-3.7
				C307.5,109.8,298.1,100.4,286.5,100.4L286.5,100.4L286.5,100.4z"/>
			<path class="st2" d="M158.6,2l4.8-0.6c34.9-4.4,66.7,20.4,71,55.2l0,0c4.4,34.9-20.4,66.7-55.2,71l-4.8,0.6
				c-34.9,4.4-66.7-20.4-71-55.2l0,0C99,38.1,123.7,6.3,158.6,2z"/>
			<circle class="st4" cx="76.6" cy="80.6" r="8.4"/>
			<circle class="st4" cx="250.1" cy="80.6" r="8.4"/>
			<g>
				<path class="st5" d="M193.6,35.5c1.1-1.7,1.8-3.8,1.8-6c0-6.1-5-11.1-11.1-11.1c-1.1,0-2.2,0.2-3.2,0.5
					c-1.2-2.8-4.4-4.6-8.1-4.6s-7.1,2.4-7.8,4.9c-4.8,0.4-8.5,4.4-8.5,9.3c0,5.2,4.2,9.4,9.4,9.4c3.3,0,6.2-1.7,7.9-4.4
					c0.8,2,2.1,3.7,3.8,5c-1.1,1.7-1.8,3.8-1.8,6c0,6.1,5,11.1,11.1,11.1s11.1-5,11.1-11.1C198.2,40.8,196.4,37.5,193.6,35.5
					L193.6,35.5L193.6,35.5z"/>
				<ellipse class="st6" cx="173.1" cy="20" rx="4.6" ry="3.2"/>
				
					<ellipse transform="matrix(0.7594 -0.6506 0.6506 0.7594 22.9712 111.7169)" class="st6" cx="162.5" cy="24.8" rx="2.5" ry="2"/>
				<path class="st7" d="M187.3,92.9l-27.5-5.7l9-43.6l25,5.2c3.2,0.7,5.2,3.8,4.6,7l-7.1,34.6C190.8,92.1,189.1,93.2,187.3,92.9
					L187.3,92.9L187.3,92.9z"/>
				<path class="st8" d="M179.6,91.3l-19.9-4.1l9-43.6l18.6,3.8c3.5,0.7,5.8,4.1,5,7.6l-6.7,32.2C185.1,90.1,182.4,91.9,179.6,91.3
					L179.6,91.3L179.6,91.3z"/>
				<polygon class="st9" points="127.1,141.1 120.8,161.6 107.5,157.8 114,137.1 				"/>
				<polygon class="st10" points="127.1,141.1 124,151.3 110.6,147.8 114,137.1 				"/>
				<path class="st8" d="M146.3,79.6l-24.4,22.6c-1.2,1.1-2,2.4-2.4,3.9l-9.2,35.9c-0.3,1.1,0.4,2.2,1.5,2.5l15.9,4.2
					c0.9,0.2,1.8-0.3,2-1.1l10.1-32.6c0.2-0.5,0.5-1,0.9-1.4l27.9-24.5L146.3,79.6L146.3,79.6z"/>
				<path class="st11" d="M107.5,157.8c-2.9,4-12.9,2.3-17.4,1.2c-1.3-0.3-2.6,0.4-3,1.7l-1.5,4.4c-0.3,0.8,0.2,1.7,1,1.9l30.7,8.3
					c0.9,0.2,1.8-0.4,1.9-1.3l1.6-12.5L107.5,157.8C107.5,157.8,107.5,157.8,107.5,157.8z"/>
				<path class="st7" d="M119.5,171.6l-33.3-8.5l-0.7,1.9c-0.3,0.8,0.2,1.7,1,1.9l30.7,8.3c0.9,0.2,1.8-0.4,1.9-1.3L119.5,171.6
					L119.5,171.6L119.5,171.6z"/>
				<path class="st12" d="M151.8,98.3c-0.1,0-0.2,0-0.3-0.1c-0.1-0.1-0.1-0.4,0-0.5l1.3-1.2c0.1-0.1,0.4-0.1,0.5,0
					c0.1,0.1,0.1,0.4,0,0.5l-1.3,1.2C152,98.3,151.9,98.3,151.8,98.3L151.8,98.3z"/>
				<path class="st12" d="M128.6,139.1c0,0-0.1,0-0.1,0c-0.2-0.1-0.3-0.2-0.2-0.4l1-3.3c0.1-0.2,0.2-0.3,0.4-0.2s0.3,0.2,0.2,0.4
					l-1,3.3C128.9,139,128.8,139.1,128.6,139.1L128.6,139.1L128.6,139.1z M130.6,132.5c0,0-0.1,0-0.1,0c-0.2-0.1-0.3-0.2-0.2-0.4
					l1-3.3c0.1-0.2,0.2-0.3,0.4-0.2s0.3,0.2,0.2,0.4l-1,3.3C130.9,132.4,130.8,132.5,130.6,132.5L130.6,132.5z M132.8,125.6
					c0,0-0.1,0-0.1,0c-0.2-0.1-0.3-0.2-0.2-0.4l1-3.3c0.1-0.2,0.2-0.3,0.4-0.2s0.3,0.2,0.2,0.4l-1,3.3
					C133,125.5,132.9,125.6,132.8,125.6L132.8,125.6L132.8,125.6z M134.8,118.9c0,0-0.1,0-0.1,0c-0.2-0.1-0.3-0.2-0.2-0.4l1-3.3
					c0.1-0.2,0.2-0.3,0.4-0.2s0.3,0.2,0.2,0.4l-1,3.3C135,118.8,134.9,118.9,134.8,118.9L134.8,118.9z M136.8,112.3c0,0-0.1,0-0.1,0
					c-0.2-0.1-0.3-0.2-0.2-0.4l0.3-0.8c0-0.1,0.1-0.1,0.1-0.2l1.9-1.7c0.1-0.1,0.4-0.1,0.5,0c0.1,0.1,0.1,0.4,0,0.5l-1.8,1.7
					l-0.2,0.8C137.1,112.3,136.9,112.4,136.8,112.3L136.8,112.3L136.8,112.3z M141.5,107.5c-0.1,0-0.2,0-0.3-0.1
					c-0.1-0.1-0.1-0.4,0-0.5l2.6-2.3c0.1-0.1,0.4-0.1,0.5,0c0.1,0.1,0.1,0.4,0,0.5l-2.6,2.3C141.7,107.5,141.6,107.5,141.5,107.5
					L141.5,107.5z M146.7,102.9c-0.1,0-0.2,0-0.3-0.1c-0.1-0.1-0.1-0.4,0-0.5l2.6-2.3c0.1-0.1,0.4-0.1,0.5,0c0.1,0.1,0.1,0.4,0,0.5
					l-2.6,2.3C146.8,102.9,146.8,102.9,146.7,102.9L146.7,102.9z"/>
				<path class="st12" d="M127.1,144.1C127.1,144.1,127,144.1,127.1,144.1c-0.3-0.1-0.4-0.3-0.3-0.4l0.5-1.7
					c0.1-0.2,0.2-0.3,0.4-0.2s0.3,0.2,0.2,0.4l-0.5,1.7C127.4,144,127.2,144.1,127.1,144.1L127.1,144.1L127.1,144.1z"/>
				<path class="st9" d="M233.3,74l-38,4.4c-2.6,0.3-5.1-0.8-6.7-2.9l-9.1-12.7c-2.3-3.2-1.9-7.6,1.1-10.1c3.3-2.7,8.1-2,10.6,1.4
					l6.6,9.1c0.4,0.5,1,0.8,1.7,0.8l33.5-1.1c0.3-1.1,1-2.2,2.1-2.7s2.3-0.3,3.2,0.3c0.9,0.7,1.3,2,0.9,3c2.3-1,5.1,0.2,6.5,2.3
					s1.2,5-0.1,7.2c-1.2,1.9-3.3,3.3-5.6,3.6S234.9,75.5,233.3,74L233.3,74L233.3,74z"/>
				<path class="st10" d="M246,71c-1.2,1.9-3.3,3.3-5.6,3.6c-2.3,0.3-5-1.1-6.6-2.7l-38,4.4c-2.6,0.3-5.1-0.8-6.7-2.9l-9.3-12.9
					c-1.1-1.5-1.5-3.4-1.3-5.1c-1,2.3-0.8,5,0.8,7.1l9.3,12.9c1.5,2.1,4.1,3.2,6.7,2.9l38-4.4c1.6,1.6,4.4,3,6.6,2.7
					s4.4-1.7,5.6-3.6c0.5-0.9,0.9-1.9,1-2.9C246.3,70.5,246.2,70.8,246,71L246,71L246,71z"/>
				<path class="st13" d="M191.2,54c-2.4-3.3-6.9-4-10.2-1.7c-3.3,2.4-4,6.9-1.7,10.2l3.9,5.4l11.8-8.6L191.2,54L191.2,54L191.2,54z
					"/>
				<path class="st14" d="M215,65.4l12.3-0.6c0.7,0,1.4,0.5,1.4,1.3v0c0,0.7-0.5,1.4-1.3,1.4l-12.3,0.6c-0.7,0-1.4-0.5-1.4-1.3v0
					C213.7,66,214.3,65.4,215,65.4z"/>
				<path class="st9" d="M111.3,16.4l17.4,36.9c0.9,2,2.9,3.3,5.1,3.3l18.6,0.5c4,0.1,7.6-2.9,7.8-7c0.2-4.1-3-7.5-7.1-7.7
					l-12.8-0.4c-0.7,0-1.4-0.4-1.8-1l-17.8-29.8c1-0.7,1.2-2.6,0.8-3.7c-0.3-1.1-1.4-2-2.6-2.1s-2.4,0.7-2.9,1.8
					c0.1-0.9-0.3-1.8-1.2-2.3c-0.8-0.5-1.8-0.5-2.8-0.3c-2.6,0.5-4.8,2.8-5.1,5.4S108.9,15.2,111.3,16.4L111.3,16.4L111.3,16.4z"/>
				<path class="st10" d="M154.4,55.2l-18.9-0.5c-2.2-0.1-4.2-1.4-5.1-3.3L113,14.4c-2.4-1.2-4.6-3.8-4.2-6.4
					c0.1-0.8,0.4-1.5,0.8-2.2c-1.3,1-2.3,2.5-2.5,4.2c-0.4,2.6,1.9,5.2,4.2,6.4l17.4,36.9c0.9,2,2.9,3.3,5.1,3.3l18.9,0.5
					c2.8,0.1,5.2-1.4,6.5-3.6C157.9,54.6,156.2,55.2,154.4,55.2L154.4,55.2z"/>
				<path class="st13" d="M146.6,57l6.1,0.2c4,0.1,7.4-3.1,7.5-7.1c0.1-4-3.1-7.4-7.1-7.5l-5.5-0.2L146.6,57L146.6,57L146.6,57z"/>
				<path class="st14" d="M127.3,27.2L127.3,27.2c0.5-0.3,1.2-0.1,1.6,0.4l6.8,11.7c0.3,0.6,0.1,1.3-0.4,1.6l0,0
					c-0.5,0.3-1.2,0.1-1.6-0.4l-6.8-11.7C126.5,28.2,126.7,27.5,127.3,27.2z"/>
				<polygon class="st9" points="197.9,124.9 221.3,134.8 215.9,147.6 192.4,137.4 				"/>
				<polygon class="st10" points="197.9,124.9 213.2,131.4 207.3,143.9 192.4,137.4 				"/>
				<path class="st11" d="M215.9,147.6c3.6,3.4,0.7,13.1-0.8,17.4c-0.4,1.2,0.1,2.6,1.3,3.2l4.1,2c0.8,0.4,1.7,0,2.1-0.8l11.9-29.5
					c0.3-0.8-0.1-1.8-1-2l-12.2-3.1L215.9,147.6L215.9,147.6L215.9,147.6z"/>
				<path class="st7" d="M231.1,137.3l-12.4,32l1.9,0.9c0.8,0.4,1.7,0,2.1-0.8l11.9-29.5c0.3-0.8-0.1-1.8-1-2L231.1,137.3
					L231.1,137.3z"/>
				<path class="st7" d="M181.4,86.9l-3.3,23.8c-0.1,1.1,0.4,2.1,1.4,2.6l29.6,14.1c0.8,0.4,1.2,1.4,0.8,2.2l-6.2,13.2
					c-0.4,0.8-1.3,1.2-2.2,0.8l-42.3-16.6c-4.1-1.7-6.6-5.9-6.1-10.3l2.3-19.3l1.6-14.2L181.4,86.9L181.4,86.9L181.4,86.9z"/>
				<path class="st15" d="M205.3,130.3c-0.1,0-0.1,0-0.1,0l-1.4-0.7c-0.2-0.1-0.2-0.3-0.2-0.5s0.3-0.2,0.5-0.2l1.4,0.7
					c0.2,0.1,0.2,0.3,0.2,0.5C205.5,130.2,205.4,130.3,205.3,130.3L205.3,130.3L205.3,130.3z M200.8,128.1c-0.1,0-0.1,0-0.1,0
					l-3.1-1.5c-0.2-0.1-0.2-0.3-0.2-0.5c0.1-0.2,0.3-0.2,0.5-0.2l3.1,1.5c0.2,0.1,0.2,0.3,0.2,0.5
					C201.1,128,200.9,128.1,200.8,128.1L200.8,128.1L200.8,128.1z M194.6,125.1c-0.1,0-0.1,0-0.1,0l-3.1-1.5
					c-0.2-0.1-0.2-0.3-0.2-0.5c0.1-0.2,0.3-0.2,0.5-0.2l3.1,1.5c0.2,0.1,0.2,0.3,0.2,0.5C194.8,125,194.7,125,194.6,125.1
					L194.6,125.1L194.6,125.1z M188.3,122c-0.1,0-0.1,0-0.1,0l-3.1-1.5c-0.2-0.1-0.2-0.3-0.2-0.5c0.1-0.2,0.3-0.2,0.5-0.2l3.1,1.5
					c0.2,0.1,0.2,0.3,0.2,0.5C188.6,121.9,188.4,122,188.3,122L188.3,122L188.3,122z M182.7,119.5c-0.1,0-0.1,0-0.1,0l-3.1-1.5
					c-0.2-0.1-0.2-0.3-0.2-0.5c0.1-0.2,0.3-0.2,0.5-0.2l3.1,1.5c0.2,0.1,0.2,0.3,0.2,0.5C183,119.4,182.9,119.5,182.7,119.5
					L182.7,119.5L182.7,119.5z M176.5,116.4c-0.1,0-0.1,0-0.1,0l-1.1-0.5c-0.8-0.4-1.4-1-1.7-1.8c-0.1-0.2,0-0.4,0.2-0.5
					s0.4,0,0.5,0.2c0.3,0.6,0.8,1.1,1.4,1.4l1.1,0.5c0.2,0.1,0.2,0.3,0.2,0.5C176.8,116.3,176.6,116.4,176.5,116.4L176.5,116.4
					L176.5,116.4z M174.1,110.8C174.1,110.8,174.1,110.8,174.1,110.8c-0.2,0-0.4-0.2-0.3-0.4l0.5-3.4c0-0.2,0.2-0.3,0.4-0.3
					c0.2,0,0.3,0.2,0.3,0.4l-0.5,3.4C174.5,110.7,174.3,110.8,174.1,110.8L174.1,110.8z M175.1,103.9
					C175.1,103.9,175.1,103.9,175.1,103.9c-0.2,0-0.4-0.2-0.3-0.4l0.5-3.4c0-0.2,0.2-0.3,0.4-0.3s0.3,0.2,0.3,0.4l-0.5,3.4
					C175.4,103.8,175.3,103.9,175.1,103.9z M176,97C176,97,176,97,176,97c-0.2,0-0.4-0.2-0.3-0.4l0.5-3.4c0-0.2,0.2-0.3,0.4-0.3
					c0.2,0,0.3,0.2,0.3,0.4l-0.5,3.4C176.3,96.9,176.2,97,176,97L176,97z"/>
				<path class="st16" d="M159.7,120.7L159.7,120.7c0.4-0.9,1.4-1.4,2.4-1l15.5,6.2c0.9,0.4,1.4,1.4,1,2.4l0,0
					c-0.4,0.9-1.4,1.4-2.4,1l-15.5-6.2C159.8,122.7,159.3,121.7,159.7,120.7z"/>
				<path class="st11" d="M176.8,91.1l-31-6.4c-2.2-0.5-3.7-2.7-3.2-4.9l4.3-20.8c2.2-10.8,12.8-17.8,23.6-15.5l0,0
					c10.8,2.2,17.8,12.8,15.5,23.6l-4.3,20.8C181.2,90.1,179,91.6,176.8,91.1C176.8,91.1,176.8,91.1,176.8,91.1z"/>
				<path class="st17" d="M146.3,79.6L146.3,79.6c0.2-0.8,1-1.4,1.8-1.2l12.3,2.5c0.8,0.2,1.4,1,1.2,1.8l0,0c-0.2,0.8-1,1.4-1.8,1.2
					l-12.3-2.5C146.6,81.3,146.1,80.5,146.3,79.6z"/>
				<path class="st18" d="M169.3,53c5.1,0.6,9.5-1.5,10.6-4.7c-2.6-2.4-5.8-4.1-9.5-4.8l0,0c-3.7-0.8-7.3-0.5-10.6,0.7
					c-0.1,0.2-0.1,0.5-0.1,0.7C159.4,48.7,163.6,52.4,169.3,53L169.3,53L169.3,53z"/>
				<path class="st7" d="M185.3,47l-3.6,17.6c-0.5,2.6-0.3,5.2,0.5,7.7l1.6,4.8l-1.3,6.2L179,75c-1.5-3.3-1.9-7.1-1.1-10.7l3.9-18.1
					L185.3,47z"/>
				<path class="st7" d="M149.8,64.1l-4.9,4.5l-1.2,5.8l8.5-7.8c1.3-1.2,2.3-2.8,2.8-4.5l5-17.8c-1.4,0.5-2.8,1.2-4.1,2l-4.2,14.9
					C151.3,62.2,150.7,63.3,149.8,64.1L149.8,64.1L149.8,64.1z"/>
				<path class="st10" d="M170.4,43.5L170.4,43.5c-2.6-0.5-5.3-0.5-7.8-0.1c-0.4,0.5-0.6,1.1-0.7,1.7c-0.3,2.7,3.1,5.3,7.5,5.8
					s8.2-1.4,8.5-4.1c0,0,0,0,0,0C175.8,45.2,173.2,44.1,170.4,43.5L170.4,43.5L170.4,43.5z"/>
				<circle class="st9" cx="182.4" cy="36.4" r="3"/>
				<circle class="st10" cx="182.4" cy="36.4" r="1.5"/>
				<path class="st9" d="M177.9,34.2c-2.8,0-5.3-1.5-6.6-3.8c-0.2-0.4-0.7-0.4-0.9,0c-0.8,1.4-2.4,2.3-4.1,2.3c-1.1,0-2.1-0.3-2.9-1
					c-0.3-0.2-0.8,0-0.9,0.3l-0.6,2.5c-1.3,5.2,1.9,10.5,7.1,11.8l0,0c5.2,1.3,10.5-1.9,11.8-7.1l1.5-6.1c0.1-0.2-0.2-0.3-0.3-0.2
					C180.9,33.7,179.5,34.2,177.9,34.2L177.9,34.2L177.9,34.2z"/>
				<path class="st19" d="M169,40.8c0.3,1.3,1.4,2.3,2.9,2.3c1.6,0,2.9-1.3,2.9-2.9c0,0,0,0,0,0L169,40.8L169,40.8L169,40.8z"/>
				<path class="st20" d="M171.8,43.1c0.8,0,1.5-0.3,2.1-0.8c-0.3-0.5-0.9-0.9-1.6-0.9c-0.9,0-1.6,0.6-1.8,1.4
					C170.9,43,171.3,43.1,171.8,43.1L171.8,43.1L171.8,43.1z"/>
				<path class="st18" d="M173.4,40.3l-3.6,0.4c0.4,0.4,1,0.7,1.6,0.7C172.3,41.4,173,40.9,173.4,40.3L173.4,40.3z"/>
				<ellipse class="st8" cx="167.4" cy="36.3" rx="0.6" ry="0.8"/>
				<ellipse class="st8" cx="171.9" cy="36.3" rx="0.6" ry="0.8"/>
			</g>
			<path class="st0" d="M213.6,183.9c0.2-0.8,0.4-1.7,0.4-2.6c0-5-4.1-9-9-9c-1.5,0-3,0.4-4.2,1.1c-1.6-5.6-6.7-9.8-12.9-9.8
				c-3.2,0-6.1,1.1-8.4,2.9c-2.9-4.1-7.7-6.7-13.1-6.7c-7,0-13,4.5-15.2,10.8c-0.9-0.2-1.7-0.3-2.7-0.3c-6,0-10.9,4.9-10.9,10.9
				c0,1,0.1,1.9,0.4,2.8L213.6,183.9L213.6,183.9z"/>
			<g>
				<path class="st1" d="M286.4,182.2h18.1c1.2,0,2.1,1,2.1,2.1v1c0,1.2-1,2.1-2.1,2.1h-18.1c-1.2,0-2.1-1-2.1-2.1v-1
					C284.3,183.1,285.3,182.2,286.4,182.2z"/>
				<path class="st1" d="M39.8,182.2H280c1.2,0,2.1,1,2.1,2.1v1c0,1.2-1,2.1-2.1,2.1H39.8c-1.2,0-2.2-1-2.2-2.1v-1
					C37.7,183.1,38.7,182.2,39.8,182.2z"/>
			</g>
		</g>
	</g>
</g>
<g>
	<g>
		<path d="M129,258c-0.8,0-1.6,0.1-2.4,0.4c-0.8,0.3-1.4,0.6-1.9,1.1c-0.5,0.4-0.7,1-0.7,1.5c0,0.8,0.2,1.4,0.7,1.7
			c0.5,0.4,1.1,0.7,1.8,0.8s1.6,0.3,2.5,0.4c2.1,0.3,4,0.8,5.7,1.6c1.7,0.8,3.1,1.8,4.2,3.1c1.1,1.3,1.6,2.9,1.6,4.7
			c0,1.7-0.4,3.1-1.3,4.4c-0.8,1.3-2,2.4-3.4,3.2c-1.4,0.8-3,1.4-4.7,1.6v4.4h-4.3v-4.4c-1.4-0.2-2.8-0.6-4-1.2
			c-1.3-0.6-2.3-1.3-3.3-2.2c-0.9-0.9-1.6-2-2.1-3.2l6.1-2.2c0.1,0.4,0.5,0.8,1,1.2c0.5,0.4,1.1,0.7,1.9,1c0.8,0.3,1.6,0.4,2.5,0.4
			c0.9,0,1.7-0.1,2.4-0.4c0.8-0.3,1.4-0.6,1.9-1c0.5-0.4,0.7-1,0.7-1.6c0-0.6-0.2-1.1-0.7-1.5c-0.5-0.4-1.1-0.7-1.9-1
			c-0.8-0.2-1.6-0.4-2.4-0.5c-2.2-0.3-4.2-0.8-5.9-1.6c-1.7-0.7-3.1-1.7-4.1-3c-1-1.3-1.5-2.9-1.5-4.9c0-1.7,0.4-3.2,1.3-4.5
			c0.8-1.3,2-2.4,3.4-3.2c1.4-0.8,3-1.4,4.7-1.6v-4.4h4.3v4.4c1.4,0.2,2.7,0.6,4,1.2c1.3,0.6,2.4,1.4,3.3,2.3c0.9,0.9,1.6,2,2,3.2
			l-6.1,2.2c-0.1-0.4-0.5-0.8-1-1.2c-0.5-0.4-1.1-0.7-1.9-0.9C130.8,258.1,129.9,258,129,258z"/>
		<path d="M144.2,282.3l13.7-23.8h-14.9V252h22.4v6.5l-13.7,23.8H144.2z"/>
		<path d="M171.3,282.8c-0.9,0-1.7-0.3-2.3-0.9c-0.6-0.6-0.9-1.4-0.9-2.3c0-0.9,0.3-1.7,0.9-2.3c0.6-0.6,1.4-1,2.3-1
			c0.9,0,1.7,0.3,2.3,1c0.6,0.6,1,1.4,1,2.3c0,0.9-0.3,1.7-1,2.3C172.9,282.5,172.2,282.8,171.3,282.8z"/>
		<path d="M191.6,282.3v-6.7h-12.8v-6.5l11.3-17.1h7.9v17.1h2.2v6.5h-2.2v6.7H191.6z M186.3,269.1h5.3v-8.3L186.3,269.1z"/>
		<path d="M208.4,282.3l5.4-9.2c-1.4-0.2-2.6-0.5-3.8-1.2c-1.2-0.6-2.2-1.4-3-2.4c-0.9-1-1.5-2.1-2-3.3c-0.5-1.2-0.7-2.5-0.7-3.9
			c0-1.5,0.3-2.9,0.8-4.2c0.6-1.3,1.3-2.5,2.3-3.4c1-1,2.1-1.8,3.5-2.3c1.3-0.6,2.7-0.8,4.2-0.8c2,0,3.8,0.5,5.4,1.5
			c1.6,1,2.9,2.3,3.9,3.9c1,1.6,1.5,3.4,1.5,5.4c0,0.9-0.1,1.8-0.3,2.8c-0.2,0.9-0.6,1.8-1.1,2.6l-8.4,14.6H208.4z M215,266.6
			c0.9,0,1.6-0.2,2.3-0.6s1.2-1,1.5-1.6c0.4-0.7,0.5-1.4,0.5-2.1c0-0.8-0.2-1.6-0.6-2.2c-0.4-0.6-0.9-1.2-1.6-1.5
			c-0.7-0.4-1.4-0.6-2.1-0.6c-0.8,0-1.6,0.2-2.2,0.6c-0.7,0.4-1.2,0.9-1.6,1.6c-0.4,0.7-0.6,1.3-0.6,2.1c0,0.8,0.2,1.5,0.6,2.2
			c0.4,0.7,0.9,1.2,1.5,1.6C213.4,266.4,214.2,266.6,215,266.6z"/>
	</g>
</g>
<g>
	<g>
		<path d="M103.3,236.2c-1.3,0-2.5-0.3-3.7-0.8c-1.2-0.5-2.2-1.2-3-2.2c-0.9-0.9-1.6-2-2-3.2c-0.5-1.2-0.7-2.5-0.7-3.9
			c0-1.4,0.2-2.7,0.7-3.9c0.5-1.2,1.2-2.3,2-3.2c0.9-0.9,1.9-1.6,3-2.2c1.2-0.5,2.4-0.8,3.7-0.8c1.6,0,3,0.4,4.3,1.1
			c1.3,0.7,2.4,1.7,3.3,2.9l-2.1,1.1c-0.6-0.8-1.5-1.5-2.4-2c-1-0.5-2-0.8-3.1-0.8c-1,0-1.9,0.2-2.8,0.6c-0.9,0.4-1.6,1-2.3,1.7
			c-0.7,0.7-1.2,1.5-1.5,2.5s-0.6,1.9-0.6,3c0,1.1,0.2,2.1,0.6,3c0.4,0.9,0.9,1.8,1.5,2.5c0.7,0.7,1.4,1.3,2.3,1.7
			c0.9,0.4,1.8,0.6,2.8,0.6c1.1,0,2.2-0.3,3.1-0.8c1-0.5,1.8-1.2,2.4-2l2.1,1.1c-0.9,1.2-2,2.2-3.3,2.9
			C106.3,235.8,104.9,236.2,103.3,236.2z"/>
		<path d="M113.7,235.8v-20.7h2.3v20.7H113.7z"/>
		<path d="M130.4,222h2.3v13.8h-2.3l-0.1-2.3c-0.4,0.8-1,1.5-1.8,1.9c-0.8,0.5-1.7,0.7-2.7,0.7c-1,0-2-0.2-2.8-0.6
			c-0.9-0.4-1.7-0.9-2.3-1.6c-0.7-0.7-1.2-1.5-1.6-2.3c-0.4-0.9-0.6-1.8-0.6-2.9c0-1,0.2-1.9,0.6-2.8c0.4-0.9,0.9-1.6,1.5-2.3
			s1.4-1.2,2.3-1.5c0.9-0.4,1.8-0.6,2.8-0.6c1.1,0,2,0.3,2.9,0.8c0.8,0.5,1.5,1.2,2,2L130.4,222z M125.7,233.9
			c0.9,0,1.7-0.2,2.4-0.7c0.7-0.4,1.2-1.1,1.5-1.8c0.4-0.8,0.5-1.6,0.5-2.5c0-0.9-0.2-1.8-0.6-2.6c-0.4-0.8-0.9-1.4-1.6-1.8
			c-0.7-0.4-1.5-0.7-2.4-0.7c-0.9,0-1.7,0.2-2.5,0.7c-0.7,0.5-1.3,1.1-1.8,1.8c-0.4,0.8-0.7,1.6-0.7,2.5s0.2,1.8,0.7,2.5
			c0.5,0.8,1.1,1.4,1.8,1.8C124,233.7,124.8,233.9,125.7,233.9z"/>
		<path d="M139.7,236.1c-0.7,0-1.5-0.2-2.2-0.4c-0.7-0.3-1.3-0.6-1.9-1c-0.5-0.4-0.9-0.9-1.2-1.5l2-0.9c0.1,0.3,0.4,0.6,0.7,0.9
			c0.4,0.3,0.8,0.5,1.2,0.7c0.5,0.2,0.9,0.2,1.4,0.2c0.5,0,1-0.1,1.4-0.2c0.4-0.2,0.8-0.4,1.1-0.7c0.3-0.3,0.4-0.7,0.4-1.1
			c0-0.5-0.2-0.8-0.5-1.1c-0.3-0.3-0.7-0.5-1.2-0.6c-0.5-0.2-0.9-0.3-1.4-0.4c-0.9-0.2-1.8-0.5-2.5-0.9c-0.7-0.3-1.3-0.8-1.8-1.3
			c-0.4-0.5-0.6-1.2-0.6-2c0-0.9,0.2-1.6,0.7-2.2c0.5-0.6,1.1-1.1,1.9-1.5c0.8-0.3,1.6-0.5,2.5-0.5c1.1,0,2.1,0.2,3.1,0.7
			c0.9,0.5,1.6,1.1,2.1,1.9l-1.9,1.1c-0.2-0.3-0.4-0.6-0.7-0.9c-0.3-0.3-0.7-0.5-1.1-0.6c-0.4-0.1-0.8-0.2-1.3-0.2
			c-0.5,0-1,0.1-1.5,0.2c-0.5,0.2-0.8,0.4-1.1,0.7c-0.3,0.3-0.4,0.7-0.4,1.2c0,0.5,0.1,0.8,0.4,1.1s0.7,0.4,1.2,0.6
			c0.5,0.1,1,0.3,1.6,0.5c0.8,0.3,1.6,0.6,2.4,0.9c0.7,0.4,1.3,0.8,1.8,1.3c0.4,0.5,0.7,1.2,0.7,1.9c0,0.8-0.3,1.6-0.8,2.2
			c-0.5,0.6-1.2,1.1-2,1.4C141.4,236,140.6,236.1,139.7,236.1z"/>
		<path d="M151.6,236.1c-0.7,0-1.5-0.2-2.2-0.4c-0.7-0.3-1.3-0.6-1.9-1c-0.5-0.4-0.9-0.9-1.2-1.5l2-0.9c0.1,0.3,0.4,0.6,0.7,0.9
			c0.4,0.3,0.8,0.5,1.2,0.7c0.5,0.2,0.9,0.2,1.4,0.2c0.5,0,1-0.1,1.4-0.2c0.4-0.2,0.8-0.4,1.1-0.7c0.3-0.3,0.4-0.7,0.4-1.1
			c0-0.5-0.2-0.8-0.5-1.1c-0.3-0.3-0.7-0.5-1.2-0.6c-0.5-0.2-0.9-0.3-1.4-0.4c-0.9-0.2-1.8-0.5-2.5-0.9c-0.7-0.3-1.3-0.8-1.8-1.3
			c-0.4-0.5-0.6-1.2-0.6-2c0-0.9,0.2-1.6,0.7-2.2c0.5-0.6,1.1-1.1,1.9-1.5c0.8-0.3,1.6-0.5,2.5-0.5c1.1,0,2.1,0.2,3.1,0.7
			c0.9,0.5,1.6,1.1,2.1,1.9l-1.9,1.1c-0.2-0.3-0.4-0.6-0.7-0.9c-0.3-0.3-0.7-0.5-1.1-0.6c-0.4-0.1-0.8-0.2-1.3-0.2
			c-0.5,0-1,0.1-1.5,0.2c-0.5,0.2-0.8,0.4-1.1,0.7c-0.3,0.3-0.4,0.7-0.4,1.2c0,0.5,0.1,0.8,0.4,1.1s0.7,0.4,1.2,0.6
			c0.5,0.1,1,0.3,1.6,0.5c0.8,0.3,1.6,0.6,2.4,0.9c0.7,0.4,1.3,0.8,1.8,1.3c0.4,0.5,0.7,1.2,0.7,1.9c0,0.8-0.3,1.6-0.8,2.2
			c-0.5,0.6-1.2,1.1-2,1.4C153.4,236,152.5,236.1,151.6,236.1z"/>
		<path d="M165.2,236.2c-1.3,0-2.4-0.3-3.5-1c-1-0.7-1.9-1.5-2.5-2.6c-0.6-1.1-0.9-2.3-0.9-3.7c0-1,0.2-2,0.5-2.8s0.9-1.7,1.5-2.3
			c0.6-0.7,1.4-1.2,2.2-1.6c0.8-0.4,1.7-0.6,2.7-0.6c1,0,2,0.2,2.9,0.6c0.9,0.4,1.6,1,2.2,1.7c0.6,0.7,1.1,1.6,1.4,2.6
			c0.3,1,0.4,2,0.3,3.2h-11.3c0.1,0.8,0.4,1.5,0.8,2.1c0.4,0.6,0.9,1.1,1.6,1.5c0.6,0.4,1.3,0.5,2.1,0.6c0.8,0,1.6-0.2,2.3-0.6
			c0.7-0.4,1.2-1,1.6-1.8l2.4,0.6c-0.6,1.2-1.4,2.2-2.5,3C167.9,235.8,166.6,236.2,165.2,236.2z M160.7,227.9h9
			c-0.1-0.8-0.3-1.5-0.7-2.1c-0.4-0.6-1-1.2-1.6-1.5s-1.4-0.6-2.1-0.6s-1.5,0.2-2.1,0.6c-0.6,0.4-1.2,0.9-1.6,1.5
			C161.1,226.4,160.8,227.1,160.7,227.9z"/>
		<path d="M178.7,236.1c-0.7,0-1.5-0.2-2.2-0.4c-0.7-0.3-1.3-0.6-1.9-1c-0.5-0.4-0.9-0.9-1.2-1.5l2-0.9c0.1,0.3,0.4,0.6,0.7,0.9
			c0.4,0.3,0.8,0.5,1.2,0.7c0.5,0.2,0.9,0.2,1.4,0.2c0.5,0,1-0.1,1.4-0.2c0.4-0.2,0.8-0.4,1.1-0.7c0.3-0.3,0.4-0.7,0.4-1.1
			c0-0.5-0.2-0.8-0.5-1.1c-0.3-0.3-0.7-0.5-1.2-0.6c-0.5-0.2-0.9-0.3-1.4-0.4c-0.9-0.2-1.8-0.5-2.5-0.9c-0.7-0.3-1.3-0.8-1.8-1.3
			c-0.4-0.5-0.6-1.2-0.6-2c0-0.9,0.2-1.6,0.7-2.2c0.5-0.6,1.1-1.1,1.9-1.5c0.8-0.3,1.6-0.5,2.5-0.5c1.1,0,2.1,0.2,3.1,0.7
			c0.9,0.5,1.6,1.1,2.1,1.9l-1.9,1.1c-0.2-0.3-0.4-0.6-0.7-0.9c-0.3-0.3-0.7-0.5-1.1-0.6c-0.4-0.1-0.8-0.2-1.3-0.2
			c-0.5,0-1,0.1-1.5,0.2c-0.5,0.2-0.8,0.4-1.1,0.7c-0.3,0.3-0.4,0.7-0.4,1.2c0,0.5,0.1,0.8,0.4,1.1c0.3,0.2,0.7,0.4,1.2,0.6
			c0.5,0.1,1,0.3,1.6,0.5c0.8,0.3,1.6,0.6,2.4,0.9c0.7,0.4,1.3,0.8,1.8,1.3c0.4,0.5,0.7,1.2,0.7,1.9c0,0.8-0.3,1.6-0.8,2.2
			c-0.5,0.6-1.2,1.1-2,1.4S179.6,236.1,178.7,236.1z"/>
		<path d="M196.2,218.6v3.4h4.1v2.3h-4.1v11.5h-2.3v-11.5h-1.8V222h1.8v-3.4c0-0.7,0.2-1.4,0.5-1.9c0.3-0.6,0.8-1,1.4-1.4
			c0.6-0.3,1.2-0.5,1.9-0.5c0.5,0,1,0.1,1.5,0.3c0.5,0.2,0.9,0.5,1.3,0.9l-1.7,1.6c-0.1-0.2-0.3-0.3-0.5-0.4
			c-0.2-0.1-0.4-0.1-0.6-0.1c-0.4,0-0.8,0.1-1.1,0.4C196.3,217.8,196.2,218.2,196.2,218.6z"/>
		<path d="M202.8,235.8V222h2.3v1.7c0.5-0.6,1.1-1.2,1.9-1.5c0.7-0.4,1.6-0.6,2.4-0.6c0.5,0,1.1,0.1,1.5,0.2l-0.9,2.3
			c-0.4-0.1-0.7-0.2-1.1-0.2c-0.7,0-1.3,0.2-1.9,0.5c-0.6,0.3-1,0.8-1.4,1.4c-0.3,0.6-0.5,1.2-0.5,1.9v8.1H202.8z"/>
		<path d="M218,236.2c-1.3,0-2.4-0.3-3.5-1c-1-0.7-1.9-1.5-2.5-2.6c-0.6-1.1-0.9-2.3-0.9-3.7c0-1,0.2-2,0.5-2.8s0.9-1.7,1.5-2.3
			c0.6-0.7,1.4-1.2,2.2-1.6c0.8-0.4,1.7-0.6,2.7-0.6c1.3,0,2.4,0.3,3.5,1c1,0.7,1.9,1.5,2.5,2.6c0.6,1.1,0.9,2.3,0.9,3.7
			c0,1-0.2,1.9-0.5,2.8c-0.4,0.9-0.9,1.6-1.5,2.3c-0.6,0.7-1.4,1.2-2.2,1.6C219.9,236,219,236.2,218,236.2z M218,233.9
			c0.9,0,1.6-0.2,2.3-0.7c0.7-0.5,1.2-1.1,1.6-1.8c0.4-0.8,0.6-1.6,0.6-2.5c0-0.9-0.2-1.7-0.6-2.5c-0.4-0.8-1-1.4-1.7-1.8
			c-0.7-0.5-1.5-0.7-2.3-0.7c-0.9,0-1.6,0.2-2.3,0.7c-0.7,0.5-1.2,1.1-1.6,1.8c-0.4,0.8-0.6,1.6-0.6,2.5c0,0.9,0.2,1.8,0.6,2.5
			c0.4,0.8,1,1.3,1.7,1.8C216.4,233.6,217.2,233.9,218,233.9z"/>
		<path d="M227.2,235.8V222h2.3v1.7c0.5-0.6,1.1-1.2,1.8-1.5c0.7-0.4,1.6-0.6,2.4-0.6c1,0,2,0.2,2.8,0.7c0.8,0.5,1.5,1.2,2,2
			c0.5-0.8,1.2-1.5,2-2c0.8-0.5,1.8-0.7,2.8-0.7c1,0,2,0.3,2.8,0.8c0.8,0.5,1.5,1.2,2,2c0.5,0.8,0.8,1.8,0.8,2.8v8.6h-2.3v-8
			c0-0.7-0.2-1.3-0.5-1.9s-0.8-1-1.3-1.4c-0.6-0.4-1.2-0.5-1.9-0.5s-1.3,0.2-1.9,0.5c-0.6,0.3-1,0.8-1.3,1.4s-0.5,1.2-0.5,2v8H237
			v-8c0-0.7-0.2-1.4-0.5-2s-0.8-1-1.3-1.4c-0.6-0.3-1.2-0.5-1.9-0.5c-0.7,0-1.3,0.2-1.9,0.5c-0.6,0.4-1,0.8-1.3,1.4
			s-0.5,1.2-0.5,1.9v8H227.2z"/>
	</g>
</g>
</svg>
