<?xml version="1.0" encoding="UTF-8"?>
<svg id="Layer_2" data-name="Layer 2" xmlns="http://www.w3.org/2000/svg" viewBox="0 0 1068.84 171.93">
  <defs>
    <style>
      .cls-1 {
        fill: #4cf;
      }

      .cls-1, .cls-2, .cls-3, .cls-4, .cls-5, .cls-6, .cls-7, .cls-8, .cls-9, .cls-10, .cls-11, .cls-12, .cls-13 {
        stroke-width: 0px;
      }

      .cls-2, .cls-4 {
        fill: #ffd166;
      }

      .cls-14 {
        stroke: #171738;
        stroke-miterlimit: 10;
      }

      .cls-14, .cls-4, .cls-6, .cls-8, .cls-9, .cls-10 {
        fill-rule: evenodd;
      }

      .cls-14, .cls-5, .cls-6 {
        fill: #fff;
      }

      .cls-7 {
        fill: #f14b94;
      }

      .cls-8 {
        fill: #ffdc8b;
      }

      .cls-9 {
        fill: #1082a9;
      }

      .cls-10 {
        fill: #8c6e35;
        opacity: .7;
      }

      .cls-11 {
        fill: #e6adec;
      }

      .cls-12 {
        fill: #3fa9f5;
      }

      .cls-13 {
        fill: #b2dd45;
      }
    </style>
  </defs>
  <g id="Layer_1-2" data-name="Layer 1">
    <g>
      <path class="cls-3" d="M905.53,79.99s0,0,0,0c0,0,0,0,0,0,0-.18-.02-.36-.06-.54,0-.02-.01-.03-.01-.05-.11-.49-.35-.96-.73-1.34-.01-.01-.02-.02-.04-.03l-18.25-18.25c-1.06-1.06-2.8-1.06-3.86,0h0c-1.06,1.06-1.06,2.8,0,3.86l13.62,13.62h-25.1c-1.5,0-2.73,1.23-2.73,2.73s1.23,2.73,2.73,2.73h25.1l-13.62,13.62c-1.06,1.06-1.06,2.8,0,3.86,1.06,1.06,2.8,1.06,3.86,0l18.25-18.25s.02-.02.04-.03c.38-.38.62-.85.73-1.34,0-.02.01-.03.01-.05.04-.18.06-.36.06-.54Z"/>
      <path class="cls-3" d="M664.22,79.99s0,0,0,0c0,0,0,0,0,0,0-.18-.02-.36-.06-.54,0-.02-.01-.03-.01-.05-.11-.49-.35-.96-.73-1.34-.01-.01-.02-.02-.04-.03l-18.25-18.25c-1.06-1.06-2.8-1.06-3.86,0h0c-1.06,1.06-1.06,2.8,0,3.86l13.62,13.62h-25.1c-1.5,0-2.73,1.23-2.73,2.73s1.23,2.73,2.73,2.73h25.1l-13.62,13.62c-1.06,1.06-1.06,2.8,0,3.86,1.06,1.06,2.8,1.06,3.86,0l18.25-18.25s.02-.02.04-.03c.38-.38.62-.85.73-1.34,0-.02.01-.03.01-.05.04-.18.06-.36.06-.54Z"/>
      <path class="cls-3" d="M431.85,79.99s0,0,0,0c0,0,0,0,0,0,0-.18-.02-.36-.06-.54,0-.02-.01-.03-.01-.05-.11-.49-.35-.96-.73-1.34-.01-.01-.02-.02-.04-.03l-18.25-18.25c-1.06-1.06-2.8-1.06-3.86,0h0c-1.06,1.06-1.06,2.8,0,3.86l13.62,13.62h-25.1c-1.5,0-2.73,1.23-2.73,2.73s1.23,2.73,2.73,2.73h25.1l-13.62,13.62c-1.06,1.06-1.06,2.8,0,3.86,1.06,1.06,2.8,1.06,3.86,0l18.25-18.25s.02-.02.04-.03c.38-.38.62-.85.73-1.34,0-.02.01-.03.01-.05.04-.18.06-.36.06-.54Z"/>
      <path class="cls-3" d="M202.82,79.99s0,0,0,0c0,0,0,0,0,0,0-.18-.02-.36-.06-.54,0-.02-.01-.03-.01-.05-.11-.49-.35-.96-.73-1.34-.01-.01-.02-.02-.04-.03l-18.25-18.25c-1.06-1.06-2.8-1.06-3.86,0h0c-1.06,1.06-1.06,2.8,0,3.86l13.62,13.62h-25.1c-1.5,0-2.73,1.23-2.73,2.73s1.23,2.73,2.73,2.73h25.1l-13.62,13.62c-1.06,1.06-1.06,2.8,0,3.86,1.06,1.06,2.8,1.06,3.86,0l18.25-18.25s.02-.02.04-.03c.38-.38.62-.85.73-1.34,0-.02.01-.03.01-.05.04-.18.06-.36.06-.54Z"/>
      <g>
        <circle class="cls-1" cx="76.68" cy="75.91" r="65.55" transform="translate(-31.22 76.45) rotate(-45)"/>
        <path class="cls-6" d="M75.15,83.15c-3.3,0-6.43-.71-9.26-1.98l20.2,34.98,5.25-17.64,17.9,4.27-16.33-28.28c-4.14,5.26-10.56,8.64-17.77,8.64Z"/>
        <path class="cls-9" d="M86.8,80.79l11.14,19.3,11.3,2.7-15.68-27.16c-1.9,2.12-4.19,3.88-6.77,5.16Z"/>
        <path class="cls-9" d="M65.21,79.99l20.88,36.17,3.14-10.56-12.96-22.45c-4.04-.08-7.81-1.22-11.06-3.16Z"/>
        <path class="cls-6" d="M58.33,75.63l-15.68,27.16,17.9-4.27,5.25,17.64,20.88-36.17c-3.38,2.01-7.32,3.16-11.53,3.16-6.68,0-12.69-2.9-16.82-7.52Z"/>
        <path class="cls-9" d="M58.33,75.63l-15.68,27.16,11.3-2.7,11.14-19.3c-2.57-1.28-4.87-3.04-6.77-5.16Z"/>
        <path class="cls-9" d="M62.66,105.6l3.14,10.56,20.88-36.17c-3.25,1.93-7.03,3.08-11.06,3.16l-12.96,22.45Z"/>
        <path class="cls-10" d="M63.89,66l-8.39,14.54c11.34,11.16,29.6,10.63,40.3-1.03l-7.8-13.51h-24.11Z"/>
        <circle class="cls-2" cx="75.15" cy="60.56" r="24.98" transform="translate(-4.1 5.48) rotate(-4.07)"/>
        <path class="cls-8" d="M75.15,35.59v49.95c13.79,0,24.98-11.18,24.98-24.98s-11.18-24.98-24.98-24.98Z"/>
        <polygon class="cls-14" points="26.53 7.98 29.45 10.75 32.97 8.8 35.1 12.21 39 11.18 40.22 15.02 44.25 15 44.48 19.02 48.39 20 47.61 23.95 51.15 25.87 49.41 29.51 52.37 32.25 49.78 35.33 51.96 38.72 48.69 41.07 49.95 44.9 46.2 46.36 46.47 50.37 42.48 50.86 41.74 54.82 37.75 54.29 36.06 57.94 32.32 56.44 29.77 59.56 26.53 57.17 23.28 59.56 20.73 56.44 17 57.94 15.3 54.29 11.31 54.82 10.58 50.86 6.58 50.37 6.85 46.36 3.1 44.9 4.37 41.07 1.1 38.72 3.27 35.33 .69 32.25 3.64 29.51 1.9 25.87 5.44 23.95 4.67 20 8.57 19.02 8.8 15 12.83 15.02 14.05 11.18 17.95 12.21 20.09 8.8 23.61 10.75 26.53 7.98"/>
        <g>
          <path class="cls-3" d="M19.04,24.82h4.66l7,19.29h-4.38l-1.1-3.03h-7.69l-1.1,3.03h-4.38l7-19.29ZM19.04,36.94h4.66l-2.34-6.39-2.31,6.39Z"/>
          <path class="cls-3" d="M35.51,44.1v-15.15h-2.62l1.1-4.13h5.65v19.29h-4.13Z"/>
        </g>
        <g>
          <path class="cls-3" d="M20.99,152.2v-1.96h7.06v1.96h-2.45v12.63h2.45v1.96h-7.06v-1.96h2.45v-12.63h-2.45ZM27.54,152.2v-1.96h2.11c1.6,0,2.85.36,3.77,1.08.91.72,1.37,1.78,1.37,3.18s-.46,2.41-1.39,3.06c-.93.64-2.28.97-4.06.97h-4.36v-1.03h4.4c.76,0,1.36-.13,1.82-.38.45-.26.78-.59.99-1.01.21-.42.31-.87.31-1.36,0-.85-.3-1.49-.9-1.9s-1.39-.63-2.37-.63h-1.68ZM27.35,164.82h2.15c1.09,0,1.97-.23,2.63-.7s.99-1.15.99-2.05c0-.39-.07-.75-.21-1.07s-.36-.61-.67-.85-.69-.43-1.16-.56c-.47-.13-1.04-.2-1.71-.2h-4.38v-1.35h4.38c.97,0,1.83.08,2.58.23s1.38.39,1.9.71.9.76,1.17,1.3c.27.54.4,1.19.4,1.96,0,1.44-.45,2.55-1.34,3.35-.89.8-2.13,1.19-3.71,1.19h-3.01v-1.96ZM30.96,157.97h1.06v.53h-1.06v-.53Z"/>
          <path class="cls-3" d="M43.81,167c-1.24,0-2.31-.26-3.21-.78-.9-.52-1.6-1.23-2.08-2.14s-.73-1.96-.73-3.15.25-2.26.74-3.18c.49-.93,1.18-1.65,2.07-2.18.89-.52,1.92-.79,3.1-.79s2.23.26,3.1.78c.87.52,1.54,1.24,2,2.17s.7,1.99.7,3.2c0,.18,0,.31-.01.41s-.02.18-.03.25h-2.05c.01-.11.03-.23.03-.36,0-.13.01-.28.01-.46,0-.8-.15-1.51-.45-2.13-.3-.62-.72-1.11-1.28-1.47-.56-.36-1.23-.54-2.02-.54s-1.43.18-2,.54c-.57.36-1.02.87-1.34,1.51-.32.65-.48,1.39-.48,2.23s.16,1.53.47,2.16c.31.63.76,1.12,1.34,1.47.58.36,1.28.53,2.1.53s1.57-.2,2.17-.59,1.05-.93,1.34-1.61l1.96.74c-.43,1.04-1.12,1.86-2.08,2.46-.96.6-2.08.9-3.37.9ZM39.1,161.59v-1.57h9.73l.62,1.57h-10.35Z"/>
          <path class="cls-3" d="M57.47,171.68c-1.03,0-1.97-.09-2.82-.29-.85-.19-1.54-.49-2.05-.9-.51-.41-.76-.95-.76-1.62s.26-1.15.78-1.48,1.18-.54,1.99-.63v-.23l1.99.21c-.76,0-1.35.09-1.77.27s-.71.4-.87.67c-.16.27-.24.53-.24.78,0,.43.17.77.52,1,.34.23.81.4,1.39.5s1.21.14,1.9.14c1.39,0,2.41-.17,3.06-.52.66-.35.98-.85.98-1.51,0-.88-.55-1.32-1.66-1.32h-4.47c-.92,0-1.64-.17-2.18-.5s-.8-.81-.8-1.44c0-.59.24-1.05.71-1.38.48-.32,1.15-.53,2.01-.62v-.4l1.97.61h-1.04c-.54,0-.96.08-1.25.23-.29.15-.44.38-.44.7s.14.51.42.63c.28.12.71.18,1.27.18h3.74c.76,0,1.42.13,1.97.4s.97.64,1.25,1.12c.29.48.43,1.06.43,1.73s-.19,1.3-.56,1.86-1,1-1.88,1.33c-.88.33-2.08.49-3.6.49ZM57.17,163.02c-.95,0-1.79-.17-2.53-.51-.74-.34-1.32-.82-1.75-1.44s-.64-1.33-.64-2.16.21-1.55.63-2.17c.42-.62,1-1.1,1.74-1.45.74-.34,1.59-.52,2.55-.52s1.81.17,2.55.52c.74.35,1.31.83,1.71,1.45.21.31.37.64.47,1s.15.75.15,1.17c0,.82-.21,1.54-.63,2.16-.42.62-1,1.09-1.73,1.44-.74.34-1.58.51-2.52.51ZM57.17,161.33c.54,0,1.03-.1,1.46-.3s.77-.48,1.02-.84c.25-.36.37-.79.37-1.27s-.12-.92-.37-1.29c-.25-.37-.59-.65-1.02-.85-.43-.2-.92-.3-1.46-.3s-1.05.1-1.49.3c-.44.2-.78.49-1.03.85-.25.37-.37.8-.37,1.29s.12.91.37,1.27c.25.36.59.64,1.03.84.44.2.93.3,1.49.3ZM62.05,158.92l-.66-1.3-.51-.76.55-.23c-.02-.08-.04-.16-.05-.24-.01-.08-.02-.16-.02-.25,0-.34.08-.63.23-.89s.37-.45.65-.59c.28-.14.6-.21.98-.21.1,0,.2,0,.29.01.09,0,.17.02.24.03v2c-.16-.02-.3-.04-.43-.05-.12-.01-.25-.02-.37-.02-.27,0-.49.03-.65.09-.16.06-.28.14-.35.25s-.11.22-.11.36c0,.12.02.26.05.43.04.17.07.37.1.59.03.22.05.47.05.74Z"/>
          <path class="cls-3" d="M69.95,165.01h2.13v1.77h-6.46v-1.77h2.26v-8.24h-2.26v-1.77h4.32v10.01ZM67.56,149.7h2.53v2.63h-2.53v-2.63Z"/>
          <path class="cls-3" d="M78.08,165.01h1.89v1.77h-6.23v-1.77h2.27v-8.24h-2.27v-1.77h4.33v10.01ZM84.05,165.01v-5.71c0-.86-.2-1.53-.59-2.03s-1-.74-1.81-.74c-.67,0-1.28.17-1.82.52s-.97.84-1.28,1.48c-.31.64-.47,1.41-.47,2.32l-.46-2.35h.55c.12-.81.37-1.5.75-2.05s.85-.96,1.44-1.24,1.24-.42,1.99-.42c1.23,0,2.17.37,2.82,1.1.65.73.97,1.78.97,3.15v5.98h2.12v1.77h-6.05v-1.77h1.86Z"/>
          <path class="cls-3" d="M94.11,165.01h1.89v1.77h-6.23v-1.77h2.27v-8.24h-2.27v-1.77h4.33v10.01ZM100.09,165.01v-5.71c0-.86-.2-1.53-.59-2.03s-1-.74-1.81-.74c-.67,0-1.28.17-1.82.52s-.97.84-1.28,1.48c-.31.64-.47,1.41-.47,2.32l-.46-2.35h.55c.12-.81.37-1.5.75-2.05s.85-.96,1.44-1.24,1.24-.42,1.99-.42c1.23,0,2.17.37,2.82,1.1.65.73.97,1.78.97,3.15v5.98h2.12v1.77h-6.05v-1.77h1.86Z"/>
          <path class="cls-3" d="M111.92,167c-1.24,0-2.31-.26-3.21-.78-.9-.52-1.6-1.23-2.08-2.14s-.73-1.96-.73-3.15.25-2.26.74-3.18c.49-.93,1.18-1.65,2.07-2.18.89-.52,1.92-.79,3.1-.79s2.23.26,3.1.78c.87.52,1.54,1.24,2,2.17s.7,1.99.7,3.2c0,.18,0,.31-.01.41s-.02.18-.03.25h-2.05c.01-.11.03-.23.03-.36,0-.13.01-.28.01-.46,0-.8-.15-1.51-.45-2.13-.3-.62-.72-1.11-1.28-1.47-.56-.36-1.23-.54-2.02-.54s-1.43.18-2,.54c-.57.36-1.02.87-1.34,1.51-.32.65-.48,1.39-.48,2.23s.16,1.53.47,2.16c.31.63.76,1.12,1.34,1.47.58.36,1.28.53,2.1.53s1.57-.2,2.17-.59,1.05-.93,1.34-1.61l1.96.74c-.43,1.04-1.12,1.86-2.08,2.46-.96.6-2.08.9-3.37.9ZM107.22,161.59v-1.57h9.73l.62,1.57h-10.35Z"/>
          <path class="cls-3" d="M124.12,165.01h2.17v1.77h-6.5v-1.77h2.27v-8.24h-2.27v-1.77h4.33v10.01ZM128.41,157.23c-.15-.04-.31-.08-.48-.1-.17-.02-.33-.03-.5-.03-1,0-1.81.36-2.41,1.08-.6.72-.9,1.72-.9,3l-.46-2.63h.55c.1-.82.3-1.51.6-2.06s.71-.97,1.2-1.25c.49-.28,1.06-.42,1.69-.42.12,0,.24,0,.36.02s.23.03.35.05v2.34Z"/>
        </g>
      </g>
      <g>
        <circle class="cls-12" cx="301.1" cy="75.94" r="65.55" transform="translate(-8.83 95.19) rotate(-17.71)"/>
        <polygon class="cls-6" points="276.25 27.9 276.25 56.84 299.17 73.53 322.09 56.84 322.09 27.9 299.17 27.9 276.25 27.9"/>
        <polygon class="cls-9" points="276.25 56.84 289.96 66.82 289.96 27.9 276.25 27.9 276.25 56.84"/>
        <polygon class="cls-4" points="307.94 90.64 299.17 76.58 290.4 90.64 274.33 94.63 284.99 107.31 283.82 123.84 299.17 117.62 314.53 123.84 313.36 107.31 324.02 94.63 307.94 90.64"/>
        <polygon class="cls-8" points="307.94 90.64 299.17 76.58 299.17 117.62 314.53 123.84 313.36 107.31 324.02 94.63 307.94 90.64"/>
        <rect class="cls-2" x="292.64" y="73.53" width="13.06" height="3.05"/>
        <polygon class="cls-9" points="308.39 66.82 322.09 56.84 322.09 27.9 308.39 27.9 308.39 66.82"/>
        <polygon class="cls-14" points="246.56 7.98 249.48 10.75 253 8.8 255.14 12.21 259.04 11.18 260.26 15.02 264.29 15 264.52 19.02 268.42 20 267.65 23.95 271.19 25.87 269.45 29.51 272.4 32.25 269.82 35.33 271.99 38.72 268.72 41.07 269.99 44.9 266.24 46.36 266.51 50.37 262.51 50.86 261.78 54.82 257.79 54.29 256.09 57.94 252.36 56.44 249.81 59.56 246.56 57.17 243.32 59.56 240.77 56.44 237.03 57.94 235.34 54.29 231.35 54.82 230.61 50.86 226.61 50.37 226.89 46.36 223.14 44.9 224.4 41.07 221.13 38.72 223.31 35.33 220.72 32.25 223.68 29.51 221.94 25.87 225.48 23.95 224.7 20 228.61 19.02 228.84 15 232.87 15.02 234.09 11.18 237.99 12.21 240.12 8.8 243.64 10.75 246.56 7.98"/>
        <g>
          <path class="cls-3" d="M235.07,24.82h4.66l7,19.29h-4.38l-1.1-3.03h-7.69l-1.1,3.03h-4.38l7-19.29ZM235.07,36.94h4.66l-2.34-6.39-2.31,6.39Z"/>
          <path class="cls-3" d="M248.93,44.1v-3.69c.51-.32,1.16-.77,1.93-1.34.77-.57,1.58-1.22,2.43-1.94s1.64-1.44,2.38-2.18,1.34-1.44,1.81-2.11c.47-.67.7-1.23.7-1.69s-.11-.9-.34-1.29c-.23-.39-.54-.7-.92-.93-.38-.23-.81-.34-1.27-.34s-.9.12-1.28.34-.7.54-.93.93c-.23.39-.35.82-.35,1.29h-4.13c0-1.27.31-2.41.92-3.42.62-1.01,1.43-1.81,2.44-2.4,1.02-.59,2.12-.88,3.33-.88s2.34.3,3.35.9c1.01.6,1.82,1.4,2.42,2.42s.9,2.14.9,3.38c0,.62-.08,1.2-.25,1.76s-.41,1.1-.72,1.64c-.32.54-.71,1.09-1.18,1.65-.47.56-1.01,1.15-1.62,1.77-.61.62-1.28,1.29-2.02,2h5.79v4.13h-13.39Z"/>
        </g>
        <g>
          <path class="cls-3" d="M202.63,166.78v-1.96h2.45v-12.63h-2.45v-1.96h4.61v14.59h2.45v1.96h-7.06ZM206.95,159.39v-1.89h4.45c1.16,0,2.04-.22,2.64-.65.6-.44.9-1.09.9-1.96,0-.93-.32-1.61-.97-2.04s-1.52-.64-2.6-.64h-4.68v-1.96h4.75c1.89,0,3.31.39,4.27,1.18.95.79,1.43,1.89,1.43,3.31,0,.5-.08,1.02-.24,1.56-.16.54-.45,1.05-.86,1.52-.42.47-1.01.85-1.78,1.14-.77.29-1.75.43-2.96.43h-4.36Z"/>
          <path class="cls-3" d="M222.62,165.01h2.17v1.77h-6.5v-1.77h2.27v-8.24h-2.27v-1.77h4.33v10.01ZM226.91,157.23c-.15-.04-.31-.08-.48-.1-.17-.02-.33-.03-.5-.03-1,0-1.81.36-2.41,1.08-.6.72-.9,1.72-.9,3l-.46-2.63h.55c.1-.82.3-1.51.6-2.06s.71-.97,1.2-1.25c.49-.28,1.06-.42,1.69-.42.12,0,.24,0,.36.02s.23.03.35.05v2.34Z"/>
          <path class="cls-3" d="M234.45,167c-1.24,0-2.31-.26-3.21-.78-.9-.52-1.6-1.23-2.08-2.14s-.73-1.96-.73-3.15.25-2.26.74-3.18c.49-.93,1.18-1.65,2.07-2.18.89-.52,1.92-.79,3.1-.79s2.23.26,3.1.78c.87.52,1.54,1.24,2,2.17s.7,1.99.7,3.2c0,.18,0,.31-.01.41s-.02.18-.03.25h-2.05c.01-.11.03-.23.03-.36,0-.13.01-.28.01-.46,0-.8-.15-1.51-.45-2.13-.3-.62-.72-1.11-1.28-1.47-.56-.36-1.23-.54-2.02-.54s-1.43.18-2,.54c-.57.36-1.02.87-1.34,1.51-.32.65-.48,1.39-.48,2.23s.16,1.53.47,2.16c.31.63.76,1.12,1.34,1.47.58.36,1.28.53,2.1.53s1.57-.2,2.17-.59,1.05-.93,1.34-1.61l1.96.74c-.43,1.04-1.12,1.86-2.08,2.46-.96.6-2.08.9-3.37.9ZM229.74,161.59v-1.57h9.73l.62,1.57h-10.35Z"/>
          <path class="cls-3" d="M248.34,159.69v1.78h-6.23v-1.78h6.23Z"/>
          <path class="cls-3" d="M254.17,165.01h2.13v1.77h-6.46v-1.77h2.26v-8.24h-2.26v-1.77h4.32v10.01ZM251.78,149.7h2.53v2.63h-2.53v-2.63Z"/>
          <path class="cls-3" d="M262.3,165.01h1.89v1.77h-6.23v-1.77h2.27v-8.24h-2.27v-1.77h4.33v10.01ZM268.27,165.01v-5.71c0-.86-.2-1.53-.59-2.03s-1-.74-1.81-.74c-.67,0-1.28.17-1.82.52s-.97.84-1.28,1.48c-.31.64-.47,1.41-.47,2.32l-.46-2.35h.55c.12-.81.37-1.5.75-2.05s.85-.96,1.44-1.24,1.24-.42,1.99-.42c1.23,0,2.17.37,2.82,1.1.65.73.97,1.78.97,3.15v5.98h2.12v1.77h-6.05v-1.77h1.86Z"/>
          <path class="cls-3" d="M277.5,163.62c0,.51.09.88.28,1.13.19.25.46.37.82.37s.63-.13.83-.38c.19-.25.29-.63.29-1.12v-1.15h1.84v1.13c0,.73-.1,1.34-.31,1.85s-.53.89-.97,1.16c-.44.26-1.01.4-1.71.4s-1.31-.14-1.77-.41c-.46-.28-.8-.66-1.02-1.17s-.34-1.1-.34-1.8v-6.85h-1.98v-1.77h1.98v-2.97h2.07v2.97h3.86l-.02,1.77h-3.84v6.85Z"/>
          <path class="cls-3" d="M289.64,167c-1.24,0-2.31-.26-3.21-.78-.9-.52-1.6-1.23-2.08-2.14s-.73-1.96-.73-3.15.25-2.26.74-3.18c.49-.93,1.18-1.65,2.07-2.18.89-.52,1.92-.79,3.1-.79s2.23.26,3.1.78c.87.52,1.54,1.24,2,2.17s.7,1.99.7,3.2c0,.18,0,.31-.01.41s-.02.18-.03.25h-2.05c.01-.11.03-.23.03-.36,0-.13.01-.28.01-.46,0-.8-.15-1.51-.45-2.13-.3-.62-.72-1.11-1.28-1.47-.56-.36-1.23-.54-2.02-.54s-1.43.18-2,.54c-.57.36-1.02.87-1.34,1.51-.32.65-.48,1.39-.48,2.23s.16,1.53.47,2.16c.31.63.76,1.12,1.34,1.47.58.36,1.28.53,2.1.53s1.57-.2,2.17-.59,1.05-.93,1.34-1.61l1.96.74c-.43,1.04-1.12,1.86-2.08,2.46-.96.6-2.08.9-3.37.9ZM284.93,161.59v-1.57h9.73l.62,1.57h-10.35Z"/>
          <path class="cls-3" d="M301.84,165.01h2.17v1.77h-6.5v-1.77h2.27v-8.24h-2.27v-1.77h4.33v10.01ZM306.13,157.23c-.15-.04-.31-.08-.48-.1-.17-.02-.33-.03-.5-.03-1,0-1.81.36-2.41,1.08-.6.72-.9,1.72-.9,3l-.46-2.63h.55c.1-.82.3-1.51.6-2.06s.71-.97,1.2-1.25c.49-.28,1.06-.42,1.69-.42.12,0,.24,0,.36.02s.23.03.35.05v2.34Z"/>
          <path class="cls-3" d="M307.63,166.78v-1.77h2.19v-8.24h-2.19v-1.77h4.26v10.01h1.88v1.77h-6.14ZM315.75,166.78v-1.77h1.87v-5.75c0-.85-.19-1.52-.58-2-.38-.48-.98-.73-1.79-.73-.64,0-1.21.17-1.72.52s-.91.84-1.2,1.49-.44,1.42-.44,2.31l-.47-2.35h.56c.17-1.25.62-2.19,1.35-2.82s1.63-.94,2.7-.94c1.22,0,2.13.37,2.74,1.1s.92,1.77.92,3.1v6.08h2.11v1.77h-6.05ZM323.54,166.78v-1.77h1.86v-5.75c0-.85-.19-1.52-.58-2-.38-.48-.98-.73-1.78-.73-.64,0-1.21.17-1.72.52s-.91.84-1.2,1.49c-.29.65-.44,1.42-.44,2.31l-.47-2.35h.55c.18-1.25.63-2.19,1.36-2.82.73-.63,1.63-.94,2.7-.94,1.22,0,2.13.37,2.74,1.1.61.73.91,1.77.91,3.1v6.08h2.12v1.77h-6.05Z"/>
          <path class="cls-3" d="M337.24,167c-1.24,0-2.31-.26-3.21-.78-.9-.52-1.6-1.23-2.08-2.14s-.73-1.96-.73-3.15.25-2.26.74-3.18c.49-.93,1.18-1.65,2.07-2.18.89-.52,1.92-.79,3.1-.79s2.23.26,3.1.78c.87.52,1.54,1.24,2,2.17s.7,1.99.7,3.2c0,.18,0,.31-.01.41s-.02.18-.03.25h-2.05c.01-.11.03-.23.03-.36,0-.13.01-.28.01-.46,0-.8-.15-1.51-.45-2.13-.3-.62-.72-1.11-1.28-1.47-.56-.36-1.23-.54-2.02-.54s-1.43.18-2,.54c-.57.36-1.02.87-1.34,1.51-.32.65-.48,1.39-.48,2.23s.16,1.53.47,2.16c.31.63.76,1.12,1.34,1.47.58.36,1.28.53,2.1.53s1.57-.2,2.17-.59,1.05-.93,1.34-1.61l1.96.74c-.43,1.04-1.12,1.86-2.08,2.46-.96.6-2.08.9-3.37.9ZM332.53,161.59v-1.57h9.73l.62,1.57h-10.35Z"/>
          <path class="cls-3" d="M351,154.76c.92,0,1.75.2,2.49.59.74.4,1.36.97,1.86,1.73.5.76.86,1.68,1.07,2.76l-1.32,1.01c0-.83-.15-1.56-.46-2.2-.3-.64-.74-1.14-1.32-1.5s-1.27-.54-2.1-.54-1.49.18-2.07.54c-.58.36-1.02.87-1.33,1.51-.31.64-.46,1.38-.46,2.23s.16,1.57.48,2.22c.32.64.77,1.14,1.35,1.51.58.36,1.25.54,2.02.54s1.5-.18,2.07-.54c.58-.36,1.02-.87,1.33-1.52.31-.65.47-1.4.47-2.25l.33,2.73h-.48c-.15.67-.4,1.27-.75,1.79-.35.52-.81.92-1.39,1.21-.57.29-1.25.44-2.05.44s-1.55-.15-2.22-.45-1.26-.73-1.75-1.28c-.5-.55-.88-1.2-1.15-1.95-.27-.75-.41-1.57-.41-2.45,0-1.2.24-2.27.71-3.19s1.14-1.65,2-2.17,1.88-.78,3.05-.78ZM355.04,166.78v-4.25l.07-1.02v-1.52l-.07-1.88v-6.94h-2.98v-1.77h5.05v15.61h2.11v1.77h-4.18Z"/>
          <path class="cls-3" d="M365.5,165.01h2.13v1.77h-6.46v-1.77h2.26v-8.24h-2.26v-1.77h4.32v10.01ZM363.11,149.7h2.53v2.63h-2.53v-2.63Z"/>
          <path class="cls-3" d="M373.03,166.94c-1.23,0-2.17-.28-2.82-.84-.65-.56-.97-1.38-.97-2.46,0-.97.27-1.71.82-2.24.55-.52,1.46-.92,2.73-1.18l5.07-1.04v1.45l-4.73,1.07c-.59.14-1.03.35-1.32.64-.29.29-.43.68-.43,1.17,0,.55.17.96.51,1.24.34.28.83.42,1.47.42.78,0,1.48-.19,2.07-.57s1.06-.91,1.4-1.59c.33-.68.5-1.48.5-2.41l.55,2.6h-.71c-.17,1.23-.6,2.16-1.3,2.79s-1.65.95-2.85.95ZM378.47,166.78c-.39,0-.69-.12-.89-.37-.21-.25-.31-.6-.31-1.05v-2.98l.19-.42-.11-1.36-.08-.79v-.87c0-.5-.1-.92-.31-1.25-.21-.34-.52-.59-.93-.76-.41-.17-.91-.26-1.51-.26-.86,0-1.53.17-2.02.52-.49.35-.81.87-.95,1.57l-1.98-.41c.13-.8.41-1.46.82-2,.41-.53.97-.93,1.67-1.19.7-.26,1.55-.4,2.54-.4,1.06,0,1.93.15,2.63.45.7.3,1.23.75,1.58,1.35s.53,1.35.53,2.26v6.19h1.66v1.77h-2.53Z"/>
          <path class="cls-3" d="M386.31,163.62c0,.51.09.88.28,1.13.19.25.46.37.82.37s.63-.13.83-.38c.19-.25.29-.63.29-1.12v-1.15h1.84v1.13c0,.73-.1,1.34-.31,1.85s-.53.89-.97,1.16c-.44.26-1.01.4-1.71.4s-1.31-.14-1.77-.41c-.46-.28-.8-.66-1.02-1.17s-.34-1.1-.34-1.8v-6.85h-1.98v-1.77h1.98v-2.97h2.07v2.97h3.86l-.02,1.77h-3.84v6.85Z"/>
          <path class="cls-3" d="M398.45,167c-1.24,0-2.31-.26-3.21-.78-.9-.52-1.6-1.23-2.08-2.14s-.73-1.96-.73-3.15.25-2.26.74-3.18c.49-.93,1.18-1.65,2.07-2.18.89-.52,1.92-.79,3.1-.79s2.23.26,3.1.78c.87.52,1.54,1.24,2,2.17s.7,1.99.7,3.2c0,.18,0,.31-.01.41s-.02.18-.03.25h-2.05c.01-.11.03-.23.03-.36,0-.13.01-.28.01-.46,0-.8-.15-1.51-.45-2.13-.3-.62-.72-1.11-1.28-1.47-.56-.36-1.23-.54-2.02-.54s-1.43.18-2,.54c-.57.36-1.02.87-1.34,1.51-.32.65-.48,1.39-.48,2.23s.16,1.53.47,2.16c.31.63.76,1.12,1.34,1.47.58.36,1.28.53,2.1.53s1.57-.2,2.17-.59,1.05-.93,1.34-1.61l1.96.74c-.43,1.04-1.12,1.86-2.08,2.46-.96.6-2.08.9-3.37.9ZM393.75,161.59v-1.57h9.73l.62,1.57h-10.35Z"/>
        </g>
      </g>
      <g>
        <circle class="cls-11" cx="770.82" cy="76.53" r="65.55" transform="translate(171.66 567.47) rotate(-45)"/>
        <polygon class="cls-9" points="789.86 95.15 750.31 95.15 750.31 98.59 744.72 98.59 744.72 121.12 795.44 121.12 795.44 98.59 789.86 98.59 789.86 95.15"/>
        <polygon class="cls-8" points="763.64 95.15 775.39 95.15 798.9 18.92 770.31 34.94 763.64 95.15"/>
        <circle class="cls-2" cx="769.23" cy="13.76" r="13.76" transform="translate(215.58 547.96) rotate(-45)"/>
        <polygon class="cls-4" points="740.14 18.92 763.64 95.15 775.39 95.15 770.31 34.94 740.14 18.92"/>
        <rect class="cls-5" x="752.3" y="103.59" width="35.56" height="12.37"/>
        <polygon class="cls-14" points="718.09 7.98 721.01 10.75 724.53 8.8 726.67 12.21 730.56 11.18 731.78 15.02 735.81 15 736.04 19.02 739.95 20 739.17 23.95 742.71 25.87 740.98 29.51 743.93 32.25 741.34 35.33 743.52 38.72 740.25 41.07 741.51 44.9 737.76 46.36 738.04 50.37 734.04 50.86 733.31 54.82 729.31 54.29 727.62 57.94 723.88 56.44 721.33 59.56 718.09 57.17 714.84 59.56 712.29 56.44 708.56 57.94 706.86 54.29 702.87 54.82 702.14 50.86 698.14 50.37 698.41 46.36 694.66 44.9 695.93 41.07 692.66 38.72 694.83 35.33 692.25 32.25 695.2 29.51 693.47 25.87 697 23.95 696.23 20 700.13 19.02 700.37 15 704.39 15.02 705.62 11.18 709.51 12.21 711.65 8.8 715.17 10.75 718.09 7.98"/>
        <g>
          <path class="cls-3" d="M703.15,44.1v-19.29h7.3c1.06,0,2.01.22,2.87.65.85.44,1.53,1.05,2.03,1.85.5.8.75,1.74.75,2.81,0,.4-.05.83-.15,1.27-.1.45-.28.86-.54,1.25-.26.39-.62.69-1.1.91.62.15,1.1.42,1.46.83.36.4.63.87.81,1.4.18.53.3,1.06.35,1.6.06.54.08,1.02.08,1.45,0,.97-.26,1.86-.79,2.65s-1.23,1.43-2.11,1.9c-.88.47-1.86.71-2.92.71h-8.04ZM707.28,32.05h2.67c.55,0,1.02-.18,1.42-.55.39-.37.59-.83.59-1.39s-.2-1.01-.59-1.31c-.4-.3-.87-.45-1.42-.45h-2.67v3.71ZM707.28,40.6h3.47c.48,0,.91-.11,1.3-.34.39-.23.7-.54.94-.93.23-.39.35-.84.35-1.35,0-.42-.12-.82-.35-1.21-.23-.38-.55-.69-.94-.93-.39-.24-.82-.36-1.3-.36h-3.47v5.11Z"/>
          <path class="cls-3" d="M719.21,44.1v-3.69c.51-.32,1.16-.77,1.93-1.34.77-.57,1.58-1.22,2.43-1.94s1.64-1.44,2.38-2.18,1.34-1.44,1.81-2.11c.47-.67.7-1.23.7-1.69s-.11-.9-.34-1.29c-.23-.39-.54-.7-.92-.93-.38-.23-.81-.34-1.27-.34s-.9.12-1.28.34-.7.54-.93.93c-.23.39-.35.82-.35,1.29h-4.13c0-1.27.31-2.41.92-3.42s1.43-1.81,2.45-2.4c1.01-.59,2.12-.88,3.33-.88s2.34.3,3.35.9c1.01.6,1.82,1.4,2.42,2.42s.9,2.14.9,3.38c0,.62-.08,1.2-.25,1.76-.17.56-.41,1.1-.72,1.64-.32.54-.71,1.09-1.18,1.65-.47.56-1.01,1.15-1.62,1.77-.61.62-1.28,1.29-2.02,2h5.79v4.13h-13.39Z"/>
        </g>
        <g>
          <path class="cls-3" d="M666.25,150.77h6.85v1.96h-2.37v8.26c0,1.36-.26,2.54-.79,3.51-.53.98-1.28,1.73-2.26,2.26-.98.53-2.15.79-3.53.79s-2.55-.26-3.53-.79c-.98-.53-1.74-1.28-2.26-2.26-.52-.98-.79-2.15-.79-3.51v-8.26h-2.38v-1.96h6.98v1.96h-2.45v8.26c0,.94.17,1.74.52,2.42.35.67.85,1.19,1.51,1.54s1.46.54,2.41.54,1.76-.18,2.43-.54c.67-.36,1.19-.88,1.56-1.55s.54-1.47.54-2.41v-8.26h-2.46v-1.96Z"/>
          <path class="cls-3" d="M673.34,171.93v-1.77h2.19v-12.86h-2.19v-1.77h4.26v3.96l-.07,1.53v.63l.07,1.22v7.29h2.12v1.77h-6.38ZM681.62,167.55c-.92,0-1.75-.2-2.49-.59-.73-.4-1.35-.97-1.85-1.73-.5-.75-.86-1.68-1.08-2.76l1.33-1.01c0,.83.15,1.56.45,2.19.3.63.74,1.13,1.32,1.5.58.36,1.28.54,2.09.54s1.5-.18,2.07-.54c.58-.36,1.02-.87,1.33-1.51.31-.64.46-1.38.46-2.22s-.16-1.59-.48-2.23c-.32-.64-.77-1.14-1.35-1.51-.58-.36-1.26-.54-2.03-.54s-1.49.18-2.07.54c-.58.36-1.02.87-1.33,1.52-.31.65-.46,1.4-.46,2.25l-.34-2.73h.5c.14-.67.39-1.27.74-1.79.36-.52.82-.92,1.39-1.22s1.25-.44,2.04-.44,1.56.15,2.23.45,1.26.73,1.75,1.28.87,1.2,1.14,1.95.41,1.57.41,2.46c0,1.2-.24,2.25-.7,3.18-.47.92-1.13,1.65-2,2.17-.86.52-1.88.78-3.06.78Z"/>
          <path class="cls-3" d="M688.85,171.93v-1.77h2.19v-12.86h-2.19v-1.77h4.26v3.96l-.07,1.53v.63l.07,1.22v7.29h2.12v1.77h-6.38ZM697.13,167.55c-.92,0-1.75-.2-2.49-.59-.73-.4-1.35-.97-1.85-1.73-.5-.75-.86-1.68-1.08-2.76l1.33-1.01c0,.83.15,1.56.45,2.19.3.63.74,1.13,1.32,1.5.58.36,1.28.54,2.09.54s1.5-.18,2.07-.54c.58-.36,1.02-.87,1.33-1.51.31-.64.46-1.38.46-2.22s-.16-1.59-.48-2.23c-.32-.64-.77-1.14-1.35-1.51-.58-.36-1.26-.54-2.03-.54s-1.49.18-2.07.54c-.58.36-1.02.87-1.33,1.52s-.46,1.4-.46,2.25l-.34-2.73h.5c.14-.67.39-1.27.74-1.79.36-.52.82-.92,1.39-1.22s1.25-.44,2.04-.44,1.56.15,2.23.45,1.26.73,1.75,1.28.87,1.2,1.14,1.95c.27.75.41,1.57.41,2.46,0,1.2-.23,2.25-.7,3.18-.47.92-1.14,1.65-2,2.17s-1.88.78-3.06.78Z"/>
          <path class="cls-3" d="M711.33,167.53c-1.24,0-2.31-.26-3.21-.78-.9-.52-1.6-1.23-2.08-2.14-.48-.91-.73-1.96-.73-3.15s.25-2.26.74-3.18,1.18-1.65,2.07-2.18c.89-.52,1.92-.79,3.1-.79s2.23.26,3.1.78,1.54,1.24,2,2.17.7,1.99.7,3.2c0,.18,0,.31-.01.41,0,.1-.02.18-.03.25h-2.05c.01-.11.03-.23.03-.36,0-.13.01-.28.01-.46,0-.8-.15-1.51-.45-2.13-.3-.62-.72-1.11-1.28-1.47-.56-.36-1.23-.54-2.02-.54s-1.43.18-2,.54-1.02.87-1.34,1.51c-.32.65-.48,1.39-.48,2.23s.16,1.53.47,2.16.76,1.12,1.34,1.47c.58.36,1.28.53,2.1.53s1.57-.2,2.17-.59c.6-.39,1.05-.93,1.34-1.61l1.96.74c-.42,1.04-1.12,1.86-2.08,2.46-.96.6-2.08.9-3.37.9ZM706.62,162.12v-1.57h9.73l.62,1.57h-10.35Z"/>
          <path class="cls-3" d="M723.53,165.54h2.17v1.77h-6.5v-1.77h2.27v-8.24h-2.27v-1.77h4.33v10.01ZM727.82,157.76c-.15-.04-.31-.08-.48-.1-.17-.02-.33-.03-.5-.03-1,0-1.81.36-2.41,1.08-.6.72-.9,1.72-.9,3l-.46-2.63h.55c.1-.82.3-1.51.61-2.06.31-.55.71-.97,1.2-1.25.49-.28,1.06-.42,1.69-.42.12,0,.24,0,.36.02.11.01.23.03.35.05v2.34Z"/>
          <path class="cls-3" d="M734.88,152.72v-1.96h7.06v1.96h-2.45v12.63h2.45v1.96h-7.06v-1.96h2.45v-12.63h-2.45Z"/>
          <path class="cls-3" d="M748.06,165.54h1.89v1.77h-6.23v-1.77h2.27v-8.24h-2.27v-1.77h4.33v10.01ZM754.03,165.54v-5.71c0-.86-.2-1.53-.59-2.03-.39-.5-1-.74-1.81-.74-.67,0-1.28.17-1.82.52s-.97.84-1.28,1.48c-.32.64-.47,1.41-.47,2.32l-.46-2.35h.55c.12-.81.37-1.5.75-2.05s.85-.96,1.44-1.24,1.24-.42,1.99-.42c1.23,0,2.17.37,2.82,1.1.65.73.97,1.78.97,3.15v5.98h2.12v1.77h-6.05v-1.77h1.86Z"/>
          <path class="cls-3" d="M763.26,164.15c0,.51.09.88.28,1.13.19.25.46.37.82.37s.63-.13.83-.38c.19-.25.29-.63.29-1.12v-1.15h1.84v1.13c0,.73-.1,1.34-.31,1.85s-.53.89-.97,1.16c-.44.26-1.01.4-1.71.4s-1.31-.14-1.76-.41c-.46-.28-.8-.66-1.02-1.17s-.34-1.1-.34-1.8v-6.85h-1.98v-1.77h1.98v-2.97h2.07v2.97h3.86l-.02,1.77h-3.84v6.85Z"/>
          <path class="cls-3" d="M775.4,167.53c-1.24,0-2.31-.26-3.21-.78-.9-.52-1.59-1.23-2.08-2.14-.48-.91-.73-1.96-.73-3.15s.25-2.26.74-3.18c.49-.93,1.18-1.65,2.07-2.18.89-.52,1.92-.79,3.1-.79s2.23.26,3.1.78c.87.52,1.54,1.24,2,2.17s.7,1.99.7,3.2c0,.18,0,.31-.01.41,0,.1-.02.18-.03.25h-2.05c.01-.11.03-.23.03-.36,0-.13.01-.28.01-.46,0-.8-.15-1.51-.45-2.13-.3-.62-.72-1.11-1.28-1.47s-1.23-.54-2.02-.54-1.43.18-2,.54c-.57.36-1.02.87-1.34,1.51s-.48,1.39-.48,2.23.16,1.53.47,2.16c.31.63.76,1.12,1.34,1.47.58.36,1.28.53,2.1.53s1.57-.2,2.17-.59c.61-.39,1.05-.93,1.34-1.61l1.96.74c-.43,1.04-1.12,1.86-2.08,2.46-.96.6-2.08.9-3.37.9ZM770.69,162.12v-1.57h9.74l.62,1.57h-10.35Z"/>
          <path class="cls-3" d="M787.6,165.54h2.17v1.77h-6.5v-1.77h2.27v-8.24h-2.27v-1.77h4.33v10.01ZM791.89,157.76c-.15-.04-.31-.08-.48-.1-.17-.02-.33-.03-.5-.03-1,0-1.81.36-2.41,1.08s-.9,1.72-.9,3l-.46-2.63h.55c.09-.82.3-1.51.6-2.06.31-.55.71-.97,1.2-1.25.49-.28,1.06-.42,1.69-.42.12,0,.24,0,.36.02.11.01.23.03.35.05v2.34Z"/>
          <path class="cls-3" d="M793.39,167.31v-1.77h2.19v-8.24h-2.19v-1.77h4.26v10.01h1.88v1.77h-6.14ZM801.51,167.31v-1.77h1.87v-5.75c0-.85-.19-1.52-.58-2-.38-.48-.98-.73-1.79-.73-.64,0-1.21.17-1.72.52s-.91.84-1.21,1.49c-.29.65-.44,1.42-.44,2.31l-.47-2.35h.56c.17-1.25.62-2.19,1.35-2.82s1.63-.94,2.7-.94c1.22,0,2.13.37,2.74,1.1s.92,1.77.92,3.1v6.08h2.11v1.77h-6.05ZM809.31,167.31v-1.77h1.86v-5.75c0-.85-.19-1.52-.58-2-.38-.48-.98-.73-1.78-.73-.64,0-1.21.17-1.72.52s-.91.84-1.21,1.49c-.29.65-.44,1.42-.44,2.31l-.47-2.35h.55c.18-1.25.63-2.19,1.36-2.82s1.63-.94,2.7-.94c1.22,0,2.13.37,2.74,1.1s.91,1.77.91,3.1v6.08h2.12v1.77h-6.05Z"/>
          <path class="cls-3" d="M823,167.53c-1.24,0-2.31-.26-3.21-.78-.9-.52-1.59-1.23-2.08-2.14-.48-.91-.73-1.96-.73-3.15s.25-2.26.74-3.18c.49-.93,1.18-1.65,2.07-2.18.89-.52,1.92-.79,3.1-.79s2.23.26,3.1.78c.87.52,1.54,1.24,2,2.17s.7,1.99.7,3.2c0,.18,0,.31-.01.41,0,.1-.02.18-.03.25h-2.05c.01-.11.03-.23.03-.36,0-.13.01-.28.01-.46,0-.8-.15-1.51-.45-2.13-.3-.62-.72-1.11-1.28-1.47s-1.23-.54-2.02-.54-1.43.18-2,.54c-.57.36-1.02.87-1.34,1.51s-.48,1.39-.48,2.23.16,1.53.47,2.16c.31.63.76,1.12,1.34,1.47.58.36,1.28.53,2.1.53s1.57-.2,2.17-.59c.61-.39,1.05-.93,1.34-1.61l1.96.74c-.43,1.04-1.12,1.86-2.08,2.46-.96.6-2.08.9-3.37.9ZM818.29,162.12v-1.57h9.74l.62,1.57h-10.35Z"/>
          <path class="cls-3" d="M836.76,155.29c.92,0,1.75.2,2.49.59.74.4,1.36.97,1.86,1.73.5.76.86,1.68,1.07,2.76l-1.32,1.01c0-.83-.15-1.56-.46-2.2s-.74-1.14-1.32-1.5c-.58-.36-1.27-.54-2.09-.54s-1.49.18-2.07.54c-.58.36-1.02.87-1.33,1.51s-.46,1.38-.46,2.23.16,1.57.48,2.22c.32.64.77,1.14,1.35,1.51.58.36,1.25.54,2.02.54s1.5-.18,2.07-.54c.58-.36,1.02-.87,1.33-1.52.31-.65.47-1.4.47-2.25l.33,2.73h-.48c-.15.67-.4,1.27-.75,1.79-.35.52-.81.92-1.39,1.21-.57.29-1.25.44-2.05.44s-1.55-.15-2.22-.45-1.26-.73-1.75-1.28c-.5-.55-.88-1.2-1.15-1.95-.27-.75-.41-1.57-.41-2.45,0-1.2.24-2.27.71-3.19.47-.92,1.14-1.65,2-2.17.86-.52,1.88-.78,3.05-.78ZM840.8,167.31v-4.25l.07-1.02v-1.52l-.07-1.88v-6.94h-2.98v-1.77h5.05v15.61h2.11v1.77h-4.18Z"/>
          <path class="cls-3" d="M851.26,165.54h2.13v1.77h-6.46v-1.77h2.25v-8.24h-2.25v-1.77h4.32v10.01ZM848.87,150.23h2.53v2.63h-2.53v-2.63Z"/>
          <path class="cls-3" d="M858.79,167.46c-1.23,0-2.17-.28-2.82-.84-.64-.56-.97-1.38-.97-2.46,0-.97.28-1.71.83-2.24s1.46-.92,2.73-1.18l5.07-1.04v1.45l-4.73,1.07c-.59.14-1.03.35-1.32.64-.29.29-.43.68-.43,1.17,0,.55.17.96.51,1.24.34.28.83.42,1.47.42.79,0,1.48-.19,2.07-.57s1.06-.91,1.4-1.59c.33-.68.5-1.48.5-2.41l.55,2.6h-.71c-.17,1.23-.6,2.16-1.3,2.79-.7.63-1.65.95-2.85.95ZM864.23,167.31c-.39,0-.69-.12-.89-.37-.21-.25-.31-.6-.31-1.05v-2.98l.19-.42-.11-1.36-.08-.79v-.87c0-.5-.1-.92-.31-1.25-.21-.34-.52-.59-.93-.76-.41-.17-.91-.26-1.51-.26-.86,0-1.53.17-2.02.52-.49.35-.81.87-.95,1.57l-1.98-.41c.13-.8.41-1.46.82-2,.41-.53.97-.93,1.67-1.19s1.55-.4,2.54-.4c1.06,0,1.93.15,2.63.45s1.23.75,1.58,1.35c.35.6.53,1.35.53,2.26v6.19h1.66v1.77h-2.53Z"/>
          <path class="cls-3" d="M872.07,164.15c0,.51.09.88.28,1.13.19.25.46.37.82.37s.63-.13.83-.38c.19-.25.29-.63.29-1.12v-1.15h1.84v1.13c0,.73-.1,1.34-.31,1.85s-.53.89-.97,1.16c-.44.26-1.01.4-1.71.4s-1.31-.14-1.77-.41c-.46-.28-.8-.66-1.02-1.17s-.33-1.1-.33-1.8v-6.85h-1.98v-1.77h1.98v-2.97h2.07v2.97h3.86l-.02,1.77h-3.84v6.85Z"/>
          <path class="cls-3" d="M884.21,167.53c-1.24,0-2.31-.26-3.21-.78-.9-.52-1.6-1.23-2.08-2.14-.48-.91-.73-1.96-.73-3.15s.25-2.26.74-3.18,1.18-1.65,2.07-2.18c.89-.52,1.92-.79,3.1-.79s2.23.26,3.1.78,1.54,1.24,2,2.17.7,1.99.7,3.2c0,.18,0,.31-.01.41,0,.1-.02.18-.03.25h-2.05c.01-.11.03-.23.03-.36,0-.13.01-.28.01-.46,0-.8-.15-1.51-.45-2.13-.3-.62-.72-1.11-1.28-1.47-.56-.36-1.23-.54-2.02-.54s-1.43.18-2,.54-1.02.87-1.34,1.51c-.32.65-.48,1.39-.48,2.23s.16,1.53.47,2.16.76,1.12,1.34,1.47c.58.36,1.28.53,2.1.53s1.57-.2,2.17-.59c.6-.39,1.05-.93,1.34-1.61l1.96.74c-.42,1.04-1.12,1.86-2.08,2.46-.96.6-2.08.9-3.37.9ZM879.51,162.12v-1.57h9.73l.62,1.57h-10.35Z"/>
        </g>
      </g>
      <g>
        <circle class="cls-7" cx="1003.28" cy="71.98" r="65.55" transform="translate(.6 151.86) rotate(-8.66)"/>
        <path class="cls-4" d="M1038.93,28.22h-4.14v-10.4h-63.83v10.4h-4.14c-6.58,0-11.97,5.39-11.97,11.97s5.39,11.97,11.97,11.97h4.42c1.81,13.56,12.22,24.5,25.52,27.11v11.93h12.23v-11.93c13.3-2.61,23.71-13.55,25.52-27.11h4.42c6.58,0,11.97-5.39,11.97-11.97s-5.39-11.97-11.97-11.97ZM970.96,46.04h-4.14c-3.21,0-5.85-2.65-5.85-5.85s2.65-5.85,5.85-5.85h4.14v11.71ZM1038.93,46.04h-4.14v-11.71h4.14c3.21,0,5.85,2.65,5.85,5.85s-2.65,5.85-5.85,5.85Z"/>
        <path class="cls-8" d="M1038.93,28.22h-4.14v-10.4h-31.91v73.37h6.11v-11.93c13.3-2.61,23.71-13.55,25.52-27.11h4.42c6.58,0,11.97-5.39,11.97-11.97s-5.39-11.97-11.97-11.97ZM1038.93,46.04h-4.14v-11.71h4.14c3.21,0,5.85,2.65,5.85,5.85s-2.65,5.85-5.85,5.85Z"/>
        <polygon class="cls-9" points="1023.46 91.19 982.3 91.19 982.3 94.77 976.48 94.77 976.48 118.22 1029.27 118.22 1029.27 94.77 1023.46 94.77 1023.46 91.19"/>
        <rect class="cls-5" x="985.51" y="99.82" width="35.56" height="12.37"/>
        <polygon class="cls-14" points="945.86 7.98 948.78 10.75 952.3 8.8 954.44 12.21 958.34 11.18 959.56 15.02 963.59 15 963.82 19.02 967.72 20 966.95 23.95 970.49 25.87 968.75 29.51 971.7 32.25 969.12 35.33 971.3 38.72 968.02 41.07 969.29 44.9 965.54 46.36 965.81 50.37 961.81 50.86 961.08 54.82 957.09 54.29 955.4 57.94 951.66 56.44 949.11 59.56 945.86 57.17 942.62 59.56 940.07 56.44 936.33 57.94 934.64 54.29 930.65 54.82 929.91 50.86 925.92 50.37 926.19 46.36 922.44 44.9 923.7 41.07 920.43 38.72 922.61 35.33 920.03 32.25 922.98 29.51 921.24 25.87 924.78 23.95 924.01 20 927.91 19.02 928.14 15 932.17 15.02 933.39 11.18 937.29 12.21 939.43 8.8 942.94 10.75 945.86 7.98"/>
        <g>
          <path class="cls-3" d="M940.86,44.46c-1.3,0-2.53-.26-3.68-.78-1.15-.52-2.16-1.24-3.02-2.16-.87-.92-1.55-1.98-2.04-3.19-.49-1.21-.74-2.5-.74-3.88s.25-2.68.74-3.89c.49-1.21,1.17-2.27,2.04-3.18.87-.91,1.88-1.63,3.02-2.15,1.15-.52,2.37-.78,3.68-.78,1.56,0,3,.36,4.31,1.08,1.31.72,2.4,1.68,3.26,2.89l-3.69,1.98c-.48-.55-1.05-.99-1.72-1.32s-1.39-.5-2.16-.5-1.43.15-2.07.45c-.65.3-1.22.72-1.71,1.26s-.88,1.16-1.15,1.87-.41,1.47-.41,2.29.14,1.57.41,2.27c.28.71.66,1.33,1.15,1.87s1.06.96,1.71,1.27,1.34.46,2.07.46c.77,0,1.49-.17,2.16-.5.67-.33,1.24-.78,1.72-1.34l3.69,2.01c-.86,1.19-1.95,2.15-3.26,2.88-1.31.73-2.75,1.09-4.31,1.09Z"/>
          <path class="cls-3" d="M953.53,44.1v-15.15h-2.62l1.1-4.13h5.65v19.29h-4.13Z"/>
        </g>
        <g>
          <path class="cls-3" d="M954.83,164.82h1.47v1.96h-7.04v-1.96h3.31l-5.17-12.86,1.31.89h-2.07l1.31-.89-5.17,12.86h3.31v1.96h-6.93v-1.96h1.47l5.88-14.59h2.42l5.88,14.59ZM952.18,159.79v1.87h-8.82v-1.87h8.82Z"/>
          <path class="cls-3" d="M963.17,154.76c.92,0,1.75.2,2.49.59.74.4,1.36.97,1.86,1.73.5.76.86,1.68,1.07,2.76l-1.32,1.01c0-.83-.15-1.56-.46-2.2-.3-.64-.75-1.14-1.32-1.5-.58-.36-1.27-.54-2.1-.54s-1.49.18-2.07.54c-.58.36-1.02.87-1.33,1.51-.31.64-.46,1.38-.46,2.23s.16,1.57.48,2.22c.32.64.77,1.14,1.35,1.51.58.36,1.25.54,2.02.54s1.5-.18,2.07-.54c.58-.36,1.02-.87,1.33-1.52.31-.65.47-1.4.47-2.25l.33,2.73h-.48c-.15.67-.4,1.27-.75,1.79-.35.52-.81.92-1.39,1.21-.57.29-1.25.44-2.05.44s-1.55-.15-2.22-.45-1.26-.73-1.75-1.28c-.5-.55-.88-1.2-1.15-1.95s-.41-1.57-.41-2.45c0-1.2.24-2.27.71-3.19.47-.92,1.14-1.65,2-2.17.86-.52,1.88-.78,3.05-.78ZM967.21,166.78v-4.25l.07-1.02v-1.52l-.07-1.88v-6.94h-2.98v-1.77h5.05v15.61h2.11v1.77h-4.18Z"/>
          <path class="cls-3" d="M979.89,155h5.27v1.77h-1.26l-4.05,10.01h-2.24l-4.24-10.01h-1.24v-1.77h5.43v1.77h-1.96l4.07,10.01-1.91-2.18h1.94l-1.66,2.18,3.82-10.01h-1.96v-1.77Z"/>
          <path class="cls-3" d="M989.87,166.94c-1.23,0-2.17-.28-2.82-.84s-.97-1.38-.97-2.46c0-.97.27-1.71.82-2.24.55-.52,1.46-.92,2.73-1.18l5.07-1.04v1.45l-4.73,1.07c-.59.14-1.03.35-1.32.64-.29.29-.43.68-.43,1.17,0,.55.17.96.51,1.24.34.28.83.42,1.47.42.78,0,1.48-.19,2.07-.57s1.06-.91,1.4-1.59c.33-.68.5-1.48.5-2.41l.55,2.6h-.71c-.17,1.23-.6,2.16-1.3,2.79-.7.63-1.65.95-2.85.95ZM995.3,166.78c-.39,0-.69-.12-.89-.37-.21-.25-.31-.6-.31-1.05v-2.98l.19-.42-.11-1.36-.08-.79v-.87c0-.5-.1-.92-.31-1.25-.21-.34-.52-.59-.93-.76-.41-.17-.91-.26-1.51-.26-.86,0-1.53.17-2.02.52-.49.35-.81.87-.95,1.57l-1.98-.41c.13-.8.41-1.46.82-2,.42-.53.97-.93,1.67-1.19.7-.26,1.54-.4,2.54-.4,1.06,0,1.93.15,2.63.45.7.3,1.23.75,1.58,1.35.35.6.53,1.35.53,2.26v6.19h1.66v1.77h-2.53Z"/>
          <path class="cls-3" d="M1003.98,165.01h1.89v1.77h-6.23v-1.77h2.27v-8.24h-2.27v-1.77h4.33v10.01ZM1009.95,165.01v-5.71c0-.86-.2-1.53-.59-2.03-.39-.5-1-.74-1.81-.74-.67,0-1.28.17-1.82.52s-.97.84-1.28,1.48c-.31.64-.47,1.41-.47,2.32l-.46-2.35h.55c.12-.81.37-1.5.75-2.05s.85-.96,1.44-1.24,1.25-.42,1.99-.42c1.23,0,2.17.37,2.82,1.1.65.73.97,1.78.97,3.15v5.98h2.12v1.77h-6.05v-1.77h1.86Z"/>
          <path class="cls-3" d="M1021.91,167c-1.25,0-2.33-.26-3.25-.78-.92-.52-1.62-1.23-2.12-2.14-.5-.91-.75-1.96-.75-3.15,0-.9.14-1.72.41-2.47s.66-1.4,1.17-1.95c.51-.55,1.11-.97,1.81-1.28s1.48-.45,2.34-.45c.79,0,1.44.12,1.94.36.5.24.88.58,1.14,1.02.26.44.42.94.48,1.52h.5l-.41,1.81c-.09-.56-.28-1.05-.57-1.48-.29-.43-.68-.77-1.16-1.01s-1.03-.36-1.66-.36c-.78,0-1.46.18-2.04.54s-1.03.87-1.35,1.51c-.32.65-.48,1.39-.48,2.23s.16,1.53.49,2.16.79,1.12,1.39,1.47c.6.36,1.31.53,2.15.53s1.54-.18,2.13-.53c.59-.35,1.02-.83,1.26-1.42l1.92.85c-.39.93-1.05,1.67-1.99,2.2-.94.54-2.06.8-3.36.8ZM1025.17,159.5v-4.5h2.07v4.5h-2.07Z"/>
          <path class="cls-3" d="M1035.71,167c-1.24,0-2.31-.26-3.21-.78-.9-.52-1.59-1.23-2.08-2.14-.48-.91-.73-1.96-.73-3.15s.25-2.26.74-3.18c.49-.93,1.18-1.65,2.07-2.18.89-.52,1.92-.79,3.1-.79s2.23.26,3.1.78c.87.52,1.54,1.24,2,2.17s.7,1.99.7,3.2c0,.18,0,.31-.01.41,0,.1-.02.18-.03.25h-2.05c.01-.11.03-.23.03-.36,0-.13.01-.28.01-.46,0-.8-.15-1.51-.45-2.13-.3-.62-.72-1.11-1.28-1.47s-1.23-.54-2.02-.54-1.43.18-2,.54c-.57.36-1.02.87-1.34,1.51s-.48,1.39-.48,2.23.16,1.53.47,2.16c.31.63.76,1.12,1.34,1.47.58.36,1.28.53,2.1.53s1.57-.2,2.17-.59c.61-.39,1.05-.93,1.34-1.61l1.96.74c-.43,1.04-1.12,1.86-2.08,2.46-.96.6-2.08.9-3.37.9ZM1031,161.59v-1.57h9.74l.62,1.57h-10.35Z"/>
          <path class="cls-3" d="M1049.47,154.76c.92,0,1.75.2,2.49.59.74.4,1.36.97,1.86,1.73.5.76.86,1.68,1.07,2.76l-1.32,1.01c0-.83-.15-1.56-.46-2.2s-.74-1.14-1.32-1.5c-.58-.36-1.27-.54-2.09-.54s-1.49.18-2.07.54c-.58.36-1.02.87-1.33,1.51s-.46,1.38-.46,2.23.16,1.57.48,2.22c.32.64.77,1.14,1.35,1.51.58.36,1.25.54,2.02.54s1.5-.18,2.07-.54c.58-.36,1.02-.87,1.33-1.52.31-.65.47-1.4.47-2.25l.33,2.73h-.48c-.15.67-.4,1.27-.75,1.79-.35.52-.81.92-1.39,1.21-.57.29-1.25.44-2.05.44s-1.55-.15-2.22-.45-1.26-.73-1.75-1.28c-.5-.55-.88-1.2-1.15-1.95-.27-.75-.41-1.57-.41-2.45,0-1.2.24-2.27.71-3.19.47-.92,1.14-1.65,2-2.17.86-.52,1.88-.78,3.05-.78ZM1053.5,166.78v-4.25l.07-1.02v-1.52l-.07-1.88v-6.94h-2.98v-1.77h5.05v15.61h2.11v1.77h-4.18Z"/>
        </g>
      </g>
      <g>
        <circle class="cls-13" cx="527.27" cy="75.87" r="65.55" transform="translate(-5.26 89.41) rotate(-9.65)"/>
        <circle class="cls-2" cx="527.27" cy="98.18" r="24.17"/>
        <path class="cls-8" d="M527.27,74.01v48.34c13.35,0,24.17-10.82,24.17-24.17s-10.82-24.17-24.17-24.17Z"/>
        <polygon class="cls-6" points="481.72 21.57 515.81 71.63 538.74 71.63 504.65 21.57 481.72 21.57"/>
        <polygon class="cls-6" points="515.81 71.63 538.74 71.63 572.83 21.57 549.9 21.57 515.81 71.63"/>
        <polygon class="cls-9" points="531.69 71.63 538.74 71.63 572.83 21.57 565.78 21.57 531.69 71.63"/>
        <polygon class="cls-9" points="515.81 71.63 524.38 71.63 558.47 21.57 549.9 21.57 515.81 71.63"/>
        <polygon class="cls-9" points="481.72 21.57 515.81 71.63 522.86 71.63 488.77 21.57 481.72 21.57"/>
        <polygon class="cls-9" points="496.08 21.57 522.99 61.08 527.27 54.79 504.65 21.57 496.08 21.57"/>
        <polygon class="cls-14" points="476.42 7.98 479.34 10.75 482.86 8.8 485 12.21 488.89 11.18 490.12 15.02 494.14 15 494.37 19.02 498.28 20 497.5 23.95 501.04 25.87 499.31 29.51 502.26 32.25 499.68 35.33 501.85 38.72 498.58 41.07 499.85 44.9 496.09 46.36 496.37 50.37 492.37 50.86 491.64 54.82 487.65 54.29 485.95 57.94 482.21 56.44 479.67 59.56 476.42 57.17 473.18 59.56 470.63 56.44 466.89 57.94 465.2 54.29 461.2 54.82 460.47 50.86 456.47 50.37 456.75 46.36 452.99 44.9 454.26 41.07 450.99 38.72 453.17 35.33 450.58 32.25 453.53 29.51 451.8 25.87 455.34 23.95 454.56 20 458.47 19.02 458.7 15 462.72 15.02 463.95 11.18 467.84 12.21 469.98 8.8 473.5 10.75 476.42 7.98"/>
        <g>
          <path class="cls-3" d="M464.48,44.1v-19.29h7.3c1.06,0,2.01.22,2.87.65.85.44,1.53,1.05,2.03,1.85s.75,1.74.75,2.81c0,.4-.05.83-.15,1.27s-.28.86-.54,1.25c-.26.39-.62.69-1.1.91.62.15,1.1.42,1.46.83.36.4.63.87.81,1.4.18.53.3,1.06.35,1.6.06.54.08,1.02.08,1.45,0,.97-.26,1.86-.79,2.65-.52.79-1.23,1.43-2.11,1.9-.88.47-1.86.71-2.92.71h-8.04ZM468.62,32.05h2.67c.55,0,1.02-.18,1.42-.55.39-.37.59-.83.59-1.39s-.2-1.01-.59-1.31c-.4-.3-.87-.45-1.42-.45h-2.67v3.71ZM468.62,40.6h3.47c.48,0,.91-.11,1.3-.34.39-.23.7-.54.94-.93.23-.39.35-.84.35-1.35,0-.42-.12-.82-.35-1.21-.23-.38-.55-.69-.94-.93-.39-.24-.82-.36-1.3-.36h-3.47v5.11Z"/>
          <path class="cls-3" d="M483.16,44.1v-15.15h-2.62l1.1-4.13h5.65v19.29h-4.13Z"/>
        </g>
        <g>
          <path class="cls-3" d="M453.93,152.46v-1.96h7.06v1.96h-2.45v12.63h2.45v1.96h-7.06v-1.96h2.45v-12.63h-2.45Z"/>
          <path class="cls-3" d="M467.11,165.27h1.89v1.77h-6.23v-1.77h2.27v-8.24h-2.27v-1.77h4.33v10.01ZM473.08,165.27v-5.71c0-.86-.2-1.53-.59-2.03s-1-.74-1.81-.74c-.67,0-1.28.17-1.82.52s-.97.84-1.28,1.48c-.31.64-.47,1.41-.47,2.32l-.46-2.35h.55c.12-.81.37-1.5.75-2.05s.85-.96,1.44-1.24,1.24-.42,1.99-.42c1.23,0,2.17.37,2.82,1.1.65.73.97,1.78.97,3.15v5.98h2.12v1.77h-6.05v-1.77h1.86Z"/>
          <path class="cls-3" d="M482.31,163.89c0,.51.09.88.28,1.13.19.25.46.37.82.37s.63-.13.83-.38c.19-.25.29-.63.29-1.12v-1.15h1.84v1.13c0,.73-.1,1.34-.31,1.85s-.53.89-.97,1.16c-.44.26-1.01.4-1.71.4s-1.31-.14-1.77-.41c-.46-.28-.8-.66-1.02-1.17s-.34-1.1-.34-1.8v-6.85h-1.98v-1.77h1.98v-2.97h2.07v2.97h3.86l-.02,1.77h-3.84v6.85Z"/>
          <path class="cls-3" d="M494.45,167.27c-1.24,0-2.31-.26-3.21-.78-.9-.52-1.6-1.23-2.08-2.14s-.73-1.96-.73-3.15.25-2.26.74-3.18c.49-.93,1.18-1.65,2.07-2.18.89-.52,1.92-.79,3.1-.79s2.23.26,3.1.78c.87.52,1.54,1.24,2,2.17s.7,1.99.7,3.2c0,.18,0,.31-.01.41s-.02.18-.03.25h-2.05c.01-.11.03-.23.03-.36,0-.13.01-.28.01-.46,0-.8-.15-1.51-.45-2.13-.3-.62-.72-1.11-1.28-1.47-.56-.36-1.23-.54-2.02-.54s-1.43.18-2,.54c-.57.36-1.02.87-1.34,1.51-.32.65-.48,1.39-.48,2.23s.16,1.53.47,2.16c.31.63.76,1.12,1.34,1.47.58.36,1.28.53,2.1.53s1.57-.2,2.17-.59,1.05-.93,1.34-1.61l1.96.74c-.43,1.04-1.12,1.86-2.08,2.46-.96.6-2.08.9-3.37.9ZM489.74,161.85v-1.57h9.73l.62,1.57h-10.35Z"/>
          <path class="cls-3" d="M506.65,165.27h2.17v1.77h-6.5v-1.77h2.27v-8.24h-2.27v-1.77h4.33v10.01ZM510.94,157.5c-.15-.04-.31-.08-.48-.1-.17-.02-.33-.03-.5-.03-1,0-1.81.36-2.41,1.08-.6.72-.9,1.72-.9,3l-.46-2.63h.55c.1-.82.3-1.51.6-2.06s.71-.97,1.2-1.25c.49-.28,1.06-.42,1.69-.42.12,0,.24,0,.36.02s.23.03.35.05v2.34Z"/>
          <path class="cls-3" d="M512.44,167.05v-1.77h2.19v-8.24h-2.19v-1.77h4.26v10.01h1.88v1.77h-6.14ZM520.55,167.05v-1.77h1.87v-5.75c0-.85-.19-1.52-.58-2-.38-.48-.98-.73-1.79-.73-.64,0-1.21.17-1.72.52s-.91.84-1.2,1.49-.44,1.42-.44,2.31l-.47-2.35h.56c.17-1.25.62-2.19,1.35-2.82s1.63-.94,2.7-.94c1.22,0,2.13.37,2.74,1.1s.92,1.77.92,3.1v6.08h2.11v1.77h-6.05ZM528.35,167.05v-1.77h1.86v-5.75c0-.85-.19-1.52-.58-2-.38-.48-.98-.73-1.78-.73-.64,0-1.21.17-1.72.52s-.91.84-1.2,1.49-.44,1.42-.44,2.31l-.47-2.35h.55c.18-1.25.63-2.19,1.36-2.82.73-.63,1.63-.94,2.7-.94,1.22,0,2.13.37,2.74,1.1.61.73.91,1.77.91,3.1v6.08h2.12v1.77h-6.05Z"/>
          <path class="cls-3" d="M542.05,167.27c-1.24,0-2.31-.26-3.21-.78-.9-.52-1.6-1.23-2.08-2.14-.48-.91-.73-1.96-.73-3.15s.25-2.26.74-3.18,1.18-1.65,2.07-2.18c.89-.52,1.92-.79,3.1-.79s2.23.26,3.1.78,1.54,1.24,2,2.17.7,1.99.7,3.2c0,.18,0,.31-.01.41,0,.1-.02.18-.03.25h-2.05c.01-.11.03-.23.03-.36,0-.13.01-.28.01-.46,0-.8-.15-1.51-.45-2.13-.3-.62-.72-1.11-1.28-1.47-.56-.36-1.23-.54-2.02-.54s-1.43.18-2,.54-1.02.87-1.34,1.51c-.32.65-.48,1.39-.48,2.23s.16,1.53.47,2.16.76,1.12,1.34,1.47c.58.36,1.28.53,2.1.53s1.57-.2,2.17-.59c.6-.39,1.05-.93,1.34-1.61l1.96.74c-.42,1.04-1.12,1.86-2.08,2.46-.96.6-2.08.9-3.37.9ZM537.34,161.85v-1.57h9.73l.62,1.57h-10.35Z"/>
          <path class="cls-3" d="M555.81,155.02c.92,0,1.75.2,2.49.59.74.4,1.36.97,1.86,1.73.5.76.86,1.68,1.07,2.76l-1.32,1.01c0-.83-.15-1.56-.46-2.2s-.74-1.14-1.32-1.5c-.58-.36-1.27-.54-2.09-.54s-1.49.18-2.07.54c-.58.36-1.02.87-1.33,1.51s-.46,1.38-.46,2.23.16,1.57.48,2.22c.32.64.77,1.14,1.35,1.51.58.36,1.25.54,2.02.54s1.5-.18,2.07-.54c.58-.36,1.02-.87,1.33-1.52.31-.65.47-1.4.47-2.25l.33,2.73h-.48c-.15.67-.4,1.27-.75,1.79-.35.52-.81.92-1.39,1.21-.57.29-1.25.44-2.05.44s-1.55-.15-2.22-.45-1.26-.73-1.75-1.28c-.5-.55-.88-1.2-1.15-1.95-.27-.75-.41-1.57-.41-2.45,0-1.2.24-2.27.71-3.19.47-.92,1.14-1.65,2-2.17.86-.52,1.88-.78,3.05-.78ZM559.85,167.05v-4.25l.07-1.02v-1.52l-.07-1.88v-6.94h-2.98v-1.77h5.05v15.61h2.11v1.77h-4.18Z"/>
          <path class="cls-3" d="M570.31,165.27h2.13v1.77h-6.46v-1.77h2.25v-8.24h-2.25v-1.77h4.32v10.01ZM567.92,149.96h2.53v2.63h-2.53v-2.63Z"/>
          <path class="cls-3" d="M577.84,167.2c-1.23,0-2.17-.28-2.82-.84s-.97-1.38-.97-2.46c0-.97.27-1.71.82-2.24.55-.52,1.46-.92,2.73-1.18l5.07-1.04v1.45l-4.73,1.07c-.59.14-1.03.35-1.32.64-.29.29-.43.68-.43,1.17,0,.55.17.96.51,1.24.34.28.83.42,1.47.42.78,0,1.48-.19,2.07-.57s1.06-.91,1.4-1.59c.33-.68.5-1.48.5-2.41l.55,2.6h-.71c-.17,1.23-.6,2.16-1.3,2.79-.7.63-1.65.95-2.85.95ZM583.28,167.05c-.39,0-.69-.12-.89-.37-.21-.25-.31-.6-.31-1.05v-2.98l.19-.42-.11-1.36-.08-.79v-.87c0-.5-.1-.92-.31-1.25-.21-.34-.52-.59-.93-.76-.41-.17-.91-.26-1.51-.26-.86,0-1.53.17-2.02.52-.49.35-.81.87-.95,1.57l-1.98-.41c.13-.8.41-1.46.82-2,.42-.53.97-.93,1.67-1.19.7-.26,1.54-.4,2.54-.4,1.06,0,1.93.15,2.63.45.7.3,1.23.75,1.58,1.35.35.6.53,1.35.53,2.26v6.19h1.66v1.77h-2.53Z"/>
          <path class="cls-3" d="M591.12,163.89c0,.51.09.88.28,1.13.19.25.46.37.82.37s.63-.13.83-.38c.19-.25.29-.63.29-1.12v-1.15h1.84v1.13c0,.73-.1,1.34-.31,1.85s-.53.89-.97,1.16c-.44.26-1.01.4-1.71.4s-1.31-.14-1.76-.41c-.46-.28-.8-.66-1.02-1.17s-.34-1.1-.34-1.8v-6.85h-1.98v-1.77h1.98v-2.97h2.07v2.97h3.86l-.02,1.77h-3.84v6.85Z"/>
          <path class="cls-3" d="M603.26,167.27c-1.24,0-2.31-.26-3.21-.78-.9-.52-1.59-1.23-2.08-2.14-.48-.91-.73-1.96-.73-3.15s.25-2.26.74-3.18c.49-.93,1.18-1.65,2.07-2.18.89-.52,1.92-.79,3.1-.79s2.23.26,3.1.78c.87.52,1.54,1.24,2,2.17s.7,1.99.7,3.2c0,.18,0,.31-.01.41,0,.1-.02.18-.03.25h-2.05c.01-.11.03-.23.03-.36,0-.13.01-.28.01-.46,0-.8-.15-1.51-.45-2.13-.3-.62-.72-1.11-1.28-1.47s-1.23-.54-2.02-.54-1.43.18-2,.54c-.57.36-1.02.87-1.34,1.51s-.48,1.39-.48,2.23.16,1.53.47,2.16c.31.63.76,1.12,1.34,1.47.58.36,1.28.53,2.1.53s1.57-.2,2.17-.59c.61-.39,1.05-.93,1.34-1.61l1.96.74c-.43,1.04-1.12,1.86-2.08,2.46-.96.6-2.08.9-3.37.9ZM598.55,161.85v-1.57h9.74l.62,1.57h-10.35Z"/>
        </g>
      </g>
    </g>
  </g>
</svg>