<?xml version="1.0" encoding="UTF-8"?>
<svg id="Layer_2" data-name="Layer 2" xmlns="http://www.w3.org/2000/svg" viewBox="0 0 449.54 886.57">
  <defs>
    <style>
      .cls-1 {
        fill: #4cf;
      }

      .cls-1, .cls-2, .cls-3, .cls-4, .cls-5, .cls-6, .cls-7, .cls-8, .cls-9, .cls-10, .cls-11, .cls-12, .cls-13 {
        stroke-width: 0px;
      }

      .cls-2, .cls-4 {
        fill: #ffd166;
      }

      .cls-14 {
        stroke: #171738;
      }

      .cls-14, .cls-15, .cls-16 {
        stroke-miterlimit: 10;
      }

      .cls-14, .cls-4, .cls-6, .cls-8, .cls-9, .cls-10 {
        fill-rule: evenodd;
      }

      .cls-14, .cls-5, .cls-6 {
        fill: #fff;
      }

      .cls-15, .cls-16 {
        fill: none;
        stroke: #000;
      }

      .cls-16 {
        stroke-dasharray: 0 0 11.97 11.97;
      }

      .cls-7 {
        fill: #f14b94;
      }

      .cls-8 {
        fill: #ffdc8b;
      }

      .cls-9 {
        fill: #1082a9;
      }

      .cls-10 {
        fill: #8c6e35;
        opacity: .7;
      }

      .cls-11 {
        fill: #e6adec;
      }

      .cls-12 {
        fill: #3fa9f5;
      }

      .cls-13 {
        fill: #b2dd45;
      }
    </style>
  </defs>
  <g id="Layer_1-2" data-name="Layer 1">
    <g>
      <path class="cls-15" d="M84.72,65.4s2.01-.7,5.71-1.85"/>
      <path class="cls-16" d="M101.91,60.21c38.02-10.42,131.43-30.16,201.97,3.13,39.34,18.57,96.65,76.12,45.37,151.85-24.05,35.51-201.11,54.39-248.49,91.15-45.88,35.59-35.14,87.38-14.53,117.83,20.62,30.45,207.69,13.43,245.81,78.49,27.36,46.71,52.21,116.64-11.75,137.76-63.96,21.12-195.35-12.05-231.57,74.08-27,64.2-7.16,86.74,7.18,94.49"/>
      <path class="cls-15" d="M101.35,811.42c3.44,1.22,5.8,1.49,5.8,1.49"/>
    </g>
    <g>
      <circle class="cls-1" cx="83.78" cy="68.61" r="65.55" transform="translate(-23.98 79.34) rotate(-45)"/>
      <path class="cls-6" d="M82.25,75.85c-3.3,0-6.43-.71-9.26-1.98l20.2,34.98,5.25-17.64,17.9,4.27-16.33-28.28c-4.14,5.26-10.56,8.64-17.77,8.64Z"/>
      <path class="cls-9" d="M93.9,73.5l11.14,19.3,11.3,2.7-15.68-27.16c-1.9,2.12-4.19,3.88-6.77,5.16Z"/>
      <path class="cls-9" d="M72.31,72.69l20.88,36.17,3.14-10.56-12.96-22.45c-4.04-.08-7.81-1.22-11.06-3.16Z"/>
      <path class="cls-6" d="M65.43,68.34l-15.68,27.16,17.9-4.27,5.25,17.64,20.88-36.17c-3.38,2.01-7.32,3.16-11.53,3.16-6.68,0-12.69-2.9-16.82-7.52Z"/>
      <path class="cls-9" d="M65.43,68.34l-15.68,27.16,11.3-2.7,11.14-19.3c-2.57-1.28-4.87-3.04-6.77-5.16Z"/>
      <path class="cls-9" d="M69.76,98.3l3.14,10.56,20.88-36.17c-3.25,1.93-7.03,3.08-11.06,3.16l-12.96,22.45Z"/>
      <path class="cls-10" d="M70.99,58.7l-8.39,14.54c11.34,11.16,29.6,10.63,40.3-1.03l-7.8-13.51h-24.11Z"/>
      <circle class="cls-2" cx="82.25" cy="53.27" r="24.98" transform="translate(-3.57 5.96) rotate(-4.07)"/>
      <path class="cls-8" d="M82.25,28.29v49.95c13.79,0,24.98-11.18,24.98-24.98s-11.18-24.98-24.98-24.98Z"/>
      <polygon class="cls-14" points="33.63 .69 36.55 3.46 40.07 1.5 42.2 4.91 46.1 3.89 47.32 7.73 51.35 7.71 51.58 11.73 55.49 12.71 54.71 16.66 58.25 18.58 56.52 22.21 59.47 24.95 56.88 28.04 59.06 31.43 55.79 33.78 57.05 37.6 53.3 39.06 53.58 43.08 49.58 43.56 48.84 47.52 44.85 47 43.16 50.65 39.42 49.15 36.87 52.26 33.63 49.88 30.38 52.26 27.83 49.15 24.1 50.65 22.4 47 18.41 47.52 17.68 43.56 13.68 43.08 13.95 39.06 10.2 37.6 11.47 33.78 8.2 31.43 10.37 28.04 7.79 24.95 10.74 22.21 9 18.58 12.54 16.66 11.77 12.71 15.67 11.73 15.9 7.71 19.93 7.73 21.16 3.89 25.05 4.91 27.19 1.5 30.71 3.46 33.63 .69"/>
      <g>
        <path class="cls-3" d="M26.14,17.52h4.66l7,19.29h-4.38l-1.1-3.03h-7.69l-1.1,3.03h-4.38l7-19.29ZM26.14,29.65h4.66l-2.34-6.39-2.31,6.39Z"/>
        <path class="cls-3" d="M42.61,36.81v-15.15h-2.62l1.1-4.13h5.65v19.29h-4.13Z"/>
      </g>
      <g>
        <path class="cls-3" d="M28.09,144.9v-1.96h7.06v1.96h-2.45v12.63h2.45v1.96h-7.06v-1.96h2.45v-12.63h-2.45ZM34.64,144.9v-1.96h2.11c1.6,0,2.85.36,3.77,1.08.91.72,1.37,1.78,1.37,3.18s-.46,2.41-1.39,3.06c-.93.64-2.28.97-4.06.97h-4.36v-1.03h4.4c.76,0,1.36-.13,1.82-.38.45-.26.78-.59.99-1.01.21-.42.31-.87.31-1.36,0-.85-.3-1.49-.9-1.9s-1.39-.63-2.37-.63h-1.68ZM34.45,157.53h2.15c1.09,0,1.97-.23,2.63-.7s.99-1.15.99-2.05c0-.39-.07-.75-.21-1.07s-.36-.61-.67-.85-.69-.43-1.16-.56c-.47-.13-1.04-.2-1.71-.2h-4.38v-1.35h4.38c.97,0,1.83.08,2.58.23s1.38.39,1.9.71.9.76,1.17,1.3c.27.54.4,1.19.4,1.96,0,1.44-.45,2.55-1.34,3.35-.89.8-2.13,1.19-3.71,1.19h-3.01v-1.96ZM38.06,150.68h1.06v.53h-1.06v-.53Z"/>
        <path class="cls-3" d="M50.91,159.71c-1.24,0-2.31-.26-3.21-.78-.9-.52-1.6-1.23-2.08-2.14s-.73-1.96-.73-3.15.25-2.26.74-3.18c.49-.93,1.18-1.65,2.07-2.18.89-.52,1.92-.79,3.1-.79s2.23.26,3.1.78c.87.52,1.54,1.24,2,2.17s.7,1.99.7,3.2c0,.18,0,.31-.01.41s-.02.18-.03.25h-2.05c.01-.11.03-.23.03-.36,0-.13.01-.28.01-.46,0-.8-.15-1.51-.45-2.13-.3-.62-.72-1.11-1.28-1.47-.56-.36-1.23-.54-2.02-.54s-1.43.18-2,.54c-.57.36-1.02.87-1.34,1.51-.32.65-.48,1.39-.48,2.23s.16,1.53.47,2.16c.31.63.76,1.12,1.34,1.47.58.36,1.28.53,2.1.53s1.57-.2,2.17-.59,1.05-.93,1.34-1.61l1.96.74c-.43,1.04-1.12,1.86-2.08,2.46-.96.6-2.08.9-3.37.9ZM46.2,154.3v-1.57h9.73l.62,1.57h-10.35Z"/>
        <path class="cls-3" d="M64.57,164.38c-1.03,0-1.97-.09-2.82-.29-.85-.19-1.54-.49-2.05-.9-.51-.41-.76-.95-.76-1.62s.26-1.15.78-1.48,1.18-.54,1.99-.63v-.23l1.99.21c-.76,0-1.35.09-1.77.27s-.71.4-.87.67c-.16.27-.24.53-.24.78,0,.43.17.77.52,1,.34.23.81.4,1.39.5s1.21.14,1.9.14c1.39,0,2.41-.17,3.06-.52.66-.35.98-.85.98-1.51,0-.88-.55-1.32-1.66-1.32h-4.47c-.92,0-1.64-.17-2.18-.5s-.8-.81-.8-1.44c0-.59.24-1.05.71-1.38.48-.32,1.15-.53,2.01-.62v-.4l1.97.61h-1.04c-.54,0-.96.08-1.25.23-.29.15-.44.38-.44.7s.14.51.42.63c.28.12.71.18,1.27.18h3.74c.76,0,1.42.13,1.97.4s.97.64,1.25,1.12c.29.48.43,1.06.43,1.73s-.19,1.3-.56,1.86-1,1-1.88,1.33c-.88.33-2.08.49-3.6.49ZM64.27,155.73c-.95,0-1.79-.17-2.53-.51-.74-.34-1.32-.82-1.75-1.44s-.64-1.33-.64-2.16.21-1.55.63-2.17c.42-.62,1-1.1,1.74-1.45.74-.34,1.59-.52,2.55-.52s1.81.17,2.55.52c.74.35,1.31.83,1.71,1.45.21.31.37.64.47,1s.15.75.15,1.17c0,.82-.21,1.54-.63,2.16-.42.62-1,1.09-1.73,1.44-.74.34-1.58.51-2.52.51ZM64.27,154.03c.54,0,1.03-.1,1.46-.3s.77-.48,1.02-.84c.25-.36.37-.79.37-1.27s-.12-.92-.37-1.29c-.25-.37-.59-.65-1.02-.85-.43-.2-.92-.3-1.46-.3s-1.05.1-1.49.3c-.44.2-.78.49-1.03.85-.25.37-.37.8-.37,1.29s.12.91.37,1.27c.25.36.59.64,1.03.84.44.2.93.3,1.49.3ZM69.15,151.62l-.66-1.3-.51-.76.55-.23c-.02-.08-.04-.16-.05-.24-.01-.08-.02-.16-.02-.25,0-.34.08-.63.23-.89s.37-.45.65-.59c.28-.14.6-.21.98-.21.1,0,.2,0,.29.01.09,0,.17.02.24.03v2c-.16-.02-.3-.04-.43-.05-.12-.01-.25-.02-.37-.02-.27,0-.49.03-.65.09-.16.06-.28.14-.35.25s-.11.22-.11.36c0,.12.02.26.05.43.04.17.07.37.1.59.03.22.05.47.05.74Z"/>
        <path class="cls-3" d="M77.05,157.72h2.13v1.77h-6.46v-1.77h2.26v-8.24h-2.26v-1.77h4.32v10.01ZM74.66,142.41h2.53v2.63h-2.53v-2.63Z"/>
        <path class="cls-3" d="M85.18,157.72h1.89v1.77h-6.23v-1.77h2.27v-8.24h-2.27v-1.77h4.33v10.01ZM91.15,157.72v-5.71c0-.86-.2-1.53-.59-2.03s-1-.74-1.81-.74c-.67,0-1.28.17-1.82.52s-.97.84-1.28,1.48c-.31.64-.47,1.41-.47,2.32l-.46-2.35h.55c.12-.81.37-1.5.75-2.05s.85-.96,1.44-1.24,1.24-.42,1.99-.42c1.23,0,2.17.37,2.82,1.1.65.73.97,1.78.97,3.15v5.98h2.12v1.77h-6.05v-1.77h1.86Z"/>
        <path class="cls-3" d="M101.22,157.72h1.89v1.77h-6.23v-1.77h2.27v-8.24h-2.27v-1.77h4.33v10.01ZM107.19,157.72v-5.71c0-.86-.2-1.53-.59-2.03s-1-.74-1.81-.74c-.67,0-1.28.17-1.82.52s-.97.84-1.28,1.48c-.31.64-.47,1.41-.47,2.32l-.46-2.35h.55c.12-.81.37-1.5.75-2.05s.85-.96,1.44-1.24,1.24-.42,1.99-.42c1.23,0,2.17.37,2.82,1.1.65.73.97,1.78.97,3.15v5.98h2.12v1.77h-6.05v-1.77h1.86Z"/>
        <path class="cls-3" d="M119.02,159.71c-1.24,0-2.31-.26-3.21-.78-.9-.52-1.6-1.23-2.08-2.14s-.73-1.96-.73-3.15.25-2.26.74-3.18c.49-.93,1.18-1.65,2.07-2.18.89-.52,1.92-.79,3.1-.79s2.23.26,3.1.78c.87.52,1.54,1.24,2,2.17s.7,1.99.7,3.2c0,.18,0,.31-.01.41s-.02.18-.03.25h-2.05c.01-.11.03-.23.03-.36,0-.13.01-.28.01-.46,0-.8-.15-1.51-.45-2.13-.3-.62-.72-1.11-1.28-1.47-.56-.36-1.23-.54-2.02-.54s-1.43.18-2,.54c-.57.36-1.02.87-1.34,1.51-.32.65-.48,1.39-.48,2.23s.16,1.53.47,2.16c.31.63.76,1.12,1.34,1.47.58.36,1.28.53,2.1.53s1.57-.2,2.17-.59,1.05-.93,1.34-1.61l1.96.74c-.43,1.04-1.12,1.86-2.08,2.46-.96.6-2.08.9-3.37.9ZM114.32,154.3v-1.57h9.73l.62,1.57h-10.35Z"/>
        <path class="cls-3" d="M131.22,157.72h2.17v1.77h-6.5v-1.77h2.27v-8.24h-2.27v-1.77h4.33v10.01ZM135.51,149.94c-.15-.04-.31-.08-.48-.1-.17-.02-.33-.03-.5-.03-1,0-1.81.36-2.41,1.08-.6.72-.9,1.72-.9,3l-.46-2.63h.55c.1-.82.3-1.51.6-2.06s.71-.97,1.2-1.25c.49-.28,1.06-.42,1.69-.42.12,0,.24,0,.36.02s.23.03.35.05v2.34Z"/>
      </g>
    </g>
    <g>
      <circle class="cls-12" cx="340.65" cy="217.14" r="65.55" transform="translate(-49.91 113.91) rotate(-17.71)"/>
      <polygon class="cls-6" points="315.81 169.1 315.81 198.04 338.73 214.73 361.65 198.04 361.65 169.1 338.73 169.1 315.81 169.1"/>
      <polygon class="cls-9" points="315.81 198.04 329.51 208.02 329.51 169.1 315.81 169.1 315.81 198.04"/>
      <polygon class="cls-4" points="347.49 231.84 338.73 217.78 329.96 231.84 313.88 235.83 324.54 248.51 323.37 265.04 338.73 258.82 354.08 265.04 352.91 248.51 363.57 235.83 347.49 231.84"/>
      <polygon class="cls-8" points="347.49 231.84 338.73 217.78 338.73 258.82 354.08 265.04 352.91 248.51 363.57 235.83 347.49 231.84"/>
      <rect class="cls-2" x="332.19" y="214.73" width="13.06" height="3.05"/>
      <polygon class="cls-9" points="347.94 208.02 361.65 198.04 361.65 169.1 347.94 169.1 347.94 208.02"/>
      <polygon class="cls-14" points="286.12 149.18 289.04 151.96 292.56 150 294.7 153.41 298.59 152.38 299.81 156.22 303.84 156.2 304.07 160.22 307.98 161.2 307.2 165.15 310.74 167.07 309.01 170.71 311.96 173.45 309.37 176.54 311.55 179.92 308.28 182.27 309.54 186.1 305.79 187.56 306.07 191.57 302.07 192.06 301.34 196.02 297.34 195.49 295.65 199.14 291.91 197.64 289.36 200.76 286.12 198.37 282.87 200.76 280.32 197.64 276.59 199.14 274.89 195.49 270.9 196.02 270.17 192.06 266.17 191.57 266.44 187.56 262.69 186.1 263.96 182.27 260.69 179.92 262.86 176.54 260.28 173.45 263.23 170.71 261.5 167.07 265.04 165.15 264.26 161.2 268.16 160.22 268.4 156.2 272.42 156.22 273.65 152.38 277.54 153.41 279.68 150 283.2 151.96 286.12 149.18"/>
      <g>
        <path class="cls-3" d="M274.63,166.02h4.66l7,19.29h-4.38l-1.1-3.03h-7.69l-1.1,3.03h-4.38l7-19.29ZM274.63,178.14h4.66l-2.34-6.39-2.31,6.39Z"/>
        <path class="cls-3" d="M288.49,185.3v-3.69c.51-.32,1.16-.77,1.93-1.34.77-.57,1.58-1.22,2.43-1.94s1.64-1.44,2.38-2.18,1.34-1.44,1.81-2.11c.47-.67.7-1.23.7-1.69s-.11-.9-.34-1.29c-.23-.39-.54-.7-.92-.93-.38-.23-.81-.34-1.27-.34s-.9.12-1.28.34-.7.54-.93.93c-.23.39-.35.82-.35,1.29h-4.13c0-1.27.31-2.41.92-3.42.62-1.01,1.43-1.81,2.44-2.4,1.02-.59,2.12-.88,3.33-.88s2.34.3,3.35.9c1.01.6,1.82,1.4,2.42,2.42s.9,2.14.9,3.38c0,.62-.08,1.2-.25,1.76s-.41,1.1-.72,1.64c-.32.54-.71,1.09-1.18,1.65-.47.56-1.01,1.15-1.62,1.77-.61.62-1.28,1.29-2.02,2h5.79v4.13h-13.39Z"/>
      </g>
      <g>
        <path class="cls-3" d="M242.19,307.98v-1.96h2.45v-12.63h-2.45v-1.96h4.61v14.59h2.45v1.96h-7.06ZM246.5,300.59v-1.89h4.45c1.16,0,2.04-.22,2.64-.65.6-.44.9-1.09.9-1.96,0-.93-.32-1.61-.97-2.04s-1.52-.64-2.6-.64h-4.68v-1.96h4.75c1.89,0,3.31.39,4.27,1.18.95.79,1.43,1.89,1.43,3.31,0,.5-.08,1.02-.24,1.56-.16.54-.45,1.05-.86,1.52-.42.47-1.01.85-1.78,1.14-.77.29-1.75.43-2.96.43h-4.36Z"/>
        <path class="cls-3" d="M262.18,306.21h2.17v1.77h-6.5v-1.77h2.27v-8.24h-2.27v-1.77h4.33v10.01ZM266.47,298.43c-.15-.04-.31-.08-.48-.1-.17-.02-.33-.03-.5-.03-1,0-1.81.36-2.41,1.08-.6.72-.9,1.72-.9,3l-.46-2.63h.55c.1-.82.3-1.51.6-2.06s.71-.97,1.2-1.25c.49-.28,1.06-.42,1.69-.42.12,0,.24,0,.36.02s.23.03.35.05v2.34Z"/>
        <path class="cls-3" d="M274,308.2c-1.24,0-2.31-.26-3.21-.78-.9-.52-1.6-1.23-2.08-2.14s-.73-1.96-.73-3.15.25-2.26.74-3.18c.49-.93,1.18-1.65,2.07-2.18.89-.52,1.92-.79,3.1-.79s2.23.26,3.1.78c.87.52,1.54,1.24,2,2.17s.7,1.99.7,3.2c0,.18,0,.31-.01.41s-.02.18-.03.25h-2.05c.01-.11.03-.23.03-.36,0-.13.01-.28.01-.46,0-.8-.15-1.51-.45-2.13-.3-.62-.72-1.11-1.28-1.47-.56-.36-1.23-.54-2.02-.54s-1.43.18-2,.54c-.57.36-1.02.87-1.34,1.51-.32.65-.48,1.39-.48,2.23s.16,1.53.47,2.16c.31.63.76,1.12,1.34,1.47.58.36,1.28.53,2.1.53s1.57-.2,2.17-.59,1.05-.93,1.34-1.61l1.96.74c-.43,1.04-1.12,1.86-2.08,2.46-.96.6-2.08.9-3.37.9ZM269.29,302.79v-1.57h9.73l.62,1.57h-10.35Z"/>
        <path class="cls-3" d="M287.89,300.89v1.78h-6.23v-1.78h6.23Z"/>
        <path class="cls-3" d="M293.72,306.21h2.13v1.77h-6.46v-1.77h2.26v-8.24h-2.26v-1.77h4.32v10.01ZM291.34,290.9h2.53v2.63h-2.53v-2.63Z"/>
        <path class="cls-3" d="M301.85,306.21h1.89v1.77h-6.23v-1.77h2.27v-8.24h-2.27v-1.77h4.33v10.01ZM307.83,306.21v-5.71c0-.86-.2-1.53-.59-2.03s-1-.74-1.81-.74c-.67,0-1.28.17-1.82.52s-.97.84-1.28,1.48c-.31.64-.47,1.41-.47,2.32l-.46-2.35h.55c.12-.81.37-1.5.75-2.05s.85-.96,1.44-1.24,1.24-.42,1.99-.42c1.23,0,2.17.37,2.82,1.1.65.73.97,1.78.97,3.15v5.98h2.12v1.77h-6.05v-1.77h1.86Z"/>
        <path class="cls-3" d="M317.05,304.82c0,.51.09.88.28,1.13.19.25.46.37.82.37s.63-.13.83-.38c.19-.25.29-.63.29-1.12v-1.15h1.84v1.13c0,.73-.1,1.34-.31,1.85s-.53.89-.97,1.16c-.44.26-1.01.4-1.71.4s-1.31-.14-1.77-.41c-.46-.28-.8-.66-1.02-1.17s-.34-1.1-.34-1.8v-6.85h-1.98v-1.77h1.98v-2.97h2.07v2.97h3.86l-.02,1.77h-3.84v6.85Z"/>
        <path class="cls-3" d="M329.2,308.2c-1.24,0-2.31-.26-3.21-.78-.9-.52-1.6-1.23-2.08-2.14s-.73-1.96-.73-3.15.25-2.26.74-3.18c.49-.93,1.18-1.65,2.07-2.18.89-.52,1.92-.79,3.1-.79s2.23.26,3.1.78c.87.52,1.54,1.24,2,2.17s.7,1.99.7,3.2c0,.18,0,.31-.01.41s-.02.18-.03.25h-2.05c.01-.11.03-.23.03-.36,0-.13.01-.28.01-.46,0-.8-.15-1.51-.45-2.13-.3-.62-.72-1.11-1.28-1.47-.56-.36-1.23-.54-2.02-.54s-1.43.18-2,.54c-.57.36-1.02.87-1.34,1.51-.32.65-.48,1.39-.48,2.23s.16,1.53.47,2.16c.31.63.76,1.12,1.34,1.47.58.36,1.28.53,2.1.53s1.57-.2,2.17-.59,1.05-.93,1.34-1.61l1.96.74c-.43,1.04-1.12,1.86-2.08,2.46-.96.6-2.08.9-3.37.9ZM324.49,302.79v-1.57h9.73l.62,1.57h-10.35Z"/>
        <path class="cls-3" d="M341.4,306.21h2.17v1.77h-6.5v-1.77h2.27v-8.24h-2.27v-1.77h4.33v10.01ZM345.69,298.43c-.15-.04-.31-.08-.48-.1-.17-.02-.33-.03-.5-.03-1,0-1.81.36-2.41,1.08-.6.72-.9,1.72-.9,3l-.46-2.63h.55c.1-.82.3-1.51.6-2.06s.71-.97,1.2-1.25c.49-.28,1.06-.42,1.69-.42.12,0,.24,0,.36.02s.23.03.35.05v2.34Z"/>
        <path class="cls-3" d="M347.18,307.98v-1.77h2.19v-8.24h-2.19v-1.77h4.26v10.01h1.88v1.77h-6.14ZM355.3,307.98v-1.77h1.87v-5.75c0-.85-.19-1.52-.58-2-.38-.48-.98-.73-1.79-.73-.64,0-1.21.17-1.72.52s-.91.84-1.2,1.49-.44,1.42-.44,2.31l-.47-2.35h.56c.17-1.25.62-2.19,1.35-2.82s1.63-.94,2.7-.94c1.22,0,2.13.37,2.74,1.1s.92,1.77.92,3.1v6.08h2.11v1.77h-6.05ZM363.1,307.98v-1.77h1.86v-5.75c0-.85-.19-1.52-.58-2-.38-.48-.98-.73-1.78-.73-.64,0-1.21.17-1.72.52s-.91.84-1.2,1.49c-.29.65-.44,1.42-.44,2.31l-.47-2.35h.55c.18-1.25.63-2.19,1.36-2.82.73-.63,1.63-.94,2.7-.94,1.22,0,2.13.37,2.74,1.1.61.73.91,1.77.91,3.1v6.08h2.12v1.77h-6.05Z"/>
        <path class="cls-3" d="M376.79,308.2c-1.24,0-2.31-.26-3.21-.78-.9-.52-1.6-1.23-2.08-2.14s-.73-1.96-.73-3.15.25-2.26.74-3.18c.49-.93,1.18-1.65,2.07-2.18.89-.52,1.92-.79,3.1-.79s2.23.26,3.1.78c.87.52,1.54,1.24,2,2.17s.7,1.99.7,3.2c0,.18,0,.31-.01.41s-.02.18-.03.25h-2.05c.01-.11.03-.23.03-.36,0-.13.01-.28.01-.46,0-.8-.15-1.51-.45-2.13-.3-.62-.72-1.11-1.28-1.47-.56-.36-1.23-.54-2.02-.54s-1.43.18-2,.54c-.57.36-1.02.87-1.34,1.51-.32.65-.48,1.39-.48,2.23s.16,1.53.47,2.16c.31.63.76,1.12,1.34,1.47.58.36,1.28.53,2.1.53s1.57-.2,2.17-.59,1.05-.93,1.34-1.61l1.96.74c-.43,1.04-1.12,1.86-2.08,2.46-.96.6-2.08.9-3.37.9ZM372.09,302.79v-1.57h9.73l.62,1.57h-10.35Z"/>
        <path class="cls-3" d="M390.56,295.96c.92,0,1.75.2,2.49.59.74.4,1.36.97,1.86,1.73.5.76.86,1.68,1.07,2.76l-1.32,1.01c0-.83-.15-1.56-.46-2.2-.3-.64-.74-1.14-1.32-1.5s-1.27-.54-2.1-.54-1.49.18-2.07.54c-.58.36-1.02.87-1.33,1.51-.31.64-.46,1.38-.46,2.23s.16,1.57.48,2.22c.32.64.77,1.14,1.35,1.51.58.36,1.25.54,2.02.54s1.5-.18,2.07-.54c.58-.36,1.02-.87,1.33-1.52.31-.65.47-1.4.47-2.25l.33,2.73h-.48c-.15.67-.4,1.27-.75,1.79-.35.52-.81.92-1.39,1.21-.57.29-1.25.44-2.05.44s-1.55-.15-2.22-.45-1.26-.73-1.75-1.28c-.5-.55-.88-1.2-1.15-1.95-.27-.75-.41-1.57-.41-2.45,0-1.2.24-2.27.71-3.19s1.14-1.65,2-2.17,1.88-.78,3.05-.78ZM394.59,307.98v-4.25l.07-1.02v-1.52l-.07-1.88v-6.94h-2.98v-1.77h5.05v15.61h2.11v1.77h-4.18Z"/>
        <path class="cls-3" d="M405.05,306.21h2.13v1.77h-6.46v-1.77h2.26v-8.24h-2.26v-1.77h4.32v10.01ZM402.67,290.9h2.53v2.63h-2.53v-2.63Z"/>
        <path class="cls-3" d="M412.59,308.14c-1.23,0-2.17-.28-2.82-.84-.65-.56-.97-1.38-.97-2.46,0-.97.27-1.71.82-2.24.55-.52,1.46-.92,2.73-1.18l5.07-1.04v1.45l-4.73,1.07c-.59.14-1.03.35-1.32.64-.29.29-.43.68-.43,1.17,0,.55.17.96.51,1.24.34.28.83.42,1.47.42.78,0,1.48-.19,2.07-.57s1.06-.91,1.4-1.59c.33-.68.5-1.48.5-2.41l.55,2.6h-.71c-.17,1.23-.6,2.16-1.3,2.79s-1.65.95-2.85.95ZM418.02,307.98c-.39,0-.69-.12-.89-.37-.21-.25-.31-.6-.31-1.05v-2.98l.19-.42-.11-1.36-.08-.79v-.87c0-.5-.1-.92-.31-1.25-.21-.34-.52-.59-.93-.76-.41-.17-.91-.26-1.51-.26-.86,0-1.53.17-2.02.52-.49.35-.81.87-.95,1.57l-1.98-.41c.13-.8.41-1.46.82-2,.41-.53.97-.93,1.67-1.19.7-.26,1.55-.4,2.54-.4,1.06,0,1.93.15,2.63.45.7.3,1.23.75,1.58,1.35s.53,1.35.53,2.26v6.19h1.66v1.77h-2.53Z"/>
        <path class="cls-3" d="M425.87,304.82c0,.51.09.88.28,1.13.19.25.46.37.82.37s.63-.13.83-.38c.19-.25.29-.63.29-1.12v-1.15h1.84v1.13c0,.73-.1,1.34-.31,1.85s-.53.89-.97,1.16c-.44.26-1.01.4-1.71.4s-1.31-.14-1.77-.41c-.46-.28-.8-.66-1.02-1.17s-.34-1.1-.34-1.8v-6.85h-1.98v-1.77h1.98v-2.97h2.07v2.97h3.86l-.02,1.77h-3.84v6.85Z"/>
        <path class="cls-3" d="M438.01,308.2c-1.24,0-2.31-.26-3.21-.78-.9-.52-1.6-1.23-2.08-2.14s-.73-1.96-.73-3.15.25-2.26.74-3.18c.49-.93,1.18-1.65,2.07-2.18.89-.52,1.92-.79,3.1-.79s2.23.26,3.1.78c.87.52,1.54,1.24,2,2.17s.7,1.99.7,3.2c0,.18,0,.31-.01.41s-.02.18-.03.25h-2.05c.01-.11.03-.23.03-.36,0-.13.01-.28.01-.46,0-.8-.15-1.51-.45-2.13-.3-.62-.72-1.11-1.28-1.47-.56-.36-1.23-.54-2.02-.54s-1.43.18-2,.54c-.57.36-1.02.87-1.34,1.51-.32.65-.48,1.39-.48,2.23s.16,1.53.47,2.16c.31.63.76,1.12,1.34,1.47.58.36,1.28.53,2.1.53s1.57-.2,2.17-.59,1.05-.93,1.34-1.61l1.96.74c-.43,1.04-1.12,1.86-2.08,2.46-.96.6-2.08.9-3.37.9ZM433.3,302.79v-1.57h9.73l.62,1.57h-10.35Z"/>
      </g>
    </g>
    <g>
      <circle class="cls-11" cx="330.46" cy="616.7" r="65.55" transform="translate(-339.29 414.3) rotate(-45)"/>
      <polygon class="cls-9" points="349.5 635.33 309.95 635.33 309.95 638.77 304.36 638.77 304.36 661.3 355.08 661.3 355.08 638.77 349.5 638.77 349.5 635.33"/>
      <polygon class="cls-8" points="323.28 635.33 335.03 635.33 358.54 559.09 329.95 575.11 323.28 635.33"/>
      <circle class="cls-2" cx="328.87" cy="553.93" r="13.76" transform="translate(-295.37 394.79) rotate(-45)"/>
      <polygon class="cls-4" points="299.78 559.09 323.28 635.33 335.03 635.33 329.95 575.11 299.78 559.09"/>
      <rect class="cls-5" x="311.94" y="643.77" width="35.56" height="12.37"/>
      <polygon class="cls-14" points="277.73 548.16 280.65 550.93 284.17 548.97 286.31 552.38 290.2 551.36 291.42 555.2 295.45 555.18 295.68 559.2 299.59 560.18 298.81 564.13 302.35 566.05 300.62 569.68 303.57 572.42 300.98 575.51 303.16 578.9 299.89 581.25 301.15 585.07 297.4 586.53 297.68 590.55 293.68 591.03 292.95 594.99 288.95 594.47 287.26 598.12 283.52 596.62 280.97 599.73 277.73 597.35 274.48 599.73 271.93 596.62 268.2 598.12 266.5 594.47 262.51 594.99 261.78 591.03 257.78 590.55 258.05 586.53 254.3 585.07 255.57 581.25 252.3 578.9 254.47 575.51 251.89 572.42 254.84 569.68 253.11 566.05 256.64 564.13 255.87 560.18 259.77 559.2 260.01 555.18 264.03 555.2 265.26 551.36 269.15 552.38 271.29 548.97 274.81 550.93 277.73 548.16"/>
      <g>
        <path class="cls-3" d="M262.79,584.28v-19.29h7.3c1.06,0,2.01.22,2.87.65.85.44,1.53,1.05,2.03,1.85.5.8.75,1.74.75,2.81,0,.4-.05.83-.15,1.27-.1.45-.28.86-.54,1.25-.26.39-.62.69-1.1.91.62.15,1.1.42,1.46.83.36.4.63.87.81,1.4.18.53.3,1.06.35,1.6.06.54.08,1.02.08,1.45,0,.97-.26,1.86-.79,2.65s-1.23,1.43-2.11,1.9c-.88.47-1.86.71-2.92.71h-8.04ZM266.92,572.23h2.67c.55,0,1.02-.18,1.42-.55.39-.37.59-.83.59-1.39s-.2-1.01-.59-1.31c-.4-.3-.87-.45-1.42-.45h-2.67v3.71ZM266.92,580.78h3.47c.48,0,.91-.11,1.3-.34.39-.23.7-.54.94-.93.23-.39.35-.84.35-1.35,0-.42-.12-.82-.35-1.21-.23-.38-.55-.69-.94-.93-.39-.24-.82-.36-1.3-.36h-3.47v5.11Z"/>
        <path class="cls-3" d="M278.85,584.28v-3.69c.51-.32,1.16-.77,1.93-1.34.77-.57,1.58-1.22,2.43-1.94s1.64-1.44,2.38-2.18,1.34-1.44,1.81-2.11c.47-.67.7-1.23.7-1.69s-.11-.9-.34-1.29c-.23-.39-.54-.7-.92-.93-.38-.23-.81-.34-1.27-.34s-.9.12-1.28.34-.7.54-.93.93c-.23.39-.35.82-.35,1.29h-4.13c0-1.27.31-2.41.92-3.42s1.43-1.81,2.45-2.4c1.01-.59,2.12-.88,3.33-.88s2.34.3,3.35.9c1.01.6,1.82,1.4,2.42,2.42s.9,2.14.9,3.38c0,.62-.08,1.2-.25,1.76-.17.56-.41,1.1-.72,1.64-.32.54-.71,1.09-1.18,1.65-.47.56-1.01,1.15-1.62,1.77-.61.62-1.28,1.29-2.02,2h5.79v4.13h-13.39Z"/>
      </g>
      <g>
        <path class="cls-3" d="M225.89,690.94h6.85v1.96h-2.37v8.26c0,1.36-.26,2.54-.79,3.51-.53.98-1.28,1.73-2.26,2.26-.98.53-2.15.79-3.53.79s-2.55-.26-3.53-.79c-.98-.53-1.74-1.28-2.26-2.26-.52-.98-.79-2.15-.79-3.51v-8.26h-2.38v-1.96h6.98v1.96h-2.45v8.26c0,.94.17,1.74.52,2.42.35.67.85,1.19,1.51,1.54s1.46.54,2.41.54,1.76-.18,2.43-.54c.67-.36,1.19-.88,1.56-1.55s.54-1.47.54-2.41v-8.26h-2.46v-1.96Z"/>
        <path class="cls-3" d="M232.98,712.11v-1.77h2.19v-12.86h-2.19v-1.77h4.26v3.96l-.07,1.53v.63l.07,1.22v7.29h2.12v1.77h-6.38ZM241.26,707.73c-.92,0-1.75-.2-2.49-.59-.73-.4-1.35-.97-1.85-1.73-.5-.75-.86-1.68-1.08-2.76l1.33-1.01c0,.83.15,1.56.45,2.19.3.63.74,1.13,1.32,1.5.58.36,1.28.54,2.09.54s1.5-.18,2.07-.54c.58-.36,1.02-.87,1.33-1.51.31-.64.46-1.38.46-2.22s-.16-1.59-.48-2.23c-.32-.64-.77-1.14-1.35-1.51-.58-.36-1.26-.54-2.03-.54s-1.49.18-2.07.54c-.58.36-1.02.87-1.33,1.52-.31.65-.46,1.4-.46,2.25l-.34-2.73h.5c.14-.67.39-1.27.74-1.79.36-.52.82-.92,1.39-1.22s1.25-.44,2.04-.44,1.56.15,2.23.45,1.26.73,1.75,1.28.87,1.2,1.14,1.95.41,1.57.41,2.46c0,1.2-.24,2.25-.7,3.18-.47.92-1.13,1.65-2,2.17-.86.52-1.88.78-3.06.78Z"/>
        <path class="cls-3" d="M248.49,712.11v-1.77h2.19v-12.86h-2.19v-1.77h4.26v3.96l-.07,1.53v.63l.07,1.22v7.29h2.12v1.77h-6.38ZM256.77,707.73c-.92,0-1.75-.2-2.49-.59-.73-.4-1.35-.97-1.85-1.73-.5-.75-.86-1.68-1.08-2.76l1.33-1.01c0,.83.15,1.56.45,2.19.3.63.74,1.13,1.32,1.5.58.36,1.28.54,2.09.54s1.5-.18,2.07-.54c.58-.36,1.02-.87,1.33-1.51.31-.64.46-1.38.46-2.22s-.16-1.59-.48-2.23c-.32-.64-.77-1.14-1.35-1.51-.58-.36-1.26-.54-2.03-.54s-1.49.18-2.07.54c-.58.36-1.02.87-1.33,1.52s-.46,1.4-.46,2.25l-.34-2.73h.5c.14-.67.39-1.27.74-1.79.36-.52.82-.92,1.39-1.22s1.25-.44,2.04-.44,1.56.15,2.23.45,1.26.73,1.75,1.28.87,1.2,1.14,1.95c.27.75.41,1.57.41,2.46,0,1.2-.23,2.25-.7,3.18-.47.92-1.14,1.65-2,2.17s-1.88.78-3.06.78Z"/>
        <path class="cls-3" d="M270.97,707.71c-1.24,0-2.31-.26-3.21-.78-.9-.52-1.6-1.23-2.08-2.14-.48-.91-.73-1.96-.73-3.15s.25-2.26.74-3.18,1.18-1.65,2.07-2.18c.89-.52,1.92-.79,3.1-.79s2.23.26,3.1.78,1.54,1.24,2,2.17.7,1.99.7,3.2c0,.18,0,.31-.01.41,0,.1-.02.18-.03.25h-2.05c.01-.11.03-.23.03-.36,0-.13.01-.28.01-.46,0-.8-.15-1.51-.45-2.13-.3-.62-.72-1.11-1.28-1.47-.56-.36-1.23-.54-2.02-.54s-1.43.18-2,.54-1.02.87-1.34,1.51c-.32.65-.48,1.39-.48,2.23s.16,1.53.47,2.16.76,1.12,1.34,1.47c.58.36,1.28.53,2.1.53s1.57-.2,2.17-.59c.6-.39,1.05-.93,1.34-1.61l1.96.74c-.42,1.04-1.12,1.86-2.08,2.46-.96.6-2.08.9-3.37.9ZM266.26,702.29v-1.57h9.73l.62,1.57h-10.35Z"/>
        <path class="cls-3" d="M283.17,705.71h2.17v1.77h-6.5v-1.77h2.27v-8.24h-2.27v-1.77h4.33v10.01ZM287.46,697.94c-.15-.04-.31-.08-.48-.1-.17-.02-.33-.03-.5-.03-1,0-1.81.36-2.41,1.08-.6.72-.9,1.72-.9,3l-.46-2.63h.55c.1-.82.3-1.51.61-2.06.31-.55.71-.97,1.2-1.25.49-.28,1.06-.42,1.69-.42.12,0,.24,0,.36.02.11.01.23.03.35.05v2.34Z"/>
        <path class="cls-3" d="M294.52,692.9v-1.96h7.06v1.96h-2.45v12.63h2.45v1.96h-7.06v-1.96h2.45v-12.63h-2.45Z"/>
        <path class="cls-3" d="M307.7,705.71h1.89v1.77h-6.23v-1.77h2.27v-8.24h-2.27v-1.77h4.33v10.01ZM313.67,705.71v-5.71c0-.86-.2-1.53-.59-2.03-.39-.5-1-.74-1.81-.74-.67,0-1.28.17-1.82.52s-.97.84-1.28,1.48c-.32.64-.47,1.41-.47,2.32l-.46-2.35h.55c.12-.81.37-1.5.75-2.05s.85-.96,1.44-1.24,1.24-.42,1.99-.42c1.23,0,2.17.37,2.82,1.1.65.73.97,1.78.97,3.15v5.98h2.12v1.77h-6.05v-1.77h1.86Z"/>
        <path class="cls-3" d="M322.9,704.33c0,.51.09.88.28,1.13.19.25.46.37.82.37s.63-.13.83-.38c.19-.25.29-.63.29-1.12v-1.15h1.84v1.13c0,.73-.1,1.34-.31,1.85s-.53.89-.97,1.16c-.44.26-1.01.4-1.71.4s-1.31-.14-1.76-.41c-.46-.28-.8-.66-1.02-1.17s-.34-1.1-.34-1.8v-6.85h-1.98v-1.77h1.98v-2.97h2.07v2.97h3.86l-.02,1.77h-3.84v6.85Z"/>
        <path class="cls-3" d="M335.04,707.71c-1.24,0-2.31-.26-3.21-.78-.9-.52-1.59-1.23-2.08-2.14-.48-.91-.73-1.96-.73-3.15s.25-2.26.74-3.18c.49-.93,1.18-1.65,2.07-2.18.89-.52,1.92-.79,3.1-.79s2.23.26,3.1.78c.87.52,1.54,1.24,2,2.17s.7,1.99.7,3.2c0,.18,0,.31-.01.41,0,.1-.02.18-.03.25h-2.05c.01-.11.03-.23.03-.36,0-.13.01-.28.01-.46,0-.8-.15-1.51-.45-2.13-.3-.62-.72-1.11-1.28-1.47s-1.23-.54-2.02-.54-1.43.18-2,.54c-.57.36-1.02.87-1.34,1.51s-.48,1.39-.48,2.23.16,1.53.47,2.16c.31.63.76,1.12,1.34,1.47.58.36,1.28.53,2.1.53s1.57-.2,2.17-.59c.61-.39,1.05-.93,1.34-1.61l1.96.74c-.43,1.04-1.12,1.86-2.08,2.46-.96.6-2.08.9-3.37.9ZM330.33,702.29v-1.57h9.74l.62,1.57h-10.35Z"/>
        <path class="cls-3" d="M347.24,705.71h2.17v1.77h-6.5v-1.77h2.27v-8.24h-2.27v-1.77h4.33v10.01ZM351.53,697.94c-.15-.04-.31-.08-.48-.1-.17-.02-.33-.03-.5-.03-1,0-1.81.36-2.41,1.08s-.9,1.72-.9,3l-.46-2.63h.55c.09-.82.3-1.51.6-2.06.31-.55.71-.97,1.2-1.25.49-.28,1.06-.42,1.69-.42.12,0,.24,0,.36.02.11.01.23.03.35.05v2.34Z"/>
        <path class="cls-3" d="M353.03,707.49v-1.77h2.19v-8.24h-2.19v-1.77h4.26v10.01h1.88v1.77h-6.14ZM361.15,707.49v-1.77h1.87v-5.75c0-.85-.19-1.52-.58-2-.38-.48-.98-.73-1.79-.73-.64,0-1.21.17-1.72.52s-.91.84-1.21,1.49c-.29.65-.44,1.42-.44,2.31l-.47-2.35h.56c.17-1.25.62-2.19,1.35-2.82s1.63-.94,2.7-.94c1.22,0,2.13.37,2.74,1.1s.92,1.77.92,3.1v6.08h2.11v1.77h-6.05ZM368.95,707.49v-1.77h1.86v-5.75c0-.85-.19-1.52-.58-2-.38-.48-.98-.73-1.78-.73-.64,0-1.21.17-1.72.52s-.91.84-1.21,1.49c-.29.65-.44,1.42-.44,2.31l-.47-2.35h.55c.18-1.25.63-2.19,1.36-2.82s1.63-.94,2.7-.94c1.22,0,2.13.37,2.74,1.1s.91,1.77.91,3.1v6.08h2.12v1.77h-6.05Z"/>
        <path class="cls-3" d="M382.64,707.71c-1.24,0-2.31-.26-3.21-.78-.9-.52-1.59-1.23-2.08-2.14-.48-.91-.73-1.96-.73-3.15s.25-2.26.74-3.18c.49-.93,1.18-1.65,2.07-2.18.89-.52,1.92-.79,3.1-.79s2.23.26,3.1.78c.87.52,1.54,1.24,2,2.17s.7,1.99.7,3.2c0,.18,0,.31-.01.41,0,.1-.02.18-.03.25h-2.05c.01-.11.03-.23.03-.36,0-.13.01-.28.01-.46,0-.8-.15-1.51-.45-2.13-.3-.62-.72-1.11-1.28-1.47s-1.23-.54-2.02-.54-1.43.18-2,.54c-.57.36-1.02.87-1.34,1.51s-.48,1.39-.48,2.23.16,1.53.47,2.16c.31.63.76,1.12,1.34,1.47.58.36,1.28.53,2.1.53s1.57-.2,2.17-.59c.61-.39,1.05-.93,1.34-1.61l1.96.74c-.43,1.04-1.12,1.86-2.08,2.46-.96.6-2.08.9-3.37.9ZM377.93,702.29v-1.57h9.74l.62,1.57h-10.35Z"/>
        <path class="cls-3" d="M396.4,695.46c.92,0,1.75.2,2.49.59.74.4,1.36.97,1.86,1.73.5.76.86,1.68,1.07,2.76l-1.32,1.01c0-.83-.15-1.56-.46-2.2s-.74-1.14-1.32-1.5c-.58-.36-1.27-.54-2.09-.54s-1.49.18-2.07.54c-.58.36-1.02.87-1.33,1.51s-.46,1.38-.46,2.23.16,1.57.48,2.22c.32.64.77,1.14,1.35,1.51.58.36,1.25.54,2.02.54s1.5-.18,2.07-.54c.58-.36,1.02-.87,1.33-1.52.31-.65.47-1.4.47-2.25l.33,2.73h-.48c-.15.67-.4,1.27-.75,1.79-.35.52-.81.92-1.39,1.21-.57.29-1.25.44-2.05.44s-1.55-.15-2.22-.45-1.26-.73-1.75-1.28c-.5-.55-.88-1.2-1.15-1.95-.27-.75-.41-1.57-.41-2.45,0-1.2.24-2.27.71-3.19.47-.92,1.14-1.65,2-2.17.86-.52,1.88-.78,3.05-.78ZM400.44,707.49v-4.25l.07-1.02v-1.52l-.07-1.88v-6.94h-2.98v-1.77h5.05v15.61h2.11v1.77h-4.18Z"/>
        <path class="cls-3" d="M410.9,705.71h2.13v1.77h-6.46v-1.77h2.25v-8.24h-2.25v-1.77h4.32v10.01ZM408.51,690.4h2.53v2.63h-2.53v-2.63Z"/>
        <path class="cls-3" d="M418.43,707.64c-1.23,0-2.17-.28-2.82-.84-.64-.56-.97-1.38-.97-2.46,0-.97.28-1.71.83-2.24s1.46-.92,2.73-1.18l5.07-1.04v1.45l-4.73,1.07c-.59.14-1.03.35-1.32.64-.29.29-.43.68-.43,1.17,0,.55.17.96.51,1.24.34.28.83.42,1.47.42.79,0,1.48-.19,2.07-.57s1.06-.91,1.4-1.59c.33-.68.5-1.48.5-2.41l.55,2.6h-.71c-.17,1.23-.6,2.16-1.3,2.79-.7.63-1.65.95-2.85.95ZM423.87,707.49c-.39,0-.69-.12-.89-.37-.21-.25-.31-.6-.31-1.05v-2.98l.19-.42-.11-1.36-.08-.79v-.87c0-.5-.1-.92-.31-1.25-.21-.34-.52-.59-.93-.76-.41-.17-.91-.26-1.51-.26-.86,0-1.53.17-2.02.52-.49.35-.81.87-.95,1.57l-1.98-.41c.13-.8.41-1.46.82-2,.41-.53.97-.93,1.67-1.19s1.55-.4,2.54-.4c1.06,0,1.93.15,2.63.45s1.23.75,1.58,1.35c.35.6.53,1.35.53,2.26v6.19h1.66v1.77h-2.53Z"/>
        <path class="cls-3" d="M431.71,704.33c0,.51.09.88.28,1.13.19.25.46.37.82.37s.63-.13.83-.38c.19-.25.29-.63.29-1.12v-1.15h1.84v1.13c0,.73-.1,1.34-.31,1.85s-.53.89-.97,1.16c-.44.26-1.01.4-1.71.4s-1.31-.14-1.77-.41c-.46-.28-.8-.66-1.02-1.17s-.33-1.1-.33-1.8v-6.85h-1.98v-1.77h1.98v-2.97h2.07v2.97h3.86l-.02,1.77h-3.84v6.85Z"/>
        <path class="cls-3" d="M443.85,707.71c-1.24,0-2.31-.26-3.21-.78-.9-.52-1.6-1.23-2.08-2.14-.48-.91-.73-1.96-.73-3.15s.25-2.26.74-3.18,1.18-1.65,2.07-2.18c.89-.52,1.92-.79,3.1-.79s2.23.26,3.1.78,1.54,1.24,2,2.17.7,1.99.7,3.2c0,.18,0,.31-.01.41,0,.1-.02.18-.03.25h-2.05c.01-.11.03-.23.03-.36,0-.13.01-.28.01-.46,0-.8-.15-1.51-.45-2.13-.3-.62-.72-1.11-1.28-1.47-.56-.36-1.23-.54-2.02-.54s-1.43.18-2,.54-1.02.87-1.34,1.51c-.32.65-.48,1.39-.48,2.23s.16,1.53.47,2.16.76,1.12,1.34,1.47c.58.36,1.28.53,2.1.53s1.57-.2,2.17-.59c.6-.39,1.05-.93,1.34-1.61l1.96.74c-.42,1.04-1.12,1.86-2.08,2.46-.96.6-2.08.9-3.37.9ZM439.15,702.29v-1.57h9.73l.62,1.57h-10.35Z"/>
      </g>
    </g>
    <g>
      <circle class="cls-7" cx="94.94" cy="791.53" r="65.55" transform="translate(-118.08 23.31) rotate(-8.66)"/>
      <path class="cls-4" d="M130.58,747.77h-4.14v-10.4h-63.83v10.4h-4.14c-6.58,0-11.97,5.39-11.97,11.97s5.39,11.97,11.97,11.97h4.42c1.81,13.56,12.22,24.5,25.52,27.11v11.93h12.23v-11.93c13.3-2.61,23.71-13.55,25.52-27.11h4.42c6.58,0,11.97-5.39,11.97-11.97s-5.39-11.97-11.97-11.97ZM62.62,765.59h-4.14c-3.21,0-5.85-2.65-5.85-5.85s2.65-5.85,5.85-5.85h4.14v11.71ZM130.58,765.59h-4.14v-11.71h4.14c3.21,0,5.85,2.65,5.85,5.85s-2.65,5.85-5.85,5.85Z"/>
      <path class="cls-8" d="M130.58,747.77h-4.14v-10.4h-31.91v73.37h6.11v-11.93c13.3-2.61,23.71-13.55,25.52-27.11h4.42c6.58,0,11.97-5.39,11.97-11.97s-5.39-11.97-11.97-11.97ZM130.58,765.59h-4.14v-11.71h4.14c3.21,0,5.85,2.65,5.85,5.85s-2.65,5.85-5.85,5.85Z"/>
      <polygon class="cls-9" points="115.11 810.74 73.95 810.74 73.95 814.32 68.13 814.32 68.13 837.77 120.93 837.77 120.93 814.32 115.11 814.32 115.11 810.74"/>
      <rect class="cls-5" x="77.16" y="819.36" width="35.56" height="12.37"/>
      <polygon class="cls-14" points="37.52 727.53 40.44 730.3 43.95 728.34 46.09 731.76 49.99 730.73 51.21 734.57 55.24 734.55 55.47 738.57 59.38 739.55 58.6 743.5 62.14 745.42 60.4 749.05 63.35 751.79 60.77 754.88 62.95 758.27 59.68 760.62 60.94 764.44 57.19 765.91 57.46 769.92 53.47 770.41 52.73 774.37 48.74 773.84 47.05 777.49 43.31 775.99 40.76 779.11 37.52 776.72 34.27 779.11 31.72 775.99 27.99 777.49 26.29 773.84 22.3 774.37 21.57 770.41 17.57 769.92 17.84 765.91 14.09 764.44 15.36 760.62 12.09 758.27 14.26 754.88 11.68 751.79 14.63 749.05 12.89 745.42 16.43 743.5 15.66 739.55 19.56 738.57 19.79 734.55 23.82 734.57 25.04 730.73 28.94 731.76 31.08 728.34 34.6 730.3 37.52 727.53"/>
      <g>
        <path class="cls-3" d="M32.51,764.01c-1.3,0-2.53-.26-3.68-.78-1.15-.52-2.16-1.24-3.02-2.16-.87-.92-1.55-1.98-2.04-3.19-.49-1.21-.74-2.5-.74-3.88s.25-2.68.74-3.89c.49-1.21,1.17-2.27,2.04-3.18.87-.91,1.88-1.63,3.02-2.15,1.15-.52,2.37-.78,3.68-.78,1.56,0,3,.36,4.31,1.08,1.31.72,2.4,1.68,3.26,2.89l-3.69,1.98c-.48-.55-1.05-.99-1.72-1.32s-1.39-.5-2.16-.5-1.43.15-2.07.45c-.65.3-1.22.72-1.71,1.26s-.88,1.16-1.15,1.87-.41,1.47-.41,2.29.14,1.57.41,2.27c.28.71.66,1.33,1.15,1.87s1.06.96,1.71,1.27,1.34.46,2.07.46c.77,0,1.49-.17,2.16-.5.67-.33,1.24-.78,1.72-1.34l3.69,2.01c-.86,1.19-1.95,2.15-3.26,2.88-1.31.73-2.75,1.09-4.31,1.09Z"/>
        <path class="cls-3" d="M45.18,763.65v-15.15h-2.62l1.1-4.13h5.65v19.29h-4.13Z"/>
      </g>
      <g>
        <path class="cls-3" d="M46.49,884.37h1.47v1.96h-7.04v-1.96h3.31l-5.17-12.86,1.31.89h-2.07l1.31-.89-5.17,12.86h3.31v1.96h-6.93v-1.96h1.47l5.88-14.59h2.42l5.88,14.59ZM43.83,879.33v1.87h-8.82v-1.87h8.82Z"/>
        <path class="cls-3" d="M54.82,874.31c.92,0,1.75.2,2.49.59.74.4,1.36.97,1.86,1.73.5.76.86,1.68,1.07,2.76l-1.32,1.01c0-.83-.15-1.56-.46-2.2-.3-.64-.75-1.14-1.32-1.5-.58-.36-1.27-.54-2.1-.54s-1.49.18-2.07.54c-.58.36-1.02.87-1.33,1.51-.31.64-.46,1.38-.46,2.23s.16,1.57.48,2.22c.32.64.77,1.14,1.35,1.51.58.36,1.25.54,2.02.54s1.5-.18,2.07-.54c.58-.36,1.02-.87,1.33-1.52.31-.65.47-1.4.47-2.25l.33,2.73h-.48c-.15.67-.4,1.27-.75,1.79-.35.52-.81.92-1.39,1.21-.57.29-1.25.44-2.05.44s-1.55-.15-2.22-.45-1.26-.73-1.75-1.28c-.5-.55-.88-1.2-1.15-1.95s-.41-1.57-.41-2.45c0-1.2.24-2.27.71-3.19.47-.92,1.14-1.65,2-2.17.86-.52,1.88-.78,3.05-.78ZM58.86,886.33v-4.25l.07-1.02v-1.52l-.07-1.88v-6.94h-2.98v-1.77h5.05v15.61h2.11v1.77h-4.18Z"/>
        <path class="cls-3" d="M71.54,874.55h5.27v1.77h-1.26l-4.05,10.01h-2.24l-4.24-10.01h-1.24v-1.77h5.43v1.77h-1.96l4.07,10.01-1.91-2.18h1.94l-1.66,2.18,3.82-10.01h-1.96v-1.77Z"/>
        <path class="cls-3" d="M81.52,886.48c-1.23,0-2.17-.28-2.82-.84s-.97-1.38-.97-2.46c0-.97.27-1.71.82-2.24.55-.52,1.46-.92,2.73-1.18l5.07-1.04v1.45l-4.73,1.07c-.59.14-1.03.35-1.32.64-.29.29-.43.68-.43,1.17,0,.55.17.96.51,1.24.34.28.83.42,1.47.42.78,0,1.48-.19,2.07-.57s1.06-.91,1.4-1.59c.33-.68.5-1.48.5-2.41l.55,2.6h-.71c-.17,1.23-.6,2.16-1.3,2.79-.7.63-1.65.95-2.85.95ZM86.95,886.33c-.39,0-.69-.12-.89-.37-.21-.25-.31-.6-.31-1.05v-2.98l.19-.42-.11-1.36-.08-.79v-.87c0-.5-.1-.92-.31-1.25-.21-.34-.52-.59-.93-.76-.41-.17-.91-.26-1.51-.26-.86,0-1.53.17-2.02.52-.49.35-.81.87-.95,1.57l-1.98-.41c.13-.8.41-1.46.82-2,.42-.53.97-.93,1.67-1.19.7-.26,1.54-.4,2.54-.4,1.06,0,1.93.15,2.63.45.7.3,1.23.75,1.58,1.35.35.6.53,1.35.53,2.26v6.19h1.66v1.77h-2.53Z"/>
        <path class="cls-3" d="M95.63,884.56h1.89v1.77h-6.23v-1.77h2.27v-8.24h-2.27v-1.77h4.33v10.01ZM101.61,884.56v-5.71c0-.86-.2-1.53-.59-2.03-.39-.5-1-.74-1.81-.74-.67,0-1.28.17-1.82.52s-.97.84-1.28,1.48c-.31.64-.47,1.41-.47,2.32l-.46-2.35h.55c.12-.81.37-1.5.75-2.05s.85-.96,1.44-1.24,1.25-.42,1.99-.42c1.23,0,2.17.37,2.82,1.1.65.73.97,1.78.97,3.15v5.98h2.12v1.77h-6.05v-1.77h1.86Z"/>
        <path class="cls-3" d="M113.56,886.55c-1.25,0-2.33-.26-3.25-.78-.92-.52-1.62-1.23-2.12-2.14-.5-.91-.75-1.96-.75-3.15,0-.9.14-1.72.41-2.47s.66-1.4,1.17-1.95c.51-.55,1.11-.97,1.81-1.28s1.48-.45,2.34-.45c.79,0,1.44.12,1.94.36.5.24.88.58,1.14,1.02.26.44.42.94.48,1.52h.5l-.41,1.81c-.09-.56-.28-1.05-.57-1.48-.29-.43-.68-.77-1.16-1.01s-1.03-.36-1.66-.36c-.78,0-1.46.18-2.04.54s-1.03.87-1.35,1.51c-.32.65-.48,1.39-.48,2.23s.16,1.53.49,2.16.79,1.12,1.39,1.47c.6.36,1.31.53,2.15.53s1.54-.18,2.13-.53c.59-.35,1.02-.83,1.26-1.42l1.92.85c-.39.93-1.05,1.67-1.99,2.2-.94.54-2.06.8-3.36.8ZM116.82,879.05v-4.5h2.07v4.5h-2.07Z"/>
        <path class="cls-3" d="M127.36,886.55c-1.24,0-2.31-.26-3.21-.78-.9-.52-1.59-1.23-2.08-2.14-.48-.91-.73-1.96-.73-3.15s.25-2.26.74-3.18c.49-.93,1.18-1.65,2.07-2.18.89-.52,1.92-.79,3.1-.79s2.23.26,3.1.78c.87.52,1.54,1.24,2,2.17s.7,1.99.7,3.2c0,.18,0,.31-.01.41,0,.1-.02.18-.03.25h-2.05c.01-.11.03-.23.03-.36,0-.13.01-.28.01-.46,0-.8-.15-1.51-.45-2.13-.3-.62-.72-1.11-1.28-1.47s-1.23-.54-2.02-.54-1.43.18-2,.54c-.57.36-1.02.87-1.34,1.51s-.48,1.39-.48,2.23.16,1.53.47,2.16c.31.63.76,1.12,1.34,1.47.58.36,1.28.53,2.1.53s1.57-.2,2.17-.59c.61-.39,1.05-.93,1.34-1.61l1.96.74c-.43,1.04-1.12,1.86-2.08,2.46-.96.6-2.08.9-3.37.9ZM122.65,881.14v-1.57h9.74l.62,1.57h-10.35Z"/>
        <path class="cls-3" d="M141.12,874.31c.92,0,1.75.2,2.49.59.74.4,1.36.97,1.86,1.73.5.76.86,1.68,1.07,2.76l-1.32,1.01c0-.83-.15-1.56-.46-2.2s-.74-1.14-1.32-1.5c-.58-.36-1.27-.54-2.09-.54s-1.49.18-2.07.54c-.58.36-1.02.87-1.33,1.51s-.46,1.38-.46,2.23.16,1.57.48,2.22c.32.64.77,1.14,1.35,1.51.58.36,1.25.54,2.02.54s1.5-.18,2.07-.54c.58-.36,1.02-.87,1.33-1.52.31-.65.47-1.4.47-2.25l.33,2.73h-.48c-.15.67-.4,1.27-.75,1.79-.35.52-.81.92-1.39,1.21-.57.29-1.25.44-2.05.44s-1.55-.15-2.22-.45-1.26-.73-1.75-1.28c-.5-.55-.88-1.2-1.15-1.95-.27-.75-.41-1.57-.41-2.45,0-1.2.24-2.27.71-3.19.47-.92,1.14-1.65,2-2.17.86-.52,1.88-.78,3.05-.78ZM145.16,886.33v-4.25l.07-1.02v-1.52l-.07-1.88v-6.94h-2.98v-1.77h5.05v15.61h2.11v1.77h-4.18Z"/>
      </g>
    </g>
    <g>
      <circle class="cls-13" cx="77.38" cy="404.93" r="65.55" transform="translate(-66.75 18.69) rotate(-9.65)"/>
      <circle class="cls-2" cx="77.38" cy="427.23" r="24.17"/>
      <path class="cls-8" d="M77.38,403.07v48.34c13.35,0,24.17-10.82,24.17-24.17s-10.82-24.17-24.17-24.17Z"/>
      <polygon class="cls-6" points="31.82 350.62 65.91 400.69 88.85 400.69 54.76 350.62 31.82 350.62"/>
      <polygon class="cls-6" points="65.91 400.69 88.85 400.69 122.94 350.62 100 350.62 65.91 400.69"/>
      <polygon class="cls-9" points="81.8 400.69 88.85 400.69 122.94 350.62 115.89 350.62 81.8 400.69"/>
      <polygon class="cls-9" points="65.91 400.69 74.48 400.69 108.57 350.62 100 350.62 65.91 400.69"/>
      <polygon class="cls-9" points="31.82 350.62 65.91 400.69 72.96 400.69 38.87 350.62 31.82 350.62"/>
      <polygon class="cls-9" points="46.19 350.62 73.1 390.14 77.38 383.85 54.76 350.62 46.19 350.62"/>
      <polygon class="cls-14" points="26.53 337.04 29.45 339.81 32.97 337.85 35.1 341.27 39 340.24 40.22 344.08 44.25 344.06 44.48 348.08 48.39 349.06 47.61 353.01 51.15 354.93 49.41 358.56 52.37 361.3 49.78 364.39 51.96 367.78 48.69 370.13 49.95 373.95 46.2 375.41 46.47 379.43 42.48 379.92 41.74 383.87 37.75 383.35 36.06 387 32.32 385.5 29.77 388.62 26.53 386.23 23.28 388.62 20.73 385.5 17 387 15.3 383.35 11.31 383.87 10.58 379.92 6.58 379.43 6.85 375.41 3.1 373.95 4.37 370.13 1.1 367.78 3.27 364.39 .69 361.3 3.64 358.56 1.9 354.93 5.44 353.01 4.67 349.06 8.57 348.08 8.8 344.06 12.83 344.08 14.05 340.24 17.95 341.27 20.09 337.85 23.61 339.81 26.53 337.04"/>
      <g>
        <path class="cls-3" d="M14.59,373.16v-19.29h7.3c1.06,0,2.01.22,2.87.65.85.44,1.53,1.05,2.03,1.85s.75,1.74.75,2.81c0,.4-.05.83-.15,1.27s-.28.86-.54,1.25c-.26.39-.62.69-1.1.91.62.15,1.1.42,1.46.83.36.4.63.87.81,1.4.18.53.3,1.06.35,1.6.06.54.08,1.02.08,1.45,0,.97-.26,1.86-.79,2.65-.52.79-1.23,1.43-2.11,1.9-.88.47-1.86.71-2.92.71h-8.04ZM18.72,361.11h2.67c.55,0,1.02-.18,1.42-.55.39-.37.59-.83.59-1.39s-.2-1.01-.59-1.31c-.4-.3-.87-.45-1.42-.45h-2.67v3.71ZM18.72,369.66h3.47c.48,0,.91-.11,1.3-.34.39-.23.7-.54.94-.93.23-.39.35-.84.35-1.35,0-.42-.12-.82-.35-1.21-.23-.38-.55-.69-.94-.93-.39-.24-.82-.36-1.3-.36h-3.47v5.11Z"/>
        <path class="cls-3" d="M33.27,373.16v-15.15h-2.62l1.1-4.13h5.65v19.29h-4.13Z"/>
      </g>
      <g>
        <path class="cls-3" d="M4.04,481.52v-1.96h7.06v1.96h-2.45v12.63h2.45v1.96h-7.06v-1.96h2.45v-12.63h-2.45Z"/>
        <path class="cls-3" d="M17.21,494.33h1.89v1.77h-6.23v-1.77h2.27v-8.24h-2.27v-1.77h4.33v10.01ZM23.19,494.33v-5.71c0-.86-.2-1.53-.59-2.03s-1-.74-1.81-.74c-.67,0-1.28.17-1.82.52s-.97.84-1.28,1.48c-.31.64-.47,1.41-.47,2.32l-.46-2.35h.55c.12-.81.37-1.5.75-2.05s.85-.96,1.44-1.24,1.24-.42,1.99-.42c1.23,0,2.17.37,2.82,1.1.65.73.97,1.78.97,3.15v5.98h2.12v1.77h-6.05v-1.77h1.86Z"/>
        <path class="cls-3" d="M32.41,492.95c0,.51.09.88.28,1.13.19.25.46.37.82.37s.63-.13.83-.38c.19-.25.29-.63.29-1.12v-1.15h1.84v1.13c0,.73-.1,1.34-.31,1.85s-.53.89-.97,1.16c-.44.26-1.01.4-1.71.4s-1.31-.14-1.77-.41c-.46-.28-.8-.66-1.02-1.17s-.34-1.1-.34-1.8v-6.85h-1.98v-1.77h1.98v-2.97h2.07v2.97h3.86l-.02,1.77h-3.84v6.85Z"/>
        <path class="cls-3" d="M44.56,496.32c-1.24,0-2.31-.26-3.21-.78-.9-.52-1.6-1.23-2.08-2.14s-.73-1.96-.73-3.15.25-2.26.74-3.18c.49-.93,1.18-1.65,2.07-2.18.89-.52,1.92-.79,3.1-.79s2.23.26,3.1.78c.87.52,1.54,1.24,2,2.17s.7,1.99.7,3.2c0,.18,0,.31-.01.41s-.02.18-.03.25h-2.05c.01-.11.03-.23.03-.36,0-.13.01-.28.01-.46,0-.8-.15-1.51-.45-2.13-.3-.62-.72-1.11-1.28-1.47-.56-.36-1.23-.54-2.02-.54s-1.43.18-2,.54c-.57.36-1.02.87-1.34,1.51-.32.65-.48,1.39-.48,2.23s.16,1.53.47,2.16c.31.63.76,1.12,1.34,1.47.58.36,1.28.53,2.1.53s1.57-.2,2.17-.59,1.05-.93,1.34-1.61l1.96.74c-.43,1.04-1.12,1.86-2.08,2.46-.96.6-2.08.9-3.37.9ZM39.85,490.91v-1.57h9.73l.62,1.57h-10.35Z"/>
        <path class="cls-3" d="M56.76,494.33h2.17v1.77h-6.5v-1.77h2.27v-8.24h-2.27v-1.77h4.33v10.01ZM61.05,486.56c-.15-.04-.31-.08-.48-.1-.17-.02-.33-.03-.5-.03-1,0-1.81.36-2.41,1.08-.6.72-.9,1.72-.9,3l-.46-2.63h.55c.1-.82.3-1.51.6-2.06s.71-.97,1.2-1.25c.49-.28,1.06-.42,1.69-.42.12,0,.24,0,.36.02s.23.03.35.05v2.34Z"/>
        <path class="cls-3" d="M62.54,496.1v-1.77h2.19v-8.24h-2.19v-1.77h4.26v10.01h1.88v1.77h-6.14ZM70.66,496.1v-1.77h1.87v-5.75c0-.85-.19-1.52-.58-2-.38-.48-.98-.73-1.79-.73-.64,0-1.21.17-1.72.52s-.91.84-1.2,1.49-.44,1.42-.44,2.31l-.47-2.35h.56c.17-1.25.62-2.19,1.35-2.82s1.63-.94,2.7-.94c1.22,0,2.13.37,2.74,1.1s.92,1.77.92,3.1v6.08h2.11v1.77h-6.05ZM78.46,496.1v-1.77h1.86v-5.75c0-.85-.19-1.52-.58-2-.38-.48-.98-.73-1.78-.73-.64,0-1.21.17-1.72.52s-.91.84-1.2,1.49-.44,1.42-.44,2.31l-.47-2.35h.55c.18-1.25.63-2.19,1.36-2.82.73-.63,1.63-.94,2.7-.94,1.22,0,2.13.37,2.74,1.1.61.73.91,1.77.91,3.1v6.08h2.12v1.77h-6.05Z"/>
        <path class="cls-3" d="M92.15,496.32c-1.24,0-2.31-.26-3.21-.78-.9-.52-1.6-1.23-2.08-2.14-.48-.91-.73-1.96-.73-3.15s.25-2.26.74-3.18,1.18-1.65,2.07-2.18c.89-.52,1.92-.79,3.1-.79s2.23.26,3.1.78,1.54,1.24,2,2.17.7,1.99.7,3.2c0,.18,0,.31-.01.41,0,.1-.02.18-.03.25h-2.05c.01-.11.03-.23.03-.36,0-.13.01-.28.01-.46,0-.8-.15-1.51-.45-2.13-.3-.62-.72-1.11-1.28-1.47-.56-.36-1.23-.54-2.02-.54s-1.43.18-2,.54-1.02.87-1.34,1.51c-.32.65-.48,1.39-.48,2.23s.16,1.53.47,2.16.76,1.12,1.34,1.47c.58.36,1.28.53,2.1.53s1.57-.2,2.17-.59c.6-.39,1.05-.93,1.34-1.61l1.96.74c-.42,1.04-1.12,1.86-2.08,2.46-.96.6-2.08.9-3.37.9ZM87.45,490.91v-1.57h9.73l.62,1.57h-10.35Z"/>
        <path class="cls-3" d="M105.92,484.08c.92,0,1.75.2,2.49.59.74.4,1.36.97,1.86,1.73.5.76.86,1.68,1.07,2.76l-1.32,1.01c0-.83-.15-1.56-.46-2.2s-.74-1.14-1.32-1.5c-.58-.36-1.27-.54-2.09-.54s-1.49.18-2.07.54c-.58.36-1.02.87-1.33,1.51s-.46,1.38-.46,2.23.16,1.57.48,2.22c.32.64.77,1.14,1.35,1.51.58.36,1.25.54,2.02.54s1.5-.18,2.07-.54c.58-.36,1.02-.87,1.33-1.52.31-.65.47-1.4.47-2.25l.33,2.73h-.48c-.15.67-.4,1.27-.75,1.79-.35.52-.81.92-1.39,1.21-.57.29-1.25.44-2.05.44s-1.55-.15-2.22-.45-1.26-.73-1.75-1.28c-.5-.55-.88-1.2-1.15-1.95-.27-.75-.41-1.57-.41-2.45,0-1.2.24-2.27.71-3.19.47-.92,1.14-1.65,2-2.17.86-.52,1.88-.78,3.05-.78ZM109.95,496.1v-4.25l.07-1.02v-1.52l-.07-1.88v-6.94h-2.98v-1.77h5.05v15.61h2.11v1.77h-4.18Z"/>
        <path class="cls-3" d="M120.41,494.33h2.13v1.77h-6.46v-1.77h2.25v-8.24h-2.25v-1.77h4.32v10.01ZM118.03,479.02h2.53v2.63h-2.53v-2.63Z"/>
        <path class="cls-3" d="M127.95,496.26c-1.23,0-2.17-.28-2.82-.84s-.97-1.38-.97-2.46c0-.97.27-1.71.82-2.24.55-.52,1.46-.92,2.73-1.18l5.07-1.04v1.45l-4.73,1.07c-.59.14-1.03.35-1.32.64-.29.29-.43.68-.43,1.17,0,.55.17.96.51,1.24.34.28.83.42,1.47.42.78,0,1.48-.19,2.07-.57s1.06-.91,1.4-1.59c.33-.68.5-1.48.5-2.41l.55,2.6h-.71c-.17,1.23-.6,2.16-1.3,2.79-.7.63-1.65.95-2.85.95ZM133.38,496.1c-.39,0-.69-.12-.89-.37-.21-.25-.31-.6-.31-1.05v-2.98l.19-.42-.11-1.36-.08-.79v-.87c0-.5-.1-.92-.31-1.25-.21-.34-.52-.59-.93-.76-.41-.17-.91-.26-1.51-.26-.86,0-1.53.17-2.02.52-.49.35-.81.87-.95,1.57l-1.98-.41c.13-.8.41-1.46.82-2,.42-.53.97-.93,1.67-1.19.7-.26,1.54-.4,2.54-.4,1.06,0,1.93.15,2.63.45.7.3,1.23.75,1.58,1.35.35.6.53,1.35.53,2.26v6.19h1.66v1.77h-2.53Z"/>
        <path class="cls-3" d="M141.23,492.95c0,.51.09.88.28,1.13.19.25.46.37.82.37s.63-.13.83-.38c.19-.25.29-.63.29-1.12v-1.15h1.84v1.13c0,.73-.1,1.34-.31,1.85s-.53.89-.97,1.16c-.44.26-1.01.4-1.71.4s-1.31-.14-1.76-.41c-.46-.28-.8-.66-1.02-1.17s-.34-1.1-.34-1.8v-6.85h-1.98v-1.77h1.98v-2.97h2.07v2.97h3.86l-.02,1.77h-3.84v6.85Z"/>
        <path class="cls-3" d="M153.37,496.32c-1.24,0-2.31-.26-3.21-.78-.9-.52-1.59-1.23-2.08-2.14-.48-.91-.73-1.96-.73-3.15s.25-2.26.74-3.18c.49-.93,1.18-1.65,2.07-2.18.89-.52,1.92-.79,3.1-.79s2.23.26,3.1.78c.87.52,1.54,1.24,2,2.17s.7,1.99.7,3.2c0,.18,0,.31-.01.41,0,.1-.02.18-.03.25h-2.05c.01-.11.03-.23.03-.36,0-.13.01-.28.01-.46,0-.8-.15-1.51-.45-2.13-.3-.62-.72-1.11-1.28-1.47s-1.23-.54-2.02-.54-1.43.18-2,.54c-.57.36-1.02.87-1.34,1.51s-.48,1.39-.48,2.23.16,1.53.47,2.16c.31.63.76,1.12,1.34,1.47.58.36,1.28.53,2.1.53s1.57-.2,2.17-.59c.61-.39,1.05-.93,1.34-1.61l1.96.74c-.43,1.04-1.12,1.86-2.08,2.46-.96.6-2.08.9-3.37.9ZM148.66,490.91v-1.57h9.74l.62,1.57h-10.35Z"/>
      </g>
    </g>
  </g>
</svg>