<?xml version="1.0" encoding="utf-8"?>
<!-- Generator: Adobe Illustrator 28.2.0, SVG Export Plug-In . SVG Version: 6.00 Build 0)  -->
<svg version="1.1" id="Capa_2" xmlns="http://www.w3.org/2000/svg" xmlns:xlink="http://www.w3.org/1999/xlink" x="0px" y="0px"
	 viewBox="0 0 1079.9 142.1" style="enable-background:new 0 0 1079.9 142.1;" xml:space="preserve">
<style type="text/css">
	.st0{fill:#B2DD45;}
	.st1{fill:#FFFFFF;stroke:#000000;stroke-miterlimit:10;}
	.st2{enable-background:new    ;}
	.st3{fill:#B2DD45;stroke:#000000;stroke-miterlimit:10;}
	.st4{fill:#44CCFF;}
	.st5{fill:#44CCFF;stroke:#000000;stroke-miterlimit:10;}
	.st6{fill:#E6ADEC;}
</style>
<g id="Layer_1">
	<g>
		<g>
			<g>
				<path class="st0" d="M153.3,60.4c0.5-2.7-0.5-4.5-2.8-5.3c-1.4-0.5-1.9-1.4-2-2.7c-0.4-3.4-0.6-6.9-1.3-10.3
					c-0.8-4.3-2.3-5.3-6.5-4.9c-1.4-2.5-2.9-4.9-4.3-7.4c-0.4-0.6-0.6-1.3-0.9-2c-1.5-3.6-2.5-4.9-5.3-5c-0.5-0.9-1-1.8-1.5-2.7
					c0,0,0,0,0,0c-2.6-2.2-5.3-4.4-7.8-6.7c-1-0.9-1.9-2.1-2.4-3.4c-1-2.3-1.9-2.7-4.2-1.8c-0.5,0.2-1.2,0-1.7-0.2
					c-3.3-1.4-6.5-3-9.9-4.2C89-1.1,75.1-0.8,61.4,2C38.5,6.7,21,18.5,12.4,41.2c-0.2,0.5-0.9,1.2-1.4,1.3c-5.9,1-7,2.3-7,8.2
					c0,2.9,0.1,5.9,0,8.8c0,0.8-0.6,1.8-1.3,2.3c-2.8,2.4-3.4,5.2-1.8,8.5c1.1,2.2,2.3,4.4,3.5,6.7c-0.1,0.2-0.3,0.3-0.4,0.5
					c-3.5,5.2-3,8.6,1.3,12.9c1.2,1.2,2.1,3.2,2.6,5c0.6,2.1,0.5,4.4,0.9,6.6c0.4,2.1,1.5,3.6,3.6,4c0.1-0.1,0.2,0.2,0.1,0.1
					c0.7,0.8,1.1,1.2,1.9,1.9c2.8,2.2,5.2,4.9,6.6,8.2c1.9,4.4,5.1,6.7,10.2,6.3c2.5-0.2,4.6,0.7,6.3,2.7c1.4,1.7,3.2,3.1,4.7,4.7
					c2.3,2.3,5.1,3,8.2,2.6c4.6-0.6,9.3-1.6,14.1,1.1c0-0.1-0.1-0.1-0.1-0.2c2.5,3,5,3.4,8.6,1.6c4.1-2.1,7.8-2.3,12.3-1.1
					c3.1,0.9,7.1,2,9.9-0.5c4.7-4.1,10.3-4.4,15.9-4.8c3.2-0.2,5.8-1.3,7.3-4.1c2.3-4,5.5-6.6,9.8-8c1.5-0.5,2.8-1.6,4.2-2.5
					c0,0.1,0.3-0.1,0.4-0.3c0,0,0.1-0.1,0-0.1c1.7-2.5,3.2-5.1,5-7.3c2.1-2.4,4.7-4.4,6.8-6.8c0.8-0.9,1.4-2.7,1.1-3.8
					c-0.4-1.6-0.3-3,0.4-4.4c1.4-3.1,2.9-6.1,4.3-9.1c0.6-1.3,1.5-2.5,1.6-3.8c0.1-1.4-0.6-2.8-1-4.3c-0.3-1-1-2.1-0.9-3.1
					c0.1-1.5,0.8-3,1.2-4.4C152.2,64.7,152.9,62.6,153.3,60.4L153.3,60.4z"/>
				
					<ellipse transform="matrix(0.9843 -0.1767 0.1767 0.9843 -8.7052 14.1764)" class="st1" cx="75.2" cy="56" rx="64.3" ry="52.7"/>
				<g class="st2">
					<path d="M57.1,28.9h8.7l15.8,43.4h-8l-2.8-7.7H52.2l-2.8,7.7h-8L57.1,28.9z M54.9,57.1H68l-6.5-17.9L54.9,57.1z"/>
					<path d="M92,72.3V36.5h-5.5l2-7.6h11v43.4H92z"/>
				</g>
			</g>
			<g class="st2">
				<path d="M20.4,136.1v-16.8h6.1c0.9,0,1.7,0.2,2.4,0.5s1.3,0.9,1.7,1.6c0.4,0.7,0.6,1.5,0.6,2.4c0,0.4-0.1,0.8-0.2,1.2
					c-0.1,0.4-0.3,0.8-0.6,1.1c-0.2,0.3-0.6,0.6-1,0.7c0.5,0.1,0.9,0.4,1.3,0.7s0.6,0.7,0.8,1.2s0.3,0.9,0.4,1.4
					c0.1,0.5,0.1,0.9,0.1,1.3c0,0.9-0.2,1.7-0.7,2.4c-0.4,0.7-1,1.2-1.8,1.7c-0.7,0.4-1.6,0.6-2.5,0.6H20.4z M23.3,125.8h2.9
					c0.6,0,1.1-0.2,1.5-0.6c0.4-0.4,0.6-0.9,0.6-1.5c0-0.6-0.2-1.1-0.6-1.5c-0.4-0.3-0.9-0.5-1.5-0.5h-2.9V125.8z M23.3,133.6h3.6
					c0.5,0,0.9-0.1,1.3-0.3c0.4-0.2,0.7-0.6,0.9-1c0.2-0.4,0.3-0.9,0.3-1.4c0-0.4-0.1-0.9-0.3-1.3c-0.2-0.4-0.5-0.7-0.9-1
					c-0.4-0.2-0.8-0.4-1.3-0.4h-3.6V133.6z"/>
			</g>
			<g class="st2">
				<path d="M39.1,136.5c-1.1,0-2.1-0.3-3-0.9c-0.9-0.6-1.6-1.3-2.2-2.3c-0.5-1-0.8-2-0.8-3.2c0-0.9,0.2-1.7,0.5-2.5s0.7-1.4,1.3-2
					c0.5-0.6,1.2-1,1.9-1.4s1.5-0.5,2.3-0.5c0.9,0,1.8,0.2,2.6,0.6c0.8,0.4,1.4,0.9,2,1.6c0.5,0.7,0.9,1.5,1.2,2.4s0.3,1.8,0.2,2.8
					h-8.8c0.1,0.4,0.3,0.8,0.6,1.2c0.3,0.4,0.6,0.6,1,0.9c0.4,0.2,0.8,0.3,1.3,0.3c0.5,0,1-0.1,1.4-0.4s0.8-0.6,1-1l3,0.7
					c-0.5,1.1-1.2,1.9-2.2,2.6C41.4,136.1,40.3,136.5,39.1,136.5z M36.1,128.9H42c-0.1-0.5-0.3-0.9-0.6-1.3c-0.3-0.4-0.6-0.7-1-0.9
					c-0.4-0.2-0.9-0.3-1.3-0.3s-0.9,0.1-1.3,0.3c-0.4,0.2-0.8,0.5-1,0.9C36.4,128,36.2,128.5,36.1,128.9z"/>
			</g>
			<g class="st2">
				<path d="M55.9,124.1h2.9v12.2c0,0.9-0.2,1.7-0.5,2.4c-0.4,0.7-0.8,1.3-1.4,1.8c-0.6,0.5-1.3,0.9-2.1,1.2s-1.6,0.4-2.5,0.4
					c-0.8,0-1.6-0.2-2.4-0.5c-0.8-0.3-1.5-0.8-2.1-1.4c-0.6-0.6-1.1-1.3-1.4-2l2.7-1.2c0.2,0.4,0.4,0.8,0.7,1.2
					c0.3,0.3,0.7,0.6,1.1,0.8c0.4,0.2,0.9,0.3,1.3,0.3c0.5,0,0.9-0.1,1.3-0.2c0.4-0.1,0.8-0.3,1.2-0.6c0.3-0.2,0.6-0.5,0.8-0.9
					c0.2-0.3,0.3-0.7,0.3-1.2v-1.7c-0.4,0.5-0.8,1-1.4,1.3c-0.6,0.3-1.2,0.5-2,0.5c-0.9,0-1.7-0.2-2.4-0.5c-0.8-0.3-1.4-0.8-2-1.4
					c-0.6-0.6-1-1.2-1.3-2c-0.3-0.8-0.5-1.6-0.5-2.4s0.2-1.7,0.5-2.4c0.3-0.8,0.8-1.4,1.3-2c0.6-0.6,1.2-1,2-1.4
					c0.8-0.3,1.6-0.5,2.4-0.5c0.7,0,1.4,0.2,2,0.5c0.6,0.3,1,0.8,1.4,1.3V124.1z M52.5,133.6c0.6,0,1.2-0.2,1.6-0.5
					c0.5-0.3,0.9-0.7,1.1-1.3s0.4-1.1,0.4-1.7c0-0.6-0.1-1.2-0.4-1.8s-0.7-1-1.1-1.3c-0.5-0.3-1-0.5-1.6-0.5c-0.6,0-1.1,0.2-1.6,0.5
					c-0.5,0.3-0.9,0.7-1.2,1.3c-0.3,0.5-0.4,1.1-0.4,1.8s0.1,1.2,0.4,1.8c0.3,0.5,0.7,0.9,1.2,1.3C51.4,133.5,51.9,133.6,52.5,133.6
					z"/>
				<path d="M70.1,124.1H73v12.2c0,0.9-0.2,1.7-0.5,2.4c-0.4,0.7-0.8,1.3-1.4,1.8c-0.6,0.5-1.3,0.9-2.1,1.2s-1.6,0.4-2.5,0.4
					c-0.8,0-1.6-0.2-2.4-0.5c-0.8-0.3-1.5-0.8-2.1-1.4c-0.6-0.6-1.1-1.3-1.4-2l2.7-1.2c0.2,0.4,0.4,0.8,0.7,1.2
					c0.3,0.3,0.7,0.6,1.1,0.8c0.4,0.2,0.9,0.3,1.3,0.3c0.5,0,0.9-0.1,1.3-0.2c0.4-0.1,0.8-0.3,1.2-0.6c0.3-0.2,0.6-0.5,0.8-0.9
					c0.2-0.3,0.3-0.7,0.3-1.2v-1.7c-0.4,0.5-0.8,1-1.4,1.3c-0.6,0.3-1.2,0.5-2,0.5c-0.9,0-1.7-0.2-2.4-0.5c-0.8-0.3-1.4-0.8-2-1.4
					c-0.6-0.6-1-1.2-1.3-2c-0.3-0.8-0.5-1.6-0.5-2.4s0.2-1.7,0.5-2.4c0.3-0.8,0.8-1.4,1.3-2c0.6-0.6,1.2-1,2-1.4
					c0.8-0.3,1.6-0.5,2.4-0.5c0.7,0,1.4,0.2,2,0.5c0.6,0.3,1,0.8,1.4,1.3V124.1z M66.7,133.6c0.6,0,1.2-0.2,1.6-0.5
					c0.5-0.3,0.9-0.7,1.1-1.3s0.4-1.1,0.4-1.7c0-0.6-0.1-1.2-0.4-1.8s-0.7-1-1.1-1.3c-0.5-0.3-1-0.5-1.6-0.5c-0.6,0-1.1,0.2-1.6,0.5
					c-0.5,0.3-0.9,0.7-1.2,1.3c-0.3,0.5-0.4,1.1-0.4,1.8s0.1,1.2,0.4,1.8c0.3,0.5,0.7,0.9,1.2,1.3C65.6,133.5,66.1,133.6,66.7,133.6
					z"/>
			</g>
			<g class="st2">
				<path d="M77.3,122.6c-0.4,0-0.8-0.1-1.1-0.4s-0.4-0.6-0.4-1.1c0-0.4,0.1-0.8,0.4-1.1s0.7-0.4,1.1-0.4c0.4,0,0.8,0.1,1.1,0.4
					c0.3,0.3,0.4,0.6,0.4,1.1c0,0.4-0.1,0.8-0.4,1.1S77.8,122.6,77.3,122.6z M75.9,124.1h2.9v12h-2.9V124.1z"/>
			</g>
			<g class="st2">
				<path d="M92.6,128.6v7.6h-2.9v-6.8c0-0.5-0.1-0.9-0.3-1.3c-0.2-0.4-0.5-0.7-0.9-0.9c-0.4-0.2-0.8-0.3-1.3-0.3
					c-0.5,0-0.9,0.1-1.3,0.3c-0.4,0.2-0.7,0.5-0.9,0.9c-0.2,0.4-0.3,0.8-0.3,1.3v6.8h-2.9l0-12h2.9l0,1.1c0.4-0.4,0.9-0.8,1.5-1
					c0.6-0.3,1.2-0.4,1.8-0.4c0.9,0,1.7,0.2,2.4,0.6c0.7,0.4,1.3,1,1.7,1.7C92.3,126.9,92.6,127.7,92.6,128.6z"/>
			</g>
			<g class="st2">
				<path d="M106,128.6v7.6H103v-6.8c0-0.5-0.1-0.9-0.3-1.3c-0.2-0.4-0.5-0.7-0.9-0.9c-0.4-0.2-0.8-0.3-1.3-0.3s-0.9,0.1-1.3,0.3
					c-0.4,0.2-0.7,0.5-0.9,0.9c-0.2,0.4-0.3,0.8-0.3,1.3v6.8H95l0-12h2.9l0,1.1c0.4-0.4,0.9-0.8,1.5-1s1.2-0.4,1.8-0.4
					c0.9,0,1.7,0.2,2.4,0.6c0.7,0.4,1.3,1,1.7,1.7C105.7,126.9,106,127.7,106,128.6z"/>
			</g>
			<g class="st2">
				<path d="M113.4,136.5c-1.1,0-2.1-0.3-3-0.9c-0.9-0.6-1.6-1.3-2.2-2.3c-0.5-1-0.8-2-0.8-3.2c0-0.9,0.2-1.7,0.5-2.5s0.7-1.4,1.3-2
					c0.5-0.6,1.2-1,1.9-1.4s1.5-0.5,2.3-0.5c0.9,0,1.8,0.2,2.6,0.6c0.8,0.4,1.4,0.9,2,1.6c0.5,0.7,0.9,1.5,1.2,2.4s0.3,1.8,0.2,2.8
					h-8.8c0.1,0.4,0.3,0.8,0.6,1.2c0.3,0.4,0.6,0.6,1,0.9c0.4,0.2,0.8,0.3,1.3,0.3c0.5,0,1-0.1,1.4-0.4s0.8-0.6,1-1l3,0.7
					c-0.5,1.1-1.2,1.9-2.2,2.6C115.7,136.1,114.6,136.5,113.4,136.5z M110.4,128.9h5.9c-0.1-0.5-0.3-0.9-0.6-1.3
					c-0.3-0.4-0.6-0.7-1-0.9c-0.4-0.2-0.9-0.3-1.3-0.3s-0.9,0.1-1.3,0.3c-0.4,0.2-0.8,0.5-1,0.9C110.7,128,110.6,128.5,110.4,128.9z
					"/>
			</g>
			<g class="st2">
				<path d="M121.3,136.1l0-12h2.9l0,1.1c0.4-0.4,0.9-0.8,1.5-1c0.6-0.3,1.2-0.4,1.8-0.4c0.4,0,0.9,0.1,1.3,0.2l-1.2,3
					c-0.3-0.1-0.6-0.2-0.9-0.2c-0.5,0-0.9,0.1-1.3,0.3c-0.4,0.2-0.7,0.5-0.9,0.9c-0.2,0.4-0.3,0.8-0.3,1.3v6.8H121.3z"/>
			</g>
		</g>
		<g>
			<g>
				<path class="st0" d="M383.7,60.4c0.5-2.7-0.5-4.5-2.8-5.3c-1.4-0.5-1.9-1.4-2-2.7c-0.4-3.4-0.6-6.9-1.3-10.3
					c-0.8-4.3-2.3-5.3-6.5-4.9c-1.4-2.5-2.9-4.9-4.3-7.4c-0.4-0.6-0.6-1.3-0.9-2c-1.5-3.6-2.5-4.9-5.3-5c-0.5-0.9-1-1.8-1.5-2.7
					c0,0,0,0,0,0c-2.6-2.2-5.3-4.4-7.8-6.7c-1-0.9-1.9-2.1-2.5-3.4c-1-2.3-1.9-2.7-4.2-1.8c-0.5,0.2-1.2,0-1.7-0.2
					c-3.3-1.4-6.5-3-9.9-4.2c-13.5-4.8-27.4-4.4-41.2-1.7c-22.9,4.7-40.3,16.5-48.9,39.2c-0.2,0.5-0.9,1.2-1.4,1.3
					c-5.9,1-7,2.3-7,8.2c0,2.9,0.1,5.9-0.1,8.8c0,0.8-0.6,1.8-1.3,2.3c-2.8,2.4-3.4,5.2-1.8,8.5c1.1,2.2,2.3,4.4,3.5,6.7
					c-0.1,0.2-0.3,0.3-0.4,0.5c-3.5,5.2-3,8.6,1.3,12.9c1.2,1.2,2.1,3.2,2.6,5c0.6,2.1,0.5,4.4,0.9,6.6c0.4,2.1,1.5,3.6,3.6,4
					c0.1-0.1,0.2,0.2,0.1,0.1c0.7,0.8,1.1,1.2,1.9,1.9c2.9,2.2,5.2,4.9,6.6,8.2c1.9,4.4,5.1,6.7,10.2,6.3c2.5-0.2,4.6,0.7,6.3,2.7
					c1.4,1.7,3.2,3.1,4.7,4.7c2.3,2.3,5.1,3,8.2,2.6c4.6-0.6,9.3-1.6,14.1,1.1c0-0.1-0.1-0.1-0.1-0.2c2.5,3,5,3.4,8.6,1.6
					c4-2.1,7.8-2.3,12.3-1.1c3.1,0.9,7,2,10-0.5c4.7-4.1,10.3-4.4,15.9-4.8c3.2-0.2,5.8-1.3,7.3-4.1c2.3-4,5.5-6.6,9.8-8
					c1.5-0.5,2.8-1.6,4.2-2.5c0,0.1,0.3-0.1,0.4-0.3c0,0,0.1-0.1,0-0.1c1.7-2.5,3.2-5.1,5-7.3c2.1-2.4,4.7-4.4,6.8-6.8
					c0.8-0.9,1.4-2.7,1.1-3.8c-0.4-1.6-0.3-3,0.4-4.4c1.4-3.1,2.9-6.1,4.3-9.1c0.6-1.3,1.5-2.5,1.6-3.8c0.1-1.4-0.6-2.8-1-4.3
					c-0.3-1-1-2.1-0.9-3.1c0.1-1.5,0.8-3,1.2-4.4C382.6,64.7,383.4,62.6,383.7,60.4L383.7,60.4z"/>
				
					<ellipse transform="matrix(0.9843 -0.1767 0.1767 0.9843 -5.0757 54.9049)" class="st3" cx="305.7" cy="55.9" rx="64.3" ry="52.7"/>
				<g class="st2">
					<path d="M280.9,30h8.7l15.8,43.4h-8l-2.8-7.7H276l-2.8,7.7h-8L280.9,30z M278.7,58.1h13.1l-6.5-17.9L278.7,58.1z"/>
					<path d="M310.3,73.4v-6.8c1.3-1,2.9-2.3,4.8-3.8c1.8-1.5,3.7-3.1,5.7-4.9c1.9-1.7,3.7-3.5,5.4-5.3c1.7-1.8,3-3.4,4-5
						c1-1.6,1.6-3,1.6-4.1c0-1.3-0.3-2.4-0.9-3.5c-0.6-1-1.4-1.9-2.5-2.5s-2.2-0.9-3.4-0.9s-2.4,0.3-3.4,0.9c-1,0.6-1.9,1.5-2.5,2.5
						c-0.6,1-0.9,2.2-0.9,3.5h-7.6c0-2.7,0.7-5.2,2-7.4c1.3-2.2,3.1-3.9,5.3-5.2c2.2-1.3,4.6-1.9,7.2-1.9c2.6,0,5.1,0.6,7.2,1.9
						c2.2,1.3,3.9,3,5.2,5.2c1.3,2.2,2,4.6,2,7.3c0,1.4-0.3,2.8-0.8,4.2c-0.5,1.4-1.2,2.9-2.2,4.3c-0.9,1.4-2,2.9-3.3,4.4
						c-1.3,1.5-2.7,3-4.2,4.5c-1.5,1.5-3.1,3.1-4.8,4.7h15.4v7.6H310.3z"/>
				</g>
			</g>
			<g class="st2">
				<path d="M215.5,136.1v-16.8h6c0.9,0,1.7,0.2,2.5,0.7c0.7,0.5,1.3,1.1,1.8,1.8c0.4,0.8,0.6,1.6,0.6,2.5c0,0.9-0.2,1.8-0.7,2.6
					c-0.4,0.8-1,1.4-1.8,1.8c-0.7,0.5-1.6,0.7-2.4,0.7h-3.1v6.7H215.5z M218.4,126.5h2.8c0.4,0,0.8-0.1,1.1-0.3
					c0.3-0.2,0.6-0.5,0.8-0.8c0.2-0.4,0.3-0.7,0.3-1.2c0-0.4-0.1-0.8-0.3-1.2c-0.2-0.4-0.5-0.6-0.8-0.8c-0.3-0.2-0.7-0.3-1.1-0.3
					h-2.8V126.5z"/>
			</g>
			<g class="st2">
				<path d="M228.2,136.1l0-12h2.9l0,1.1c0.4-0.4,0.9-0.8,1.5-1c0.6-0.3,1.2-0.4,1.8-0.4c0.4,0,0.9,0.1,1.3,0.2l-1.2,3
					c-0.3-0.1-0.6-0.2-0.9-0.2c-0.5,0-0.9,0.1-1.3,0.3c-0.4,0.2-0.7,0.5-0.9,0.9c-0.2,0.4-0.3,0.8-0.3,1.3v6.8H228.2z"/>
			</g>
			<g class="st2">
				<path d="M241.8,136.5c-1.1,0-2.1-0.3-3-0.9c-0.9-0.6-1.6-1.3-2.2-2.3c-0.5-1-0.8-2-0.8-3.2c0-0.9,0.2-1.7,0.5-2.5s0.7-1.4,1.3-2
					c0.5-0.6,1.2-1,1.9-1.4s1.5-0.5,2.3-0.5c0.9,0,1.8,0.2,2.6,0.6c0.8,0.4,1.4,0.9,2,1.6c0.5,0.7,0.9,1.5,1.2,2.4s0.3,1.8,0.2,2.8
					H239c0.1,0.4,0.3,0.8,0.6,1.2c0.3,0.4,0.6,0.6,1,0.9c0.4,0.2,0.8,0.3,1.3,0.3c0.5,0,1-0.1,1.4-0.4s0.8-0.6,1-1l3,0.7
					c-0.5,1.1-1.2,1.9-2.2,2.6C244.1,136.1,243,136.5,241.8,136.5z M238.9,128.9h5.9c-0.1-0.5-0.3-0.9-0.6-1.3
					c-0.3-0.4-0.6-0.7-1-0.9c-0.4-0.2-0.9-0.3-1.3-0.3s-0.9,0.1-1.3,0.3c-0.4,0.2-0.8,0.5-1,0.9C239.2,128,239,128.5,238.9,128.9z"
					/>
				<path d="M250,127.5h7.7v2.9H250V127.5z"/>
				<path d="M260.9,136.1v-16.8h2.9v16.8H260.9z"/>
				<path d="M278,128.6v7.6h-2.9v-6.8c0-0.5-0.1-0.9-0.3-1.3c-0.2-0.4-0.5-0.7-0.9-0.9c-0.4-0.2-0.8-0.3-1.3-0.3
					c-0.5,0-0.9,0.1-1.3,0.3c-0.4,0.2-0.7,0.5-0.9,0.9c-0.2,0.4-0.3,0.8-0.3,1.3v6.8h-2.9l0-12h2.9l0,1.1c0.4-0.4,0.9-0.8,1.5-1
					c0.6-0.3,1.2-0.4,1.8-0.4c0.9,0,1.7,0.2,2.4,0.6c0.7,0.4,1.3,1,1.7,1.7C277.8,126.9,278,127.7,278,128.6z"/>
			</g>
			<g class="st2">
				<path d="M286.9,127.1h-2.3v9.1h-2.9v-9.1h-1.8v-2.9h1.8v-3.8h2.9v3.8h2.3V127.1z"/>
			</g>
			<g class="st2">
				<path d="M294.1,136.5c-1.1,0-2.1-0.3-3-0.9c-0.9-0.6-1.6-1.3-2.2-2.3c-0.5-1-0.8-2-0.8-3.2c0-0.9,0.2-1.7,0.5-2.5s0.7-1.4,1.3-2
					c0.5-0.6,1.2-1,1.9-1.4s1.5-0.5,2.3-0.5c0.9,0,1.8,0.2,2.6,0.6c0.8,0.4,1.4,0.9,2,1.6c0.5,0.7,0.9,1.5,1.2,2.4s0.3,1.8,0.2,2.8
					h-8.8c0.1,0.4,0.3,0.8,0.6,1.2c0.3,0.4,0.6,0.6,1,0.9c0.4,0.2,0.8,0.3,1.3,0.3c0.5,0,1-0.1,1.4-0.4s0.8-0.6,1-1l3,0.7
					c-0.5,1.1-1.2,1.9-2.2,2.6C296.3,136.1,295.2,136.5,294.1,136.5z M291.1,128.9h5.9c-0.1-0.5-0.3-0.9-0.6-1.3
					c-0.3-0.4-0.6-0.7-1-0.9c-0.4-0.2-0.9-0.3-1.3-0.3s-0.9,0.1-1.3,0.3c-0.4,0.2-0.8,0.5-1,0.9C291.4,128,291.2,128.5,291.1,128.9z
					"/>
				<path d="M301.7,136.1l0-12h2.9l0,1.1c0.4-0.4,0.9-0.8,1.5-1c0.6-0.3,1.2-0.4,1.8-0.4c0.4,0,0.9,0.1,1.3,0.2l-1.2,3
					c-0.3-0.1-0.6-0.2-0.9-0.2c-0.5,0-0.9,0.1-1.3,0.3c-0.4,0.2-0.7,0.5-0.9,0.9c-0.2,0.4-0.3,0.8-0.3,1.3v6.8H301.7z"/>
			</g>
			<g class="st2">
				<path d="M310.9,136.1v-12h2.9v1.1c0.4-0.4,0.9-0.8,1.5-1c0.6-0.3,1.2-0.4,1.8-0.4c0.8,0,1.6,0.2,2.3,0.6
					c0.7,0.4,1.3,0.9,1.7,1.6c0.4-0.7,1-1.2,1.7-1.6c0.7-0.4,1.5-0.6,2.3-0.6c0.9,0,1.7,0.2,2.4,0.6c0.7,0.4,1.3,1,1.7,1.7
					c0.4,0.7,0.6,1.5,0.6,2.4v7.6h-2.9v-6.8c0-0.5-0.1-0.9-0.3-1.3c-0.2-0.4-0.5-0.7-0.9-0.9c-0.4-0.2-0.8-0.4-1.3-0.4
					s-0.9,0.1-1.3,0.3c-0.4,0.2-0.7,0.5-0.9,0.9c-0.2,0.4-0.3,0.8-0.3,1.3v6.8h-2.9v-6.8c0-0.5-0.1-0.9-0.3-1.3
					c-0.2-0.4-0.5-0.7-0.9-0.9c-0.4-0.2-0.8-0.3-1.3-0.3c-0.5,0-0.9,0.1-1.3,0.4c-0.4,0.2-0.7,0.5-0.9,0.9s-0.3,0.8-0.3,1.3v6.8
					H310.9z"/>
				<path d="M337.2,136.5c-1.1,0-2.1-0.3-3-0.9c-0.9-0.6-1.6-1.3-2.2-2.3c-0.5-1-0.8-2-0.8-3.2c0-0.9,0.2-1.7,0.5-2.5s0.7-1.4,1.3-2
					c0.5-0.6,1.2-1,1.9-1.4s1.5-0.5,2.3-0.5c0.9,0,1.8,0.2,2.6,0.6c0.8,0.4,1.4,0.9,2,1.6c0.5,0.7,0.9,1.5,1.2,2.4s0.3,1.8,0.2,2.8
					h-8.8c0.1,0.4,0.3,0.8,0.6,1.2c0.3,0.4,0.6,0.6,1,0.9c0.4,0.2,0.8,0.3,1.3,0.3c0.5,0,1-0.1,1.4-0.4s0.8-0.6,1-1l3,0.7
					c-0.5,1.1-1.2,1.9-2.2,2.6C339.5,136.1,338.4,136.5,337.2,136.5z M334.3,128.9h5.9c-0.1-0.5-0.3-0.9-0.6-1.3
					c-0.3-0.4-0.6-0.7-1-0.9c-0.4-0.2-0.9-0.3-1.3-0.3s-0.9,0.1-1.3,0.3c-0.4,0.2-0.8,0.5-1,0.9C334.6,128,334.4,128.5,334.3,128.9z
					"/>
			</g>
			<g class="st2">
				<path d="M354.2,118.1h2.9v18h-2.9v-1.5c-0.4,0.5-0.9,1-1.5,1.3s-1.3,0.5-2,0.5c-0.9,0-1.7-0.2-2.4-0.5c-0.8-0.3-1.4-0.8-2-1.4
					s-1-1.2-1.4-2s-0.5-1.6-0.5-2.4s0.2-1.7,0.5-2.4c0.3-0.8,0.8-1.4,1.4-2s1.2-1,2-1.4c0.8-0.3,1.6-0.5,2.4-0.5
					c0.8,0,1.4,0.2,2,0.5c0.6,0.3,1.1,0.8,1.5,1.3V118.1z M350.8,133.6c0.6,0,1.2-0.2,1.7-0.5c0.5-0.3,0.9-0.7,1.1-1.3
					c0.3-0.5,0.4-1.1,0.4-1.8c0-0.6-0.1-1.2-0.4-1.8c-0.3-0.5-0.7-1-1.1-1.3c-0.5-0.3-1-0.5-1.6-0.5s-1.2,0.2-1.7,0.5
					c-0.5,0.3-0.9,0.7-1.2,1.3c-0.3,0.5-0.4,1.1-0.4,1.8s0.2,1.2,0.5,1.8c0.3,0.5,0.7,0.9,1.2,1.3
					C349.6,133.5,350.2,133.6,350.8,133.6z"/>
			</g>
			<g class="st2">
				<path d="M361.5,122.6c-0.4,0-0.8-0.1-1.1-0.4s-0.4-0.6-0.4-1.1c0-0.4,0.1-0.8,0.4-1.1s0.7-0.4,1.1-0.4c0.4,0,0.8,0.1,1.1,0.4
					c0.3,0.3,0.4,0.6,0.4,1.1c0,0.4-0.1,0.8-0.4,1.1S362,122.6,361.5,122.6z M360,124.1h2.9v12H360V124.1z"/>
			</g>
			<g class="st2">
				<path d="M374.6,124.1h2.9v12h-2.9l-0.1-1.5c-0.3,0.5-0.8,1-1.3,1.3c-0.5,0.3-1.2,0.5-1.9,0.5c-0.9,0-1.7-0.2-2.5-0.5
					s-1.5-0.8-2-1.4c-0.6-0.6-1-1.3-1.4-2.1c-0.3-0.8-0.5-1.6-0.5-2.5c0-0.9,0.2-1.7,0.5-2.4s0.8-1.4,1.3-2c0.6-0.6,1.2-1,2-1.3
					c0.7-0.3,1.5-0.5,2.4-0.5c0.8,0,1.5,0.2,2.1,0.5c0.6,0.4,1.2,0.8,1.6,1.3L374.6,124.1z M371.2,133.6c0.6,0,1.2-0.2,1.7-0.5
					c0.5-0.3,0.9-0.7,1.1-1.3s0.4-1.1,0.4-1.8c0-0.6-0.1-1.2-0.4-1.8c-0.3-0.5-0.6-1-1.1-1.3c-0.5-0.3-1-0.5-1.6-0.5
					s-1.2,0.2-1.7,0.5c-0.5,0.3-0.9,0.7-1.2,1.3c-0.3,0.5-0.4,1.1-0.4,1.8s0.2,1.2,0.5,1.8c0.3,0.5,0.7,0.9,1.2,1.3
					C370,133.5,370.6,133.6,371.2,133.6z"/>
			</g>
			<g class="st2">
				<path d="M386.4,127.1H384v9.1h-2.9v-9.1h-1.8v-2.9h1.8v-3.8h2.9v3.8h2.3V127.1z"/>
			</g>
			<g class="st2">
				<path d="M393.6,136.5c-1.1,0-2.1-0.3-3-0.9c-0.9-0.6-1.6-1.3-2.2-2.3c-0.5-1-0.8-2-0.8-3.2c0-0.9,0.2-1.7,0.5-2.5s0.7-1.4,1.3-2
					c0.5-0.6,1.2-1,1.9-1.4s1.5-0.5,2.3-0.5c0.9,0,1.8,0.2,2.6,0.6c0.8,0.4,1.4,0.9,2,1.6c0.5,0.7,0.9,1.5,1.2,2.4s0.3,1.8,0.2,2.8
					h-8.8c0.1,0.4,0.3,0.8,0.6,1.2c0.3,0.4,0.6,0.6,1,0.9c0.4,0.2,0.8,0.3,1.3,0.3c0.5,0,1-0.1,1.4-0.4s0.8-0.6,1-1l3,0.7
					c-0.5,1.1-1.2,1.9-2.2,2.6C395.8,136.1,394.8,136.5,393.6,136.5z M390.6,128.9h5.9c-0.1-0.5-0.3-0.9-0.6-1.3
					c-0.3-0.4-0.6-0.7-1-0.9c-0.4-0.2-0.9-0.3-1.3-0.3s-0.9,0.1-1.3,0.3c-0.4,0.2-0.8,0.5-1,0.9C390.9,128,390.7,128.5,390.6,128.9z
					"/>
			</g>
		</g>
		<g>
			<g>
				<path class="st4" d="M614.2,60.4c0.5-2.7-0.5-4.5-2.8-5.3c-1.4-0.5-1.9-1.4-2-2.7c-0.4-3.4-0.6-6.9-1.3-10.3
					c-0.8-4.3-2.3-5.3-6.5-4.9c-1.4-2.5-2.9-4.9-4.3-7.4c-0.4-0.6-0.6-1.3-0.9-2c-1.5-3.6-2.5-4.9-5.3-5c-0.5-0.9-1-1.8-1.5-2.7
					c0,0,0,0,0,0c-2.6-2.2-5.3-4.4-7.8-6.7c-1-0.9-1.9-2.1-2.5-3.4c-1-2.3-1.9-2.7-4.2-1.8c-0.5,0.2-1.2,0-1.7-0.2
					c-3.3-1.4-6.5-3-9.9-4.2C549.9-1.1,536-0.8,522.2,2c-22.9,4.7-40.3,16.5-48.9,39.2c-0.2,0.5-0.9,1.2-1.4,1.3c-5.9,1-7,2.3-7,8.2
					c0,2.9,0.1,5.9,0,8.8c0,0.8-0.6,1.8-1.3,2.3c-2.8,2.4-3.4,5.2-1.8,8.5c1.1,2.2,2.3,4.4,3.5,6.7c-0.1,0.2-0.3,0.3-0.4,0.5
					c-3.5,5.2-3,8.6,1.3,12.9c1.2,1.2,2.1,3.2,2.6,5c0.6,2.1,0.5,4.4,0.9,6.6c0.4,2.1,1.5,3.6,3.6,4c0.1-0.1,0.2,0.2,0.1,0.1
					c0.7,0.8,1.1,1.2,1.9,1.9c2.9,2.2,5.2,4.9,6.6,8.2c1.9,4.4,5.1,6.7,10.2,6.3c2.5-0.2,4.6,0.7,6.3,2.7c1.4,1.7,3.2,3.1,4.7,4.7
					c2.3,2.3,5.1,3,8.2,2.6c4.6-0.6,9.3-1.6,14.1,1.1c0-0.1-0.1-0.1-0.1-0.2c2.5,3,5,3.4,8.6,1.6c4-2.1,7.8-2.3,12.3-1.1
					c3.1,0.9,7,2,10-0.5c4.7-4.1,10.3-4.4,15.9-4.8c3.2-0.2,5.8-1.3,7.3-4.1c2.3-4,5.5-6.6,9.8-8c1.5-0.5,2.8-1.6,4.2-2.5
					c0,0.1,0.3-0.1,0.4-0.3c0,0,0.1-0.1,0-0.1c1.7-2.5,3.2-5.1,5-7.3c2.1-2.4,4.7-4.4,6.8-6.8c0.8-0.9,1.4-2.7,1.1-3.8
					c-0.4-1.6-0.3-3,0.4-4.4c1.4-3.1,2.9-6.1,4.3-9.1c0.6-1.3,1.5-2.5,1.6-3.8c0.1-1.4-0.6-2.8-1-4.3c-0.3-1-1-2.1-0.9-3.1
					c0.1-1.5,0.8-3,1.2-4.4C613.1,64.7,613.8,62.6,614.2,60.4L614.2,60.4z"/>
				
					<ellipse transform="matrix(0.9843 -0.1767 0.1767 0.9843 -1.4482 95.6336)" class="st1" cx="536.1" cy="55.9" rx="64.3" ry="52.7"/>
				<g class="st2">
					<path d="M509.3,72.3V28.9h15.8c2.3,0,4.4,0.5,6.2,1.4c1.8,0.9,3.3,2.3,4.4,4c1.1,1.7,1.6,3.8,1.6,6.2c0,1.1-0.2,2.1-0.5,3.2
						c-0.3,1.1-0.8,2-1.4,2.9c-0.6,0.9-1.5,1.5-2.5,1.9c1.3,0.3,2.4,0.9,3.3,1.8c0.8,0.9,1.5,1.9,2,3.1c0.5,1.2,0.8,2.4,1,3.6
						c0.2,1.2,0.3,2.3,0.3,3.4c0,2.3-0.6,4.3-1.7,6.1c-1.1,1.8-2.7,3.2-4.6,4.3c-1.9,1.1-4,1.6-6.3,1.6H509.3z M516.8,45.8h7.4
						c1.5,0,2.8-0.5,3.9-1.4c1.1-1,1.6-2.2,1.6-3.8c0-1.7-0.5-2.9-1.6-3.8s-2.4-1.3-3.9-1.3h-7.4V45.8z M516.8,65.9h9.2
						c1.2,0,2.4-0.3,3.3-0.9c1-0.6,1.8-1.4,2.4-2.5c0.6-1.1,0.9-2.3,0.9-3.6c0-1.2-0.3-2.3-0.9-3.3c-0.6-1-1.4-1.9-2.4-2.5
						c-1-0.6-2.1-1-3.3-1h-9.2V65.9z"/>
					<path d="M549.9,72.3V36.5h-5.5l2-7.6h11v43.4H549.9z"/>
				</g>
			</g>
			<g class="st2">
				<path d="M465.9,136.1v-16.8h2.9v16.8H465.9z"/>
				<path d="M483.1,128.6v7.6h-2.9v-6.8c0-0.5-0.1-0.9-0.3-1.3c-0.2-0.4-0.5-0.7-0.9-0.9c-0.4-0.2-0.8-0.3-1.3-0.3
					c-0.5,0-0.9,0.1-1.3,0.3c-0.4,0.2-0.7,0.5-0.9,0.9c-0.2,0.4-0.3,0.8-0.3,1.3v6.8h-2.9l0-12h2.9l0,1.1c0.4-0.4,0.9-0.8,1.5-1
					c0.6-0.3,1.2-0.4,1.8-0.4c0.9,0,1.7,0.2,2.4,0.6c0.7,0.4,1.3,1,1.7,1.7C482.9,126.9,483.1,127.7,483.1,128.6z"/>
			</g>
			<g class="st2">
				<path d="M491.9,127.1h-2.3v9.1h-2.9v-9.1h-1.8v-2.9h1.8v-3.8h2.9v3.8h2.3V127.1z"/>
			</g>
			<g class="st2">
				<path d="M499.1,136.5c-1.1,0-2.1-0.3-3-0.9c-0.9-0.6-1.6-1.3-2.2-2.3c-0.5-1-0.8-2-0.8-3.2c0-0.9,0.2-1.7,0.5-2.5s0.7-1.4,1.3-2
					c0.5-0.6,1.2-1,1.9-1.4s1.5-0.5,2.3-0.5c0.9,0,1.8,0.2,2.6,0.6c0.8,0.4,1.4,0.9,2,1.6c0.5,0.7,0.9,1.5,1.2,2.4s0.3,1.8,0.2,2.8
					h-8.8c0.1,0.4,0.3,0.8,0.6,1.2c0.3,0.4,0.6,0.6,1,0.9c0.4,0.2,0.8,0.3,1.3,0.3c0.5,0,1-0.1,1.4-0.4s0.8-0.6,1-1l3,0.7
					c-0.5,1.1-1.2,1.9-2.2,2.6C501.4,136.1,500.3,136.5,499.1,136.5z M496.1,128.9h5.9c-0.1-0.5-0.3-0.9-0.6-1.3
					c-0.3-0.4-0.6-0.7-1-0.9c-0.4-0.2-0.9-0.3-1.3-0.3s-0.9,0.1-1.3,0.3c-0.4,0.2-0.8,0.5-1,0.9C496.4,128,496.2,128.5,496.1,128.9z
					"/>
				<path d="M506.7,136.1l0-12h2.9l0,1.1c0.4-0.4,0.9-0.8,1.5-1c0.6-0.3,1.2-0.4,1.8-0.4c0.4,0,0.9,0.1,1.3,0.2l-1.2,3
					c-0.3-0.1-0.6-0.2-0.9-0.2c-0.5,0-0.9,0.1-1.3,0.3c-0.4,0.2-0.7,0.5-0.9,0.9c-0.2,0.4-0.3,0.8-0.3,1.3v6.8H506.7z"/>
			</g>
			<g class="st2">
				<path d="M515.9,136.1v-12h2.9v1.1c0.4-0.4,0.9-0.8,1.5-1s1.2-0.4,1.8-0.4c0.8,0,1.6,0.2,2.3,0.6c0.7,0.4,1.3,0.9,1.7,1.6
					c0.4-0.7,1-1.2,1.7-1.6c0.7-0.4,1.5-0.6,2.3-0.6c0.9,0,1.7,0.2,2.4,0.6c0.7,0.4,1.3,1,1.7,1.7c0.4,0.7,0.6,1.5,0.6,2.4v7.6h-2.9
					v-6.8c0-0.5-0.1-0.9-0.3-1.3c-0.2-0.4-0.5-0.7-0.9-0.9c-0.4-0.2-0.8-0.4-1.3-0.4c-0.5,0-0.9,0.1-1.3,0.3
					c-0.4,0.2-0.7,0.5-0.9,0.9c-0.2,0.4-0.3,0.8-0.3,1.3v6.8h-2.9v-6.8c0-0.5-0.1-0.9-0.3-1.3c-0.2-0.4-0.5-0.7-0.9-0.9
					c-0.4-0.2-0.8-0.3-1.3-0.3c-0.5,0-0.9,0.1-1.3,0.4c-0.4,0.2-0.7,0.5-0.9,0.9c-0.2,0.4-0.3,0.8-0.3,1.3v6.8H515.9z"/>
				<path d="M542.3,136.5c-1.1,0-2.1-0.3-3-0.9s-1.6-1.3-2.2-2.3s-0.8-2-0.8-3.2c0-0.9,0.2-1.7,0.5-2.5c0.3-0.8,0.7-1.4,1.3-2
					c0.5-0.6,1.2-1,1.9-1.4c0.7-0.3,1.5-0.5,2.3-0.5c0.9,0,1.8,0.2,2.6,0.6c0.8,0.4,1.4,0.9,2,1.6c0.5,0.7,0.9,1.5,1.2,2.4
					s0.3,1.8,0.2,2.8h-8.8c0.1,0.4,0.3,0.8,0.6,1.2c0.3,0.4,0.6,0.6,1,0.9c0.4,0.2,0.8,0.3,1.3,0.3c0.5,0,1-0.1,1.4-0.4s0.8-0.6,1-1
					l3,0.7c-0.5,1.1-1.2,1.9-2.2,2.6C544.6,136.1,543.5,136.5,542.3,136.5z M539.3,128.9h5.9c-0.1-0.5-0.3-0.9-0.6-1.3
					s-0.6-0.7-1-0.9c-0.4-0.2-0.9-0.3-1.3-0.3c-0.5,0-0.9,0.1-1.3,0.3c-0.4,0.2-0.8,0.5-1,0.9C539.6,128,539.4,128.5,539.3,128.9z"
					/>
			</g>
			<g class="st2">
				<path d="M559.3,118.1h2.9v18h-2.9v-1.5c-0.4,0.5-0.9,1-1.5,1.3s-1.3,0.5-2,0.5c-0.9,0-1.7-0.2-2.4-0.5c-0.8-0.3-1.4-0.8-2-1.4
					s-1-1.2-1.4-2s-0.5-1.6-0.5-2.4s0.2-1.7,0.5-2.4c0.3-0.8,0.8-1.4,1.4-2s1.2-1,2-1.4c0.8-0.3,1.6-0.5,2.4-0.5
					c0.8,0,1.4,0.2,2,0.5c0.6,0.3,1.1,0.8,1.5,1.3V118.1z M555.8,133.6c0.6,0,1.2-0.2,1.7-0.5c0.5-0.3,0.9-0.7,1.1-1.3
					c0.3-0.5,0.4-1.1,0.4-1.8c0-0.6-0.1-1.2-0.4-1.8c-0.3-0.5-0.6-1-1.1-1.3c-0.5-0.3-1-0.5-1.6-0.5c-0.6,0-1.2,0.2-1.7,0.5
					c-0.5,0.3-0.9,0.7-1.2,1.3c-0.3,0.5-0.4,1.1-0.4,1.8s0.2,1.2,0.5,1.8c0.3,0.5,0.7,0.9,1.2,1.3
					C554.7,133.5,555.2,133.6,555.8,133.6z"/>
			</g>
			<g class="st2">
				<path d="M566.6,122.6c-0.4,0-0.8-0.1-1.1-0.4s-0.4-0.6-0.4-1.1c0-0.4,0.1-0.8,0.4-1.1s0.7-0.4,1.1-0.4s0.8,0.1,1.1,0.4
					s0.4,0.6,0.4,1.1c0,0.4-0.1,0.8-0.4,1.1S567,122.6,566.6,122.6z M565.1,124.1h2.9v12h-2.9V124.1z"/>
			</g>
			<g class="st2">
				<path d="M579.6,124.1h2.9v12h-2.9l-0.1-1.5c-0.3,0.5-0.8,1-1.3,1.3c-0.5,0.3-1.2,0.5-1.9,0.5c-0.9,0-1.7-0.2-2.5-0.5
					c-0.8-0.3-1.5-0.8-2-1.4s-1-1.3-1.4-2.1c-0.3-0.8-0.5-1.6-0.5-2.5c0-0.9,0.2-1.7,0.5-2.4c0.3-0.8,0.8-1.4,1.3-2
					c0.6-0.6,1.2-1,2-1.3c0.7-0.3,1.5-0.5,2.4-0.5c0.8,0,1.5,0.2,2.1,0.5c0.6,0.4,1.2,0.8,1.6,1.3L579.6,124.1z M576.2,133.6
					c0.6,0,1.2-0.2,1.7-0.5c0.5-0.3,0.9-0.7,1.1-1.3c0.3-0.5,0.4-1.1,0.4-1.8c0-0.6-0.1-1.2-0.4-1.8c-0.3-0.5-0.6-1-1.1-1.3
					c-0.5-0.3-1-0.5-1.7-0.5s-1.2,0.2-1.7,0.5c-0.5,0.3-0.9,0.7-1.2,1.3c-0.3,0.5-0.5,1.1-0.5,1.8s0.2,1.2,0.5,1.8
					c0.3,0.5,0.7,0.9,1.2,1.3C575.1,133.5,575.6,133.6,576.2,133.6z"/>
			</g>
			<g class="st2">
				<path d="M591.4,127.1h-2.3v9.1h-2.9v-9.1h-1.8v-2.9h1.8v-3.8h2.9v3.8h2.3V127.1z"/>
			</g>
			<g class="st2">
				<path d="M598.6,136.5c-1.1,0-2.1-0.3-3-0.9c-0.9-0.6-1.6-1.3-2.2-2.3c-0.5-1-0.8-2-0.8-3.2c0-0.9,0.2-1.7,0.5-2.5
					c0.3-0.8,0.7-1.4,1.3-2c0.5-0.6,1.2-1,1.9-1.4c0.7-0.3,1.5-0.5,2.3-0.5c0.9,0,1.8,0.2,2.6,0.6c0.8,0.4,1.4,0.9,2,1.6
					c0.5,0.7,0.9,1.5,1.2,2.4s0.3,1.8,0.2,2.8h-8.8c0.1,0.4,0.3,0.8,0.6,1.2c0.3,0.4,0.6,0.6,1,0.9s0.8,0.3,1.3,0.3
					c0.5,0,1-0.1,1.4-0.4s0.8-0.6,1-1l3,0.7c-0.5,1.1-1.2,1.9-2.2,2.6C600.9,136.1,599.8,136.5,598.6,136.5z M595.6,128.9h5.9
					c-0.1-0.5-0.3-0.9-0.6-1.3c-0.3-0.4-0.6-0.7-1-0.9c-0.4-0.2-0.9-0.3-1.3-0.3c-0.5,0-0.9,0.1-1.3,0.3c-0.4,0.2-0.8,0.5-1,0.9
					C595.9,128,595.7,128.5,595.6,128.9z"/>
			</g>
		</g>
		<g>
			<g>
				<path class="st4" d="M846.1,60.4c0.5-2.7-0.5-4.5-2.8-5.3c-1.4-0.5-1.9-1.4-2-2.7c-0.4-3.4-0.6-6.9-1.3-10.3
					c-0.8-4.3-2.3-5.3-6.5-4.9c-1.4-2.5-2.9-4.9-4.3-7.4c-0.4-0.6-0.6-1.3-0.9-2c-1.5-3.6-2.5-4.9-5.3-5c-0.5-0.9-1-1.8-1.5-2.7
					c0,0,0,0,0,0c-2.6-2.2-5.3-4.4-7.8-6.7c-1-0.9-1.9-2.1-2.5-3.4c-1-2.3-1.9-2.7-4.2-1.8c-0.5,0.2-1.2,0-1.7-0.2
					c-3.3-1.4-6.5-3-9.9-4.2c-13.5-4.8-27.4-4.4-41.2-1.7c-22.9,4.7-40.3,16.5-48.9,39.2c-0.2,0.5-0.9,1.2-1.4,1.3
					c-5.9,1-7,2.3-7,8.2c0,2.9,0.1,5.9,0,8.8c0,0.8-0.6,1.8-1.3,2.3c-2.8,2.4-3.4,5.2-1.8,8.5c1.1,2.2,2.3,4.4,3.5,6.7
					c-0.1,0.2-0.3,0.3-0.4,0.5c-3.5,5.2-3,8.6,1.3,12.9c1.2,1.2,2.1,3.2,2.6,5c0.6,2.1,0.5,4.4,0.9,6.6c0.4,2.1,1.5,3.6,3.6,4
					c0.2-0.1,0.2,0.2,0.1,0.1c0.7,0.8,1.1,1.2,1.9,1.9c2.8,2.2,5.2,4.9,6.6,8.2c1.9,4.4,5.1,6.7,10.2,6.3c2.5-0.2,4.6,0.7,6.3,2.7
					c1.4,1.7,3.2,3.1,4.7,4.7c2.3,2.3,5.1,3,8.2,2.6c4.6-0.6,9.3-1.6,14.1,1.1c0-0.1-0.1-0.1-0.1-0.2c2.5,3,5,3.4,8.6,1.6
					c4-2.1,7.8-2.3,12.3-1.1c3.1,0.9,7,2,10-0.5c4.7-4.1,10.3-4.4,15.9-4.8c3.2-0.2,5.8-1.3,7.3-4.1c2.3-4,5.5-6.6,9.8-8
					c1.5-0.5,2.8-1.6,4.2-2.5c0,0.1,0.3-0.1,0.4-0.3c0,0,0.1-0.1,0-0.1c1.7-2.5,3.2-5.1,5-7.3c2.1-2.4,4.7-4.4,6.8-6.8
					c0.8-0.9,1.4-2.7,1.1-3.8c-0.4-1.6-0.3-3,0.4-4.4c1.4-3.1,2.9-6.1,4.3-9.1c0.6-1.3,1.5-2.5,1.6-3.8c0.1-1.4-0.6-2.8-1-4.3
					c-0.3-1-1-2.1-0.9-3.1c0.1-1.5,0.8-3,1.2-4.4C845,64.7,845.7,62.6,846.1,60.4L846.1,60.4z"/>
				
					<ellipse transform="matrix(0.9843 -0.1767 0.1767 0.9843 2.2041 136.6213)" class="st5" cx="768" cy="55.9" rx="64.3" ry="52.7"/>
				<g class="st2">
					<path d="M735.4,72.3V28.9h15.8c2.3,0,4.4,0.5,6.2,1.4c1.8,0.9,3.3,2.3,4.4,4c1.1,1.7,1.6,3.8,1.6,6.2c0,1.1-0.2,2.1-0.5,3.2
						c-0.3,1.1-0.8,2-1.4,2.9c-0.6,0.9-1.5,1.5-2.5,1.9c1.3,0.3,2.4,0.9,3.3,1.8c0.8,0.9,1.5,1.9,2,3.1c0.5,1.2,0.8,2.4,1,3.6
						s0.3,2.3,0.3,3.4c0,2.3-0.6,4.3-1.7,6.1c-1.1,1.8-2.7,3.2-4.6,4.3c-1.9,1.1-4,1.6-6.3,1.6H735.4z M743,45.8h7.4
						c1.5,0,2.8-0.5,3.9-1.4c1.1-1,1.6-2.2,1.6-3.8c0-1.7-0.5-2.9-1.6-3.8c-1.1-0.9-2.4-1.3-3.9-1.3H743V45.8z M743,65.9h9.2
						c1.2,0,2.4-0.3,3.3-0.9c1-0.6,1.8-1.4,2.4-2.5c0.6-1.1,0.9-2.3,0.9-3.6c0-1.2-0.3-2.3-0.9-3.3c-0.6-1-1.4-1.9-2.4-2.5
						c-1-0.6-2.1-1-3.3-1H743V65.9z"/>
					<path d="M770.5,72.3v-6.8c1.3-1,2.9-2.3,4.8-3.8c1.8-1.5,3.7-3.1,5.7-4.9c1.9-1.7,3.7-3.5,5.4-5.3c1.7-1.8,3-3.4,4-5
						c1-1.6,1.6-3,1.6-4.1c0-1.3-0.3-2.4-0.9-3.5c-0.6-1-1.4-1.9-2.5-2.5c-1-0.6-2.2-0.9-3.4-0.9c-1.3,0-2.4,0.3-3.4,0.9
						s-1.9,1.5-2.5,2.5c-0.6,1-0.9,2.2-0.9,3.5h-7.6c0-2.7,0.7-5.2,2-7.4s3.1-3.9,5.3-5.2c2.2-1.3,4.6-1.9,7.2-1.9
						c2.6,0,5.1,0.6,7.2,1.9c2.2,1.3,3.9,3,5.2,5.2s2,4.6,2,7.3c0,1.4-0.3,2.8-0.8,4.2c-0.5,1.4-1.2,2.9-2.2,4.3
						c-0.9,1.4-2,2.9-3.3,4.4c-1.3,1.5-2.7,3-4.2,4.5c-1.5,1.5-3.1,3.1-4.8,4.7h15.4v7.6H770.5z"/>
				</g>
			</g>
			<g class="st2">
				<path d="M668.8,136.5c-1.3,0-2.5-0.3-3.5-1c-1-0.7-1.8-1.5-2.4-2.6c-0.6-1.1-0.8-2.3-0.8-3.7v-9.8h2.9v9.8
					c0,0.8,0.2,1.5,0.5,2.2s0.7,1.2,1.3,1.6c0.6,0.4,1.2,0.6,2.1,0.6c0.8,0,1.5-0.2,2.1-0.6c0.6-0.4,1-0.9,1.3-1.6
					c0.3-0.7,0.4-1.4,0.4-2.2v-9.8h2.9v9.8c0,1-0.2,2-0.5,2.8c-0.3,0.9-0.8,1.7-1.4,2.3s-1.3,1.2-2.1,1.6S669.8,136.5,668.8,136.5z"
					/>
			</g>
			<g class="st2">
				<path d="M681.3,142.1h-2.9v-18h2.9v1.5c0.4-0.5,0.9-1,1.4-1.3s1.2-0.5,2-0.5c0.9,0,1.7,0.2,2.5,0.5c0.8,0.3,1.4,0.8,2,1.4
					s1,1.2,1.4,2c0.3,0.8,0.5,1.6,0.5,2.4s-0.2,1.7-0.5,2.5c-0.3,0.8-0.8,1.4-1.4,2s-1.2,1-2,1.4c-0.8,0.3-1.6,0.5-2.5,0.5
					c-0.8,0-1.4-0.2-2-0.5s-1.1-0.8-1.4-1.3V142.1z M684.7,126.6c-0.6,0-1.2,0.2-1.6,0.5c-0.5,0.3-0.9,0.7-1.1,1.3
					c-0.3,0.5-0.4,1.1-0.4,1.8s0.1,1.2,0.4,1.8c0.3,0.5,0.6,1,1.1,1.3c0.5,0.3,1,0.5,1.6,0.5c0.6,0,1.2-0.2,1.7-0.5
					c0.5-0.3,0.9-0.7,1.2-1.3c0.3-0.5,0.5-1.1,0.5-1.8c0-0.6-0.2-1.2-0.5-1.8c-0.3-0.5-0.7-1-1.2-1.3
					C685.9,126.8,685.3,126.6,684.7,126.6z"/>
			</g>
			<g class="st2">
				<path d="M695.9,142.1h-2.9v-18h2.9v1.5c0.4-0.5,0.9-1,1.4-1.3s1.2-0.5,2-0.5c0.9,0,1.7,0.2,2.5,0.5c0.8,0.3,1.4,0.8,2,1.4
					s1,1.2,1.4,2c0.3,0.8,0.5,1.6,0.5,2.4s-0.2,1.7-0.5,2.5c-0.3,0.8-0.8,1.4-1.4,2s-1.2,1-2,1.4c-0.8,0.3-1.6,0.5-2.5,0.5
					c-0.8,0-1.4-0.2-2-0.5s-1.1-0.8-1.4-1.3V142.1z M699.3,126.6c-0.6,0-1.2,0.2-1.6,0.5c-0.5,0.3-0.9,0.7-1.1,1.3
					c-0.3,0.5-0.4,1.1-0.4,1.8s0.1,1.2,0.4,1.8c0.3,0.5,0.6,1,1.1,1.3c0.5,0.3,1,0.5,1.6,0.5c0.6,0,1.2-0.2,1.7-0.5
					c0.5-0.3,0.9-0.7,1.2-1.3c0.3-0.5,0.5-1.1,0.5-1.8c0-0.6-0.2-1.2-0.5-1.8c-0.3-0.5-0.7-1-1.2-1.3
					C700.5,126.8,699.9,126.6,699.3,126.6z"/>
			</g>
			<g class="st2">
				<path d="M712.8,136.5c-1.1,0-2.1-0.3-3-0.9c-0.9-0.6-1.6-1.3-2.2-2.3c-0.5-1-0.8-2-0.8-3.2c0-0.9,0.2-1.7,0.5-2.5
					c0.3-0.8,0.7-1.4,1.3-2c0.5-0.6,1.2-1,1.9-1.4c0.7-0.3,1.5-0.5,2.3-0.5c0.9,0,1.8,0.2,2.6,0.6c0.8,0.4,1.4,0.9,2,1.6
					c0.5,0.7,0.9,1.5,1.2,2.4s0.3,1.8,0.2,2.8H710c0.1,0.4,0.3,0.8,0.6,1.2c0.3,0.4,0.6,0.6,1,0.9s0.8,0.3,1.3,0.3
					c0.5,0,1-0.1,1.4-0.4s0.8-0.6,1-1l3,0.7c-0.5,1.1-1.2,1.9-2.2,2.6C715.1,136.1,714,136.5,712.8,136.5z M709.9,128.9h5.9
					c-0.1-0.5-0.3-0.9-0.6-1.3c-0.3-0.4-0.6-0.7-1-0.9c-0.4-0.2-0.9-0.3-1.3-0.3c-0.5,0-0.9,0.1-1.3,0.3c-0.4,0.2-0.8,0.5-1,0.9
					C710.2,128,710,128.5,709.9,128.9z"/>
			</g>
			<g class="st2">
				<path d="M720.7,136.1l0-12h2.9l0,1.1c0.4-0.4,0.9-0.8,1.5-1c0.6-0.3,1.2-0.4,1.8-0.4c0.4,0,0.9,0.1,1.3,0.2l-1.2,3
					c-0.3-0.1-0.6-0.2-0.9-0.2c-0.5,0-0.9,0.1-1.3,0.3c-0.4,0.2-0.7,0.5-0.9,0.9c-0.2,0.4-0.3,0.8-0.3,1.3v6.8H720.7z"/>
				<path d="M736.1,136.1v-16.8h2.9v16.8H736.1z"/>
				<path d="M753.2,128.6v7.6h-2.9v-6.8c0-0.5-0.1-0.9-0.3-1.3c-0.2-0.4-0.5-0.7-0.9-0.9c-0.4-0.2-0.8-0.3-1.3-0.3
					c-0.5,0-0.9,0.1-1.3,0.3c-0.4,0.2-0.7,0.5-0.9,0.9c-0.2,0.4-0.3,0.8-0.3,1.3v6.8h-2.9l0-12h2.9l0,1.1c0.4-0.4,0.9-0.8,1.5-1
					c0.6-0.3,1.2-0.4,1.8-0.4c0.9,0,1.7,0.2,2.4,0.6c0.7,0.4,1.3,1,1.7,1.7C753,126.9,753.2,127.7,753.2,128.6z"/>
			</g>
			<g class="st2">
				<path d="M762.1,127.1h-2.3v9.1h-2.9v-9.1H755v-2.9h1.8v-3.8h2.9v3.8h2.3V127.1z"/>
			</g>
			<g class="st2">
				<path d="M769.2,136.5c-1.1,0-2.1-0.3-3-0.9s-1.6-1.3-2.2-2.3s-0.8-2-0.8-3.2c0-0.9,0.2-1.7,0.5-2.5c0.3-0.8,0.7-1.4,1.3-2
					c0.5-0.6,1.2-1,1.9-1.4c0.7-0.3,1.5-0.5,2.3-0.5c0.9,0,1.8,0.2,2.6,0.6c0.8,0.4,1.4,0.9,2,1.6c0.5,0.7,0.9,1.5,1.2,2.4
					s0.3,1.8,0.2,2.8h-8.8c0.1,0.4,0.3,0.8,0.6,1.2c0.3,0.4,0.6,0.6,1,0.9c0.4,0.2,0.8,0.3,1.3,0.3c0.5,0,1-0.1,1.4-0.4s0.8-0.6,1-1
					l3,0.7c-0.5,1.1-1.2,1.9-2.2,2.6C771.5,136.1,770.4,136.5,769.2,136.5z M766.3,128.9h5.9c-0.1-0.5-0.3-0.9-0.6-1.3
					s-0.6-0.7-1-0.9c-0.4-0.2-0.9-0.3-1.3-0.3c-0.5,0-0.9,0.1-1.3,0.3c-0.4,0.2-0.8,0.5-1,0.9C766.6,128,766.4,128.5,766.3,128.9z"
					/>
				<path d="M776.9,136.1l0-12h2.9l0,1.1c0.4-0.4,0.9-0.8,1.5-1c0.6-0.3,1.2-0.4,1.8-0.4c0.4,0,0.9,0.1,1.3,0.2l-1.2,3
					c-0.3-0.1-0.6-0.2-0.9-0.2c-0.5,0-0.9,0.1-1.3,0.3c-0.4,0.2-0.7,0.5-0.9,0.9c-0.2,0.4-0.3,0.8-0.3,1.3v6.8H776.9z"/>
			</g>
			<g class="st2">
				<path d="M786.1,136.1v-12h2.9v1.1c0.4-0.4,0.9-0.8,1.5-1c0.6-0.3,1.2-0.4,1.8-0.4c0.8,0,1.6,0.2,2.3,0.6
					c0.7,0.4,1.3,0.9,1.7,1.6c0.4-0.7,1-1.2,1.7-1.6c0.7-0.4,1.5-0.6,2.3-0.6c0.9,0,1.7,0.2,2.4,0.6c0.7,0.4,1.3,1,1.7,1.7
					c0.4,0.7,0.6,1.5,0.6,2.4v7.6h-2.9v-6.8c0-0.5-0.1-0.9-0.3-1.3s-0.5-0.7-0.9-0.9c-0.4-0.2-0.8-0.4-1.3-0.4
					c-0.5,0-0.9,0.1-1.3,0.3c-0.4,0.2-0.7,0.5-0.9,0.9c-0.2,0.4-0.3,0.8-0.3,1.3v6.8h-2.9v-6.8c0-0.5-0.1-0.9-0.3-1.3
					c-0.2-0.4-0.5-0.7-0.9-0.9c-0.4-0.2-0.8-0.3-1.3-0.3c-0.5,0-0.9,0.1-1.3,0.4c-0.4,0.2-0.7,0.5-0.9,0.9c-0.2,0.4-0.3,0.8-0.3,1.3
					v6.8H786.1z"/>
				<path d="M812.4,136.5c-1.1,0-2.1-0.3-3-0.9c-0.9-0.6-1.6-1.3-2.2-2.3c-0.5-1-0.8-2-0.8-3.2c0-0.9,0.2-1.7,0.5-2.5
					c0.3-0.8,0.7-1.4,1.3-2c0.5-0.6,1.2-1,1.9-1.4c0.7-0.3,1.5-0.5,2.3-0.5c0.9,0,1.8,0.2,2.6,0.6c0.8,0.4,1.4,0.9,2,1.6
					c0.5,0.7,0.9,1.5,1.2,2.4s0.3,1.8,0.2,2.8h-8.8c0.1,0.4,0.3,0.8,0.6,1.2c0.3,0.4,0.6,0.6,1,0.9s0.8,0.3,1.3,0.3
					c0.5,0,1-0.1,1.4-0.4s0.8-0.6,1-1l3,0.7c-0.5,1.1-1.2,1.9-2.2,2.6C814.7,136.1,813.6,136.5,812.4,136.5z M809.5,128.9h5.9
					c-0.1-0.5-0.3-0.9-0.6-1.3c-0.3-0.4-0.6-0.7-1-0.9c-0.4-0.2-0.9-0.3-1.3-0.3c-0.5,0-0.9,0.1-1.3,0.3c-0.4,0.2-0.8,0.5-1,0.9
					C809.8,128,809.6,128.5,809.5,128.9z"/>
			</g>
			<g class="st2">
				<path d="M829.4,118.1h2.9v18h-2.9v-1.5c-0.4,0.5-0.9,1-1.5,1.3s-1.3,0.5-2,0.5c-0.9,0-1.7-0.2-2.4-0.5c-0.8-0.3-1.4-0.8-2-1.4
					s-1-1.2-1.4-2s-0.5-1.6-0.5-2.4s0.2-1.7,0.5-2.4c0.3-0.8,0.8-1.4,1.4-2s1.2-1,2-1.4c0.8-0.3,1.6-0.5,2.4-0.5
					c0.8,0,1.4,0.2,2,0.5c0.6,0.3,1.1,0.8,1.5,1.3V118.1z M826,133.6c0.6,0,1.2-0.2,1.7-0.5c0.5-0.3,0.9-0.7,1.1-1.3
					c0.3-0.5,0.4-1.1,0.4-1.8c0-0.6-0.1-1.2-0.4-1.8c-0.3-0.5-0.7-1-1.1-1.3c-0.5-0.3-1-0.5-1.6-0.5s-1.2,0.2-1.7,0.5
					c-0.5,0.3-0.9,0.7-1.2,1.3c-0.3,0.5-0.4,1.1-0.4,1.8s0.2,1.2,0.5,1.8c0.3,0.5,0.7,0.9,1.2,1.3
					C824.8,133.5,825.3,133.6,826,133.6z"/>
			</g>
			<g class="st2">
				<path d="M836.7,122.6c-0.4,0-0.8-0.1-1.1-0.4c-0.3-0.3-0.4-0.6-0.4-1.1c0-0.4,0.1-0.8,0.4-1.1c0.3-0.3,0.7-0.4,1.1-0.4
					s0.8,0.1,1.1,0.4s0.4,0.6,0.4,1.1c0,0.4-0.1,0.8-0.4,1.1C837.5,122.5,837.1,122.6,836.7,122.6z M835.2,124.1h2.9v12h-2.9V124.1z
					"/>
			</g>
			<g class="st2">
				<path d="M849.8,124.1h2.9v12h-2.9l-0.1-1.5c-0.3,0.5-0.8,1-1.3,1.3c-0.5,0.3-1.2,0.5-1.9,0.5c-0.9,0-1.7-0.2-2.5-0.5
					c-0.8-0.3-1.5-0.8-2-1.4c-0.6-0.6-1-1.3-1.4-2.1c-0.3-0.8-0.5-1.6-0.5-2.5c0-0.9,0.2-1.7,0.5-2.4c0.3-0.8,0.8-1.4,1.3-2
					c0.6-0.6,1.2-1,2-1.3c0.7-0.3,1.5-0.5,2.4-0.5c0.8,0,1.5,0.2,2.1,0.5c0.6,0.4,1.2,0.8,1.6,1.3L849.8,124.1z M846.4,133.6
					c0.6,0,1.2-0.2,1.7-0.5c0.5-0.3,0.9-0.7,1.1-1.3c0.3-0.5,0.4-1.1,0.4-1.8c0-0.6-0.1-1.2-0.4-1.8c-0.3-0.5-0.7-1-1.1-1.3
					c-0.5-0.3-1-0.5-1.6-0.5s-1.2,0.2-1.7,0.5c-0.5,0.3-0.9,0.7-1.2,1.3c-0.3,0.5-0.4,1.1-0.4,1.8s0.2,1.2,0.5,1.8
					c0.3,0.5,0.7,0.9,1.2,1.3C845.2,133.5,845.8,133.6,846.4,133.6z"/>
			</g>
			<g class="st2">
				<path d="M861.6,127.1h-2.3v9.1h-2.9v-9.1h-1.8v-2.9h1.8v-3.8h2.9v3.8h2.3V127.1z"/>
			</g>
			<g class="st2">
				<path d="M868.7,136.5c-1.1,0-2.1-0.3-3-0.9s-1.6-1.3-2.2-2.3s-0.8-2-0.8-3.2c0-0.9,0.2-1.7,0.5-2.5c0.3-0.8,0.7-1.4,1.3-2
					c0.5-0.6,1.2-1,1.9-1.4c0.7-0.3,1.5-0.5,2.3-0.5c0.9,0,1.8,0.2,2.6,0.6c0.8,0.4,1.4,0.9,2,1.6c0.5,0.7,0.9,1.5,1.2,2.4
					s0.3,1.8,0.2,2.8h-8.8c0.1,0.4,0.3,0.8,0.6,1.2c0.3,0.4,0.6,0.6,1,0.9c0.4,0.2,0.8,0.3,1.3,0.3c0.5,0,1-0.1,1.4-0.4s0.8-0.6,1-1
					l3,0.7c-0.5,1.1-1.2,1.9-2.2,2.6C871,136.1,869.9,136.5,868.7,136.5z M865.8,128.9h5.9c-0.1-0.5-0.3-0.9-0.6-1.3s-0.6-0.7-1-0.9
					c-0.4-0.2-0.9-0.3-1.3-0.3c-0.5,0-0.9,0.1-1.3,0.3c-0.4,0.2-0.8,0.5-1,0.9C866.1,128,865.9,128.5,865.8,128.9z"/>
			</g>
		</g>
		<g>
			<g>
				<path class="st6" d="M1079.8,60.4c0.5-2.7-0.5-4.5-2.8-5.3c-1.4-0.5-1.9-1.4-2-2.7c-0.4-3.4-0.6-6.9-1.3-10.3
					c-0.8-4.3-2.3-5.3-6.5-4.9c-1.4-2.5-2.9-4.9-4.3-7.4c-0.4-0.6-0.6-1.3-0.9-2c-1.5-3.6-2.5-4.9-5.3-5c-0.5-0.9-1-1.8-1.5-2.7
					c0,0,0,0,0,0c-2.6-2.2-5.3-4.4-7.8-6.7c-1-0.9-1.9-2.1-2.4-3.4c-1-2.3-1.9-2.7-4.2-1.8c-0.5,0.2-1.2,0-1.7-0.2
					c-3.3-1.4-6.5-3-9.9-4.2c-13.5-4.8-27.4-4.4-41.2-1.7c-22.9,4.7-40.3,16.5-48.9,39.2c-0.2,0.5-0.9,1.2-1.4,1.3
					c-5.9,1-7,2.3-7,8.2c0,2.9,0.1,5.9,0,8.8c0,0.8-0.6,1.8-1.3,2.3c-2.8,2.4-3.4,5.2-1.8,8.5c1.1,2.2,2.3,4.4,3.5,6.7
					c-0.1,0.2-0.3,0.3-0.4,0.5c-3.5,5.2-3,8.6,1.3,12.9c1.2,1.2,2.1,3.2,2.6,5c0.6,2.1,0.5,4.4,0.9,6.6c0.4,2.1,1.5,3.6,3.6,4
					c0.2-0.1,0.2,0.2,0.1,0.1c0.7,0.8,1.1,1.2,1.9,1.9c2.8,2.2,5.2,4.9,6.6,8.2c1.9,4.4,5.1,6.7,10.2,6.3c2.5-0.2,4.6,0.7,6.3,2.7
					c1.4,1.7,3.2,3.1,4.7,4.7c2.3,2.3,5.1,3,8.2,2.6c4.6-0.6,9.3-1.6,14.1,1.1c0-0.1-0.1-0.1-0.1-0.2c2.5,3,5,3.4,8.6,1.6
					c4-2.1,7.8-2.3,12.3-1.1c3.1,0.9,7,2,10-0.5c4.7-4.1,10.3-4.4,15.9-4.8c3.2-0.2,5.8-1.3,7.3-4.1c2.3-4,5.5-6.6,9.8-8
					c1.5-0.5,2.8-1.6,4.2-2.5c0,0.1,0.3-0.1,0.4-0.3c0,0,0.1-0.1,0-0.1c1.7-2.5,3.2-5.1,5-7.3c2.1-2.4,4.7-4.4,6.8-6.8
					c0.8-0.9,1.4-2.7,1.1-3.8c-0.4-1.6-0.3-3,0.4-4.4c1.4-3.1,2.9-6.1,4.3-9.1c0.6-1.3,1.5-2.5,1.6-3.8c0.1-1.4-0.6-2.8-1-4.3
					c-0.3-1-1-2.1-0.9-3.1c0.1-1.5,0.8-3,1.2-4.4C1078.7,64.7,1079.5,62.6,1079.8,60.4L1079.8,60.4z"/>
				
					<ellipse transform="matrix(0.9843 -0.1767 0.1767 0.9843 5.8848 177.9293)" class="st1" cx="1001.7" cy="55.9" rx="64.3" ry="52.7"/>
				<g class="st2">
					<path d="M989.2,73.2c-2.9,0-5.7-0.6-8.3-1.8c-2.6-1.2-4.9-2.8-6.8-4.9s-3.5-4.5-4.6-7.2c-1.1-2.7-1.7-5.6-1.7-8.7
						c0-3.1,0.6-6,1.7-8.8c1.1-2.7,2.6-5.1,4.6-7.2s4.2-3.7,6.8-4.8c2.6-1.2,5.3-1.8,8.3-1.8c3.5,0,6.7,0.8,9.7,2.4
						c3,1.6,5.4,3.8,7.3,6.5l-6.8,3.6c-1.2-1.5-2.7-2.7-4.5-3.6c-1.8-0.9-3.7-1.4-5.8-1.4c-1.9,0-3.7,0.4-5.4,1.2
						c-1.7,0.8-3.1,1.8-4.4,3.2c-1.3,1.4-2.2,3-2.9,4.8c-0.7,1.8-1.1,3.7-1.1,5.8c0,2.1,0.4,4,1.1,5.8s1.7,3.4,3,4.8
						c1.3,1.4,2.7,2.4,4.4,3.2c1.7,0.8,3.4,1.2,5.3,1.2c2.1,0,4-0.5,5.8-1.4c1.8-0.9,3.3-2.1,4.5-3.6l6.8,3.7
						c-1.9,2.7-4.4,4.8-7.3,6.5C996,72.3,992.7,73.2,989.2,73.2z"/>
					<path d="M1017.3,72.3V36.5h-5.5l2-7.6h11v43.4H1017.3z"/>
				</g>
			</g>
			<g class="st2">
				<path d="M953.1,119.3h3.4l6.1,16.8h-3.1l-1.1-3h-7.2l-1.1,3H947L953.1,119.3z M952.2,130.2h5.1l-2.5-6.9L952.2,130.2z"/>
			</g>
			<g class="st2">
				<path d="M972.8,118.1h2.9v18h-2.9v-1.5c-0.4,0.5-0.9,1-1.5,1.3s-1.3,0.5-2,0.5c-0.9,0-1.7-0.2-2.4-0.5c-0.8-0.3-1.4-0.8-2-1.4
					c-0.6-0.6-1-1.2-1.4-2s-0.5-1.6-0.5-2.4s0.2-1.7,0.5-2.4c0.3-0.8,0.8-1.4,1.4-2c0.6-0.6,1.2-1,2-1.4c0.8-0.3,1.6-0.5,2.4-0.5
					c0.8,0,1.4,0.2,2,0.5c0.6,0.3,1.1,0.8,1.5,1.3V118.1z M969.4,133.6c0.6,0,1.2-0.2,1.7-0.5c0.5-0.3,0.9-0.7,1.1-1.3
					s0.4-1.1,0.4-1.8c0-0.6-0.1-1.2-0.4-1.8c-0.3-0.5-0.7-1-1.1-1.3c-0.5-0.3-1-0.5-1.6-0.5s-1.2,0.2-1.7,0.5
					c-0.5,0.3-0.9,0.7-1.2,1.3c-0.3,0.5-0.5,1.1-0.5,1.8s0.2,1.2,0.5,1.8c0.3,0.5,0.7,0.9,1.2,1.3
					C968.2,133.5,968.8,133.6,969.4,133.6z"/>
			</g>
			<g class="st2">
				<path d="M985.8,136.1H982l-4.4-12h3.1l3.1,8.6l3.1-8.6h3.1L985.8,136.1z"/>
			</g>
			<g class="st2">
				<path d="M1000.5,124.1h2.9v12h-2.9l-0.1-1.5c-0.3,0.5-0.8,1-1.3,1.3c-0.5,0.3-1.2,0.5-1.9,0.5c-0.9,0-1.7-0.2-2.5-0.5
					c-0.8-0.3-1.5-0.8-2-1.4c-0.6-0.6-1-1.3-1.4-2.1c-0.3-0.8-0.5-1.6-0.5-2.5c0-0.9,0.2-1.7,0.5-2.4c0.3-0.8,0.8-1.4,1.3-2
					c0.6-0.6,1.2-1,2-1.3c0.7-0.3,1.5-0.5,2.4-0.5c0.8,0,1.5,0.2,2.1,0.5c0.6,0.4,1.2,0.8,1.6,1.3L1000.5,124.1z M997.1,133.6
					c0.6,0,1.2-0.2,1.7-0.5c0.5-0.3,0.9-0.7,1.1-1.3c0.3-0.5,0.4-1.1,0.4-1.8c0-0.6-0.1-1.2-0.4-1.8c-0.3-0.5-0.7-1-1.1-1.3
					c-0.5-0.3-1-0.5-1.6-0.5s-1.2,0.2-1.7,0.5c-0.5,0.3-0.9,0.7-1.2,1.3c-0.3,0.5-0.4,1.1-0.4,1.8s0.2,1.2,0.5,1.8
					c0.3,0.5,0.7,0.9,1.2,1.3C995.9,133.5,996.5,133.6,997.1,133.6z"/>
			</g>
			<g class="st2">
				<path d="M1016.8,128.6v7.6h-2.9v-6.8c0-0.5-0.1-0.9-0.3-1.3c-0.2-0.4-0.5-0.7-0.9-0.9c-0.4-0.2-0.8-0.3-1.3-0.3
					c-0.5,0-0.9,0.1-1.3,0.3c-0.4,0.2-0.7,0.5-0.9,0.9c-0.2,0.4-0.3,0.8-0.3,1.3v6.8h-2.9l0-12h2.9l0,1.1c0.4-0.4,0.9-0.8,1.5-1
					c0.6-0.3,1.2-0.4,1.8-0.4c0.9,0,1.7,0.2,2.4,0.6c0.7,0.4,1.3,1,1.7,1.7C1016.6,126.9,1016.8,127.7,1016.8,128.6z"/>
			</g>
			<g class="st2">
				<path d="M1026.4,132.5l2.6,1.4c-0.6,0.8-1.2,1.4-2.1,1.8s-1.7,0.7-2.7,0.7c-1.1,0-2.1-0.3-3-0.9s-1.6-1.3-2.2-2.3
					c-0.5-1-0.8-2-0.8-3.2c0-0.9,0.2-1.7,0.5-2.5c0.3-0.8,0.7-1.4,1.3-2c0.5-0.6,1.2-1,1.9-1.4c0.7-0.3,1.5-0.5,2.3-0.5
					c1,0,1.9,0.2,2.7,0.7s1.5,1.1,2.1,1.8l-2.6,1.4c-0.3-0.3-0.6-0.6-1-0.7c-0.4-0.2-0.8-0.3-1.2-0.3c-0.6,0-1.1,0.2-1.6,0.5
					c-0.5,0.3-0.8,0.7-1.1,1.2c-0.3,0.5-0.4,1.1-0.4,1.7c0,0.6,0.1,1.2,0.4,1.7c0.3,0.5,0.6,0.9,1.1,1.2c0.5,0.3,1,0.5,1.6,0.5
					c0.4,0,0.8-0.1,1.2-0.3C1025.8,133.1,1026.1,132.8,1026.4,132.5z"/>
			</g>
			<g class="st2">
				<path d="M1036.1,136.5c-1.1,0-2.1-0.3-3-0.9c-0.9-0.6-1.6-1.3-2.2-2.3c-0.5-1-0.8-2-0.8-3.2c0-0.9,0.2-1.7,0.5-2.5
					c0.3-0.8,0.7-1.4,1.3-2c0.5-0.6,1.2-1,1.9-1.4c0.7-0.3,1.5-0.5,2.3-0.5c0.9,0,1.8,0.2,2.6,0.6c0.8,0.4,1.4,0.9,2,1.6
					c0.5,0.7,0.9,1.5,1.2,2.4s0.3,1.8,0.2,2.8h-8.8c0.1,0.4,0.3,0.8,0.6,1.2c0.3,0.4,0.6,0.6,1,0.9s0.8,0.3,1.3,0.3
					c0.5,0,1-0.1,1.4-0.4s0.8-0.6,1-1l3,0.7c-0.5,1.1-1.2,1.9-2.2,2.6C1038.4,136.1,1037.3,136.5,1036.1,136.5z M1033.2,128.9h5.9
					c-0.1-0.5-0.3-0.9-0.6-1.3c-0.3-0.4-0.6-0.7-1-0.9c-0.4-0.2-0.9-0.3-1.3-0.3c-0.5,0-0.9,0.1-1.3,0.3c-0.4,0.2-0.8,0.5-1,0.9
					C1033.5,128,1033.3,128.5,1033.2,128.9z"/>
			</g>
			<g class="st2">
				<path d="M1053.1,118.1h2.9v18h-2.9v-1.5c-0.4,0.5-0.9,1-1.5,1.3s-1.3,0.5-2,0.5c-0.9,0-1.7-0.2-2.4-0.5c-0.8-0.3-1.4-0.8-2-1.4
					s-1-1.2-1.4-2s-0.5-1.6-0.5-2.4s0.2-1.7,0.5-2.4c0.3-0.8,0.8-1.4,1.4-2s1.2-1,2-1.4c0.8-0.3,1.6-0.5,2.4-0.5
					c0.8,0,1.4,0.2,2,0.5c0.6,0.3,1.1,0.8,1.5,1.3V118.1z M1049.7,133.6c0.6,0,1.2-0.2,1.7-0.5c0.5-0.3,0.9-0.7,1.1-1.3
					c0.3-0.5,0.4-1.1,0.4-1.8c0-0.6-0.1-1.2-0.4-1.8c-0.3-0.5-0.7-1-1.1-1.3c-0.5-0.3-1-0.5-1.6-0.5s-1.2,0.2-1.7,0.5
					c-0.5,0.3-0.9,0.7-1.2,1.3c-0.3,0.5-0.4,1.1-0.4,1.8s0.2,1.2,0.5,1.8c0.3,0.5,0.7,0.9,1.2,1.3
					C1048.5,133.5,1049.1,133.6,1049.7,133.6z"/>
			</g>
		</g>
		<path d="M221,69.6L221,69.6L221,69.6c0-0.2,0-0.5-0.1-0.8c0,0,0,0,0-0.1c-0.1-0.7-0.5-1.3-1-1.8c0,0,0,0-0.1,0l-25.1-25.1
			c-1.5-1.5-3.8-1.5-5.3,0l0,0c-1.5,1.5-1.5,3.8,0,5.3l18.7,18.7h-34.5c-2.1,0-3.8,1.7-3.8,3.8s1.7,3.8,3.8,3.8h34.5l-18.7,18.7
			c-1.5,1.5-1.5,3.8,0,5.3c1.5,1.5,3.8,1.5,5.3,0l25.1-25.1c0,0,0,0,0.1,0c0.5-0.5,0.9-1.2,1-1.8c0,0,0,0,0-0.1
			C221,70.1,221,69.9,221,69.6L221,69.6z"/>
		<path d="M450.5,69.6L450.5,69.6L450.5,69.6c0-0.2,0-0.5-0.1-0.8c0,0,0,0,0-0.1c-0.1-0.7-0.5-1.3-1-1.8c0,0,0,0,0,0l-25.1-25.1
			c-1.5-1.5-3.8-1.5-5.3,0l0,0c-1.5,1.5-1.5,3.8,0,5.3l18.7,18.7h-34.5c-2.1,0-3.8,1.7-3.8,3.8s1.7,3.8,3.8,3.8h34.5L419,92.1
			c-1.5,1.5-1.5,3.8,0,5.3c1.5,1.5,3.8,1.5,5.3,0l25.1-25.1c0,0,0,0,0,0c0.5-0.5,0.9-1.2,1-1.8c0,0,0,0,0-0.1
			C450.5,70.1,450.5,69.9,450.5,69.6L450.5,69.6z"/>
		<path d="M681.5,69.6L681.5,69.6L681.5,69.6c0-0.2,0-0.5-0.1-0.8c0,0,0,0,0-0.1c-0.2-0.7-0.5-1.3-1-1.8c0,0,0,0,0,0l-25.1-25.1
			c-1.5-1.5-3.8-1.5-5.3,0l0,0c-1.5,1.5-1.5,3.8,0,5.3l18.7,18.7h-34.5c-2.1,0-3.8,1.7-3.8,3.8s1.7,3.8,3.8,3.8h34.5L650,92.1
			c-1.5,1.5-1.5,3.8,0,5.3c1.5,1.5,3.8,1.5,5.3,0l25.1-25.1c0,0,0,0,0,0c0.5-0.5,0.8-1.2,1-1.8c0,0,0,0,0-0.1
			C681.4,70.1,681.5,69.9,681.5,69.6L681.5,69.6z"/>
		<path d="M912.8,69.6L912.8,69.6L912.8,69.6c0-0.2,0-0.5-0.1-0.8c0,0,0,0,0-0.1c-0.2-0.7-0.5-1.3-1-1.8c0,0,0,0,0,0l-25.1-25.1
			c-1.5-1.5-3.8-1.5-5.3,0l0,0c-1.5,1.5-1.5,3.8,0,5.3L900,65.9h-34.5c-2.1,0-3.8,1.7-3.8,3.8s1.7,3.8,3.8,3.8H900l-18.7,18.7
			c-1.5,1.5-1.5,3.8,0,5.3c1.5,1.5,3.8,1.5,5.3,0l25.1-25.1c0,0,0,0,0,0c0.5-0.5,0.8-1.2,1-1.8c0,0,0,0,0-0.1
			C912.8,70.1,912.8,69.9,912.8,69.6L912.8,69.6z"/>
	</g>
</g>
</svg>
