<?xml version="1.0" encoding="utf-8"?>
<!-- Generator: Adobe Illustrator 28.2.0, SVG Export Plug-In . SVG Version: 6.00 Build 0)  -->
<svg version="1.1" id="Capa_2" xmlns="http://www.w3.org/2000/svg" xmlns:xlink="http://www.w3.org/1999/xlink" x="0px" y="0px"
	 viewBox="0 0 336.8 515.1" style="enable-background:new 0 0 336.8 515.1;" xml:space="preserve">
<style type="text/css">
	.st0{fill:#B2DD45;}
	.st1{fill:#FFFFFF;stroke:#000000;stroke-miterlimit:10;}
	.st2{enable-background:new    ;}
	.st3{fill:#B2DD45;stroke:#000000;stroke-miterlimit:10;}
	.st4{fill:#44CCFF;}
	.st5{fill:#44CCFF;stroke:#000000;stroke-miterlimit:10;}
	.st6{fill:#E6ADEC;}
</style>
<g id="Layer_1">
	<g>
		<g>
			<g>
				<path class="st0" d="M122.9,48.5c0.4-2.2-0.4-3.6-2.2-4.3c-1.2-0.4-1.5-1.1-1.6-2.2c-0.3-2.8-0.5-5.5-1-8.2
					c-0.6-3.4-1.8-4.2-5.2-3.9c-1.1-2-2.3-3.9-3.4-5.9c-0.3-0.5-0.5-1.1-0.7-1.6c-1.2-2.9-2-3.9-4.3-4c-0.4-0.7-0.8-1.5-1.2-2.2
					c0,0,0,0,0,0c-2.1-1.8-4.2-3.5-6.2-5.4C96.1,10,95.4,9,94.9,8c-0.8-1.8-1.5-2.2-3.4-1.5c-0.4,0.1-1,0-1.4-0.2
					c-2.7-1.1-5.2-2.4-8-3.4c-10.8-3.8-22-3.6-33-1.3C30.9,5.4,16.9,14.9,10,33.1c-0.2,0.4-0.7,1-1.1,1c-4.7,0.8-5.6,1.9-5.6,6.6
					c0,2.4,0.1,4.7,0,7.1c0,0.7-0.5,1.4-1,1.9c-2.2,1.9-2.8,4.2-1.5,6.8c0.9,1.8,1.8,3.5,2.8,5.4c-0.1,0.1-0.2,0.3-0.3,0.4
					c-2.8,4.1-2.4,6.9,1.1,10.3c1,1,1.7,2.6,2.1,4c0.5,1.7,0.4,3.6,0.7,5.3c0.3,1.7,1.2,2.9,2.8,3.2c0.1,0,0.1,0.2,0.1,0.1
					c0.6,0.6,0.9,1,1.5,1.5c2.3,1.8,4.1,3.9,5.3,6.6c1.5,3.6,4.1,5.4,8.1,5c2-0.2,3.7,0.5,5.1,2.1c1.1,1.3,2.5,2.5,3.8,3.8
					c1.8,1.8,4.1,2.4,6.6,2.1c3.7-0.5,7.4-1.3,11.3,0.9c0-0.1-0.1-0.1-0.1-0.1c2,2.4,4,2.7,6.9,1.2c3.2-1.7,6.3-1.9,9.8-0.8
					c2.5,0.7,5.7,1.6,8-0.4c3.8-3.3,8.3-3.5,12.8-3.8c2.6-0.2,4.6-1.1,5.9-3.3c1.8-3.2,4.4-5.3,7.9-6.4c1.2-0.4,2.2-1.3,3.3-2
					c0,0.1,0.2-0.1,0.3-0.2c0,0,0.1-0.1,0-0.1c1.3-2,2.5-4.1,4-5.8c1.7-2,3.8-3.5,5.5-5.5c0.6-0.7,1.1-2.1,0.9-3
					c-0.3-1.3-0.2-2.4,0.3-3.5c1.1-2.4,2.3-4.9,3.5-7.3c0.5-1,1.2-2,1.3-3.1c0.1-1.1-0.5-2.3-0.8-3.4c-0.2-0.8-0.8-1.7-0.7-2.5
					c0.1-1.2,0.6-2.4,0.9-3.6C122,51.9,122.6,50.2,122.9,48.5L122.9,48.5z"/>
				
					<ellipse transform="matrix(0.9843 -0.1767 0.1767 0.9843 -6.9795 11.3674)" class="st1" cx="60.3" cy="44.9" rx="51.5" ry="42.2"/>
				<g class="st2">
					<path d="M45.8,23.2h7L65.4,58H59l-2.2-6.2H41.8L39.6,58h-6.4L45.8,23.2z M44.1,45.8h10.5l-5.2-14.3L44.1,45.8z"/>
					<path d="M73.8,58V29.3h-4.4l1.6-6.1h8.8V58H73.8z"/>
				</g>
			</g>
			<g class="st2">
				<path d="M16.3,109.2V95.7h4.9c0.7,0,1.4,0.1,1.9,0.4s1,0.7,1.4,1.3c0.3,0.5,0.5,1.2,0.5,1.9c0,0.3,0,0.7-0.1,1
					c-0.1,0.3-0.2,0.6-0.4,0.9c-0.2,0.3-0.5,0.5-0.8,0.6c0.4,0.1,0.8,0.3,1,0.6s0.5,0.6,0.6,0.9c0.1,0.4,0.2,0.7,0.3,1.1
					c0.1,0.4,0.1,0.7,0.1,1c0,0.7-0.2,1.3-0.5,1.9c-0.4,0.6-0.8,1-1.4,1.3c-0.6,0.3-1.2,0.5-2,0.5H16.3z M18.7,100.9H21
					c0.5,0,0.9-0.1,1.2-0.4s0.5-0.7,0.5-1.2c0-0.5-0.2-0.9-0.5-1.2c-0.3-0.3-0.7-0.4-1.2-0.4h-2.3V100.9z M18.7,107.2h2.9
					c0.4,0,0.7-0.1,1-0.3c0.3-0.2,0.6-0.4,0.7-0.8s0.3-0.7,0.3-1.1c0-0.4-0.1-0.7-0.3-1c-0.2-0.3-0.4-0.6-0.7-0.8
					c-0.3-0.2-0.7-0.3-1-0.3h-2.9V107.2z"/>
			</g>
			<g class="st2">
				<path d="M31.3,109.4c-0.9,0-1.7-0.2-2.4-0.7c-0.7-0.5-1.3-1.1-1.7-1.8s-0.6-1.6-0.6-2.6c0-0.7,0.1-1.4,0.4-2
					c0.3-0.6,0.6-1.2,1-1.6c0.4-0.5,1-0.8,1.5-1.1c0.6-0.3,1.2-0.4,1.9-0.4c0.8,0,1.4,0.2,2.1,0.5s1.2,0.8,1.6,1.3
					c0.4,0.6,0.8,1.2,1,1.9c0.2,0.7,0.2,1.4,0.1,2.2h-7c0.1,0.4,0.2,0.7,0.4,1c0.2,0.3,0.5,0.5,0.8,0.7c0.3,0.2,0.7,0.3,1.1,0.3
					c0.4,0,0.8-0.1,1.1-0.3s0.6-0.5,0.8-0.8l2.4,0.6c-0.4,0.9-1,1.6-1.8,2.1C33.2,109.1,32.3,109.4,31.3,109.4z M29,103.4h4.7
					c-0.1-0.4-0.2-0.7-0.4-1c-0.2-0.3-0.5-0.6-0.8-0.7c-0.3-0.2-0.7-0.3-1.1-0.3c-0.4,0-0.7,0.1-1.1,0.3c-0.3,0.2-0.6,0.4-0.8,0.7
					C29.2,102.7,29.1,103,29,103.4z"/>
			</g>
			<g class="st2">
				<path d="M44.8,99.5h2.3v9.8c0,0.7-0.1,1.3-0.4,1.9c-0.3,0.6-0.7,1.1-1.2,1.5c-0.5,0.4-1,0.7-1.7,0.9s-1.3,0.3-2,0.3
					c-0.7,0-1.3-0.1-1.9-0.4c-0.6-0.3-1.2-0.7-1.7-1.1c-0.5-0.5-0.8-1-1.1-1.6l2.1-1c0.1,0.4,0.3,0.7,0.6,0.9s0.6,0.5,0.9,0.6
					c0.3,0.2,0.7,0.2,1.1,0.2c0.4,0,0.7-0.1,1.1-0.2s0.7-0.3,0.9-0.4c0.3-0.2,0.5-0.4,0.6-0.7s0.2-0.6,0.2-0.9V108
					c-0.3,0.4-0.7,0.8-1.1,1c-0.5,0.3-1,0.4-1.6,0.4c-0.7,0-1.3-0.1-1.9-0.4c-0.6-0.3-1.1-0.6-1.6-1.1c-0.5-0.5-0.8-1-1.1-1.6
					c-0.3-0.6-0.4-1.3-0.4-2s0.1-1.4,0.4-2c0.3-0.6,0.6-1.1,1.1-1.6c0.5-0.5,1-0.8,1.6-1.1c0.6-0.3,1.3-0.4,1.9-0.4
					c0.6,0,1.1,0.1,1.6,0.4c0.5,0.3,0.8,0.6,1.1,1V99.5z M42.1,107.2c0.5,0,0.9-0.1,1.3-0.4c0.4-0.3,0.7-0.6,0.9-1
					c0.2-0.4,0.3-0.9,0.3-1.4c0-0.5-0.1-1-0.3-1.4s-0.5-0.8-0.9-1c-0.4-0.3-0.8-0.4-1.3-0.4c-0.5,0-0.9,0.1-1.3,0.4
					c-0.4,0.3-0.7,0.6-1,1c-0.2,0.4-0.4,0.9-0.4,1.4s0.1,1,0.4,1.4c0.2,0.4,0.6,0.8,1,1C41.2,107,41.6,107.2,42.1,107.2z"/>
				<path d="M56.2,99.5h2.3v9.8c0,0.7-0.1,1.3-0.4,1.9c-0.3,0.6-0.7,1.1-1.2,1.5c-0.5,0.4-1,0.7-1.7,0.9s-1.3,0.3-2,0.3
					c-0.7,0-1.3-0.1-1.9-0.4c-0.6-0.3-1.2-0.7-1.7-1.1c-0.5-0.5-0.8-1-1.1-1.6l2.1-1c0.1,0.4,0.3,0.7,0.6,0.9s0.6,0.5,0.9,0.6
					c0.3,0.2,0.7,0.2,1.1,0.2c0.4,0,0.7-0.1,1.1-0.2s0.7-0.3,0.9-0.4c0.3-0.2,0.5-0.4,0.6-0.7s0.2-0.6,0.2-0.9V108
					c-0.3,0.4-0.7,0.8-1.1,1c-0.5,0.3-1,0.4-1.6,0.4c-0.7,0-1.3-0.1-1.9-0.4c-0.6-0.3-1.1-0.6-1.6-1.1c-0.5-0.5-0.8-1-1.1-1.6
					c-0.3-0.6-0.4-1.3-0.4-2s0.1-1.4,0.4-2c0.3-0.6,0.6-1.1,1.1-1.6c0.5-0.5,1-0.8,1.6-1.1c0.6-0.3,1.3-0.4,1.9-0.4
					c0.6,0,1.1,0.1,1.6,0.4c0.5,0.3,0.8,0.6,1.1,1V99.5z M53.5,107.2c0.5,0,0.9-0.1,1.3-0.4c0.4-0.3,0.7-0.6,0.9-1
					c0.2-0.4,0.3-0.9,0.3-1.4c0-0.5-0.1-1-0.3-1.4s-0.5-0.8-0.9-1c-0.4-0.3-0.8-0.4-1.3-0.4c-0.5,0-0.9,0.1-1.3,0.4
					c-0.4,0.3-0.7,0.6-1,1c-0.2,0.4-0.4,0.9-0.4,1.4s0.1,1,0.4,1.4c0.2,0.4,0.6,0.8,1,1C52.6,107,53,107.2,53.5,107.2z"/>
			</g>
			<g class="st2">
				<path d="M62,98.3c-0.3,0-0.6-0.1-0.9-0.3s-0.4-0.5-0.4-0.9c0-0.3,0.1-0.6,0.4-0.9c0.2-0.2,0.5-0.3,0.9-0.3
					c0.3,0,0.6,0.1,0.9,0.3c0.2,0.2,0.4,0.5,0.4,0.9c0,0.3-0.1,0.6-0.3,0.9S62.4,98.3,62,98.3z M60.8,99.5h2.3v9.6h-2.3V99.5z"/>
			</g>
			<g class="st2">
				<path d="M74.2,103.1v6.1h-2.3v-5.5c0-0.4-0.1-0.7-0.3-1c-0.2-0.3-0.4-0.6-0.7-0.7c-0.3-0.2-0.7-0.3-1-0.3s-0.7,0.1-1,0.3
					c-0.3,0.2-0.6,0.4-0.7,0.7c-0.2,0.3-0.3,0.7-0.3,1v5.5h-2.3l0-9.6h2.3l0,0.9c0.3-0.3,0.7-0.6,1.2-0.8c0.5-0.2,0.9-0.3,1.5-0.3
					c0.7,0,1.3,0.2,1.9,0.5c0.6,0.3,1,0.8,1.4,1.4C74.1,101.7,74.2,102.4,74.2,103.1z"/>
			</g>
			<g class="st2">
				<path d="M85,103.1v6.1h-2.3v-5.5c0-0.4-0.1-0.7-0.3-1c-0.2-0.3-0.4-0.6-0.7-0.7c-0.3-0.2-0.7-0.3-1-0.3c-0.4,0-0.7,0.1-1,0.3
					c-0.3,0.2-0.6,0.4-0.7,0.7c-0.2,0.3-0.3,0.7-0.3,1v5.5h-2.3l0-9.6h2.3l0,0.9c0.3-0.3,0.7-0.6,1.2-0.8c0.5-0.2,0.9-0.3,1.5-0.3
					c0.7,0,1.3,0.2,1.9,0.5c0.6,0.3,1,0.8,1.4,1.4C84.8,101.7,85,102.4,85,103.1z"/>
			</g>
			<g class="st2">
				<path d="M90.9,109.4c-0.9,0-1.7-0.2-2.4-0.7c-0.7-0.5-1.3-1.1-1.7-1.8s-0.6-1.6-0.6-2.6c0-0.7,0.1-1.4,0.4-2
					c0.3-0.6,0.6-1.2,1-1.6c0.4-0.5,1-0.8,1.5-1.1c0.6-0.3,1.2-0.4,1.9-0.4c0.8,0,1.4,0.2,2.1,0.5s1.2,0.8,1.6,1.3
					c0.4,0.6,0.8,1.2,1,1.9c0.2,0.7,0.2,1.4,0.1,2.2h-7c0.1,0.4,0.2,0.7,0.4,1c0.2,0.3,0.5,0.5,0.8,0.7c0.3,0.2,0.7,0.3,1.1,0.3
					c0.4,0,0.8-0.1,1.1-0.3s0.6-0.5,0.8-0.8l2.4,0.6c-0.4,0.9-1,1.6-1.8,2.1C92.8,109.1,91.9,109.4,90.9,109.4z M88.6,103.4h4.7
					c-0.1-0.4-0.2-0.7-0.4-1c-0.2-0.3-0.5-0.6-0.8-0.7c-0.3-0.2-0.7-0.3-1.1-0.3c-0.4,0-0.7,0.1-1.1,0.3c-0.3,0.2-0.6,0.4-0.8,0.7
					C88.8,102.7,88.6,103,88.6,103.4z"/>
			</g>
			<g class="st2">
				<path d="M97.3,109.2l0-9.6h2.3l0,0.9c0.3-0.3,0.7-0.6,1.2-0.8c0.5-0.2,0.9-0.3,1.5-0.3c0.4,0,0.7,0.1,1.1,0.2l-0.9,2.4
					c-0.2-0.1-0.5-0.1-0.7-0.1c-0.4,0-0.7,0.1-1,0.3c-0.3,0.2-0.6,0.4-0.7,0.7c-0.2,0.3-0.3,0.7-0.3,1v5.5H97.3z"/>
			</g>
		</g>
		<g>
			<g>
				<path class="st0" d="M323.5,119.4c0.4-2.2-0.4-3.6-2.2-4.3c-1.1-0.4-1.5-1.1-1.6-2.2c-0.3-2.8-0.5-5.5-1-8.2
					c-0.6-3.4-1.8-4.2-5.2-3.9c-1.1-2-2.3-3.9-3.4-5.9c-0.3-0.5-0.5-1.1-0.7-1.6c-1.2-2.9-2-3.9-4.3-4c-0.4-0.7-0.8-1.4-1.2-2.2
					c0,0,0,0,0,0c-2.1-1.8-4.2-3.5-6.2-5.4c-0.8-0.8-1.5-1.7-2-2.7c-0.8-1.8-1.5-2.2-3.4-1.5c-0.4,0.1-1,0-1.4-0.2
					c-2.7-1.1-5.2-2.4-8-3.4c-10.9-3.8-22-3.6-33-1.3c-18.3,3.7-32.3,13.2-39.2,31.4c-0.2,0.4-0.7,1-1.1,1.1
					c-4.7,0.8-5.6,1.9-5.6,6.6c0,2.4,0.1,4.7,0,7.1c0,0.7-0.5,1.4-1,1.9c-2.2,1.9-2.8,4.2-1.5,6.8c0.9,1.8,1.8,3.5,2.8,5.4
					c-0.1,0.1-0.2,0.3-0.3,0.4c-2.8,4.1-2.4,6.9,1.1,10.3c1,1,1.7,2.6,2.1,4c0.5,1.7,0.4,3.6,0.7,5.3c0.3,1.7,1.2,2.9,2.9,3.2
					c0.1,0,0.1,0.1,0.1,0.1c0.6,0.6,0.9,1,1.5,1.5c2.3,1.8,4.1,3.9,5.3,6.6c1.5,3.6,4.1,5.4,8.1,5c2-0.1,3.7,0.5,5.1,2.1
					c1.1,1.4,2.6,2.5,3.8,3.8c1.8,1.9,4.1,2.4,6.6,2.1c3.7-0.5,7.4-1.3,11.3,0.9c0-0.1-0.1-0.1-0.1-0.1c2,2.4,4,2.7,6.9,1.2
					c3.2-1.7,6.3-1.9,9.8-0.8c2.5,0.7,5.6,1.6,8-0.4c3.8-3.3,8.3-3.5,12.8-3.8c2.6-0.2,4.6-1.1,5.9-3.3c1.8-3.2,4.4-5.3,7.9-6.4
					c1.2-0.4,2.2-1.3,3.3-2c0,0.1,0.2-0.1,0.3-0.2c0,0,0-0.1,0-0.1c1.4-2,2.5-4.1,4-5.8c1.7-2,3.8-3.5,5.5-5.5
					c0.6-0.7,1.1-2.1,0.9-3c-0.3-1.3-0.2-2.4,0.3-3.5c1.1-2.4,2.3-4.9,3.5-7.3c0.5-1,1.2-2,1.3-3.1c0.1-1.1-0.5-2.3-0.8-3.4
					c-0.2-0.8-0.8-1.7-0.7-2.5c0.1-1.2,0.6-2.4,1-3.6C322.6,122.9,323.2,121.2,323.5,119.4L323.5,119.4z"/>
				
					<ellipse transform="matrix(0.9843 -0.1767 0.1767 0.9843 -16.3659 47.9403)" class="st3" cx="260.9" cy="115.8" rx="51.5" ry="42.2"/>
				<g class="st2">
					<path d="M241.1,95h7l12.7,34.8h-6.4l-2.2-6.2h-14.9l-2.2,6.2h-6.4L241.1,95z M239.3,117.6h10.5l-5.2-14.3L239.3,117.6z"/>
					<path d="M264.7,129.8v-5.4c1.1-0.8,2.4-1.8,3.8-3c1.5-1.2,3-2.5,4.5-3.9s3-2.8,4.3-4.2c1.3-1.4,2.4-2.8,3.2-4
						c0.8-1.3,1.3-2.4,1.3-3.3c0-1-0.2-1.9-0.7-2.8c-0.5-0.8-1.2-1.5-2-2s-1.7-0.7-2.7-0.7c-1,0-1.9,0.2-2.8,0.7s-1.5,1.2-2,2
						c-0.5,0.8-0.7,1.8-0.7,2.8h-6.1c0-2.2,0.5-4.2,1.6-5.9c1.1-1.7,2.5-3.1,4.2-4.2c1.7-1,3.7-1.5,5.8-1.5c2.1,0,4.1,0.5,5.8,1.6
						s3.1,2.4,4.2,4.2c1,1.8,1.6,3.7,1.6,5.8c0,1.1-0.2,2.3-0.6,3.4s-1,2.3-1.7,3.5c-0.7,1.2-1.6,2.3-2.6,3.5s-2.1,2.4-3.3,3.6
						c-1.2,1.2-2.5,2.5-3.8,3.8h12.4v6.1H264.7z"/>
				</g>
			</g>
			<g class="st2">
				<path d="M188.6,180.1v-13.5h4.8c0.7,0,1.4,0.2,2,0.5c0.6,0.4,1.1,0.9,1.4,1.5c0.3,0.6,0.5,1.3,0.5,2c0,0.8-0.2,1.4-0.5,2.1
					c-0.4,0.6-0.8,1.1-1.4,1.5c-0.6,0.4-1.2,0.5-2,0.5h-2.5v5.4H188.6z M190.9,172.4h2.2c0.3,0,0.6-0.1,0.9-0.2
					c0.3-0.2,0.5-0.4,0.7-0.7c0.2-0.3,0.2-0.6,0.2-0.9c0-0.4-0.1-0.7-0.2-1c-0.2-0.3-0.4-0.5-0.7-0.7c-0.3-0.2-0.6-0.3-0.9-0.3h-2.2
					V172.4z"/>
			</g>
			<g class="st2">
				<path d="M198.8,180.1l0-9.6h2.3l0,0.9c0.3-0.3,0.7-0.6,1.2-0.8c0.5-0.2,0.9-0.3,1.5-0.3c0.4,0,0.7,0.1,1.1,0.2l-0.9,2.4
					c-0.2-0.1-0.5-0.1-0.7-0.1c-0.4,0-0.7,0.1-1,0.3c-0.3,0.2-0.6,0.4-0.7,0.7c-0.2,0.3-0.3,0.7-0.3,1v5.5H198.8z"/>
			</g>
			<g class="st2">
				<path d="M209.7,180.4c-0.9,0-1.7-0.2-2.4-0.7c-0.7-0.5-1.3-1.1-1.7-1.8c-0.4-0.8-0.6-1.6-0.6-2.6c0-0.7,0.1-1.4,0.4-2
					c0.2-0.6,0.6-1.2,1-1.6c0.4-0.5,1-0.8,1.5-1.1c0.6-0.3,1.2-0.4,1.9-0.4c0.8,0,1.4,0.2,2.1,0.5c0.6,0.3,1.2,0.8,1.6,1.3
					c0.4,0.6,0.8,1.2,1,1.9c0.2,0.7,0.2,1.4,0.1,2.2h-7c0.1,0.4,0.2,0.7,0.4,1c0.2,0.3,0.5,0.5,0.8,0.7c0.3,0.2,0.7,0.3,1.1,0.3
					c0.4,0,0.8-0.1,1.1-0.3s0.6-0.5,0.8-0.8l2.4,0.6c-0.4,0.9-1,1.6-1.8,2.1C211.6,180.1,210.7,180.4,209.7,180.4z M207.4,174.4h4.7
					c-0.1-0.4-0.2-0.7-0.4-1s-0.5-0.6-0.8-0.7c-0.3-0.2-0.7-0.3-1.1-0.3c-0.4,0-0.7,0.1-1.1,0.3c-0.3,0.2-0.6,0.4-0.8,0.7
					C207.6,173.6,207.4,174,207.4,174.4z"/>
				<path d="M216.3,173.2h6.2v2.3h-6.2V173.2z"/>
				<path d="M225,180.1v-13.5h2.3v13.5H225z"/>
				<path d="M238.8,174.1v6.1h-2.3v-5.5c0-0.4-0.1-0.7-0.3-1c-0.2-0.3-0.4-0.6-0.7-0.7c-0.3-0.2-0.7-0.3-1-0.3s-0.7,0.1-1,0.3
					c-0.3,0.2-0.6,0.4-0.7,0.7c-0.2,0.3-0.3,0.7-0.3,1v5.5H230l0-9.6h2.3l0,0.9c0.3-0.3,0.7-0.6,1.2-0.8c0.5-0.2,0.9-0.3,1.5-0.3
					c0.7,0,1.3,0.2,1.9,0.5c0.6,0.3,1,0.8,1.4,1.4C238.6,172.7,238.8,173.4,238.8,174.1z"/>
			</g>
			<g class="st2">
				<path d="M245.9,172.9H244v7.3h-2.3v-7.3h-1.4v-2.3h1.4v-3h2.3v3h1.9V172.9z"/>
			</g>
			<g class="st2">
				<path d="M251.6,180.4c-0.9,0-1.7-0.2-2.4-0.7c-0.7-0.5-1.3-1.1-1.7-1.8s-0.6-1.6-0.6-2.6c0-0.7,0.1-1.4,0.4-2
					c0.3-0.6,0.6-1.2,1-1.6c0.4-0.5,1-0.8,1.5-1.1c0.6-0.3,1.2-0.4,1.9-0.4c0.8,0,1.4,0.2,2.1,0.5s1.2,0.8,1.6,1.3
					c0.4,0.6,0.8,1.2,1,1.9s0.2,1.4,0.1,2.2h-7c0.1,0.4,0.2,0.7,0.4,1c0.2,0.3,0.5,0.5,0.8,0.7c0.3,0.2,0.7,0.3,1.1,0.3
					c0.4,0,0.8-0.1,1.1-0.3s0.6-0.5,0.8-0.8l2.4,0.6c-0.4,0.9-1,1.6-1.8,2.1C253.5,180.1,252.6,180.4,251.6,180.4z M249.3,174.4h4.7
					c-0.1-0.4-0.2-0.7-0.4-1s-0.5-0.6-0.8-0.7c-0.3-0.2-0.7-0.3-1.1-0.3c-0.4,0-0.7,0.1-1.1,0.3c-0.3,0.2-0.6,0.4-0.8,0.7
					C249.5,173.6,249.3,174,249.3,174.4z"/>
				<path d="M257.8,180.1l0-9.6h2.3l0,0.9c0.3-0.3,0.7-0.6,1.2-0.8c0.5-0.2,0.9-0.3,1.5-0.3c0.4,0,0.7,0.1,1.1,0.2l-0.9,2.4
					c-0.2-0.1-0.5-0.1-0.7-0.1c-0.4,0-0.7,0.1-1,0.3c-0.3,0.2-0.6,0.4-0.7,0.7c-0.2,0.3-0.3,0.7-0.3,1v5.5H257.8z"/>
			</g>
			<g class="st2">
				<path d="M265.1,180.1v-9.6h2.3v0.9c0.3-0.3,0.7-0.6,1.2-0.8c0.5-0.2,0.9-0.3,1.5-0.3c0.7,0,1.3,0.2,1.8,0.5
					c0.6,0.3,1,0.7,1.3,1.3c0.3-0.5,0.8-0.9,1.3-1.3c0.6-0.3,1.2-0.5,1.8-0.5c0.7,0,1.3,0.2,1.9,0.5c0.6,0.3,1,0.8,1.4,1.4
					c0.3,0.6,0.5,1.2,0.5,1.9v6.1h-2.3v-5.5c0-0.4-0.1-0.7-0.3-1s-0.4-0.6-0.7-0.8s-0.6-0.3-1-0.3s-0.7,0.1-1,0.3
					c-0.3,0.2-0.5,0.4-0.7,0.7c-0.2,0.3-0.3,0.7-0.3,1v5.5h-2.3v-5.5c0-0.4-0.1-0.7-0.3-1c-0.2-0.3-0.4-0.6-0.7-0.7
					c-0.3-0.2-0.7-0.3-1-0.3c-0.4,0-0.7,0.1-1,0.3c-0.3,0.2-0.6,0.4-0.7,0.8c-0.2,0.3-0.3,0.7-0.3,1v5.5H265.1z"/>
				<path d="M286.3,180.4c-0.9,0-1.7-0.2-2.4-0.7c-0.7-0.5-1.3-1.1-1.7-1.8c-0.4-0.8-0.6-1.6-0.6-2.6c0-0.7,0.1-1.4,0.4-2
					c0.2-0.6,0.6-1.2,1-1.6c0.4-0.5,1-0.8,1.5-1.1c0.6-0.3,1.2-0.4,1.9-0.4c0.8,0,1.4,0.2,2.1,0.5c0.6,0.3,1.2,0.8,1.6,1.3
					c0.4,0.6,0.8,1.2,1,1.9s0.2,1.4,0.1,2.2h-7c0.1,0.4,0.2,0.7,0.4,1c0.2,0.3,0.5,0.5,0.8,0.7c0.3,0.2,0.7,0.3,1.1,0.3
					c0.4,0,0.8-0.1,1.1-0.3c0.3-0.2,0.6-0.5,0.8-0.8l2.4,0.6c-0.4,0.9-1,1.6-1.8,2.1C288.1,180.1,287.2,180.4,286.3,180.4z
					 M283.9,174.4h4.7c-0.1-0.4-0.2-0.7-0.4-1c-0.2-0.3-0.5-0.6-0.8-0.7c-0.3-0.2-0.7-0.3-1.1-0.3c-0.4,0-0.7,0.1-1.1,0.3
					c-0.3,0.2-0.6,0.4-0.8,0.7C284.1,173.6,284,174,283.9,174.4z"/>
			</g>
			<g class="st2">
				<path d="M299.9,165.7h2.3v14.4h-2.3v-1.2c-0.3,0.4-0.7,0.8-1.2,1s-1,0.4-1.6,0.4c-0.7,0-1.4-0.1-2-0.4c-0.6-0.3-1.1-0.6-1.6-1.1
					c-0.5-0.5-0.8-1-1.1-1.6c-0.3-0.6-0.4-1.3-0.4-2s0.1-1.4,0.4-2c0.3-0.6,0.6-1.1,1.1-1.6c0.5-0.5,1-0.8,1.6-1.1
					c0.6-0.3,1.3-0.4,2-0.4c0.6,0,1.2,0.1,1.6,0.4s0.9,0.6,1.2,1.1V165.7z M297.1,178.1c0.5,0,0.9-0.1,1.3-0.4
					c0.4-0.3,0.7-0.6,0.9-1c0.2-0.4,0.3-0.9,0.3-1.4c0-0.5-0.1-1-0.3-1.4c-0.2-0.4-0.5-0.8-0.9-1c-0.4-0.2-0.8-0.4-1.3-0.4
					s-0.9,0.1-1.4,0.4c-0.4,0.3-0.7,0.6-1,1c-0.2,0.4-0.4,0.9-0.4,1.4s0.1,1,0.4,1.4c0.2,0.4,0.6,0.8,1,1
					C296.2,178,296.6,178.1,297.1,178.1z"/>
			</g>
			<g class="st2">
				<path d="M305.7,169.3c-0.3,0-0.6-0.1-0.9-0.3s-0.4-0.5-0.4-0.9c0-0.3,0.1-0.6,0.4-0.9c0.2-0.2,0.5-0.3,0.9-0.3s0.6,0.1,0.9,0.3
					c0.2,0.2,0.4,0.5,0.4,0.9c0,0.3-0.1,0.6-0.3,0.9C306.4,169.2,306.1,169.3,305.7,169.3z M304.5,170.5h2.3v9.6h-2.3V170.5z"/>
			</g>
			<g class="st2">
				<path d="M316.2,170.5h2.3v9.6h-2.3l-0.1-1.2c-0.3,0.4-0.6,0.8-1,1c-0.4,0.3-0.9,0.4-1.5,0.4c-0.7,0-1.4-0.1-2-0.4
					c-0.6-0.3-1.2-0.6-1.6-1.1c-0.5-0.5-0.8-1-1.1-1.6c-0.3-0.6-0.4-1.3-0.4-2c0-0.7,0.1-1.3,0.4-1.9c0.3-0.6,0.6-1.1,1.1-1.6
					c0.5-0.5,1-0.8,1.6-1.1c0.6-0.3,1.2-0.4,1.9-0.4c0.6,0,1.2,0.1,1.7,0.4s0.9,0.6,1.3,1.1L316.2,170.5z M313.5,178.1
					c0.5,0,0.9-0.1,1.3-0.4c0.4-0.3,0.7-0.6,0.9-1c0.2-0.4,0.3-0.9,0.3-1.4c0-0.5-0.1-1-0.3-1.4c-0.2-0.4-0.5-0.8-0.9-1
					c-0.4-0.2-0.8-0.4-1.3-0.4s-0.9,0.1-1.4,0.4c-0.4,0.3-0.7,0.6-1,1c-0.2,0.4-0.4,0.9-0.4,1.4s0.1,1,0.4,1.4c0.2,0.4,0.6,0.8,1,1
					C312.5,178,313,178.1,313.5,178.1z"/>
			</g>
			<g class="st2">
				<path d="M325.7,172.9h-1.9v7.3h-2.3v-7.3H320v-2.3h1.4v-3h2.3v3h1.9V172.9z"/>
			</g>
			<g class="st2">
				<path d="M331.4,180.4c-0.9,0-1.7-0.2-2.4-0.7c-0.7-0.5-1.3-1.1-1.7-1.8s-0.6-1.6-0.6-2.6c0-0.7,0.1-1.4,0.4-2
					c0.2-0.6,0.6-1.2,1-1.6c0.4-0.5,1-0.8,1.5-1.1c0.6-0.3,1.2-0.4,1.9-0.4c0.8,0,1.4,0.2,2.1,0.5s1.2,0.8,1.6,1.3
					c0.4,0.6,0.8,1.2,1,1.9c0.2,0.7,0.2,1.4,0.1,2.2h-7c0.1,0.4,0.2,0.7,0.4,1c0.2,0.3,0.5,0.5,0.8,0.7c0.3,0.2,0.7,0.3,1.1,0.3
					c0.4,0,0.8-0.1,1.1-0.3s0.6-0.5,0.8-0.8l2.4,0.6c-0.4,0.9-1,1.6-1.8,2.1C333.2,180.1,332.4,180.4,331.4,180.4z M329,174.4h4.7
					c-0.1-0.4-0.2-0.7-0.4-1c-0.2-0.3-0.5-0.6-0.8-0.7c-0.3-0.2-0.7-0.3-1.1-0.3s-0.7,0.1-1.1,0.3c-0.3,0.2-0.6,0.4-0.8,0.7
					C329.3,173.6,329.1,174,329,174.4z"/>
			</g>
		</g>
		<g>
			<g>
				<path class="st4" d="M122.9,249c0.4-2.2-0.4-3.6-2.2-4.3c-1.2-0.4-1.5-1.1-1.6-2.2c-0.3-2.8-0.5-5.5-1-8.2
					c-0.6-3.4-1.8-4.2-5.2-3.9c-1.1-2-2.3-3.9-3.4-5.9c-0.3-0.5-0.5-1.1-0.7-1.6c-1.2-2.9-2-3.9-4.3-4c-0.4-0.7-0.8-1.4-1.2-2.2
					c0,0,0,0,0,0c-2.1-1.8-4.2-3.5-6.2-5.4c-0.8-0.8-1.5-1.7-2-2.7c-0.8-1.8-1.5-2.2-3.4-1.5c-0.4,0.1-1,0-1.4-0.2
					c-2.7-1.1-5.2-2.4-8-3.4c-10.8-3.8-22-3.6-33-1.3c-18.3,3.7-32.3,13.2-39.2,31.4c-0.2,0.4-0.7,1-1.1,1.1
					c-4.7,0.8-5.6,1.9-5.6,6.6c0,2.4,0.1,4.7,0,7.1c0,0.6-0.5,1.4-1,1.9c-2.2,1.9-2.8,4.2-1.5,6.8c0.9,1.8,1.8,3.5,2.8,5.4
					c-0.1,0.1-0.2,0.3-0.3,0.4c-2.8,4.1-2.4,6.9,1.1,10.3c1,1,1.7,2.6,2.1,4c0.5,1.7,0.4,3.5,0.7,5.3c0.3,1.7,1.2,2.9,2.9,3.2
					c0.1,0,0.1,0.1,0.1,0.1c0.6,0.6,0.9,1,1.5,1.5c2.3,1.8,4.1,3.9,5.3,6.6c1.5,3.5,4.1,5.4,8.1,5c2-0.1,3.7,0.5,5.1,2.1
					c1.1,1.4,2.5,2.5,3.8,3.8c1.8,1.9,4.1,2.4,6.6,2.1c3.7-0.5,7.4-1.3,11.3,0.9c0,0-0.1-0.1-0.1-0.1c2,2.4,4,2.7,6.9,1.2
					c3.2-1.7,6.3-1.9,9.8-0.8c2.5,0.7,5.7,1.6,8-0.4c3.8-3.3,8.3-3.5,12.8-3.8c2.6-0.2,4.6-1.1,5.9-3.3c1.8-3.2,4.4-5.3,7.9-6.4
					c1.2-0.4,2.2-1.3,3.3-2c0,0.1,0.2-0.1,0.3-0.2c0,0,0.1,0,0,0c1.3-2,2.5-4.1,4-5.8c1.7-2,3.8-3.5,5.5-5.5c0.6-0.7,1.1-2.1,0.9-3
					c-0.3-1.3-0.2-2.4,0.3-3.5c1.1-2.4,2.3-4.9,3.5-7.3c0.5-1,1.2-2,1.3-3.1c0.1-1.1-0.5-2.3-0.8-3.4c-0.2-0.8-0.8-1.7-0.7-2.5
					c0.1-1.2,0.6-2.4,0.9-3.6C122,252.4,122.6,250.8,122.9,249L122.9,249z"/>
				
					<ellipse transform="matrix(0.9843 -0.1767 0.1767 0.9843 -42.427 14.5261)" class="st1" cx="60.3" cy="245.4" rx="51.5" ry="42.2"/>
				<g class="st2">
					<path d="M38.8,258.6v-34.8h12.7c1.8,0,3.5,0.4,5,1.1s2.7,1.8,3.5,3.2c0.9,1.4,1.3,3.1,1.3,5c0,0.8-0.1,1.7-0.4,2.6
						c-0.2,0.9-0.6,1.6-1.1,2.3c-0.5,0.7-1.2,1.2-2,1.5c1.1,0.3,2,0.7,2.6,1.4s1.2,1.5,1.6,2.4c0.4,0.9,0.6,1.9,0.8,2.9
						s0.2,1.9,0.2,2.7c0,1.8-0.5,3.5-1.4,4.9c-0.9,1.4-2.1,2.6-3.7,3.4c-1.5,0.8-3.2,1.3-5.1,1.3H38.8z M44.9,237.2h5.9
						c1.2,0,2.3-0.4,3.1-1.1c0.9-0.8,1.3-1.8,1.3-3c0-1.3-0.4-2.4-1.3-3s-1.9-1-3.1-1h-5.9V237.2z M44.9,253.4h7.4
						c1,0,1.9-0.2,2.7-0.7c0.8-0.5,1.4-1.1,1.9-2c0.5-0.8,0.7-1.8,0.7-2.9c0-0.9-0.2-1.8-0.7-2.6c-0.5-0.8-1.1-1.5-1.9-2
						c-0.8-0.5-1.7-0.8-2.7-0.8h-7.4V253.4z"/>
					<path d="M71.4,258.6v-28.7H67l1.6-6.1h8.8v34.8H71.4z"/>
				</g>
			</g>
			<g class="st2">
				<path d="M4,309.7v-13.5h2.3v13.5H4z"/>
				<path d="M17.8,303.6v6.1h-2.3v-5.5c0-0.4-0.1-0.7-0.3-1s-0.4-0.6-0.7-0.7c-0.3-0.2-0.7-0.3-1-0.3c-0.4,0-0.7,0.1-1,0.3
					c-0.3,0.2-0.6,0.4-0.7,0.7c-0.2,0.3-0.3,0.7-0.3,1v5.5H9l0-9.6h2.3l0,0.9c0.3-0.3,0.7-0.6,1.2-0.8s0.9-0.3,1.5-0.3
					c0.7,0,1.3,0.2,1.9,0.5c0.6,0.3,1,0.8,1.4,1.4S17.8,302.9,17.8,303.6z"/>
			</g>
			<g class="st2">
				<path d="M24.9,302.5H23v7.3h-2.3v-7.3h-1.4v-2.3h1.4v-3H23v3h1.9V302.5z"/>
			</g>
			<g class="st2">
				<path d="M30.6,310c-0.9,0-1.7-0.2-2.4-0.7s-1.3-1.1-1.7-1.8s-0.6-1.6-0.6-2.6c0-0.7,0.1-1.4,0.4-2c0.3-0.6,0.6-1.2,1-1.6
					c0.4-0.5,1-0.8,1.5-1.1c0.6-0.3,1.2-0.4,1.9-0.4c0.8,0,1.4,0.2,2.1,0.5c0.6,0.3,1.2,0.8,1.6,1.3c0.4,0.6,0.8,1.2,1,1.9
					c0.2,0.7,0.2,1.4,0.1,2.2h-7c0.1,0.4,0.2,0.7,0.4,1c0.2,0.3,0.5,0.5,0.8,0.7c0.3,0.2,0.7,0.3,1.1,0.3c0.4,0,0.8-0.1,1.1-0.3
					c0.3-0.2,0.6-0.5,0.8-0.8l2.4,0.6c-0.4,0.9-1,1.6-1.8,2.1C32.5,309.7,31.6,310,30.6,310z M28.3,304H33c-0.1-0.4-0.2-0.7-0.4-1
					c-0.2-0.3-0.5-0.6-0.8-0.7c-0.3-0.2-0.7-0.3-1.1-0.3c-0.4,0-0.7,0.1-1.1,0.3c-0.3,0.2-0.6,0.4-0.8,0.7
					C28.5,303.2,28.3,303.6,28.3,304z"/>
				<path d="M36.8,309.7l0-9.6h2.3l0,0.9c0.3-0.3,0.7-0.6,1.2-0.8s0.9-0.3,1.5-0.3c0.4,0,0.7,0.1,1.1,0.2l-0.9,2.4
					c-0.2-0.1-0.5-0.1-0.7-0.1c-0.4,0-0.7,0.1-1,0.3c-0.3,0.2-0.6,0.4-0.7,0.7c-0.2,0.3-0.3,0.7-0.3,1v5.5H36.8z"/>
			</g>
			<g class="st2">
				<path d="M44.1,309.7v-9.6h2.3v0.9c0.3-0.3,0.7-0.6,1.2-0.8c0.5-0.2,0.9-0.3,1.5-0.3c0.7,0,1.3,0.2,1.8,0.5s1,0.7,1.3,1.3
					c0.3-0.5,0.8-0.9,1.3-1.3c0.6-0.3,1.2-0.5,1.8-0.5c0.7,0,1.3,0.2,1.9,0.5c0.6,0.3,1,0.8,1.4,1.4c0.3,0.6,0.5,1.2,0.5,1.9v6.1H57
					v-5.5c0-0.4-0.1-0.7-0.3-1c-0.2-0.3-0.4-0.6-0.7-0.8s-0.6-0.3-1-0.3c-0.4,0-0.7,0.1-1,0.3c-0.3,0.2-0.6,0.4-0.7,0.7
					c-0.2,0.3-0.3,0.7-0.3,1.1v5.5h-2.3v-5.5c0-0.4-0.1-0.7-0.3-1.1c-0.2-0.3-0.4-0.6-0.7-0.7c-0.3-0.2-0.7-0.3-1-0.3
					c-0.4,0-0.7,0.1-1,0.3c-0.3,0.2-0.6,0.4-0.7,0.8c-0.2,0.3-0.3,0.7-0.3,1v5.5H44.1z"/>
				<path d="M65.3,310c-0.9,0-1.7-0.2-2.4-0.7c-0.7-0.5-1.3-1.1-1.7-1.8c-0.4-0.8-0.6-1.6-0.6-2.6c0-0.7,0.1-1.4,0.4-2
					s0.6-1.2,1-1.6c0.4-0.5,1-0.8,1.5-1.1c0.6-0.3,1.2-0.4,1.9-0.4c0.8,0,1.4,0.2,2.1,0.5c0.6,0.3,1.2,0.8,1.6,1.3
					c0.4,0.6,0.8,1.2,1,1.9c0.2,0.7,0.2,1.4,0.1,2.2h-7c0.1,0.4,0.2,0.7,0.4,1s0.5,0.5,0.8,0.7c0.3,0.2,0.7,0.3,1.1,0.3
					c0.4,0,0.8-0.1,1.1-0.3c0.3-0.2,0.6-0.5,0.8-0.8l2.4,0.6c-0.4,0.9-1,1.6-1.8,2.1C67.1,309.7,66.2,310,65.3,310z M62.9,304h4.7
					c-0.1-0.4-0.2-0.7-0.4-1c-0.2-0.3-0.5-0.6-0.8-0.7c-0.3-0.2-0.7-0.3-1.1-0.3c-0.4,0-0.7,0.1-1.1,0.3c-0.3,0.2-0.6,0.4-0.8,0.7
					C63.1,303.2,63,303.6,62.9,304z"/>
			</g>
			<g class="st2">
				<path d="M78.9,295.3h2.3v14.4h-2.3v-1.2c-0.3,0.4-0.7,0.8-1.2,1c-0.5,0.3-1,0.4-1.6,0.4c-0.7,0-1.4-0.1-2-0.4
					c-0.6-0.3-1.1-0.6-1.6-1.1c-0.5-0.5-0.8-1-1.1-1.6s-0.4-1.3-0.4-2s0.1-1.4,0.4-2c0.3-0.6,0.6-1.1,1.1-1.6s1-0.8,1.6-1.1
					c0.6-0.3,1.3-0.4,2-0.4c0.6,0,1.2,0.1,1.6,0.4c0.5,0.3,0.9,0.6,1.2,1.1V295.3z M76.1,307.7c0.5,0,0.9-0.1,1.3-0.4
					c0.4-0.3,0.7-0.6,0.9-1c0.2-0.4,0.3-0.9,0.3-1.4c0-0.5-0.1-1-0.3-1.4c-0.2-0.4-0.5-0.8-0.9-1s-0.8-0.4-1.3-0.4s-0.9,0.1-1.4,0.4
					c-0.4,0.3-0.7,0.6-1,1c-0.2,0.4-0.4,0.9-0.4,1.4s0.1,1,0.4,1.4c0.2,0.4,0.6,0.8,1,1C75.2,307.6,75.6,307.7,76.1,307.7z"/>
			</g>
			<g class="st2">
				<path d="M84.7,298.9c-0.3,0-0.6-0.1-0.9-0.3c-0.2-0.2-0.4-0.5-0.4-0.9c0-0.3,0.1-0.6,0.4-0.9c0.2-0.2,0.5-0.3,0.9-0.3
					c0.3,0,0.6,0.1,0.9,0.3c0.2,0.2,0.4,0.5,0.4,0.9c0,0.3-0.1,0.6-0.3,0.9C85.4,298.8,85.1,298.9,84.7,298.9z M83.5,300.1h2.3v9.6
					h-2.3V300.1z"/>
			</g>
			<g class="st2">
				<path d="M95.2,300.1h2.3v9.6h-2.3l-0.1-1.2c-0.3,0.4-0.6,0.8-1,1c-0.4,0.3-0.9,0.4-1.5,0.4c-0.7,0-1.4-0.1-2-0.4
					c-0.6-0.3-1.2-0.6-1.6-1.1s-0.8-1-1.1-1.6c-0.3-0.6-0.4-1.3-0.4-2c0-0.7,0.1-1.3,0.4-1.9s0.6-1.1,1.1-1.6c0.5-0.5,1-0.8,1.6-1.1
					s1.2-0.4,1.9-0.4c0.6,0,1.2,0.1,1.7,0.4c0.5,0.3,0.9,0.6,1.3,1.1L95.2,300.1z M92.5,307.7c0.5,0,0.9-0.1,1.3-0.4
					c0.4-0.3,0.7-0.6,0.9-1c0.2-0.4,0.3-0.9,0.3-1.4c0-0.5-0.1-1-0.3-1.4c-0.2-0.4-0.5-0.8-0.9-1s-0.8-0.4-1.3-0.4s-0.9,0.1-1.4,0.4
					c-0.4,0.3-0.7,0.6-1,1c-0.2,0.4-0.4,0.9-0.4,1.4s0.1,1,0.4,1.4c0.2,0.4,0.6,0.8,1,1C91.6,307.6,92,307.7,92.5,307.7z"/>
			</g>
			<g class="st2">
				<path d="M104.7,302.5h-1.9v7.3h-2.3v-7.3H99v-2.3h1.4v-3h2.3v3h1.9V302.5z"/>
			</g>
			<g class="st2">
				<path d="M110.4,310c-0.9,0-1.7-0.2-2.4-0.7s-1.3-1.1-1.7-1.8s-0.6-1.6-0.6-2.6c0-0.7,0.1-1.4,0.4-2c0.3-0.6,0.6-1.2,1-1.6
					c0.4-0.5,1-0.8,1.5-1.1c0.6-0.3,1.2-0.4,1.9-0.4c0.8,0,1.4,0.2,2.1,0.5c0.6,0.3,1.2,0.8,1.6,1.3c0.4,0.6,0.8,1.2,1,1.9
					c0.2,0.7,0.2,1.4,0.1,2.2h-7c0.1,0.4,0.2,0.7,0.4,1c0.2,0.3,0.5,0.5,0.8,0.7c0.3,0.2,0.7,0.3,1.1,0.3c0.4,0,0.8-0.1,1.1-0.3
					c0.3-0.2,0.6-0.5,0.8-0.8l2.4,0.6c-0.4,0.9-1,1.6-1.8,2.1C112.2,309.7,111.4,310,110.4,310z M108,304h4.7
					c-0.1-0.4-0.2-0.7-0.4-1c-0.2-0.3-0.5-0.6-0.8-0.7c-0.3-0.2-0.7-0.3-1.1-0.3c-0.4,0-0.7,0.1-1.1,0.3c-0.3,0.2-0.6,0.4-0.8,0.7
					C108.3,303.2,108.1,303.6,108,304z"/>
			</g>
		</g>
		<g>
			<g>
				<path class="st4" d="M328.2,322.9c0.4-2.2-0.4-3.6-2.2-4.3c-1.1-0.4-1.5-1.1-1.6-2.2c-0.3-2.8-0.5-5.5-1-8.2
					c-0.6-3.4-1.8-4.2-5.2-3.9c-1.1-2-2.3-3.9-3.4-5.9c-0.3-0.5-0.5-1.1-0.7-1.6c-1.2-2.9-2-3.9-4.3-4c-0.4-0.7-0.8-1.5-1.2-2.2
					c0,0,0,0,0,0c-2.1-1.8-4.2-3.5-6.2-5.4c-0.8-0.8-1.5-1.7-2-2.7c-0.8-1.8-1.5-2.2-3.4-1.5c-0.4,0.1-1,0-1.4-0.2
					c-2.7-1.1-5.2-2.4-8-3.4c-10.9-3.8-22-3.6-33-1.3c-18.3,3.7-32.3,13.2-39.2,31.4c-0.2,0.4-0.7,1-1.1,1c-4.7,0.8-5.6,1.9-5.6,6.6
					c0,2.4,0.1,4.7,0,7.1c0,0.6-0.5,1.4-1,1.9c-2.2,1.9-2.8,4.2-1.5,6.8c0.9,1.8,1.8,3.5,2.8,5.4c-0.1,0.1-0.2,0.3-0.3,0.4
					c-2.8,4.1-2.4,6.9,1.1,10.3c1,1,1.7,2.6,2.1,4c0.5,1.7,0.4,3.5,0.7,5.3c0.3,1.7,1.2,2.9,2.9,3.2c0.1,0,0.1,0.1,0.1,0.1
					c0.6,0.6,0.9,1,1.5,1.5c2.3,1.8,4.1,3.9,5.3,6.6c1.5,3.5,4.1,5.4,8.1,5c2-0.1,3.7,0.5,5.1,2.1c1.1,1.4,2.6,2.5,3.8,3.8
					c1.8,1.9,4.1,2.4,6.6,2.1c3.7-0.5,7.4-1.3,11.3,0.9c0,0-0.1-0.1-0.1-0.1c2,2.4,4,2.7,6.9,1.2c3.2-1.7,6.3-1.9,9.8-0.8
					c2.5,0.7,5.6,1.6,8-0.4c3.8-3.3,8.3-3.5,12.8-3.8c2.6-0.2,4.6-1.1,5.9-3.3c1.8-3.2,4.4-5.3,7.9-6.4c1.2-0.4,2.2-1.3,3.3-2
					c0,0.1,0.2-0.1,0.3-0.2c0,0,0,0,0,0c1.4-2,2.5-4.1,4-5.8c1.7-2,3.8-3.5,5.5-5.5c0.6-0.7,1.1-2.1,0.9-3c-0.3-1.3-0.2-2.4,0.3-3.5
					c1.1-2.4,2.3-4.9,3.5-7.3c0.5-1,1.2-2,1.3-3.1c0.1-1.1-0.5-2.3-0.8-3.4c-0.2-0.8-0.8-1.7-0.7-2.5c0.1-1.2,0.6-2.4,1-3.6
					C327.3,326.3,327.9,324.6,328.2,322.9L328.2,322.9z"/>
				
					<ellipse transform="matrix(0.9843 -0.1767 0.1767 0.9843 -52.2456 51.9753)" class="st5" cx="265.6" cy="319.3" rx="51.5" ry="42.2"/>
				<g class="st2">
					<path d="M239.5,332.4v-34.8h12.7c1.8,0,3.5,0.4,5,1.1s2.7,1.8,3.5,3.2c0.9,1.4,1.3,3.1,1.3,5c0,0.8-0.1,1.7-0.4,2.6
						c-0.2,0.9-0.6,1.6-1.1,2.3c-0.5,0.7-1.2,1.2-2,1.5c1.1,0.3,2,0.7,2.6,1.4s1.2,1.5,1.6,2.4c0.4,0.9,0.6,1.9,0.8,2.9
						s0.2,1.9,0.2,2.7c0,1.8-0.5,3.5-1.4,4.9c-0.9,1.4-2.1,2.6-3.7,3.4c-1.5,0.8-3.2,1.3-5.1,1.3H239.5z M245.5,311.1h5.9
						c1.2,0,2.3-0.4,3.1-1.1c0.9-0.8,1.3-1.8,1.3-3c0-1.3-0.4-2.4-1.3-3s-1.9-1-3.1-1h-5.9V311.1z M245.5,327.2h7.4
						c1,0,1.9-0.2,2.7-0.7c0.8-0.5,1.4-1.1,1.9-2c0.5-0.8,0.7-1.8,0.7-2.9c0-0.9-0.2-1.8-0.7-2.6c-0.5-0.8-1.1-1.5-1.9-2
						c-0.8-0.5-1.7-0.8-2.7-0.8h-7.4V327.2z"/>
					<path d="M267.7,332.4V327c1.1-0.8,2.4-1.8,3.8-3c1.5-1.2,3-2.5,4.5-3.9c1.6-1.4,3-2.8,4.3-4.2c1.3-1.4,2.4-2.8,3.2-4
						s1.3-2.4,1.3-3.3c0-1-0.2-1.9-0.7-2.8s-1.2-1.5-2-2s-1.7-0.7-2.7-0.7s-1.9,0.2-2.8,0.7c-0.8,0.5-1.5,1.2-2,2s-0.7,1.8-0.7,2.8
						h-6.1c0-2.2,0.5-4.2,1.6-5.9c1.1-1.7,2.5-3.1,4.2-4.2c1.7-1,3.7-1.5,5.8-1.5c2.1,0,4.1,0.5,5.8,1.6s3.1,2.4,4.2,4.2
						c1,1.8,1.6,3.7,1.6,5.8c0,1.1-0.2,2.3-0.6,3.4c-0.4,1.1-1,2.3-1.7,3.5s-1.6,2.3-2.6,3.5s-2.1,2.4-3.3,3.6
						c-1.2,1.2-2.5,2.5-3.8,3.8h12.4v6.1H267.7z"/>
				</g>
			</g>
			<g>
				<path d="M242.6,383.8c-1.1,0-2-0.3-2.8-0.8s-1.4-1.2-1.9-2.1c-0.4-0.9-0.7-1.9-0.7-3v-7.9h2.4v7.9c0,0.6,0.1,1.2,0.4,1.8
					c0.2,0.5,0.6,1,1,1.3s1,0.5,1.6,0.5s1.2-0.2,1.7-0.5s0.8-0.7,1-1.3c0.2-0.5,0.4-1.1,0.4-1.8v-7.9h2.4v7.9c0,0.8-0.1,1.6-0.4,2.3
					c-0.3,0.7-0.6,1.3-1.1,1.9s-1,1-1.7,1.3S243.5,383.8,242.6,383.8L242.6,383.8z"/>
				<path d="M252.7,388.4h-2.4V374h2.4v1.2c0.3-0.4,0.7-0.8,1.2-1.1s1-0.4,1.6-0.4c0.7,0,1.4,0.1,2,0.4s1.1,0.6,1.6,1.1
					c0.5,0.5,0.8,1,1.1,1.6s0.4,1.3,0.4,2s-0.1,1.4-0.4,2s-0.6,1.2-1.1,1.6c-0.5,0.5-1,0.8-1.6,1.1s-1.3,0.4-2,0.4
					c-0.6,0-1.1-0.1-1.6-0.4s-0.8-0.6-1.2-1.1L252.7,388.4L252.7,388.4z M255.4,376c-0.5,0-0.9,0.1-1.3,0.4c-0.4,0.2-0.7,0.6-0.9,1
					c-0.2,0.4-0.3,0.9-0.3,1.4s0.1,1,0.3,1.4s0.5,0.8,0.9,1c0.4,0.2,0.8,0.4,1.3,0.4s0.9-0.1,1.4-0.4c0.4-0.2,0.7-0.6,1-1
					c0.2-0.4,0.4-0.9,0.4-1.4s-0.1-1-0.4-1.4c-0.2-0.4-0.6-0.8-1-1S255.9,376,255.4,376L255.4,376z"/>
				<path d="M264.4,388.4H262V374h2.4v1.2c0.3-0.4,0.7-0.8,1.2-1.1s1-0.4,1.6-0.4c0.7,0,1.4,0.1,2,0.4s1.1,0.6,1.6,1.1
					c0.5,0.5,0.8,1,1.1,1.6s0.4,1.3,0.4,2s-0.1,1.4-0.4,2s-0.6,1.2-1.1,1.6c-0.5,0.5-1,0.8-1.6,1.1s-1.3,0.4-2,0.4
					c-0.6,0-1.1-0.1-1.6-0.4s-0.8-0.6-1.2-1.1V388.4L264.4,388.4z M267.1,376c-0.5,0-0.9,0.1-1.3,0.4c-0.4,0.2-0.7,0.6-0.9,1
					c-0.2,0.4-0.3,0.9-0.3,1.4s0.1,1,0.3,1.4s0.5,0.8,0.9,1s0.8,0.4,1.3,0.4s1-0.1,1.4-0.4c0.4-0.2,0.7-0.6,1-1
					c0.2-0.4,0.4-0.9,0.4-1.4s-0.1-1-0.4-1.4c-0.2-0.4-0.6-0.8-1-1S267.6,376,267.1,376L267.1,376z"/>
				<path d="M278,383.8c-0.9,0-1.7-0.2-2.4-0.7c-0.7-0.5-1.3-1.1-1.7-1.8s-0.6-1.6-0.6-2.5c0-0.7,0.1-1.4,0.4-2
					c0.2-0.6,0.6-1.1,1-1.6s1-0.8,1.5-1.1s1.2-0.4,1.9-0.4c0.8,0,1.4,0.2,2.1,0.5s1.2,0.8,1.6,1.3c0.4,0.5,0.8,1.2,1,1.9
					c0.2,0.7,0.2,1.4,0.1,2.2h-7c0.1,0.4,0.2,0.7,0.4,1c0.2,0.3,0.5,0.5,0.8,0.7s0.7,0.3,1.1,0.3c0.4,0,0.8-0.1,1.1-0.3
					s0.6-0.5,0.8-0.8l2.4,0.6c-0.4,0.9-1,1.5-1.8,2.1C279.8,383.6,278.9,383.8,278,383.8L278,383.8z M275.6,377.8h4.7
					c-0.1-0.4-0.2-0.7-0.5-1s-0.5-0.6-0.8-0.8s-0.7-0.3-1.1-0.3s-0.7,0.1-1.1,0.3s-0.6,0.4-0.8,0.7
					C275.8,377,275.7,377.4,275.6,377.8L275.6,377.8z"/>
				<path d="M284.3,383.6V374h2.3v0.9c0.3-0.4,0.7-0.6,1.2-0.8c0.5-0.2,1-0.3,1.5-0.3c0.4,0,0.7,0,1.1,0.1l-0.9,2.4
					c-0.2-0.1-0.5-0.1-0.7-0.1c-0.4,0-0.7,0.1-1,0.3s-0.6,0.4-0.7,0.7s-0.3,0.7-0.3,1v5.5L284.3,383.6L284.3,383.6z"/>
				<path d="M210.5,406.7v-13.5h2.4v13.5H210.5z"/>
				<path d="M224.2,400.6v6.1h-2.4v-5.5c0-0.4-0.1-0.7-0.3-1s-0.4-0.6-0.8-0.7c-0.3-0.2-0.7-0.3-1-0.3s-0.7,0.1-1,0.3
					s-0.6,0.4-0.7,0.7c-0.2,0.3-0.3,0.7-0.3,1v5.5h-2.4V397h2.3v0.9c0.3-0.4,0.7-0.6,1.2-0.8c0.5-0.2,0.9-0.3,1.5-0.3
					c0.7,0,1.3,0.2,1.9,0.5s1,0.8,1.4,1.4C224,399.2,224.2,399.9,224.2,400.6L224.2,400.6z"/>
				<path d="M231.3,399.4h-1.9v7.3h-2.4v-7.3h-1.4V397h1.4v-3h2.4v3h1.9V399.4z"/>
				<path d="M237.1,406.9c-0.9,0-1.7-0.2-2.4-0.7c-0.7-0.5-1.3-1.1-1.7-1.8c-0.4-0.8-0.6-1.6-0.6-2.5c0-0.7,0.1-1.4,0.4-2
					c0.2-0.6,0.6-1.1,1-1.6s0.9-0.8,1.5-1.1s1.2-0.4,1.9-0.4c0.8,0,1.4,0.2,2.1,0.5s1.2,0.8,1.6,1.3c0.4,0.5,0.8,1.2,0.9,1.9
					c0.2,0.7,0.2,1.4,0.1,2.2h-7c0.1,0.4,0.2,0.7,0.4,1c0.2,0.3,0.5,0.5,0.8,0.7s0.7,0.3,1.1,0.3c0.4,0,0.8-0.1,1.1-0.3
					s0.6-0.5,0.8-0.8l2.4,0.6c-0.4,0.9-1,1.5-1.8,2.1C238.9,406.7,238,406.9,237.1,406.9L237.1,406.9z M234.7,400.9h4.7
					c-0.1-0.4-0.2-0.7-0.4-1s-0.5-0.6-0.8-0.8s-0.7-0.3-1.1-0.3s-0.7,0.1-1.1,0.3s-0.6,0.4-0.8,0.7S234.8,400.5,234.7,400.9
					L234.7,400.9z"/>
				<path d="M243.4,406.7v-9.6h2.3v0.9c0.3-0.4,0.7-0.6,1.2-0.8c0.5-0.2,0.9-0.3,1.5-0.3c0.4,0,0.7,0,1.1,0.1l-0.9,2.4
					c-0.2-0.1-0.5-0.1-0.7-0.1c-0.4,0-0.7,0.1-1,0.3s-0.6,0.4-0.7,0.7c-0.2,0.3-0.3,0.7-0.3,1v5.5L243.4,406.7L243.4,406.7z"/>
				<path d="M250.6,406.7v-9.6h2.4v0.9c0.3-0.4,0.7-0.6,1.2-0.8c0.5-0.2,0.9-0.3,1.5-0.3c0.7,0,1.3,0.2,1.8,0.5s1,0.7,1.3,1.3
					c0.3-0.5,0.8-1,1.4-1.3s1.2-0.5,1.8-0.5c0.7,0,1.4,0.2,1.9,0.5s1,0.8,1.4,1.4c0.3,0.6,0.5,1.2,0.5,1.9v6.1h-2.4v-5.5
					c0-0.4-0.1-0.7-0.3-1c-0.2-0.3-0.4-0.6-0.7-0.8s-0.6-0.3-1-0.3s-0.7,0.1-1,0.3s-0.5,0.4-0.7,0.7s-0.3,0.7-0.3,1v5.5H257v-5.5
					c0-0.4-0.1-0.7-0.3-1s-0.4-0.5-0.7-0.7c-0.3-0.2-0.6-0.3-1-0.3s-0.7,0.1-1,0.3s-0.6,0.4-0.7,0.8c-0.2,0.3-0.3,0.6-0.3,1v5.5
					L250.6,406.7L250.6,406.7z"/>
				<path d="M271.7,406.9c-0.9,0-1.7-0.2-2.4-0.7c-0.7-0.5-1.3-1.1-1.7-1.8s-0.6-1.6-0.6-2.5c0-0.7,0.1-1.4,0.4-2
					c0.2-0.6,0.6-1.1,1-1.6s1-0.8,1.5-1.1s1.2-0.4,1.9-0.4c0.8,0,1.4,0.2,2.1,0.5s1.2,0.8,1.6,1.3c0.4,0.5,0.8,1.2,1,1.9
					c0.2,0.7,0.2,1.4,0.1,2.2h-7c0.1,0.4,0.2,0.7,0.4,1c0.2,0.3,0.5,0.5,0.8,0.7s0.7,0.3,1.1,0.3c0.4,0,0.8-0.1,1.1-0.3
					s0.6-0.5,0.8-0.8l2.4,0.6c-0.4,0.9-1,1.5-1.8,2.1C273.5,406.7,272.7,406.9,271.7,406.9L271.7,406.9z M269.3,400.9h4.7
					c-0.1-0.4-0.2-0.7-0.5-1s-0.5-0.6-0.8-0.8s-0.7-0.3-1.1-0.3s-0.7,0.1-1.1,0.3s-0.6,0.4-0.8,0.7
					C269.6,400.1,269.4,400.5,269.3,400.9L269.3,400.9z"/>
				<path d="M285.3,392.2h2.4v14.4h-2.4v-1.2c-0.3,0.4-0.7,0.8-1.2,1c-0.5,0.3-1,0.4-1.6,0.4c-0.7,0-1.4-0.1-2-0.4s-1.1-0.6-1.6-1.1
					c-0.5-0.5-0.8-1-1.1-1.6s-0.4-1.3-0.4-2s0.1-1.4,0.4-2s0.6-1.1,1.1-1.6s1-0.8,1.6-1.1s1.3-0.4,2-0.4c0.6,0,1.2,0.1,1.6,0.4
					s0.9,0.6,1.2,1V392.2L285.3,392.2z M282.6,404.7c0.5,0,0.9-0.1,1.3-0.4s0.7-0.6,0.9-1s0.3-0.9,0.3-1.4s-0.1-1-0.3-1.4
					s-0.5-0.8-0.9-1s-0.8-0.4-1.3-0.4s-0.9,0.1-1.4,0.4s-0.7,0.6-1,1c-0.2,0.4-0.4,0.9-0.4,1.4s0.1,1,0.4,1.4c0.2,0.4,0.6,0.8,1,1
					S282.1,404.7,282.6,404.7L282.6,404.7z"/>
				<path d="M291.2,395.8c-0.4,0-0.6-0.1-0.9-0.3s-0.4-0.5-0.4-0.9s0.1-0.6,0.4-0.9c0.2-0.2,0.5-0.4,0.9-0.4s0.6,0.1,0.9,0.4
					c0.2,0.2,0.4,0.5,0.4,0.9s-0.1,0.6-0.4,0.9C291.8,395.7,291.5,395.8,291.2,395.8L291.2,395.8z M290,397h2.4v9.6H290V397z"/>
				<path d="M301.7,397h2.4v9.6h-2.4l-0.1-1.2c-0.3,0.4-0.6,0.8-1,1c-0.4,0.3-1,0.4-1.5,0.4c-0.7,0-1.4-0.1-2-0.4s-1.2-0.6-1.6-1.1
					c-0.5-0.5-0.8-1-1.1-1.6c-0.3-0.6-0.4-1.3-0.4-2s0.1-1.3,0.4-1.9s0.6-1.1,1.1-1.6c0.5-0.5,1-0.8,1.6-1.1
					c0.6-0.3,1.2-0.4,1.9-0.4c0.6,0,1.2,0.1,1.7,0.4s0.9,0.6,1.3,1.1L301.7,397L301.7,397z M298.9,404.7c0.5,0,0.9-0.1,1.3-0.4
					s0.7-0.6,0.9-1s0.3-0.9,0.3-1.4s-0.1-1-0.3-1.4s-0.5-0.8-0.9-1s-0.8-0.4-1.3-0.4s-0.9,0.1-1.4,0.4s-0.7,0.6-1,1
					c-0.2,0.4-0.4,0.9-0.4,1.4s0.1,1,0.4,1.4c0.2,0.4,0.6,0.8,1,1S298.5,404.7,298.9,404.7L298.9,404.7z"/>
				<path d="M311.1,399.4h-1.9v7.3h-2.4v-7.3h-1.4V397h1.4v-3h2.4v3h1.9V399.4z"/>
				<path d="M316.9,406.9c-0.9,0-1.7-0.2-2.4-0.7c-0.7-0.5-1.3-1.1-1.7-1.8s-0.6-1.6-0.6-2.5c0-0.7,0.1-1.4,0.4-2
					c0.2-0.6,0.6-1.1,1-1.6s1-0.8,1.5-1.1s1.2-0.4,1.9-0.4c0.8,0,1.4,0.2,2.1,0.5s1.2,0.8,1.6,1.3c0.4,0.5,0.8,1.2,1,1.9
					c0.2,0.7,0.2,1.4,0.1,2.2h-7c0.1,0.4,0.2,0.7,0.4,1c0.2,0.3,0.5,0.5,0.8,0.7s0.7,0.3,1.1,0.3c0.4,0,0.8-0.1,1.1-0.3
					s0.6-0.5,0.8-0.8l2.4,0.6c-0.4,0.9-1,1.5-1.8,2.1C318.7,406.7,317.8,406.9,316.9,406.9L316.9,406.9z M314.5,400.9h4.7
					c-0.1-0.4-0.2-0.7-0.5-1s-0.5-0.6-0.8-0.8s-0.7-0.3-1.1-0.3s-0.7,0.1-1.1,0.3s-0.6,0.4-0.8,0.7
					C314.7,400.1,314.6,400.5,314.5,400.9L314.5,400.9z"/>
			</g>
		</g>
		<g>
			<g>
				<path class="st6" d="M122.9,449.6c0.4-2.2-0.4-3.6-2.2-4.3c-1.2-0.4-1.5-1.1-1.6-2.2c-0.3-2.8-0.5-5.5-1-8.2
					c-0.6-3.4-1.8-4.2-5.2-3.9c-1.1-2-2.3-3.9-3.4-5.9c-0.3-0.5-0.5-1.1-0.7-1.6c-1.2-2.9-2-3.9-4.3-4c-0.4-0.7-0.8-1.5-1.2-2.2
					c0,0,0,0,0,0c-2.1-1.8-4.2-3.5-6.2-5.4c-0.8-0.8-1.5-1.7-2-2.7c-0.8-1.8-1.5-2.2-3.4-1.5c-0.4,0.1-1,0-1.4-0.2
					c-2.7-1.1-5.2-2.4-8-3.4c-10.8-3.8-22-3.6-33-1.3C30.9,406.5,16.8,416,10,434.2c-0.2,0.4-0.7,1-1.1,1c-4.7,0.8-5.6,1.9-5.6,6.6
					c0,2.4,0.1,4.7,0,7.1c0,0.6-0.5,1.4-1,1.9c-2.2,1.9-2.8,4.2-1.5,6.8c0.9,1.8,1.8,3.5,2.8,5.4c-0.1,0.1-0.2,0.3-0.3,0.4
					c-2.8,4.1-2.4,6.9,1.1,10.3c1,1,1.7,2.6,2.1,4c0.5,1.7,0.4,3.5,0.7,5.3c0.3,1.7,1.2,2.9,2.9,3.2c0.1,0,0.1,0.1,0.1,0.1
					c0.6,0.6,0.9,1,1.5,1.5c2.3,1.8,4.1,3.9,5.3,6.6c1.5,3.5,4.1,5.4,8.1,5c2-0.1,3.7,0.5,5.1,2.1c1.1,1.4,2.5,2.5,3.8,3.8
					c1.8,1.9,4.1,2.4,6.6,2.1c3.7-0.5,7.4-1.3,11.3,0.9c0,0-0.1-0.1-0.1-0.1c2,2.4,4,2.7,6.9,1.2c3.2-1.7,6.3-1.9,9.8-0.8
					c2.5,0.7,5.7,1.6,8-0.4c3.8-3.3,8.3-3.5,12.8-3.8c2.6-0.2,4.6-1.1,5.9-3.3c1.8-3.2,4.4-5.3,7.9-6.4c1.2-0.4,2.2-1.3,3.3-2
					c0,0.1,0.2-0.1,0.3-0.2c0,0,0.1,0,0,0c1.3-2,2.5-4.1,4-5.8c1.7-2,3.8-3.5,5.5-5.5c0.6-0.7,1.1-2.1,0.9-3
					c-0.3-1.3-0.2-2.4,0.3-3.5c1.1-2.4,2.3-4.9,3.5-7.3c0.5-1,1.2-2,1.3-3.1c0.1-1.1-0.5-2.3-0.8-3.4c-0.2-0.8-0.8-1.7-0.7-2.5
					c0.1-1.2,0.6-2.4,0.9-3.6C122,453,122.6,451.3,122.9,449.6L122.9,449.6z"/>
				
					<ellipse transform="matrix(0.9843 -0.1767 0.1767 0.9843 -77.8746 17.6847)" class="st1" cx="60.3" cy="446" rx="51.5" ry="42.2"/>
				<g class="st2">
					<path d="M50.3,459.8c-2.4,0-4.6-0.5-6.6-1.4c-2.1-0.9-3.9-2.2-5.5-3.9c-1.6-1.7-2.8-3.6-3.7-5.8c-0.9-2.2-1.3-4.5-1.3-7
						c0-2.5,0.4-4.8,1.3-7c0.9-2.2,2.1-4.1,3.7-5.7c1.6-1.6,3.4-2.9,5.5-3.9c2.1-0.9,4.3-1.4,6.6-1.4c2.8,0,5.4,0.7,7.8,2
						c2.4,1.3,4.3,3,5.9,5.2l-5.4,2.9c-1-1.2-2.2-2.2-3.6-2.9c-1.5-0.7-3-1.1-4.6-1.1c-1.5,0-3,0.3-4.3,0.9
						c-1.3,0.6-2.5,1.5-3.5,2.6c-1,1.1-1.8,2.4-2.4,3.8c-0.6,1.5-0.8,3-0.8,4.6c0,1.7,0.3,3.2,0.9,4.6c0.6,1.4,1.4,2.7,2.4,3.8
						c1,1.1,2.2,2,3.5,2.6c1.3,0.6,2.8,0.9,4.3,0.9c1.7,0,3.2-0.4,4.6-1.1c1.4-0.7,2.6-1.7,3.6-2.9l5.4,2.9
						c-1.6,2.2-3.5,3.9-5.9,5.2S53.1,459.8,50.3,459.8z"/>
					<path d="M72.8,459.1v-28.7h-4.4l1.6-6.1h8.8v34.8H72.8z"/>
				</g>
			</g>
			<g class="st2">
				<path d="M21.3,496.8H24l4.9,13.5h-2.5l-0.9-2.4h-5.8l-0.9,2.4h-2.5L21.3,496.8z M20.6,505.6h4.1l-2-5.6L20.6,505.6z"/>
			</g>
			<g class="st2">
				<path d="M37.1,495.9h2.3v14.4h-2.3v-1.2c-0.3,0.4-0.7,0.8-1.2,1c-0.5,0.3-1,0.4-1.6,0.4c-0.7,0-1.4-0.1-2-0.4
					c-0.6-0.3-1.1-0.6-1.6-1.1c-0.5-0.5-0.8-1-1.1-1.6c-0.3-0.6-0.4-1.3-0.4-2s0.1-1.4,0.4-2c0.3-0.6,0.6-1.1,1.1-1.6
					c0.5-0.5,1-0.8,1.6-1.1c0.6-0.3,1.3-0.4,2-0.4c0.6,0,1.2,0.1,1.6,0.4c0.5,0.3,0.9,0.6,1.2,1.1V495.9z M34.4,508.3
					c0.5,0,0.9-0.1,1.3-0.4c0.4-0.3,0.7-0.6,0.9-1c0.2-0.4,0.3-0.9,0.3-1.4c0-0.5-0.1-1-0.3-1.4c-0.2-0.4-0.5-0.8-0.9-1
					c-0.4-0.2-0.8-0.4-1.3-0.4s-0.9,0.1-1.4,0.4c-0.4,0.3-0.7,0.6-1,1c-0.2,0.4-0.4,0.9-0.4,1.4s0.1,1,0.4,1.4c0.2,0.4,0.6,0.8,1,1
					C33.4,508.2,33.9,508.3,34.4,508.3z"/>
			</g>
			<g class="st2">
				<path d="M47.5,510.3h-3l-3.5-9.6h2.5l2.5,6.9l2.5-6.9H51L47.5,510.3z"/>
			</g>
			<g class="st2">
				<path d="M59.3,500.7h2.3v9.6h-2.3l-0.1-1.2c-0.3,0.4-0.6,0.8-1,1c-0.4,0.3-0.9,0.4-1.5,0.4c-0.7,0-1.4-0.1-2-0.4
					c-0.6-0.3-1.2-0.6-1.6-1.1s-0.8-1-1.1-1.6c-0.3-0.6-0.4-1.3-0.4-2c0-0.7,0.1-1.3,0.4-1.9c0.3-0.6,0.6-1.1,1.1-1.6
					c0.5-0.5,1-0.8,1.6-1.1c0.6-0.3,1.2-0.4,1.9-0.4c0.6,0,1.2,0.1,1.7,0.4c0.5,0.3,0.9,0.6,1.3,1.1L59.3,500.7z M56.6,508.3
					c0.5,0,0.9-0.1,1.3-0.4c0.4-0.3,0.7-0.6,0.9-1c0.2-0.4,0.3-0.9,0.3-1.4c0-0.5-0.1-1-0.3-1.4c-0.2-0.4-0.5-0.8-0.9-1
					c-0.4-0.2-0.8-0.4-1.3-0.4s-0.9,0.1-1.4,0.4c-0.4,0.3-0.7,0.6-1,1c-0.2,0.4-0.4,0.9-0.4,1.4s0.1,1,0.4,1.4c0.2,0.4,0.6,0.8,1,1
					C55.7,508.2,56.1,508.3,56.6,508.3z"/>
			</g>
			<g class="st2">
				<path d="M72.4,504.2v6.1h-2.3v-5.5c0-0.4-0.1-0.7-0.3-1c-0.2-0.3-0.4-0.6-0.7-0.7c-0.3-0.2-0.7-0.3-1-0.3c-0.4,0-0.7,0.1-1,0.3
					c-0.3,0.2-0.6,0.4-0.7,0.7c-0.2,0.3-0.3,0.7-0.3,1v5.5h-2.3l0-9.6H66l0,0.9c0.3-0.3,0.7-0.6,1.2-0.8c0.5-0.2,0.9-0.3,1.5-0.3
					c0.7,0,1.3,0.2,1.9,0.5c0.6,0.3,1,0.8,1.4,1.4S72.4,503.5,72.4,504.2z"/>
			</g>
			<g class="st2">
				<path d="M80.1,507.4l2.1,1.1c-0.4,0.6-1,1.1-1.7,1.5c-0.7,0.4-1.4,0.5-2.2,0.5c-0.9,0-1.7-0.2-2.4-0.7c-0.7-0.5-1.3-1.1-1.7-1.8
					c-0.4-0.8-0.6-1.6-0.6-2.5c0-0.7,0.1-1.4,0.4-2c0.3-0.6,0.6-1.2,1-1.6c0.4-0.5,1-0.8,1.5-1.1c0.6-0.3,1.2-0.4,1.9-0.4
					c0.8,0,1.5,0.2,2.2,0.5c0.7,0.4,1.2,0.9,1.7,1.5l-2.1,1.1c-0.2-0.3-0.5-0.5-0.8-0.6c-0.3-0.1-0.6-0.2-0.9-0.2
					c-0.5,0-0.9,0.1-1.3,0.4c-0.4,0.3-0.7,0.6-0.9,1s-0.3,0.9-0.3,1.4c0,0.5,0.1,0.9,0.3,1.3s0.5,0.7,0.9,1s0.8,0.4,1.3,0.4
					c0.3,0,0.7-0.1,1-0.2C79.6,507.8,79.9,507.6,80.1,507.4z"/>
			</g>
			<g class="st2">
				<path d="M87.9,510.5c-0.9,0-1.7-0.2-2.4-0.7c-0.7-0.5-1.3-1.1-1.7-1.8c-0.4-0.8-0.6-1.6-0.6-2.6c0-0.7,0.1-1.4,0.4-2
					c0.2-0.6,0.6-1.2,1-1.6c0.4-0.5,1-0.8,1.5-1.1c0.6-0.3,1.2-0.4,1.9-0.4c0.8,0,1.4,0.2,2.1,0.5c0.6,0.3,1.2,0.8,1.6,1.3
					c0.4,0.6,0.8,1.2,1,1.9c0.2,0.7,0.2,1.4,0.1,2.2h-7c0.1,0.4,0.2,0.7,0.4,1c0.2,0.3,0.5,0.5,0.8,0.7c0.3,0.2,0.7,0.3,1.1,0.3
					c0.4,0,0.8-0.1,1.1-0.3s0.6-0.5,0.8-0.8l2.4,0.6c-0.4,0.9-1,1.6-1.8,2.1C89.7,510.3,88.9,510.5,87.9,510.5z M85.5,504.5h4.7
					c-0.1-0.4-0.2-0.7-0.4-1s-0.5-0.6-0.8-0.7c-0.3-0.2-0.7-0.3-1.1-0.3c-0.4,0-0.7,0.1-1.1,0.3c-0.3,0.2-0.6,0.4-0.8,0.7
					C85.8,503.8,85.6,504.1,85.5,504.5z"/>
			</g>
			<g class="st2">
				<path d="M101.5,495.9h2.3v14.4h-2.3v-1.2c-0.3,0.4-0.7,0.8-1.2,1c-0.5,0.3-1,0.4-1.6,0.4c-0.7,0-1.4-0.1-2-0.4
					c-0.6-0.3-1.1-0.6-1.6-1.1c-0.5-0.5-0.8-1-1.1-1.6c-0.3-0.6-0.4-1.3-0.4-2s0.1-1.4,0.4-2c0.3-0.6,0.6-1.1,1.1-1.6
					c0.5-0.5,1-0.8,1.6-1.1c0.6-0.3,1.3-0.4,2-0.4c0.6,0,1.2,0.1,1.6,0.4c0.5,0.3,0.9,0.6,1.2,1.1V495.9z M98.8,508.3
					c0.5,0,0.9-0.1,1.3-0.4c0.4-0.3,0.7-0.6,0.9-1c0.2-0.4,0.3-0.9,0.3-1.4c0-0.5-0.1-1-0.3-1.4c-0.2-0.4-0.5-0.8-0.9-1
					c-0.4-0.2-0.8-0.4-1.3-0.4s-0.9,0.1-1.4,0.4c-0.4,0.3-0.7,0.6-1,1c-0.2,0.4-0.4,0.9-0.4,1.4s0.1,1,0.4,1.4c0.2,0.4,0.6,0.8,1,1
					C97.8,508.2,98.3,508.3,98.8,508.3z"/>
			</g>
		</g>
		<path d="M176.7,88.1L176.7,88.1L176.7,88.1c0.1-0.1,0.2-0.2,0.3-0.4c0,0,0,0,0,0c0.2-0.4,0.4-0.8,0.4-1.3c0,0,0,0,0,0V62.5
			c0-1.4-1.1-2.5-2.5-2.5l0,0c-1.4,0-2.5,1.1-2.5,2.5v17.8L156,63.9c-1-1-2.6-1-3.6,0c-1,1-1,2.6,0,3.6l16.4,16.4H151
			c-1.4,0-2.5,1.1-2.5,2.5s1.1,2.5,2.5,2.5h23.8c0,0,0,0,0,0c0.5,0,1-0.2,1.4-0.4c0,0,0,0,0,0C176.4,88.4,176.6,88.3,176.7,88.1
			L176.7,88.1z"/>
		<path d="M149.2,212.8L149.2,212.8L149.2,212.8c0.1,0.1,0.2,0.2,0.4,0.3c0,0,0,0,0,0c0.4,0.2,0.9,0.4,1.4,0.4c0,0,0,0,0,0h23.8
			c1.4,0,2.5-1.1,2.5-2.5l0,0c0-1.4-1.1-2.5-2.5-2.5h-17.8l16.4-16.4c1-1,1-2.6,0-3.6s-2.6-1-3.6,0l-16.4,16.4v-17.8
			c0-1.4-1.1-2.5-2.5-2.5s-2.5,1.1-2.5,2.5v23.8c0,0,0,0,0,0c0,0.5,0.1,1,0.4,1.4c0,0,0,0,0,0C149,212.5,149.1,212.6,149.2,212.8
			L149.2,212.8z"/>
		<path d="M176.7,312.5L176.7,312.5L176.7,312.5c0.1-0.1,0.2-0.2,0.3-0.4c0,0,0,0,0,0c0.2-0.4,0.4-0.9,0.4-1.4c0,0,0,0,0,0v-23.8
			c0-1.4-1.1-2.5-2.5-2.5l0,0c-1.4,0-2.5,1.1-2.5,2.5v17.8L156,288.2c-1-1-2.6-1-3.6,0s-1,2.6,0,3.6l16.4,16.4H151
			c-1.4,0-2.5,1.1-2.5,2.5c0,1.4,1.1,2.5,2.5,2.5h23.8c0,0,0,0,0,0c0.5,0,1-0.1,1.4-0.4c0,0,0,0,0,0
			C176.4,312.7,176.6,312.6,176.7,312.5L176.7,312.5z"/>
		<path d="M149.2,427.8L149.2,427.8L149.2,427.8c0.1,0.1,0.2,0.2,0.4,0.3c0,0,0,0,0,0c0.4,0.2,0.9,0.4,1.4,0.4c0,0,0,0,0,0h23.8
			c1.4,0,2.5-1.1,2.5-2.5l0,0c0-1.4-1.1-2.5-2.5-2.5h-17.8l16.4-16.4c1-1,1-2.6,0-3.6s-2.6-1-3.6,0l-16.4,16.4v-17.8
			c0-1.4-1.1-2.5-2.5-2.5s-2.5,1.1-2.5,2.5V426c0,0,0,0,0,0c0,0.5,0.1,1,0.4,1.4c0,0,0,0,0,0C149,427.5,149.1,427.7,149.2,427.8
			L149.2,427.8z"/>
	</g>
</g>
</svg>
