<?xml version="1.0" encoding="UTF-8"?>
<svg id="Capa_2" data-name="Capa 2" xmlns="http://www.w3.org/2000/svg" version="1.1" viewBox="0 0 1788.5 3969.1">
  <defs>
    <style>
      .cls-1 {
        fill: #000;
        stroke-width: 0px;
      }

      .cls-2 {
        opacity: .5;
      }
    </style>
  </defs>
  <g id="Layer_2" data-name="Layer 2" class="cls-2">
    <path class="cls-1" d="M.2,3915.5l-.2-2c4-.3,8-.6,12-.9v2c-3.9.3-7.8.6-11.8.9ZM24.1,3913.7v-2c3.8-.3,7.8-.6,11.8-.9v2c-3.9.3-7.8.6-11.8.9h0ZM48.1,3911.9v-2c3.8-.3,7.8-.6,11.8-.8v2c-3.9.3-7.8.6-11.8.8ZM72,3910.3v-2c3.9-.3,7.9-.5,11.9-.8v2c-3.9.3-7.9.5-11.9.8ZM96,3908.7v-2c-.1,0,11.9-.8,11.9-.8v2c.1,0-11.9.8-11.9.8ZM120,3907.2v-2c-.1,0,11.9-.8,11.9-.8v2c.1,0-11.9.8-11.9.8h0ZM144,3905.7v-2c-.1,0,11.9-.7,11.9-.7v2c.1,0-11.9.7-11.9.7ZM167.9,3904.2v-2c-.1,0,11.8-.7,11.8-.7v2c.1,0-11.8.7-11.8.7ZM191.9,3902.7v-2c-.1,0,11.9-.7,11.9-.7v2c.1,0-11.9.7-11.9.7ZM215.8,3901.2v-2c-.1,0,11.9-.8,11.9-.8v2c.1,0-11.9.8-11.9.8h0ZM239.8,3899.7v-2c3.9-.3,7.9-.5,11.8-.8v2c-3.8.3-7.8.5-11.9.8h0ZM263.8,3898.1v-2c3.9-.3,7.9-.5,11.8-.8v2c-3.8.3-7.8.5-11.8.8ZM287.8,3896.5v-2c3.9-.3,7.9-.6,11.8-.8v2c-3.8.3-7.8.6-11.8.8ZM311.7,3894.8l-.2-2c4-.3,8-.6,12-.9l.2,2c-4,.3-8,.6-12,.9ZM335.7,3893l-.2-2c4-.3,8-.6,12-1l.2,2c-4,.3-8,.6-12,1h0ZM359.6,3891l-.2-2c4-.4,8-.7,12-1.1l.2,2c-4,.4-7.9.7-12,1.1h0ZM383.6,3888.9l-.2-2c4-.4,8-.8,12-1.2l.2,2c-3.9.4-7.9.8-12,1.2ZM407.5,3886.5l-.2-2c4-.4,8-.9,11.9-1.3l.2,2c-3.9.4-7.9.9-12,1.3h0ZM431.4,3883.8l-.2-2c4-.5,8-1,11.9-1.5l.3,2c-3.9.5-7.9,1-11.9,1.5ZM455.2,3880.6l-.3-2c4.1-.6,8.1-1.2,11.9-1.8l.3,2c-3.8.6-7.8,1.2-11.9,1.8h0ZM479,3876.9l-.3-2c4.1-.7,8-1.4,11.8-2.1l.4,2c-3.8.7-7.8,1.5-11.8,2.2ZM502.7,3872.3l-.4-1.9c4.1-.9,8-1.8,11.7-2.8l.5,1.9c-3.7.9-7.6,1.9-11.7,2.8h0ZM526,3866.3l-.6-1.9c4.1-1.2,7.9-2.6,11.3-3.9l.7,1.9c-3.5,1.3-7.3,2.6-11.4,3.9h0ZM548.5,3857.4l-.9-1.8c3.8-2,6.8-4.1,9.2-6.2l.4-.3,1.3,1.5-.4.3c-2.5,2.2-5.8,4.4-9.6,6.5ZM1477.7,3845.3c-1.4,0-2.8,0-4.3,0-2.4,0-5-.2-7.8-.3v-2c2.8.1,5.4.2,7.8.3,1.4,0,2.8,0,4.2,0v2s0,0,0,0ZM1489.8,3845.1v-2c3.9-.1,7.9-.4,11.9-.7l.2,2c-4,.3-8,.6-12,.7h0ZM1453.7,3844.1c-3.7-.3-7.8-.6-12-1.1l.2-2c4.2.4,8.2.8,11.9,1l-.2,2h0ZM567.7,3843.1l-1.2-1.6c3.1-2.4,6.5-4.7,9.9-6.9l1.1,1.7c-3.4,2.2-6.7,4.5-9.8,6.8ZM1513.8,3843.1l-.3-2c3.9-.5,7.9-1.2,11.8-1.9l.4,2c-3.9.7-7.9,1.4-11.9,1.9h0ZM1429.7,3841.8c-3.8-.4-7.8-.9-11.9-1.3l.2-2c4.1.5,8.1.9,11.9,1.3l-.2,2h0ZM1405.8,3839.1c-3.9-.5-7.9-1-11.9-1.5l.2-2c4.1.5,8,1,11.9,1.5l-.2,2h0ZM1537.4,3838.6l-.5-1.9c3.9-.9,7.7-2,11.5-3.2l.6,1.9c-3.8,1.2-7.7,2.2-11.6,3.2ZM1382,3836.1c-3.9-.5-7.9-1-11.9-1.6l.3-2c4,.5,8,1.1,11.9,1.6l-.3,2ZM1358.2,3832.9c-3.9-.5-7.9-1.1-11.9-1.6l.3-2c4,.6,8,1.1,11.9,1.6l-.3,2ZM1560.5,3831.5l-.7-1.9c3.7-1.4,7.4-2.9,11.1-4.5l.8,1.8c-3.6,1.6-7.4,3.1-11.2,4.6h0ZM587.8,3830.1l-1-1.8c3.4-1.9,7-3.8,10.7-5.6l.9,1.8c-3.6,1.8-7.2,3.6-10.6,5.5h0ZM1334.4,3829.7l-11.9-1.6.3-2,11.9,1.6-.3,2ZM1310.6,3826.5l-11.9-1.6.3-2,11.9,1.6-.3,2ZM1286.8,3823.2l-11.9-1.6.3-2,11.9,1.6-.3,2ZM1582.5,3821.7l-.9-1.8c3.5-1.8,7-3.8,10.4-5.9l1,1.7c-3.4,2.1-6.9,4.1-10.5,5.9h0ZM1263,3820c-3.9-.5-7.9-1.1-11.9-1.6l.3-2c4,.5,8,1.1,11.9,1.6l-.3,2ZM609.2,3819.7l-.8-1.8c3.6-1.5,7.3-3,11.2-4.5l.7,1.9c-3.8,1.4-7.5,2.9-11.1,4.4h0ZM1239.2,3816.8c-3.9-.5-7.9-1.1-11.9-1.6l.3-2c4,.5,8,1.1,11.9,1.6l-.3,2ZM1215.4,3813.7c-3.9-.5-7.9-1-11.9-1.5l.2-2c4,.5,8,1,11.9,1.5l-.3,2h0ZM631.6,3811.2l-.6-1.9c3.7-1.2,7.6-2.4,11.5-3.6l.6,1.9c-3.9,1.1-7.7,2.3-11.4,3.6ZM1191.6,3810.6c-3.9-.5-7.9-1-11.9-1.5l.2-2c4,.5,8,1,11.9,1.5l-.2,2h0ZM1603,3809.1l-1.2-1.6c3.2-2.3,6.4-4.7,9.5-7.2l1.3,1.5c-3.1,2.5-6.3,5-9.6,7.3h0ZM1167.7,3807.7c-4-.5-7.9-1-11.9-1.4l.2-2c4,.5,8,1,11.9,1.4l-.2,2h0ZM1143.9,3804.8c-4-.5-7.9-.9-11.9-1.4l.2-2c4,.5,8,.9,11.9,1.4l-.2,2h0ZM654.5,3804.4l-.5-1.9c3.8-1,7.7-2,11.7-2.9l.5,1.9c-3.9.9-7.8,1.9-11.6,2.9h0ZM1120.1,3802.1c-4-.4-7.9-.9-11.9-1.3l.2-2c4,.4,8,.9,11.9,1.3l-.2,2h0ZM1096.2,3799.5c-4-.4-7.9-.8-11.9-1.2l.2-2c4,.4,7.9.8,11.9,1.2l-.2,2ZM677.9,3799l-.4-2c3.8-.8,7.8-1.6,11.8-2.3l.4,2c-4,.7-7.9,1.5-11.8,2.3h0ZM1072.4,3797.1c-4-.4-7.9-.8-11.9-1.2l.2-2c4,.4,8,.8,11.9,1.2l-.2,2ZM1048.5,3794.8c-4-.4-8-.7-11.9-1.1l.2-2c4,.4,8,.7,11.9,1.1l-.2,2ZM701.4,3794.7l-.3-2c3.9-.6,7.9-1.2,11.9-1.8l.3,2c-4,.6-8,1.2-11.8,1.8h0ZM1621.6,3793.7l-1.4-1.4c2.9-2.7,5.7-5.6,8.3-8.6l1.5,1.3c-2.7,3-5.5,5.9-8.4,8.6h0ZM1024.6,3792.7c-4-.3-8-.7-12-1l.2-2c4,.3,8,.6,12,1l-.2,2ZM725.2,3791.3l-.2-2c3.9-.5,7.9-.9,11.9-1.4l.2,2c-4,.4-8,.9-11.9,1.4h0ZM1000.7,3790.7c-4-.3-8-.6-12-.9v-2c4.1.3,8.1.6,12.2.9l-.2,2h0ZM976.7,3789c-4-.3-8-.5-12-.8v-2c4.1.2,8.1.5,12.1.8v2ZM749,3788.8l-.2-2c3.9-.4,7.9-.7,12-1l.2,2c-4,.3-8.1.7-11.9,1h0ZM952.7,3787.6c-4-.2-8-.4-12-.6v-2c4.1.2,8.1.4,12.1.6v2ZM772.9,3786.9v-2c3.7-.3,7.8-.5,11.9-.7v2c-4,.2-8,.5-11.9.7ZM928.7,3786.3c-4-.2-8-.4-12-.5v-2c4.1.2,8.1.3,12.1.5v2ZM796.8,3785.6v-2c3.9-.2,7.9-.3,11.9-.4v2c-4,.1-7.9.3-11.9.4h0ZM904.8,3785.4c-4-.1-8-.2-12-.4v-2c4,.1,8,.2,12.1.4v2h0ZM820.8,3784.8v-2c3.9,0,7.9-.2,12-.2v2c-4,0-8,.1-12,.2h0ZM880.8,3784.8c-4,0-8-.1-12-.2v-2c4,0,8,.1,12,.2v2ZM844.8,3784.5v-2c4,0,8,0,12,0v2c-4,0-8,0-12,0ZM1637.8,3775.8l-1.6-1.2c2.4-3.1,4.8-6.4,7-9.7l1.7,1.1c-2.2,3.3-4.6,6.6-7.1,9.8h0ZM1651.2,3755.8l-1.7-1c1.9-3.4,3.8-7,5.5-10.6l1.8.9c-1.7,3.6-3.6,7.2-5.6,10.7h0ZM1661.6,3734.1l-1.9-.7c1.5-3.6,2.8-7.4,4.1-11.2l1.9.6c-1.2,3.8-2.6,7.6-4.1,11.3h0ZM1669.1,3711.2l-1.9-.5c1-3.8,1.9-7.7,2.7-11.6l2,.4c-.8,4-1.7,7.9-2.7,11.7h0ZM1673.8,3687.6l-2-.3c.6-3.9,1-7.9,1.4-11.9l2,.2c-.4,4-.8,8.1-1.4,12h0ZM1676.1,3663.6h-2c.2-4,.3-7.9.3-11.9h0c0-.1,2-.1,2-.1h0c0,4.1,0,8.1-.3,12h0ZM1674.1,3639.6c-.2-3.9-.4-7.9-.7-11.9l2-.2c.3,4,.6,8.1.7,12h-2c0,0,0,0,0,0ZM1672.2,3615.8c-.5-3.9-1-7.9-1.6-11.9l2-.3c.6,4,1.1,8,1.6,11.9l-2,.2h0ZM1668.6,3592.1c-.7-3.9-1.5-7.8-2.3-11.7l2-.4c.8,3.9,1.6,7.9,2.3,11.8l-2,.4h0ZM1663.6,3568.8c-.9-3.8-1.9-7.7-3-11.6l1.9-.5c1.1,3.9,2.1,7.8,3,11.6l-1.9.5h0ZM1657.3,3545.6c-1.1-3.8-2.3-7.6-3.6-11.4l1.9-.6c1.2,3.8,2.4,7.7,3.6,11.5l-1.9.6h0ZM1649.9,3522.9c-1.3-3.7-2.6-7.5-4-11.3l1.9-.7c1.4,3.8,2.8,7.6,4.1,11.3l-1.9.6ZM1641.7,3500.4c-1.4-3.6-2.9-7.4-4.5-11.1l1.8-.8c1.5,3.7,3.1,7.5,4.5,11.1l-1.9.7h0ZM1632.5,3478.2c-1.6-3.6-3.2-7.3-4.8-10.9l1.8-.8c1.7,3.7,3.3,7.4,4.9,11l-1.8.8ZM1622.6,3456.4c-1.7-3.6-3.4-7.2-5.2-10.8l1.8-.9c1.8,3.6,3.5,7.2,5.2,10.8l-1.8.9h0ZM1612.1,3434.9c-1.8-3.5-3.6-7.1-5.5-10.6l1.8-.9c1.9,3.6,3.7,7.1,5.5,10.7l-1.8.9h0ZM1601,3413.7c-1.9-3.5-3.8-7-5.8-10.5l1.8-1c1.9,3.5,3.9,7.1,5.8,10.5l-1.8.9h0ZM1589.3,3392.7c-2-3.4-4-6.9-6-10.4l1.7-1c2,3.5,4.1,7,6,10.4l-1.7,1h0ZM1577.1,3372.1c-2.1-3.4-4.1-6.8-6.2-10.2l1.7-1.1c2.1,3.4,4.2,6.9,6.3,10.2l-1.7,1ZM1564.5,3351.7c-2.1-3.4-4.3-6.7-6.4-10.1l1.7-1.1c2.2,3.4,4.3,6.8,6.5,10.1l-1.7,1.1h0ZM1551.5,3331.5c-2.2-3.3-4.4-6.6-6.6-10l1.7-1.1c2.2,3.4,4.5,6.7,6.7,10l-1.7,1.1ZM1538.2,3311.6c-2.2-3.3-4.5-6.6-6.8-9.9l1.6-1.1c2.3,3.3,4.6,6.6,6.8,9.9l-1.7,1.1h0ZM1524.5,3291.9c-2.3-3.2-4.6-6.5-7-9.8l1.6-1.2c2.4,3.3,4.7,6.5,7,9.8l-1.6,1.2ZM1510.4,3272.5c-2.3-3.2-4.7-6.4-7.1-9.6l1.6-1.2c2.4,3.2,4.8,6.5,7.1,9.7l-1.6,1.2ZM1496.2,3253.2c-2.4-3.2-4.8-6.4-7.3-9.6l1.6-1.2c2.4,3.2,4.9,6.4,7.3,9.6l-1.6,1.2h0ZM1481.6,3234.2c-2.4-3.1-4.9-6.3-7.4-9.4l1.6-1.2c2.5,3.2,4.9,6.3,7.4,9.5l-1.6,1.2ZM1466.7,3215.3c-2.5-3.1-5-6.2-7.5-9.4l1.6-1.3c2.5,3.1,5,6.2,7.5,9.4l-1.6,1.2h0ZM1451.7,3196.6c-2.5-3.1-5.1-6.2-7.6-9.3l1.5-1.3c2.6,3.1,5.1,6.2,7.6,9.3l-1.6,1.3ZM1436.4,3178.2c-2.6-3.1-5.1-6.1-7.7-9.2l1.5-1.3c2.6,3.1,5.2,6.1,7.7,9.2l-1.5,1.3h0ZM1420.9,3159.9c-2.6-3-5.2-6.1-7.8-9.1l1.5-1.3c2.6,3.1,5.2,6.1,7.8,9.1l-1.5,1.3h0ZM1405.2,3141.7c-2.6-3-5.2-6-7.9-9l1.5-1.3c2.7,3,5.3,6,7.9,9l-1.5,1.3h0ZM1389.3,3123.7c-2-2.3-4.1-4.6-6.1-6.8-.6-.7-1.3-1.4-1.9-2.1l1.5-1.4c.6.7,1.3,1.4,1.9,2.1,2.1,2.3,4.1,4.6,6.1,6.8l-1.5,1.3h0ZM1373.2,3106c-2.8-2.9-5.6-5.7-8.4-8.5l1.4-1.4c2.8,2.8,5.7,5.6,8.5,8.5l-1.4,1.4ZM1356.1,3089.3c-2.9-2.7-5.9-5.4-8.9-7.9l1.3-1.5c3,2.6,6,5.3,9,8l-1.3,1.5h0ZM1338,3073.7c-3.1-2.5-6.3-5-9.4-7.4l1.2-1.6c3.2,2.4,6.4,4.9,9.5,7.4l-1.3,1.6h0ZM1318.9,3059.3c-3.3-2.3-6.6-4.6-9.9-6.7l1.1-1.7c3.3,2.2,6.7,4.4,9.9,6.7l-1.2,1.6h0ZM1298.9,3046.3c-3.4-2.1-6.9-4.1-10.3-6l1-1.7c3.5,2,7,4,10.4,6.1l-1,1.7h0ZM1278.1,3034.5c-3.5-1.8-7.1-3.6-10.7-5.4l.9-1.8c3.6,1.8,7.2,3.6,10.7,5.4l-.9,1.8h0ZM1256.5,3024.2c-3.6-1.6-7.3-3.2-11-4.7l.8-1.9c3.7,1.5,7.4,3.1,11.1,4.7l-.8,1.8ZM1234.4,3015.1c-3.6-1.4-7.4-2.8-11.2-4.1l.7-1.9c3.8,1.3,7.6,2.7,11.3,4.1l-.7,1.9h0ZM1211.8,3007.2c-3.7-1.2-7.5-2.4-11.4-3.6l.6-1.9c3.9,1.2,7.8,2.4,11.5,3.6l-.6,1.9h0ZM1188.9,3000.2c-3.7-1-7.6-2.1-11.6-3.2l.5-1.9c4,1.1,7.9,2.1,11.6,3.2l-.5,1.9h0ZM1165.8,2994c-3.9-1-7.8-2-11.6-2.9l.5-1.9c3.9.9,7.7,1.9,11.7,2.9l-.5,1.9h0ZM1142.5,2988.2l-11.7-2.8.5-1.9,11.7,2.8-.5,1.9ZM1119.1,2982.6c-3.9-1-7.8-1.9-11.7-2.9l.5-1.9c3.8,1,7.7,2,11.6,2.9l-.5,1.9ZM1095.9,2976.6c-4.1-1.1-7.9-2.2-11.6-3.3l.6-1.9c3.7,1.1,7.4,2.1,11.5,3.3l-.5,1.9h0ZM1072.8,2969.7c-3.9-1.3-7.8-2.6-11.4-3.9l.7-1.9c3.6,1.3,7.4,2.6,11.3,3.9l-.6,1.9h0ZM1050.2,2961.5c-3.8-1.6-7.5-3.2-11-4.8l.8-1.8c3.5,1.6,7.2,3.2,10.9,4.8l-.8,1.9h0ZM1028.4,2951.3c-3.6-1.9-7.1-3.9-10.4-6l1.1-1.7c3.3,2,6.8,4,10.3,5.9l-.9,1.8h0ZM1008,2938.7c-3.3-2.3-6.5-4.8-9.5-7.3l1.3-1.5c3,2.5,6.2,4.9,9.4,7.2l-1.2,1.6h0ZM989.5,2923.4c-2.9-2.8-5.7-5.7-8.3-8.6l1.5-1.3c2.6,2.9,5.4,5.8,8.2,8.5l-1.4,1.4ZM973.4,2905.5c-2.4-3.1-4.8-6.4-7-9.7l1.7-1.1c2.2,3.3,4.6,6.5,6.9,9.6l-1.6,1.2h0ZM960,2885.6c-2-3.4-3.9-6.9-5.7-10.6l1.8-.9c1.8,3.6,3.7,7.1,5.7,10.4l-1.7,1h0ZM949.1,2864.1c-1.6-3.6-3.1-7.3-4.6-11.1l1.9-.7c1.4,3.8,3,7.5,4.6,11l-1.8.8h0ZM940.5,2841.8c-1.2-3.7-2.5-7.6-3.6-11.4l1.9-.6c1.1,3.9,2.3,7.7,3.6,11.4l-1.9.6h0ZM933.7,2818.7c-1-3.8-1.9-7.7-2.8-11.7l1.9-.4c.9,3.9,1.8,7.8,2.8,11.6l-1.9.5h0ZM928.4,2795.3c-.7-3.8-1.5-7.8-2.1-11.8l2-.3c.7,4,1.4,7.9,2.1,11.8l-2,.4h0ZM924.5,2771.6c-.6-3.9-1.1-7.9-1.6-11.9l2-.2c.5,4,1,8,1.6,11.9l-2,.3h0ZM921.6,2747.8c-.4-3.8-.8-7.6-1.1-11.5v-.4s1.9-.2,1.9-.2v.4c.4,3.9.7,7.7,1.1,11.5l-2,.2ZM919.8,2723.8c0-1.9,0-3.8,0-5.8s0-4.2,0-6.3h2c0,2.1,0,4.2,0,6.3s0,3.8,0,5.7h-2ZM922.5,2699.9l-2-.2c.3-3.9.8-8,1.3-11.9l2,.3c-.5,3.9-1,7.9-1.3,11.8h0ZM925.7,2676.3l-2-.4c.7-3.9,1.6-7.9,2.5-11.8l1.9.5c-.9,3.9-1.8,7.8-2.5,11.7h0ZM931.3,2653.1l-1.9-.6c1.1-3.8,2.3-7.6,3.6-11.5l1.9.6c-1.3,3.8-2.5,7.6-3.6,11.4h0ZM939,2630.5l-1.9-.7c1.4-3.7,2.9-7.4,4.6-11.1l1.8.8c-1.6,3.7-3.1,7.4-4.5,11.1h0ZM948.4,2608.6l-1.8-.9c1.7-3.6,3.5-7.2,5.3-10.8l1.8.9c-1.8,3.6-3.6,7.2-5.3,10.7h0ZM959.4,2587.3l-1.8-1c1.9-3.4,3.9-6.9,6-10.4l1.7,1c-2.1,3.4-4.1,6.9-6,10.4h0ZM971.7,2566.7l-1.7-1.1c2.1-3.3,4.3-6.7,6.6-10.1l1.7,1.1c-2.2,3.4-4.4,6.7-6.5,10h0ZM985,2546.8l-1.6-1.1c2.3-3.2,4.6-6.5,7-9.8l1.6,1.2c-2.4,3.2-4.7,6.5-7,9.7ZM999.2,2527.5l-1.6-1.2c2.4-3.1,4.9-6.3,7.4-9.5l1.6,1.2c-2.5,3.2-5,6.3-7.4,9.4h0ZM1014.1,2508.7l-1.5-1.3c2.5-3,5.1-6.1,7.7-9.2l1.5,1.3c-2.6,3.1-5.2,6.2-7.7,9.2ZM1029.6,2490.5l-1.5-1.3c2.6-2.9,5.3-6,8-9l1.5,1.3c-2.7,3-5.4,6-8,9ZM1045.7,2472.6l-1.5-1.4c2.7-2.9,5.4-5.9,8.2-8.8l1.4,1.4c-2.8,2.9-5.5,5.9-8.2,8.8h0ZM1062.1,2455.2l-1.4-1.4c2.8-2.9,5.6-5.8,8.4-8.6l1.4,1.4c-2.8,2.9-5.6,5.7-8.4,8.6h0ZM1079,2438.1l-1.4-1.4c2.8-2.8,5.7-5.6,8.5-8.4l1.4,1.4c-2.9,2.8-5.7,5.6-8.5,8.4ZM1096.1,2421.3l-1.4-1.4c2.9-2.8,5.8-5.6,8.7-8.3l1.4,1.4c-2.9,2.8-5.8,5.6-8.7,8.3h0ZM1113.5,2404.7l-1.4-1.5c2.9-2.8,5.8-5.5,8.8-8.2l1.4,1.5c-2.9,2.7-5.8,5.5-8.8,8.2h0ZM1131.1,2388.3l-1.4-1.5c2.9-2.7,5.9-5.4,8.8-8.1l1.3,1.5c-2.9,2.7-5.9,5.4-8.8,8.1h0ZM1148.7,2372.1l-1.3-1.5c3-2.7,5.9-5.4,8.9-8.1l1.3,1.5c-3,2.7-5.9,5.4-8.9,8.1h0ZM1166.5,2355.9l-1.3-1.5c3-2.7,5.9-5.4,8.9-8.1l1.3,1.5c-3,2.7-5.9,5.4-8.9,8.1ZM1241.7,2342.8v-2c4,0,8,0,12-.2v2c-3.9.1-8,.2-12,.2ZM1229.7,2342.8c-4,0-8.1-.1-12-.2v-2c4,.1,8,.2,12,.2v2h0ZM1265.8,2342.2v-2c3.9-.2,7.9-.4,11.9-.6v2c-3.9.2-7.9.4-11.9.6h0ZM1205.7,2342c-4-.2-8.1-.4-12-.7v-2c4.1.3,8.1.5,12.1.7v2c0,0,0,0,0,0ZM1289.8,2340.8l-.2-2c4-.3,8-.6,11.9-1l.2,2c-3.9.4-8,.7-12,1ZM1181.7,2340.3c-4-.4-8-.8-12-1.3l.2-2c3.9.5,7.9.9,11.9,1.3l-.2,2h0ZM1184.3,2339.8l-1.3-1.5,8.9-8.1,1.3,1.5-8.9,8.1ZM1313.7,2338.6l-.2-2c3.9-.4,7.9-.9,11.9-1.3l.2,2c-4,.5-8,.9-11.9,1.3h0ZM1157.8,2337.4c-4-.6-8-1.2-11.9-1.9l.3-2c3.9.7,7.8,1.3,11.8,1.9l-.3,2h0ZM1337.6,2335.8l-.3-2c3.9-.5,7.9-1.1,11.9-1.7l.3,2c-4,.6-8,1.2-11.9,1.7h0ZM1134.1,2333.4c-4-.8-7.9-1.6-11.8-2.6l.4-1.9c3.8.9,7.8,1.7,11.7,2.5l-.4,2h0ZM1361.3,2332.2l-.3-2c3.9-.6,7.9-1.3,11.8-2l.3,2c-3.9.7-7.9,1.4-11.8,2ZM1385,2328l-.4-2c4-.8,8-1.6,11.8-2.4l.4,2c-3.8.8-7.8,1.6-11.8,2.4h0ZM1110.7,2327.9c-3.9-1-7.8-2.1-11.6-3.3l.6-1.9c3.8,1.1,7.6,2.2,11.5,3.3l-.5,1.9h0ZM1202.1,2323.7l-1.3-1.5c3-2.7,5.9-5.4,8.9-8.1l1.3,1.5c-2.9,2.7-5.9,5.4-8.9,8.1h0ZM1408.5,2322.9l-.5-1.9c3.9-.9,7.8-1.9,11.6-2.9l.5,1.9c-3.9,1-7.8,1.9-11.7,2.9h0ZM1087.7,2320.9c-3.8-1.3-7.6-2.7-11.3-4.1l.7-1.9c3.7,1.4,7.5,2.8,11.2,4.1l-.7,1.9h0ZM1431.8,2317l-.5-1.9c3.8-1,7.7-2.1,11.5-3.2l.6,1.9c-3.9,1.1-7.8,2.2-11.6,3.2h0ZM1065.2,2312.2c-.8-.4-1.7-.7-2.5-1.1-2.8-1.3-5.7-2.6-8.5-4l.9-1.8c2.7,1.4,5.6,2.7,8.4,4,.8.4,1.6.7,2.4,1.1l-.8,1.8h0ZM1455,2310.3l-.6-1.9c3.8-1.2,7.7-2.4,11.5-3.6l.6,1.9c-3.8,1.2-7.7,2.5-11.5,3.6ZM1219.9,2307.5l-1.3-1.5c3-2.7,5.9-5.4,8.8-8.1l1.4,1.5c-2.9,2.7-5.9,5.4-8.8,8.1h0ZM1477.9,2302.8l-.7-1.9c3.8-1.3,7.6-2.6,11.3-4l.7,1.9c-3.8,1.4-7.6,2.7-11.3,4ZM1043.7,2301.4c-3.5-2-6.9-4.1-10.3-6.3l1.1-1.7c3.3,2.2,6.7,4.3,10.2,6.2l-1,1.7h0ZM1500.5,2294.7l-.7-1.9c3.7-1.4,7.5-2.9,11.2-4.3l.7,1.9c-3.7,1.5-7.5,2.9-11.2,4.4h0ZM1237.5,2291.2l-1.4-1.5c2.9-2.8,5.9-5.5,8.8-8.2l1.4,1.4c-2.9,2.7-5.8,5.5-8.8,8.2h0ZM1023.5,2288.2c-3.2-2.4-6.4-4.9-9.4-7.5l1.3-1.5c3,2.6,6.1,5.1,9.3,7.4l-1.2,1.6ZM1522.8,2285.8l-.8-1.9c3.7-1.5,7.4-3.1,11-4.7l.8,1.8c-3.6,1.6-7.3,3.2-11.1,4.7h0ZM1544.9,2276.2l-.8-1.8c3.6-1.6,7.3-3.3,10.8-5l.9,1.8c-3.6,1.7-7.2,3.4-10.9,5ZM1255,2274.7l-1.4-1.4c2.9-2.8,5.8-5.6,8.6-8.4l1.4,1.4c-2.8,2.8-5.7,5.6-8.6,8.4h0ZM1005.2,2272.5c-2.9-2.8-5.7-5.7-8.4-8.7l1.5-1.3c2.7,2.9,5.4,5.8,8.3,8.6l-1.4,1.4h0ZM1566.6,2265.9l-.9-1.8c3.6-1.8,7.2-3.6,10.7-5.4l.9,1.8c-3.5,1.8-7.2,3.6-10.7,5.4ZM1272.2,2257.9l-1.4-1.4c2.9-2.9,5.7-5.8,8.4-8.6l1.4,1.4c-2.7,2.8-5.5,5.7-8.4,8.6h0ZM1587.9,2254.9l-.9-1.8c3.5-1.9,7.1-3.8,10.5-5.8l1,1.8c-3.5,1.9-7,3.9-10.5,5.8h0ZM989,2254.6c-2.5-3.1-4.9-6.4-7.2-9.7l1.7-1.1c2.2,3.3,4.6,6.5,7.1,9.6l-1.6,1.2h0ZM1608.9,2243.2l-1-1.7c3.4-2,6.9-4.1,10.3-6.1l1,1.7c-3.4,2.1-6.9,4.1-10.3,6.1h0ZM1288.9,2240.6l-1.5-1.4c2.8-3,5.5-6,8.1-8.8l1.5,1.3c-2.6,2.9-5.3,5.9-8.2,8.9h0ZM975.4,2234.8c-2-3.4-4-7-5.8-10.6l1.8-.9c1.8,3.5,3.7,7.1,5.8,10.4l-1.7,1h0ZM1629.4,2230.7l-1.1-1.7c3.4-2.2,6.8-4.4,10.1-6.5l1.1,1.7c-3.3,2.2-6.7,4.4-10.1,6.6h0ZM1305,2222.7l-1.5-1.3c2.7-3.1,5.3-6.2,7.7-9.2l1.6,1.3c-2.4,3-5.1,6.1-7.7,9.2h0ZM1649.5,2217.4l-1.1-1.6c3.3-2.3,6.6-4.6,9.8-6.9l1.2,1.6c-3.2,2.3-6.5,4.7-9.8,7h0ZM964.4,2213.3c-1.6-3.6-3.1-7.4-4.4-11.2l1.9-.7c1.3,3.8,2.8,7.5,4.4,11.1l-1.8.8h0ZM1320.2,2204l-1.6-1.2c2.5-3.3,4.9-6.5,7.1-9.6l1.6,1.1c-2.2,3.2-4.6,6.4-7.1,9.7h0ZM1668.9,2203.2l-1.2-1.6c3.2-2.4,6.4-4.9,9.4-7.4l1.2,1.6c-3.1,2.5-6.3,5-9.5,7.4h0ZM956.2,2190.6c-.6-2-1.2-4.1-1.7-6.2-.5-1.9-.9-3.7-1.2-5.6l2-.4c.3,1.8.7,3.6,1.2,5.4.5,2,1.1,4.1,1.7,6.1l-1.9.6h0ZM1687.7,2188.2l-1.3-1.5c3.1-2.6,6.1-5.2,9.1-7.8l1.3,1.5c-2.9,2.6-6,5.3-9.1,7.9h0ZM1334,2184.3l-1.7-1.1c2.2-3.5,4.2-6.9,6.1-10.3l1.8,1c-1.9,3.4-3.9,6.9-6.2,10.4h0ZM1705.7,2172.2l-1.4-1.5c2.9-2.8,5.8-5.6,8.6-8.4l1.4,1.4c-2.8,2.8-5.7,5.6-8.6,8.4h0ZM954.3,2166.8h-2c0-4.1.6-8.1,1.4-12.1l2,.4c-.8,3.9-1.3,7.8-1.4,11.7h0ZM1345.6,2163.2l-1.8-.8c1.7-3.7,3.2-7.4,4.4-11l1.9.7c-1.3,3.6-2.8,7.4-4.5,11.2h0ZM1722.7,2155.1l-1.5-1.4c2.7-2.9,5.4-5.9,8-8.9l1.5,1.3c-2.6,3-5.3,6-8.1,8.9ZM959.2,2143.8l-1.8-.8c1.5-3.6,3.3-7.2,5.4-10.9l1.7,1c-2.1,3.5-3.8,7.1-5.3,10.6h0ZM1353.4,2140.4l-1.9-.4c.9-3.9,1.4-7.9,1.7-11.6h2c-.3,4-.9,8-1.8,12.1ZM1738.4,2136.9l-1.6-1.2c2.5-3.1,4.9-6.3,7.3-9.5l1.6,1.2c-2.3,3.2-4.8,6.4-7.3,9.6ZM971.1,2123.4l-1.6-1.2c2.3-3.1,4.9-6.2,7.7-9.3l1.5,1.3c-2.8,3.1-5.3,6.1-7.6,9.2h0ZM1752.6,2117.5l-1.7-1.1c2.2-3.4,4.4-6.8,6.3-10.1l1.7,1c-2,3.4-4.1,6.8-6.4,10.2h0ZM1353.1,2116.5c-.4-3.9-1.1-7.8-2.2-11.6l1.9-.6c1.1,3.9,1.9,7.9,2.2,11.9l-2,.2h0ZM987,2105.7l-1.4-1.4c2.8-2.7,5.8-5.4,8.9-8.1l1.3,1.5c-3.1,2.7-6.1,5.4-8.8,8.1h0ZM1764.8,2096.7l-1.8-.9c1.8-3.6,3.6-7.2,5.1-10.8l1.8.8c-1.6,3.6-3.3,7.3-5.2,10.9h0ZM1346.7,2093.9c-1.4-2.9-3.1-5.8-4.9-8.6-.4-.6-.7-1.1-1.1-1.6l1.7-1.1c.4.6.8,1.1,1.1,1.7,1.9,2.9,3.6,5.8,5,8.8l-1.8.9h0ZM1005.1,2090l-1.2-1.6c3-2.4,6.1-4.8,9.5-7.4l1.2,1.6c-3.4,2.6-6.5,4.9-9.5,7.3ZM1024.2,2075.5l-1.2-1.6c3-2.1,6.2-4.4,9.8-6.9l1.2,1.6c-3.6,2.5-6.8,4.8-9.8,6.9h0ZM1774.5,2074.6l-1.9-.7c1.4-3.8,2.6-7.6,3.6-11.4l1.9.5c-1.1,3.8-2.3,7.7-3.6,11.5h0ZM1333.5,2074.2c-2.5-3-5.1-6.1-7.9-8.9l1.4-1.4c2.8,2.9,5.5,6,8,9.1l-1.6,1.3h0ZM1043.9,2061.8l-1.1-1.6.8-.6c3.1-2.1,6.1-4.2,9-6.3l1.1,1.6c-3,2.1-6,4.1-9.1,6.3l-.8.6h0ZM1317.1,2056.9c-2.9-2.6-6-5.2-9.2-7.7l1.2-1.6c3.2,2.5,6.3,5.1,9.3,7.7l-1.3,1.5ZM1780.8,2051.4l-2-.4c.7-3.6,1.2-7.3,1.6-10.9v-.8c0,0,2.1.2,2.1.2v.8c-.5,3.7-1,7.4-1.7,11.1h0ZM1063.6,2048l-1.2-1.6c2.5-1.8,4.7-3.4,6.8-5,.9-.7,1.9-1.4,2.8-2.1l1.2,1.6c-.9.7-1.9,1.4-2.8,2.1-2.1,1.6-4.4,3.2-6.9,5h0ZM1298.3,2042.3c-3.2-2.2-6.7-4.3-10.1-6.4l1-1.7c3.5,2.1,6.9,4.2,10.2,6.4l-1.1,1.7h0ZM1083.2,2034.2l-1.1-1.7c3.4-2.1,6.9-4.1,10.5-6l.9,1.8c-3.5,1.8-7,3.8-10.4,5.9h0ZM1277.7,2030.2c-3.5-1.8-7.2-3.5-10.8-5.1l.8-1.8c3.7,1.6,7.4,3.3,10.9,5.1l-.9,1.8h0ZM1783.8,2027.5l-2-.2c.4-4,.8-7.9,1.2-11.9l2,.2c-.4,4-.8,8-1.2,11.9ZM1104.3,2023.2l-.8-1.8c3.7-1.6,7.4-3.1,11.2-4.5l.7,1.9c-3.8,1.4-7.5,2.8-11.1,4.4h0ZM1255.8,2020.7c-3.7-1.4-7.5-2.7-11.3-3.8l.6-1.9c3.8,1.2,7.7,2.5,11.4,3.8l-.7,1.9h0ZM1126.7,2015l-.6-1.9c3.8-1.1,7.8-2.1,11.7-3l.4,1.9c-3.9.9-7.8,1.8-11.6,2.9h0ZM1233,2013.7c-3.9-.9-7.8-1.8-11.7-2.5l.4-2c3.9.7,7.9,1.6,11.8,2.6l-.5,1.9h0ZM1150,2009.9l-.3-2c3.9-.6,8-1.1,12-1.5l.2,2c-4,.4-7.9.9-11.8,1.5h0ZM1209.5,2009.3c-3.9-.5-7.9-.9-11.9-1.2l.2-2c4,.3,8,.7,12,1.2l-.3,2ZM1173.8,2007.6v-2c3.9-.2,8-.2,12-.1v2c-4,0-8,0-12,.1h0ZM1786,2003.6l-2-.2c.3-4.1.6-8.1.9-11.9h2c-.3,4-.6,8-.9,12.1h0ZM1787.6,1979.6h-2c.2-4.2.4-8.2.5-12.1h2c-.1,3.9-.3,8-.5,12.1ZM1788.4,1955.6h-2c0-1.9,0-3.8,0-5.6s0-4.2,0-6.4h2c0,2.1,0,4.2,0,6.4s0,3.7,0,5.6h0ZM1786.1,1931.6c-.2-4-.4-8.1-.7-12h2c.3,3.8.5,7.8.7,11.9h-2ZM1784.4,1907.7c-.4-4-.9-8-1.5-11.9l2-.3c.6,3.9,1.1,7.9,1.5,12l-2,.2h0ZM1780.9,1884c-.7-3.9-1.5-7.9-2.4-11.7l1.9-.4c.9,3.9,1.7,7.8,2.4,11.8l-2,.4h0ZM1775.7,1860.7c-1.1-3.8-2.2-7.7-3.4-11.4l1.9-.6c1.2,3.8,2.4,7.7,3.4,11.5l-1.9.5h0ZM1768.4,1838c-1.4-3.7-2.9-7.4-4.4-11.1l1.8-.8c1.6,3.7,3.1,7.4,4.5,11.2l-1.9.7ZM1759,1816.1c-1.7-3.6-3.6-7.1-5.5-10.6l1.8-1c1.9,3.5,3.8,7.1,5.5,10.7l-1.8.9h0ZM1747.5,1795.1c-2.1-3.4-4.2-6.8-6.4-10.1l1.7-1.1c2.2,3.3,4.4,6.7,6.5,10.1l-1.7,1h0ZM1734.2,1775.3c-2.3-3.2-4.8-6.3-7.3-9.4l1.6-1.3c2.5,3.1,5,6.3,7.4,9.5l-1.6,1.2h0ZM1719.2,1756.8c-2.6-2.9-5.3-5.9-8.1-8.8l1.4-1.4c2.8,2.9,5.5,5.9,8.1,8.9l-1.5,1.3h0ZM1702.7,1739.5c-2.8-2.7-5.8-5.5-8.7-8.2l1.3-1.5c3,2.7,5.9,5.5,8.8,8.2l-1.4,1.4ZM1685,1723.4c-3-2.5-6.1-5.1-9.2-7.6l1.2-1.6c3.2,2.5,6.3,5.1,9.3,7.6l-1.3,1.5h0ZM1666.2,1708.6c-3.2-2.3-6.4-4.7-9.7-7l1.2-1.6c3.3,2.3,6.6,4.7,9.7,7l-1.2,1.6h0ZM1646.7,1694.8c-3.3-2.2-6.7-4.3-10.1-6.5l1.1-1.7c3.4,2.1,6.8,4.3,10.1,6.5l-1.1,1.7h0ZM1626.4,1682.1c-3.4-2-6.9-4-10.3-6l1-1.7c3.5,2,7,4,10.4,6l-1,1.7h0ZM1605.6,1670.3c-3.5-1.9-7-3.7-10.6-5.6l.9-1.8c3.6,1.8,7.2,3.7,10.6,5.6l-.9,1.8h0ZM1584.3,1659.4c-3.5-1.7-7.2-3.5-10.8-5.2l.8-1.8c3.6,1.7,7.3,3.5,10.8,5.2l-.9,1.8h0ZM1562.6,1649.2c-3.6-1.6-7.3-3.2-11-4.8l.8-1.8c3.7,1.6,7.4,3.2,11,4.8l-.8,1.8h0ZM1540.6,1639.7c-3.6-1.5-7.4-3-11.1-4.5l.7-1.9c3.7,1.5,7.5,3,11.1,4.5l-.8,1.8ZM1518.3,1630.9c-3.7-1.4-7.4-2.8-11.2-4.2l.7-1.9c3.8,1.4,7.6,2.8,11.2,4.2l-.7,1.9ZM1495.8,1622.6c-3.7-1.3-7.5-2.6-11.3-3.9l.7-1.9c3.8,1.3,7.6,2.6,11.3,3.9l-.7,1.9h0ZM1473.2,1614.8c-3.8-1.2-7.6-2.5-11.4-3.7l.6-1.9c3.8,1.2,7.7,2.5,11.4,3.7l-.6,1.9ZM1450.3,1607.5c-3.8-1.2-7.6-2.3-11.5-3.5l.6-1.9c3.9,1.2,7.7,2.3,11.5,3.5l-.6,1.9h0ZM1427.4,1600.7c-3.8-1.1-7.7-2.2-11.5-3.3l.5-1.9c3.9,1.1,7.7,2.2,11.6,3.3l-.6,1.9h0ZM1404.3,1594.2c-3.8-1-7.7-2.1-11.6-3.1l.5-1.9c3.9,1,7.8,2.1,11.6,3.1l-.5,1.9h0ZM1381.1,1588.2c-3.8-1-7.7-1.9-11.6-2.9l.5-1.9c3.9,1,7.8,1.9,11.7,2.9l-.5,1.9h0ZM1357.8,1582.4c-3.9-.9-7.8-1.8-11.7-2.7l.4-1.9c3.9.9,7.8,1.8,11.7,2.8l-.5,1.9h0ZM1334.4,1577c-3.9-.9-7.8-1.7-11.7-2.6l.4-2c3.9.9,7.8,1.7,11.7,2.6l-.4,1.9h0ZM1311,1571.9c-3.9-.8-7.8-1.6-11.7-2.4l.4-2c3.9.8,7.9,1.6,11.8,2.4l-.4,2ZM1287.5,1567.1c-3.9-.8-7.8-1.6-11.8-2.3l.4-2c4,.8,7.9,1.5,11.8,2.3l-.4,2ZM1264,1562.5c-3.9-.7-7.8-1.5-11.8-2.2l.4-2c4,.7,7.9,1.5,11.8,2.2l-.4,2ZM1240.4,1558.2c-3.9-.7-7.8-1.4-11.8-2.1l.3-2c4,.7,7.9,1.4,11.8,2.1l-.3,2h0ZM1216.8,1554.1c-3.7-.6-7.7-1.1-11.9-1.6l.2-2c4.2.5,8.2,1,11.9,1.6l-.3,2ZM727.1,1552.2h-2.1v-2h12v2c-3.3,0-6.6,0-9.9,0h0ZM713,1552.2c-4,0-8,0-12,0v-2c4,0,8,0,12,0v2ZM749,1552.2v-2c4,0,8,0,12,0v2c-4,0-8,0-12,0ZM689,1552.1c-4,0-8,0-12-.1v-2c4,0,8,0,12,.1v2ZM773,1552v-2c4,0,8,0,12-.1v2c-4,0-8,0-12,.1h0ZM665,1551.8c-4,0-8-.1-12-.2v-2c4,0,8,.1,12,.2v2s0,0,0,0ZM797.1,1551.8v-2c4,0,8,0,12-.2v2c-4,0-8,.1-12,.2h0ZM821.1,1551.4v-2c4,0,8-.1,12-.2v2c-4,0-8,.1-12,.2h0ZM641,1551.3c-4,0-8-.2-12-.3v-2c4,0,8,.2,12,.3v2h0ZM1193,1551.3c-3.8-.4-7.8-.7-11.9-1l.2-2c4.1.3,8.2.7,12,1l-.2,2h0ZM845.2,1551v-2c4,0,8-.1,12-.2v2c-4,0-8,.2-12,.2h0ZM617,1550.7c-4-.1-8-.2-12-.4v-2c4,.1,8,.3,12,.4v2ZM869.2,1550.6v-2c4,0,8-.2,12-.2v2c-3.9,0-7.9.2-12,.2ZM893.2,1550.1v-2s12-.2,12-.2v2s-12,.2-12,.2ZM593.1,1549.9c-4-.2-8-.3-12-.5v-2c4.1.2,8.1.3,12.1.5v2ZM917.2,1549.6v-2s12-.2,12-.2v2s-12,.2-12,.2ZM1169.1,1549.5c-3.8-.2-7.9-.4-12-.6v-2c4.2.2,8.3.4,12.1.6v2h-.1ZM941.2,1549.1v-2s12-.2,12-.2v2s-12,.2-12,.2ZM569.1,1548.8c-4-.2-8-.4-12-.6v-2c4.1.2,8.1.4,12.1.6v2ZM965.2,1548.6v-2c4,0,8-.2,12-.2v2c-3.9,0-7.9.2-12,.2ZM1145.1,1548.3c-3.9-.1-7.9-.3-12-.4v-2c4.1.1,8.1.2,12.1.4v2h0ZM989.2,1548.2v-2c4,0,8-.1,12-.2v2c-3.9,0-7.9.1-12,.2h0ZM1013.2,1547.8v-2c4,0,8-.1,12-.2v2c-3.9,0-7.9.1-12,.2ZM1121.2,1547.7c-3.9,0-7.9-.2-12-.2v-2c4.1,0,8.1.1,12,.2v2h0ZM545.1,1547.5c-4-.2-8-.5-12-.8v-2c4.1.3,8.1.5,12.1.8v2c-.1,0-.1,0-.1,0ZM1037.2,1547.5v-2c4,0,8,0,12-.1v2c-3.9,0-7.9,0-12,.1ZM1097.2,1547.3c-3.9,0-7.9,0-12,0v-2c4.1,0,8.1,0,12,0v2s0,0,0,0ZM1061.2,1547.3v-2c4,0,8,0,12,0v2c-4,0-8,0-12,0ZM521.2,1546c-4-.3-8-.6-12-.9l.2-2c4,.3,8,.6,12,.9v2ZM497.2,1544.1c-4-.3-8-.7-12-1.1l.2-2c4,.4,8,.7,12,1.1l-.2,2ZM473.3,1541.9c-4-.4-8-.8-12-1.2l.2-2c4,.4,7.9.8,11.9,1.2l-.2,2h0ZM449.4,1539.3c-4-.5-8-.9-11.9-1.4l.2-2c4,.5,7.9,1,11.9,1.4l-.2,2h0ZM425.6,1536.3c-4-.5-8-1.1-11.9-1.7l.3-2c3.9.6,7.9,1.1,11.9,1.7l-.3,2h0ZM401.8,1532.9c-4-.6-8-1.3-11.9-1.9l.3-2c3.9.7,7.8,1.3,11.8,1.9l-.3,2h0ZM378.1,1528.8c-4-.7-8-1.5-11.8-2.2l.4-2c3.8.8,7.8,1.5,11.8,2.2l-.4,2h0ZM354.5,1524.2c-4-.8-7.9-1.7-11.7-2.6l.4-1.9c3.8.9,7.7,1.7,11.7,2.6l-.4,2h0ZM331.1,1518.9c-3.9-1-7.8-2-11.7-3l.5-1.9c3.8,1,7.7,2,11.6,3l-.5,1.9h0ZM307.8,1512.7c-3.9-1.1-7.8-2.3-11.5-3.4l.6-1.9c3.7,1.2,7.6,2.3,11.5,3.4l-.5,1.9ZM284.9,1505.6c-3.9-1.3-7.7-2.6-11.3-4l.7-1.9c3.7,1.3,7.5,2.7,11.3,3.9l-.6,1.9h0ZM262.2,1497.4c-3.8-1.5-7.5-3.1-11.1-4.6l.8-1.8c3.6,1.6,7.3,3.1,11,4.6l-.7,1.9h0ZM240.2,1487.8c-3.7-1.8-7.3-3.6-10.8-5.4l.9-1.8c3.5,1.8,7,3.6,10.7,5.3l-.9,1.8ZM218.9,1476.6c-3.5-2.1-7-4.2-10.3-6.3l1.1-1.7c3.3,2.1,6.7,4.2,10.2,6.2l-1,1.7h0ZM198.7,1463.5c-3.3-2.4-6.5-4.9-9.5-7.4l1.3-1.5c3,2.5,6.2,4.9,9.4,7.3l-1.2,1.6h0ZM180.1,1448.2c-3-2.8-5.8-5.7-8.5-8.6l1.5-1.3c2.6,2.9,5.4,5.7,8.4,8.5l-1.4,1.5h0ZM163.9,1430.4c-2.5-3.2-4.8-6.5-7-9.8l1.7-1.1c2.1,3.3,4.4,6.5,6.9,9.7l-1.6,1.2h0ZM150.7,1410.2c-2-3.4-3.9-7-5.8-10.5l1.8-.9c1.9,3.6,3.9,7.1,5.8,10.5l-1.7,1h0ZM139.3,1389c-1.8-3.6-3.6-7.2-5.3-10.8l1.8-.8c1.7,3.6,3.5,7.2,5.2,10.8l-1.8.9h0ZM129.1,1367.2c-1.6-3.7-3.2-7.4-4.7-11.1l1.9-.8c1.5,3.6,3,7.3,4.7,11l-1.8.8h0ZM120,1344.9c-1.4-3.8-2.8-7.6-4-11.3l1.9-.6c1.2,3.7,2.6,7.5,4,11.3l-1.9.7h0ZM112.4,1322c-1.1-3.9-2.2-7.8-3.2-11.6l1.9-.5c1,3.8,2,7.7,3.2,11.5l-1.9.6h0ZM106.5,1298.7c-.8-4-1.6-8-2.2-11.8l2-.3c.6,3.8,1.3,7.8,2.2,11.8l-2,.4h0ZM102.8,1274.9c-.4-4.1-.7-8.1-.9-12h2c.2,3.8.5,7.8.9,11.8l-2,.2h0ZM103.8,1250.8h-2c.1-4.1.4-8.2.8-12.1l2,.2c-.4,3.9-.7,7.9-.8,11.9h0ZM106.3,1227.2l-2-.4c.8-4,1.8-8,2.9-11.7l1.9.6c-1.1,3.7-2.1,7.6-2.8,11.6h0ZM113.1,1204.4l-1.9-.8c1.6-3.7,3.3-7.4,5.3-10.9l1.8,1c-1.9,3.4-3.6,7-5.2,10.7h0ZM124.6,1183.6l-1.6-1.2c2.3-3.3,4.8-6.5,7.4-9.5l1.5,1.3c-2.6,2.9-5,6.1-7.3,9.3h0ZM140.2,1165.8l-1.4-1.5c2.9-2.7,6-5.3,9.2-7.8l1.2,1.6c-3.2,2.4-6.2,5-9.1,7.6h0ZM159,1151.4l-1.1-1.7c3.3-2.1,6.8-4.1,10.4-6l.9,1.8c-3.6,1.9-7.1,3.9-10.3,6h0ZM180,1140.2l-.8-1.8c3.5-1.6,7.2-3.2,11.1-4.7l.7,1.9c-3.8,1.5-7.5,3.1-11,4.7h0ZM202.2,1131.3l-.7-1.9c3.6-1.3,7.5-2.6,11.4-3.8l.6,1.9c-3.9,1.2-7.7,2.5-11.3,3.8h0ZM224.9,1124l-.6-1.9c3.7-1.1,7.6-2.2,11.6-3.2l.5,1.9c-4,1.1-7.8,2.2-11.5,3.2h0ZM248,1117.8l-.5-1.9c3.8-1,7.7-1.9,11.7-2.9l.5,1.9c-4,1-7.8,1.9-11.6,2.9ZM271.3,1112.1l-.5-1.9c3.8-.9,7.7-1.8,11.7-2.7l.4,1.9c-4,.9-7.9,1.8-11.7,2.7h0ZM294.7,1106.8l-.4-1.9c3.8-.9,7.7-1.7,11.7-2.6l.4,1.9c-4,.9-7.9,1.7-11.7,2.6h0ZM318.2,1101.6l-.4-1.9,11.7-2.6.4,1.9-11.7,2.6ZM341.6,1096.5l-.4-1.9c3.8-.8,7.8-1.7,11.7-2.6l.4,1.9c-4,.9-7.9,1.7-11.7,2.6ZM365,1091.4l-.4-1.9c3.8-.9,7.8-1.7,11.7-2.6l.4,1.9c-4,.9-7.9,1.8-11.7,2.6h0ZM388.5,1086.1l-.4-1.9c3.8-.9,7.8-1.8,11.7-2.7l.5,1.9c-4,.9-7.8,1.8-11.7,2.7ZM411.8,1080.7l-.5-1.9c3.8-.9,7.7-1.8,11.7-2.8l.5,1.9c-3.9.9-7.8,1.9-11.7,2.8h0ZM435.2,1075.1l-.5-1.9c3.8-.9,7.7-1.9,11.7-2.8l.5,1.9c-3.9,1-7.8,1.9-11.7,2.9h0ZM458.5,1069.4l-.5-1.9c3.8-1,7.7-1.9,11.6-2.9l.5,1.9c-3.9,1-7.8,2-11.6,3h0ZM481.7,1063.4l-.5-1.9c3.8-1,7.7-2,11.6-3.1l.5,1.9c-3.9,1-7.8,2.1-11.6,3.1h0ZM504.9,1057.2l-.5-1.9,11.6-3.1.5,1.9-11.6,3.1ZM528.1,1051l-.5-1.9c3.9-1.1,7.8-2.1,11.6-3.1l.5,1.9c-3.8,1-7.7,2.1-11.6,3.1h0ZM551.3,1044.8l-.5-1.9c3.9-1.1,7.8-2.1,11.6-3.2l.5,1.9c-3.8,1.1-7.7,2.1-11.6,3.2h0ZM574.4,1038.4l-.5-1.9c3.9-1.1,7.7-2.2,11.5-3.3l.5,1.9c-3.8,1.1-7.7,2.2-11.5,3.3ZM597.5,1031.8l-.6-1.9c3.9-1.1,7.7-2.3,11.5-3.4l.6,1.9c-3.8,1.1-7.6,2.3-11.5,3.4h0ZM620.5,1024.9l-.6-1.9c3.8-1.2,7.7-2.4,11.4-3.6l.6,1.9c-3.8,1.2-7.6,2.4-11.5,3.6h0ZM643.4,1017.5l-.6-1.9c3.8-1.3,7.7-2.6,11.3-3.9l.7,1.9c-3.7,1.3-7.5,2.6-11.4,3.9h0ZM666,1009.5l-.7-1.9c3.8-1.4,7.6-2.8,11.2-4.3l.7,1.9c-3.6,1.4-7.4,2.9-11.2,4.3h0ZM688.4,1000.7l-.8-1.8c3.7-1.5,7.4-3.1,11-4.7l.8,1.8c-3.6,1.6-7.3,3.2-11,4.7h0ZM710.4,991l-.9-1.8c3.7-1.7,7.3-3.5,10.7-5.3l.9,1.8c-3.5,1.8-7.1,3.6-10.8,5.3h0ZM731.8,980l-1-1.8c3.5-1.9,7-3.9,10.4-6l1,1.7c-3.4,2-6.9,4-10.4,6h0ZM752.4,967.7l-1.1-1.7c3.4-2.2,6.7-4.4,9.9-6.7l1.2,1.6c-3.2,2.3-6.6,4.5-10,6.7h0ZM772,953.8l-1.2-1.6c3.2-2.4,6.3-5,9.3-7.5l1.3,1.5c-3,2.5-6.2,5.1-9.4,7.5h0ZM790.5,938.3l-1.3-1.5c2.9-2.7,5.8-5.5,8.6-8.3l1.4,1.4c-2.8,2.8-5.7,5.6-8.7,8.3h0ZM807.4,921.3l-1.5-1.3c2.7-2.9,5.3-6,7.8-9l1.5,1.3c-2.6,3.1-5.2,6.2-7.9,9.1h0ZM822.8,902.8l-1.6-1.2c.5-.7,1-1.3,1.5-2,1.9-2.5,3.8-5.1,5.6-7.7l1.6,1.2c-1.8,2.6-3.7,5.2-5.6,7.8-.5.7-1,1.3-1.5,2h0ZM836.6,883l-1.7-1.1c2.2-3.3,4.3-6.7,6.3-10.2l1.7,1c-2.1,3.4-4.2,6.9-6.4,10.2h0ZM849,862.4l-1.8-1c1.9-3.5,3.8-7,5.6-10.6l1.8.9c-1.8,3.6-3.7,7.1-5.7,10.6ZM859.9,841l-1.8-.8c1.7-3.6,3.3-7.2,4.9-10.9l1.8.8c-1.6,3.7-3.3,7.4-4.9,11h0ZM869.5,818.9l-1.9-.7c1.5-3.7,2.9-7.4,4.2-11.2l1.9.7c-1.4,3.8-2.8,7.6-4.3,11.2ZM877.7,796.3l-1.9-.6c1.2-3.8,2.5-7.6,3.6-11.4l1.9.6c-1.2,3.8-2.4,7.7-3.6,11.5h0ZM884.7,773.3l-1.9-.5c1-3.8,2.1-7.7,3-11.6l1.9.5c-.9,3.9-2,7.8-3,11.7h0ZM890.4,749.9l-1.9-.4c.8-3.9,1.7-7.8,2.4-11.7l2,.4c-.8,3.9-1.6,7.9-2.4,11.8h0ZM894.9,726.3l-2-.3c.7-3.9,1.3-7.9,1.9-11.8l2,.3c-.6,4-1.2,8-1.9,11.9h0ZM898.4,702.5l-2-.2c.5-3.9.9-7.9,1.3-11.9l2,.2c-.4,4-.9,8-1.4,12h0ZM900.9,678.6l-2-.2c.3-4,.6-8,.9-12h2c-.2,4.1-.5,8.2-.9,12.1ZM902.4,654.6h-2c.2-4,.3-8.1.4-12.1h2c0,4.1-.2,8.1-.4,12.1ZM903,630.5h-2v-3.6c0-2.8,0-5.6,0-8.4h2c0,2.7,0,5.5,0,8.4v3.6h0ZM900.7,606.6c-.1-4-.3-8-.5-12h2c.2,3.9.3,7.9.5,11.9h-2q0,0,0,0ZM899.5,582.6c-.3-4-.6-8-.9-12l2-.2c.3,4,.6,8,.9,12h-2ZM897.5,558.8c-.4-4-.9-8-1.3-11.9l2-.2c.5,3.9.9,8,1.3,12l-2,.2h0ZM894.6,535v-.6c-.6-3.7-1.2-7.5-1.8-11.2l2-.3c.6,3.8,1.2,7.5,1.7,11.3v.6c0,0-1.9.3-1.9.3h0ZM890.8,511.3c-.7-3.9-1.4-7.8-2.2-11.8l2-.4c.8,4,1.6,7.9,2.2,11.8l-2,.4h0ZM886.1,487.8c-.8-3.8-1.7-7.7-2.7-11.7l1.9-.5c.9,4,1.8,7.9,2.7,11.7l-1.9.4ZM880.6,464.5c-.9-3.7-1.9-7.6-3-11.6l1.9-.5c1.1,4,2.1,7.9,3,11.6l-1.9.5h0ZM874.5,441.3c-1.1-3.9-2.1-7.7-3.2-11.6l1.9-.5c1.1,3.8,2.1,7.7,3.2,11.6l-1.9.5ZM868.1,418.2l-3.3-11.5,1.9-.5,3.3,11.5-1.9.5ZM861.5,395.1c-1.1-3.9-2.2-7.8-3.2-11.6l1.9-.5c1,3.8,2.1,7.7,3.2,11.6l-1.9.5h0ZM855.2,371.9c-1-4-2-8-2.9-11.7l1.9-.5c.9,3.7,1.8,7.6,2.9,11.6l-1.9.5h0ZM849.7,348.5c-.9-4-1.7-8-2.3-11.8l2-.4c.7,3.8,1.5,7.7,2.3,11.7l-2,.4h0ZM845.3,324.9c-.6-4-1.1-8.1-1.5-11.9l2-.2c.4,3.9.9,7.8,1.5,11.9l-2,.3ZM842.9,300.9c-.2-4.1-.3-8.1-.3-12h2c0,3.9.1,7.9.3,11.9h-2ZM844.9,277h-2c.2-4.1.6-8.2,1.1-12.1l2,.2c-.5,3.9-.8,7.9-1.1,11.9h0ZM847.8,253.3l-2-.4c.8-3.9,1.6-7.9,2.7-11.8l1.9.5c-1,3.8-1.9,7.8-2.6,11.6h0ZM853.8,230.2l-1.9-.6c1.2-3.8,2.6-7.6,4.1-11.3l1.9.7c-1.5,3.7-2.9,7.5-4.1,11.2h0ZM862.7,208l-1.8-.9c1.7-3.6,3.5-7.2,5.4-10.8l1.8.9c-1.9,3.5-3.7,7.1-5.4,10.6h0ZM874,187.1l-1.7-1.1c2.1-3.4,4.3-6.8,6.7-10.1l1.6,1.1c-2.3,3.2-4.5,6.6-6.6,10h0ZM887.8,167.5l-1.6-1.2c2.4-3.1,5-6.2,7.7-9.3l1.5,1.3c-2.7,3-5.2,6.1-7.7,9.2h0ZM903.5,149.5l-1.4-1.4c2.6-2.7,5.3-5.4,8.5-8.5l1.4,1.4c-3.2,3.1-5.9,5.8-8.4,8.5h0ZM920.6,132.8l-1.4-1.5c2.9-2.7,5.9-5.4,9-8l1.3,1.5c-3,2.6-6,5.3-8.9,8ZM938.7,117.1l-1.2-1.6c3.1-2.5,6.3-5,9.5-7.4l1.2,1.6c-3.2,2.4-6.4,4.9-9.5,7.3h0ZM957.9,102.8l-1.1-1.6c3.2-2.3,6.6-4.5,10-6.7l1.1,1.7c-3.4,2.2-6.7,4.4-9.9,6.7h0ZM978,89.7l-1-1.7c3.4-2.1,6.9-4.1,10.4-6.1l1,1.7c-3.5,2-7,4-10.3,6.1ZM998.9,77.9l-.9-1.8c3.5-1.9,7.1-3.7,10.7-5.5l.9,1.8c-3.6,1.8-7.2,3.6-10.7,5.5h0ZM1020.3,67.2l-.8-1.8c3.6-1.7,7.3-3.3,11-5l.8,1.8c-3.7,1.6-7.3,3.3-10.9,4.9h0ZM1042.3,57.6l-.8-1.8c3.7-1.5,7.4-3,11.2-4.4l.7,1.9c-3.7,1.4-7.5,2.9-11.2,4.4h0ZM1064.7,49l-.7-1.9c3.7-1.3,7.5-2.7,11.4-4l.6,1.9c-3.8,1.3-7.6,2.6-11.3,4ZM1087.5,41.3l-.6-1.9c3.8-1.2,7.6-2.4,11.5-3.5l.6,1.9c-3.9,1.2-7.7,2.3-11.5,3.5h0ZM1110.4,34.5l-.5-1.9c3.8-1.1,7.7-2.1,11.6-3.1l.5,1.9c-3.9,1-7.8,2.1-11.6,3.1h0ZM1133.6,28.4l-.5-1.9c3.9-.9,7.8-1.9,11.7-2.7l.4,2c-3.9.9-7.8,1.8-11.6,2.7ZM1156.9,23.1l-.4-2c3.9-.8,7.8-1.6,11.8-2.4l.4,2c-3.9.8-7.9,1.6-11.8,2.4ZM1180.5,18.5l-.4-2c3.9-.7,7.9-1.4,11.8-2.1l.3,2c-3.9.7-7.9,1.4-11.8,2.1h0ZM1204.1,14.6l-.3-2c3.9-.6,7.9-1.2,11.9-1.8l.3,2c-4,.6-8,1.1-11.9,1.8ZM1227.9,11.2l-.3-2c3.9-.5,8-1,11.9-1.5l.2,2c-4,.5-8,1-11.9,1.5h0ZM1251.7,8.4l-.2-2c4-.4,8-.8,12-1.2l.2,2c-4,.4-8,.8-11.9,1.2ZM1275.6,6.1l-.2-2c4-.3,8-.7,12-.9l.2,2c-3.9.3-7.9.6-12,.9ZM1299.5,4.4v-2c3.9-.2,7.9-.5,11.9-.7v2c-3.8.2-7.8.4-11.9.7h0ZM1431.4,3.2c-3.5-.2-7.5-.3-12-.5V.7c4.5.1,8.6.3,12.1.5v2ZM1323.5,3.1V1.1c4-.2,8-.3,11.9-.4v2c-3.9.1-7.9.3-11.9.5ZM1407.5,2.4c-3.8,0-7.8-.2-12-.2V.1c4.2,0,8.3.2,12,.2v2ZM1347.5,2.3V.3c4,0,8.1-.2,12-.2v2c-3.9,0-7.9.1-12,.2ZM1383.5,2c-3.9,0-7.9,0-12,0V0c4.1,0,8.1,0,12,0v2h0Z"/>
  </g>
</svg>