<?xml version="1.0" encoding="UTF-8"?>
<svg id="Capa_2" data-name="Capa 2" xmlns="http://www.w3.org/2000/svg" viewBox="0 0 72.84 77">
  <defs>
    <style>
      .cls-1 {
        fill: #0086cc;
        stroke-width: 0px;
      }
    </style>
  </defs>
  <g id="Capa_1-2" data-name="Capa 1">
    <g>
      <path class="cls-1" d="M36.51,14.91l-2.41,3.34C34.1.64.74,4.91.37,4.91L0,.09C.37.09,26.69-2.14,36.51,15.84,46.33-1.95,72.47.09,72.84.09v5s-7.41-.56-15.2,1.48c-10.01,2.59-16.31,2.59-18.72,11.12l-2.41-2.78Z"/>
      <circle class="cls-1" cx="52.64" cy="23.07" r="4.63"/>
      <g>
        <path class="cls-1" d="M36.51,28.07c-2.22,7.23-8.9,12.42-16.87,12.42-4.26,0-8.15-1.48-11.12-4.08,8.34,29.1,42.26,40.59,56.53,40.59,0-.93.37-23.91.56-41.7-3.15,3.15-7.6,5.19-12.42,5.19-7.78-.19-14.46-5.37-16.68-12.42Z"/>
        <path class="cls-1" d="M36.51,24.55c2.97-9.45,11.86-16.31,22.24-16.31,3.89,0,7.6.93,10.75,2.59-1.11-1.67-2.97-4.08-4.26-5.56-.19-.37-56.53-.93-56.53-.74-1.67,1.85-4.26,4.63-5.56,6.67,3.34-1.85,7.23-2.78,11.12-2.78,10.56-.19,19.28,6.67,22.24,16.12Z"/>
      </g>
      <circle class="cls-1" cx="21.87" cy="23.07" r="4.63"/>
    </g>
  </g>
</svg>