<?xml version="1.0" encoding="UTF-8"?>
<svg id="Layer_2" data-name="Layer 2" xmlns="http://www.w3.org/2000/svg" viewBox="0 0 370.56 305.03">
  <defs>
    <style>
      .cls-1, .cls-2, .cls-3 {
        stroke-width: 0px;
      }

      .cls-2 {
        fill: #fff;
      }

      .cls-3 {
        fill: #231f20;
      }
    </style>
  </defs>
  <g id="Layer_1-2" data-name="Layer 1">
    <g>
      <path class="cls-1" d="M307.92,0h-131.26c-34.54,0-62.64,28.1-62.64,62.64v13.04c0,12.17,3.5,23.55,9.53,33.17l-10.46,20.55c-.35.69-.29,1.52.16,2.14.39.55,1.02.86,1.68.86.1,0,.2,0,.3-.02l27.63-4.02c9.76,6.28,21.35,9.95,33.79,9.95h131.26c34.54,0,62.64-28.1,62.64-62.64v-13.04c0-34.54-28.1-62.64-62.64-62.64Z"/>
      <path class="cls-2" d="M366.42,75.68c0,32.26-26.24,58.5-58.5,58.5h-131.26c-10.25,0-19.88-2.68-28.26-7.33.26-.41.39-.9.32-1.41-.16-1.13-1.21-1.92-2.35-1.75l-27.77,4.04,10.57-20.78c.52-1.02.11-2.26-.91-2.78-.82-.42-1.79-.23-2.41.4-4.87-8.53-7.69-18.37-7.69-28.88v-13.04c0-32.26,26.24-58.5,58.5-58.5h131.26c32.26,0,58.5,26.24,58.5,58.5v13.04Z"/>
      <g>
        <path class="cls-1" d="M157.04,58.59c0,1.44-.5,2.67-1.51,3.68-1.01,1.01-2.23,1.51-3.68,1.51s-2.67-.5-3.68-1.51c-1.01-1.01-1.51-2.23-1.51-3.68,0-.72.13-1.4.4-2.02.27-.63.64-1.18,1.11-1.65s1.03-.85,1.65-1.11c.63-.27,1.3-.4,2.02-.4s1.4.13,2.02.4,1.18.64,1.65,1.11c.47.48.85,1.03,1.11,1.65.27.63.4,1.3.4,2.02ZM147.8,91.99c0-5.47.34-10.92,1.03-16.36.08-.53.31-1,.71-1.4s.92-.6,1.57-.6c.57,0,1.04.22,1.42.66.38.44.57.94.57,1.51,0,.23-.05.91-.14,2.05-.1,1.14-.21,2.5-.34,4.07-.13,1.58-.25,3.25-.34,5.01-.1,1.77-.14,3.39-.14,4.87,0,2.01.2,3.64.6,4.87.4,1.24.91,2.19,1.54,2.88.63.68,1.29,1.14,1.99,1.37.7.23,1.38.34,2.02.34,1.06,0,2.17-.38,3.31-1.14,1.14-.76,2.31-1.82,3.5-3.19s2.4-3.01,3.62-4.93c1.22-1.92,2.41-4.06,3.59-6.41.19-.38.46-.68.8-.88.34-.21.72-.31,1.14-.31.61,0,1.11.23,1.51.68.4.46.6.95.6,1.48,0,.38-.08.7-.23.97-.46.87-1.03,1.94-1.71,3.19-.68,1.25-1.46,2.55-2.34,3.88-.87,1.33-1.83,2.65-2.88,3.96-1.05,1.31-2.16,2.49-3.33,3.53s-2.41,1.89-3.7,2.54-2.6.97-3.93.97c-1.71,0-3.21-.36-4.5-1.08-1.29-.72-2.38-1.69-3.28-2.91-.89-1.22-1.56-2.65-2-4.3-.44-1.65-.65-3.43-.65-5.33ZM153.84,58.59c0-.53-.2-1-.6-1.4s-.87-.6-1.4-.6-.99.2-1.37.6c-.38.4-.57.86-.57,1.4s.19.99.57,1.37c.38.38.83.57,1.37.57s1-.19,1.4-.57.6-.84.6-1.37Z"/>
        <path class="cls-1" d="M220.3,87.54c-.11.23-.36.69-.74,1.4-.38.7-.87,1.52-1.48,2.45-.61.93-1.33,1.92-2.16,2.96-.84,1.04-1.75,2-2.74,2.88-.99.87-2.05,1.6-3.19,2.17-1.14.57-2.32.85-3.53.85-1.98,0-3.65-.35-5.01-1.05-1.37-.7-2.49-1.49-3.36-2.37-.61,1.33-1.35,2.55-2.22,3.65-.87,1.1-1.84,2.06-2.91,2.88-1.06.82-2.19,1.45-3.39,1.91-1.2.46-2.42.68-3.68.68-2.32,0-4.29-.68-5.93-2.05-1.63-1.37-2.99-3.2-4.08-5.5-1.08-2.3-1.93-4.97-2.54-8.01-.61-3.04-1.07-6.23-1.4-9.57-.32-3.34-.52-6.73-.6-10.15-.08-3.42-.11-6.67-.11-9.75,0-5.89.17-10.99.51-15.3.34-4.31.81-7.98,1.4-11,.59-3.02,1.27-5.47,2.05-7.35.78-1.88,1.6-3.34,2.48-4.39.87-1.04,1.77-1.76,2.68-2.14.91-.38,1.8-.57,2.68-.57,1.41,0,2.65.42,3.73,1.25,1.08.84,1.99,2,2.74,3.5.74,1.5,1.3,3.32,1.68,5.44.38,2.13.57,4.46.57,7.01,0,4.07-.44,8.26-1.31,12.59-.87,4.33-2,8.65-3.39,12.97s-2.93,8.55-4.64,12.71c-1.71,4.16-3.4,8.1-5.07,11.82.23,1.86.57,3.64,1.03,5.33.46,1.69,1.04,3.19,1.77,4.5.72,1.31,1.58,2.36,2.56,3.13.99.78,2.13,1.17,3.42,1.17s2.51-.37,3.65-1.11c1.14-.74,2.13-1.71,2.96-2.91.84-1.2,1.49-2.56,1.97-4.08.47-1.52.71-3.08.71-4.67,0-1.06-.11-2.14-.31-3.22-.21-1.08-.53-2.05-.97-2.91-.44-.85-.98-1.55-1.62-2.08-.65-.53-1.42-.8-2.34-.8-.68,0-1.22.14-1.6.43-.38.28-.67.61-.85.97-.19.36-.3.71-.34,1.05-.04.34-.06.57-.06.68,0,.53.11,1.06.34,1.6.23.53.66,1.01,1.31,1.43.65.46.97,1.08.97,1.88,0,.65-.22,1.16-.66,1.54-.44.38-.92.57-1.45.57-.76,0-1.43-.23-2.02-.68-.59-.46-1.09-1.04-1.51-1.74-.42-.7-.74-1.45-.97-2.25-.23-.8-.34-1.54-.34-2.22,0-1.1.19-2.12.57-3.05.38-.93.9-1.73,1.57-2.39.66-.66,1.42-1.18,2.28-1.54s1.76-.54,2.71-.54c1.63,0,3.05.38,4.25,1.14,1.2.76,2.19,1.77,2.99,3.02.8,1.25,1.39,2.68,1.77,4.27.38,1.6.57,3.21.57,4.84,0,.95-.06,1.88-.17,2.79.15.3.4.7.74,1.2.34.49.8.97,1.37,1.42.57.46,1.25.85,2.05,1.2.8.34,1.73.51,2.79.51.91,0,1.85-.35,2.82-1.06.97-.7,1.9-1.58,2.79-2.62.89-1.04,1.72-2.17,2.48-3.36.76-1.2,1.39-2.31,1.88-3.33.19-.38.46-.68.8-.88.34-.21.72-.31,1.14-.31.65,0,1.17.23,1.57.68.4.46.6.97.6,1.54,0,.23-.08.53-.23.91ZM176.24,80.19c1.29-3.19,2.6-6.54,3.93-10.06,1.33-3.51,2.53-7.1,3.59-10.74,1.06-3.65,1.94-7.33,2.62-11.06.68-3.72,1.03-7.39,1.03-11,0-1.37-.07-2.8-.2-4.3-.13-1.5-.37-2.88-.71-4.13-.34-1.25-.81-2.3-1.4-3.13-.59-.84-1.34-1.25-2.25-1.25-.3,0-.69.2-1.17.6-.47.4-.98,1.1-1.51,2.11-.53,1.01-1.06,2.4-1.6,4.19-.53,1.79-1.02,4.06-1.45,6.81-.44,2.75-.8,6.07-1.08,9.94-.28,3.88-.43,8.44-.43,13.68,0,1.75.02,3.52.06,5.33s.09,3.52.14,5.16c.06,1.63.12,3.13.2,4.5.08,1.37.15,2.49.23,3.36Z"/>
        <path class="cls-1" d="M242.69,97.06c-.95,0-1.79-.08-2.51-.23-.57,1.14-1.25,2.19-2.05,3.16-.8.97-1.72,1.82-2.76,2.54-1.04.72-2.21,1.29-3.5,1.71-1.29.42-2.7.63-4.22.63-1.79,0-3.42-.31-4.9-.94-1.48-.63-2.77-1.5-3.88-2.62-1.1-1.12-1.96-2.47-2.56-4.05-.61-1.58-.91-3.31-.91-5.21,0-2.43.44-4.55,1.31-6.35s1.88-3.31,3.02-4.5c1.14-1.2,2.28-2.09,3.42-2.68,1.14-.59,1.99-.88,2.56-.88.65,0,1.13.17,1.45.51.32.34.48.8.48,1.37,0,.65-.2,1.13-.6,1.45-.4.32-.9.64-1.51.94s-1.25.73-1.94,1.28c-.68.55-1.32,1.25-1.91,2.08-.59.84-1.07,1.82-1.45,2.96-.38,1.14-.57,2.41-.57,3.82,0,1.25.19,2.42.57,3.51.38,1.08.93,2.01,1.65,2.79.72.78,1.58,1.39,2.56,1.82.99.44,2.09.65,3.31.65,2.17,0,3.96-.5,5.39-1.51s2.52-2.29,3.28-3.85c-2.24-1.18-4.08-2.85-5.53-5.01-1.44-2.17-2.17-4.6-2.17-7.3,0-2.17.52-3.93,1.57-5.3,1.04-1.37,2.42-2.05,4.13-2.05,1.03,0,2,.25,2.91.74.91.49,1.72,1.27,2.42,2.34.7,1.06,1.26,2.43,1.68,4.1.42,1.67.63,3.67.63,5.98,0,1.22-.15,2.49-.46,3.82.23.04.46.06.68.06h.74c1.29,0,2.45-.15,3.48-.46s1.96-.76,2.79-1.37c.84-.61,1.59-1.39,2.25-2.34.66-.95,1.3-2.05,1.91-3.31.11-.23.36-.45.74-.65.38-.21.76-.31,1.14-.31.49,0,.96.2,1.4.6.44.4.65.92.65,1.57,0,.3-.08.64-.23,1-.15.36-.3.69-.46,1-.65,1.14-1.4,2.23-2.25,3.28-.85,1.05-1.86,1.96-3.02,2.74-1.16.78-2.46,1.4-3.9,1.85-1.44.46-3.06.67-4.84.63ZM232.95,82.7c0,.72.09,1.48.28,2.28s.49,1.59.88,2.37c.4.78.89,1.52,1.48,2.22.59.7,1.28,1.3,2.08,1.8.11-.8.17-1.58.17-2.34,0-1.03-.08-2.07-.23-3.13-.15-1.06-.37-2.04-.66-2.94-.28-.89-.64-1.61-1.05-2.17-.42-.55-.91-.83-1.48-.83-.23,0-.53.17-.91.51-.38.34-.57,1.08-.57,2.22Z"/>
        <path class="cls-1" d="M272.21,96.94c-1.33,2.17-2.88,3.87-4.64,5.13-1.77,1.25-3.54,1.88-5.33,1.88-1.44,0-2.74-.27-3.88-.8-1.14-.53-2.13-1.28-2.96-2.25-.84-.97-1.47-2.14-1.91-3.51-.44-1.37-.65-2.91-.65-4.62,0-2.66.26-5.02.77-7.07.51-2.05,1.07-3.77,1.68-5.16.61-1.39,1.44-2.8,2.51-4.25.19-.23.43-.4.71-.51.29-.11.58-.17.88-.17.61,0,1.11.22,1.51.66s.6.94.6,1.51c0,.23-.05.46-.14.68-.09.23-.2.46-.31.68-.19.34-.49.87-.91,1.57-.42.7-.85,1.62-1.31,2.76-.46,1.14-.86,2.48-1.2,4.02-.34,1.54-.51,3.3-.51,5.27,0,2.24.45,3.94,1.34,5.1.89,1.16,2.15,1.74,3.79,1.74.68,0,1.47-.22,2.37-.65.89-.44,1.77-1.11,2.62-2.02.85-.91,1.61-2.07,2.25-3.48.65-1.4,1.06-3.06,1.25-4.96l.85-9.8c.08-.57.32-1.04.74-1.42.42-.38.91-.57,1.48-.57.65,0,1.16.24,1.54.71.38.48.57,1.02.57,1.63l-.74,9.46c-.08.8-.05,1.84.08,3.13.13,1.29.41,2.56.83,3.82.42,1.25,1.04,2.33,1.88,3.22.84.89,1.94,1.34,3.31,1.34.99,0,1.96-.26,2.91-.77.95-.51,1.86-1.19,2.74-2.02.87-.84,1.68-1.77,2.42-2.82.74-1.04,1.42-2.1,2.05-3.16.63-1.06,1.17-2.08,1.62-3.05.46-.97.83-1.8,1.14-2.48.19-.42.46-.74.8-.97.34-.23.72-.34,1.14-.34.68,0,1.22.23,1.6.68s.57.95.57,1.48c0,.3-.06.59-.17.86-.15.3-.45.94-.88,1.91-.44.97-1.01,2.07-1.71,3.31s-1.55,2.54-2.54,3.9c-.99,1.37-2.09,2.63-3.3,3.79-1.22,1.16-2.54,2.11-3.96,2.85-1.42.74-2.95,1.11-4.59,1.11-2.24,0-4.1-.64-5.58-1.91-1.48-1.27-2.58-3.09-3.31-5.44Z"/>
        <path class="cls-1" d="M328.12,71.07c-5.85,7.22-11.19,14.82-16.01,22.8,1.33,1.98,2.79,3.61,4.39,4.9,1.6,1.29,3.4,1.94,5.42,1.94,1.78,0,3.48-.51,5.07-1.54,1.6-1.03,3.05-2.29,4.36-3.79,1.31-1.5,2.45-3.11,3.42-4.85.97-1.73,1.72-3.3,2.25-4.7.38-.95,1.05-1.42,2-1.42.65,0,1.17.22,1.57.65s.6.94.6,1.51c0,.19-.04.44-.11.74.04-.08-.13.3-.51,1.14-.38.84-.95,1.91-1.71,3.22-.76,1.31-1.69,2.75-2.79,4.3-1.1,1.56-2.37,3.01-3.79,4.36-1.43,1.35-3.01,2.47-4.76,3.36-1.75.89-3.63,1.34-5.64,1.34-2.51,0-4.76-.66-6.75-1.99-1.99-1.33-3.79-3.02-5.39-5.07-.65,1.14-1.27,2.28-1.88,3.42-.61,1.14-1.22,2.28-1.82,3.42-.42.8-1.06,1.2-1.94,1.2-.65,0-1.17-.23-1.57-.68-.4-.46-.6-.95-.6-1.48,0-.3.09-.65.28-1.03.76-1.48,1.54-2.96,2.34-4.44.8-1.48,1.63-2.94,2.51-4.39-1.29-2.24-2.39-4.53-3.31-6.87-.91-2.34-1.63-4.53-2.17-6.58l-3.36,6.95c-.42.84-1.06,1.25-1.94,1.25-.65,0-1.17-.23-1.57-.68s-.6-.95-.6-1.48c0-.34.08-.65.23-.91l6.21-12.99c.19-.34.46-.63.8-.86s.72-.34,1.14-.34c.61,0,1.1.2,1.48.6.38.4.61.88.68,1.45.04.53.18,1.37.43,2.51.25,1.14.59,2.44,1.03,3.9.44,1.46.95,3.03,1.54,4.7.59,1.67,1.28,3.32,2.08,4.96,4.56-7.41,9.59-14.49,15.1-21.26.38-.49.93-.74,1.65-.74.61,0,1.12.21,1.54.63.42.42.63.91.63,1.48,0,.53-.17.99-.51,1.37Z"/>
      </g>
      <path class="cls-1" d="M59.59,152.94l-.85-.38c-1.04-.47-6.23-2.99-6.23-6.89s3.17-7.08,7.08-7.08,7.08,3.17,7.08,7.08-5.19,6.43-6.23,6.89l-.85.38ZM59.59,142.73c-1.62,0-2.94,1.32-2.94,2.94,0,.6,1.37,1.82,2.93,2.69,1.58-.88,2.94-2.09,2.94-2.69,0-1.62-1.32-2.94-2.94-2.94Z"/>
      <path class="cls-1" d="M42.37,142.73c-9.24,0-16.76-7.52-16.76-16.76v-.46c0-9.24,7.52-16.76,16.76-16.76s16.76,7.52,16.76,16.76v.46c0,9.24-7.52,16.76-16.76,16.76ZM42.37,112.88c-6.96,0-12.62,5.66-12.62,12.62v.46c0,6.96,5.66,12.62,12.62,12.62s12.62-5.66,12.62-12.62v-.46c0-6.96-5.66-12.62-12.62-12.62Z"/>
      <path class="cls-1" d="M77.36,142.73c-9.24,0-16.76-7.52-16.76-16.76v-.46c0-9.24,7.52-16.76,16.76-16.76s16.76,7.52,16.76,16.76v.46c0,9.24-7.52,16.76-16.76,16.76ZM77.36,112.88c-6.96,0-12.62,5.66-12.62,12.62v.46c0,6.96,5.66,12.62,12.62,12.62s12.62-5.66,12.62-12.62v-.46c0-6.96-5.66-12.62-12.62-12.62Z"/>
      <ellipse class="cls-1" cx="38.92" cy="127.52" rx="4.39" ry="4.28"/>
      <ellipse class="cls-1" cx="73.9" cy="127.52" rx="4.39" ry="4.28"/>
      <path class="cls-1" d="M64.58,105.4c-.7,0-1.38-.35-1.77-.99-.6-.98-.29-2.25.69-2.85,5.06-3.09,10.19-4.73,15.25-4.88,2.81-.09,5.1.3,7.13.63,3.07.51,5.29.87,8.14-.42.98-.44,3.57-1.61,4.79-4.27.47-1.03.7-2.17.67-3.39-.03-1.14.88-2.09,2.02-2.12h.05c1.12,0,2.04.89,2.07,2.02.04,1.86-.31,3.62-1.05,5.22-1.87,4.07-5.62,5.76-6.85,6.31-4,1.8-7.16,1.28-10.51.72-1.93-.32-3.93-.63-6.34-.58-4.33.13-8.78,1.56-13.21,4.27-.34.2-.71.3-1.08.3Z"/>
      <path class="cls-1" d="M53.35,105.4c-.37,0-.74-.1-1.08-.3-4.43-2.71-8.88-4.15-13.21-4.27-2.41-.06-4.41.26-6.34.58-3.35.55-6.52,1.07-10.51-.72-1.23-.55-4.98-2.24-6.86-6.32-.74-1.61-1.09-3.36-1.05-5.22.03-1.13.95-2.02,2.07-2.02h.05c1.14.03,2.05.97,2.02,2.12-.03,1.22.2,2.36.67,3.39,1.23,2.67,3.82,3.83,4.79,4.27,2.86,1.28,5.07.92,8.14.42,2.03-.33,4.33-.72,7.13-.63,5.06.15,10.19,1.79,15.25,4.88.98.6,1.28,1.87.69,2.85-.39.64-1.07.99-1.77.99Z"/>
      <g>
        <path class="cls-1" d="M158.97,155.51h2.97l10.66,29.25h-2.4l-2.4-6.6h-14.65l-2.4,6.6h-2.4l10.63-29.25ZM153.96,175.9h12.99l-6.5-17.82-6.5,17.82Z"/>
        <path class="cls-1" d="M188.8,185.3c-1.98,0-3.84-.39-5.58-1.18-1.74-.79-3.27-1.87-4.59-3.26-1.32-1.39-2.35-3-3.09-4.84-.75-1.84-1.12-3.8-1.12-5.89s.37-4.05,1.12-5.89c.75-1.84,1.78-3.45,3.09-4.84,1.32-1.39,2.84-2.47,4.59-3.26,1.74-.79,3.6-1.18,5.58-1.18,2.37,0,4.55.55,6.54,1.65,1.99,1.1,3.64,2.56,4.95,4.39l-1.99,1.09c-1.1-1.49-2.5-2.67-4.19-3.55s-3.46-1.32-5.32-1.32c-1.7,0-3.28.34-4.74,1.02-1.46.68-2.75,1.62-3.85,2.81-1.11,1.19-1.97,2.57-2.59,4.13-.62,1.56-.93,3.21-.93,4.95s.31,3.45.94,5c.63,1.55,1.5,2.93,2.61,4.12,1.11,1.19,2.4,2.12,3.86,2.79,1.46.67,3.03,1,4.7,1,1.94,0,3.74-.45,5.4-1.34,1.66-.89,3.03-2.06,4.11-3.49l1.99,1.06c-1.31,1.82-2.96,3.28-4.95,4.38-1.99,1.09-4.17,1.64-6.54,1.64Z"/>
        <path class="cls-1" d="M214.36,155.51h2.97l10.65,29.25h-2.4l-2.4-6.6h-14.65l-2.4,6.6h-2.4l10.63-29.25ZM209.34,175.9h12.99l-6.5-17.82-6.5,17.82Z"/>
        <path class="cls-1" d="M231.99,184.76v-29.25h9.67c2.02,0,3.91.38,5.68,1.14,1.77.76,3.32,1.81,4.66,3.15,1.34,1.34,2.39,2.9,3.14,4.66.76,1.76,1.14,3.65,1.14,5.67s-.38,3.91-1.14,5.67c-.76,1.76-1.81,3.32-3.14,4.66-1.34,1.35-2.89,2.4-4.66,3.15-1.77.76-3.66,1.14-5.68,1.14h-9.67ZM234.24,182.51h7.42c1.71,0,3.31-.32,4.8-.96,1.49-.64,2.8-1.53,3.94-2.66,1.13-1.13,2.02-2.45,2.66-3.94.64-1.49.96-3.09.96-4.81s-.32-3.31-.96-4.8c-.64-1.49-1.53-2.8-2.68-3.94-1.14-1.13-2.46-2.02-3.95-2.66-1.49-.64-3.09-.96-4.78-.96h-7.42v24.74Z"/>
        <path class="cls-1" d="M260.26,184.76v-29.25h17.63v2.26h-15.38v10.2h12.87v2.26h-12.87v12.29h15.38v2.26h-17.63Z"/>
        <path class="cls-1" d="M282.49,184.76l5.66-29.25h1.48l8.5,22.38,8.48-22.38h1.48l5.68,29.25h-2.3l-4.6-23.69-8.08,21.39h-1.38l-8.06-21.39-4.6,23.69h-2.28Z"/>
        <path class="cls-1" d="M335.51,155.51h2.65l-9.8,15.98v13.27h-2.26v-13.27l-9.78-15.98h2.65l8.25,13.52,8.27-13.52Z"/>
      </g>
      <path class="cls-1" d="M137.86,154.42c-.42-4.17-2.44-7.51-5.98-9.91-6.37-4.33-17.1-5.04-28.47-3.84-1.27-10.52-3.69-21.16-7.28-31.7-.37-1.08-1.54-1.66-2.63-1.29-1.08.37-1.66,1.54-1.29,2.63,8.32,24.49,10.29,49.44,5.7,72.17-4.44,22.01-12.5,30.96-16.91,34.33-8.14,6.23-19.17,9.2-31.06,8.38-4.23-.29-7.93-.99-11.21-1.92,12.63-8.16,25.05-23.21,25.05-38.08,0-20.74-14.31-37.61-31.89-37.61-7.84,0-15.02,3.36-20.58,8.92.6-14.88,2.41-30.06,5.53-45.38.23-1.12-.5-2.21-1.62-2.44-1.12-.23-2.21.5-2.44,1.62-3.54,17.39-5.45,34.61-5.79,51.43-4.37,6.44-7,14.6-7,23.47,0,14.54,3.18,32.82,12.11,40.53,2.9,2.5,6.19,3.76,9.83,3.76.81,0,1.63-.06,2.47-.19,2.91-.43,6.15-1.56,9.49-3.24,4.38,1.63,9.58,2.84,15.77,3.27,1.4.1,2.78.15,4.16.15,11.31,0,21.74-3.26,29.71-9.37,3.79-2.9,7.2-7.16,10.12-12.54,1.59-.31,3.17-.66,4.77-1.11,23.58-6.67,41-36.7,39.44-52.03ZM23.8,225.18c-3.42.5-6.36-.35-8.98-2.61-7.88-6.8-10.67-24.39-10.67-37.39,0-18.46,12.45-33.47,27.75-33.47s27.75,15.02,27.75,33.47-22.34,38.01-35.85,40.01ZM97.29,202.46c-.44.12-.87.21-1.31.32,2.48-5.62,4.51-12.17,5.99-19.49,2.49-12.34,3.09-25.31,1.87-38.5,3.09-.33,6.13-.53,9.01-.53,6.83,0,12.83,1.04,16.7,3.67,2.52,1.71,3.89,3.97,4.19,6.91,1.39,13.66-15.07,41.58-36.45,47.62Z"/>
    </g>
    <g>
      <path class="cls-1" d="M157.65,227.2v4.98h-1.73v-3.4h-8.91v14.19h3.35v1.58h-7.86v-1.58h2.79v-14.19h-2.79v-1.58h15.15ZM153.3,235.04v1.53h-7.04v-1.53h7.04Z"/>
      <path class="cls-1" d="M162.68,243.12h2.4v1.43h-6.59v-1.43h2.53v-9.43h-2.53v-1.43h4.19v10.86ZM167.4,234.03c-.14-.04-.29-.07-.44-.09s-.33-.03-.51-.03c-1.14,0-2.05.43-2.73,1.28-.68.85-1.03,2.03-1.03,3.54l-.39-2.69h.47c.11-.82.33-1.52.67-2.11.34-.59.78-1.04,1.32-1.36.54-.32,1.18-.48,1.91-.48.14,0,.26,0,.37.02s.23.03.36.05v1.88Z"/>
      <path class="cls-1" d="M175.12,244.77c-1.27,0-2.37-.27-3.3-.81-.93-.54-1.65-1.28-2.16-2.23-.51-.95-.76-2.04-.76-3.28s.26-2.36.77-3.32c.51-.96,1.23-1.72,2.15-2.26.92-.55,1.99-.82,3.21-.82s2.3.27,3.2.81c.9.54,1.59,1.28,2.08,2.24.48.95.73,2.05.73,3.3,0,.15,0,.26,0,.35,0,.08-.01.16-.03.22h-1.64c0-.09.01-.19.02-.31,0-.11,0-.24,0-.39,0-.92-.17-1.73-.52-2.44-.35-.71-.85-1.27-1.49-1.68-.65-.41-1.42-.61-2.33-.61s-1.66.21-2.33.63c-.67.42-1.19.99-1.56,1.73-.37.73-.55,1.59-.55,2.56s.18,1.77.55,2.49c.36.72.89,1.28,1.56,1.69.68.41,1.48.61,2.41.61s1.81-.23,2.52-.69c.71-.46,1.24-1.08,1.59-1.87l1.57.59c-.45,1.08-1.18,1.94-2.17,2.57-1,.63-2.16.94-3.49.94ZM169.96,238.96v-1.28h10.54l.48,1.28h-11.03Z"/>
      <path class="cls-1" d="M187.51,243.12h2.19v1.43h-6.38v-1.43h2.53v-9.43h-2.53v-1.43h4.19v10.86ZM194.6,243.12v-6.43c0-1.01-.23-1.8-.68-2.38-.45-.58-1.17-.87-2.15-.87-.79,0-1.51.2-2.16.59-.65.39-1.16.96-1.53,1.71-.38.75-.57,1.65-.57,2.71l-.38-2.46h.46c.15-.84.43-1.55.84-2.14.42-.59.95-1.04,1.6-1.35s1.4-.47,2.24-.47c1.34,0,2.34.39,2.99,1.16s.99,1.86.99,3.27v6.64h2.36v1.43h-6.18v-1.43h2.16Z"/>
      <path class="cls-1" d="M206.71,244.77c-1.28,0-2.39-.27-3.33-.81-.94-.54-1.67-1.28-2.19-2.23-.52-.95-.78-2.04-.78-3.28,0-.94.14-1.8.43-2.58.28-.78.69-1.46,1.22-2.03.53-.57,1.16-1.02,1.89-1.33s1.55-.47,2.45-.47,1.59.14,2.17.42c.58.28,1.03.67,1.36,1.15.32.49.53,1.05.62,1.68h.4l-.33,1.74c-.1-.69-.33-1.3-.68-1.83-.35-.53-.81-.94-1.38-1.24-.57-.3-1.23-.44-1.97-.44-.89,0-1.67.21-2.35.63-.67.42-1.2.99-1.57,1.73-.37.73-.56,1.59-.56,2.56s.19,1.77.57,2.49c.38.72.92,1.28,1.6,1.69.69.41,1.5.61,2.44.61s1.8-.21,2.5-.64,1.21-1,1.53-1.72l1.53.68c-.44.99-1.14,1.78-2.11,2.35s-2.12.87-3.48.87ZM210.62,237.04v-4.78h1.66v4.78h-1.66Z"/>
      <path class="cls-1" d="M218.48,243.12h2.18v1.43h-6.31v-1.43h2.47v-15.37h-2.47v-1.43h4.13v16.8ZM225.56,243.12v-6.46c0-1-.22-1.79-.67-2.35-.45-.57-1.16-.86-2.12-.86-.81,0-1.53.21-2.18.62-.65.41-1.16,1.01-1.54,1.79-.38.78-.57,1.72-.57,2.82l-.39-2.46h.46c.15-.9.44-1.66.87-2.29.43-.63.97-1.1,1.63-1.44.66-.33,1.42-.5,2.27-.5,1.34,0,2.32.39,2.95,1.15.63.77.95,1.85.95,3.24v6.73h2.35v1.43h-6.18v-1.43h2.17Z"/>
      <path class="cls-1" d="M242.14,243.12h2.53v1.43h-6.71v-1.43h2.53v-15.37h-2.53v-1.43h4.19v16.8Z"/>
      <path class="cls-1" d="M250.62,244.71c-1.28,0-2.25-.28-2.91-.85-.66-.57-.99-1.4-.99-2.5,0-1.02.29-1.79.88-2.32.58-.53,1.52-.94,2.81-1.21l5.53-1.18v1.19l-5.25,1.19c-.75.18-1.32.44-1.69.78-.37.34-.56.82-.56,1.45,0,.68.21,1.18.62,1.52s1.02.5,1.82.5c.88,0,1.68-.2,2.38-.61.7-.41,1.25-1.01,1.65-1.8.4-.79.6-1.77.6-2.93l.44,2.72h-.59c-.19,1.28-.69,2.28-1.49,2.99-.8.71-1.89,1.06-3.25,1.06ZM256.41,244.55c-.32,0-.56-.1-.72-.3-.17-.2-.25-.48-.25-.84v-3.69l.15-.38-.08-1.4-.07-.73v-.93c0-.63-.13-1.15-.39-1.55-.26-.4-.63-.7-1.11-.89-.48-.19-1.07-.29-1.75-.29-1.02,0-1.81.2-2.37.61-.56.4-.93,1.01-1.11,1.82l-1.59-.33c.15-.81.44-1.48.87-2.01.42-.53.99-.93,1.69-1.2s1.56-.4,2.58-.4,1.95.15,2.67.44c.72.3,1.26.75,1.63,1.36.37.61.55,1.39.55,2.35v6.93h1.81v1.43h-2.5Z"/>
      <path class="cls-1" d="M265,243.12h2.19v1.43h-6.38v-1.43h2.53v-9.43h-2.53v-1.43h4.19v10.86ZM272.09,243.12v-6.43c0-1.01-.23-1.8-.68-2.38-.45-.58-1.17-.87-2.15-.87-.79,0-1.51.2-2.16.59-.65.39-1.16.96-1.53,1.71-.38.75-.57,1.65-.57,2.71l-.38-2.46h.46c.15-.84.43-1.55.84-2.14.42-.59.95-1.04,1.6-1.35s1.4-.47,2.24-.47c1.34,0,2.34.39,2.99,1.16.66.77.99,1.86.99,3.27v6.64h2.36v1.43h-6.18v-1.43h2.16Z"/>
      <path class="cls-1" d="M283.75,249.65c-1.08,0-2.05-.1-2.92-.31-.87-.2-1.57-.52-2.08-.96s-.77-1.02-.77-1.74.26-1.27.78-1.64c.52-.37,1.19-.62,2.01-.73v-.2l2.05.2c-.85,0-1.52.1-2.01.31-.48.2-.83.46-1.03.78-.2.32-.3.65-.3.99,0,.52.19.93.58,1.22.39.29.9.5,1.55.62.65.12,1.38.18,2.19.18,1.62,0,2.81-.22,3.56-.65.75-.44,1.12-1.04,1.12-1.82,0-1.09-.71-1.64-2.12-1.64h-4.71c-.92,0-1.65-.17-2.17-.5s-.79-.82-.79-1.45.24-1.06.72-1.38c.48-.32,1.16-.51,2.04-.58v-.35l2.1.6h-1.26c-.66,0-1.17.09-1.51.27-.35.18-.52.46-.52.82,0,.35.16.59.48.74s.8.22,1.45.22h4.13c.79,0,1.47.13,2.02.39.56.26.98.62,1.27,1.1.29.48.43,1.05.43,1.71,0,.71-.2,1.35-.6,1.92-.4.57-1.06,1.03-1.98,1.36s-2.16.5-3.71.5ZM283.54,240.61c-.98,0-1.85-.18-2.61-.53-.76-.35-1.36-.85-1.8-1.49-.44-.64-.66-1.39-.66-2.25s.22-1.61.65-2.26c.43-.64,1.03-1.14,1.79-1.5s1.63-.54,2.62-.54,1.9.19,2.67.57c.77.38,1.36.9,1.77,1.57.2.31.35.64.44,1s.14.74.14,1.16c0,.86-.21,1.61-.65,2.25-.43.64-1.03,1.13-1.78,1.49-.76.35-1.63.53-2.6.53ZM283.54,239.25c.65,0,1.24-.12,1.75-.36.51-.24.92-.58,1.21-1.02s.44-.95.44-1.53-.15-1.1-.44-1.54c-.3-.44-.7-.79-1.21-1.03s-1.09-.36-1.75-.36-1.26.12-1.78.36-.92.59-1.22,1.03c-.3.44-.44.95-.44,1.54s.15,1.1.44,1.53.7.78,1.22,1.02c.52.24,1.11.36,1.77.36ZM288.57,236.34l-.58-1.35-.51-.83.46-.19c-.02-.08-.04-.16-.05-.24s-.02-.17-.02-.26c0-.32.08-.61.23-.88.15-.26.38-.47.67-.62.29-.15.65-.23,1.07-.23.11,0,.21,0,.29.01.09,0,.17.02.26.05v1.6c-.15-.02-.28-.04-.4-.05s-.25-.02-.37-.02c-.32,0-.58.05-.78.14s-.34.21-.42.35c-.09.14-.13.3-.13.47s.02.34.07.52c.05.19.09.41.13.65.04.25.06.53.06.87Z"/>
      <path class="cls-1" d="M295.54,232.27v7.83c0,1.01.22,1.8.67,2.38.45.58,1.16.87,2.13.87.78,0,1.47-.2,2.08-.59.61-.4,1.09-.97,1.45-1.71.35-.75.53-1.64.53-2.69l.4,2.46h-.48c-.21,1.32-.72,2.32-1.54,2.99-.82.67-1.82,1.01-3.02,1.01-1.32,0-2.3-.39-2.94-1.18s-.95-1.87-.95-3.26v-6.68h-2.23v-1.43h3.89ZM302.4,233.7h-2.38v-1.43h4.04v10.86h2.4v1.43h-4.06v-10.86Z"/>
      <path class="cls-1" d="M312.41,244.71c-1.28,0-2.25-.28-2.91-.85s-.99-1.4-.99-2.5c0-1.02.29-1.79.88-2.32.58-.53,1.52-.94,2.81-1.21l5.53-1.18v1.19l-5.25,1.19c-.75.18-1.32.44-1.69.78-.37.34-.56.82-.56,1.45,0,.68.21,1.18.62,1.52s1.02.5,1.82.5c.88,0,1.68-.2,2.38-.61.7-.41,1.25-1.01,1.65-1.8.4-.79.6-1.77.6-2.93l.44,2.72h-.59c-.19,1.28-.69,2.28-1.49,2.99-.8.71-1.89,1.06-3.25,1.06ZM318.2,244.55c-.32,0-.56-.1-.72-.3-.17-.2-.25-.48-.25-.84v-3.69l.15-.38-.08-1.4-.07-.73v-.93c0-.63-.13-1.15-.39-1.55-.26-.4-.63-.7-1.11-.89-.48-.19-1.07-.29-1.75-.29-1.02,0-1.81.2-2.37.61-.56.4-.93,1.01-1.11,1.82l-1.59-.33c.15-.81.44-1.48.87-2.01.42-.53.99-.93,1.69-1.2s1.56-.4,2.58-.4,1.95.15,2.67.44c.72.3,1.26.75,1.63,1.36.37.61.55,1.39.55,2.35v6.93h1.81v1.43h-2.5Z"/>
      <path class="cls-1" d="M328.59,249.65c-1.08,0-2.05-.1-2.92-.31-.87-.2-1.57-.52-2.08-.96s-.77-1.02-.77-1.74.26-1.27.78-1.64c.52-.37,1.19-.62,2.01-.73v-.2l2.05.2c-.85,0-1.52.1-2.01.31-.48.2-.83.46-1.03.78-.2.32-.3.65-.3.99,0,.52.19.93.58,1.22.39.29.9.5,1.55.62.65.12,1.38.18,2.19.18,1.62,0,2.81-.22,3.56-.65.75-.44,1.12-1.04,1.12-1.82,0-1.09-.71-1.64-2.12-1.64h-4.71c-.92,0-1.65-.17-2.17-.5s-.79-.82-.79-1.45.24-1.06.72-1.38c.48-.32,1.16-.51,2.04-.58v-.35l2.1.6h-1.26c-.66,0-1.17.09-1.51.27-.35.18-.52.46-.52.82,0,.35.16.59.48.74s.8.22,1.45.22h4.13c.79,0,1.47.13,2.02.39.56.26.98.62,1.27,1.1.29.48.43,1.05.43,1.71,0,.71-.2,1.35-.6,1.92-.4.57-1.06,1.03-1.98,1.36s-2.16.5-3.71.5ZM328.38,240.61c-.98,0-1.85-.18-2.61-.53-.76-.35-1.36-.85-1.8-1.49-.44-.64-.66-1.39-.66-2.25s.22-1.61.65-2.26c.43-.64,1.03-1.14,1.79-1.5s1.63-.54,2.62-.54,1.9.19,2.67.57c.77.38,1.36.9,1.77,1.57.2.31.35.64.44,1s.14.74.14,1.16c0,.86-.21,1.61-.65,2.25-.43.64-1.03,1.13-1.78,1.49-.76.35-1.63.53-2.6.53ZM328.38,239.25c.65,0,1.24-.12,1.75-.36.51-.24.92-.58,1.21-1.02s.44-.95.44-1.53-.15-1.1-.44-1.54c-.3-.44-.7-.79-1.21-1.03s-1.09-.36-1.75-.36-1.26.12-1.78.36-.92.59-1.22,1.03c-.3.44-.44.95-.44,1.54s.15,1.1.44,1.53.7.78,1.22,1.02c.52.24,1.11.36,1.77.36ZM333.41,236.34l-.58-1.35-.51-.83.46-.19c-.02-.08-.04-.16-.05-.24s-.02-.17-.02-.26c0-.32.08-.61.23-.88.15-.26.38-.47.67-.62.29-.15.65-.23,1.07-.23.11,0,.21,0,.29.01.09,0,.17.02.26.05v1.6c-.15-.02-.28-.04-.4-.05s-.25-.02-.37-.02c-.32,0-.58.05-.78.14s-.34.21-.42.35c-.09.14-.13.3-.13.47s.02.34.07.52c.05.19.09.41.13.65.04.25.06.53.06.87Z"/>
      <path class="cls-1" d="M343.11,244.77c-1.27,0-2.37-.27-3.3-.81-.93-.54-1.65-1.28-2.16-2.23-.51-.95-.76-2.04-.76-3.28s.26-2.36.77-3.32c.51-.96,1.23-1.72,2.15-2.26.92-.55,1.99-.82,3.21-.82s2.3.27,3.2.81c.9.54,1.59,1.28,2.08,2.24.48.95.73,2.05.73,3.3,0,.15,0,.26,0,.35,0,.08-.01.16-.03.22h-1.64c0-.09.01-.19.02-.31,0-.11,0-.24,0-.39,0-.92-.17-1.73-.52-2.44-.35-.71-.85-1.27-1.49-1.68-.65-.41-1.42-.61-2.33-.61s-1.66.21-2.33.63c-.67.42-1.19.99-1.56,1.73-.37.73-.55,1.59-.55,2.56s.18,1.77.55,2.49c.36.72.89,1.28,1.56,1.69.68.41,1.48.61,2.41.61s1.81-.23,2.52-.69c.71-.46,1.24-1.08,1.59-1.87l1.57.59c-.45,1.08-1.18,1.94-2.17,2.57-1,.63-2.16.94-3.49.94ZM337.95,238.96v-1.28h10.54l.48,1.28h-11.03Z"/>
      <path class="cls-1" d="M147.17,272.4c-1.28,0-2.25-.28-2.91-.85s-.99-1.4-.99-2.5c0-1.02.29-1.79.88-2.32s1.52-.94,2.81-1.21l5.53-1.18v1.19l-5.25,1.19c-.75.18-1.32.44-1.69.78-.37.34-.56.82-.56,1.45,0,.68.21,1.18.62,1.52s1.02.5,1.82.5c.88,0,1.68-.2,2.38-.61.7-.41,1.25-1.01,1.65-1.8.4-.79.6-1.77.6-2.93l.44,2.72h-.59c-.19,1.28-.69,2.28-1.49,2.99-.8.71-1.89,1.06-3.25,1.06ZM152.96,272.24c-.32,0-.56-.1-.72-.3-.17-.2-.25-.48-.25-.84v-3.69l.15-.38-.08-1.4-.07-.73v-.93c0-.63-.13-1.15-.39-1.55s-.63-.7-1.11-.89-1.07-.29-1.75-.29c-1.02,0-1.81.2-2.37.61s-.93,1.01-1.11,1.82l-1.59-.33c.15-.81.44-1.48.87-2.01.42-.53.99-.93,1.69-1.2s1.56-.4,2.58-.4,1.95.15,2.67.44,1.26.75,1.63,1.36.55,1.39.55,2.35v6.93h1.81v1.43h-2.5Z"/>
      <path class="cls-1" d="M163.81,272.46c-1.28,0-2.39-.27-3.33-.81-.94-.54-1.67-1.28-2.19-2.23-.52-.95-.78-2.04-.78-3.28,0-.94.14-1.8.43-2.58s.69-1.46,1.22-2.03,1.16-1.02,1.89-1.33,1.55-.47,2.45-.47,1.59.14,2.17.42,1.03.66,1.36,1.15c.32.49.53,1.05.62,1.68h.4l-.33,1.74c-.1-.69-.33-1.3-.68-1.83s-.81-.94-1.38-1.23-1.23-.44-1.97-.44c-.89,0-1.67.21-2.35.63s-1.2,1-1.57,1.73c-.37.73-.56,1.59-.56,2.56s.19,1.77.57,2.49c.38.72.92,1.28,1.6,1.69.69.41,1.5.61,2.44.61s1.8-.21,2.5-.64,1.21-1,1.53-1.72l1.53.68c-.44.99-1.14,1.78-2.11,2.35s-2.12.87-3.48.87ZM167.72,264.73v-4.78h1.66v4.78h-1.66Z"/>
      <path class="cls-1" d="M175.92,272.4c-1.28,0-2.25-.28-2.91-.85s-.99-1.4-.99-2.5c0-1.02.29-1.79.88-2.32s1.52-.94,2.81-1.21l5.53-1.18v1.19l-5.25,1.19c-.75.18-1.32.44-1.69.78-.37.34-.56.82-.56,1.45,0,.68.21,1.18.62,1.52s1.02.5,1.82.5c.88,0,1.68-.2,2.38-.61.7-.41,1.25-1.01,1.65-1.8.4-.79.6-1.77.6-2.93l.44,2.72h-.59c-.19,1.28-.69,2.28-1.49,2.99-.8.71-1.89,1.06-3.25,1.06ZM181.71,272.24c-.32,0-.56-.1-.72-.3-.17-.2-.25-.48-.25-.84v-3.69l.15-.38-.08-1.4-.07-.73v-.93c0-.63-.13-1.15-.39-1.55s-.63-.7-1.11-.89-1.07-.29-1.75-.29c-1.02,0-1.81.2-2.37.61s-.93,1.01-1.11,1.82l-1.59-.33c.15-.81.44-1.48.87-2.01s.99-.93,1.69-1.2,1.56-.4,2.58-.4,1.95.15,2.67.44,1.26.75,1.63,1.36.55,1.39.55,2.35v6.93h1.81v1.43h-2.5Z"/>
      <path class="cls-1" d="M192.26,259.72c1.02,0,1.93.22,2.73.67s1.47,1.08,1.99,1.91c.52.83.87,1.82,1.04,2.97l-1.06.8c0-.95-.18-1.78-.55-2.51s-.89-1.3-1.56-1.71-1.48-.62-2.41-.62-1.71.21-2.39.62-1.2.99-1.56,1.72c-.36.73-.55,1.58-.55,2.54s.19,1.8.57,2.53c.38.73.91,1.31,1.59,1.72.68.42,1.46.63,2.35.63s1.72-.21,2.39-.63c.67-.42,1.2-1,1.57-1.74s.56-1.59.56-2.55l.25,2.62h-.39c-.14.68-.41,1.3-.81,1.87-.4.57-.93,1.04-1.58,1.38-.65.35-1.44.52-2.35.52-.85,0-1.64-.16-2.35-.47s-1.33-.75-1.86-1.33c-.52-.57-.93-1.25-1.22-2.02-.29-.78-.43-1.63-.43-2.55,0-1.25.25-2.35.75-3.31s1.2-1.71,2.11-2.26,1.97-.81,3.19-.81ZM196.88,272.24v-4.59l.07-.9v-1.47l-.07-1.62v-8.23h-3.31v-1.43h4.97v16.8h2.35v1.43h-4.01Z"/>
      <path class="cls-1" d="M208.94,272.46c-1.27,0-2.37-.27-3.3-.81-.93-.54-1.65-1.28-2.16-2.23-.51-.95-.76-2.04-.76-3.28s.26-2.36.77-3.32c.51-.96,1.23-1.71,2.15-2.26s1.99-.82,3.21-.82,2.3.27,3.2.81,1.59,1.28,2.08,2.24.73,2.05.73,3.3c0,.15,0,.26,0,.35s-.01.16-.03.22h-1.64c0-.09.01-.19.02-.31s0-.24,0-.39c0-.92-.17-1.73-.52-2.44-.35-.71-.85-1.27-1.49-1.68s-1.42-.61-2.33-.61-1.66.21-2.33.63-1.19,1-1.56,1.73-.55,1.59-.55,2.56.18,1.77.55,2.49c.36.72.89,1.28,1.56,1.69.68.41,1.48.61,2.41.61s1.81-.23,2.52-.69c.71-.46,1.24-1.08,1.59-1.87l1.57.59c-.45,1.08-1.18,1.94-2.17,2.57-1,.63-2.16.94-3.49.94ZM203.77,266.64v-1.28h10.54l.48,1.28h-11.03Z"/>
      <path class="cls-1" d="M217.14,272.24v-1.43h2.46v-9.42h-2.46v-1.43h4.12v10.86h2.18v1.43h-6.3ZM225.79,272.24v-1.43h2.17v-6.45c0-1.01-.22-1.8-.67-2.36s-1.14-.85-2.09-.85c-.76,0-1.44.2-2.03.6s-1.06.97-1.4,1.72c-.34.75-.51,1.64-.51,2.69l-.39-2.47h.47c.18-1.34.68-2.34,1.49-3s1.79-.99,2.94-.99c1.3,0,2.27.39,2.9,1.15s.95,1.85.95,3.25v6.71h2.35v1.43h-6.18ZM234.14,272.24v-1.43h2.17v-6.45c0-1.01-.22-1.8-.67-2.36-.45-.57-1.14-.85-2.09-.85-.76,0-1.44.2-2.03.6-.59.4-1.06.97-1.4,1.72-.34.75-.51,1.64-.51,2.69l-.4-2.47h.47c.19-1.34.69-2.34,1.49-3,.8-.66,1.78-.99,2.94-.99,1.3,0,2.27.39,2.9,1.15s.95,1.85.95,3.25v6.71h2.35v1.43h-6.18Z"/>
      <path class="cls-1" d="M248.65,259.95h5.72v1.43h-1.53l-5.08,12.49c-.42,1.03-1.06,1.82-1.92,2.38s-1.94.83-3.22.83h-1.21v-1.47h1.21c.86,0,1.61-.18,2.26-.54s1.11-.88,1.4-1.57l.88-2.16-.29,1.43-4.7-11.4h-1.7v-1.43h5.84v1.43h-2.33l4.14,10.35-1.51-1.34h1.59l-.87.78,3.84-9.79h-2.53v-1.43Z"/>
      <path class="cls-1" d="M262.58,272.24v-1.43h2.43v-9.42h-2.43v-1.43h2.43v-1.9c0-1.34.34-2.38,1.02-3.13s1.7-1.12,3.07-1.12c1.11,0,1.98.25,2.6.74.62.49,1.03,1.21,1.24,2.15l-1.5.46c-.14-.61-.4-1.06-.79-1.37s-.91-.46-1.55-.46c-.77,0-1.37.22-1.79.67s-.63,1.13-.63,2.06v1.9h4.08v1.43h-4.08v9.42h2.94v1.43h-7.04Z"/>
      <path class="cls-1" d="M278.94,272.46c-1.28,0-2.4-.27-3.36-.81s-1.71-1.29-2.25-2.23-.81-2.04-.81-3.28.27-2.35.81-3.32,1.29-1.72,2.25-2.27,2.08-.82,3.36-.82,2.4.27,3.36.82,1.71,1.3,2.25,2.27.81,2.07.81,3.32-.27,2.33-.81,3.28-1.29,1.69-2.25,2.23-2.08.81-3.36.81ZM278.94,270.92c.92,0,1.74-.2,2.44-.6.7-.4,1.25-.96,1.65-1.68.4-.72.59-1.55.59-2.51s-.2-1.81-.59-2.54c-.4-.73-.95-1.3-1.65-1.71s-1.52-.62-2.44-.62-1.74.21-2.44.62-1.25.98-1.65,1.71-.59,1.58-.59,2.54.2,1.79.59,2.51c.4.72.95,1.28,1.65,1.68.7.4,1.52.6,2.44.6Z"/>
      <path class="cls-1" d="M291.92,270.81h2.4v1.43h-6.59v-1.43h2.53v-9.42h-2.53v-1.43h4.19v10.86ZM296.64,261.72c-.14-.04-.29-.07-.44-.09s-.33-.03-.51-.03c-1.14,0-2.05.43-2.73,1.27-.68.85-1.03,2.03-1.03,3.54l-.39-2.69h.47c.11-.81.33-1.52.67-2.11s.78-1.04,1.32-1.36,1.18-.48,1.91-.48c.14,0,.26,0,.37.02s.23.03.36.05v1.88Z"/>
      <path class="cls-1" d="M150.43,287.64h5.72v1.43h-1.53l-5.08,12.5c-.42,1.03-1.06,1.82-1.92,2.38s-1.94.83-3.22.83h-1.21v-1.47h1.21c.86,0,1.61-.18,2.26-.54s1.11-.88,1.4-1.57l.88-2.16-.29,1.43-4.7-11.4h-1.7v-1.43h5.84v1.43h-2.33l4.14,10.35-1.51-1.34h1.59l-.87.78,3.84-9.8h-2.53v-1.43Z"/>
      <path class="cls-1" d="M163.57,300.15c-1.28,0-2.4-.27-3.36-.81s-1.71-1.29-2.25-2.23-.81-2.04-.81-3.28.27-2.35.81-3.32c.54-.97,1.29-1.72,2.25-2.27.96-.55,2.08-.82,3.36-.82s2.4.27,3.36.82c.96.55,1.71,1.3,2.25,2.27.54.96.81,2.07.81,3.32s-.27,2.33-.81,3.28-1.29,1.69-2.25,2.23-2.08.81-3.36.81ZM163.57,298.61c.92,0,1.74-.2,2.44-.6.7-.4,1.25-.96,1.65-1.68.4-.72.59-1.56.59-2.51s-.2-1.81-.59-2.54c-.4-.73-.95-1.3-1.65-1.71-.7-.41-1.52-.62-2.44-.62s-1.74.21-2.44.62c-.7.41-1.25.98-1.65,1.71-.4.73-.59,1.58-.59,2.54s.2,1.79.59,2.51c.4.72.95,1.28,1.65,1.68.7.4,1.52.6,2.44.6Z"/>
      <path class="cls-1" d="M175.64,287.64v7.83c0,1.01.22,1.8.67,2.38.45.58,1.16.87,2.13.87.78,0,1.47-.2,2.08-.59.61-.4,1.09-.97,1.45-1.71.35-.75.53-1.64.53-2.69l.4,2.46h-.48c-.21,1.32-.72,2.32-1.54,2.99-.82.67-1.82,1.01-3.02,1.01-1.32,0-2.3-.39-2.94-1.18s-.95-1.87-.95-3.26v-6.68h-2.23v-1.43h3.89ZM182.51,289.07h-2.38v-1.43h4.04v10.86h2.4v1.43h-4.06v-10.86Z"/>
      <path class="cls-1" d="M192.51,298.5h2.19v1.43h-6.38v-1.43h2.53v-9.43h-2.53v-1.43h4.19v10.86ZM199.59,298.5v-6.43c0-1.01-.23-1.8-.68-2.38-.45-.58-1.17-.87-2.15-.87-.79,0-1.51.2-2.16.59-.65.39-1.16.96-1.53,1.71-.38.75-.57,1.65-.57,2.71l-.38-2.46h.46c.15-.84.43-1.55.84-2.14.42-.59.95-1.04,1.6-1.35s1.4-.47,2.24-.47c1.34,0,2.34.39,2.99,1.16.66.77.99,1.86.99,3.27v6.64h2.36v1.43h-6.18v-1.43h2.16Z"/>
      <path class="cls-1" d="M211.26,305.03c-1.08,0-2.05-.1-2.92-.31-.87-.2-1.57-.52-2.08-.96s-.77-1.02-.77-1.74.26-1.27.78-1.64c.52-.37,1.19-.62,2.01-.73v-.2l2.05.2c-.85,0-1.52.1-2.01.31-.48.2-.83.46-1.03.78-.2.32-.3.65-.3.99,0,.52.19.93.58,1.22.39.29.9.5,1.55.62.65.12,1.38.18,2.19.18,1.62,0,2.81-.22,3.56-.65.75-.44,1.12-1.04,1.12-1.82,0-1.09-.71-1.64-2.12-1.64h-4.71c-.92,0-1.65-.17-2.17-.5s-.79-.82-.79-1.45.24-1.06.72-1.38c.48-.32,1.16-.51,2.04-.58v-.35l2.1.6h-1.26c-.66,0-1.17.09-1.51.27-.35.18-.52.46-.52.82,0,.35.16.59.48.74s.8.22,1.45.22h4.13c.79,0,1.47.13,2.02.39.56.26.98.62,1.27,1.1.29.48.43,1.05.43,1.71,0,.71-.2,1.35-.6,1.92-.4.57-1.06,1.03-1.98,1.36-.92.33-2.16.5-3.71.5ZM211.05,295.98c-.98,0-1.85-.18-2.61-.53-.76-.35-1.36-.85-1.8-1.49-.44-.64-.66-1.39-.66-2.25s.22-1.61.65-2.26c.43-.64,1.03-1.14,1.79-1.5s1.63-.54,2.62-.54,1.9.19,2.67.57c.77.38,1.36.9,1.77,1.57.2.31.35.64.44,1s.14.74.14,1.16c0,.86-.21,1.61-.65,2.25-.43.64-1.03,1.13-1.78,1.49-.76.35-1.63.53-2.6.53ZM211.05,294.62c.65,0,1.24-.12,1.75-.36.51-.24.92-.58,1.21-1.02s.44-.95.44-1.53-.15-1.1-.44-1.54c-.3-.44-.7-.79-1.21-1.03s-1.09-.36-1.75-.36-1.26.12-1.78.36-.92.59-1.22,1.03c-.3.44-.44.95-.44,1.54s.15,1.1.44,1.53c.3.44.7.78,1.22,1.02.52.24,1.11.36,1.77.36ZM216.08,291.71l-.58-1.35-.51-.83.46-.19c-.02-.08-.04-.16-.05-.24s-.02-.17-.02-.26c0-.32.08-.61.23-.88.15-.26.38-.47.67-.62.29-.15.65-.23,1.07-.23.11,0,.21,0,.29.01.09,0,.17.02.26.05v1.6c-.15-.02-.28-.04-.4-.05s-.25-.02-.37-.02c-.32,0-.58.05-.78.14s-.34.21-.42.35c-.09.14-.13.3-.13.47s.02.34.07.52c.05.19.09.41.13.65.04.25.06.53.06.87Z"/>
      <path class="cls-1" d="M230.63,298.5h2.53v1.43h-6.71v-1.43h2.53v-15.37h-2.53v-1.43h4.19v16.8Z"/>
      <path class="cls-1" d="M241.08,300.15c-1.27,0-2.37-.27-3.3-.81-.93-.54-1.65-1.28-2.16-2.23-.51-.95-.76-2.04-.76-3.28s.26-2.36.77-3.32c.51-.96,1.23-1.72,2.15-2.26.92-.55,1.99-.82,3.21-.82s2.3.27,3.2.81c.9.54,1.59,1.28,2.08,2.24.48.95.73,2.05.73,3.3,0,.15,0,.26,0,.35,0,.08-.01.16-.03.22h-1.64c0-.09.01-.19.02-.31,0-.11,0-.24,0-.39,0-.92-.17-1.73-.52-2.44-.35-.71-.85-1.27-1.49-1.68-.65-.41-1.42-.61-2.33-.61s-1.66.21-2.33.63c-.67.42-1.19.99-1.56,1.73-.37.73-.55,1.59-.55,2.56s.18,1.77.55,2.49c.36.72.89,1.28,1.56,1.69.68.41,1.48.61,2.41.61s1.81-.23,2.52-.69c.71-.46,1.24-1.08,1.59-1.87l1.57.59c-.45,1.08-1.18,1.94-2.17,2.57-1,.63-2.16.94-3.49.94ZM235.91,294.33v-1.28h10.54l.48,1.28h-11.03Z"/>
      <path class="cls-1" d="M253.47,300.09c-1.28,0-2.25-.28-2.91-.85s-.99-1.4-.99-2.5c0-1.02.29-1.79.88-2.32.58-.53,1.52-.94,2.81-1.21l5.53-1.18v1.19l-5.25,1.19c-.75.18-1.32.44-1.69.78-.37.34-.56.82-.56,1.45,0,.68.21,1.18.62,1.52s1.02.5,1.82.5c.88,0,1.68-.2,2.38-.61.7-.41,1.25-1.01,1.65-1.8.4-.79.6-1.77.6-2.93l.44,2.72h-.59c-.19,1.28-.69,2.28-1.49,2.99-.8.71-1.89,1.06-3.25,1.06ZM259.26,299.93c-.32,0-.56-.1-.72-.3-.17-.2-.25-.48-.25-.84v-3.69l.15-.38-.08-1.4-.07-.73v-.93c0-.63-.13-1.15-.39-1.55-.26-.4-.63-.7-1.11-.89-.48-.19-1.07-.29-1.75-.29-1.02,0-1.81.2-2.37.61-.56.4-.93,1.01-1.11,1.82l-1.59-.33c.15-.81.44-1.48.87-2.01.42-.53.99-.93,1.69-1.2s1.56-.4,2.58-.4,1.95.15,2.67.44c.72.3,1.26.75,1.63,1.36.37.61.55,1.39.55,2.35v6.93h1.81v1.43h-2.5Z"/>
      <path class="cls-1" d="M267.85,298.5h2.4v1.43h-6.59v-1.43h2.53v-9.43h-2.53v-1.43h4.19v10.86ZM272.57,289.41c-.14-.04-.29-.07-.44-.09s-.33-.03-.51-.03c-1.14,0-2.05.43-2.73,1.28-.68.85-1.03,2.03-1.03,3.54l-.39-2.69h.47c.11-.82.33-1.52.67-2.11.34-.59.78-1.04,1.32-1.36.54-.32,1.18-.48,1.91-.48.14,0,.26,0,.37.02s.23.03.36.05v1.88Z"/>
      <path class="cls-1" d="M278.35,298.5h2.19v1.43h-6.38v-1.43h2.53v-9.43h-2.53v-1.43h4.19v10.86ZM285.43,298.5v-6.43c0-1.01-.23-1.8-.68-2.38-.45-.58-1.17-.87-2.15-.87-.79,0-1.51.2-2.16.59-.65.39-1.16.96-1.53,1.71-.38.75-.57,1.65-.57,2.71l-.38-2.46h.46c.15-.84.43-1.55.84-2.14.42-.59.95-1.04,1.6-1.35s1.4-.47,2.24-.47c1.34,0,2.34.39,2.99,1.16.66.77.99,1.86.99,3.27v6.64h2.36v1.43h-6.18v-1.43h2.16Z"/>
      <path class="cls-1" d="M297.45,300.15c-1.27,0-2.37-.27-3.3-.81-.93-.54-1.65-1.28-2.16-2.23-.51-.95-.76-2.04-.76-3.28s.26-2.36.77-3.32c.51-.96,1.23-1.72,2.15-2.26.92-.55,1.99-.82,3.21-.82s2.3.27,3.2.81c.9.54,1.59,1.28,2.08,2.24.48.95.73,2.05.73,3.3,0,.15,0,.26,0,.35,0,.08-.01.16-.03.22h-1.64c0-.09.01-.19.02-.31,0-.11,0-.24,0-.39,0-.92-.17-1.73-.52-2.44-.35-.71-.85-1.27-1.49-1.68-.65-.41-1.42-.61-2.33-.61s-1.66.21-2.33.63c-.67.42-1.19.99-1.56,1.73-.37.73-.55,1.59-.55,2.56s.18,1.77.55,2.49c.36.72.89,1.28,1.56,1.69.68.41,1.48.61,2.41.61s1.81-.23,2.52-.69c.71-.46,1.24-1.08,1.59-1.87l1.57.59c-.45,1.08-1.18,1.94-2.17,2.57-1,.63-2.16.94-3.49.94ZM292.29,294.33v-1.28h10.54l.48,1.28h-11.03Z"/>
      <path class="cls-1" d="M309.84,298.5h2.4v1.43h-6.59v-1.43h2.53v-9.43h-2.53v-1.43h4.19v10.86ZM314.56,289.41c-.14-.04-.29-.07-.44-.09s-.33-.03-.51-.03c-1.14,0-2.05.43-2.73,1.28-.68.85-1.03,2.03-1.03,3.54l-.39-2.69h.47c.11-.82.33-1.52.67-2.11.34-.59.78-1.04,1.32-1.36.54-.32,1.18-.48,1.91-.48.14,0,.26,0,.37.02s.23.03.36.05v1.88Z"/>
      <path class="cls-1" d="M316.57,299.93v-3.88h1.66v3.88h-1.66ZM322.38,300.15c-.82,0-1.52-.12-2.08-.37-.57-.25-1.01-.58-1.34-.99-.33-.41-.55-.87-.65-1.38h-.42l.33-1.36c.15.81.55,1.47,1.21,1.97.66.51,1.51.76,2.57.76.9,0,1.6-.18,2.09-.55.5-.37.74-.9.74-1.6,0-.64-.25-1.13-.74-1.49-.49-.35-1.35-.62-2.58-.81-1.76-.28-3.02-.71-3.76-1.31-.75-.6-1.12-1.38-1.12-2.36s.34-1.77,1.03-2.37c.68-.59,1.64-.89,2.86-.89.81,0,1.48.12,2,.37.53.25.93.58,1.22.99.28.41.47.86.55,1.36h.42l-.33,1.3c-.14-.78-.51-1.42-1.13-1.92-.62-.5-1.42-.75-2.41-.75-.8,0-1.42.17-1.87.51-.45.34-.67.79-.67,1.35,0,.59.28,1.06.84,1.39s1.45.6,2.65.79c1.71.27,2.92.71,3.63,1.33.72.61,1.07,1.44,1.07,2.49,0,1.1-.35,1.96-1.06,2.58s-1.72.93-3.05.93ZM324.38,291.44v-3.8h1.66v3.8h-1.66Z"/>
    </g>
    <rect class="cls-3" x="144.35" y="204.47" width="208.33" height="1.76"/>
  </g>
</svg>