<?xml version="1.0" encoding="UTF-8"?>
<svg id="Capa_1" data-name="Capa 1" xmlns="http://www.w3.org/2000/svg" version="1.1" viewBox="0 0 124.5 46">
  <defs>
    <style>
      .cls-1 {
        fill: #fff;
        stroke-width: 0px;
      }
    </style>
  </defs>
  <g>
    <path class="cls-1" d="M20.7,9l-1.3,1.8C19.4,1.3,1.4,3.6,1.2,3.6l-.2-2.6c.2,0,14.4-1.2,19.7,8.5C26-.1,40.1,1,40.3,1v2.7s-4-.3-8.2.8c-5.4,1.4-8.8,1.4-10.1,6l-1.3-1.5Z"/>
    <circle class="cls-1" cx="29.4" cy="13.4" r="2.5"/>
    <g>
      <path class="cls-1" d="M20.7,16.1c-1.2,3.9-4.8,6.7-9.1,6.7s-4.4-.8-6-2.2c4.5,15.7,22.8,21.9,30.5,21.9,0-.5.2-12.9.3-22.5-1.7,1.7-4.1,2.8-6.7,2.8-4.2,0-7.8-2.9-9-6.7Z"/>
      <path class="cls-1" d="M20.7,14.2c1.6-5.1,6.4-8.8,12-8.8s4.1.5,5.8,1.4c-.6-.9-1.6-2.2-2.3-3-.1-.2-30.5-.5-30.5-.4-.9,1-2.3,2.5-3,3.6,1.8-1,3.9-1.5,6-1.5,5.7,0,10.4,3.6,12,8.7Z"/>
    </g>
    <circle class="cls-1" cx="12.8" cy="13.4" r="2.5"/>
  </g>
  <g>
    <rect class="cls-1" x="45.5" y="14.9" width="2.8" height="3.1"/>
    <rect class="cls-1" x="45.5" y="21.2" width="2.8" height="14.8"/>
    <path class="cls-1" d="M64.5,21.9c-1.2-.7-2.4-1-3.9-1s-2.3.3-3.4.8c-.8.4-1.5.9-2.1,1.6v-12.4h-2.8v25.2h2.6v-2.2c.6.7,1.2,1.3,2.1,1.7,1.1.6,2.3.9,3.5.9s2.7-.4,3.9-1c1.1-.7,2-1.6,2.7-2.8.6-1.2,1-2.5,1-3.9s-.3-2.7-1-3.9c-.5-1.4-1.4-2.3-2.6-3ZM65.5,28.7c0,1-.2,1.9-.7,2.6h0c-.5.8-1.1,1.5-1.9,2-1.6,1-3.6,1-5.2,0-.8-.5-1.4-1.1-1.9-1.9-.5-.8-.7-1.7-.7-2.6s.2-1.8.7-2.7c.4-.8,1.1-1.5,1.9-1.9.8-.5,1.7-.7,2.6-.7s1.8.2,2.6.7,1.4,1.2,1.9,2c.4.6.7,1.5.7,2.5Z"/>
    <path class="cls-1" d="M82.3,21.9c-1.2-.7-2.5-1-3.9-1s-2.8.4-3.9,1c-1.2.7-2.2,1.7-2.9,2.8-.7,1.2-1.1,2.5-1.1,3.9s.4,2.7,1.1,3.9,1.7,2.2,2.9,2.9c1.2.7,2.5,1,3.9,1s2.8-.4,4-1c1.2-.7,2.2-1.6,2.9-2.8.7-1.2,1-2.5,1-3.9s-.4-2.8-1-3.9c-.8-1.3-1.7-2.2-3-2.9ZM78.4,23.3c.9,0,1.8.2,2.6.7.8.5,1.4,1.2,1.9,2s.7,1.7.7,2.6-.2,1.9-.7,2.6h0c-.5.8-1.1,1.5-1.9,2-1.6,1-3.6,1-5.2,0-.8-.5-1.4-1.1-1.9-1.9-.5-.8-.7-1.7-.7-2.6s.2-1.8.7-2.7c.5-.8,1.1-1.5,1.9-1.9.8-.5,1.7-.8,2.6-.8Z"/>
    <path class="cls-1" d="M99.3,30.7c0,1-.3,1.7-1,2.4-.7.6-1.5.9-2.6.9s-1.9-.3-2.6-.9c-.7-.6-1-1.4-1-2.4v-9.4h-2.8v9.4c0,1.2.3,2.3.9,3.1.5.9,1.2,1.5,2.1,2s1.8.7,2.9.7c1.8,0,3.2-.6,4.2-1.6v1.2h2.6v-14.9h-2.8v9.5h.1Z"/>
    <polygon class="cls-1" points="119.4 21.2 116.3 21.2 112 26.7 107.9 21.3 107.8 21.2 104.5 21.2 110.3 28.5 104.2 36.1 107.3 36.1 111.8 30.3 116.5 36.1 119.8 36.1 113.6 28.5 119.4 21.2"/>
    <g>
      <path class="cls-1" d="M69.6,15.1h-3.9l-.9,2.5h-1.3l3.5-8.8h1.4l3.5,8.8h-1.3l-1-2.5ZM66.1,14h3l-1.5-4-1.5,4Z"/>
      <path class="cls-1" d="M73.4,14.6c0,1.4.9,2.1,1.8,2.1s1.5-.8,1.7-1.2l1,.4c-.3.9-1.1,1.9-2.7,1.9s-3-1.4-3-3.2,1.3-3.2,3-3.2,2.4,1,2.7,1.9l-1.1.4c0-.6-.6-1.3-1.6-1.3-.9,0-1.8.8-1.8,2.2Z"/>
      <path class="cls-1" d="M80.6,14.2l1.6-.2c.4,0,.5-.2.5-.4,0-.6-.4-1.1-1.3-1.1s-1.3.5-1.4,1.2l-1.1-.3c0-1.1,1.2-1.9,2.5-1.9s2.5,1,2.5,2.2v3c0,.5,0,.8,0,1h-1.1c0-.1,0-.4,0-.8-.3.4-.9,1-1.9,1s-2-.8-2-1.8c0-1.2.7-1.8,1.7-1.9ZM82.7,15v-.3l-1.9.3c-.5.1-.9.4-.9.9s.4.9,1,.9c1,0,1.8-.4,1.8-1.8Z"/>
      <path class="cls-1" d="M89.7,16.7c-.3.6-.9,1.1-1.9,1.1-1.8,0-2.8-1.4-2.8-3.2s1.1-3.1,2.8-3.1,1.6.5,1.8,1v-3.9h1.2v7.9c0,.6,0,1,0,1.1h-1.1c0-.1,0-.4,0-.9h0ZM88,16.7c1.1,0,1.7-.9,1.7-2.2s-.6-2.1-1.7-2.1-1.8.9-1.8,2.1.7,2.2,1.8,2.2Z"/>
      <path class="cls-1" d="M97.9,15.9c-.3,1.1-1.3,1.9-2.7,1.9s-3-1.2-3-3.2,1.4-3.2,2.9-3.2,2.9,1.3,2.9,3.1v.4h-4.5c0,1.1.8,1.8,1.8,1.8s1.5-.5,1.7-1.2l.9.4ZM96.8,14c0-.9-.6-1.5-1.6-1.5s-1.6.8-1.6,1.5h3.2ZM95.6,10.9h-1l1.1-1.9h1.5l-1.6,1.9Z"/>
      <path class="cls-1" d="M99.4,17.6v-6h1.1v.8c.4-.7,1.1-1,1.8-1s1.5.4,1.8,1.1c.5-.9,1.2-1.1,2-1.1s2.1.7,2.1,2.3v3.9h-1.2v-3.8c0-.8-.4-1.4-1.3-1.4s-1.4.6-1.4,1.5v3.6h-1.2v-3.8c0-.8-.4-1.4-1.3-1.4s-1.4.6-1.4,1.5v3.6h-1v.2Z"/>
      <path class="cls-1" d="M110.5,8.5c.5,0,.8.4.8.8s-.4.8-.8.8-.8-.4-.8-.8c0-.4.3-.8.8-.8ZM109.9,17.6v-6h1.2v6h-1.2Z"/>
      <path class="cls-1" d="M118.1,15.9c-.3,1.1-1.3,1.9-2.7,1.9s-3-1.2-3-3.2,1.4-3.2,2.9-3.2,2.9,1.3,2.9,3.1v.4h-4.5c0,1.1.8,1.8,1.8,1.8s1.5-.5,1.7-1.2l.9.4ZM117,14c0-.9-.6-1.5-1.6-1.5s-1.6.8-1.6,1.5h3.2Z"/>
    </g>
  </g>
  <rect class="cls-1" x="44.3" y="40.9" width="77.5" height="2.2"/>
  <rect class="cls-1" x="44.3" y="1.2" width="77.6" height="2.2"/>
</svg>