<?xml version="1.0" encoding="UTF-8"?>
<svg id="Layer_2" data-name="Layer 2" xmlns="http://www.w3.org/2000/svg" viewBox="0 0 844.28 230.06">
  <defs>
    <style>
      .cls-1 {
        fill: #fff;
        stroke-width: 0px;
      }
    </style>
  </defs>
  <g id="Layer_1-2" data-name="Layer 1">
    <g>
      <g>
        <g>
          <path class="cls-1" d="M152.25,60.68c.53,0,1-.19,1.4-.57.4-.38.6-.84.6-1.37s-.2-1-.6-1.4c-.4-.4-.87-.6-1.4-.6s-.99.2-1.37.6c-.38.4-.57.87-.57,1.4s.19.99.57,1.37c.38.38.84.57,1.37.57Z"/>
          <path class="cls-1" d="M184.25,59.54c1.07-3.66,1.94-7.35,2.63-11.09.69-3.73,1.03-7.41,1.03-11.03,0-1.37-.07-2.81-.2-4.31-.13-1.5-.37-2.88-.71-4.14-.34-1.26-.81-2.3-1.4-3.14-.59-.84-1.34-1.26-2.26-1.26-.31,0-.69.2-1.17.6-.48.4-.98,1.11-1.51,2.11-.53,1.01-1.07,2.41-1.6,4.2-.53,1.79-1.02,4.07-1.46,6.83-.44,2.76-.8,6.09-1.09,9.97-.29,3.89-.43,8.46-.43,13.71,0,1.75.02,3.53.06,5.34.04,1.81.09,3.53.14,5.17.06,1.64.12,3.14.2,4.51.08,1.37.15,2.5.23,3.37,1.29-3.2,2.61-6.56,3.94-10.08,1.33-3.52,2.53-7.11,3.6-10.77Z"/>
          <path class="cls-1" d="M237.59,83.17c-.29-.89-.64-1.62-1.06-2.17-.42-.55-.91-.83-1.49-.83-.23,0-.53.17-.91.51-.38.34-.57,1.09-.57,2.23,0,.72.09,1.49.29,2.28.19.8.49,1.59.89,2.37.4.78.89,1.52,1.49,2.23.59.7,1.29,1.3,2.09,1.8.11-.8.17-1.58.17-2.34,0-1.03-.08-2.08-.23-3.14-.15-1.07-.37-2.05-.66-2.94Z"/>
          <path class="cls-1" d="M308.73,0h-131.6c-34.63,0-62.8,28.17-62.8,62.8v13.08c0,12.21,3.51,23.61,9.56,33.26l-10.48,20.61c-.35.69-.29,1.52.16,2.15.39.55,1.02.87,1.69.87.1,0,.2,0,.3-.02l27.71-4.03c9.78,6.3,21.4,9.97,33.88,9.97h131.6c34.63,0,62.8-28.17,62.8-62.8v-13.08c0-34.63-28.17-62.8-62.8-62.8ZM147.45,56.71c.27-.63.64-1.18,1.11-1.66.48-.48,1.03-.85,1.66-1.11.63-.27,1.31-.4,2.03-.4s1.4.13,2.03.4c.63.27,1.18.64,1.66,1.11.48.48.85,1.03,1.11,1.66.27.63.4,1.3.4,2.03,0,1.45-.51,2.68-1.51,3.68-1.01,1.01-2.24,1.51-3.68,1.51s-2.68-.51-3.69-1.51c-1.01-1.01-1.51-2.24-1.51-3.68,0-.72.13-1.4.4-2.03ZM341.95,87.54c.04-.08-.13.31-.52,1.14-.38.84-.95,1.91-1.71,3.23-.76,1.31-1.7,2.75-2.8,4.31-1.11,1.56-2.37,3.02-3.8,4.37-1.43,1.35-3.02,2.48-4.77,3.37-1.75.89-3.64,1.34-5.66,1.34-2.51,0-4.77-.67-6.77-2-2-1.33-3.8-3.03-5.4-5.08-.65,1.14-1.28,2.29-1.88,3.43-.61,1.14-1.22,2.29-1.83,3.43-.42.8-1.07,1.2-1.94,1.2-.65,0-1.17-.23-1.57-.69-.4-.46-.6-.95-.6-1.49,0-.31.09-.65.29-1.03.76-1.49,1.54-2.97,2.34-4.46.8-1.49,1.64-2.95,2.51-4.4-1.3-2.25-2.4-4.54-3.31-6.89s-1.64-4.54-2.17-6.6l-3.37,6.97c-.12.25-.27.45-.44.62-.15.32-.34.73-.56,1.24-.44.97-1.01,2.08-1.71,3.31-.71,1.24-1.55,2.54-2.54,3.91s-2.09,2.64-3.31,3.8c-1.22,1.16-2.54,2.11-3.97,2.86-1.43.74-2.96,1.11-4.6,1.11-2.25,0-4.11-.64-5.6-1.91-1.49-1.28-2.59-3.09-3.31-5.46-1.33,2.17-2.88,3.88-4.66,5.14-1.77,1.26-3.55,1.89-5.34,1.89-1.45,0-2.74-.27-3.89-.8-1.14-.53-2.13-1.29-2.97-2.26-.84-.97-1.48-2.14-1.91-3.51-.38-1.18-.58-2.49-.63-3.93-.45.39-.92.76-1.42,1.1-1.16.78-2.47,1.4-3.91,1.86s-3.07.67-4.86.63c-.95,0-1.79-.08-2.51-.23-.57,1.14-1.26,2.2-2.06,3.17-.8.97-1.72,1.82-2.77,2.54-1.05.72-2.22,1.29-3.51,1.71-1.3.42-2.71.63-4.23.63-1.79,0-3.43-.31-4.91-.94-1.49-.63-2.78-1.51-3.89-2.63-1.11-1.12-1.96-2.48-2.57-4.06-.31-.81-.54-1.67-.7-2.57-.76.91-1.57,1.77-2.45,2.54-.99.88-2.06,1.6-3.2,2.17-1.14.57-2.32.86-3.54.86-1.98,0-3.66-.35-5.03-1.06-1.37-.7-2.5-1.49-3.37-2.37-.61,1.33-1.35,2.55-2.23,3.66-.88,1.11-1.85,2.07-2.91,2.89-1.07.82-2.2,1.46-3.4,1.91-1.2.46-2.43.69-3.69.69-2.32,0-4.31-.69-5.94-2.06-1.64-1.37-3-3.21-4.09-5.51-.89-1.89-1.61-4.04-2.18-6.43-.5.86-1.03,1.73-1.62,2.63-.88,1.33-1.84,2.66-2.88,3.97-1.05,1.31-2.16,2.5-3.34,3.54-1.18,1.05-2.42,1.89-3.71,2.54-1.29.65-2.61.97-3.94.97-1.71,0-3.22-.36-4.51-1.09-1.3-.72-2.39-1.69-3.28-2.91-.9-1.22-1.56-2.66-2-4.31-.44-1.66-.66-3.44-.66-5.34,0-5.49.34-10.95,1.03-16.4.08-.53.31-1,.71-1.4.4-.4.92-.6,1.57-.6.57,0,1.05.22,1.43.66.38.44.57.94.57,1.51,0,.23-.05.91-.14,2.06-.1,1.14-.21,2.51-.34,4.08-.13,1.58-.25,3.26-.34,5.03-.1,1.77-.14,3.4-.14,4.89,0,2.02.2,3.65.6,4.88.4,1.24.91,2.2,1.54,2.89.63.69,1.29,1.14,2,1.37.7.23,1.38.34,2.03.34,1.07,0,2.17-.38,3.31-1.14,1.14-.76,2.31-1.83,3.51-3.2s2.41-3.02,3.63-4.94c1.22-1.92,2.42-4.07,3.6-6.43.05-.1.11-.17.17-.25-.21-1.48-.39-3-.54-4.54-.32-3.35-.52-6.74-.6-10.17-.08-3.43-.11-6.68-.11-9.77,0-5.9.17-11.02.51-15.34.34-4.32.81-8,1.4-11.03.59-3.03,1.28-5.48,2.06-7.37.78-1.88,1.61-3.35,2.49-4.4.88-1.05,1.77-1.76,2.69-2.14.91-.38,1.81-.57,2.68-.57,1.41,0,2.66.42,3.74,1.26,1.09.84,2,2.01,2.74,3.51.74,1.51,1.3,3.32,1.68,5.46.38,2.13.57,4.48.57,7.03,0,4.08-.44,8.29-1.31,12.63-.88,4.34-2.01,8.68-3.4,13-1.39,4.32-2.94,8.57-4.66,12.74-1.71,4.17-3.41,8.12-5.09,11.86.23,1.87.57,3.65,1.03,5.34.46,1.7,1.05,3.2,1.77,4.51.72,1.31,1.58,2.36,2.57,3.14.99.78,2.13,1.17,3.43,1.17s2.51-.37,3.66-1.11c1.14-.74,2.13-1.71,2.97-2.91.84-1.2,1.49-2.56,1.97-4.09.48-1.52.71-3.08.71-4.68,0-1.07-.11-2.14-.31-3.23-.21-1.09-.53-2.06-.97-2.91-.44-.86-.98-1.55-1.63-2.08-.65-.53-1.43-.8-2.34-.8-.69,0-1.22.14-1.6.43-.38.29-.67.61-.86.97-.19.36-.31.71-.34,1.06-.04.34-.06.57-.06.69,0,.54.11,1.07.34,1.6.23.54.67,1.01,1.31,1.43.65.46.97,1.09.97,1.88,0,.65-.22,1.16-.66,1.54-.44.38-.92.57-1.46.57-.76,0-1.44-.23-2.03-.69-.59-.46-1.1-1.04-1.51-1.74-.42-.7-.74-1.46-.97-2.26-.23-.8-.34-1.54-.34-2.23,0-1.1.19-2.12.57-3.06.38-.93.9-1.73,1.57-2.4.66-.67,1.43-1.18,2.28-1.54s1.76-.54,2.71-.54c1.64,0,3.06.38,4.26,1.14,1.2.76,2.2,1.77,3,3.03.8,1.26,1.39,2.69,1.77,4.29.38,1.6.57,3.22.57,4.86,0,.95-.06,1.88-.17,2.8.15.31.4.71.74,1.2.34.5.8.97,1.37,1.43.57.46,1.26.86,2.06,1.2.8.34,1.73.51,2.8.51.91,0,1.86-.35,2.83-1.06.97-.7,1.9-1.58,2.8-2.63.89-1.05,1.72-2.17,2.49-3.37.76-1.2,1.39-2.31,1.89-3.34.19-.38.45-.67.79-.88.75-1.38,1.59-2.57,2.52-3.55,1.14-1.2,2.28-2.09,3.43-2.68,1.14-.59,2-.89,2.57-.89.65,0,1.13.17,1.46.51.32.34.48.8.48,1.37,0,.65-.2,1.13-.6,1.46-.4.32-.91.64-1.51.94-.61.31-1.26.73-1.94,1.29-.69.55-1.32,1.25-1.91,2.09-.59.84-1.08,1.83-1.46,2.97-.38,1.14-.57,2.42-.57,3.83,0,1.26.19,2.43.57,3.51.38,1.09.93,2.02,1.66,2.8.72.78,1.58,1.39,2.57,1.83s2.09.66,3.31.66c2.17,0,3.97-.5,5.4-1.51,1.43-1.01,2.52-2.3,3.29-3.86-2.25-1.18-4.1-2.86-5.54-5.03-1.45-2.17-2.17-4.61-2.17-7.31,0-2.17.52-3.94,1.57-5.31,1.05-1.37,2.43-2.06,4.14-2.06,1.03,0,2,.25,2.91.74.91.5,1.72,1.28,2.43,2.34.71,1.07,1.27,2.44,1.69,4.11.42,1.68.63,3.68.63,6,0,1.22-.15,2.5-.46,3.83.23.04.46.06.68.06h.74c1.29,0,2.46-.15,3.48-.46s1.96-.76,2.8-1.37,1.59-1.39,2.26-2.34c.67-.95,1.3-2.06,1.91-3.31.07-.13.18-.26.34-.39.46-1.73.96-3.22,1.49-4.44.61-1.39,1.45-2.81,2.51-4.26.19-.23.43-.4.71-.51.29-.11.58-.17.89-.17.61,0,1.11.22,1.51.66s.6.94.6,1.51c0,.23-.05.46-.14.69-.09.23-.2.46-.31.69-.19.34-.5.87-.91,1.57-.42.71-.86,1.63-1.31,2.77-.46,1.14-.86,2.49-1.2,4.03-.34,1.54-.52,3.31-.52,5.29,0,2.25.45,3.95,1.34,5.11.89,1.16,2.16,1.74,3.8,1.74.69,0,1.48-.22,2.37-.66.89-.44,1.77-1.11,2.63-2.03.86-.91,1.61-2.08,2.26-3.49.65-1.41,1.07-3.07,1.26-4.97l.86-9.83c.08-.57.32-1.05.74-1.43.42-.38.91-.57,1.49-.57.65,0,1.16.24,1.54.71.38.48.57,1.02.57,1.63l-.74,9.48c-.08.8-.05,1.85.09,3.14.13,1.3.41,2.57.83,3.83.42,1.26,1.05,2.33,1.88,3.23.84.9,1.94,1.34,3.31,1.34.99,0,1.96-.26,2.91-.77.95-.51,1.87-1.19,2.74-2.03.88-.84,1.69-1.78,2.43-2.83.74-1.05,1.43-2.1,2.06-3.17.63-1.07,1.17-2.09,1.63-3.06.46-.97.84-1.8,1.14-2.49.12-.27.28-.48.47-.67l5.94-12.42c.19-.34.46-.63.8-.86.34-.23.72-.34,1.14-.34.61,0,1.1.2,1.49.6.38.4.61.89.69,1.46.04.53.18,1.37.43,2.51.25,1.14.59,2.45,1.03,3.91.44,1.47.95,3.04,1.54,4.71.59,1.68,1.28,3.33,2.08,4.97,4.57-7.43,9.62-14.53,15.14-21.31.38-.49.93-.74,1.66-.74.61,0,1.12.21,1.54.63.42.42.63.91.63,1.49,0,.53-.17.99-.51,1.37-5.87,7.24-11.22,14.86-16.06,22.86,1.33,1.98,2.8,3.62,4.4,4.91,1.6,1.3,3.41,1.94,5.43,1.94,1.79,0,3.49-.51,5.08-1.54,1.6-1.03,3.06-2.29,4.37-3.8,1.31-1.51,2.46-3.12,3.43-4.86.97-1.73,1.72-3.3,2.26-4.71.38-.95,1.05-1.43,2-1.43.65,0,1.17.22,1.57.66s.6.94.6,1.51c0,.19-.04.44-.11.74Z"/>
        </g>
        <path class="cls-1" d="M59.75,153.34l-.85-.38c-1.04-.47-6.25-3-6.25-6.91s3.18-7.09,7.09-7.09,7.09,3.18,7.09,7.09-5.2,6.45-6.25,6.91l-.85.38ZM59.75,143.1c-1.62,0-2.94,1.32-2.94,2.94,0,.6,1.38,1.83,2.94,2.7,1.58-.88,2.94-2.09,2.94-2.7,0-1.62-1.32-2.94-2.94-2.94Z"/>
        <path class="cls-1" d="M42.48,143.1c-9.27,0-16.8-7.54-16.8-16.81v-.47c0-9.27,7.54-16.8,16.8-16.8s16.8,7.54,16.8,16.8v.47c0,9.27-7.54,16.81-16.8,16.81ZM42.48,113.18c-6.98,0-12.65,5.68-12.65,12.65v.47c0,6.98,5.68,12.65,12.65,12.65s12.65-5.68,12.65-12.65v-.47c0-6.98-5.68-12.65-12.65-12.65Z"/>
        <path class="cls-1" d="M77.56,143.1c-9.27,0-16.8-7.54-16.8-16.81v-.47c0-9.27,7.54-16.8,16.8-16.8s16.8,7.54,16.8,16.8v.47c0,9.27-7.54,16.81-16.8,16.81ZM77.56,113.18c-6.98,0-12.65,5.68-12.65,12.65v.47c0,6.98,5.68,12.65,12.65,12.65s12.65-5.68,12.65-12.65v-.47c0-6.98-5.68-12.65-12.65-12.65Z"/>
        <ellipse class="cls-1" cx="39.02" cy="127.86" rx="4.4" ry="4.29"/>
        <ellipse class="cls-1" cx="74.09" cy="127.86" rx="4.4" ry="4.29"/>
        <path class="cls-1" d="M64.75,105.67c-.7,0-1.38-.35-1.77-.99-.6-.98-.29-2.26.69-2.85,5.07-3.1,10.21-4.74,15.29-4.89,2.81-.09,5.12.3,7.15.63,3.08.51,5.3.87,8.16-.42.98-.44,3.58-1.61,4.81-4.28.48-1.03.7-2.18.67-3.4-.03-1.15.88-2.1,2.03-2.12h.05c1.12,0,2.05.9,2.07,2.03.04,1.86-.31,3.63-1.05,5.24-1.88,4.08-5.64,5.77-6.87,6.33-4.01,1.8-7.18,1.28-10.54.73-1.94-.32-3.94-.64-6.36-.58-4.34.13-8.8,1.57-13.25,4.28-.34.21-.71.3-1.08.3Z"/>
        <path class="cls-1" d="M53.49,105.67c-.37,0-.74-.1-1.08-.3-4.45-2.72-8.9-4.16-13.25-4.28-2.41-.06-4.42.26-6.36.58-3.36.55-6.53,1.08-10.54-.73-1.24-.56-4.99-2.25-6.87-6.33-.74-1.61-1.1-3.37-1.05-5.23.03-1.13.95-2.03,2.07-2.03h.05c1.15.03,2.05.98,2.03,2.12-.03,1.23.2,2.37.67,3.4,1.23,2.67,3.83,3.84,4.81,4.28,2.86,1.29,5.09.92,8.16.42,2.03-.33,4.34-.72,7.15-.63,5.08.15,10.22,1.79,15.29,4.89.98.6,1.29,1.88.69,2.85-.39.64-1.07.99-1.77.99Z"/>
        <g>
          <path class="cls-1" d="M159.39,155.92h2.97l10.68,29.33h-2.41l-2.41-6.62h-14.68l-2.41,6.62h-2.41l10.66-29.33ZM154.36,176.36h13.03l-6.51-17.87-6.51,17.87Z"/>
          <path class="cls-1" d="M189.3,185.79c-1.98,0-3.85-.39-5.59-1.18-1.75-.79-3.28-1.88-4.6-3.27-1.32-1.39-2.35-3.01-3.1-4.85-.75-1.84-1.12-3.81-1.12-5.91s.37-4.06,1.12-5.91c.75-1.84,1.78-3.46,3.1-4.85,1.32-1.39,2.85-2.48,4.6-3.27s3.61-1.18,5.59-1.18c2.37,0,4.56.55,6.56,1.66,2,1.1,3.65,2.57,4.96,4.4l-1.99,1.09c-1.1-1.49-2.5-2.68-4.2-3.56s-3.47-1.32-5.33-1.32c-1.7,0-3.29.34-4.76,1.03-1.47.68-2.75,1.62-3.86,2.82-1.11,1.19-1.98,2.57-2.6,4.14-.62,1.56-.93,3.22-.93,4.96s.31,3.46.94,5.02c.63,1.56,1.5,2.93,2.62,4.13,1.12,1.19,2.41,2.13,3.87,2.8,1.47.67,3.04,1.01,4.71,1.01,1.94,0,3.75-.45,5.42-1.34,1.67-.89,3.04-2.06,4.12-3.5l1.99,1.07c-1.31,1.83-2.97,3.29-4.96,4.39-2,1.1-4.18,1.64-6.56,1.64Z"/>
          <path class="cls-1" d="M214.92,155.92h2.97l10.68,29.33h-2.41l-2.41-6.62h-14.68l-2.41,6.62h-2.41l10.66-29.33ZM209.89,176.36h13.03l-6.51-17.87-6.51,17.87Z"/>
          <path class="cls-1" d="M232.6,185.25v-29.33h9.7c2.02,0,3.92.38,5.7,1.14,1.77.76,3.33,1.81,4.67,3.16,1.34,1.35,2.39,2.9,3.15,4.67.76,1.77,1.14,3.66,1.14,5.69s-.38,3.92-1.14,5.69c-.76,1.77-1.81,3.32-3.15,4.67-1.34,1.35-2.9,2.4-4.67,3.16-1.77.76-3.67,1.14-5.7,1.14h-9.7ZM234.86,182.98h7.44c1.72,0,3.32-.32,4.82-.96,1.49-.64,2.81-1.53,3.95-2.67,1.14-1.14,2.03-2.45,2.67-3.95.64-1.49.96-3.1.96-4.82s-.32-3.32-.96-4.82c-.64-1.49-1.54-2.81-2.68-3.95-1.14-1.14-2.46-2.03-3.96-2.67-1.49-.64-3.09-.96-4.8-.96h-7.44v24.8Z"/>
          <path class="cls-1" d="M260.94,185.25v-29.33h17.68v2.26h-15.42v10.22h12.9v2.26h-12.9v12.32h15.42v2.26h-17.68Z"/>
          <path class="cls-1" d="M283.23,185.25l5.68-29.33h1.49l8.53,22.43,8.5-22.43h1.49l5.7,29.33h-2.3l-4.61-23.75-8.11,21.45h-1.38l-8.09-21.45-4.61,23.75h-2.28Z"/>
          <path class="cls-1" d="M336.39,155.92h2.66l-9.82,16.02v13.3h-2.26v-13.3l-9.8-16.02h2.66l8.27,13.55,8.3-13.55Z"/>
        </g>
        <path class="cls-1" d="M138.23,154.82c-.42-4.18-2.44-7.53-5.99-9.94-6.39-4.34-17.14-5.05-28.55-3.85-1.28-10.55-3.7-21.21-7.3-31.78-.37-1.09-1.55-1.67-2.63-1.3-1.09.37-1.67,1.55-1.3,2.63,8.34,24.55,10.32,49.57,5.72,72.36-4.46,22.07-12.53,31.04-16.95,34.42-8.16,6.25-19.23,9.23-31.15,8.4-4.24-.29-7.95-.99-11.24-1.93,12.66-8.18,25.11-23.27,25.11-38.18,0-20.8-14.34-37.71-31.98-37.71-7.86,0-15.06,3.37-20.64,8.94.6-14.92,2.42-30.14,5.55-45.5.23-1.12-.5-2.22-1.62-2.45-1.12-.23-2.22.5-2.45,1.62-3.55,17.43-5.46,34.7-5.8,51.57-4.38,6.46-7.01,14.64-7.01,23.53,0,14.58,3.19,32.91,12.14,40.63,2.91,2.51,6.21,3.77,9.85,3.77.81,0,1.63-.06,2.47-.19,2.92-.43,6.17-1.56,9.51-3.25,4.39,1.63,9.61,2.85,15.81,3.28,1.4.1,2.79.15,4.17.15,11.34,0,21.79-3.27,29.79-9.39,3.8-2.91,7.21-7.18,10.15-12.57,1.59-.31,3.18-.66,4.78-1.11,23.64-6.69,41.11-36.8,39.55-52.16ZM23.86,225.77c-3.43.5-6.38-.35-9.01-2.62-7.9-6.82-10.7-24.46-10.7-37.49,0-18.51,12.48-33.56,27.82-33.56s27.82,15.06,27.82,33.56-22.4,38.11-35.94,40.11ZM97.55,202.99c-.44.12-.87.21-1.31.32,2.49-5.64,4.52-12.21,6.01-19.54,2.5-12.37,3.1-25.38,1.88-38.6,3.09-.33,6.14-.53,9.03-.53,6.85,0,12.86,1.04,16.74,3.68,2.53,1.72,3.9,3.98,4.2,6.92,1.39,13.7-15.11,41.68-36.55,47.75Z"/>
      </g>
      <g>
        <path class="cls-1" d="M470.25,42.36v9.74h-3.38v-6.65h-17.41v27.73h6.54v3.09h-15.35v-3.09h5.46v-27.73h-5.46v-3.09h29.6ZM461.75,57.67v3h-13.75v-3h13.75Z"/>
        <path class="cls-1" d="M480.09,73.48h4.69v2.8h-12.87v-2.8h4.94v-18.42h-4.94v-2.8h8.18v21.22ZM489.31,55.71c-.27-.07-.56-.14-.87-.18s-.64-.07-1-.07c-2.22,0-4.01.83-5.34,2.49-1.34,1.66-2.01,3.96-2.01,6.91l-.77-5.25h.92c.21-1.59.65-2.96,1.31-4.11.66-1.15,1.52-2.04,2.58-2.66,1.06-.62,2.3-.94,3.73-.94.27,0,.51.01.73.03.22.02.45.06.71.1v3.67Z"/>
        <path class="cls-1" d="M504.41,76.7c-2.48,0-4.63-.53-6.45-1.58-1.82-1.05-3.22-2.51-4.22-4.36-.99-1.86-1.49-3.99-1.49-6.41s.5-4.61,1.5-6.49c1-1.88,2.4-3.35,4.19-4.42s3.89-1.6,6.28-1.6,4.49.53,6.25,1.58c1.76,1.05,3.11,2.51,4.06,4.38.95,1.86,1.42,4.01,1.42,6.45,0,.29,0,.51-.01.68,0,.16-.03.31-.06.43h-3.2c.01-.18.03-.38.03-.6,0-.22.01-.47.01-.75,0-1.79-.34-3.38-1.03-4.77-.68-1.39-1.66-2.48-2.92-3.28-1.26-.8-2.78-1.2-4.56-1.2s-3.25.41-4.55,1.23-2.32,1.95-3.04,3.38c-.72,1.44-1.08,3.1-1.08,5s.36,3.45,1.07,4.86c.71,1.41,1.73,2.51,3.05,3.3,1.32.8,2.89,1.2,4.71,1.2s3.54-.45,4.93-1.34c1.39-.89,2.42-2.12,3.1-3.66l3.07,1.15c-.89,2.12-2.3,3.79-4.25,5.02-1.95,1.22-4.22,1.84-6.82,1.84ZM494.31,65.34v-2.5h20.61l.95,2.5h-21.56Z"/>
        <path class="cls-1" d="M528.63,73.48h4.28v2.8h-12.47v-2.8h4.94v-18.42h-4.94v-2.8h8.18v21.22ZM542.47,73.48v-12.56c0-1.97-.44-3.52-1.33-4.64-.89-1.13-2.28-1.69-4.19-1.69-1.55,0-2.95.38-4.22,1.15-1.26.77-2.26,1.88-3,3.34-.74,1.46-1.1,3.22-1.1,5.3l-.74-4.8h.9c.29-1.64.83-3.03,1.65-4.18.81-1.15,1.85-2.03,3.12-2.64s2.73-.91,4.39-.91c2.62,0,4.57.76,5.85,2.27,1.28,1.51,1.93,3.64,1.93,6.39v12.99h4.62v2.8h-12.09v-2.8h4.22Z"/>
        <path class="cls-1" d="M566.15,76.7c-2.49,0-4.66-.53-6.5-1.58-1.84-1.05-3.27-2.51-4.28-4.36-1.01-1.86-1.52-3.99-1.52-6.41,0-1.83.28-3.51.83-5.04.56-1.53,1.35-2.85,2.39-3.97,1.04-1.12,2.27-1.98,3.7-2.59,1.43-.61,3.02-.91,4.78-.91s3.11.27,4.25.82c1.13.55,2.02,1.3,2.65,2.25s1.04,2.05,1.22,3.28h.79l-.65,3.4c-.19-1.35-.64-2.54-1.33-3.57-.69-1.03-1.59-1.83-2.71-2.41-1.11-.58-2.4-.87-3.86-.87-1.74,0-3.27.41-4.59,1.23-1.32.82-2.34,1.95-3.07,3.38-.73,1.44-1.09,3.1-1.09,5s.37,3.45,1.12,4.86c.74,1.41,1.79,2.51,3.13,3.3,1.34.8,2.93,1.2,4.77,1.2s3.52-.42,4.89-1.25c1.37-.83,2.37-1.96,3-3.37l3,1.33c-.86,1.94-2.23,3.47-4.11,4.6-1.89,1.13-4.15,1.69-6.8,1.69ZM573.79,61.59v-9.33h3.25v9.33h-3.25Z"/>
        <path class="cls-1" d="M589.15,73.48h4.26v2.8h-12.33v-2.8h4.82v-30.03h-4.82v-2.79h8.07v32.83ZM602.99,73.48v-12.63c0-1.95-.44-3.49-1.32-4.6-.88-1.11-2.26-1.67-4.14-1.67-1.58,0-3,.4-4.26,1.21-1.26.8-2.27,1.97-3.01,3.49-.74,1.53-1.12,3.36-1.12,5.51l-.77-4.8h.9c.3-1.76.87-3.25,1.7-4.48.83-1.22,1.9-2.16,3.19-2.81,1.29-.65,2.77-.97,4.44-.97,2.62,0,4.54.75,5.77,2.26,1.23,1.5,1.85,3.62,1.85,6.34v13.14h4.6v2.8h-12.08v-2.8h4.24Z"/>
        <path class="cls-1" d="M635.39,73.48h4.94v2.8h-13.12v-2.8h4.94v-30.03h-4.94v-2.79h8.18v32.83Z"/>
        <path class="cls-1" d="M651.96,76.59c-2.5,0-4.39-.55-5.68-1.66-1.29-1.1-1.94-2.73-1.94-4.88,0-1.98.57-3.5,1.71-4.54,1.14-1.04,2.98-1.83,5.5-2.36l10.8-2.3v2.32l-10.26,2.32c-1.47.35-2.58.85-3.31,1.52-.73.67-1.09,1.61-1.09,2.83,0,1.32.41,2.31,1.22,2.96.81.65,2,.98,3.56.98,1.73,0,3.28-.4,4.64-1.2,1.37-.8,2.44-1.97,3.22-3.52.78-1.55,1.17-3.46,1.17-5.73l.86,5.32h-1.15c-.38,2.51-1.35,4.46-2.92,5.84-1.57,1.38-3.69,2.08-6.35,2.08ZM663.28,76.27c-.62,0-1.08-.19-1.41-.59-.32-.39-.49-.94-.49-1.65v-7.21l.29-.74-.16-2.73-.14-1.42v-1.83c0-1.23-.25-2.24-.75-3.02-.5-.78-1.23-1.36-2.18-1.74-.95-.37-2.09-.56-3.43-.56-2,0-3.54.4-4.63,1.18-1.09.79-1.82,1.97-2.18,3.55l-3.11-.65c.3-1.58.87-2.89,1.69-3.93.83-1.05,1.93-1.83,3.3-2.34,1.38-.52,3.05-.78,5.04-.78s3.81.29,5.22.87c1.4.58,2.47,1.46,3.19,2.65.72,1.19,1.08,2.72,1.08,4.6v13.55h3.54v2.8h-4.89Z"/>
        <path class="cls-1" d="M680.08,73.48h4.28v2.8h-12.47v-2.8h4.94v-18.42h-4.94v-2.8h8.18v21.22ZM693.92,73.48v-12.56c0-1.97-.44-3.52-1.33-4.64-.89-1.13-2.29-1.69-4.19-1.69-1.55,0-2.95.38-4.22,1.15-1.26.77-2.26,1.88-3,3.34s-1.1,3.22-1.1,5.3l-.74-4.8h.9c.29-1.64.83-3.03,1.65-4.18.81-1.15,1.85-2.03,3.12-2.64,1.27-.61,2.73-.91,4.38-.91,2.62,0,4.57.76,5.85,2.27,1.28,1.51,1.93,3.64,1.93,6.39v12.99h4.62v2.8h-12.08v-2.8h4.22Z"/>
        <path class="cls-1" d="M716.71,86.24c-2.1,0-4.01-.2-5.71-.6-1.71-.4-3.06-1.03-4.07-1.88-1.01-.86-1.51-1.99-1.51-3.4s.51-2.48,1.52-3.21c1.02-.73,2.33-1.21,3.94-1.43v-.38l4.01.38c-1.67,0-2.98.2-3.92.6-.95.4-1.62.91-2.01,1.53-.39.62-.59,1.27-.59,1.93,0,1.02.37,1.82,1.13,2.39s1.76.98,3.03,1.22,2.69.36,4.27.36c3.17,0,5.49-.42,6.96-1.27,1.47-.85,2.2-2.03,2.2-3.55,0-2.13-1.38-3.2-4.15-3.2h-9.2c-1.8,0-3.22-.33-4.25-.98s-1.55-1.6-1.55-2.83.47-2.07,1.4-2.7c.93-.62,2.26-1,3.99-1.14v-.68l4.1,1.17h-2.46c-1.29,0-2.28.18-2.95.53-.67.35-1.01.89-1.01,1.61,0,.68.31,1.16.94,1.45.62.29,1.57.44,2.83.44h8.07c1.55,0,2.87.25,3.96.76,1.09.5,1.92,1.22,2.48,2.15.56.93.85,2.04.85,3.34,0,1.38-.39,2.63-1.17,3.75-.78,1.12-2.07,2.01-3.87,2.66-1.8.65-4.21.98-7.25.98ZM716.31,68.56c-1.91,0-3.61-.35-5.09-1.04-1.49-.69-2.66-1.66-3.52-2.91-.86-1.25-1.28-2.71-1.28-4.4s.43-3.15,1.27-4.41c.85-1.26,2.01-2.23,3.5-2.93,1.48-.7,3.19-1.05,5.13-1.05s3.71.37,5.22,1.1,2.66,1.76,3.46,3.07c.39.6.68,1.25.87,1.95.19.7.28,1.45.28,2.27,0,1.68-.42,3.15-1.26,4.4-.84,1.25-2,2.22-3.48,2.91-1.48.69-3.18,1.04-5.08,1.04ZM716.31,65.9c1.28,0,2.42-.23,3.42-.7,1-.47,1.79-1.13,2.37-1.98.58-.86.87-1.86.87-3s-.29-2.14-.87-3.01c-.58-.86-1.37-1.53-2.37-2.01-1-.47-2.14-.71-3.42-.71s-2.46.24-3.47.71c-1.01.47-1.8,1.14-2.38,2.01-.58.87-.87,1.87-.87,3.01s.29,2.14.87,3c.58.86,1.38,1.52,2.39,1.98s2.17.7,3.46.7ZM726.14,60.22l-1.13-2.64-.99-1.62.9-.36c-.04-.15-.08-.3-.1-.46-.02-.16-.03-.33-.03-.51,0-.63.15-1.2.45-1.71.3-.51.74-.92,1.31-1.22.57-.3,1.27-.45,2.1-.45.21,0,.4,0,.57.02s.34.04.51.09v3.13c-.29-.04-.55-.08-.79-.1-.24-.02-.48-.03-.72-.03-.63,0-1.14.09-1.52.27s-.66.41-.82.69c-.16.28-.25.58-.25.91s.05.66.14,1.03c.09.37.18.79.26,1.27.08.48.12,1.04.12,1.69Z"/>
        <path class="cls-1" d="M739.76,52.26v15.31c0,1.97.44,3.52,1.32,4.65.88,1.14,2.27,1.7,4.16,1.7,1.52,0,2.88-.39,4.07-1.16,1.2-.77,2.14-1.89,2.83-3.35.69-1.46,1.04-3.21,1.04-5.25l.79,4.8h-.95c-.41,2.59-1.41,4.54-3.01,5.85-1.6,1.32-3.57,1.97-5.9,1.97-2.59,0-4.5-.77-5.74-2.3-1.24-1.53-1.86-3.66-1.86-6.38v-13.05h-4.35v-2.8h7.6ZM753.17,55.06h-4.65v-2.8h7.89v21.22h4.69v2.8h-7.94v-21.22Z"/>
        <path class="cls-1" d="M772.72,76.59c-2.5,0-4.39-.55-5.68-1.66-1.29-1.1-1.94-2.73-1.94-4.88,0-1.98.57-3.5,1.71-4.54,1.14-1.04,2.98-1.83,5.5-2.36l10.8-2.3v2.32l-10.26,2.32c-1.47.35-2.58.85-3.31,1.52-.73.67-1.09,1.61-1.09,2.83,0,1.32.41,2.31,1.22,2.96.81.65,2,.98,3.56.98,1.73,0,3.28-.4,4.64-1.2,1.37-.8,2.44-1.97,3.22-3.52.78-1.55,1.17-3.46,1.17-5.73l.86,5.32h-1.15c-.38,2.51-1.35,4.46-2.92,5.84-1.57,1.38-3.69,2.08-6.35,2.08ZM784.04,76.27c-.62,0-1.08-.19-1.41-.59-.32-.39-.49-.94-.49-1.65v-7.21l.29-.74-.16-2.73-.14-1.42v-1.83c0-1.23-.25-2.24-.75-3.02-.5-.78-1.23-1.36-2.18-1.74-.95-.37-2.09-.56-3.43-.56-2,0-3.54.4-4.63,1.18-1.09.79-1.82,1.97-2.18,3.55l-3.11-.65c.3-1.58.87-2.89,1.69-3.93.83-1.05,1.93-1.83,3.3-2.34,1.38-.52,3.05-.78,5.04-.78s3.81.29,5.22.87c1.4.58,2.47,1.46,3.19,2.65.72,1.19,1.08,2.72,1.08,4.6v13.55h3.54v2.8h-4.89Z"/>
        <path class="cls-1" d="M804.35,86.24c-2.11,0-4.01-.2-5.72-.6-1.71-.4-3.06-1.03-4.07-1.88-1.01-.86-1.51-1.99-1.51-3.4s.51-2.48,1.52-3.21c1.01-.73,2.32-1.21,3.93-1.43v-.38l4.01.38c-1.67,0-2.98.2-3.92.6-.95.4-1.62.91-2.01,1.53-.39.62-.59,1.27-.59,1.93,0,1.02.38,1.82,1.13,2.39.75.57,1.76.98,3.03,1.22s2.7.36,4.27.36c3.17,0,5.49-.42,6.96-1.27s2.2-2.03,2.2-3.55c0-2.13-1.38-3.2-4.15-3.2h-9.2c-1.8,0-3.22-.33-4.25-.98s-1.54-1.6-1.54-2.83.46-2.07,1.4-2.7c.93-.62,2.26-1,3.99-1.14v-.68l4.1,1.17h-2.46c-1.29,0-2.28.18-2.95.53-.68.35-1.02.89-1.02,1.61,0,.68.31,1.16.94,1.45.62.29,1.57.44,2.83.44h8.07c1.55,0,2.87.25,3.96.76,1.09.5,1.92,1.22,2.48,2.15.56.93.85,2.04.85,3.34,0,1.38-.39,2.63-1.17,3.75-.78,1.12-2.07,2.01-3.87,2.66-1.8.65-4.21.98-7.25.98ZM803.95,68.56c-1.91,0-3.61-.35-5.1-1.04-1.49-.69-2.66-1.66-3.52-2.91-.86-1.25-1.29-2.71-1.29-4.4s.42-3.15,1.27-4.41c.85-1.26,2.01-2.23,3.49-2.93s3.19-1.05,5.13-1.05,3.71.37,5.22,1.1c1.51.74,2.66,1.76,3.46,3.07.39.6.68,1.25.87,1.95.19.7.28,1.45.28,2.27,0,1.68-.42,3.15-1.26,4.4-.84,1.25-2,2.22-3.48,2.91-1.48.69-3.18,1.04-5.08,1.04ZM803.95,65.9c1.28,0,2.42-.23,3.42-.7s1.79-1.13,2.37-1.98c.58-.86.87-1.86.87-3s-.29-2.14-.87-3.01c-.58-.86-1.37-1.53-2.37-2.01-1-.47-2.14-.71-3.42-.71s-2.47.24-3.47.71c-1.01.47-1.8,1.14-2.38,2.01-.58.87-.87,1.87-.87,3.01s.29,2.14.87,3c.58.86,1.38,1.52,2.39,1.98s2.17.7,3.46.7ZM813.78,60.22l-1.13-2.64-.99-1.62.9-.36c-.04-.15-.08-.3-.1-.46-.02-.16-.03-.33-.03-.51,0-.63.15-1.2.45-1.71.3-.51.74-.92,1.31-1.22.57-.3,1.27-.45,2.1-.45.21,0,.4,0,.58.02s.34.04.51.09v3.13c-.29-.04-.55-.08-.79-.1-.24-.02-.48-.03-.72-.03-.63,0-1.14.09-1.52.27s-.66.41-.82.69c-.17.28-.25.58-.25.91s.04.66.14,1.03c.09.37.18.79.26,1.27.08.48.12,1.04.12,1.69Z"/>
        <path class="cls-1" d="M832.74,76.7c-2.48,0-4.63-.53-6.45-1.58-1.82-1.05-3.22-2.51-4.21-4.36-.99-1.86-1.49-3.99-1.49-6.41s.5-4.61,1.5-6.49,2.4-3.35,4.19-4.42c1.8-1.07,3.89-1.6,6.28-1.6s4.49.53,6.25,1.58c1.76,1.05,3.11,2.51,4.06,4.38.95,1.86,1.42,4.01,1.42,6.45,0,.29,0,.51-.01.68,0,.16-.03.31-.05.43h-3.2c.01-.18.03-.38.03-.6,0-.22.01-.47.01-.75,0-1.79-.34-3.38-1.03-4.77-.68-1.39-1.66-2.48-2.92-3.28-1.26-.8-2.78-1.2-4.55-1.2s-3.25.41-4.55,1.23c-1.31.82-2.32,1.95-3.05,3.38-.72,1.44-1.08,3.1-1.08,5s.36,3.45,1.07,4.86c.71,1.41,1.73,2.51,3.06,3.3,1.32.8,2.89,1.2,4.71,1.2s3.54-.45,4.93-1.34,2.42-2.12,3.1-3.66l3.07,1.15c-.89,2.12-2.3,3.79-4.25,5.02-1.95,1.22-4.22,1.84-6.82,1.84ZM822.64,65.34v-2.5h20.61l.95,2.5h-21.56Z"/>
        <path class="cls-1" d="M449.78,130.7c-2.49,0-4.39-.55-5.68-1.66-1.29-1.1-1.94-2.73-1.94-4.88,0-1.98.57-3.5,1.71-4.54,1.14-1.04,2.98-1.83,5.5-2.36l10.8-2.3v2.32l-10.26,2.32c-1.47.35-2.58.85-3.3,1.52-.73.67-1.09,1.61-1.09,2.83,0,1.32.41,2.31,1.22,2.96.81.65,2,.98,3.56.98,1.73,0,3.28-.4,4.64-1.2,1.37-.8,2.44-1.97,3.22-3.52.78-1.55,1.17-3.46,1.17-5.73l.86,5.32h-1.15c-.37,2.51-1.35,4.46-2.92,5.84-1.57,1.38-3.69,2.08-6.35,2.08ZM461.1,130.38c-.62,0-1.09-.19-1.41-.59-.32-.39-.48-.94-.48-1.65v-7.21l.29-.74-.16-2.73-.14-1.42v-1.83c0-1.23-.25-2.24-.76-3.02-.5-.78-1.23-1.36-2.18-1.74-.95-.37-2.09-.56-3.43-.56-2,0-3.54.4-4.63,1.18-1.09.79-1.82,1.97-2.18,3.55l-3.11-.65c.3-1.58.87-2.89,1.69-3.93.82-1.05,1.93-1.83,3.3-2.34,1.38-.52,3.05-.78,5.04-.78s3.82.29,5.22.87c1.41.58,2.47,1.46,3.19,2.65.72,1.19,1.08,2.72,1.08,4.6v13.55h3.54v2.8h-4.89Z"/>
        <path class="cls-1" d="M482.29,130.81c-2.49,0-4.66-.53-6.5-1.58-1.84-1.05-3.27-2.51-4.28-4.36-1.01-1.86-1.52-3.99-1.52-6.41,0-1.83.28-3.51.83-5.04.56-1.53,1.35-2.85,2.39-3.97,1.04-1.12,2.27-1.98,3.7-2.59,1.43-.61,3.02-.91,4.78-.91s3.11.27,4.25.82c1.13.55,2.02,1.3,2.65,2.25s1.04,2.05,1.22,3.28h.79l-.65,3.4c-.19-1.35-.64-2.54-1.33-3.57-.69-1.03-1.59-1.83-2.71-2.41-1.11-.58-2.4-.87-3.86-.87-1.74,0-3.27.41-4.59,1.23-1.32.82-2.34,1.95-3.07,3.38-.73,1.44-1.09,3.1-1.09,5s.37,3.45,1.12,4.86c.74,1.41,1.79,2.51,3.13,3.3,1.34.8,2.93,1.2,4.77,1.2s3.52-.42,4.89-1.25c1.37-.83,2.37-1.96,3-3.37l3,1.33c-.86,1.94-2.23,3.47-4.11,4.6-1.89,1.13-4.15,1.69-6.8,1.69ZM489.94,115.71v-9.33h3.25v9.33h-3.25Z"/>
        <path class="cls-1" d="M505.97,130.7c-2.49,0-4.39-.55-5.68-1.66s-1.94-2.73-1.94-4.88c0-1.98.57-3.5,1.71-4.54,1.14-1.04,2.98-1.83,5.5-2.36l10.8-2.3v2.32l-10.26,2.32c-1.47.35-2.57.85-3.3,1.52-.73.67-1.09,1.61-1.09,2.83,0,1.32.4,2.31,1.22,2.96.81.65,2,.98,3.56.98,1.73,0,3.28-.4,4.64-1.2,1.37-.8,2.44-1.97,3.22-3.52.78-1.55,1.17-3.46,1.17-5.73l.86,5.32h-1.15c-.37,2.51-1.35,4.46-2.92,5.84-1.57,1.38-3.69,2.08-6.35,2.08ZM517.29,130.38c-.62,0-1.09-.19-1.41-.59-.32-.39-.48-.94-.48-1.65v-7.21l.29-.74-.16-2.73-.14-1.42v-1.83c0-1.23-.25-2.24-.76-3.02-.5-.78-1.23-1.36-2.17-1.74-.95-.37-2.09-.56-3.43-.56-2,0-3.54.4-4.63,1.18s-1.82,1.97-2.18,3.55l-3.11-.65c.3-1.58.86-2.89,1.69-3.93.83-1.05,1.93-1.83,3.3-2.34,1.38-.52,3.06-.78,5.04-.78s3.81.29,5.22.87c1.41.58,2.47,1.46,3.19,2.65.72,1.19,1.08,2.72,1.08,4.6v13.55h3.54v2.8h-4.89Z"/>
        <path class="cls-1" d="M537.89,105.92c1.98,0,3.76.44,5.33,1.31,1.57.87,2.87,2.12,3.89,3.73,1.02,1.62,1.7,3.55,2.03,5.81l-2.08,1.56c0-1.85-.36-3.49-1.07-4.92-.72-1.43-1.73-2.54-3.06-3.35-1.32-.8-2.89-1.21-4.71-1.21s-3.34.41-4.67,1.22c-1.32.81-2.34,1.93-3.05,3.36-.72,1.43-1.07,3.08-1.07,4.96s.37,3.51,1.11,4.94c.74,1.43,1.77,2.55,3.1,3.37,1.33.82,2.86,1.23,4.59,1.23s3.36-.41,4.68-1.23c1.32-.82,2.34-1.95,3.07-3.39.73-1.44,1.09-3.1,1.09-4.98l.5,5.12h-.77c-.27,1.32-.8,2.55-1.58,3.66-.78,1.12-1.81,2.02-3.09,2.71s-2.81,1.03-4.6,1.03c-1.67,0-3.2-.3-4.6-.91-1.4-.61-2.61-1.47-3.63-2.59-1.02-1.12-1.82-2.44-2.38-3.96-.56-1.52-.85-3.18-.85-4.98,0-2.44.49-4.59,1.47-6.47.98-1.88,2.35-3.35,4.12-4.41,1.77-1.06,3.84-1.59,6.23-1.59ZM546.94,130.38v-8.97l.14-1.76v-2.86l-.14-3.16v-16.08h-6.47v-2.79h9.72v32.83h4.6v2.8h-7.85Z"/>
        <path class="cls-1" d="M570.5,130.81c-2.48,0-4.63-.53-6.45-1.58-1.82-1.05-3.22-2.51-4.22-4.36-.99-1.86-1.49-3.99-1.49-6.41s.5-4.61,1.5-6.49c1-1.88,2.4-3.35,4.19-4.42,1.8-1.07,3.89-1.6,6.28-1.6s4.49.53,6.25,1.58c1.76,1.05,3.11,2.51,4.06,4.38.95,1.86,1.42,4.01,1.42,6.45,0,.29,0,.51-.01.68,0,.16-.03.31-.06.43h-3.2c.01-.18.03-.38.03-.6,0-.22.01-.47.01-.75,0-1.79-.34-3.38-1.03-4.77-.68-1.39-1.66-2.48-2.92-3.28-1.26-.8-2.78-1.2-4.56-1.2s-3.25.41-4.55,1.23-2.32,1.95-3.04,3.38c-.72,1.44-1.08,3.1-1.08,5s.36,3.45,1.07,4.86c.71,1.41,1.73,2.51,3.05,3.3,1.32.8,2.89,1.2,4.71,1.2s3.54-.45,4.93-1.34,2.42-2.12,3.1-3.66l3.07,1.15c-.89,2.12-2.3,3.79-4.25,5.02-1.95,1.22-4.22,1.84-6.82,1.84ZM560.4,119.45v-2.5h20.61l.95,2.5h-21.56Z"/>
        <path class="cls-1" d="M586.53,130.38v-2.8h4.8v-18.42h-4.8v-2.8h8.05v21.22h4.26v2.8h-12.31ZM603.44,130.38v-2.8h4.24v-12.6c0-1.97-.44-3.51-1.31-4.62-.87-1.11-2.23-1.67-4.08-1.67-1.49,0-2.81.39-3.97,1.17-1.16.78-2.07,1.9-2.74,3.36-.67,1.46-1,3.21-1,5.25l-.77-4.82h.92c.36-2.61,1.33-4.57,2.91-5.86,1.58-1.29,3.49-1.94,5.75-1.94,2.54,0,4.43.75,5.67,2.26s1.86,3.62,1.86,6.36v13.12h4.6v2.8h-12.08ZM619.76,130.38v-2.8h4.24v-12.6c0-1.97-.44-3.51-1.31-4.62-.87-1.11-2.23-1.67-4.08-1.67-1.49,0-2.81.39-3.97,1.17-1.16.78-2.07,1.9-2.73,3.36-.66,1.46-.99,3.21-.99,5.25l-.79-4.82h.92c.38-2.61,1.35-4.57,2.92-5.86,1.57-1.29,3.48-1.94,5.74-1.94,2.54,0,4.43.75,5.67,2.26s1.86,3.62,1.86,6.36v13.12h4.6v2.8h-12.08Z"/>
        <path class="cls-1" d="M648.1,106.37h11.18v2.8h-3l-9.92,24.42c-.81,2.01-2.06,3.56-3.75,4.64-1.69,1.08-3.79,1.62-6.3,1.62h-2.37v-2.86h2.37c1.68,0,3.15-.35,4.41-1.05,1.25-.7,2.17-1.72,2.74-3.08l1.71-4.22-.56,2.8-9.18-22.28h-3.31v-2.8h11.41v2.8h-4.56l8.09,20.22-2.95-2.62h3.11l-1.69,1.53,7.51-19.14h-4.94v-2.8Z"/>
        <path class="cls-1" d="M675.34,130.38v-2.8h4.76v-18.42h-4.76v-2.8h4.76v-3.72c0-2.62.66-4.66,1.98-6.12,1.32-1.47,3.32-2.2,6-2.2,2.18,0,3.87.48,5.08,1.44,1.21.96,2.02,2.36,2.42,4.19l-2.93.9c-.27-1.19-.79-2.08-1.54-2.67-.76-.59-1.77-.89-3.03-.89-1.5,0-2.67.44-3.5,1.31-.83.87-1.24,2.22-1.24,4.04v3.72h7.98v2.8h-7.98v18.42h5.75v2.8h-13.75Z"/>
        <path class="cls-1" d="M707.31,130.81c-2.5,0-4.68-.53-6.56-1.59-1.88-1.06-3.35-2.51-4.4-4.36-1.05-1.85-1.58-3.98-1.58-6.4s.52-4.6,1.58-6.48c1.05-1.89,2.52-3.36,4.4-4.43,1.88-1.07,4.07-1.6,6.56-1.6s4.68.53,6.56,1.6c1.88,1.07,3.34,2.54,4.4,4.43,1.05,1.89,1.58,4.05,1.58,6.48s-.53,4.55-1.58,6.4c-1.05,1.85-2.52,3.3-4.4,4.36-1.88,1.06-4.07,1.59-6.56,1.59ZM707.31,127.81c1.8,0,3.39-.39,4.77-1.17,1.38-.78,2.45-1.87,3.22-3.28.77-1.4,1.16-3.04,1.16-4.9s-.39-3.53-1.16-4.96-1.85-2.54-3.22-3.35-2.96-1.21-4.77-1.21-3.39.4-4.77,1.21c-1.38.8-2.45,1.92-3.22,3.35-.77,1.43-1.16,3.08-1.16,4.96s.39,3.5,1.16,4.9c.77,1.41,1.85,2.5,3.22,3.28,1.38.78,2.96,1.17,4.77,1.17Z"/>
        <path class="cls-1" d="M732.68,127.59h4.69v2.8h-12.87v-2.8h4.94v-18.42h-4.94v-2.8h8.18v21.22ZM741.9,109.82c-.27-.07-.56-.14-.87-.18s-.64-.07-1-.07c-2.22,0-4.01.83-5.34,2.49-1.34,1.66-2.01,3.96-2.01,6.91l-.77-5.25h.92c.21-1.59.65-2.96,1.31-4.11.66-1.15,1.52-2.04,2.58-2.66,1.06-.62,2.3-.94,3.73-.94.27,0,.51.01.73.03.22.02.45.06.71.1v3.67Z"/>
        <path class="cls-1" d="M456.14,160.49h11.18v2.8h-3l-9.92,24.42c-.81,2.01-2.06,3.56-3.75,4.64-1.69,1.08-3.79,1.62-6.3,1.62h-2.37v-2.86h2.37c1.68,0,3.15-.35,4.41-1.05,1.25-.7,2.17-1.72,2.74-3.08l1.71-4.22-.56,2.8-9.18-22.28h-3.31v-2.8h11.41v2.8h-4.56l8.1,20.22-2.95-2.62h3.11l-1.69,1.53,7.51-19.14h-4.94v-2.8Z"/>
        <path class="cls-1" d="M481.82,184.93c-2.49,0-4.68-.53-6.56-1.59-1.88-1.06-3.34-2.51-4.4-4.36-1.05-1.85-1.58-3.98-1.58-6.4s.53-4.6,1.58-6.48c1.05-1.89,2.52-3.36,4.4-4.43,1.88-1.07,4.07-1.6,6.56-1.6s4.68.53,6.56,1.6,3.35,2.54,4.4,4.43c1.05,1.89,1.58,4.05,1.58,6.48s-.53,4.55-1.58,6.4c-1.05,1.85-2.52,3.3-4.4,4.36-1.88,1.06-4.07,1.59-6.56,1.59ZM481.82,181.93c1.8,0,3.39-.39,4.77-1.17,1.38-.78,2.45-1.87,3.22-3.28.77-1.4,1.16-3.04,1.16-4.9s-.39-3.53-1.16-4.96c-.77-1.43-1.85-2.54-3.22-3.35-1.37-.8-2.96-1.21-4.77-1.21s-3.39.4-4.77,1.21c-1.38.8-2.45,1.92-3.22,3.35-.78,1.43-1.16,3.08-1.16,4.96s.39,3.5,1.16,4.9c.77,1.41,1.85,2.5,3.22,3.28,1.37.78,2.96,1.17,4.77,1.17Z"/>
        <path class="cls-1" d="M505.43,160.49v15.31c0,1.97.44,3.52,1.32,4.65.88,1.14,2.27,1.7,4.16,1.7,1.52,0,2.88-.39,4.07-1.16,1.2-.77,2.14-1.89,2.83-3.35.69-1.46,1.04-3.21,1.04-5.25l.79,4.8h-.95c-.41,2.59-1.41,4.54-3.01,5.85-1.6,1.32-3.57,1.97-5.9,1.97-2.58,0-4.5-.77-5.74-2.3-1.24-1.53-1.86-3.66-1.86-6.38v-13.05h-4.35v-2.8h7.6ZM518.84,163.28h-4.64v-2.8h7.89v21.22h4.69v2.8h-7.94v-21.22Z"/>
        <path class="cls-1" d="M538.39,181.7h4.28v2.8h-12.47v-2.8h4.94v-18.42h-4.94v-2.8h8.18v21.22ZM552.23,181.7v-12.56c0-1.97-.44-3.52-1.33-4.64-.89-1.13-2.29-1.69-4.19-1.69-1.55,0-2.95.38-4.22,1.15-1.26.77-2.26,1.88-3,3.34-.74,1.46-1.1,3.22-1.1,5.3l-.74-4.8h.9c.29-1.64.83-3.03,1.65-4.18.81-1.15,1.85-2.03,3.12-2.64,1.27-.61,2.73-.91,4.39-.91,2.62,0,4.57.76,5.85,2.27,1.28,1.51,1.93,3.64,1.93,6.39v12.99h4.62v2.8h-12.09v-2.8h4.22Z"/>
        <path class="cls-1" d="M575.03,194.46c-2.11,0-4.01-.2-5.72-.6-1.71-.4-3.06-1.03-4.07-1.88-1.01-.86-1.51-1.99-1.51-3.4s.51-2.48,1.52-3.21c1.01-.73,2.32-1.21,3.93-1.43v-.38l4.01.38c-1.67,0-2.98.2-3.92.6-.95.4-1.62.91-2.01,1.53-.39.62-.59,1.27-.59,1.93,0,1.02.38,1.82,1.13,2.39.75.57,1.76.98,3.03,1.22s2.7.36,4.27.36c3.17,0,5.49-.42,6.96-1.27s2.2-2.03,2.2-3.55c0-2.13-1.38-3.2-4.15-3.2h-9.2c-1.8,0-3.22-.33-4.25-.98s-1.54-1.6-1.54-2.83.46-2.07,1.4-2.7c.93-.62,2.26-1,3.99-1.14v-.68l4.1,1.17h-2.46c-1.29,0-2.28.18-2.95.53-.68.35-1.02.89-1.02,1.61,0,.68.31,1.16.94,1.45.62.29,1.57.44,2.83.44h8.07c1.55,0,2.87.25,3.96.76,1.09.5,1.92,1.22,2.48,2.15.56.93.85,2.04.85,3.34,0,1.38-.39,2.63-1.17,3.75-.78,1.12-2.07,2.01-3.87,2.66-1.8.65-4.21.98-7.25.98ZM574.62,176.79c-1.91,0-3.61-.35-5.1-1.04-1.49-.69-2.66-1.66-3.52-2.91-.86-1.25-1.29-2.71-1.29-4.4s.42-3.15,1.27-4.41c.85-1.26,2.01-2.23,3.49-2.93s3.19-1.05,5.13-1.05,3.71.37,5.22,1.1c1.51.74,2.66,1.76,3.46,3.07.39.6.68,1.25.87,1.95.19.7.28,1.45.28,2.27,0,1.68-.42,3.15-1.26,4.4-.84,1.25-2,2.22-3.48,2.91-1.48.69-3.18,1.04-5.08,1.04ZM574.62,174.13c1.28,0,2.42-.23,3.42-.7s1.79-1.13,2.37-1.98c.58-.86.87-1.86.87-3s-.29-2.14-.87-3.01c-.58-.86-1.37-1.53-2.37-2.01-1-.47-2.14-.71-3.42-.71s-2.47.24-3.47.71c-1.01.47-1.8,1.14-2.38,2.01-.58.87-.87,1.87-.87,3.01s.29,2.14.87,3c.58.86,1.38,1.52,2.39,1.98s2.17.7,3.46.7ZM584.45,168.44l-1.13-2.64-.99-1.62.9-.36c-.04-.15-.08-.3-.1-.46-.02-.16-.03-.33-.03-.51,0-.63.15-1.2.45-1.71.3-.51.74-.92,1.31-1.22.57-.3,1.27-.45,2.1-.45.21,0,.4,0,.58.02s.34.04.51.09v3.13c-.29-.04-.55-.08-.79-.1-.24-.02-.48-.03-.72-.03-.63,0-1.14.09-1.52.27s-.66.41-.82.69c-.17.28-.25.58-.25.91s.04.66.14,1.03c.09.37.18.79.26,1.27.08.48.12,1.04.12,1.69Z"/>
        <path class="cls-1" d="M612.89,181.7h4.94v2.8h-13.12v-2.8h4.94v-30.03h-4.94v-2.79h8.18v32.83Z"/>
        <path class="cls-1" d="M633.31,184.93c-2.48,0-4.63-.53-6.45-1.58-1.82-1.05-3.22-2.51-4.22-4.36-.99-1.86-1.49-3.99-1.49-6.41s.5-4.61,1.5-6.49c1-1.88,2.4-3.35,4.19-4.42,1.8-1.07,3.89-1.6,6.28-1.6s4.49.53,6.25,1.58c1.76,1.05,3.11,2.51,4.06,4.38.95,1.86,1.42,4.01,1.42,6.45,0,.29,0,.51-.01.68,0,.16-.03.31-.06.43h-3.2c.01-.18.03-.38.03-.6,0-.22.01-.47.01-.75,0-1.79-.34-3.38-1.03-4.77-.68-1.39-1.66-2.48-2.92-3.28-1.26-.8-2.78-1.2-4.56-1.2s-3.25.41-4.55,1.23c-1.31.82-2.32,1.95-3.04,3.38-.72,1.44-1.08,3.1-1.08,5s.36,3.45,1.07,4.86c.71,1.41,1.73,2.51,3.05,3.3,1.32.8,2.89,1.2,4.71,1.2s3.54-.45,4.93-1.34,2.42-2.12,3.1-3.66l3.07,1.15c-.89,2.12-2.3,3.79-4.25,5.02-1.95,1.22-4.22,1.84-6.82,1.84ZM623.21,173.56v-2.5h20.61l.95,2.5h-21.56Z"/>
        <path class="cls-1" d="M657.53,184.81c-2.49,0-4.39-.55-5.68-1.66-1.29-1.1-1.94-2.73-1.94-4.88,0-1.98.57-3.5,1.71-4.54,1.14-1.04,2.98-1.83,5.5-2.36l10.8-2.3v2.32l-10.26,2.32c-1.47.35-2.58.85-3.3,1.52-.73.67-1.09,1.61-1.09,2.83,0,1.32.41,2.31,1.22,2.96.81.65,2,.98,3.56.98,1.73,0,3.28-.4,4.64-1.2,1.37-.8,2.44-1.97,3.22-3.52.78-1.55,1.17-3.46,1.17-5.73l.86,5.32h-1.15c-.37,2.51-1.35,4.46-2.92,5.84-1.57,1.38-3.69,2.08-6.35,2.08ZM668.85,184.5c-.62,0-1.09-.19-1.41-.59-.32-.39-.48-.94-.48-1.65v-7.21l.29-.74-.16-2.73-.14-1.42v-1.83c0-1.23-.25-2.24-.76-3.02-.5-.78-1.23-1.36-2.18-1.74-.95-.37-2.09-.56-3.43-.56-2,0-3.54.4-4.63,1.18-1.09.79-1.82,1.97-2.18,3.55l-3.11-.65c.3-1.58.87-2.89,1.69-3.93.82-1.05,1.93-1.83,3.3-2.34,1.38-.52,3.05-.78,5.04-.78s3.82.29,5.22.87c1.41.58,2.47,1.46,3.19,2.65.72,1.19,1.08,2.72,1.08,4.6v13.55h3.54v2.8h-4.89Z"/>
        <path class="cls-1" d="M685.64,181.7h4.69v2.8h-12.87v-2.8h4.94v-18.42h-4.94v-2.8h8.18v21.22ZM694.86,163.93c-.27-.07-.56-.14-.87-.18s-.64-.07-1-.07c-2.22,0-4.01.83-5.34,2.49-1.34,1.66-2.01,3.96-2.01,6.91l-.77-5.25h.92c.21-1.59.65-2.96,1.31-4.11.66-1.15,1.52-2.04,2.58-2.66,1.06-.62,2.3-.94,3.73-.94.27,0,.51.01.73.03.22.02.45.06.71.1v3.67Z"/>
        <path class="cls-1" d="M706.16,181.7h4.28v2.8h-12.47v-2.8h4.94v-18.42h-4.94v-2.8h8.18v21.22ZM720,181.7v-12.56c0-1.97-.44-3.52-1.33-4.64-.89-1.13-2.29-1.69-4.19-1.69-1.55,0-2.95.38-4.22,1.15-1.26.77-2.26,1.88-3,3.34-.74,1.46-1.1,3.22-1.1,5.3l-.74-4.8h.9c.29-1.64.83-3.03,1.65-4.18.81-1.15,1.85-2.03,3.12-2.64,1.27-.61,2.73-.91,4.39-.91,2.62,0,4.57.76,5.85,2.27,1.29,1.51,1.93,3.64,1.93,6.39v12.99h4.62v2.8h-12.08v-2.8h4.22Z"/>
        <path class="cls-1" d="M743.5,184.93c-2.48,0-4.63-.53-6.45-1.58-1.82-1.05-3.22-2.51-4.21-4.36-.99-1.86-1.49-3.99-1.49-6.41s.5-4.61,1.5-6.49c1-1.88,2.4-3.35,4.19-4.42,1.8-1.07,3.89-1.6,6.28-1.6s4.49.53,6.24,1.58c1.76,1.05,3.11,2.51,4.06,4.38.95,1.86,1.42,4.01,1.42,6.45,0,.29,0,.51-.01.68,0,.16-.03.31-.06.43h-3.2c.01-.18.03-.38.03-.6,0-.22.01-.47.01-.75,0-1.79-.34-3.38-1.03-4.77-.68-1.39-1.66-2.48-2.92-3.28-1.26-.8-2.78-1.2-4.55-1.2s-3.25.41-4.56,1.23c-1.31.82-2.32,1.95-3.04,3.38-.72,1.44-1.08,3.1-1.08,5s.36,3.45,1.07,4.86c.72,1.41,1.73,2.51,3.06,3.3,1.32.8,2.89,1.2,4.71,1.2s3.54-.45,4.93-1.34c1.39-.89,2.42-2.12,3.1-3.66l3.07,1.15c-.89,2.12-2.3,3.79-4.25,5.02-1.95,1.22-4.22,1.84-6.82,1.84ZM733.4,173.56v-2.5h20.61l.95,2.5h-21.56Z"/>
        <path class="cls-1" d="M767.71,181.7h4.69v2.8h-12.87v-2.8h4.94v-18.42h-4.94v-2.8h8.18v21.22ZM776.93,163.93c-.27-.07-.56-.14-.87-.18s-.64-.07-1-.07c-2.22,0-4.01.83-5.34,2.49-1.34,1.66-2.01,3.96-2.01,6.91l-.77-5.25h.92c.21-1.59.65-2.96,1.31-4.11.66-1.15,1.52-2.04,2.58-2.66,1.06-.62,2.3-.94,3.73-.94.27,0,.51.01.73.03.22.02.45.06.71.1v3.67Z"/>
        <path class="cls-1" d="M780.86,184.5v-7.58h3.25v7.58h-3.25ZM792.22,184.93c-1.61,0-2.96-.24-4.07-.72-1.1-.48-1.98-1.12-2.63-1.93-.65-.8-1.07-1.7-1.26-2.7h-.81l.65-2.66c.29,1.58,1.07,2.86,2.36,3.86,1.28.99,2.96,1.49,5.02,1.49,1.76,0,3.12-.36,4.09-1.07.97-.71,1.45-1.75,1.45-3.12,0-1.25-.48-2.22-1.44-2.91-.96-.69-2.64-1.22-5.05-1.58-3.44-.54-5.89-1.39-7.35-2.56-1.46-1.17-2.19-2.7-2.19-4.61s.67-3.46,2.01-4.62c1.34-1.16,3.2-1.74,5.59-1.74,1.58,0,2.88.24,3.91.72,1.03.48,1.82,1.12,2.38,1.93.56.8.92,1.69,1.08,2.65h.81l-.65,2.55c-.27-1.53-1.01-2.78-2.21-3.75-1.2-.97-2.77-1.45-4.71-1.45-1.56,0-2.79.33-3.67.99-.88.66-1.32,1.54-1.32,2.64,0,1.16.55,2.06,1.65,2.72,1.1.65,2.82,1.17,5.19,1.54,3.34.53,5.7,1.39,7.1,2.59s2.1,2.83,2.1,4.87c0,2.15-.69,3.83-2.06,5.05-1.38,1.22-3.36,1.83-5.96,1.83ZM796.12,167.9v-7.42h3.25v7.42h-3.25Z"/>
      </g>
      <rect class="cls-1" x="405.81" y="43.29" width="1.76" height="141.84"/>
    </g>
  </g>
</svg>