<svg xmlns="http://www.w3.org/2000/svg" xmlns:xlink="http://www.w3.org/1999/xlink" version="1.1" id="Capa_1" x="0px" y="0px" viewBox="0 0 111.7 43.8" style="enable-background:new 0 0 111.7 43.8;" xml:space="preserve">
<style type="text/css">
	.st0{fill:#0086CC;}
</style>
<g id="XMLID_2_">
	<g id="XMLID_35_">
		<path id="XMLID_41_" class="st0" d="M20.7,9l-1.3,1.8c0-9.5-18-7.2-18.2-7.2L1,1c0.2,0,14.4-1.2,19.7,8.5C26-0.1,40.1,1,40.3,1    v2.7c0,0-4-0.3-8.2,0.8c-5.4,1.4-8.8,1.4-10.1,6L20.7,9z"/>
		<circle id="XMLID_40_" class="st0" cx="29.4" cy="13.4" r="2.5"/>
		<g id="XMLID_37_">
			<path id="XMLID_39_" class="st0" d="M20.7,16.1c-1.2,3.9-4.8,6.7-9.1,6.7c-2.3,0-4.4-0.8-6-2.2c4.5,15.7,22.8,21.9,30.5,21.9     c0-0.5,0.2-12.9,0.3-22.5c-1.7,1.7-4.1,2.8-6.7,2.8C25.5,22.7,21.9,19.9,20.7,16.1z"/>
			<path id="XMLID_38_" class="st0" d="M20.7,14.2c1.6-5.1,6.4-8.8,12-8.8c2.1,0,4.1,0.5,5.8,1.4c-0.6-0.9-1.6-2.2-2.3-3     C36.1,3.6,5.7,3.3,5.7,3.4c-0.9,1-2.3,2.5-3,3.6c1.8-1,3.9-1.5,6-1.5C14.4,5.4,19.1,9.1,20.7,14.2z"/>
		</g>
		<circle id="XMLID_36_" class="st0" cx="12.8" cy="13.4" r="2.5"/>
	</g>
	<rect id="XMLID_34_" x="44.3" y="40.9" class="st0" width="66.4" height="2.2"/>
	<rect id="XMLID_33_" x="44.3" y="1.2" class="st0" width="66.5" height="2.2"/>
	<g id="XMLID_14_">
		<path id="XMLID_30_" class="st0" d="M69.8,34.9h-3.4L65.6,37h-1.1l3-7.6h1.2l3,7.6h-1.1L69.8,34.9z M66.8,33.9h2.6l-1.3-3.4    L66.8,33.9z"/>
		<path id="XMLID_28_" class="st0" d="M73.2,34.4c0,1.2,0.7,1.8,1.6,1.8c1,0,1.3-0.7,1.4-1.1l0.9,0.4c-0.2,0.7-1,1.6-2.3,1.6    c-1.5,0-2.6-1.2-2.6-2.7c0-1.6,1.1-2.7,2.6-2.7c1.4,0,2.1,0.9,2.3,1.6l-0.9,0.4c-0.1-0.5-0.5-1.1-1.4-1.1    C73.9,32.6,73.2,33.2,73.2,34.4z"/>
		<path id="XMLID_25_" class="st0" d="M79.4,34.1l1.4-0.2c0.3,0,0.4-0.2,0.4-0.4c0-0.5-0.3-0.9-1.1-0.9c-0.7,0-1.1,0.4-1.2,1l-1-0.2    c0.1-1,1-1.7,2.1-1.7c1.5,0,2.1,0.9,2.1,1.9v2.6c0,0.4,0,0.7,0.1,0.8h-1c0-0.1-0.1-0.3-0.1-0.7c-0.2,0.4-0.7,0.9-1.7,0.9    c-1,0-1.7-0.7-1.7-1.5C77.9,34.7,78.5,34.2,79.4,34.1z M81.2,34.8v-0.2l-1.6,0.2c-0.4,0.1-0.7,0.3-0.7,0.8c0,0.4,0.3,0.7,0.8,0.7    C80.6,36.3,81.2,35.9,81.2,34.8z"/>
		<path id="XMLID_22_" class="st0" d="M87.4,36.2c-0.2,0.5-0.8,0.9-1.6,0.9c-1.5,0-2.4-1.2-2.4-2.7c0-1.5,1-2.7,2.4-2.7    c0.9,0,1.4,0.4,1.6,0.9v-3.3h1v6.8c0,0.5,0,0.9,0.1,0.9h-1C87.4,36.9,87.4,36.6,87.4,36.2L87.4,36.2z M85.9,36.3    c0.9,0,1.5-0.8,1.5-1.9c0-1.1-0.6-1.8-1.5-1.8c-0.9,0-1.5,0.7-1.5,1.8C84.4,35.5,84.9,36.3,85.9,36.3z"/>
		<path id="XMLID_19_" class="st0" d="M94.5,35.6c-0.3,0.9-1.1,1.6-2.3,1.6c-1.4,0-2.6-1-2.6-2.7c0-1.6,1.2-2.7,2.5-2.7    c1.6,0,2.5,1.1,2.5,2.7c0,0.1,0,0.3,0,0.3h-3.9c0,0.9,0.7,1.6,1.5,1.6c0.8,0,1.2-0.5,1.4-1L94.5,35.6z M93.5,33.9    c0-0.7-0.5-1.3-1.4-1.3c-0.8,0-1.4,0.7-1.4,1.3H93.5z"/>
		<path id="XMLID_17_" class="st0" d="M95.8,37v-5.1h1v0.7c0.3-0.6,1-0.8,1.6-0.8c0.6,0,1.3,0.3,1.5,1c0.4-0.7,1.1-1,1.7-1    c0.9,0,1.8,0.6,1.8,2V37h-1v-3.2c0-0.7-0.3-1.2-1.1-1.2c-0.7,0-1.2,0.6-1.2,1.3V37h-1v-3.2c0-0.7-0.3-1.2-1.1-1.2    c-0.7,0-1.2,0.5-1.2,1.3V37H95.8z"/>
		<path id="XMLID_15_" class="st0" d="M105.2,39.2l1.3-2.7l-2.2-4.6h1.2l1.6,3.5l1.5-3.5h1.1l-3.3,7.3H105.2z"/>
	</g>
	<g id="XMLID_3_">
		<rect id="XMLID_13_" x="45.6" y="9.1" class="st0" width="2.4" height="2.7"/>
		<rect id="XMLID_12_" x="45.6" y="14.6" class="st0" width="2.4" height="12.9"/>
		<path id="XMLID_9_" class="st0" d="M62.1,15.2c-1-0.6-2.1-0.9-3.4-0.9c-1.1,0-2,0.2-2.9,0.7c-0.7,0.4-1.3,0.8-1.8,1.4V5.6h-2.4    v21.9h2.3v-1.9c0.5,0.6,1.1,1.1,1.8,1.5c0.9,0.5,2,0.8,3.1,0.8c1.2,0,2.4-0.3,3.4-0.9c1-0.6,1.8-1.4,2.3-2.5    c0.6-1,0.8-2.2,0.8-3.4c0-1.2-0.3-2.4-0.8-3.4C63.9,16.6,63.1,15.8,62.1,15.2z M62.9,21.1c0,0.9-0.2,1.6-0.6,2.3l0,0    c-0.4,0.7-0.9,1.3-1.6,1.7c-1.4,0.8-3.2,0.8-4.5,0c-0.7-0.4-1.2-1-1.6-1.7c-0.4-0.7-0.6-1.5-0.6-2.3c0-0.8,0.2-1.6,0.6-2.3    c0.4-0.7,0.9-1.3,1.6-1.7c0.7-0.4,1.4-0.6,2.2-0.6c0.8,0,1.6,0.2,2.2,0.6c0.7,0.4,1.2,1,1.6,1.7C62.7,19.5,62.9,20.2,62.9,21.1z"/>
		<path id="XMLID_6_" class="st0" d="M77.6,15.2c-1-0.6-2.2-0.9-3.4-0.9c-1.3,0-2.4,0.3-3.4,0.9c-1,0.6-1.9,1.4-2.5,2.5    c-0.6,1-0.9,2.2-0.9,3.4c0,1.2,0.3,2.4,0.9,3.4c0.6,1,1.5,1.9,2.5,2.5c1,0.6,2.2,0.9,3.4,0.9c1.3,0,2.4-0.3,3.5-0.9    c1-0.6,1.9-1.4,2.5-2.5c0.6-1,0.9-2.2,0.9-3.4c0-1.3-0.3-2.4-0.9-3.4C79.5,16.6,78.7,15.8,77.6,15.2z M74.2,16.4    c0.8,0,1.6,0.2,2.2,0.6c0.7,0.4,1.2,1,1.6,1.7c0.4,0.7,0.6,1.5,0.6,2.3c0,0.9-0.2,1.6-0.6,2.3l0,0c-0.4,0.7-0.9,1.3-1.6,1.7    c-1.4,0.8-3.2,0.8-4.5,0c-0.7-0.4-1.2-1-1.6-1.7c-0.4-0.7-0.6-1.5-0.6-2.3c0-0.8,0.2-1.6,0.6-2.3c0.4-0.7,0.9-1.3,1.6-1.7    C72.6,16.6,73.4,16.4,74.2,16.4z"/>
		<path id="XMLID_5_" class="st0" d="M92.4,22.8c0,0.8-0.3,1.5-0.9,2.1c-0.6,0.5-1.3,0.8-2.2,0.8c-0.9,0-1.6-0.3-2.2-0.8    c-0.6-0.5-0.9-1.2-0.9-2.1v-8.2h-2.4v8.2c0,1.1,0.3,2,0.7,2.7c0.5,0.8,1.1,1.3,1.8,1.7c0.7,0.4,1.6,0.6,2.5,0.6    c1.6,0,2.8-0.5,3.6-1.4v1.1h2.3V14.6h-2.4V22.8z"/>
		<polygon id="XMLID_4_" class="st0" points="109.9,14.6 107.2,14.6 103.5,19.3 99.8,14.7 99.7,14.6 96.9,14.6 101.9,20.9     96.6,27.5 99.3,27.5 103.3,22.5 107.3,27.5 110.2,27.5 104.8,20.9   "/>
	</g>
</g>
<g id="XMLID_67_">
</g>
<g id="XMLID_68_">
</g>
<g id="XMLID_69_">
</g>
<g id="XMLID_70_">
</g>
<g id="XMLID_71_">
</g>
</svg>