<?xml version="1.0" encoding="UTF-8"?>
<svg id="Layer_2" data-name="Layer 2" xmlns="http://www.w3.org/2000/svg" viewBox="0 0 843.31 229.46">
  <defs>
    <style>
      .cls-1 {
        fill: #4cf;
      }

      .cls-1, .cls-2, .cls-3, .cls-4 {
        stroke-width: 0px;
      }

      .cls-3 {
        fill: #fff;
      }

      .cls-4 {
        fill: #231f20;
      }
    </style>
  </defs>
  <g id="Layer_1-2" data-name="Layer 1">
    <g>
      <path class="cls-2" d="M307.92,0h-131.26c-34.54,0-62.64,28.1-62.64,62.64v13.04c0,12.17,3.5,23.55,9.53,33.17l-10.46,20.55c-.35.69-.29,1.52.16,2.14.39.55,1.02.86,1.68.86.1,0,.2,0,.3-.02l27.63-4.02c9.76,6.28,21.35,9.95,33.79,9.95h131.26c34.54,0,62.64-28.1,62.64-62.64v-13.04c0-34.54-28.1-62.64-62.64-62.64Z"/>
      <path class="cls-3" d="M366.42,75.68c0,32.26-26.24,58.5-58.5,58.5h-131.26c-10.25,0-19.88-2.68-28.26-7.33.26-.41.39-.9.32-1.41-.16-1.13-1.21-1.92-2.35-1.75l-27.77,4.04,10.57-20.78c.52-1.02.11-2.26-.91-2.78-.82-.42-1.79-.23-2.41.4-4.87-8.53-7.69-18.37-7.69-28.88v-13.04c0-32.26,26.24-58.5,58.5-58.5h131.26c32.26,0,58.5,26.24,58.5,58.5v13.04Z"/>
      <g>
        <path class="cls-2" d="M157.04,58.59c0,1.44-.5,2.67-1.51,3.68-1.01,1.01-2.23,1.51-3.68,1.51s-2.67-.5-3.68-1.51c-1.01-1.01-1.51-2.23-1.51-3.68,0-.72.13-1.4.4-2.02.27-.63.64-1.18,1.11-1.65.47-.47,1.03-.85,1.65-1.11.63-.27,1.3-.4,2.02-.4s1.4.13,2.02.4,1.18.64,1.65,1.11c.47.48.85,1.03,1.11,1.65.27.63.4,1.3.4,2.02ZM147.8,91.99c0-5.47.34-10.92,1.03-16.36.08-.53.31-1,.71-1.4.4-.4.92-.6,1.57-.6.57,0,1.04.22,1.42.66.38.44.57.94.57,1.51,0,.23-.05.91-.14,2.05-.1,1.14-.21,2.5-.34,4.07-.13,1.58-.25,3.25-.34,5.01-.1,1.77-.14,3.39-.14,4.87,0,2.01.2,3.64.6,4.87.4,1.24.91,2.19,1.54,2.88.63.68,1.29,1.14,1.99,1.37.7.23,1.38.34,2.02.34,1.06,0,2.17-.38,3.31-1.14,1.14-.76,2.31-1.82,3.5-3.19,1.2-1.37,2.4-3.01,3.62-4.93,1.22-1.92,2.41-4.06,3.59-6.41.19-.38.46-.68.8-.88.34-.21.72-.31,1.14-.31.61,0,1.11.23,1.51.68s.6.95.6,1.48c0,.38-.08.7-.23.97-.46.87-1.03,1.94-1.71,3.19-.68,1.25-1.46,2.55-2.34,3.88-.87,1.33-1.83,2.65-2.88,3.96-1.05,1.31-2.16,2.49-3.33,3.53-1.18,1.04-2.41,1.89-3.7,2.54-1.29.65-2.6.97-3.93.97-1.71,0-3.21-.36-4.5-1.08-1.29-.72-2.38-1.69-3.28-2.91-.89-1.22-1.56-2.65-2-4.3-.44-1.65-.65-3.43-.65-5.33ZM153.84,58.59c0-.53-.2-1-.6-1.4s-.87-.6-1.4-.6-.99.2-1.37.6c-.38.4-.57.86-.57,1.4s.19.99.57,1.37c.38.38.83.57,1.37.57s1-.19,1.4-.57.6-.84.6-1.37Z"/>
        <path class="cls-2" d="M220.3,87.54c-.11.23-.36.69-.74,1.4-.38.7-.87,1.52-1.48,2.45-.61.93-1.33,1.92-2.16,2.96-.84,1.04-1.75,2-2.74,2.88-.99.87-2.05,1.6-3.19,2.17-1.14.57-2.32.85-3.53.85-1.98,0-3.65-.35-5.01-1.05-1.37-.7-2.49-1.49-3.36-2.37-.61,1.33-1.35,2.55-2.22,3.65-.87,1.1-1.84,2.06-2.91,2.88-1.06.82-2.19,1.45-3.39,1.91-1.2.46-2.42.68-3.68.68-2.32,0-4.29-.68-5.93-2.05-1.63-1.37-2.99-3.2-4.08-5.5-1.08-2.3-1.93-4.97-2.54-8.01-.61-3.04-1.07-6.23-1.4-9.57-.32-3.34-.52-6.73-.6-10.15-.08-3.42-.11-6.67-.11-9.75,0-5.89.17-10.99.51-15.3.34-4.31.81-7.98,1.4-11,.59-3.02,1.27-5.47,2.05-7.35.78-1.88,1.6-3.34,2.48-4.39.87-1.04,1.77-1.76,2.68-2.14.91-.38,1.8-.57,2.68-.57,1.41,0,2.65.42,3.73,1.25,1.08.84,1.99,2,2.74,3.5.74,1.5,1.3,3.32,1.68,5.44s.57,4.46.57,7.01c0,4.07-.44,8.26-1.31,12.59-.87,4.33-2,8.65-3.39,12.97-1.39,4.31-2.93,8.55-4.64,12.71-1.71,4.16-3.4,8.1-5.07,11.82.23,1.86.57,3.64,1.03,5.33.46,1.69,1.04,3.19,1.77,4.5.72,1.31,1.58,2.36,2.56,3.13.99.78,2.13,1.17,3.42,1.17s2.51-.37,3.65-1.11c1.14-.74,2.13-1.71,2.96-2.91.84-1.2,1.49-2.56,1.97-4.08.47-1.52.71-3.08.71-4.67,0-1.06-.11-2.14-.31-3.22-.21-1.08-.53-2.05-.97-2.91-.44-.85-.98-1.55-1.62-2.08-.65-.53-1.42-.8-2.34-.8-.68,0-1.22.14-1.6.43-.38.28-.67.61-.85.97-.19.36-.3.71-.34,1.05-.04.34-.06.57-.06.68,0,.53.11,1.06.34,1.6.23.53.66,1.01,1.31,1.43.65.46.97,1.08.97,1.88,0,.65-.22,1.16-.66,1.54s-.92.57-1.45.57c-.76,0-1.43-.23-2.02-.68-.59-.46-1.09-1.04-1.51-1.74-.42-.7-.74-1.45-.97-2.25-.23-.8-.34-1.54-.34-2.22,0-1.1.19-2.12.57-3.05.38-.93.9-1.73,1.57-2.39.66-.66,1.42-1.18,2.28-1.54.85-.36,1.76-.54,2.71-.54,1.63,0,3.05.38,4.25,1.14,1.2.76,2.19,1.77,2.99,3.02.8,1.25,1.39,2.68,1.77,4.27.38,1.6.57,3.21.57,4.84,0,.95-.06,1.88-.17,2.79.15.3.4.7.74,1.2.34.49.8.97,1.37,1.42.57.46,1.25.85,2.05,1.2.8.34,1.73.51,2.79.51.91,0,1.85-.35,2.82-1.06.97-.7,1.9-1.58,2.79-2.62.89-1.04,1.72-2.17,2.48-3.36.76-1.2,1.39-2.31,1.88-3.33.19-.38.46-.68.8-.88.34-.21.72-.31,1.14-.31.65,0,1.17.23,1.57.68.4.46.6.97.6,1.54,0,.23-.08.53-.23.91ZM176.24,80.19c1.29-3.19,2.6-6.54,3.93-10.06,1.33-3.51,2.53-7.1,3.59-10.74,1.06-3.65,1.94-7.33,2.62-11.06.68-3.72,1.03-7.39,1.03-11,0-1.37-.07-2.8-.2-4.3-.13-1.5-.37-2.88-.71-4.13-.34-1.25-.81-2.3-1.4-3.13-.59-.84-1.34-1.25-2.25-1.25-.3,0-.69.2-1.17.6-.47.4-.98,1.1-1.51,2.11-.53,1.01-1.06,2.4-1.6,4.19-.53,1.79-1.02,4.06-1.45,6.81-.44,2.75-.8,6.07-1.08,9.94-.28,3.88-.43,8.44-.43,13.68,0,1.75.02,3.52.06,5.33s.09,3.52.14,5.16c.06,1.63.12,3.13.2,4.5.08,1.37.15,2.49.23,3.36Z"/>
        <path class="cls-2" d="M242.69,97.06c-.95,0-1.79-.08-2.51-.23-.57,1.14-1.25,2.19-2.05,3.16-.8.97-1.72,1.82-2.76,2.54-1.04.72-2.21,1.29-3.5,1.71-1.29.42-2.7.63-4.22.63-1.79,0-3.42-.31-4.9-.94-1.48-.63-2.77-1.5-3.88-2.62-1.1-1.12-1.96-2.47-2.56-4.05-.61-1.58-.91-3.31-.91-5.21,0-2.43.44-4.55,1.31-6.35s1.88-3.31,3.02-4.5c1.14-1.2,2.28-2.09,3.42-2.68,1.14-.59,1.99-.88,2.56-.88.65,0,1.13.17,1.45.51.32.34.48.8.48,1.37,0,.65-.2,1.13-.6,1.45-.4.32-.9.64-1.51.94s-1.25.73-1.94,1.28c-.68.55-1.32,1.25-1.91,2.08s-1.07,1.82-1.45,2.96-.57,2.41-.57,3.82c0,1.25.19,2.42.57,3.51.38,1.08.93,2.01,1.65,2.79.72.78,1.58,1.39,2.56,1.82s2.09.65,3.31.65c2.17,0,3.96-.5,5.39-1.51,1.42-1.01,2.52-2.29,3.28-3.85-2.24-1.18-4.08-2.85-5.53-5.01-1.44-2.17-2.17-4.6-2.17-7.3,0-2.17.52-3.93,1.57-5.3,1.04-1.37,2.42-2.05,4.13-2.05,1.03,0,2,.25,2.91.74.91.49,1.72,1.27,2.42,2.34.7,1.06,1.26,2.43,1.68,4.1.42,1.67.63,3.67.63,5.98,0,1.22-.15,2.49-.46,3.82.23.04.46.06.68.06h.74c1.29,0,2.45-.15,3.48-.46,1.03-.3,1.96-.76,2.79-1.37.84-.61,1.59-1.39,2.25-2.34.66-.95,1.3-2.05,1.91-3.31.11-.23.36-.45.74-.65.38-.21.76-.31,1.14-.31.49,0,.96.2,1.4.6.44.4.65.92.65,1.57,0,.3-.08.64-.23,1-.15.36-.3.69-.46,1-.65,1.14-1.4,2.23-2.25,3.28-.85,1.05-1.86,1.96-3.02,2.74s-2.46,1.4-3.9,1.85c-1.44.46-3.06.67-4.84.63ZM232.95,82.7c0,.72.09,1.48.28,2.28s.49,1.59.88,2.37c.4.78.89,1.52,1.48,2.22.59.7,1.28,1.3,2.08,1.8.11-.8.17-1.58.17-2.34,0-1.03-.08-2.07-.23-3.13-.15-1.06-.37-2.04-.66-2.94-.28-.89-.64-1.61-1.05-2.17-.42-.55-.91-.83-1.48-.83-.23,0-.53.17-.91.51-.38.34-.57,1.08-.57,2.22Z"/>
        <path class="cls-2" d="M272.21,96.94c-1.33,2.17-2.88,3.87-4.64,5.13-1.77,1.25-3.54,1.88-5.33,1.88-1.44,0-2.74-.27-3.88-.8-1.14-.53-2.13-1.28-2.96-2.25-.84-.97-1.47-2.14-1.91-3.51-.44-1.37-.65-2.91-.65-4.62,0-2.66.26-5.02.77-7.07.51-2.05,1.07-3.77,1.68-5.16.61-1.39,1.44-2.8,2.51-4.25.19-.23.43-.4.71-.51.29-.11.58-.17.88-.17.61,0,1.11.22,1.51.66s.6.94.6,1.51c0,.23-.05.46-.14.68-.09.23-.2.46-.31.68-.19.34-.49.87-.91,1.57-.42.7-.85,1.62-1.31,2.76-.46,1.14-.86,2.48-1.2,4.02-.34,1.54-.51,3.3-.51,5.27,0,2.24.45,3.94,1.34,5.1.89,1.16,2.15,1.74,3.79,1.74.68,0,1.47-.22,2.37-.65.89-.44,1.77-1.11,2.62-2.02.85-.91,1.61-2.07,2.25-3.48.65-1.4,1.06-3.06,1.25-4.96l.85-9.8c.08-.57.32-1.04.74-1.42.42-.38.91-.57,1.48-.57.65,0,1.16.24,1.54.71.38.48.57,1.02.57,1.63l-.74,9.46c-.08.8-.05,1.84.08,3.13.13,1.29.41,2.56.83,3.82.42,1.25,1.04,2.33,1.88,3.22.84.89,1.94,1.34,3.31,1.34.99,0,1.96-.26,2.91-.77.95-.51,1.86-1.19,2.74-2.02.87-.84,1.68-1.77,2.42-2.82.74-1.04,1.42-2.1,2.05-3.16.63-1.06,1.17-2.08,1.62-3.05.46-.97.83-1.8,1.14-2.48.19-.42.46-.74.8-.97.34-.23.72-.34,1.14-.34.68,0,1.22.23,1.6.68s.57.95.57,1.48c0,.3-.06.59-.17.86-.15.3-.45.94-.88,1.91-.44.97-1.01,2.07-1.71,3.31s-1.55,2.54-2.54,3.9c-.99,1.37-2.09,2.63-3.3,3.79-1.22,1.16-2.54,2.11-3.96,2.85s-2.95,1.11-4.59,1.11c-2.24,0-4.1-.64-5.58-1.91-1.48-1.27-2.58-3.09-3.31-5.44Z"/>
        <path class="cls-2" d="M328.12,71.07c-5.85,7.22-11.19,14.82-16.01,22.8,1.33,1.98,2.79,3.61,4.39,4.9,1.6,1.29,3.4,1.94,5.42,1.94,1.78,0,3.48-.51,5.07-1.54,1.6-1.03,3.05-2.29,4.36-3.79,1.31-1.5,2.45-3.11,3.42-4.85.97-1.73,1.72-3.3,2.25-4.7.38-.95,1.05-1.42,2-1.42.65,0,1.17.22,1.57.65s.6.94.6,1.51c0,.19-.04.44-.11.74.04-.08-.13.3-.51,1.14-.38.84-.95,1.91-1.71,3.22-.76,1.31-1.69,2.75-2.79,4.3-1.1,1.56-2.37,3.01-3.79,4.36-1.43,1.35-3.01,2.47-4.76,3.36-1.75.89-3.63,1.34-5.64,1.34-2.51,0-4.76-.66-6.75-1.99-1.99-1.33-3.79-3.02-5.39-5.07-.65,1.14-1.27,2.28-1.88,3.42-.61,1.14-1.22,2.28-1.82,3.42-.42.8-1.06,1.2-1.94,1.2-.65,0-1.17-.23-1.57-.68-.4-.46-.6-.95-.6-1.48,0-.3.09-.65.28-1.03.76-1.48,1.54-2.96,2.34-4.44.8-1.48,1.63-2.94,2.51-4.39-1.29-2.24-2.39-4.53-3.31-6.87-.91-2.34-1.63-4.53-2.17-6.58l-3.36,6.95c-.42.84-1.06,1.25-1.94,1.25-.65,0-1.17-.23-1.57-.68s-.6-.95-.6-1.48c0-.34.08-.65.23-.91l6.21-12.99c.19-.34.46-.63.8-.86s.72-.34,1.14-.34c.61,0,1.1.2,1.48.6s.61.88.68,1.45c.04.53.18,1.37.43,2.51.25,1.14.59,2.44,1.03,3.9.44,1.46.95,3.03,1.54,4.7.59,1.67,1.28,3.32,2.08,4.96,4.56-7.41,9.59-14.49,15.1-21.26.38-.49.93-.74,1.65-.74.61,0,1.12.21,1.54.63.42.42.63.91.63,1.48,0,.53-.17.99-.51,1.37Z"/>
      </g>
      <path class="cls-2" d="M59.59,152.94l-.85-.38c-1.04-.47-6.23-2.99-6.23-6.89s3.17-7.08,7.08-7.08,7.08,3.17,7.08,7.08-5.19,6.43-6.23,6.89l-.85.38ZM59.59,142.73c-1.62,0-2.94,1.32-2.94,2.94,0,.6,1.37,1.82,2.93,2.69,1.58-.88,2.94-2.09,2.94-2.69,0-1.62-1.32-2.94-2.94-2.94Z"/>
      <path class="cls-2" d="M42.37,142.73c-9.24,0-16.76-7.52-16.76-16.76v-.46c0-9.24,7.52-16.76,16.76-16.76s16.76,7.52,16.76,16.76v.46c0,9.24-7.52,16.76-16.76,16.76ZM42.37,112.88c-6.96,0-12.62,5.66-12.62,12.62v.46c0,6.96,5.66,12.62,12.62,12.62s12.62-5.66,12.62-12.62v-.46c0-6.96-5.66-12.62-12.62-12.62Z"/>
      <path class="cls-2" d="M77.36,142.73c-9.24,0-16.76-7.52-16.76-16.76v-.46c0-9.24,7.52-16.76,16.76-16.76s16.76,7.52,16.76,16.76v.46c0,9.24-7.52,16.76-16.76,16.76ZM77.36,112.88c-6.96,0-12.62,5.66-12.62,12.62v.46c0,6.96,5.66,12.62,12.62,12.62s12.62-5.66,12.62-12.62v-.46c0-6.96-5.66-12.62-12.62-12.62Z"/>
      <ellipse class="cls-2" cx="38.92" cy="127.52" rx="4.39" ry="4.28"/>
      <ellipse class="cls-2" cx="73.9" cy="127.52" rx="4.39" ry="4.28"/>
      <path class="cls-2" d="M64.58,105.4c-.7,0-1.38-.35-1.77-.99-.6-.98-.29-2.25.69-2.85,5.06-3.09,10.19-4.73,15.25-4.88,2.81-.09,5.1.3,7.13.63,3.07.51,5.29.87,8.14-.42.98-.44,3.57-1.61,4.79-4.27.47-1.03.7-2.17.67-3.39-.03-1.14.88-2.09,2.02-2.12h.05c1.12,0,2.04.89,2.07,2.02.04,1.86-.31,3.62-1.05,5.22-1.87,4.07-5.62,5.76-6.85,6.31-4,1.8-7.16,1.28-10.51.72-1.93-.32-3.93-.63-6.34-.58-4.33.13-8.78,1.56-13.21,4.27-.34.2-.71.3-1.08.3Z"/>
      <path class="cls-2" d="M53.35,105.4c-.37,0-.74-.1-1.08-.3-4.43-2.71-8.88-4.15-13.21-4.27-2.41-.06-4.41.26-6.34.58-3.35.55-6.52,1.07-10.51-.72-1.23-.55-4.98-2.24-6.86-6.32-.74-1.61-1.09-3.36-1.05-5.22.03-1.13.95-2.02,2.07-2.02h.05c1.14.03,2.05.97,2.02,2.12-.03,1.22.2,2.36.67,3.39,1.23,2.67,3.82,3.83,4.79,4.27,2.86,1.28,5.07.92,8.14.42,2.03-.33,4.33-.72,7.13-.63,5.06.15,10.19,1.79,15.25,4.88.98.6,1.28,1.87.69,2.85-.39.64-1.07.99-1.77.99Z"/>
      <g>
        <path class="cls-2" d="M158.97,155.51h2.97l10.66,29.25h-2.4l-2.4-6.6h-14.65l-2.4,6.6h-2.4l10.63-29.25ZM153.96,175.9h12.99l-6.5-17.82-6.5,17.82Z"/>
        <path class="cls-2" d="M188.8,185.3c-1.98,0-3.84-.39-5.58-1.18s-3.27-1.87-4.59-3.26c-1.32-1.39-2.35-3-3.09-4.84-.75-1.84-1.12-3.8-1.12-5.89s.37-4.05,1.12-5.89c.75-1.84,1.78-3.45,3.09-4.84,1.32-1.39,2.84-2.47,4.59-3.26,1.74-.79,3.6-1.18,5.58-1.18,2.37,0,4.55.55,6.54,1.65,1.99,1.1,3.64,2.56,4.95,4.39l-1.99,1.09c-1.1-1.49-2.5-2.67-4.19-3.55s-3.46-1.32-5.32-1.32c-1.7,0-3.28.34-4.74,1.02-1.46.68-2.75,1.62-3.85,2.81-1.11,1.19-1.97,2.57-2.59,4.13-.62,1.56-.93,3.21-.93,4.95s.31,3.45.94,5c.63,1.55,1.5,2.93,2.61,4.12,1.11,1.19,2.4,2.12,3.86,2.79,1.46.67,3.03,1,4.7,1,1.94,0,3.74-.45,5.4-1.34,1.66-.89,3.03-2.06,4.11-3.49l1.99,1.06c-1.31,1.82-2.96,3.28-4.95,4.38-1.99,1.09-4.17,1.64-6.54,1.64Z"/>
        <path class="cls-2" d="M214.36,155.51h2.97l10.65,29.25h-2.4l-2.4-6.6h-14.65l-2.4,6.6h-2.4l10.63-29.25ZM209.34,175.9h12.99l-6.5-17.82-6.5,17.82Z"/>
        <path class="cls-2" d="M231.99,184.76v-29.25h9.67c2.02,0,3.91.38,5.68,1.14,1.77.76,3.32,1.81,4.66,3.15,1.34,1.34,2.39,2.9,3.14,4.66.76,1.76,1.14,3.65,1.14,5.67s-.38,3.91-1.14,5.67c-.76,1.76-1.81,3.32-3.14,4.66-1.34,1.35-2.89,2.4-4.66,3.15-1.77.76-3.66,1.14-5.68,1.14h-9.67ZM234.24,182.51h7.42c1.71,0,3.31-.32,4.8-.96,1.49-.64,2.8-1.53,3.94-2.66,1.13-1.13,2.02-2.45,2.66-3.94.64-1.49.96-3.09.96-4.81s-.32-3.31-.96-4.8c-.64-1.49-1.53-2.8-2.68-3.94-1.14-1.13-2.46-2.02-3.95-2.66-1.49-.64-3.09-.96-4.78-.96h-7.42v24.74Z"/>
        <path class="cls-2" d="M260.26,184.76v-29.25h17.63v2.26h-15.38v10.2h12.87v2.26h-12.87v12.29h15.38v2.26h-17.63Z"/>
        <path class="cls-2" d="M282.49,184.76l5.66-29.25h1.48l8.5,22.38,8.48-22.38h1.48l5.68,29.25h-2.3l-4.6-23.69-8.08,21.39h-1.38l-8.06-21.39-4.6,23.69h-2.28Z"/>
        <path class="cls-2" d="M335.51,155.51h2.65l-9.8,15.98v13.27h-2.26v-13.27l-9.78-15.98h2.65l8.25,13.52,8.27-13.52Z"/>
      </g>
      <path class="cls-2" d="M137.86,154.42c-.42-4.17-2.43-7.51-5.98-9.91-6.37-4.33-17.1-5.04-28.47-3.84-1.27-10.52-3.69-21.16-7.28-31.7-.37-1.08-1.54-1.66-2.63-1.29-1.08.37-1.66,1.54-1.29,2.63,8.32,24.49,10.29,49.44,5.7,72.17-4.44,22.01-12.5,30.96-16.91,34.33-8.14,6.23-19.18,9.2-31.06,8.38-4.23-.29-7.93-.99-11.21-1.93,12.63-8.16,25.05-23.21,25.05-38.08,0-20.74-14.31-37.61-31.89-37.61-7.84,0-15.02,3.36-20.58,8.92.6-14.88,2.41-30.06,5.53-45.38.23-1.12-.5-2.21-1.62-2.44-1.12-.23-2.21.5-2.44,1.62-3.54,17.39-5.45,34.61-5.79,51.43-4.37,6.44-7,14.6-7,23.47,0,14.54,3.18,32.82,12.11,40.53,2.9,2.5,6.19,3.76,9.83,3.76.81,0,1.63-.06,2.47-.19,2.91-.43,6.15-1.56,9.49-3.24,4.38,1.63,9.58,2.84,15.77,3.27,1.4.1,2.79.15,4.16.15,11.31,0,21.74-3.27,29.71-9.37,3.79-2.9,7.2-7.16,10.12-12.54,1.59-.31,3.17-.66,4.77-1.11,23.58-6.67,41-36.7,39.44-52.03Z"/>
      <path class="cls-1" d="M97.29,202.46c-.44.12-.87.21-1.31.32,2.48-5.62,4.51-12.17,5.99-19.49,2.49-12.34,3.09-25.31,1.87-38.5,3.09-.33,6.12-.53,9.01-.53,6.83,0,12.83,1.04,16.7,3.67,2.52,1.71,3.89,3.97,4.19,6.91,1.39,13.66-15.07,41.58-36.45,47.62Z"/>
      <path class="cls-1" d="M31.89,151.7c-15.3,0-27.75,15.02-27.75,33.47,0,13,2.8,30.59,10.67,37.39,2.62,2.26,5.56,3.11,8.98,2.61,13.5-2,35.84-21.52,35.84-40.01s-12.45-33.47-27.75-33.47Z"/>
    </g>
    <g>
      <path class="cls-2" d="M469.28,41.51v9.74h-3.38v-6.65h-17.41v27.73h6.54v3.09h-15.35v-3.09h5.46v-27.73h-5.46v-3.09h29.6ZM460.78,56.82v3h-13.75v-3h13.75Z"/>
      <path class="cls-2" d="M479.11,72.63h4.69v2.8h-12.87v-2.8h4.94v-18.42h-4.94v-2.8h8.18v21.22ZM488.33,54.86c-.27-.07-.56-.14-.87-.18s-.64-.07-1-.07c-2.22,0-4.01.83-5.34,2.49-1.34,1.66-2.01,3.96-2.01,6.91l-.77-5.25h.92c.21-1.59.65-2.96,1.31-4.11.66-1.15,1.52-2.04,2.58-2.66,1.06-.62,2.3-.94,3.73-.94.27,0,.51.01.73.03.22.02.45.06.71.1v3.67Z"/>
      <path class="cls-2" d="M503.44,75.85c-2.48,0-4.63-.53-6.45-1.58-1.82-1.05-3.22-2.51-4.22-4.36-.99-1.86-1.49-3.99-1.49-6.41s.5-4.61,1.5-6.49c1-1.88,2.4-3.35,4.19-4.42s3.89-1.6,6.28-1.6,4.49.53,6.25,1.58c1.76,1.05,3.11,2.51,4.06,4.38.95,1.86,1.42,4.01,1.42,6.45,0,.29,0,.51-.01.68,0,.16-.03.31-.06.43h-3.2c.01-.18.03-.38.03-.6,0-.22.01-.47.01-.75,0-1.79-.34-3.38-1.03-4.77-.68-1.39-1.66-2.48-2.92-3.28-1.26-.8-2.78-1.2-4.56-1.2s-3.25.41-4.55,1.23-2.32,1.95-3.04,3.38c-.72,1.44-1.08,3.1-1.08,5s.36,3.45,1.07,4.86c.71,1.41,1.73,2.51,3.05,3.3,1.32.8,2.89,1.2,4.71,1.2s3.54-.45,4.93-1.34c1.39-.89,2.42-2.12,3.1-3.66l3.07,1.15c-.89,2.12-2.3,3.79-4.25,5.02-1.95,1.22-4.22,1.84-6.82,1.84ZM493.34,64.49v-2.5h20.61l.95,2.5h-21.56Z"/>
      <path class="cls-2" d="M527.66,72.63h4.28v2.8h-12.47v-2.8h4.94v-18.42h-4.94v-2.8h8.18v21.22ZM541.5,72.63v-12.56c0-1.97-.44-3.52-1.33-4.64-.89-1.13-2.28-1.69-4.19-1.69-1.55,0-2.95.38-4.22,1.15-1.26.77-2.26,1.88-3,3.34-.74,1.46-1.1,3.22-1.1,5.3l-.74-4.8h.9c.29-1.64.83-3.03,1.65-4.18.81-1.15,1.85-2.03,3.12-2.64s2.73-.91,4.39-.91c2.62,0,4.57.76,5.85,2.27,1.28,1.51,1.93,3.64,1.93,6.39v12.99h4.62v2.8h-12.09v-2.8h4.22Z"/>
      <path class="cls-2" d="M565.17,75.85c-2.49,0-4.66-.53-6.5-1.58-1.84-1.05-3.27-2.51-4.28-4.36-1.01-1.86-1.52-3.99-1.52-6.41,0-1.83.28-3.51.83-5.04.56-1.53,1.35-2.85,2.39-3.97,1.04-1.12,2.27-1.98,3.7-2.59,1.43-.61,3.02-.91,4.78-.91s3.11.27,4.25.82c1.13.55,2.02,1.3,2.65,2.25s1.04,2.05,1.22,3.28h.79l-.65,3.4c-.19-1.35-.64-2.54-1.33-3.57-.69-1.03-1.59-1.83-2.71-2.41-1.11-.58-2.4-.87-3.86-.87-1.74,0-3.27.41-4.59,1.23-1.32.82-2.34,1.95-3.07,3.38-.73,1.44-1.09,3.1-1.09,5s.37,3.45,1.12,4.86c.74,1.41,1.79,2.51,3.13,3.3,1.34.8,2.93,1.2,4.77,1.2s3.52-.42,4.89-1.25c1.37-.83,2.37-1.96,3-3.37l3,1.33c-.86,1.94-2.23,3.47-4.11,4.6-1.89,1.13-4.15,1.69-6.8,1.69ZM572.82,60.74v-9.33h3.25v9.33h-3.25Z"/>
      <path class="cls-2" d="M588.17,72.63h4.26v2.8h-12.33v-2.8h4.82v-30.03h-4.82v-2.79h8.07v32.83ZM602.02,72.63v-12.63c0-1.95-.44-3.49-1.32-4.6-.88-1.11-2.26-1.67-4.14-1.67-1.58,0-3,.4-4.26,1.21-1.26.8-2.27,1.97-3.01,3.49-.74,1.53-1.12,3.36-1.12,5.51l-.77-4.8h.9c.3-1.76.87-3.25,1.7-4.48.83-1.22,1.9-2.16,3.19-2.81,1.29-.65,2.77-.97,4.44-.97,2.62,0,4.54.75,5.77,2.26,1.23,1.5,1.85,3.62,1.85,6.34v13.14h4.6v2.8h-12.08v-2.8h4.24Z"/>
      <path class="cls-2" d="M634.41,72.63h4.94v2.8h-13.12v-2.8h4.94v-30.03h-4.94v-2.79h8.18v32.83Z"/>
      <path class="cls-2" d="M650.99,75.74c-2.5,0-4.39-.55-5.68-1.66-1.29-1.1-1.94-2.73-1.94-4.88,0-1.98.57-3.5,1.71-4.54,1.14-1.04,2.98-1.83,5.5-2.36l10.8-2.3v2.32l-10.26,2.32c-1.47.35-2.58.85-3.31,1.52-.73.67-1.09,1.61-1.09,2.83,0,1.32.41,2.31,1.22,2.96.81.65,2,.98,3.56.98,1.73,0,3.28-.4,4.64-1.2,1.37-.8,2.44-1.97,3.22-3.52.78-1.55,1.17-3.46,1.17-5.73l.86,5.32h-1.15c-.38,2.51-1.35,4.46-2.92,5.84-1.57,1.38-3.69,2.08-6.35,2.08ZM662.3,75.42c-.62,0-1.08-.19-1.41-.59-.32-.39-.49-.94-.49-1.65v-7.21l.29-.74-.16-2.73-.14-1.42v-1.83c0-1.23-.25-2.24-.75-3.02-.5-.78-1.23-1.36-2.18-1.74-.95-.37-2.09-.56-3.43-.56-2,0-3.54.4-4.63,1.18-1.09.79-1.82,1.97-2.18,3.55l-3.11-.65c.3-1.58.87-2.89,1.69-3.93.83-1.05,1.93-1.83,3.3-2.34,1.38-.52,3.05-.78,5.04-.78s3.81.29,5.22.87c1.4.58,2.47,1.46,3.19,2.65.72,1.19,1.08,2.72,1.08,4.6v13.55h3.54v2.8h-4.89Z"/>
      <path class="cls-2" d="M679.1,72.63h4.28v2.8h-12.47v-2.8h4.94v-18.42h-4.94v-2.8h8.18v21.22ZM692.95,72.63v-12.56c0-1.97-.44-3.52-1.33-4.64-.89-1.13-2.29-1.69-4.19-1.69-1.55,0-2.95.38-4.22,1.15-1.26.77-2.26,1.88-3,3.34s-1.1,3.22-1.1,5.3l-.74-4.8h.9c.29-1.64.83-3.03,1.65-4.18.81-1.15,1.85-2.03,3.12-2.64,1.27-.61,2.73-.91,4.38-.91,2.62,0,4.57.76,5.85,2.27,1.28,1.51,1.93,3.64,1.93,6.39v12.99h4.62v2.8h-12.08v-2.8h4.22Z"/>
      <path class="cls-2" d="M715.74,85.39c-2.1,0-4.01-.2-5.71-.6-1.71-.4-3.06-1.03-4.07-1.88-1.01-.86-1.51-1.99-1.51-3.4s.51-2.48,1.52-3.21c1.02-.73,2.33-1.21,3.94-1.43v-.38l4.01.38c-1.67,0-2.98.2-3.92.6-.95.4-1.62.91-2.01,1.53-.39.62-.59,1.27-.59,1.93,0,1.02.37,1.82,1.13,2.39s1.76.98,3.03,1.22,2.69.36,4.27.36c3.17,0,5.49-.42,6.96-1.27,1.47-.85,2.2-2.03,2.2-3.55,0-2.13-1.38-3.2-4.15-3.2h-9.2c-1.8,0-3.22-.33-4.25-.98s-1.55-1.6-1.55-2.83.47-2.07,1.4-2.7c.93-.62,2.26-1,3.99-1.14v-.68l4.1,1.17h-2.46c-1.29,0-2.28.18-2.95.53-.67.35-1.01.89-1.01,1.61,0,.68.31,1.16.94,1.45.62.29,1.57.44,2.83.44h8.07c1.55,0,2.87.25,3.96.76,1.09.5,1.92,1.22,2.48,2.15.56.93.85,2.04.85,3.34,0,1.38-.39,2.63-1.17,3.75-.78,1.12-2.07,2.01-3.87,2.66-1.8.65-4.21.98-7.25.98ZM715.33,67.71c-1.91,0-3.61-.35-5.09-1.04-1.49-.69-2.66-1.66-3.52-2.91-.86-1.25-1.28-2.71-1.28-4.4s.43-3.15,1.27-4.41c.85-1.26,2.01-2.23,3.5-2.93,1.48-.7,3.19-1.05,5.13-1.05s3.71.37,5.22,1.1,2.66,1.76,3.46,3.07c.39.6.68,1.25.87,1.95.19.7.28,1.45.28,2.27,0,1.68-.42,3.15-1.26,4.4-.84,1.25-2,2.22-3.48,2.91-1.48.69-3.18,1.04-5.08,1.04ZM715.33,65.05c1.28,0,2.42-.23,3.42-.7,1-.47,1.79-1.13,2.37-1.98.58-.86.87-1.86.87-3s-.29-2.14-.87-3.01c-.58-.86-1.37-1.53-2.37-2.01-1-.47-2.14-.71-3.42-.71s-2.46.24-3.47.71c-1.01.47-1.8,1.14-2.38,2.01-.58.87-.87,1.87-.87,3.01s.29,2.14.87,3c.58.86,1.38,1.52,2.39,1.98s2.17.7,3.46.7ZM725.16,59.37l-1.13-2.64-.99-1.62.9-.36c-.04-.15-.08-.3-.1-.46-.02-.16-.03-.33-.03-.51,0-.63.15-1.2.45-1.71.3-.51.74-.92,1.31-1.22.57-.3,1.27-.45,2.1-.45.21,0,.4,0,.57.02s.34.04.51.09v3.13c-.29-.04-.55-.08-.79-.1-.24-.02-.48-.03-.72-.03-.63,0-1.14.09-1.52.27s-.66.41-.82.69c-.16.28-.25.58-.25.91s.05.66.14,1.03c.09.37.18.79.26,1.27.08.48.12,1.04.12,1.69Z"/>
      <path class="cls-2" d="M738.78,51.41v15.31c0,1.97.44,3.52,1.32,4.65.88,1.14,2.27,1.7,4.16,1.7,1.52,0,2.88-.39,4.07-1.16,1.2-.77,2.14-1.89,2.83-3.35.69-1.46,1.04-3.21,1.04-5.25l.79,4.8h-.95c-.41,2.59-1.41,4.54-3.01,5.85-1.6,1.32-3.57,1.97-5.9,1.97-2.59,0-4.5-.77-5.74-2.3-1.24-1.53-1.86-3.66-1.86-6.38v-13.05h-4.35v-2.8h7.6ZM752.2,54.21h-4.65v-2.8h7.89v21.22h4.69v2.8h-7.94v-21.22Z"/>
      <path class="cls-2" d="M771.75,75.74c-2.5,0-4.39-.55-5.68-1.66-1.29-1.1-1.94-2.73-1.94-4.88,0-1.98.57-3.5,1.71-4.54,1.14-1.04,2.98-1.83,5.5-2.36l10.8-2.3v2.32l-10.26,2.32c-1.47.35-2.58.85-3.31,1.52-.73.67-1.09,1.61-1.09,2.83,0,1.32.41,2.31,1.22,2.96.81.65,2,.98,3.56.98,1.73,0,3.28-.4,4.64-1.2,1.37-.8,2.44-1.97,3.22-3.52.78-1.55,1.17-3.46,1.17-5.73l.86,5.32h-1.15c-.38,2.51-1.35,4.46-2.92,5.84-1.57,1.38-3.69,2.08-6.35,2.08ZM783.06,75.42c-.62,0-1.08-.19-1.41-.59-.32-.39-.49-.94-.49-1.65v-7.21l.29-.74-.16-2.73-.14-1.42v-1.83c0-1.23-.25-2.24-.75-3.02-.5-.78-1.23-1.36-2.18-1.74-.95-.37-2.09-.56-3.43-.56-2,0-3.54.4-4.63,1.18-1.09.79-1.82,1.97-2.18,3.55l-3.11-.65c.3-1.58.87-2.89,1.69-3.93.83-1.05,1.93-1.83,3.3-2.34,1.38-.52,3.05-.78,5.04-.78s3.81.29,5.22.87c1.4.58,2.47,1.46,3.19,2.65.72,1.19,1.08,2.72,1.08,4.6v13.55h3.54v2.8h-4.89Z"/>
      <path class="cls-2" d="M803.38,85.39c-2.11,0-4.01-.2-5.72-.6-1.71-.4-3.06-1.03-4.07-1.88-1.01-.86-1.51-1.99-1.51-3.4s.51-2.48,1.52-3.21c1.01-.73,2.32-1.21,3.93-1.43v-.38l4.01.38c-1.67,0-2.98.2-3.92.6-.95.4-1.62.91-2.01,1.53-.39.62-.59,1.27-.59,1.93,0,1.02.38,1.82,1.13,2.39.75.57,1.76.98,3.03,1.22s2.7.36,4.27.36c3.17,0,5.49-.42,6.96-1.27s2.2-2.03,2.2-3.55c0-2.13-1.38-3.2-4.15-3.2h-9.2c-1.8,0-3.22-.33-4.25-.98-1.03-.65-1.54-1.6-1.54-2.83s.46-2.07,1.4-2.7c.93-.62,2.26-1,3.99-1.14v-.68l4.1,1.17h-2.46c-1.29,0-2.28.18-2.95.53-.68.35-1.02.89-1.02,1.61,0,.68.31,1.16.94,1.45.62.29,1.57.44,2.83.44h8.07c1.55,0,2.87.25,3.96.76,1.09.5,1.92,1.22,2.48,2.15.56.93.85,2.04.85,3.34,0,1.38-.39,2.63-1.17,3.75-.78,1.12-2.07,2.01-3.87,2.66-1.8.65-4.21.98-7.25.98ZM802.97,67.71c-1.91,0-3.61-.35-5.1-1.04-1.49-.69-2.66-1.66-3.52-2.91-.86-1.25-1.29-2.71-1.29-4.4s.42-3.15,1.27-4.41c.85-1.26,2.01-2.23,3.49-2.93s3.19-1.05,5.13-1.05,3.71.37,5.22,1.1,2.66,1.76,3.46,3.07c.39.6.68,1.25.87,1.95.19.7.28,1.45.28,2.27,0,1.68-.42,3.15-1.26,4.4-.84,1.25-2,2.22-3.48,2.91-1.48.69-3.18,1.04-5.08,1.04ZM802.97,65.05c1.28,0,2.42-.23,3.42-.7s1.79-1.13,2.37-1.98c.58-.86.87-1.86.87-3s-.29-2.14-.87-3.01c-.58-.86-1.37-1.53-2.37-2.01-1-.47-2.14-.71-3.42-.71s-2.47.24-3.47.71c-1.01.47-1.8,1.14-2.38,2.01-.58.87-.87,1.87-.87,3.01s.29,2.14.87,3c.58.86,1.38,1.52,2.39,1.98s2.17.7,3.46.7ZM812.8,59.37l-1.13-2.64-.99-1.62.9-.36c-.04-.15-.08-.3-.1-.46-.02-.16-.03-.33-.03-.51,0-.63.15-1.2.45-1.71.3-.51.74-.92,1.31-1.22.57-.3,1.27-.45,2.1-.45.21,0,.4,0,.58.02s.34.04.51.09v3.13c-.29-.04-.55-.08-.79-.1-.24-.02-.48-.03-.72-.03-.63,0-1.14.09-1.52.27s-.66.41-.82.69c-.17.28-.25.58-.25.91s.04.66.14,1.03c.09.37.18.79.26,1.27.08.48.12,1.04.12,1.69Z"/>
      <path class="cls-2" d="M831.77,75.85c-2.48,0-4.63-.53-6.45-1.58-1.82-1.05-3.22-2.51-4.21-4.36-.99-1.86-1.49-3.99-1.49-6.41s.5-4.61,1.5-6.49,2.4-3.35,4.19-4.42c1.8-1.07,3.89-1.6,6.28-1.6s4.49.53,6.25,1.58c1.76,1.05,3.11,2.51,4.06,4.38.95,1.86,1.42,4.01,1.42,6.45,0,.29,0,.51-.01.68,0,.16-.03.31-.05.43h-3.2c.01-.18.03-.38.03-.6,0-.22.01-.47.01-.75,0-1.79-.34-3.38-1.03-4.77-.68-1.39-1.66-2.48-2.92-3.28-1.26-.8-2.78-1.2-4.55-1.2s-3.25.41-4.55,1.23c-1.31.82-2.32,1.95-3.05,3.38-.72,1.44-1.08,3.1-1.08,5s.36,3.45,1.07,4.86c.71,1.41,1.73,2.51,3.06,3.3,1.32.8,2.89,1.2,4.71,1.2s3.54-.45,4.93-1.34,2.42-2.12,3.1-3.66l3.07,1.15c-.89,2.12-2.3,3.79-4.25,5.02-1.95,1.22-4.22,1.84-6.82,1.84ZM821.66,64.49v-2.5h20.61l.95,2.5h-21.56Z"/>
      <path class="cls-2" d="M448.81,129.85c-2.49,0-4.39-.55-5.68-1.66-1.29-1.1-1.94-2.73-1.94-4.88,0-1.98.57-3.5,1.71-4.54,1.14-1.04,2.98-1.83,5.5-2.36l10.8-2.3v2.32l-10.26,2.32c-1.47.35-2.58.85-3.3,1.52-.73.67-1.09,1.61-1.09,2.83,0,1.32.41,2.31,1.22,2.96.81.65,2,.98,3.56.98,1.73,0,3.28-.4,4.64-1.2,1.37-.8,2.44-1.97,3.22-3.52.78-1.55,1.17-3.46,1.17-5.73l.86,5.32h-1.15c-.37,2.51-1.35,4.46-2.92,5.84-1.57,1.38-3.69,2.08-6.35,2.08ZM460.13,129.54c-.62,0-1.09-.19-1.41-.59-.32-.39-.48-.94-.48-1.65v-7.21l.29-.74-.16-2.73-.14-1.42v-1.83c0-1.23-.25-2.24-.76-3.02-.5-.78-1.23-1.36-2.18-1.74-.95-.37-2.09-.56-3.43-.56-2,0-3.54.4-4.63,1.18-1.09.79-1.82,1.97-2.18,3.55l-3.11-.65c.3-1.58.87-2.89,1.69-3.93.82-1.05,1.93-1.83,3.3-2.34,1.38-.52,3.05-.78,5.04-.78s3.82.29,5.22.87c1.41.58,2.47,1.46,3.19,2.65.72,1.19,1.08,2.72,1.08,4.6v13.55h3.54v2.8h-4.89Z"/>
      <path class="cls-2" d="M481.32,129.96c-2.49,0-4.66-.53-6.5-1.58-1.84-1.05-3.27-2.51-4.28-4.36-1.01-1.86-1.52-3.99-1.52-6.41,0-1.83.28-3.51.83-5.04.56-1.53,1.35-2.85,2.39-3.97,1.04-1.12,2.27-1.98,3.7-2.59,1.43-.61,3.02-.91,4.78-.91s3.11.27,4.25.82c1.13.55,2.02,1.3,2.65,2.25s1.04,2.05,1.22,3.28h.79l-.65,3.4c-.19-1.35-.64-2.54-1.33-3.57-.69-1.03-1.59-1.83-2.71-2.41-1.11-.58-2.4-.87-3.86-.87-1.74,0-3.27.41-4.59,1.23-1.32.82-2.34,1.95-3.07,3.38-.73,1.44-1.09,3.1-1.09,5s.37,3.45,1.12,4.86c.74,1.41,1.79,2.51,3.13,3.3,1.34.8,2.93,1.2,4.77,1.2s3.52-.42,4.89-1.25c1.37-.83,2.37-1.96,3-3.37l3,1.33c-.86,1.94-2.23,3.47-4.11,4.6-1.89,1.13-4.15,1.69-6.8,1.69ZM488.96,114.86v-9.33h3.25v9.33h-3.25Z"/>
      <path class="cls-2" d="M505,129.85c-2.49,0-4.39-.55-5.68-1.66s-1.94-2.73-1.94-4.88c0-1.98.57-3.5,1.71-4.54,1.14-1.04,2.98-1.83,5.5-2.36l10.8-2.3v2.32l-10.26,2.32c-1.47.35-2.57.85-3.3,1.52-.73.67-1.09,1.61-1.09,2.83,0,1.32.4,2.31,1.22,2.96.81.65,2,.98,3.56.98,1.73,0,3.28-.4,4.64-1.2,1.37-.8,2.44-1.97,3.22-3.52.78-1.55,1.17-3.46,1.17-5.73l.86,5.32h-1.15c-.37,2.51-1.35,4.46-2.92,5.84-1.57,1.38-3.69,2.08-6.35,2.08ZM516.32,129.54c-.62,0-1.09-.19-1.41-.59-.32-.39-.48-.94-.48-1.65v-7.21l.29-.74-.16-2.73-.14-1.42v-1.83c0-1.23-.25-2.24-.76-3.02-.5-.78-1.23-1.36-2.17-1.74-.95-.37-2.09-.56-3.43-.56-2,0-3.54.4-4.63,1.18s-1.82,1.97-2.18,3.55l-3.11-.65c.3-1.58.86-2.89,1.69-3.93.83-1.05,1.93-1.83,3.3-2.34,1.38-.52,3.06-.78,5.04-.78s3.81.29,5.22.87c1.41.58,2.47,1.46,3.19,2.65.72,1.19,1.08,2.72,1.08,4.6v13.55h3.54v2.8h-4.89Z"/>
      <path class="cls-2" d="M536.92,105.07c1.98,0,3.76.44,5.33,1.31,1.57.87,2.87,2.12,3.89,3.73,1.02,1.62,1.7,3.55,2.03,5.81l-2.08,1.56c0-1.85-.36-3.49-1.07-4.92-.72-1.43-1.73-2.54-3.06-3.35-1.32-.8-2.89-1.21-4.71-1.21s-3.34.41-4.67,1.22c-1.32.81-2.34,1.93-3.05,3.36-.72,1.43-1.07,3.08-1.07,4.96s.37,3.51,1.11,4.94c.74,1.43,1.77,2.55,3.1,3.37,1.33.82,2.86,1.23,4.59,1.23s3.36-.41,4.68-1.23c1.32-.82,2.34-1.95,3.07-3.39.73-1.44,1.09-3.1,1.09-4.98l.5,5.12h-.77c-.27,1.32-.8,2.55-1.58,3.66-.78,1.12-1.81,2.02-3.09,2.71s-2.81,1.03-4.6,1.03c-1.67,0-3.2-.3-4.6-.91-1.4-.61-2.61-1.47-3.63-2.59-1.02-1.12-1.82-2.44-2.38-3.96-.56-1.52-.85-3.18-.85-4.98,0-2.44.49-4.59,1.47-6.47.98-1.88,2.35-3.35,4.12-4.41,1.77-1.06,3.84-1.59,6.23-1.59ZM545.96,129.54v-8.97l.14-1.76v-2.86l-.14-3.16v-16.08h-6.47v-2.79h9.72v32.83h4.6v2.8h-7.85Z"/>
      <path class="cls-2" d="M569.53,129.96c-2.48,0-4.63-.53-6.45-1.58-1.82-1.05-3.22-2.51-4.22-4.36-.99-1.86-1.49-3.99-1.49-6.41s.5-4.61,1.5-6.49c1-1.88,2.4-3.35,4.19-4.42,1.8-1.07,3.89-1.6,6.28-1.6s4.49.53,6.25,1.58c1.76,1.05,3.11,2.51,4.06,4.38.95,1.86,1.42,4.01,1.42,6.45,0,.29,0,.51-.01.68,0,.16-.03.31-.06.43h-3.2c.01-.18.03-.38.03-.6,0-.22.01-.47.01-.75,0-1.79-.34-3.38-1.03-4.77-.68-1.39-1.66-2.48-2.92-3.28-1.26-.8-2.78-1.2-4.56-1.2s-3.25.41-4.55,1.23-2.32,1.95-3.04,3.38c-.72,1.44-1.08,3.1-1.08,5s.36,3.45,1.07,4.86c.71,1.41,1.73,2.51,3.05,3.3,1.32.8,2.89,1.2,4.71,1.2s3.54-.45,4.93-1.34c1.39-.89,2.42-2.12,3.1-3.66l3.07,1.15c-.89,2.12-2.3,3.79-4.25,5.02-1.95,1.22-4.22,1.84-6.82,1.84ZM559.42,118.6v-2.5h20.61l.95,2.5h-21.56Z"/>
      <path class="cls-2" d="M585.56,129.54v-2.8h4.8v-18.42h-4.8v-2.8h8.05v21.22h4.26v2.8h-12.31ZM602.47,129.54v-2.8h4.24v-12.6c0-1.97-.44-3.51-1.31-4.62-.87-1.11-2.23-1.67-4.08-1.67-1.49,0-2.81.39-3.97,1.17-1.16.78-2.07,1.9-2.74,3.36-.67,1.46-1,3.21-1,5.25l-.77-4.82h.92c.36-2.61,1.33-4.57,2.91-5.86,1.58-1.29,3.49-1.94,5.75-1.94,2.54,0,4.43.75,5.67,2.26s1.86,3.62,1.86,6.36v13.12h4.6v2.8h-12.08ZM618.79,129.54v-2.8h4.24v-12.6c0-1.97-.44-3.51-1.31-4.62-.87-1.11-2.23-1.67-4.08-1.67-1.49,0-2.81.39-3.97,1.17-1.16.78-2.07,1.9-2.73,3.36-.66,1.46-.99,3.21-.99,5.25l-.79-4.82h.92c.38-2.61,1.35-4.57,2.92-5.86,1.57-1.29,3.48-1.94,5.74-1.94,2.54,0,4.43.75,5.67,2.26s1.86,3.62,1.86,6.36v13.12h4.6v2.8h-12.08Z"/>
      <path class="cls-2" d="M647.13,105.52h11.18v2.8h-3l-9.92,24.42c-.81,2.01-2.06,3.56-3.75,4.64-1.69,1.08-3.79,1.62-6.3,1.62h-2.37v-2.86h2.37c1.68,0,3.15-.35,4.41-1.05,1.25-.7,2.17-1.72,2.74-3.08l1.71-4.22-.56,2.8-9.18-22.28h-3.31v-2.8h11.41v2.8h-4.56l8.09,20.22-2.95-2.62h3.11l-1.69,1.53,7.51-19.14h-4.94v-2.8Z"/>
      <path class="cls-2" d="M674.37,129.54v-2.8h4.76v-18.42h-4.76v-2.8h4.76v-3.72c0-2.62.66-4.66,1.98-6.12,1.32-1.47,3.32-2.2,6-2.2,2.18,0,3.87.48,5.08,1.44,1.21.96,2.02,2.36,2.42,4.19l-2.93.9c-.27-1.19-.79-2.08-1.54-2.67-.76-.59-1.77-.89-3.03-.89-1.5,0-2.67.44-3.5,1.31-.83.87-1.24,2.22-1.24,4.04v3.72h7.98v2.8h-7.98v18.42h5.75v2.8h-13.75Z"/>
      <path class="cls-2" d="M706.34,129.96c-2.5,0-4.68-.53-6.56-1.59-1.88-1.06-3.35-2.51-4.4-4.36-1.05-1.85-1.58-3.98-1.58-6.4s.52-4.6,1.58-6.48c1.05-1.89,2.52-3.36,4.4-4.43,1.88-1.07,4.07-1.6,6.56-1.6s4.68.53,6.56,1.6c1.88,1.07,3.34,2.54,4.4,4.43,1.05,1.89,1.58,4.05,1.58,6.48s-.53,4.55-1.58,6.4c-1.05,1.85-2.52,3.3-4.4,4.36-1.88,1.06-4.07,1.59-6.56,1.59ZM706.34,126.97c1.8,0,3.39-.39,4.77-1.17,1.38-.78,2.45-1.87,3.22-3.28.77-1.4,1.16-3.04,1.16-4.9s-.39-3.53-1.16-4.96-1.85-2.54-3.22-3.35-2.96-1.21-4.77-1.21-3.39.4-4.77,1.21c-1.38.8-2.45,1.92-3.22,3.35-.77,1.43-1.16,3.08-1.16,4.96s.39,3.5,1.16,4.9c.77,1.41,1.85,2.5,3.22,3.28,1.38.78,2.96,1.17,4.77,1.17Z"/>
      <path class="cls-2" d="M731.7,126.74h4.69v2.8h-12.87v-2.8h4.94v-18.42h-4.94v-2.8h8.18v21.22ZM740.93,108.97c-.27-.07-.56-.14-.87-.18s-.64-.07-1-.07c-2.22,0-4.01.83-5.34,2.49-1.34,1.66-2.01,3.96-2.01,6.91l-.77-5.25h.92c.21-1.59.65-2.96,1.31-4.11.66-1.15,1.52-2.04,2.58-2.66,1.06-.62,2.3-.94,3.73-.94.27,0,.51.01.73.03.22.02.45.06.71.1v3.67Z"/>
      <path class="cls-2" d="M455.17,159.64h11.18v2.8h-3l-9.92,24.42c-.81,2.01-2.06,3.56-3.75,4.64-1.69,1.08-3.79,1.62-6.3,1.62h-2.37v-2.86h2.37c1.68,0,3.15-.35,4.41-1.05,1.25-.7,2.17-1.72,2.74-3.08l1.71-4.22-.56,2.8-9.18-22.28h-3.31v-2.8h11.41v2.8h-4.56l8.1,20.22-2.95-2.62h3.11l-1.69,1.53,7.51-19.14h-4.94v-2.8Z"/>
      <path class="cls-2" d="M480.85,184.08c-2.49,0-4.68-.53-6.56-1.59-1.88-1.06-3.34-2.51-4.4-4.36-1.05-1.85-1.58-3.98-1.58-6.4s.53-4.6,1.58-6.48c1.05-1.89,2.52-3.36,4.4-4.43,1.88-1.07,4.07-1.6,6.56-1.6s4.68.53,6.56,1.6,3.35,2.54,4.4,4.43c1.05,1.89,1.58,4.05,1.58,6.48s-.53,4.55-1.58,6.4c-1.05,1.85-2.52,3.3-4.4,4.36-1.88,1.06-4.07,1.59-6.56,1.59ZM480.85,181.08c1.8,0,3.39-.39,4.77-1.17,1.38-.78,2.45-1.87,3.22-3.28.77-1.4,1.16-3.04,1.16-4.9s-.39-3.53-1.16-4.96c-.77-1.43-1.85-2.54-3.22-3.35-1.37-.8-2.96-1.21-4.77-1.21s-3.39.4-4.77,1.21c-1.38.8-2.45,1.92-3.22,3.35-.78,1.43-1.16,3.08-1.16,4.96s.39,3.5,1.16,4.9c.77,1.41,1.85,2.5,3.22,3.28,1.37.78,2.96,1.17,4.77,1.17Z"/>
      <path class="cls-2" d="M504.46,159.64v15.31c0,1.97.44,3.52,1.32,4.65.88,1.14,2.27,1.7,4.16,1.7,1.52,0,2.88-.39,4.07-1.16,1.2-.77,2.14-1.89,2.83-3.35.69-1.46,1.04-3.21,1.04-5.25l.79,4.8h-.95c-.41,2.59-1.41,4.54-3.01,5.85-1.6,1.32-3.57,1.97-5.9,1.97-2.58,0-4.5-.77-5.74-2.3-1.24-1.53-1.86-3.66-1.86-6.38v-13.05h-4.35v-2.8h7.6ZM517.87,162.43h-4.64v-2.8h7.89v21.22h4.69v2.8h-7.94v-21.22Z"/>
      <path class="cls-2" d="M537.42,180.85h4.28v2.8h-12.47v-2.8h4.94v-18.42h-4.94v-2.8h8.18v21.22ZM551.26,180.85v-12.56c0-1.97-.44-3.52-1.33-4.64-.89-1.13-2.29-1.69-4.19-1.69-1.55,0-2.95.38-4.22,1.15-1.26.77-2.26,1.88-3,3.34-.74,1.46-1.1,3.22-1.1,5.3l-.74-4.8h.9c.29-1.64.83-3.03,1.65-4.18.81-1.15,1.85-2.03,3.12-2.64,1.27-.61,2.73-.91,4.39-.91,2.62,0,4.57.76,5.85,2.27,1.28,1.51,1.93,3.64,1.93,6.39v12.99h4.62v2.8h-12.09v-2.8h4.22Z"/>
      <path class="cls-2" d="M574.06,193.61c-2.11,0-4.01-.2-5.72-.6-1.71-.4-3.06-1.03-4.07-1.88-1.01-.86-1.51-1.99-1.51-3.4s.51-2.48,1.52-3.21c1.01-.73,2.32-1.21,3.93-1.43v-.38l4.01.38c-1.67,0-2.98.2-3.92.6-.95.4-1.62.91-2.01,1.53-.39.62-.59,1.27-.59,1.93,0,1.02.38,1.82,1.13,2.39.75.57,1.76.98,3.03,1.22s2.7.36,4.27.36c3.17,0,5.49-.42,6.96-1.27s2.2-2.03,2.2-3.55c0-2.13-1.38-3.2-4.15-3.2h-9.2c-1.8,0-3.22-.33-4.25-.98s-1.54-1.6-1.54-2.83.46-2.07,1.4-2.7c.93-.62,2.26-1,3.99-1.14v-.68l4.1,1.17h-2.46c-1.29,0-2.28.18-2.95.53-.68.35-1.02.89-1.02,1.61,0,.68.31,1.16.94,1.45.62.29,1.57.44,2.83.44h8.07c1.55,0,2.87.25,3.96.76,1.09.5,1.92,1.22,2.48,2.15.56.93.85,2.04.85,3.34,0,1.38-.39,2.63-1.17,3.75-.78,1.12-2.07,2.01-3.87,2.66-1.8.65-4.21.98-7.25.98ZM573.65,175.94c-1.91,0-3.61-.35-5.1-1.04-1.49-.69-2.66-1.66-3.52-2.91-.86-1.25-1.29-2.71-1.29-4.4s.42-3.15,1.27-4.41c.85-1.26,2.01-2.23,3.49-2.93s3.19-1.05,5.13-1.05,3.71.37,5.22,1.1c1.51.74,2.66,1.76,3.46,3.07.39.6.68,1.25.87,1.95.19.7.28,1.45.28,2.27,0,1.68-.42,3.15-1.26,4.4-.84,1.25-2,2.22-3.48,2.91-1.48.69-3.18,1.04-5.08,1.04ZM573.65,173.28c1.28,0,2.42-.23,3.42-.7,1-.47,1.79-1.13,2.37-1.98.58-.86.87-1.86.87-3s-.29-2.14-.87-3.01c-.58-.86-1.37-1.53-2.37-2.01-1-.47-2.14-.71-3.42-.71s-2.47.24-3.47.71c-1.01.47-1.8,1.14-2.38,2.01-.58.87-.87,1.87-.87,3.01s.29,2.14.87,3c.58.86,1.38,1.52,2.39,1.98s2.17.7,3.46.7ZM583.48,167.59l-1.13-2.64-.99-1.62.9-.36c-.04-.15-.08-.3-.1-.46-.02-.16-.03-.33-.03-.51,0-.63.15-1.2.45-1.71.3-.51.74-.92,1.31-1.22.57-.3,1.27-.45,2.1-.45.21,0,.4,0,.58.02s.34.04.51.09v3.13c-.29-.04-.55-.08-.79-.1-.24-.02-.48-.03-.72-.03-.63,0-1.14.09-1.52.27s-.66.41-.82.69c-.17.28-.25.58-.25.91s.04.66.14,1.03c.09.37.18.79.26,1.27.08.48.12,1.04.12,1.69Z"/>
      <path class="cls-2" d="M611.91,180.85h4.94v2.8h-13.12v-2.8h4.94v-30.03h-4.94v-2.79h8.18v32.83Z"/>
      <path class="cls-2" d="M632.34,184.08c-2.48,0-4.63-.53-6.45-1.58-1.82-1.05-3.22-2.51-4.22-4.36-.99-1.86-1.49-3.99-1.49-6.41s.5-4.61,1.5-6.49c1-1.88,2.4-3.35,4.19-4.42,1.8-1.07,3.89-1.6,6.28-1.6s4.49.53,6.25,1.58c1.76,1.05,3.11,2.51,4.06,4.38.95,1.86,1.42,4.01,1.42,6.45,0,.29,0,.51-.01.68,0,.16-.03.31-.06.43h-3.2c.01-.18.03-.38.03-.6,0-.22.01-.47.01-.75,0-1.79-.34-3.38-1.03-4.77-.68-1.39-1.66-2.48-2.92-3.28-1.26-.8-2.78-1.2-4.56-1.2s-3.25.41-4.55,1.23-2.32,1.95-3.04,3.38c-.72,1.44-1.08,3.1-1.08,5s.36,3.45,1.07,4.86c.71,1.41,1.73,2.51,3.05,3.3,1.32.8,2.89,1.2,4.71,1.2s3.54-.45,4.93-1.34,2.42-2.12,3.1-3.66l3.07,1.15c-.89,2.12-2.3,3.79-4.25,5.02-1.95,1.22-4.22,1.84-6.82,1.84ZM622.24,172.71v-2.5h20.61l.95,2.5h-21.56Z"/>
      <path class="cls-2" d="M656.55,183.96c-2.49,0-4.39-.55-5.68-1.66-1.29-1.1-1.94-2.73-1.94-4.88,0-1.98.57-3.5,1.71-4.54,1.14-1.04,2.98-1.83,5.5-2.36l10.8-2.3v2.32l-10.26,2.32c-1.47.35-2.58.85-3.3,1.52-.73.67-1.09,1.61-1.09,2.83,0,1.32.41,2.31,1.22,2.96.81.65,2,.98,3.56.98,1.73,0,3.28-.4,4.64-1.2,1.37-.8,2.44-1.97,3.22-3.52.78-1.55,1.17-3.46,1.17-5.73l.86,5.32h-1.15c-.37,2.51-1.35,4.46-2.92,5.84-1.57,1.38-3.69,2.08-6.35,2.08ZM667.87,183.65c-.62,0-1.09-.19-1.41-.59-.32-.39-.48-.94-.48-1.65v-7.21l.29-.74-.16-2.73-.14-1.42v-1.83c0-1.23-.25-2.24-.76-3.02-.5-.78-1.23-1.36-2.18-1.74-.95-.37-2.09-.56-3.43-.56-2,0-3.54.4-4.63,1.18-1.09.79-1.82,1.97-2.18,3.55l-3.11-.65c.3-1.58.87-2.89,1.69-3.93.82-1.05,1.93-1.83,3.3-2.34,1.38-.52,3.05-.78,5.04-.78s3.82.29,5.22.87c1.41.58,2.47,1.46,3.19,2.65.72,1.19,1.08,2.72,1.08,4.6v13.55h3.54v2.8h-4.89Z"/>
      <path class="cls-2" d="M684.67,180.85h4.69v2.8h-12.87v-2.8h4.94v-18.42h-4.94v-2.8h8.18v21.22ZM693.89,163.09c-.27-.07-.56-.14-.87-.18s-.64-.07-1-.07c-2.22,0-4.01.83-5.34,2.49-1.34,1.66-2.01,3.96-2.01,6.91l-.77-5.25h.92c.21-1.59.65-2.96,1.31-4.11.66-1.15,1.52-2.04,2.58-2.66,1.06-.62,2.3-.94,3.73-.94.27,0,.51.01.73.03.22.02.45.06.71.1v3.67Z"/>
      <path class="cls-2" d="M705.19,180.85h4.28v2.8h-12.47v-2.8h4.94v-18.42h-4.94v-2.8h8.18v21.22ZM719.03,180.85v-12.56c0-1.97-.44-3.52-1.33-4.64-.89-1.13-2.29-1.69-4.19-1.69-1.55,0-2.95.38-4.22,1.15-1.26.77-2.26,1.88-3,3.34-.74,1.46-1.1,3.22-1.1,5.3l-.74-4.8h.9c.29-1.64.83-3.03,1.65-4.18.81-1.15,1.85-2.03,3.12-2.64,1.27-.61,2.73-.91,4.39-.91,2.62,0,4.57.76,5.85,2.27,1.29,1.51,1.93,3.64,1.93,6.39v12.99h4.62v2.8h-12.08v-2.8h4.22Z"/>
      <path class="cls-2" d="M742.52,184.08c-2.48,0-4.63-.53-6.45-1.58-1.82-1.05-3.22-2.51-4.21-4.36-.99-1.86-1.49-3.99-1.49-6.41s.5-4.61,1.5-6.49c1-1.88,2.4-3.35,4.19-4.42,1.8-1.07,3.89-1.6,6.28-1.6s4.49.53,6.24,1.58c1.76,1.05,3.11,2.51,4.06,4.38.95,1.86,1.42,4.01,1.42,6.45,0,.29,0,.51-.01.68,0,.16-.03.31-.06.43h-3.2c.01-.18.03-.38.03-.6,0-.22.01-.47.01-.75,0-1.79-.34-3.38-1.03-4.77-.68-1.39-1.66-2.48-2.92-3.28-1.26-.8-2.78-1.2-4.55-1.2s-3.25.41-4.56,1.23-2.32,1.95-3.04,3.38c-.72,1.44-1.08,3.1-1.08,5s.36,3.45,1.07,4.86c.72,1.41,1.73,2.51,3.06,3.3,1.32.8,2.89,1.2,4.71,1.2s3.54-.45,4.93-1.34c1.39-.89,2.42-2.12,3.1-3.66l3.07,1.15c-.89,2.12-2.3,3.79-4.25,5.02-1.95,1.22-4.22,1.84-6.82,1.84ZM732.42,172.71v-2.5h20.61l.95,2.5h-21.56Z"/>
      <path class="cls-2" d="M766.74,180.85h4.69v2.8h-12.87v-2.8h4.94v-18.42h-4.94v-2.8h8.18v21.22ZM775.96,163.09c-.27-.07-.56-.14-.87-.18s-.64-.07-1-.07c-2.22,0-4.01.83-5.34,2.49-1.34,1.66-2.01,3.96-2.01,6.91l-.77-5.25h.92c.21-1.59.65-2.96,1.31-4.11.66-1.15,1.52-2.04,2.58-2.66,1.06-.62,2.3-.94,3.73-.94.27,0,.51.01.73.03.22.02.45.06.71.1v3.67Z"/>
      <path class="cls-2" d="M779.88,183.65v-7.58h3.25v7.58h-3.25ZM791.25,184.08c-1.61,0-2.96-.24-4.07-.72-1.1-.48-1.98-1.12-2.63-1.93-.65-.8-1.07-1.7-1.26-2.7h-.81l.65-2.66c.29,1.58,1.07,2.86,2.36,3.86,1.28.99,2.96,1.49,5.02,1.49,1.76,0,3.12-.36,4.09-1.07.97-.71,1.45-1.75,1.45-3.12,0-1.25-.48-2.22-1.44-2.91-.96-.69-2.64-1.22-5.05-1.58-3.44-.54-5.89-1.39-7.35-2.56-1.46-1.17-2.19-2.7-2.19-4.61s.67-3.46,2.01-4.62c1.34-1.16,3.2-1.74,5.59-1.74,1.58,0,2.88.24,3.91.72,1.03.48,1.82,1.12,2.38,1.93.56.8.92,1.69,1.08,2.65h.81l-.65,2.55c-.27-1.53-1.01-2.78-2.21-3.75-1.2-.97-2.77-1.45-4.71-1.45-1.56,0-2.79.33-3.67.99-.88.66-1.32,1.54-1.32,2.64,0,1.16.55,2.06,1.65,2.72,1.1.65,2.82,1.17,5.19,1.54,3.34.53,5.7,1.39,7.1,2.59s2.1,2.83,2.1,4.87c0,2.15-.69,3.83-2.06,5.05-1.38,1.22-3.36,1.83-5.96,1.83ZM795.15,167.05v-7.42h3.25v7.42h-3.25Z"/>
    </g>
    <rect class="cls-4" x="404.83" y="42.44" width="1.76" height="141.84"/>
  </g>
</svg>