<?xml version="1.0" encoding="UTF-8"?>
<svg id="Layer_2" data-name="Layer 2" xmlns="http://www.w3.org/2000/svg" viewBox="0 0 488.52 302.51">
  <defs>
    <style>
      .cls-1 {
        fill: #4cf;
      }

      .cls-1, .cls-2, .cls-3 {
        stroke-width: 0px;
      }

      .cls-3 {
        fill: #fff;
      }
    </style>
  </defs>
  <g id="Layer_1-2" data-name="Layer 1">
    <path class="cls-2" d="M405.94,0h-173.04c-45.54,0-82.58,37.05-82.58,82.58v17.2c0,16.05,4.61,31.04,12.57,43.73l-13.78,27.09c-.46.91-.38,2,.21,2.83.52.72,1.35,1.14,2.22,1.14.13,0,.26,0,.39-.03l36.43-5.29c12.86,8.28,28.14,13.11,44.54,13.11h173.04c45.53,0,82.58-37.05,82.58-82.58v-17.2c0-45.53-37.05-82.58-82.58-82.58Z"/>
    <path class="cls-3" d="M483.07,99.78c0,42.52-34.6,77.12-77.12,77.12h-173.04c-13.51,0-26.2-3.53-37.26-9.66.34-.53.51-1.19.42-1.87-.22-1.49-1.6-2.53-3.09-2.31l-36.61,5.32,13.94-27.39c.68-1.34.15-2.98-1.19-3.67-1.09-.56-2.36-.3-3.18.53-6.42-11.25-10.14-24.22-10.14-38.07v-17.2c0-42.52,34.6-77.12,77.12-77.12h173.04c42.52,0,77.12,34.6,77.12,77.12v17.2Z"/>
    <g>
      <path class="cls-2" d="M207.03,77.24c0,1.9-.66,3.52-1.99,4.85-1.33,1.33-2.94,1.99-4.85,1.99s-3.52-.66-4.85-1.99c-1.33-1.33-1.99-2.94-1.99-4.85,0-.95.18-1.84.53-2.67.35-.83.84-1.55,1.47-2.18s1.35-1.11,2.18-1.46c.83-.35,1.72-.53,2.67-.53s1.84.18,2.67.53,1.55.84,2.18,1.46c.63.63,1.11,1.35,1.47,2.18.35.83.53,1.71.53,2.67ZM194.86,121.27c0-7.21.45-14.4,1.35-21.56.1-.7.41-1.31.94-1.84s1.21-.79,2.07-.79c.75,0,1.38.29,1.88.87.5.58.75,1.24.75,1.99,0,.3-.06,1.2-.19,2.71-.13,1.5-.28,3.29-.45,5.37-.18,2.08-.33,4.28-.45,6.61-.13,2.33-.19,4.47-.19,6.42,0,2.65.26,4.8.79,6.42.53,1.63,1.2,2.89,2.03,3.8.83.9,1.7,1.5,2.63,1.8.93.3,1.81.45,2.67.45,1.4,0,2.86-.5,4.36-1.5,1.5-1,3.04-2.4,4.62-4.21s3.17-3.97,4.77-6.5c1.6-2.53,3.18-5.35,4.73-8.45.25-.5.6-.89,1.05-1.17.45-.27.95-.41,1.5-.41.8,0,1.47.3,1.99.9s.79,1.25.79,1.95c0,.5-.1.93-.3,1.28-.6,1.15-1.35,2.55-2.25,4.21-.9,1.65-1.93,3.36-3.08,5.11-1.15,1.75-2.42,3.49-3.79,5.22-1.38,1.73-2.84,3.28-4.4,4.66-1.55,1.38-3.18,2.49-4.88,3.34s-3.43,1.28-5.18,1.28c-2.25,0-4.23-.48-5.94-1.43-1.7-.95-3.14-2.23-4.32-3.83-1.18-1.6-2.06-3.49-2.63-5.67-.58-2.18-.86-4.52-.86-7.03ZM202.82,77.24c0-.7-.26-1.31-.79-1.84s-1.14-.79-1.84-.79-1.3.26-1.8.79c-.5.53-.75,1.14-.75,1.84s.25,1.3.75,1.8c.5.5,1.1.75,1.8.75s1.31-.25,1.84-.75.79-1.1.79-1.8Z"/>
      <path class="cls-2" d="M290.43,115.41c-.15.3-.48.92-.98,1.84-.5.93-1.15,2-1.95,3.23-.8,1.23-1.75,2.53-2.85,3.91-1.1,1.38-2.3,2.64-3.61,3.79-1.3,1.15-2.71,2.1-4.21,2.86-1.5.75-3.06,1.13-4.66,1.13-2.6,0-4.81-.46-6.61-1.39-1.8-.93-3.28-1.97-4.43-3.12-.8,1.75-1.78,3.36-2.93,4.81-1.15,1.45-2.43,2.72-3.83,3.8-1.4,1.08-2.89,1.92-4.47,2.52-1.58.6-3.19.9-4.85.9-3.05,0-5.66-.9-7.81-2.7-2.16-1.8-3.94-4.22-5.37-7.25-1.43-3.03-2.54-6.55-3.34-10.56s-1.41-8.21-1.84-12.62-.69-8.87-.79-13.38c-.1-4.51-.15-8.79-.15-12.85,0-7.76.23-14.49.68-20.17.45-5.68,1.06-10.52,1.84-14.5s1.68-7.21,2.71-9.69c1.03-2.48,2.11-4.41,3.27-5.79,1.15-1.38,2.33-2.32,3.53-2.82,1.2-.5,2.38-.75,3.53-.75,1.85,0,3.49.55,4.92,1.65,1.43,1.1,2.63,2.64,3.61,4.62.98,1.98,1.71,4.37,2.22,7.18s.75,5.89.75,9.24c0,5.36-.58,10.9-1.73,16.6-1.15,5.71-2.64,11.41-4.47,17.09-1.83,5.69-3.87,11.27-6.12,16.75-2.25,5.48-4.48,10.68-6.69,15.59.3,2.46.75,4.8,1.35,7.03.6,2.23,1.38,4.21,2.33,5.94.95,1.73,2.08,3.11,3.38,4.13,1.3,1.03,2.81,1.54,4.51,1.54s3.3-.49,4.81-1.46c1.5-.98,2.8-2.25,3.91-3.83,1.1-1.58,1.97-3.37,2.59-5.37.63-2,.94-4.06.94-6.16,0-1.4-.14-2.82-.41-4.24-.28-1.43-.7-2.71-1.28-3.83-.58-1.13-1.29-2.04-2.14-2.74-.85-.7-1.88-1.05-3.08-1.05-.9,0-1.6.19-2.1.56-.5.37-.88.8-1.13,1.28-.25.48-.4.94-.45,1.39-.05.45-.07.75-.07.9,0,.7.15,1.4.45,2.1.3.7.88,1.33,1.73,1.88.85.6,1.28,1.43,1.28,2.48,0,.85-.29,1.53-.87,2.03s-1.21.75-1.92.75c-1,0-1.89-.3-2.67-.9-.78-.6-1.44-1.36-1.99-2.29-.55-.93-.98-1.92-1.28-2.97-.3-1.05-.45-2.03-.45-2.93,0-1.45.25-2.79.75-4.02.5-1.23,1.19-2.28,2.07-3.16.87-.88,1.88-1.55,3-2.03s2.32-.71,3.57-.71c2.15,0,4.02.5,5.6,1.5s2.89,2.33,3.95,3.98c1.05,1.65,1.83,3.53,2.33,5.64.5,2.1.75,4.23.75,6.39,0,1.25-.07,2.48-.23,3.68.2.4.53.93.98,1.58.45.65,1.05,1.28,1.8,1.88.75.6,1.65,1.13,2.7,1.58,1.05.45,2.28.68,3.68.68,1.2,0,2.44-.46,3.72-1.39,1.28-.93,2.5-2.08,3.68-3.46,1.18-1.38,2.27-2.86,3.27-4.43,1-1.58,1.83-3.04,2.48-4.39.25-.5.6-.89,1.05-1.17.45-.27.95-.41,1.5-.41.85,0,1.54.3,2.07.9s.79,1.28.79,2.03c0,.3-.1.7-.3,1.2ZM232.35,105.72c1.7-4.21,3.43-8.63,5.18-13.26,1.75-4.63,3.33-9.35,4.73-14.16,1.4-4.81,2.55-9.67,3.46-14.58.9-4.91,1.35-9.74,1.35-14.5,0-1.8-.09-3.69-.26-5.67-.18-1.98-.49-3.79-.94-5.45-.45-1.65-1.07-3.03-1.84-4.13-.78-1.1-1.77-1.65-2.97-1.65-.4,0-.91.26-1.54.79-.63.53-1.29,1.45-1.99,2.78-.7,1.33-1.4,3.17-2.1,5.52-.7,2.35-1.34,5.35-1.92,8.98-.58,3.63-1.05,8-1.43,13.11-.37,5.11-.56,11.12-.56,18.03,0,2.3.02,4.65.07,7.03s.11,4.65.19,6.8.16,4.13.26,5.93c.1,1.8.2,3.28.3,4.43Z"/>
      <path class="cls-2" d="M319.95,127.96c-1.25,0-2.35-.1-3.31-.3-.75,1.5-1.65,2.89-2.7,4.17-1.05,1.28-2.27,2.39-3.64,3.34-1.38.95-2.92,1.7-4.62,2.25-1.7.55-3.56.83-5.56.83-2.35,0-4.51-.41-6.46-1.24-1.95-.83-3.66-1.98-5.11-3.46-1.45-1.48-2.58-3.26-3.38-5.34-.8-2.08-1.2-4.37-1.2-6.87,0-3.21.57-6,1.73-8.38,1.15-2.38,2.48-4.36,3.98-5.94,1.5-1.58,3-2.75,4.51-3.53,1.5-.78,2.63-1.17,3.38-1.17.85,0,1.49.23,1.92.68.42.45.64,1.05.64,1.8,0,.85-.26,1.49-.79,1.92-.53.43-1.19.84-1.99,1.24-.8.4-1.65.96-2.55,1.69-.9.73-1.74,1.64-2.52,2.74s-1.41,2.4-1.92,3.91c-.5,1.5-.75,3.18-.75,5.03,0,1.65.25,3.19.75,4.62.5,1.43,1.23,2.65,2.18,3.68.95,1.03,2.08,1.83,3.38,2.4,1.3.58,2.75.86,4.36.86,2.86,0,5.22-.66,7.1-1.99s3.32-3.02,4.32-5.07c-2.96-1.55-5.39-3.76-7.29-6.61-1.9-2.86-2.86-6.06-2.86-9.62,0-2.86.69-5.18,2.07-6.99,1.38-1.8,3.19-2.71,5.45-2.71,1.35,0,2.63.33,3.83.98,1.2.65,2.27,1.68,3.19,3.08.93,1.4,1.66,3.21,2.22,5.41.55,2.2.83,4.83.83,7.89,0,1.6-.2,3.28-.6,5.04.3.05.6.07.9.07h.98c1.7,0,3.23-.2,4.58-.6s2.58-1,3.68-1.8c1.1-.8,2.09-1.83,2.97-3.08.88-1.25,1.71-2.7,2.52-4.36.15-.3.48-.59.98-.86.5-.27,1-.41,1.5-.41.65,0,1.26.26,1.84.79.57.53.86,1.21.86,2.06,0,.4-.1.84-.3,1.31-.2.48-.4.92-.6,1.31-.85,1.5-1.84,2.94-2.97,4.32-1.13,1.38-2.45,2.58-3.98,3.61-1.53,1.03-3.24,1.84-5.15,2.44-1.9.6-4.03.88-6.39.83ZM307.11,109.02c0,.95.12,1.95.37,3s.64,2.09,1.17,3.12c.53,1.03,1.18,2,1.95,2.93.78.93,1.69,1.71,2.74,2.37.15-1.05.23-2.08.23-3.08,0-1.35-.1-2.73-.3-4.13-.2-1.4-.49-2.69-.87-3.87-.37-1.18-.84-2.13-1.39-2.86-.55-.72-1.2-1.09-1.95-1.09-.3,0-.7.23-1.2.68-.5.45-.75,1.43-.75,2.93Z"/>
      <path class="cls-2" d="M358.87,127.81c-1.75,2.86-3.79,5.11-6.12,6.76-2.33,1.65-4.67,2.48-7.03,2.48-1.9,0-3.61-.35-5.11-1.05-1.5-.7-2.81-1.69-3.91-2.97-1.1-1.28-1.94-2.82-2.52-4.62-.58-1.8-.86-3.83-.86-6.09,0-3.51.34-6.61,1.01-9.32.68-2.7,1.42-4.97,2.22-6.8.8-1.83,1.9-3.69,3.31-5.6.25-.3.56-.53.94-.68.38-.15.76-.23,1.17-.23.8,0,1.46.29,1.99.87s.79,1.24.79,1.99c0,.3-.06.6-.19.9-.12.3-.26.6-.41.9-.25.45-.65,1.14-1.2,2.07-.55.93-1.13,2.14-1.73,3.64-.6,1.5-1.13,3.27-1.58,5.3-.45,2.03-.68,4.35-.68,6.95,0,2.95.59,5.2,1.77,6.72,1.18,1.53,2.84,2.29,5,2.29.9,0,1.94-.29,3.12-.86,1.18-.58,2.33-1.47,3.46-2.67,1.13-1.2,2.12-2.73,2.97-4.58.85-1.85,1.4-4.03,1.65-6.54l1.13-12.92c.1-.75.42-1.38.98-1.88.55-.5,1.2-.75,1.95-.75.85,0,1.53.31,2.03.94.5.63.75,1.34.75,2.14l-.98,12.47c-.1,1.05-.06,2.43.11,4.13.18,1.7.54,3.38,1.09,5.03.55,1.65,1.38,3.07,2.48,4.24,1.1,1.18,2.55,1.77,4.36,1.77,1.3,0,2.58-.34,3.83-1.01,1.25-.68,2.45-1.57,3.61-2.67,1.15-1.1,2.22-2.34,3.19-3.72.98-1.38,1.88-2.77,2.71-4.17.83-1.4,1.54-2.74,2.14-4.02.6-1.28,1.1-2.37,1.5-3.27.25-.55.6-.98,1.05-1.28.45-.3.95-.45,1.5-.45.9,0,1.6.3,2.1.9s.75,1.25.75,1.95c0,.4-.07.78-.23,1.13-.2.4-.59,1.24-1.16,2.52-.58,1.28-1.33,2.73-2.25,4.36-.93,1.63-2.04,3.34-3.34,5.15-1.3,1.8-2.75,3.47-4.36,5-1.6,1.53-3.34,2.78-5.22,3.76-1.88.98-3.89,1.47-6.05,1.47-2.96,0-5.41-.84-7.36-2.52-1.95-1.68-3.41-4.07-4.36-7.17Z"/>
      <path class="cls-2" d="M432.58,93.69c-7.71,9.52-14.75,19.54-21.11,30.05,1.75,2.6,3.68,4.76,5.79,6.46,2.1,1.7,4.48,2.55,7.14,2.55,2.35,0,4.58-.68,6.69-2.03,2.1-1.35,4.02-3.02,5.75-5s3.23-4.11,4.51-6.39c1.28-2.28,2.27-4.34,2.97-6.2.5-1.25,1.38-1.88,2.63-1.88.85,0,1.54.29,2.06.86s.79,1.24.79,1.99c0,.25-.05.58-.15.98.05-.1-.18.4-.68,1.5-.5,1.1-1.25,2.52-2.25,4.24-1,1.73-2.23,3.62-3.68,5.67-1.45,2.05-3.12,3.97-5,5.75-1.88,1.78-3.97,3.26-6.27,4.43-2.3,1.18-4.78,1.76-7.44,1.76-3.3,0-6.27-.88-8.9-2.63-2.63-1.75-5-3.98-7.1-6.69-.85,1.5-1.68,3-2.48,4.51-.8,1.5-1.6,3-2.4,4.51-.55,1.05-1.4,1.58-2.55,1.58-.85,0-1.54-.3-2.07-.9-.53-.6-.79-1.25-.79-1.95,0-.4.12-.85.37-1.35,1-1.95,2.03-3.91,3.08-5.86,1.05-1.95,2.15-3.88,3.31-5.79-1.7-2.95-3.16-5.97-4.36-9.05-1.2-3.08-2.15-5.97-2.86-8.68l-4.43,9.17c-.55,1.1-1.4,1.65-2.55,1.65-.85,0-1.54-.3-2.07-.9s-.79-1.25-.79-1.95c0-.45.1-.85.3-1.2l8.19-17.13c.25-.45.6-.83,1.05-1.13s.95-.45,1.5-.45c.8,0,1.45.26,1.95.79s.8,1.17.9,1.92c.05.7.24,1.8.56,3.3.33,1.5.78,3.22,1.35,5.15.58,1.93,1.25,4,2.03,6.2.77,2.2,1.69,4.38,2.74,6.54,6.01-9.77,12.65-19.11,19.91-28.02.5-.65,1.23-.98,2.18-.98.8,0,1.48.28,2.03.83.55.55.83,1.2.83,1.95,0,.7-.23,1.3-.68,1.8Z"/>
    </g>
    <g>
      <path class="cls-3" d="M85.16,192.03c0,3.64-6.6,6.6-6.6,6.6,0,0-6.6-2.95-6.6-6.6s2.95-6.6,6.6-6.6,6.6,2.95,6.6,6.6Z"/>
      <path class="cls-2" d="M78.56,201.62l-1.11-.5c-1.37-.61-8.21-3.94-8.21-9.09s4.18-9.33,9.33-9.33,9.33,4.18,9.33,9.33-6.84,8.48-8.21,9.09l-1.11.5ZM78.56,188.16c-2.13,0-3.87,1.74-3.87,3.87,0,.79,1.81,2.4,3.87,3.55,2.08-1.16,3.87-2.75,3.87-3.55,0-2.13-1.74-3.87-3.87-3.87Z"/>
    </g>
    <path class="cls-2" d="M55.85,188.16c-12.18,0-22.1-9.91-22.1-22.1v-.61c0-12.18,9.91-22.1,22.1-22.1s22.1,9.91,22.1,22.1v.61c0,12.19-9.91,22.1-22.1,22.1ZM55.85,148.82c-9.17,0-16.64,7.46-16.64,16.64v.61c0,9.18,7.46,16.64,16.64,16.64s16.64-7.46,16.64-16.64v-.61c0-9.17-7.46-16.64-16.64-16.64Z"/>
    <path class="cls-2" d="M101.98,188.16c-12.18,0-22.1-9.91-22.1-22.1v-.61c0-12.18,9.91-22.1,22.1-22.1s22.1,9.91,22.1,22.1v.61c0,12.19-9.91,22.1-22.1,22.1ZM101.98,148.82c-9.17,0-16.64,7.46-16.64,16.64v.61c0,9.18,7.46,16.64,16.64,16.64s16.64-7.46,16.64-16.64v-.61c0-9.17-7.46-16.64-16.64-16.64Z"/>
    <ellipse class="cls-2" cx="51.31" cy="168.12" rx="5.78" ry="5.64"/>
    <ellipse class="cls-2" cx="97.42" cy="168.12" rx="5.78" ry="5.64"/>
    <path class="cls-2" d="M85.14,138.95c-.92,0-1.82-.46-2.33-1.31-.79-1.29-.38-2.97.91-3.75,6.67-4.07,13.43-6.24,20.11-6.43,3.7-.11,6.73.39,9.4.83,4.05.67,6.97,1.15,10.73-.55,1.29-.58,4.7-2.12,6.32-5.63.63-1.36.92-2.86.89-4.47-.03-1.51,1.16-2.76,2.67-2.79h.06c1.48,0,2.69,1.18,2.73,2.67.06,2.45-.41,4.77-1.38,6.88-2.47,5.37-7.41,7.59-9.04,8.32-5.27,2.37-9.44,1.68-13.86.95-2.55-.42-5.18-.84-8.36-.76-5.71.17-11.57,2.06-17.42,5.63-.44.27-.93.4-1.42.4Z"/>
    <path class="cls-2" d="M70.33,138.95c-.49,0-.98-.13-1.42-.4-5.85-3.57-11.71-5.47-17.42-5.63-3.17-.08-5.81.34-8.36.76-4.42.73-8.59,1.41-13.86-.95-1.62-.73-6.57-2.95-9.04-8.33-.97-2.12-1.44-4.43-1.38-6.88.03-1.49,1.25-2.67,2.73-2.67h.06c1.51.04,2.7,1.28,2.67,2.79-.04,1.61.26,3.12.88,4.47,1.62,3.52,5.03,5.05,6.32,5.63,3.76,1.69,6.69,1.21,10.73.55,2.67-.44,5.71-.94,9.4-.83,6.68.19,13.44,2.36,20.11,6.43,1.29.79,1.69,2.47.91,3.75-.52.84-1.41,1.31-2.33,1.31Z"/>
    <g>
      <path class="cls-2" d="M209.58,205.02h3.91l14.05,38.56h-3.17l-3.17-8.7h-19.31l-3.17,8.7h-3.17l14.02-38.56ZM202.97,231.9h17.13l-8.57-23.49-8.57,23.49Z"/>
      <path class="cls-2" d="M248.91,244.3c-2.61,0-5.06-.52-7.35-1.56-2.3-1.04-4.31-2.47-6.05-4.3-1.74-1.83-3.09-3.95-4.08-6.38-.98-2.42-1.47-5.01-1.47-7.77s.49-5.34,1.47-7.77c.98-2.42,2.34-4.55,4.08-6.38,1.74-1.83,3.75-3.26,6.05-4.3s4.75-1.56,7.35-1.56c3.12,0,6,.72,8.62,2.18,2.63,1.45,4.8,3.38,6.53,5.78l-2.62,1.43c-1.45-1.97-3.29-3.53-5.52-4.68s-4.57-1.74-7.01-1.74c-2.24,0-4.32.45-6.25,1.35-1.93.9-3.62,2.13-5.08,3.7-1.46,1.57-2.6,3.38-3.41,5.44-.82,2.06-1.23,4.23-1.23,6.53s.41,4.55,1.24,6.6c.83,2.05,1.97,3.86,3.44,5.43,1.47,1.57,3.17,2.8,5.09,3.68,1.93.88,3.99,1.32,6.2,1.32,2.55,0,4.93-.59,7.12-1.76,2.19-1.18,4-2.71,5.41-4.6l2.62,1.4c-1.73,2.41-3.9,4.33-6.53,5.77-2.63,1.44-5.5,2.16-8.62,2.16Z"/>
      <path class="cls-2" d="M282.6,205.02h3.91l14.05,38.56h-3.17l-3.17-8.7h-19.31l-3.17,8.7h-3.17l14.02-38.56ZM275.99,231.9h17.13l-8.57-23.49-8.57,23.49Z"/>
      <path class="cls-2" d="M305.84,243.58v-38.56h12.75c2.66,0,5.16.5,7.49,1.5,2.33,1,4.38,2.39,6.14,4.16,1.76,1.77,3.14,3.82,4.15,6.14,1,2.32,1.5,4.82,1.5,7.48s-.5,5.16-1.5,7.48c-1,2.32-2.38,4.37-4.15,6.14-1.76,1.77-3.81,3.16-6.14,4.16-2.33,1-4.83,1.5-7.49,1.5h-12.75ZM308.82,240.61h9.78c2.26,0,4.37-.42,6.33-1.27,1.97-.85,3.7-2.01,5.19-3.51,1.5-1.5,2.67-3.23,3.51-5.19.84-1.97,1.27-4.08,1.27-6.34s-.42-4.37-1.27-6.33c-.85-1.97-2.02-3.7-3.53-5.19-1.5-1.5-3.24-2.67-5.2-3.51-1.97-.84-4.07-1.27-6.31-1.27h-9.78v32.61Z"/>
      <path class="cls-2" d="M343.11,243.58v-38.56h23.25v2.97h-20.27v13.44h16.97v2.97h-16.97v16.2h20.27v2.97h-23.25Z"/>
      <path class="cls-2" d="M372.42,243.58l7.46-38.56h1.95l11.21,29.5,11.18-29.5h1.95l7.49,38.56h-3.03l-6.06-31.24-10.66,28.21h-1.82l-10.63-28.21-6.06,31.24h-3Z"/>
      <path class="cls-2" d="M442.32,205.02h3.5l-12.92,21.07v17.49h-2.97v-17.49l-12.89-21.07h3.5l10.88,17.82,10.91-17.82Z"/>
    </g>
    <path class="cls-2" d="M181.75,203.57c-.56-5.5-3.21-9.89-7.88-13.07-8.4-5.71-22.54-6.64-37.54-5.06-1.68-13.87-4.87-27.89-9.59-41.79-.49-1.43-2.03-2.19-3.46-1.71-1.43.48-2.19,2.03-1.71,3.46,10.97,32.28,13.57,65.19,7.52,95.15-5.86,29.02-16.48,40.82-22.29,45.26-10.73,8.22-25.28,12.14-40.95,11.05-5.58-.39-10.46-1.3-14.78-2.54,16.65-10.76,33.02-30.59,33.02-50.2,0-27.34-18.86-49.59-42.04-49.59-10.34,0-19.81,4.43-27.14,11.75.79-19.62,3.18-39.63,7.29-59.82.3-1.48-.65-2.92-2.13-3.22-1.48-.3-2.92.65-3.22,2.13-4.66,22.92-7.18,45.62-7.63,67.8-5.76,8.49-9.22,19.24-9.22,30.94,0,19.17,4.19,43.27,15.97,53.43,3.82,3.3,8.17,4.96,12.96,4.96,1.06,0,2.15-.08,3.25-.25,3.84-.57,8.11-2.05,12.51-4.27,5.78,2.15,12.64,3.75,20.79,4.31,1.84.13,3.67.19,5.48.19,14.91,0,28.66-4.31,39.17-12.35,4.99-3.82,9.49-9.44,13.34-16.53,2.09-.41,4.19-.87,6.29-1.46,31.09-8.8,54.05-48.39,52-68.59Z"/>
    <path class="cls-1" d="M128.27,266.91c-.58.16-1.15.28-1.72.42,3.27-7.41,5.95-16.05,7.9-25.7,3.29-16.27,4.08-33.37,2.47-50.76,4.07-.44,8.07-.7,11.88-.7,9,0,16.91,1.37,22.01,4.84,3.32,2.26,5.13,5.24,5.52,9.11,1.83,18.01-19.87,54.81-48.06,62.79Z"/>
    <path class="cls-1" d="M42.04,200c-20.17,0-36.59,19.8-36.59,44.13,0,17.14,3.69,40.33,14.07,49.3,3.46,2.98,7.33,4.11,11.84,3.45,17.8-2.63,47.26-28.37,47.26-52.74s-16.41-44.13-36.59-44.13Z"/>
  </g>
</svg>