<?xml version="1.0" encoding="UTF-8"?>
<svg id="Layer_2" data-name="Layer 2" xmlns="http://www.w3.org/2000/svg" viewBox="0 0 371.53 305.18">
  <defs>
    <style>
      .cls-1 {
        fill: #fff;
        stroke-width: 0px;
      }
    </style>
  </defs>
  <g id="Layer_1-2" data-name="Layer 1">
    <g>
      <g>
        <g>
          <path class="cls-1" d="M152.25,60.68c.53,0,1-.19,1.4-.57.4-.38.6-.84.6-1.37s-.2-1-.6-1.4c-.4-.4-.87-.6-1.4-.6s-.99.2-1.37.6c-.38.4-.57.87-.57,1.4s.19.99.57,1.37c.38.38.84.57,1.37.57Z"/>
          <path class="cls-1" d="M184.25,59.54c1.07-3.66,1.94-7.35,2.63-11.09.69-3.73,1.03-7.41,1.03-11.03,0-1.37-.07-2.81-.2-4.31-.13-1.5-.37-2.88-.71-4.14-.34-1.26-.81-2.3-1.4-3.14-.59-.84-1.34-1.26-2.26-1.26-.31,0-.69.2-1.17.6-.48.4-.98,1.11-1.51,2.11-.53,1.01-1.07,2.41-1.6,4.2-.53,1.79-1.02,4.07-1.46,6.83-.44,2.76-.8,6.09-1.09,9.97-.29,3.89-.43,8.46-.43,13.71,0,1.75.02,3.53.06,5.34.04,1.81.09,3.53.14,5.17.06,1.64.12,3.14.2,4.51.08,1.37.15,2.5.23,3.37,1.29-3.2,2.61-6.56,3.94-10.08,1.33-3.52,2.53-7.11,3.6-10.77Z"/>
          <path class="cls-1" d="M237.59,83.17c-.29-.89-.64-1.62-1.06-2.17-.42-.55-.91-.83-1.49-.83-.23,0-.53.17-.91.51-.38.34-.57,1.09-.57,2.23,0,.72.09,1.49.29,2.28.19.8.49,1.59.89,2.37.4.78.89,1.52,1.49,2.23.59.7,1.29,1.3,2.09,1.8.11-.8.17-1.58.17-2.34,0-1.03-.08-2.08-.23-3.14-.15-1.07-.37-2.05-.66-2.94Z"/>
          <path class="cls-1" d="M308.73,0h-131.6c-34.63,0-62.8,28.17-62.8,62.8v13.08c0,12.21,3.51,23.61,9.56,33.26l-10.48,20.61c-.35.69-.29,1.52.16,2.15.39.55,1.02.87,1.69.87.1,0,.2,0,.3-.02l27.71-4.03c9.78,6.3,21.4,9.97,33.88,9.97h131.6c34.63,0,62.8-28.17,62.8-62.8v-13.08c0-34.63-28.17-62.8-62.8-62.8ZM147.45,56.71c.27-.63.64-1.18,1.11-1.66.48-.48,1.03-.85,1.66-1.11.63-.27,1.31-.4,2.03-.4s1.4.13,2.03.4c.63.27,1.18.64,1.66,1.11.48.48.85,1.03,1.11,1.66.27.63.4,1.3.4,2.03,0,1.45-.51,2.68-1.51,3.68-1.01,1.01-2.24,1.51-3.68,1.51s-2.68-.51-3.69-1.51c-1.01-1.01-1.51-2.24-1.51-3.68,0-.72.13-1.4.4-2.03ZM341.95,87.54c.04-.08-.13.31-.52,1.14-.38.84-.95,1.91-1.71,3.23-.76,1.31-1.7,2.75-2.8,4.31-1.11,1.56-2.37,3.02-3.8,4.37-1.43,1.35-3.02,2.48-4.77,3.37-1.75.89-3.64,1.34-5.66,1.34-2.51,0-4.77-.67-6.77-2-2-1.33-3.8-3.03-5.4-5.08-.65,1.14-1.28,2.29-1.88,3.43-.61,1.14-1.22,2.29-1.83,3.43-.42.8-1.07,1.2-1.94,1.2-.65,0-1.17-.23-1.57-.69-.4-.46-.6-.95-.6-1.49,0-.31.09-.65.29-1.03.76-1.49,1.54-2.97,2.34-4.46.8-1.49,1.64-2.95,2.51-4.4-1.3-2.25-2.4-4.54-3.31-6.89s-1.64-4.54-2.17-6.6l-3.37,6.97c-.12.25-.27.45-.44.62-.15.32-.34.73-.56,1.24-.44.97-1.01,2.08-1.71,3.31-.71,1.24-1.55,2.54-2.54,3.91s-2.09,2.64-3.31,3.8c-1.22,1.16-2.54,2.11-3.97,2.86-1.43.74-2.96,1.11-4.6,1.11-2.25,0-4.11-.64-5.6-1.91-1.49-1.28-2.59-3.09-3.31-5.46-1.33,2.17-2.88,3.88-4.66,5.14-1.77,1.26-3.55,1.89-5.34,1.89-1.45,0-2.74-.27-3.89-.8-1.14-.53-2.13-1.29-2.97-2.26-.84-.97-1.48-2.14-1.91-3.51-.38-1.18-.58-2.49-.63-3.93-.45.39-.92.76-1.42,1.1-1.16.78-2.47,1.4-3.91,1.86s-3.07.67-4.86.63c-.95,0-1.79-.08-2.51-.23-.57,1.14-1.26,2.2-2.06,3.17-.8.97-1.72,1.82-2.77,2.54-1.05.72-2.22,1.29-3.51,1.71-1.3.42-2.71.63-4.23.63-1.79,0-3.43-.31-4.91-.94-1.49-.63-2.78-1.51-3.89-2.63-1.11-1.12-1.96-2.48-2.57-4.06-.31-.81-.54-1.67-.7-2.57-.76.91-1.57,1.77-2.45,2.54-.99.88-2.06,1.6-3.2,2.17-1.14.57-2.32.86-3.54.86-1.98,0-3.66-.35-5.03-1.06-1.37-.7-2.5-1.49-3.37-2.37-.61,1.33-1.35,2.55-2.23,3.66-.88,1.11-1.85,2.07-2.91,2.89-1.07.82-2.2,1.46-3.4,1.91-1.2.46-2.43.69-3.69.69-2.32,0-4.31-.69-5.94-2.06-1.64-1.37-3-3.21-4.09-5.51-.89-1.89-1.61-4.04-2.18-6.43-.5.86-1.03,1.73-1.62,2.63-.88,1.33-1.84,2.66-2.88,3.97-1.05,1.31-2.16,2.5-3.34,3.54-1.18,1.05-2.42,1.89-3.71,2.54-1.29.65-2.61.97-3.94.97-1.71,0-3.22-.36-4.51-1.09-1.3-.72-2.39-1.69-3.28-2.91-.9-1.22-1.56-2.66-2-4.31-.44-1.66-.66-3.44-.66-5.34,0-5.49.34-10.95,1.03-16.4.08-.53.31-1,.71-1.4.4-.4.92-.6,1.57-.6.57,0,1.05.22,1.43.66.38.44.57.94.57,1.51,0,.23-.05.91-.14,2.06-.1,1.14-.21,2.51-.34,4.08-.13,1.58-.25,3.26-.34,5.03-.1,1.77-.14,3.4-.14,4.89,0,2.02.2,3.65.6,4.88.4,1.24.91,2.2,1.54,2.89.63.69,1.29,1.14,2,1.37.7.23,1.38.34,2.03.34,1.07,0,2.17-.38,3.31-1.14,1.14-.76,2.31-1.83,3.51-3.2s2.41-3.02,3.63-4.94c1.22-1.92,2.42-4.07,3.6-6.43.05-.1.11-.17.17-.25-.21-1.48-.39-3-.54-4.54-.32-3.35-.52-6.74-.6-10.17-.08-3.43-.11-6.68-.11-9.77,0-5.9.17-11.02.51-15.34.34-4.32.81-8,1.4-11.03.59-3.03,1.28-5.48,2.06-7.37.78-1.88,1.61-3.35,2.49-4.4.88-1.05,1.77-1.76,2.69-2.14.91-.38,1.81-.57,2.68-.57,1.41,0,2.66.42,3.74,1.26,1.09.84,2,2.01,2.74,3.51.74,1.51,1.3,3.32,1.68,5.46.38,2.13.57,4.48.57,7.03,0,4.08-.44,8.29-1.31,12.63-.88,4.34-2.01,8.68-3.4,13-1.39,4.32-2.94,8.57-4.66,12.74-1.71,4.17-3.41,8.12-5.09,11.86.23,1.87.57,3.65,1.03,5.34.46,1.7,1.05,3.2,1.77,4.51.72,1.31,1.58,2.36,2.57,3.14.99.78,2.13,1.17,3.43,1.17s2.51-.37,3.66-1.11c1.14-.74,2.13-1.71,2.97-2.91.84-1.2,1.49-2.56,1.97-4.09.48-1.52.71-3.08.71-4.68,0-1.07-.11-2.14-.31-3.23-.21-1.09-.53-2.06-.97-2.91-.44-.86-.98-1.55-1.63-2.08-.65-.53-1.43-.8-2.34-.8-.69,0-1.22.14-1.6.43-.38.29-.67.61-.86.97-.19.36-.31.71-.34,1.06-.04.34-.06.57-.06.69,0,.54.11,1.07.34,1.6.23.54.67,1.01,1.31,1.43.65.46.97,1.09.97,1.88,0,.65-.22,1.16-.66,1.54-.44.38-.92.57-1.46.57-.76,0-1.44-.23-2.03-.69-.59-.46-1.1-1.04-1.51-1.74-.42-.7-.74-1.46-.97-2.26-.23-.8-.34-1.54-.34-2.23,0-1.1.19-2.12.57-3.06.38-.93.9-1.73,1.57-2.4.66-.67,1.43-1.18,2.28-1.54s1.76-.54,2.71-.54c1.64,0,3.06.38,4.26,1.14,1.2.76,2.2,1.77,3,3.03.8,1.26,1.39,2.69,1.77,4.29.38,1.6.57,3.22.57,4.86,0,.95-.06,1.88-.17,2.8.15.31.4.71.74,1.2.34.5.8.97,1.37,1.43.57.46,1.26.86,2.06,1.2.8.34,1.73.51,2.8.51.91,0,1.86-.35,2.83-1.06.97-.7,1.9-1.58,2.8-2.63.89-1.05,1.72-2.17,2.49-3.37.76-1.2,1.39-2.31,1.89-3.34.19-.38.45-.67.79-.88.75-1.38,1.59-2.57,2.52-3.55,1.14-1.2,2.28-2.09,3.43-2.68,1.14-.59,2-.89,2.57-.89.65,0,1.13.17,1.46.51.32.34.48.8.48,1.37,0,.65-.2,1.13-.6,1.46-.4.32-.91.64-1.51.94-.61.31-1.26.73-1.94,1.29-.69.55-1.32,1.25-1.91,2.09-.59.84-1.08,1.83-1.46,2.97-.38,1.14-.57,2.42-.57,3.83,0,1.26.19,2.43.57,3.51.38,1.09.93,2.02,1.66,2.8.72.78,1.58,1.39,2.57,1.83s2.09.66,3.31.66c2.17,0,3.97-.5,5.4-1.51,1.43-1.01,2.52-2.3,3.29-3.86-2.25-1.18-4.1-2.86-5.54-5.03-1.45-2.17-2.17-4.61-2.17-7.31,0-2.17.52-3.94,1.57-5.31,1.05-1.37,2.43-2.06,4.14-2.06,1.03,0,2,.25,2.91.74.91.5,1.72,1.28,2.43,2.34.71,1.07,1.27,2.44,1.69,4.11.42,1.68.63,3.68.63,6,0,1.22-.15,2.5-.46,3.83.23.04.46.06.68.06h.74c1.29,0,2.46-.15,3.48-.46s1.96-.76,2.8-1.37,1.59-1.39,2.26-2.34c.67-.95,1.3-2.06,1.91-3.31.07-.13.18-.26.34-.39.46-1.73.96-3.22,1.49-4.44.61-1.39,1.45-2.81,2.51-4.26.19-.23.43-.4.71-.51.29-.11.58-.17.89-.17.61,0,1.11.22,1.51.66s.6.94.6,1.51c0,.23-.05.46-.14.69-.09.23-.2.46-.31.69-.19.34-.5.87-.91,1.57-.42.71-.86,1.63-1.31,2.77-.46,1.14-.86,2.49-1.2,4.03-.34,1.54-.52,3.31-.52,5.29,0,2.25.45,3.95,1.34,5.11.89,1.16,2.16,1.74,3.8,1.74.69,0,1.48-.22,2.37-.66.89-.44,1.77-1.11,2.63-2.03.86-.91,1.61-2.08,2.26-3.49.65-1.41,1.07-3.07,1.26-4.97l.86-9.83c.08-.57.32-1.05.74-1.43.42-.38.91-.57,1.49-.57.65,0,1.16.24,1.54.71.38.48.57,1.02.57,1.63l-.74,9.48c-.08.8-.05,1.85.09,3.14.13,1.3.41,2.57.83,3.83.42,1.26,1.05,2.33,1.88,3.23.84.9,1.94,1.34,3.31,1.34.99,0,1.96-.26,2.91-.77.95-.51,1.87-1.19,2.74-2.03.88-.84,1.69-1.78,2.43-2.83.74-1.05,1.43-2.1,2.06-3.17.63-1.07,1.17-2.09,1.63-3.06.46-.97.84-1.8,1.14-2.49.12-.27.28-.48.47-.67l5.94-12.42c.19-.34.46-.63.8-.86.34-.23.72-.34,1.14-.34.61,0,1.1.2,1.49.6.38.4.61.89.69,1.46.04.53.18,1.37.43,2.51.25,1.14.59,2.45,1.03,3.91.44,1.47.95,3.04,1.54,4.71.59,1.68,1.28,3.33,2.08,4.97,4.57-7.43,9.62-14.53,15.14-21.31.38-.49.93-.74,1.66-.74.61,0,1.12.21,1.54.63.42.42.63.91.63,1.49,0,.53-.17.99-.51,1.37-5.87,7.24-11.22,14.86-16.06,22.86,1.33,1.98,2.8,3.62,4.4,4.91,1.6,1.3,3.41,1.94,5.43,1.94,1.79,0,3.49-.51,5.08-1.54,1.6-1.03,3.06-2.29,4.37-3.8,1.31-1.51,2.46-3.12,3.43-4.86.97-1.73,1.72-3.3,2.26-4.71.38-.95,1.05-1.43,2-1.43.65,0,1.17.22,1.57.66s.6.94.6,1.51c0,.19-.04.44-.11.74Z"/>
        </g>
        <path class="cls-1" d="M59.75,153.34l-.85-.38c-1.04-.47-6.25-3-6.25-6.91s3.18-7.09,7.09-7.09,7.09,3.18,7.09,7.09-5.2,6.45-6.25,6.91l-.85.38ZM59.75,143.1c-1.62,0-2.94,1.32-2.94,2.94,0,.6,1.38,1.83,2.94,2.7,1.58-.88,2.94-2.09,2.94-2.7,0-1.62-1.32-2.94-2.94-2.94Z"/>
        <path class="cls-1" d="M42.48,143.1c-9.27,0-16.8-7.54-16.8-16.81v-.47c0-9.27,7.54-16.8,16.8-16.8s16.8,7.54,16.8,16.8v.47c0,9.27-7.54,16.81-16.8,16.81ZM42.48,113.18c-6.98,0-12.65,5.68-12.65,12.65v.47c0,6.98,5.68,12.65,12.65,12.65s12.65-5.68,12.65-12.65v-.47c0-6.98-5.68-12.65-12.65-12.65Z"/>
        <path class="cls-1" d="M77.56,143.1c-9.27,0-16.8-7.54-16.8-16.81v-.47c0-9.27,7.54-16.8,16.8-16.8s16.8,7.54,16.8,16.8v.47c0,9.27-7.54,16.81-16.8,16.81ZM77.56,113.18c-6.98,0-12.65,5.68-12.65,12.65v.47c0,6.98,5.68,12.65,12.65,12.65s12.65-5.68,12.65-12.65v-.47c0-6.98-5.68-12.65-12.65-12.65Z"/>
        <ellipse class="cls-1" cx="39.02" cy="127.86" rx="4.4" ry="4.29"/>
        <ellipse class="cls-1" cx="74.09" cy="127.86" rx="4.4" ry="4.29"/>
        <path class="cls-1" d="M64.75,105.67c-.7,0-1.38-.35-1.77-.99-.6-.98-.29-2.26.69-2.85,5.07-3.1,10.21-4.74,15.29-4.89,2.81-.09,5.12.3,7.15.63,3.08.51,5.3.87,8.16-.42.98-.44,3.58-1.61,4.81-4.28.48-1.03.7-2.18.67-3.4-.03-1.15.88-2.1,2.03-2.12h.05c1.12,0,2.05.9,2.07,2.03.04,1.86-.31,3.63-1.05,5.24-1.88,4.08-5.64,5.77-6.87,6.33-4.01,1.8-7.18,1.28-10.54.73-1.94-.32-3.94-.64-6.36-.58-4.34.13-8.8,1.57-13.25,4.28-.34.21-.71.3-1.08.3Z"/>
        <path class="cls-1" d="M53.49,105.67c-.37,0-.74-.1-1.08-.3-4.45-2.72-8.9-4.16-13.25-4.28-2.41-.06-4.42.26-6.36.58-3.36.55-6.53,1.08-10.54-.73-1.24-.56-4.99-2.25-6.87-6.33-.74-1.61-1.1-3.37-1.05-5.23.03-1.13.95-2.03,2.07-2.03h.05c1.15.03,2.05.98,2.03,2.12-.03,1.23.2,2.37.67,3.4,1.23,2.67,3.83,3.84,4.81,4.28,2.86,1.29,5.09.92,8.16.42,2.03-.33,4.34-.72,7.15-.63,5.08.15,10.22,1.79,15.29,4.89.98.6,1.29,1.88.69,2.85-.39.64-1.07.99-1.77.99Z"/>
        <g>
          <path class="cls-1" d="M159.39,155.92h2.97l10.68,29.33h-2.41l-2.41-6.62h-14.68l-2.41,6.62h-2.41l10.66-29.33ZM154.36,176.36h13.03l-6.51-17.87-6.51,17.87Z"/>
          <path class="cls-1" d="M189.3,185.79c-1.98,0-3.85-.39-5.59-1.18-1.75-.79-3.28-1.88-4.6-3.27-1.32-1.39-2.35-3.01-3.1-4.85-.75-1.84-1.12-3.81-1.12-5.91s.37-4.06,1.12-5.91c.75-1.84,1.78-3.46,3.1-4.85,1.32-1.39,2.85-2.48,4.6-3.27s3.61-1.18,5.59-1.18c2.37,0,4.56.55,6.56,1.66,2,1.1,3.65,2.57,4.96,4.4l-1.99,1.09c-1.1-1.49-2.5-2.68-4.2-3.56s-3.47-1.32-5.33-1.32c-1.7,0-3.29.34-4.76,1.03-1.47.68-2.75,1.62-3.86,2.82-1.11,1.19-1.98,2.57-2.6,4.14-.62,1.56-.93,3.22-.93,4.96s.31,3.46.94,5.02c.63,1.56,1.5,2.93,2.62,4.13,1.12,1.19,2.41,2.13,3.87,2.8,1.47.67,3.04,1.01,4.71,1.01,1.94,0,3.75-.45,5.42-1.34,1.67-.89,3.04-2.06,4.12-3.5l1.99,1.07c-1.31,1.83-2.97,3.29-4.96,4.39-2,1.1-4.18,1.64-6.56,1.64Z"/>
          <path class="cls-1" d="M214.92,155.92h2.97l10.68,29.33h-2.41l-2.41-6.62h-14.68l-2.41,6.62h-2.41l10.66-29.33ZM209.89,176.36h13.03l-6.51-17.87-6.51,17.87Z"/>
          <path class="cls-1" d="M232.6,185.25v-29.33h9.7c2.02,0,3.92.38,5.7,1.14,1.77.76,3.33,1.81,4.67,3.16,1.34,1.35,2.39,2.9,3.15,4.67.76,1.77,1.14,3.66,1.14,5.69s-.38,3.92-1.14,5.69c-.76,1.77-1.81,3.32-3.15,4.67-1.34,1.35-2.9,2.4-4.67,3.16-1.77.76-3.67,1.14-5.7,1.14h-9.7ZM234.86,182.98h7.44c1.72,0,3.32-.32,4.82-.96,1.49-.64,2.81-1.53,3.95-2.67,1.14-1.14,2.03-2.45,2.67-3.95.64-1.49.96-3.1.96-4.82s-.32-3.32-.96-4.82c-.64-1.49-1.54-2.81-2.68-3.95-1.14-1.14-2.46-2.03-3.96-2.67-1.49-.64-3.09-.96-4.8-.96h-7.44v24.8Z"/>
          <path class="cls-1" d="M260.94,185.25v-29.33h17.68v2.26h-15.42v10.22h12.9v2.26h-12.9v12.32h15.42v2.26h-17.68Z"/>
          <path class="cls-1" d="M283.23,185.25l5.68-29.33h1.49l8.53,22.43,8.5-22.43h1.49l5.7,29.33h-2.3l-4.61-23.75-8.11,21.45h-1.38l-8.09-21.45-4.61,23.75h-2.28Z"/>
          <path class="cls-1" d="M336.39,155.92h2.66l-9.82,16.02v13.3h-2.26v-13.3l-9.8-16.02h2.66l8.27,13.55,8.3-13.55Z"/>
        </g>
        <path class="cls-1" d="M138.23,154.82c-.42-4.18-2.44-7.53-5.99-9.94-6.39-4.34-17.14-5.05-28.55-3.85-1.28-10.55-3.7-21.21-7.3-31.78-.37-1.09-1.55-1.67-2.63-1.3-1.09.37-1.67,1.55-1.3,2.63,8.34,24.55,10.32,49.57,5.72,72.36-4.46,22.07-12.53,31.04-16.95,34.42-8.16,6.25-19.23,9.23-31.15,8.4-4.24-.29-7.95-.99-11.24-1.93,12.66-8.18,25.11-23.27,25.11-38.18,0-20.8-14.34-37.71-31.98-37.71-7.86,0-15.06,3.37-20.64,8.94.6-14.92,2.42-30.14,5.55-45.5.23-1.12-.5-2.22-1.62-2.45-1.12-.23-2.22.5-2.45,1.62-3.55,17.43-5.46,34.7-5.8,51.57-4.38,6.46-7.01,14.64-7.01,23.53,0,14.58,3.19,32.91,12.14,40.63,2.91,2.51,6.21,3.77,9.85,3.77.81,0,1.63-.06,2.47-.19,2.92-.43,6.17-1.56,9.51-3.25,4.39,1.63,9.61,2.85,15.81,3.28,1.4.1,2.79.15,4.17.15,11.34,0,21.79-3.27,29.79-9.39,3.8-2.91,7.21-7.18,10.15-12.57,1.59-.31,3.18-.66,4.78-1.11,23.64-6.69,41.11-36.8,39.55-52.16ZM23.86,225.77c-3.43.5-6.38-.35-9.01-2.62-7.9-6.82-10.7-24.46-10.7-37.49,0-18.51,12.48-33.56,27.82-33.56s27.82,15.06,27.82,33.56-22.4,38.11-35.94,40.11ZM97.55,202.99c-.44.12-.87.21-1.31.32,2.49-5.64,4.52-12.21,6.01-19.54,2.5-12.37,3.1-25.38,1.88-38.6,3.09-.33,6.14-.53,9.03-.53,6.85,0,12.86,1.04,16.74,3.68,2.53,1.72,3.9,3.98,4.2,6.92,1.39,13.7-15.11,41.68-36.55,47.75Z"/>
      </g>
      <g>
        <path class="cls-1" d="M158.19,227.35v4.98h-1.73v-3.4h-8.91v14.19h3.35v1.58h-7.86v-1.58h2.79v-14.19h-2.79v-1.58h15.15ZM153.85,235.19v1.53h-7.04v-1.53h7.04Z"/>
        <path class="cls-1" d="M163.22,243.28h2.4v1.43h-6.59v-1.43h2.53v-9.43h-2.53v-1.43h4.19v10.86ZM167.94,234.18c-.14-.04-.29-.07-.44-.09s-.33-.03-.51-.03c-1.14,0-2.05.43-2.73,1.28-.68.85-1.03,2.03-1.03,3.54l-.39-2.69h.47c.11-.82.33-1.52.67-2.11.34-.59.78-1.04,1.32-1.36.54-.32,1.18-.48,1.91-.48.14,0,.26,0,.37.02s.23.03.36.05v1.88Z"/>
        <path class="cls-1" d="M175.67,244.93c-1.27,0-2.37-.27-3.3-.81-.93-.54-1.65-1.28-2.16-2.23-.51-.95-.76-2.04-.76-3.28s.26-2.36.77-3.32c.51-.96,1.23-1.72,2.15-2.26.92-.55,1.99-.82,3.21-.82s2.3.27,3.2.81c.9.54,1.59,1.28,2.08,2.24.48.95.73,2.05.73,3.3,0,.15,0,.26,0,.35,0,.08-.01.16-.03.22h-1.64c0-.09.01-.19.02-.31,0-.11,0-.24,0-.39,0-.92-.17-1.73-.52-2.44-.35-.71-.85-1.27-1.49-1.68-.65-.41-1.42-.61-2.33-.61s-1.66.21-2.33.63c-.67.42-1.19.99-1.56,1.73-.37.73-.55,1.59-.55,2.56s.18,1.77.55,2.49c.36.72.89,1.28,1.56,1.69.68.41,1.48.61,2.41.61s1.81-.23,2.52-.69c.71-.46,1.24-1.08,1.59-1.87l1.57.59c-.45,1.08-1.18,1.94-2.17,2.57-1,.63-2.16.94-3.49.94ZM170.5,239.11v-1.28h10.54l.48,1.28h-11.03Z"/>
        <path class="cls-1" d="M188.06,243.28h2.19v1.43h-6.38v-1.43h2.53v-9.43h-2.53v-1.43h4.19v10.86ZM195.14,243.28v-6.43c0-1.01-.23-1.8-.68-2.38-.45-.58-1.17-.87-2.15-.87-.79,0-1.51.2-2.16.59-.65.39-1.16.96-1.53,1.71-.38.75-.57,1.65-.57,2.71l-.38-2.46h.46c.15-.84.43-1.55.84-2.14.42-.59.95-1.04,1.6-1.35s1.4-.47,2.24-.47c1.34,0,2.34.39,2.99,1.16s.99,1.86.99,3.27v6.64h2.36v1.43h-6.18v-1.43h2.16Z"/>
        <path class="cls-1" d="M207.26,244.93c-1.28,0-2.39-.27-3.33-.81-.94-.54-1.67-1.28-2.19-2.23-.52-.95-.78-2.04-.78-3.28,0-.94.14-1.8.43-2.58.28-.78.69-1.46,1.22-2.03.53-.57,1.16-1.02,1.89-1.33s1.55-.47,2.45-.47,1.59.14,2.17.42c.58.28,1.03.67,1.36,1.15.32.49.53,1.05.62,1.68h.4l-.33,1.74c-.1-.69-.33-1.3-.68-1.83-.35-.53-.81-.94-1.38-1.24-.57-.3-1.23-.44-1.97-.44-.89,0-1.67.21-2.35.63-.67.42-1.2.99-1.57,1.73-.37.73-.56,1.59-.56,2.56s.19,1.77.57,2.49c.38.72.92,1.28,1.6,1.69.69.41,1.5.61,2.44.61s1.8-.21,2.5-.64,1.21-1,1.53-1.72l1.53.68c-.44.99-1.14,1.78-2.11,2.35s-2.12.87-3.48.87ZM211.17,237.2v-4.78h1.66v4.78h-1.66Z"/>
        <path class="cls-1" d="M219.03,243.28h2.18v1.43h-6.31v-1.43h2.47v-15.37h-2.47v-1.43h4.13v16.8ZM226.11,243.28v-6.46c0-1-.22-1.79-.67-2.35-.45-.57-1.16-.86-2.12-.86-.81,0-1.53.21-2.18.62-.65.41-1.16,1.01-1.54,1.79-.38.78-.57,1.72-.57,2.82l-.39-2.46h.46c.15-.9.44-1.66.87-2.29.43-.63.97-1.1,1.63-1.44.66-.33,1.42-.5,2.27-.5,1.34,0,2.32.39,2.95,1.15.63.77.95,1.85.95,3.24v6.73h2.35v1.43h-6.18v-1.43h2.17Z"/>
        <path class="cls-1" d="M242.69,243.28h2.53v1.43h-6.71v-1.43h2.53v-15.37h-2.53v-1.43h4.19v16.8Z"/>
        <path class="cls-1" d="M251.17,244.87c-1.28,0-2.25-.28-2.91-.85-.66-.57-.99-1.4-.99-2.5,0-1.02.29-1.79.88-2.32.58-.53,1.52-.94,2.81-1.21l5.53-1.18v1.19l-5.25,1.19c-.75.18-1.32.44-1.69.78-.37.34-.56.82-.56,1.45,0,.68.21,1.18.62,1.52s1.02.5,1.82.5c.88,0,1.68-.2,2.38-.61.7-.41,1.25-1.01,1.65-1.8.4-.79.6-1.77.6-2.93l.44,2.72h-.59c-.19,1.28-.69,2.28-1.49,2.99-.8.71-1.89,1.06-3.25,1.06ZM256.96,244.71c-.32,0-.56-.1-.72-.3-.17-.2-.25-.48-.25-.84v-3.69l.15-.38-.08-1.4-.07-.73v-.93c0-.63-.13-1.15-.39-1.55-.26-.4-.63-.7-1.11-.89-.48-.19-1.07-.29-1.75-.29-1.02,0-1.81.2-2.37.61-.56.4-.93,1.01-1.11,1.82l-1.59-.33c.15-.81.44-1.48.87-2.01.42-.53.99-.93,1.69-1.2s1.56-.4,2.58-.4,1.95.15,2.67.44c.72.3,1.26.75,1.63,1.36.37.61.55,1.39.55,2.35v6.93h1.81v1.43h-2.5Z"/>
        <path class="cls-1" d="M265.55,243.28h2.19v1.43h-6.38v-1.43h2.53v-9.43h-2.53v-1.43h4.19v10.86ZM272.63,243.28v-6.43c0-1.01-.23-1.8-.68-2.38-.45-.58-1.17-.87-2.15-.87-.79,0-1.51.2-2.16.59-.65.39-1.16.96-1.53,1.71-.38.75-.57,1.65-.57,2.71l-.38-2.46h.46c.15-.84.43-1.55.84-2.14.42-.59.95-1.04,1.6-1.35s1.4-.47,2.24-.47c1.34,0,2.34.39,2.99,1.16.66.77.99,1.86.99,3.27v6.64h2.36v1.43h-6.18v-1.43h2.16Z"/>
        <path class="cls-1" d="M284.3,249.8c-1.08,0-2.05-.1-2.92-.31-.87-.2-1.57-.52-2.08-.96s-.77-1.02-.77-1.74.26-1.27.78-1.64c.52-.37,1.19-.62,2.01-.73v-.2l2.05.2c-.85,0-1.52.1-2.01.31-.48.2-.83.46-1.03.78-.2.32-.3.65-.3.99,0,.52.19.93.58,1.22.39.29.9.5,1.55.62.65.12,1.38.18,2.19.18,1.62,0,2.81-.22,3.56-.65.75-.44,1.12-1.04,1.12-1.82,0-1.09-.71-1.64-2.12-1.64h-4.71c-.92,0-1.65-.17-2.17-.5s-.79-.82-.79-1.45.24-1.06.72-1.38c.48-.32,1.16-.51,2.04-.58v-.35l2.1.6h-1.26c-.66,0-1.17.09-1.51.27-.35.18-.52.46-.52.82,0,.35.16.59.48.74s.8.22,1.45.22h4.13c.79,0,1.47.13,2.02.39.56.26.98.62,1.27,1.1.29.48.43,1.05.43,1.71,0,.71-.2,1.35-.6,1.92-.4.57-1.06,1.03-1.98,1.36s-2.16.5-3.71.5ZM284.09,240.76c-.98,0-1.85-.18-2.61-.53-.76-.35-1.36-.85-1.8-1.49-.44-.64-.66-1.39-.66-2.25s.22-1.61.65-2.26c.43-.64,1.03-1.14,1.79-1.5s1.63-.54,2.62-.54,1.9.19,2.67.57c.77.38,1.36.9,1.77,1.57.2.31.35.64.44,1s.14.74.14,1.16c0,.86-.21,1.61-.65,2.25-.43.64-1.03,1.13-1.78,1.49-.76.35-1.63.53-2.6.53ZM284.09,239.4c.65,0,1.24-.12,1.75-.36.51-.24.92-.58,1.21-1.02s.44-.95.44-1.53-.15-1.1-.44-1.54c-.3-.44-.7-.79-1.21-1.03s-1.09-.36-1.75-.36-1.26.12-1.78.36-.92.59-1.22,1.03c-.3.44-.44.95-.44,1.54s.15,1.1.44,1.53.7.78,1.22,1.02c.52.24,1.11.36,1.77.36ZM289.12,236.49l-.58-1.35-.51-.83.46-.19c-.02-.08-.04-.16-.05-.24s-.02-.17-.02-.26c0-.32.08-.61.23-.88.15-.26.38-.47.67-.62.29-.15.65-.23,1.07-.23.11,0,.21,0,.29.01.09,0,.17.02.26.05v1.6c-.15-.02-.28-.04-.4-.05s-.25-.02-.37-.02c-.32,0-.58.05-.78.14s-.34.21-.42.35c-.09.14-.13.3-.13.47s.02.34.07.52c.05.19.09.41.13.65.04.25.06.53.06.87Z"/>
        <path class="cls-1" d="M296.09,232.42v7.83c0,1.01.22,1.8.67,2.38.45.58,1.16.87,2.13.87.78,0,1.47-.2,2.08-.59.61-.4,1.09-.97,1.45-1.71.35-.75.53-1.64.53-2.69l.4,2.46h-.48c-.21,1.32-.72,2.32-1.54,2.99-.82.67-1.82,1.01-3.02,1.01-1.32,0-2.3-.39-2.94-1.18s-.95-1.87-.95-3.26v-6.68h-2.23v-1.43h3.89ZM302.95,233.85h-2.38v-1.43h4.04v10.86h2.4v1.43h-4.06v-10.86Z"/>
        <path class="cls-1" d="M312.95,244.87c-1.28,0-2.25-.28-2.91-.85s-.99-1.4-.99-2.5c0-1.02.29-1.79.88-2.32.58-.53,1.52-.94,2.81-1.21l5.53-1.18v1.19l-5.25,1.19c-.75.18-1.32.44-1.69.78-.37.34-.56.82-.56,1.45,0,.68.21,1.18.62,1.52s1.02.5,1.82.5c.88,0,1.68-.2,2.38-.61.7-.41,1.25-1.01,1.65-1.8.4-.79.6-1.77.6-2.93l.44,2.72h-.59c-.19,1.28-.69,2.28-1.49,2.99-.8.71-1.89,1.06-3.25,1.06ZM318.74,244.71c-.32,0-.56-.1-.72-.3-.17-.2-.25-.48-.25-.84v-3.69l.15-.38-.08-1.4-.07-.73v-.93c0-.63-.13-1.15-.39-1.55-.26-.4-.63-.7-1.11-.89-.48-.19-1.07-.29-1.75-.29-1.02,0-1.81.2-2.37.61-.56.4-.93,1.01-1.11,1.82l-1.59-.33c.15-.81.44-1.48.87-2.01.42-.53.99-.93,1.69-1.2s1.56-.4,2.58-.4,1.95.15,2.67.44c.72.3,1.26.75,1.63,1.36.37.61.55,1.39.55,2.35v6.93h1.81v1.43h-2.5Z"/>
        <path class="cls-1" d="M329.14,249.8c-1.08,0-2.05-.1-2.92-.31-.87-.2-1.57-.52-2.08-.96s-.77-1.02-.77-1.74.26-1.27.78-1.64c.52-.37,1.19-.62,2.01-.73v-.2l2.05.2c-.85,0-1.52.1-2.01.31-.48.2-.83.46-1.03.78-.2.32-.3.65-.3.99,0,.52.19.93.58,1.22.39.29.9.5,1.55.62.65.12,1.38.18,2.19.18,1.62,0,2.81-.22,3.56-.65.75-.44,1.12-1.04,1.12-1.82,0-1.09-.71-1.64-2.12-1.64h-4.71c-.92,0-1.65-.17-2.17-.5s-.79-.82-.79-1.45.24-1.06.72-1.38c.48-.32,1.16-.51,2.04-.58v-.35l2.1.6h-1.26c-.66,0-1.17.09-1.51.27-.35.18-.52.46-.52.82,0,.35.16.59.48.74s.8.22,1.45.22h4.13c.79,0,1.47.13,2.02.39.56.26.98.62,1.27,1.1.29.48.43,1.05.43,1.71,0,.71-.2,1.35-.6,1.92-.4.57-1.06,1.03-1.98,1.36s-2.16.5-3.71.5ZM328.93,240.76c-.98,0-1.85-.18-2.61-.53-.76-.35-1.36-.85-1.8-1.49-.44-.64-.66-1.39-.66-2.25s.22-1.61.65-2.26c.43-.64,1.03-1.14,1.79-1.5s1.63-.54,2.62-.54,1.9.19,2.67.57c.77.38,1.36.9,1.77,1.57.2.31.35.64.44,1s.14.74.14,1.16c0,.86-.21,1.61-.65,2.25-.43.64-1.03,1.13-1.78,1.49-.76.35-1.63.53-2.6.53ZM328.93,239.4c.65,0,1.24-.12,1.75-.36.51-.24.92-.58,1.21-1.02s.44-.95.44-1.53-.15-1.1-.44-1.54c-.3-.44-.7-.79-1.21-1.03s-1.09-.36-1.75-.36-1.26.12-1.78.36-.92.59-1.22,1.03c-.3.44-.44.95-.44,1.54s.15,1.1.44,1.53.7.78,1.22,1.02c.52.24,1.11.36,1.77.36ZM333.96,236.49l-.58-1.35-.51-.83.46-.19c-.02-.08-.04-.16-.05-.24s-.02-.17-.02-.26c0-.32.08-.61.23-.88.15-.26.38-.47.67-.62.29-.15.65-.23,1.07-.23.11,0,.21,0,.29.01.09,0,.17.02.26.05v1.6c-.15-.02-.28-.04-.4-.05s-.25-.02-.37-.02c-.32,0-.58.05-.78.14s-.34.21-.42.35c-.09.14-.13.3-.13.47s.02.34.07.52c.05.19.09.41.13.65.04.25.06.53.06.87Z"/>
        <path class="cls-1" d="M343.66,244.93c-1.27,0-2.37-.27-3.3-.81-.93-.54-1.65-1.28-2.16-2.23-.51-.95-.76-2.04-.76-3.28s.26-2.36.77-3.32c.51-.96,1.23-1.72,2.15-2.26.92-.55,1.99-.82,3.21-.82s2.3.27,3.2.81c.9.54,1.59,1.28,2.08,2.24.48.95.73,2.05.73,3.3,0,.15,0,.26,0,.35,0,.08-.01.16-.03.22h-1.64c0-.09.01-.19.02-.31,0-.11,0-.24,0-.39,0-.92-.17-1.73-.52-2.44-.35-.71-.85-1.27-1.49-1.68-.65-.41-1.42-.61-2.33-.61s-1.66.21-2.33.63c-.67.42-1.19.99-1.56,1.73-.37.73-.55,1.59-.55,2.56s.18,1.77.55,2.49c.36.72.89,1.28,1.56,1.69.68.41,1.48.61,2.41.61s1.81-.23,2.52-.69c.71-.46,1.24-1.08,1.59-1.87l1.57.59c-.45,1.08-1.18,1.94-2.17,2.57-1,.63-2.16.94-3.49.94ZM338.49,239.11v-1.28h10.54l.48,1.28h-11.03Z"/>
        <path class="cls-1" d="M147.72,272.55c-1.28,0-2.25-.28-2.91-.85s-.99-1.4-.99-2.5c0-1.02.29-1.79.88-2.32s1.52-.94,2.81-1.21l5.53-1.18v1.19l-5.25,1.19c-.75.18-1.32.44-1.69.78-.37.34-.56.82-.56,1.45,0,.68.21,1.18.62,1.52s1.02.5,1.82.5c.88,0,1.68-.2,2.38-.61.7-.41,1.25-1.01,1.65-1.8.4-.79.6-1.77.6-2.93l.44,2.72h-.59c-.19,1.28-.69,2.28-1.49,2.99-.8.71-1.89,1.06-3.25,1.06ZM153.51,272.39c-.32,0-.56-.1-.72-.3-.17-.2-.25-.48-.25-.84v-3.69l.15-.38-.08-1.4-.07-.73v-.93c0-.63-.13-1.15-.39-1.55s-.63-.7-1.11-.89-1.07-.29-1.75-.29c-1.02,0-1.81.2-2.37.61s-.93,1.01-1.11,1.82l-1.59-.33c.15-.81.44-1.48.87-2.01.42-.53.99-.93,1.69-1.2s1.56-.4,2.58-.4,1.95.15,2.67.44,1.26.75,1.63,1.36c.37.61.55,1.39.55,2.35v6.93h1.81v1.43h-2.5Z"/>
        <path class="cls-1" d="M164.35,272.61c-1.28,0-2.39-.27-3.33-.81-.94-.54-1.67-1.28-2.19-2.23-.52-.95-.78-2.04-.78-3.28,0-.94.14-1.8.43-2.58s.69-1.46,1.22-2.03,1.16-1.02,1.89-1.33,1.55-.47,2.45-.47,1.59.14,2.17.42,1.03.66,1.36,1.15.53,1.05.62,1.68h.4l-.33,1.74c-.1-.69-.33-1.3-.68-1.83s-.81-.94-1.38-1.23-1.23-.44-1.97-.44c-.89,0-1.67.21-2.35.63s-1.2,1-1.57,1.73c-.37.73-.56,1.59-.56,2.56s.19,1.77.57,2.49c.38.72.92,1.28,1.6,1.69.69.41,1.5.61,2.44.61s1.8-.21,2.5-.64,1.21-1,1.53-1.72l1.53.68c-.44.99-1.14,1.78-2.11,2.35s-2.12.87-3.48.87ZM168.27,264.88v-4.78h1.66v4.78h-1.66Z"/>
        <path class="cls-1" d="M176.47,272.55c-1.28,0-2.25-.28-2.91-.85s-.99-1.4-.99-2.5c0-1.02.29-1.79.88-2.32s1.52-.94,2.81-1.21l5.53-1.18v1.19l-5.25,1.19c-.75.18-1.32.44-1.69.78-.37.34-.56.82-.56,1.45,0,.68.21,1.18.62,1.52s1.02.5,1.82.5c.88,0,1.68-.2,2.38-.61.7-.41,1.25-1.01,1.65-1.8.4-.79.6-1.77.6-2.93l.44,2.72h-.59c-.19,1.28-.69,2.28-1.49,2.99-.8.71-1.89,1.06-3.25,1.06ZM182.26,272.39c-.32,0-.56-.1-.72-.3-.17-.2-.25-.48-.25-.84v-3.69l.15-.38-.08-1.4-.07-.73v-.93c0-.63-.13-1.15-.39-1.55s-.63-.7-1.11-.89-1.07-.29-1.75-.29c-1.02,0-1.81.2-2.37.61s-.93,1.01-1.11,1.82l-1.59-.33c.15-.81.44-1.48.87-2.01s.99-.93,1.69-1.2,1.56-.4,2.58-.4,1.95.15,2.67.44,1.26.75,1.63,1.36.55,1.39.55,2.35v6.93h1.81v1.43h-2.5Z"/>
        <path class="cls-1" d="M192.8,259.88c1.02,0,1.93.22,2.73.67s1.47,1.08,1.99,1.91c.52.83.87,1.82,1.04,2.97l-1.06.8c0-.95-.18-1.78-.55-2.51s-.89-1.3-1.56-1.71-1.48-.62-2.41-.62-1.71.21-2.39.62-1.2.99-1.56,1.72c-.36.73-.55,1.58-.55,2.54s.19,1.8.57,2.53c.38.73.91,1.31,1.59,1.72.68.42,1.46.63,2.35.63s1.72-.21,2.39-.63c.67-.42,1.2-1,1.57-1.74s.56-1.59.56-2.55l.25,2.62h-.39c-.14.68-.41,1.3-.81,1.87-.4.57-.93,1.04-1.58,1.38-.65.35-1.44.52-2.35.52-.85,0-1.64-.16-2.35-.47s-1.33-.75-1.86-1.33c-.52-.57-.93-1.25-1.22-2.02-.29-.78-.43-1.63-.43-2.55,0-1.25.25-2.35.75-3.31s1.2-1.71,2.11-2.26,1.97-.81,3.19-.81ZM197.43,272.39v-4.59l.07-.9v-1.47l-.07-1.62v-8.23h-3.31v-1.43h4.97v16.8h2.35v1.43h-4.01Z"/>
        <path class="cls-1" d="M209.48,272.61c-1.27,0-2.37-.27-3.3-.81-.93-.54-1.65-1.28-2.16-2.23-.51-.95-.76-2.04-.76-3.28s.26-2.36.77-3.32c.51-.96,1.23-1.71,2.15-2.26s1.99-.82,3.21-.82,2.3.27,3.2.81,1.59,1.28,2.08,2.24.73,2.05.73,3.3c0,.15,0,.26,0,.35s-.01.16-.03.22h-1.64c0-.09.01-.19.02-.31s0-.24,0-.39c0-.92-.17-1.73-.52-2.44-.35-.71-.85-1.27-1.49-1.68s-1.42-.61-2.33-.61-1.66.21-2.33.63-1.19,1-1.56,1.73-.55,1.59-.55,2.56.18,1.77.55,2.49c.36.72.89,1.28,1.56,1.69.68.41,1.48.61,2.41.61s1.81-.23,2.52-.69c.71-.46,1.24-1.08,1.59-1.87l1.57.59c-.45,1.08-1.18,1.94-2.17,2.57-1,.63-2.16.94-3.49.94ZM204.32,266.8v-1.28h10.54l.48,1.28h-11.03Z"/>
        <path class="cls-1" d="M217.69,272.39v-1.43h2.46v-9.42h-2.46v-1.43h4.12v10.86h2.18v1.43h-6.3ZM226.34,272.39v-1.43h2.17v-6.45c0-1.01-.22-1.8-.67-2.36s-1.14-.85-2.09-.85c-.76,0-1.44.2-2.03.6s-1.06.97-1.4,1.72c-.34.75-.51,1.64-.51,2.69l-.39-2.47h.47c.18-1.34.68-2.34,1.49-3s1.79-.99,2.94-.99c1.3,0,2.27.39,2.9,1.15s.95,1.85.95,3.25v6.71h2.35v1.43h-6.18ZM234.69,272.39v-1.43h2.17v-6.45c0-1.01-.22-1.8-.67-2.36-.45-.57-1.14-.85-2.09-.85-.76,0-1.44.2-2.03.6-.59.4-1.06.97-1.4,1.72-.34.75-.51,1.64-.51,2.69l-.4-2.47h.47c.19-1.34.69-2.34,1.49-3,.8-.66,1.78-.99,2.94-.99,1.3,0,2.27.39,2.9,1.15s.95,1.85.95,3.25v6.71h2.35v1.43h-6.18Z"/>
        <path class="cls-1" d="M249.19,260.11h5.72v1.43h-1.53l-5.08,12.49c-.42,1.03-1.06,1.82-1.92,2.38s-1.94.83-3.22.83h-1.21v-1.47h1.21c.86,0,1.61-.18,2.26-.54s1.11-.88,1.4-1.57l.88-2.16-.29,1.43-4.7-11.4h-1.7v-1.43h5.84v1.43h-2.33l4.14,10.35-1.51-1.34h1.59l-.87.78,3.84-9.79h-2.53v-1.43Z"/>
        <path class="cls-1" d="M263.13,272.39v-1.43h2.43v-9.42h-2.43v-1.43h2.43v-1.9c0-1.34.34-2.38,1.02-3.13s1.7-1.12,3.07-1.12c1.11,0,1.98.25,2.6.74.62.49,1.03,1.21,1.24,2.15l-1.5.46c-.14-.61-.4-1.06-.79-1.37s-.91-.46-1.55-.46c-.77,0-1.37.22-1.79.67s-.63,1.13-.63,2.06v1.9h4.08v1.43h-4.08v9.42h2.94v1.43h-7.04Z"/>
        <path class="cls-1" d="M279.49,272.61c-1.28,0-2.4-.27-3.36-.81s-1.71-1.29-2.25-2.23-.81-2.04-.81-3.28.27-2.35.81-3.32,1.29-1.72,2.25-2.27,2.08-.82,3.36-.82,2.4.27,3.36.82,1.71,1.3,2.25,2.27.81,2.07.81,3.32-.27,2.33-.81,3.28-1.29,1.69-2.25,2.23-2.08.81-3.36.81ZM279.49,271.08c.92,0,1.74-.2,2.44-.6.7-.4,1.25-.96,1.65-1.68.4-.72.59-1.55.59-2.51s-.2-1.81-.59-2.54c-.4-.73-.95-1.3-1.65-1.71s-1.52-.62-2.44-.62-1.74.21-2.44.62-1.25.98-1.65,1.71-.59,1.58-.59,2.54.2,1.79.59,2.51c.4.72.95,1.28,1.65,1.68.7.4,1.52.6,2.44.6Z"/>
        <path class="cls-1" d="M292.46,270.96h2.4v1.43h-6.59v-1.43h2.53v-9.42h-2.53v-1.43h4.19v10.86ZM297.18,261.87c-.14-.04-.29-.07-.44-.09s-.33-.03-.51-.03c-1.14,0-2.05.43-2.73,1.27-.68.85-1.03,2.03-1.03,3.54l-.39-2.69h.47c.11-.81.33-1.52.67-2.11s.78-1.04,1.32-1.36,1.18-.48,1.91-.48c.14,0,.26,0,.37.02s.23.03.36.05v1.88Z"/>
        <path class="cls-1" d="M150.97,287.79h5.72v1.43h-1.53l-5.08,12.5c-.42,1.03-1.06,1.82-1.92,2.38s-1.94.83-3.22.83h-1.21v-1.47h1.21c.86,0,1.61-.18,2.26-.54s1.11-.88,1.4-1.57l.88-2.16-.29,1.43-4.7-11.4h-1.7v-1.43h5.84v1.43h-2.33l4.14,10.35-1.51-1.34h1.59l-.87.78,3.84-9.8h-2.53v-1.43Z"/>
        <path class="cls-1" d="M164.11,300.3c-1.28,0-2.4-.27-3.36-.81s-1.71-1.29-2.25-2.23-.81-2.04-.81-3.28.27-2.35.81-3.32c.54-.97,1.29-1.72,2.25-2.27.96-.55,2.08-.82,3.36-.82s2.4.27,3.36.82c.96.55,1.71,1.3,2.25,2.27.54.96.81,2.07.81,3.32s-.27,2.33-.81,3.28-1.29,1.69-2.25,2.23-2.08.81-3.36.81ZM164.11,298.77c.92,0,1.74-.2,2.44-.6.7-.4,1.25-.96,1.65-1.68.4-.72.59-1.56.59-2.51s-.2-1.81-.59-2.54c-.4-.73-.95-1.3-1.65-1.71-.7-.41-1.52-.62-2.44-.62s-1.74.21-2.44.62c-.7.41-1.25.98-1.65,1.71-.4.73-.59,1.58-.59,2.54s.2,1.79.59,2.51c.4.72.95,1.28,1.65,1.68.7.4,1.52.6,2.44.6Z"/>
        <path class="cls-1" d="M176.19,287.79v7.83c0,1.01.22,1.8.67,2.38.45.58,1.16.87,2.13.87.78,0,1.47-.2,2.08-.59.61-.4,1.09-.97,1.45-1.71.35-.75.53-1.64.53-2.69l.4,2.46h-.48c-.21,1.32-.72,2.32-1.54,2.99-.82.67-1.82,1.01-3.02,1.01-1.32,0-2.3-.39-2.94-1.18s-.95-1.87-.95-3.26v-6.68h-2.23v-1.43h3.89ZM183.05,289.22h-2.38v-1.43h4.04v10.86h2.4v1.43h-4.06v-10.86Z"/>
        <path class="cls-1" d="M193.06,298.65h2.19v1.43h-6.38v-1.43h2.53v-9.43h-2.53v-1.43h4.19v10.86ZM200.14,298.65v-6.43c0-1.01-.23-1.8-.68-2.38-.45-.58-1.17-.87-2.15-.87-.79,0-1.51.2-2.16.59-.65.39-1.16.96-1.53,1.71-.38.75-.57,1.65-.57,2.71l-.38-2.46h.46c.15-.84.43-1.55.84-2.14.42-.59.95-1.04,1.6-1.35s1.4-.47,2.24-.47c1.34,0,2.34.39,2.99,1.16.66.77.99,1.86.99,3.27v6.64h2.36v1.43h-6.18v-1.43h2.16Z"/>
        <path class="cls-1" d="M211.8,305.18c-1.08,0-2.05-.1-2.92-.31-.87-.2-1.57-.52-2.08-.96s-.77-1.02-.77-1.74.26-1.27.78-1.64c.52-.37,1.19-.62,2.01-.73v-.2l2.05.2c-.85,0-1.52.1-2.01.31-.48.2-.83.46-1.03.78-.2.32-.3.65-.3.99,0,.52.19.93.58,1.22.39.29.9.5,1.55.62.65.12,1.38.18,2.19.18,1.62,0,2.81-.22,3.56-.65.75-.44,1.12-1.04,1.12-1.82,0-1.09-.71-1.64-2.12-1.64h-4.71c-.92,0-1.65-.17-2.17-.5s-.79-.82-.79-1.45.24-1.06.72-1.38c.48-.32,1.16-.51,2.04-.58v-.35l2.1.6h-1.26c-.66,0-1.17.09-1.51.27-.35.18-.52.46-.52.82,0,.35.16.59.48.74s.8.22,1.45.22h4.13c.79,0,1.47.13,2.02.39.56.26.98.62,1.27,1.1.29.48.43,1.05.43,1.71,0,.71-.2,1.35-.6,1.92-.4.57-1.06,1.03-1.98,1.36-.92.33-2.16.5-3.71.5ZM211.59,296.14c-.98,0-1.85-.18-2.61-.53-.76-.35-1.36-.85-1.8-1.49-.44-.64-.66-1.39-.66-2.25s.22-1.61.65-2.26c.43-.64,1.03-1.14,1.79-1.5s1.63-.54,2.62-.54,1.9.19,2.67.57c.77.38,1.36.9,1.77,1.57.2.31.35.64.44,1s.14.74.14,1.16c0,.86-.21,1.61-.65,2.25-.43.64-1.03,1.13-1.78,1.49-.76.35-1.63.53-2.6.53ZM211.59,294.77c.65,0,1.24-.12,1.75-.36.51-.24.92-.58,1.21-1.02s.44-.95.44-1.53-.15-1.1-.44-1.54c-.3-.44-.7-.79-1.21-1.03s-1.09-.36-1.75-.36-1.26.12-1.78.36-.92.59-1.22,1.03c-.3.44-.44.95-.44,1.54s.15,1.1.44,1.53c.3.44.7.78,1.22,1.02.52.24,1.11.36,1.77.36ZM216.62,291.87l-.58-1.35-.51-.83.46-.19c-.02-.08-.04-.16-.05-.24s-.02-.17-.02-.26c0-.32.08-.61.23-.88.15-.26.38-.47.67-.62.29-.15.65-.23,1.07-.23.11,0,.21,0,.29.01.09,0,.17.02.26.05v1.6c-.15-.02-.28-.04-.4-.05s-.25-.02-.37-.02c-.32,0-.58.05-.78.14s-.34.21-.42.35c-.09.14-.13.3-.13.47s.02.34.07.52c.05.19.09.41.13.65.04.25.06.53.06.87Z"/>
        <path class="cls-1" d="M231.17,298.65h2.53v1.43h-6.71v-1.43h2.53v-15.37h-2.53v-1.43h4.19v16.8Z"/>
        <path class="cls-1" d="M241.62,300.3c-1.27,0-2.37-.27-3.3-.81-.93-.54-1.65-1.28-2.16-2.23-.51-.95-.76-2.04-.76-3.28s.26-2.36.77-3.32c.51-.96,1.23-1.72,2.15-2.26.92-.55,1.99-.82,3.21-.82s2.3.27,3.2.81c.9.54,1.59,1.28,2.08,2.24.48.95.73,2.05.73,3.3,0,.15,0,.26,0,.35,0,.08-.01.16-.03.22h-1.64c0-.09.01-.19.02-.31,0-.11,0-.24,0-.39,0-.92-.17-1.73-.52-2.44-.35-.71-.85-1.27-1.49-1.68-.65-.41-1.42-.61-2.33-.61s-1.66.21-2.33.63c-.67.42-1.19.99-1.56,1.73-.37.73-.55,1.59-.55,2.56s.18,1.77.55,2.49c.36.72.89,1.28,1.56,1.69.68.41,1.48.61,2.41.61s1.81-.23,2.52-.69c.71-.46,1.24-1.08,1.59-1.87l1.57.59c-.45,1.08-1.18,1.94-2.17,2.57-1,.63-2.16.94-3.49.94ZM236.46,294.49v-1.28h10.54l.48,1.28h-11.03Z"/>
        <path class="cls-1" d="M254.01,300.24c-1.28,0-2.25-.28-2.91-.85s-.99-1.4-.99-2.5c0-1.02.29-1.79.88-2.32.58-.53,1.52-.94,2.81-1.21l5.53-1.18v1.19l-5.25,1.19c-.75.18-1.32.44-1.69.78-.37.34-.56.82-.56,1.45,0,.68.21,1.18.62,1.52s1.02.5,1.82.5c.88,0,1.68-.2,2.38-.61.7-.41,1.25-1.01,1.65-1.8.4-.79.6-1.77.6-2.93l.44,2.72h-.59c-.19,1.28-.69,2.28-1.49,2.99-.8.71-1.89,1.06-3.25,1.06ZM259.8,300.08c-.32,0-.56-.1-.72-.3-.17-.2-.25-.48-.25-.84v-3.69l.15-.38-.08-1.4-.07-.73v-.93c0-.63-.13-1.15-.39-1.55-.26-.4-.63-.7-1.11-.89-.48-.19-1.07-.29-1.75-.29-1.02,0-1.81.2-2.37.61-.56.4-.93,1.01-1.11,1.82l-1.59-.33c.15-.81.44-1.48.87-2.01.42-.53.99-.93,1.69-1.2s1.56-.4,2.58-.4,1.95.15,2.67.44c.72.3,1.26.75,1.63,1.36.37.61.55,1.39.55,2.35v6.93h1.81v1.43h-2.5Z"/>
        <path class="cls-1" d="M268.4,298.65h2.4v1.43h-6.59v-1.43h2.53v-9.43h-2.53v-1.43h4.19v10.86ZM273.12,289.56c-.14-.04-.29-.07-.44-.09s-.33-.03-.51-.03c-1.14,0-2.05.43-2.73,1.28-.68.85-1.03,2.03-1.03,3.54l-.39-2.69h.47c.11-.82.33-1.52.67-2.11.34-.59.78-1.04,1.32-1.36.54-.32,1.18-.48,1.91-.48.14,0,.26,0,.37.02s.23.03.36.05v1.88Z"/>
        <path class="cls-1" d="M278.9,298.65h2.19v1.43h-6.38v-1.43h2.53v-9.43h-2.53v-1.43h4.19v10.86ZM285.98,298.65v-6.43c0-1.01-.23-1.8-.68-2.38-.45-.58-1.17-.87-2.15-.87-.79,0-1.51.2-2.16.59-.65.39-1.16.96-1.53,1.71-.38.75-.57,1.65-.57,2.71l-.38-2.46h.46c.15-.84.43-1.55.84-2.14.42-.59.95-1.04,1.6-1.35s1.4-.47,2.24-.47c1.34,0,2.34.39,2.99,1.16.66.77.99,1.86.99,3.27v6.64h2.36v1.43h-6.18v-1.43h2.16Z"/>
        <path class="cls-1" d="M298,300.3c-1.27,0-2.37-.27-3.3-.81-.93-.54-1.65-1.28-2.16-2.23-.51-.95-.76-2.04-.76-3.28s.26-2.36.77-3.32c.51-.96,1.23-1.72,2.15-2.26.92-.55,1.99-.82,3.21-.82s2.3.27,3.2.81c.9.54,1.59,1.28,2.08,2.24.48.95.73,2.05.73,3.3,0,.15,0,.26,0,.35,0,.08-.01.16-.03.22h-1.64c0-.09.01-.19.02-.31,0-.11,0-.24,0-.39,0-.92-.17-1.73-.52-2.44-.35-.71-.85-1.27-1.49-1.68-.65-.41-1.42-.61-2.33-.61s-1.66.21-2.33.63c-.67.42-1.19.99-1.56,1.73-.37.73-.55,1.59-.55,2.56s.18,1.77.55,2.49c.36.72.89,1.28,1.56,1.69.68.41,1.48.61,2.41.61s1.81-.23,2.52-.69c.71-.46,1.24-1.08,1.59-1.87l1.57.59c-.45,1.08-1.18,1.94-2.17,2.57-1,.63-2.16.94-3.49.94ZM292.83,294.49v-1.28h10.54l.48,1.28h-11.03Z"/>
        <path class="cls-1" d="M310.39,298.65h2.4v1.43h-6.59v-1.43h2.53v-9.43h-2.53v-1.43h4.19v10.86ZM315.11,289.56c-.14-.04-.29-.07-.44-.09s-.33-.03-.51-.03c-1.14,0-2.05.43-2.73,1.28-.68.85-1.03,2.03-1.03,3.54l-.39-2.69h.47c.11-.82.33-1.52.67-2.11.34-.59.78-1.04,1.32-1.36.54-.32,1.18-.48,1.91-.48.14,0,.26,0,.37.02s.23.03.36.05v1.88Z"/>
        <path class="cls-1" d="M317.12,300.08v-3.88h1.66v3.88h-1.66ZM322.93,300.3c-.82,0-1.52-.12-2.08-.37-.57-.25-1.01-.58-1.34-.99-.33-.41-.55-.87-.65-1.38h-.42l.33-1.36c.15.81.55,1.47,1.21,1.97.66.51,1.51.76,2.57.76.9,0,1.6-.18,2.09-.55.5-.37.74-.9.74-1.6,0-.64-.25-1.13-.74-1.49-.49-.35-1.35-.62-2.58-.81-1.76-.28-3.02-.71-3.76-1.31-.75-.6-1.12-1.38-1.12-2.36s.34-1.77,1.03-2.37c.68-.59,1.64-.89,2.86-.89.81,0,1.48.12,2,.37.53.25.93.58,1.22.99.28.41.47.86.55,1.36h.42l-.33,1.3c-.14-.78-.51-1.42-1.13-1.92-.62-.5-1.42-.75-2.41-.75-.8,0-1.42.17-1.87.51-.45.34-.67.79-.67,1.35,0,.59.28,1.06.84,1.39s1.45.6,2.65.79c1.71.27,2.92.71,3.63,1.33.72.61,1.07,1.44,1.07,2.49,0,1.1-.35,1.96-1.06,2.58-.7.62-1.72.93-3.05.93ZM324.93,291.59v-3.8h1.66v3.8h-1.66Z"/>
      </g>
      <rect class="cls-1" x="144.9" y="204.62" width="208.33" height="1.76"/>
    </g>
  </g>
</svg>