<?xml version="1.0" encoding="UTF-8"?>
<svg id="Capa_2" data-name="Capa 2" xmlns="http://www.w3.org/2000/svg" viewBox="0 0 198.42 69.17">
  <defs>
    <style>
      .cls-1 {
        fill: #0086cc;
        stroke-width: 0px;
      }
    </style>
  </defs>
  <g id="Layer_1" data-name="Layer 1">
    <g>
      <g>
        <path class="cls-1" d="M32.33,13.21l-2.13,2.95C30.2.57.66,4.34.33,4.34L0,.08C.33.08,23.63-1.89,32.33,14.03,41.03-1.73,64.17.08,64.5.08v4.43s-6.56-.49-13.46,1.31c-8.86,2.3-14.44,2.3-16.58,9.85l-2.13-2.46Z"/>
        <circle class="cls-1" cx="46.61" cy="20.43" r="4.1"/>
        <g>
          <path class="cls-1" d="M32.33,24.86c-1.97,6.4-7.88,11-14.93,11-3.77,0-7.22-1.31-9.85-3.61,7.39,25.77,37.42,35.94,50.06,35.94,0-.82.33-21.17.49-36.93-2.79,2.79-6.73,4.6-11,4.6-6.89-.16-12.8-4.76-14.77-11Z"/>
          <path class="cls-1" d="M32.33,21.74c2.63-8.37,10.5-14.44,19.69-14.44,3.45,0,6.73.82,9.52,2.3-.98-1.48-2.63-3.61-3.77-4.92-.16-.33-50.06-.82-50.06-.66-1.48,1.64-3.77,4.1-4.92,5.91,2.95-1.64,6.4-2.46,9.85-2.46,9.35-.16,17.07,5.91,19.69,14.28Z"/>
        </g>
        <circle class="cls-1" cx="19.37" cy="20.43" r="4.1"/>
      </g>
      <g>
        <rect class="cls-1" x="73.03" y="22.89" width="4.6" height="5.09"/>
        <rect class="cls-1" x="73.03" y="33.23" width="4.6" height="24.29"/>
        <path class="cls-1" d="M104.21,34.38c-1.97-1.15-3.94-1.64-6.4-1.64-1.97,0-3.77.49-5.58,1.31-1.31.66-2.46,1.48-3.45,2.63v-20.35h-4.6v41.36h4.27v-3.61c.98,1.15,1.97,2.13,3.45,2.79,1.81.98,3.77,1.48,5.74,1.48,2.3,0,4.43-.66,6.4-1.64,1.81-1.15,3.28-2.63,4.43-4.6.98-1.97,1.64-4.1,1.64-6.4s-.49-4.43-1.64-6.4c-.82-2.3-2.3-3.77-4.27-4.92ZM105.86,45.54c0,1.64-.33,3.12-1.15,4.27h0c-.82,1.31-1.81,2.46-3.12,3.28-2.63,1.64-5.91,1.64-8.53,0-1.31-.82-2.3-1.81-3.12-3.12-.82-1.31-1.15-2.79-1.15-4.27s.33-2.95,1.15-4.43c.66-1.31,1.81-2.46,3.12-3.12,1.31-.82,2.79-1.15,4.27-1.15s2.95.33,4.27,1.15,2.3,1.97,3.12,3.28c.66.98,1.15,2.46,1.15,4.1Z"/>
        <path class="cls-1" d="M133.43,34.38c-1.97-1.15-4.1-1.64-6.4-1.64-2.46,0-4.6.66-6.4,1.64-1.97,1.15-3.61,2.79-4.76,4.6-1.15,1.97-1.81,4.1-1.81,6.4s.66,4.43,1.81,6.4,2.79,3.61,4.76,4.76c1.97,1.15,4.1,1.64,6.4,1.64,2.46,0,4.6-.66,6.56-1.64,1.97-1.15,3.61-2.63,4.76-4.6,1.15-1.97,1.64-4.1,1.64-6.4,0-2.46-.66-4.6-1.64-6.4-1.31-2.13-2.79-3.61-4.92-4.76ZM127.03,36.68c1.48,0,2.95.33,4.27,1.15,1.31.82,2.3,1.97,3.12,3.28.82,1.31,1.15,2.79,1.15,4.27,0,1.64-.33,3.12-1.15,4.27h0c-.82,1.31-1.81,2.46-3.12,3.28-2.63,1.64-5.91,1.64-8.53,0-1.31-.82-2.3-1.81-3.12-3.12-.82-1.31-1.15-2.79-1.15-4.27s.33-2.95,1.15-4.43c.82-1.31,1.81-2.46,3.12-3.12,1.31-.82,2.79-1.31,4.27-1.31Z"/>
        <path class="cls-1" d="M161.33,48.82c0,1.64-.49,2.79-1.64,3.94-1.15.98-2.46,1.48-4.27,1.48-1.64,0-3.12-.49-4.27-1.48-1.15-.98-1.64-2.3-1.64-3.94v-15.43h-4.6v15.43c0,1.97.49,3.77,1.48,5.09.82,1.48,1.97,2.46,3.45,3.28s2.95,1.15,4.76,1.15c2.95,0,5.25-.98,6.89-2.63v1.97h4.27v-24.45h-4.6v15.59h.16Z"/>
        <polygon class="cls-1" points="194.32 33.23 189.23 33.23 182.17 42.26 175.44 33.39 175.28 33.23 169.86 33.23 179.38 45.21 169.37 57.68 174.46 57.68 181.84 48.16 189.56 57.68 194.97 57.68 184.8 45.21 194.32 33.23"/>
        <g>
          <path class="cls-1" d="M112.58,23.22h-6.4l-1.48,4.1h-2.13l5.74-14.44h2.3l5.74,14.44h-2.13l-1.64-4.1ZM106.84,21.41h4.92l-2.46-6.56-2.46,6.56Z"/>
          <path class="cls-1" d="M118.82,22.4c0,2.3,1.48,3.45,2.95,3.45,1.81,0,2.46-1.31,2.79-1.97l1.64.66c-.49,1.48-1.81,3.12-4.43,3.12-2.79,0-4.92-2.3-4.92-5.25,0-3.12,2.13-5.25,4.92-5.25,2.63,0,3.94,1.64,4.43,3.12l-1.81.66c-.16-.98-.98-2.13-2.63-2.13-1.48.16-2.95,1.31-2.95,3.61Z"/>
          <path class="cls-1" d="M130.64,21.74l2.63-.33c.66,0,.82-.33.82-.66,0-.98-.66-1.81-2.13-1.81-1.31,0-2.13.82-2.3,1.97l-1.81-.49c.16-1.81,1.97-3.12,4.1-3.12,2.95,0,4.1,1.64,4.1,3.61v4.92c0,.82,0,1.31.16,1.64h-1.81c0-.16-.16-.66-.16-1.31-.49.66-1.48,1.64-3.12,1.64-1.97,0-3.28-1.31-3.28-2.95-.16-1.97,1.15-2.95,2.79-3.12ZM134.08,23.05v-.49l-3.12.49c-.82.16-1.48.66-1.48,1.48,0,.66.66,1.48,1.64,1.48,1.64,0,2.95-.66,2.95-2.95Z"/>
          <path class="cls-1" d="M145.57,25.84c-.49.98-1.48,1.81-3.12,1.81-2.95,0-4.6-2.3-4.6-5.25,0-2.79,1.81-5.09,4.6-5.09,1.81,0,2.63.82,2.95,1.64v-6.4h1.97v12.97c0,.98,0,1.64.16,1.81h-1.81c0-.16-.16-.66-.16-1.48h0ZM142.78,25.84c1.81,0,2.79-1.48,2.79-3.61,0-1.97-.98-3.45-2.79-3.45s-2.95,1.48-2.95,3.45c0,2.13,1.15,3.61,2.95,3.61Z"/>
          <path class="cls-1" d="M159.03,24.53c-.49,1.81-2.13,3.12-4.43,3.12-2.63,0-4.92-1.97-4.92-5.25s2.3-5.25,4.76-5.25c2.95,0,4.76,2.13,4.76,5.09v.66h-7.39c0,1.81,1.31,2.95,2.95,2.95s2.46-.82,2.79-1.97l1.48.66ZM157.22,21.41c0-1.48-.98-2.46-2.63-2.46s-2.63,1.31-2.63,2.46h5.25ZM155.26,16.33h-1.64l1.81-3.12h2.46l-2.63,3.12Z"/>
          <path class="cls-1" d="M161.49,27.32v-9.85h1.81v1.31c.66-1.15,1.81-1.64,2.95-1.64s2.46.66,2.95,1.81c.82-1.48,1.97-1.81,3.28-1.81,1.64,0,3.45,1.15,3.45,3.77v6.4h-1.97v-6.24c0-1.31-.66-2.3-2.13-2.3-1.31,0-2.3.98-2.3,2.46v5.91h-1.97v-6.24c0-1.31-.66-2.3-2.13-2.3-1.31,0-2.3.98-2.3,2.46v5.91h-1.64v.33Z"/>
          <path class="cls-1" d="M179.71,12.39c.82,0,1.31.66,1.31,1.31,0,.82-.66,1.31-1.31,1.31-.82,0-1.31-.66-1.31-1.31-.16-.66.49-1.31,1.31-1.31ZM178.72,27.32v-9.85h1.97v9.85h-1.97Z"/>
          <path class="cls-1" d="M192.18,24.53c-.49,1.81-2.13,3.12-4.43,3.12-2.63,0-4.92-1.97-4.92-5.25s2.3-5.25,4.76-5.25c2.95,0,4.76,2.13,4.76,5.09v.66h-7.39c0,1.81,1.31,2.95,2.95,2.95s2.46-.82,2.79-1.97l1.48.66ZM190.38,21.41c0-1.48-.98-2.46-2.63-2.46s-2.63,1.31-2.63,2.46h5.25Z"/>
        </g>
      </g>
      <rect class="cls-1" x="71.06" y="65.56" width="127.19" height="3.61"/>
      <rect class="cls-1" x="71.06" y=".41" width="127.36" height="3.61"/>
    </g>
  </g>
</svg>