<?xml version="1.0" encoding="UTF-8"?>
<svg id="Layer_2" data-name="Layer 2" xmlns="http://www.w3.org/2000/svg" viewBox="0 0 181.88 187.66">
  <defs>
    <style>
      .cls-1 {
        stroke-width: 0px;
      }
    </style>
  </defs>
  <g id="Layer_1-2" data-name="Layer 1">
    <path class="cls-1" d="M78.56,86.78l-1.11-.5c-1.37-.61-8.21-3.94-8.21-9.09s4.18-9.33,9.33-9.33,9.33,4.18,9.33,9.33-6.84,8.48-8.21,9.09l-1.11.5ZM78.56,73.32c-2.13,0-3.87,1.74-3.87,3.87,0,.79,1.81,2.4,3.87,3.55,2.08-1.16,3.87-2.75,3.87-3.55,0-2.13-1.74-3.87-3.87-3.87Z"/>
    <path class="cls-1" d="M55.85,73.32c-12.18,0-22.1-9.91-22.1-22.1v-.61c0-12.18,9.91-22.1,22.1-22.1s22.1,9.91,22.1,22.1v.61c0,12.19-9.91,22.1-22.1,22.1ZM55.85,33.97c-9.17,0-16.64,7.46-16.64,16.64v.61c0,9.18,7.46,16.64,16.64,16.64s16.64-7.46,16.64-16.64v-.61c0-9.17-7.46-16.64-16.64-16.64Z"/>
    <path class="cls-1" d="M101.98,73.32c-12.18,0-22.1-9.91-22.1-22.1v-.61c0-12.18,9.91-22.1,22.1-22.1s22.1,9.91,22.1,22.1v.61c0,12.19-9.91,22.1-22.1,22.1ZM101.98,33.97c-9.17,0-16.64,7.46-16.64,16.64v.61c0,9.18,7.46,16.64,16.64,16.64s16.64-7.46,16.64-16.64v-.61c0-9.17-7.46-16.64-16.64-16.64Z"/>
    <ellipse class="cls-1" cx="51.31" cy="53.28" rx="5.78" ry="5.64"/>
    <ellipse class="cls-1" cx="97.42" cy="53.28" rx="5.78" ry="5.64"/>
    <path class="cls-1" d="M85.14,24.1c-.92,0-1.82-.46-2.33-1.31-.79-1.29-.38-2.97.91-3.75,6.67-4.07,13.43-6.24,20.11-6.43,3.7-.11,6.73.39,9.4.83,4.05.67,6.97,1.15,10.73-.55,1.29-.58,4.7-2.12,6.32-5.63.63-1.36.92-2.86.89-4.47-.03-1.51,1.16-2.76,2.67-2.79h.06c1.48,0,2.69,1.18,2.73,2.67.06,2.45-.41,4.77-1.38,6.88-2.47,5.37-7.41,7.59-9.04,8.32-5.27,2.37-9.44,1.68-13.86.95-2.55-.42-5.18-.84-8.36-.76-5.71.17-11.57,2.06-17.42,5.63-.44.27-.93.4-1.42.4Z"/>
    <path class="cls-1" d="M70.33,24.1c-.49,0-.98-.13-1.42-.4-5.85-3.57-11.71-5.47-17.42-5.63-3.17-.08-5.81.34-8.36.76-4.42.73-8.59,1.41-13.86-.95-1.62-.73-6.57-2.95-9.04-8.33-.97-2.12-1.44-4.43-1.38-6.88.03-1.49,1.25-2.67,2.73-2.67h.06c1.51.04,2.7,1.28,2.67,2.79-.04,1.61.26,3.12.88,4.47,1.62,3.52,5.03,5.05,6.32,5.63,3.76,1.69,6.69,1.21,10.73.55,2.67-.44,5.71-.94,9.4-.83,6.68.19,13.44,2.36,20.11,6.43,1.29.79,1.69,2.47.91,3.75-.52.84-1.41,1.31-2.33,1.31Z"/>
    <path class="cls-1" d="M181.75,88.73c-.56-5.5-3.21-9.89-7.88-13.07-8.4-5.71-22.54-6.64-37.54-5.06-1.68-13.87-4.87-27.89-9.59-41.79-.49-1.43-2.03-2.19-3.46-1.71-1.43.48-2.19,2.03-1.71,3.46,10.97,32.28,13.57,65.19,7.52,95.15-5.86,29.02-16.48,40.82-22.29,45.26-10.73,8.22-25.28,12.14-40.95,11.05-5.58-.39-10.46-1.3-14.78-2.54,16.65-10.76,33.02-30.59,33.02-50.2,0-27.34-18.86-49.59-42.04-49.59-10.34,0-19.81,4.43-27.14,11.75.79-19.62,3.18-39.63,7.29-59.82.3-1.48-.65-2.92-2.13-3.22-1.48-.3-2.92.65-3.22,2.13-4.67,22.92-7.19,45.62-7.63,67.8C3.46,106.83,0,117.58,0,129.28c0,19.17,4.19,43.27,15.97,53.43,3.82,3.3,8.17,4.96,12.96,4.96,1.06,0,2.15-.08,3.25-.25,3.84-.57,8.11-2.05,12.51-4.27,5.78,2.15,12.64,3.75,20.79,4.31,1.84.13,3.67.19,5.48.19,14.91,0,28.66-4.3,39.17-12.35,4.99-3.82,9.49-9.44,13.34-16.53,2.09-.41,4.18-.87,6.29-1.46,31.09-8.8,54.05-48.39,52-68.59ZM31.37,182.02c-4.51.66-8.38-.46-11.84-3.45-10.39-8.96-14.07-32.16-14.07-49.3,0-24.33,16.41-44.13,36.59-44.13s36.59,19.8,36.59,44.13-29.45,50.11-47.26,52.74ZM128.27,152.06c-.58.16-1.15.28-1.72.42,3.27-7.41,5.95-16.05,7.9-25.7,3.29-16.27,4.08-33.37,2.47-50.76,4.07-.44,8.07-.7,11.88-.7,9,0,16.91,1.37,22.01,4.84,3.32,2.26,5.13,5.24,5.52,9.11,1.83,18.01-19.87,54.81-48.06,62.79Z"/>
  </g>
</svg>