<?xml version="1.0" encoding="UTF-8"?>
<svg id="Capa_2" data-name="Capa 2" xmlns="http://www.w3.org/2000/svg" xmlns:xlink="http://www.w3.org/1999/xlink" viewBox="0 0 327.27 237.75">
  <defs>
    <style>
      .cls-1 {
        fill: #e1617f;
      }

      .cls-1, .cls-2, .cls-3, .cls-4, .cls-5, .cls-6, .cls-7, .cls-8, .cls-9, .cls-10, .cls-11, .cls-12, .cls-13, .cls-14, .cls-15, .cls-16, .cls-17, .cls-18, .cls-19, .cls-20, .cls-21, .cls-22, .cls-23, .cls-24, .cls-25, .cls-26, .cls-27, .cls-28, .cls-29, .cls-30, .cls-31, .cls-32, .cls-33, .cls-34, .cls-35, .cls-36, .cls-37, .cls-38, .cls-39, .cls-40, .cls-41, .cls-42, .cls-43, .cls-44, .cls-45, .cls-46, .cls-47, .cls-48, .cls-49, .cls-50, .cls-51, .cls-52, .cls-53, .cls-54, .cls-55, .cls-56, .cls-57 {
        stroke-width: 0px;
      }

      .cls-2 {
        fill: #ff98a7;
      }

      .cls-3 {
        fill: #e9f1ff;
      }

      .cls-4 {
        fill: #547dba;
      }

      .cls-5 {
        fill: #fc9aaf;
      }

      .cls-6 {
        fill: #e1303e;
      }

      .cls-58, .cls-59 {
        stroke: #000;
      }

      .cls-58, .cls-59, .cls-60, .cls-61 {
        stroke-miterlimit: 10;
      }

      .cls-58, .cls-62, .cls-40, .cls-45 {
        fill: #fff;
      }

      .cls-7 {
        fill: #f63e4a;
      }

      .cls-8 {
        fill: #88a5d2;
      }

      .cls-9 {
        fill: #e56680;
      }

      .cls-10 {
        fill: #f7edf2;
      }

      .cls-11 {
        fill: #2c3b49;
      }

      .cls-12 {
        fill: #252849;
      }

      .cls-13 {
        fill: #2f344e;
      }

      .cls-59, .cls-18, .cls-60, .cls-61 {
        fill: none;
      }

      .cls-14 {
        fill: #962f4a;
      }

      .cls-15 {
        fill: #faeede;
      }

      .cls-16 {
        fill: #f29495;
      }

      .cls-17 {
        fill: #00cebb;
      }

      .cls-60 {
        stroke: #252849;
        stroke-width: 2.27px;
      }

      .cls-61 {
        stroke: #f0f3f9;
      }

      .cls-63 {
        clip-path: url(#clippath-1);
      }

      .cls-19 {
        fill: #f9e8ea;
      }

      .cls-20 {
        fill: #404e5f;
      }

      .cls-21 {
        fill: #b3c9eb;
      }

      .cls-22 {
        fill: #3ea28f;
      }

      .cls-23 {
        fill: #f4ad18;
      }

      .cls-24 {
        fill: #00e8d5;
      }

      .cls-25 {
        fill: #6e8ec8;
      }

      .cls-26 {
        fill: #819fcc;
      }

      .cls-27 {
        fill: #f2e6d7;
      }

      .cls-28 {
        fill: #f5efee;
      }

      .cls-29 {
        fill: #41478c;
      }

      .cls-30 {
        fill: #2c7062;
      }

      .cls-31 {
        fill: #30335d;
      }

      .cls-32 {
        fill: #6f77b0;
      }

      .cls-33 {
        fill: #d1def5;
      }

      .cls-34 {
        fill: #362622;
      }

      .cls-64 {
        clip-path: url(#clippath);
      }

      .cls-35 {
        fill: #17212d;
      }

      .cls-36 {
        fill: #d7e2ff;
      }

      .cls-37 {
        fill: #fdc3cd;
      }

      .cls-38 {
        fill: #ffd0d8;
      }

      .cls-39 {
        fill: #f8cdc5;
      }

      .cls-40 {
        opacity: .51;
      }

      .cls-41 {
        fill: #ffb2bf;
      }

      .cls-42 {
        fill: #f56;
      }

      .cls-43 {
        fill: #98314f;
      }

      .cls-44 {
        fill: #fab2be;
      }

      .cls-46 {
        fill: #fcd277;
      }

      .cls-47 {
        fill: #56687f;
      }

      .cls-48 {
        fill: #b2dd45;
      }

      .cls-49 {
        fill: #ffc535;
      }

      .cls-50 {
        fill: #34629b;
      }

      .cls-51 {
        fill: #5476ef;
      }

      .cls-52 {
        fill: #e0d0ce;
      }

      .cls-53 {
        fill: #f5b5a9;
      }

      .cls-54 {
        fill: #f9e0e5;
      }

      .cls-55 {
        fill: #f9a0b4;
      }

      .cls-56 {
        fill: #e9fffe;
      }

      .cls-57 {
        fill: #4970db;
      }
    </style>
    <clipPath id="clippath">
      <rect class="cls-18" width="324.49" height="234.72"/>
    </clipPath>
    <clipPath id="clippath-1">
      <circle class="cls-58" cx="243.65" cy="82.02" r="74.31"/>
    </clipPath>
  </defs>
  <g id="Layer_1" data-name="Layer 1">
    <g>
      <g class="cls-64">
        <g>
          <g>
            <path class="cls-61" d="M345.91,231.86c1.86,5.28,2.86,10.96,2.86,16.88,0,14.06-5.7,26.8-14.91,36.01-1.03,1.03-2.11,2.02-3.22,2.96-1.29,1.08-2.63,2.11-4.02,3.06-2.06,1.41-4.22,2.68-6.48,3.78-6.28,3.06-13.29,4.87-20.7,5.1-.53.01-1.05.02-1.58.02h-33.43c-1.3,0-2.55.25-3.69.7-3.76,1.47-6.42,5.13-6.42,9.41v23.49c0,7.86-6.37,14.23-14.23,14.23H85.26v-37.72c0-5.58-4.53-10.11-10.11-10.11h-19.87c-12.49,0-23.88-4.67-32.54-12.36-4.22-3.75-7.78-8.21-10.5-13.2-3.8-6.97-5.96-14.95-5.96-23.45v-3.85c0-5.59.77-10.55,2.12-14.95,1.2-3.93,2.87-7.42,4.86-10.5,2-3.1,4.32-5.8,6.84-8.15,1.06-1,2.16-1.93,3.28-2.8,1.77-1.38,3.59-2.61,5.44-3.7.64-.38,1.27-.75,1.91-1.1.07-.04.14-.08.21-.12,4.36-2.36,8.72-4.01,12.52-5.16.09-.03.18-.06.27-.08,1.96-.58,3.73-1.52,5.28-2.72,3.37-2.62,5.62-6.51,6.16-10.85.09-.66.13-1.33.13-2.01v-15.92c0-.41.01-.82.03-1.22h0c.25-4.93,2.04-9.45,4.88-13.1.57-.73,1.17-1.42,1.82-2.07,1.27-1.29,2.7-2.43,4.25-3.39.71-.45,1.45-.85,2.21-1.22,1-.49,2.05-.91,3.13-1.24,1.88-.59,3.86-.95,5.92-1.05.03,0,.06,0,.1,0,.33-.01.66-.02.98-.02h0c.34,0,.69-.01,1.03-.03.29-.01.58-.04.86-.07,3.69-.38,7.05-1.89,9.74-4.17,1.91-1.62,3.48-3.63,4.57-5.9h0c.21-.43.39-.86.56-1.3.78-2.02,1.22-4.22,1.22-6.52h0c0-3.53-1.02-6.83-2.78-9.61-2.56-4.05-6.7-7.01-11.55-8.01-.58-.12-1.17-.21-1.77-.27-.28-.03-.57-.06-.86-.07-.34-.02-.68-.03-1.03-.03h-25.15c-3.5,0-6.87-.58-10-1.65-1.55-.53-3.04-1.17-4.46-1.93-.68-.36-1.34-.74-1.98-1.15-.01-.01-.03-.02-.04-.03-1.36-.85-2.64-1.81-3.85-2.86-1.1-.96-2.14-2-3.09-3.11-.64-.75-1.25-1.52-1.82-2.33,0,0,0,0,0,0-1.14-1.61-2.14-3.33-2.95-5.15-.47-1.03-.87-2.08-1.22-3.16-.54-1.66-.94-3.38-1.19-5.15-.15-1.04-.25-2.09-.29-3.16-.02-.41-.03-.83-.03-1.24,0-1.32.09-2.62.24-3.9.14-1.07.33-2.12.57-3.16.14-.62.31-1.23.49-1.84.48-1.6,1.08-3.14,1.8-4.62.51-1.05,1.07-2.06,1.7-3.03.65-1.03,1.36-2.01,2.12-2.95.19-.24.39-.47.59-.7.2-.23.4-.46.61-.68,3.9-4.27,8.99-7.44,14.74-8.98,2.51-.68,5.14-1.05,7.86-1.07.08,0,.15,0,.23,0h209.47c20.01,0,36.24,16.23,36.24,36.24h0c0,14.14,11.44,25.67,25.58,25.64,8.57-.02,16.33,3.45,21.94,9.06,5.6,5.6,9.06,13.33,9.06,21.88s-3.46,16.28-9.06,21.88c-5.6,5.6-13.33,9.06-21.88,9.06h-66.2c-.74,0-1.46.06-2.17.18-4.19.69-7.71,3.34-9.59,6.98-.94,1.82-1.48,3.88-1.48,6.07,0,.24,0,.48.02.72.18,3.37,1.62,6.4,3.85,8.64,2.4,2.39,5.71,3.87,9.36,3.87h39.25c12.21,0,23.41,4.3,32.18,11.46,3,2.45,5.71,5.23,8.08,8.29.95,1.23,1.84,2.49,2.68,3.8,2.09,3.27,3.81,6.79,5.11,10.5Z"/>
            <g>
              <path class="cls-25" d="M202.76,47.57v162.55c0,1.71-1.38,3.09-3.09,3.09H20.08c1.06-1,2.16-1.93,3.28-2.8,1.77-1.38,3.59-2.61,5.44-3.7.64-.38,1.27-.75,1.91-1.1.07-.04.14-.08.21-.12,4.36-2.36,8.72-4.01,12.52-5.16.09-.03.18-.06.27-.08,1.96-.58,3.73-1.52,5.28-2.72,3.37-2.62,5.62-6.51,6.16-10.85.09-.66.13-1.33.13-2.01v-15.92c0-.41.01-.82.03-1.22h0c.25-4.93,2.04-9.45,4.88-13.1.57-.73,1.17-1.42,1.82-2.07,1.27-1.29,2.7-2.43,4.25-3.39.71-.45,1.45-.85,2.21-1.22,1-.49,2.05-.91,3.13-1.24,1.88-.59,3.86-.95,5.92-1.05.03,0,.06,0,.1,0,.33-.01.66-.02.98-.02h0c.34,0,.69-.01,1.03-.03.29-.01.58-.04.86-.07,3.69-.38,7.05-1.89,9.74-4.17,1.91-1.62,3.48-3.63,4.57-5.9h0c.21-.43.39-.86.56-1.3.78-2.02,1.22-4.22,1.22-6.52h0c0-3.53-1.02-6.83-2.78-9.61-2.56-4.05-6.7-7.01-11.55-8.01-.58-.12-1.17-.21-1.77-.27-.28-.03-.57-.06-.86-.07-.34-.02-.68-.03-1.03-.03h-25.15c-3.5,0-6.87-.58-10-1.65-1.55-.53-3.04-1.17-4.46-1.93-.68-.36-1.34-.74-1.98-1.15-.01-.01-.03-.02-.04-.03-1.36-.85-2.64-1.81-3.85-2.86-1.1-.96-2.14-2-3.09-3.11-.64-.75-1.25-1.52-1.82-2.33,0,0,0,0,0,0-1.14-1.61-2.14-3.33-2.95-5.15-.47-1.03-.87-2.08-1.22-3.16-.54-1.66-.94-3.38-1.19-5.15-.15-1.04-.25-2.09-.29-3.16-.02-.41-.03-.83-.03-1.24,0-1.32.09-2.62.24-3.9.14-1.07.33-2.12.57-3.16.14-.62.31-1.23.49-1.84.48-1.6,1.08-3.14,1.8-4.62.51-1.05,1.07-2.06,1.7-3.03.65-1.03,1.36-2.01,2.12-2.95.19-.24.39-.47.59-.7.2-.23.4-.46.61-.68,3.9-4.27,8.99-7.44,14.74-8.98,2.51-.68,5.14-1.05,7.86-1.07.08,0,.15,0,.23,0h149.31Z"/>
              <path class="cls-3" d="M196.75,47.57v154.95c0,.11,0,.21-.01.31-.01.1-.03.21-.05.31-.01.08-.03.15-.06.23-.02.07-.04.14-.07.21-.03.07-.05.13-.08.19-.03.07-.07.15-.1.22-.05.09-.1.17-.16.26-.06.08-.11.16-.18.24-.06.08-.13.15-.2.22-.07.07-.14.14-.22.2-.08.06-.16.12-.24.18-.08.06-.17.11-.26.16-.09.05-.18.09-.27.13-.09.04-.19.07-.28.1-.1.03-.2.06-.3.08-.2.04-.41.06-.62.06H30.72c.07-.04.14-.08.21-.12,4.36-2.36,8.72-4.01,12.52-5.16.09-.03.18-.06.27-.08,1.96-.58,3.73-1.52,5.28-2.72,3.37-2.62,5.62-6.51,6.16-10.85.09-.66.13-1.33.13-2.01v-15.92c0-.41.01-.82.03-1.22h0c.25-4.93,2.04-9.45,4.88-13.1.57-.73,1.17-1.42,1.82-2.07,1.27-1.29,2.7-2.43,4.25-3.39.71-.45,1.45-.85,2.21-1.22,1-.49,2.05-.91,3.13-1.24,1.88-.59,3.86-.95,5.92-1.05.03,0,.06,0,.1,0,.33-.01.66-.02.98-.02h0c.34,0,.69-.01,1.03-.03.29-.01.58-.04.86-.07,3.69-.38,7.05-1.89,9.74-4.17,1.91-1.62,3.48-3.63,4.57-5.9h0c.21-.43.39-.86.56-1.3.78-2.02,1.22-4.22,1.22-6.52h0c0-3.53-1.02-6.83-2.78-9.61-2.56-4.05-6.7-7.01-11.55-8.01-.58-.12-1.17-.21-1.77-.27-.28-.03-.57-.06-.86-.07-.34-.02-.68-.03-1.03-.03h-25.15c-3.5,0-6.87-.58-10-1.65-1.55-.53-3.04-1.17-4.46-1.93-.68-.36-1.34-.74-1.98-1.15-.01-.01-.03-.02-.04-.03-1.36-.85-2.64-1.81-3.85-2.86-1.1-.96-2.14-2-3.09-3.11-.64-.75-1.25-1.52-1.82-2.33,0,0,0,0,0,0-1.14-1.61-2.14-3.33-2.95-5.15-.47-1.03-.87-2.08-1.22-3.16-.54-1.66-.94-3.38-1.19-5.15-.15-1.04-.25-2.09-.29-3.16-.02-.41-.03-.83-.03-1.24,0-1.32.09-2.62.24-3.9.14-1.07.33-2.12.57-3.16.14-.62.31-1.23.49-1.84.48-1.6,1.08-3.14,1.8-4.62.51-1.05,1.07-2.06,1.7-3.03.65-1.03,1.36-2.01,2.12-2.95.19-.24.39-.47.59-.7.2-.23.4-.46.61-.68,3.9-4.27,8.99-7.44,14.74-8.98,2.51-.68,5.14-1.05,7.86-1.07.08,0,.15,0,.23,0h143.3Z"/>
              <g>
                <path class="cls-21" d="M196.75,58.93v143.59c0,.85-.34,1.62-.9,2.18-.56.56-1.33.91-2.18.91h-96.38V76.58l.23-.16,3.69-2.5,12.82-8.68h20.52l4.2-2.25,1.91-1.03,1.06-.57,4.45-2.38,10.34-5.54,10.62,2.39v12.78h5.51v-21.08h9.28l2.9,2.9v8.46h11.93Z"/>
                <path class="cls-26" d="M173.61,83.78v121.83s20.05,0,20.05,0c1.71,0,3.09-1.38,3.09-3.09v-127.21s-7.66,0-7.66,0l-15.48,8.46Z"/>
                <rect class="cls-26" x="114.02" y="65.23" width="8.82" height="140.38"/>
                <path class="cls-21" d="M43.45,58.39v49.41c-1.55-.53-3.04-1.17-4.46-1.93-.68-.36-1.34-.74-1.98-1.15-.01-.01-.03-.02-.04-.03-1.36-.85-2.64-1.81-3.85-2.86-1.1-.96-2.14-2-3.09-3.11-.64-.75-1.25-1.52-1.82-2.33,0,0,0,0,0,0-1.14-1.61-2.14-3.33-2.95-5.15-.47-1.03-.87-2.08-1.22-3.16-.54-1.66-.94-3.38-1.19-5.15-.15-1.04-.25-2.09-.29-3.16-.02-.41-.03-.83-.03-1.24,0-1.32.09-2.62.24-3.9.14-1.07.33-2.12.57-3.16.14-.62.31-1.23.49-1.84.48-1.6,1.08-3.14,1.8-4.62l8.19-3.03,7.96-2.95,1.68-.62Z"/>
                <path class="cls-21" d="M30.93,205.49c4.36-2.36,8.72-4.01,12.52-5.16v5.28h-12.73c.07-.04.14-.08.21-.12Z"/>
                <path class="cls-8" d="M55.15,82.34v27.12h-1.7c-3.5,0-6.87-.58-10-1.65v-32.49l11.7,7.02Z"/>
                <path class="cls-8" d="M55.15,186.68v18.93h-11.7v-5.28c.09-.03.18-.06.27-.08,1.96-.58,3.73-1.52,5.28-2.72,3.37-2.62,5.62-6.51,6.16-10.85Z"/>
                <path class="cls-21" d="M79.63,71v38.49c-.34-.02-.68-.03-1.03-.03h-10.13v-43.14l9.05,3.8,2.11.88Z"/>
                <path class="cls-21" d="M78.6,145.43c.34,0,.69-.01,1.03-.03v60.22h-11.16v-57.87c1-.49,2.05-.91,3.13-1.24,1.88-.59,3.86-.95,5.92-1.05.03,0,.06,0,.1,0,.33-.01.66-.02.98-.02h0Z"/>
                <polygon class="cls-26" points="68.47 66.31 68.47 109.46 60.19 109.46 60.19 69.19 66.79 66.9 68.47 66.31"/>
                <path class="cls-26" d="M66.26,148.96c.71-.45,1.45-.85,2.21-1.22v57.87h-8.28v-51.18c.57-.73,1.17-1.42,1.82-2.07,1.27-1.29,2.7-2.43,4.25-3.39Z"/>
                <rect class="cls-33" x="135.11" y="70.81" width="29.13" height="3.12" transform="translate(299.35 144.74) rotate(-180)"/>
                <polygon class="cls-33" points="99.66 88.68 112.1 88.27 112.1 72.37 99.66 80.73 99.66 88.68"/>
                <rect class="cls-33" x="135.11" y="81.01" width="29.13" height="3.12" transform="translate(299.35 165.14) rotate(-180)"/>
                <rect class="cls-33" x="135.11" y="91.21" width="29.13" height="3.12" transform="translate(299.35 185.54) rotate(-180)"/>
                <rect class="cls-33" x="135.11" y="101.41" width="29.13" height="3.12" transform="translate(299.35 205.94) rotate(-180)"/>
                <rect class="cls-33" x="135.11" y="111.61" width="29.13" height="3.12" transform="translate(299.35 226.34) rotate(-180)"/>
                <rect class="cls-33" x="135.11" y="121.81" width="29.13" height="3.12" transform="translate(299.35 246.74) rotate(-180)"/>
                <rect class="cls-33" x="135.11" y="132.01" width="29.13" height="3.12" transform="translate(299.35 267.13) rotate(-180)"/>
                <rect class="cls-33" x="135.11" y="142.21" width="29.13" height="3.12" transform="translate(299.35 287.53) rotate(-180)"/>
                <rect class="cls-33" x="135.11" y="152.41" width="29.13" height="3.12" transform="translate(299.35 307.93) rotate(-180)"/>
                <rect class="cls-33" x="135.11" y="162.61" width="29.13" height="3.12" transform="translate(299.35 328.33) rotate(-180)"/>
                <rect class="cls-33" x="135.11" y="172.81" width="29.13" height="3.12" transform="translate(299.35 348.73) rotate(-180)"/>
                <rect class="cls-33" x="135.11" y="183.01" width="29.13" height="3.12" transform="translate(299.35 369.13) rotate(-180)"/>
                <rect class="cls-33" x="135.11" y="193.21" width="29.13" height="3.12" transform="translate(299.35 389.53) rotate(-180)"/>
                <rect class="cls-33" x="99.66" y="93.29" width="12.44" height="25.21" transform="translate(211.75 211.79) rotate(-180)"/>
                <rect class="cls-33" x="99.66" y="124.31" width="12.44" height="25.21" transform="translate(211.75 273.83) rotate(-180)"/>
                <rect class="cls-33" x="99.66" y="155.33" width="12.44" height="25.21" transform="translate(211.75 335.87) rotate(-180)"/>
                <rect class="cls-33" x="99.66" y="184.57" width="12.44" height="15.36" transform="translate(211.75 384.49) rotate(-180)"/>
                <rect class="cls-33" x="33.15" y="71.45" width="5.83" height="3.16" transform="translate(72.13 146.06) rotate(-180)"/>
                <polygon class="cls-33" points="78.19 78.6 70.08 78.6 70.08 69.35 78.19 73.16 78.19 78.6"/>
                <path class="cls-33" d="M28.19,71.45v3.16h-5.44c.14-1.07.33-2.12.57-3.16h4.87Z"/>
                <rect class="cls-33" x="33.15" y="79.76" width="5.83" height="3.16" transform="translate(72.13 162.68) rotate(-180)"/>
                <path class="cls-33" d="M28.19,79.76v3.16h-5.37c-.15-1.04-.25-2.09-.29-3.16h5.66Z"/>
                <rect class="cls-33" x="33.15" y="88.07" width="5.83" height="3.16" transform="translate(72.13 179.3) rotate(-180)"/>
                <path class="cls-33" d="M28.19,88.07v3.16h-2.96c-.47-1.03-.87-2.08-1.22-3.16h4.18Z"/>
                <rect class="cls-33" x="33.15" y="96.38" width="5.83" height="3.16" transform="translate(72.13 195.92) rotate(-180)"/>
                <polygon class="cls-33" points="28.19 96.38 28.19 96.39 28.19 96.38 28.19 96.38"/>
                <path class="cls-33" d="M38.98,104.69v1.18c-.68-.36-1.34-.74-1.98-1.15-.01-.01-.03-.02-.04-.03h2.03Z"/>
                <rect class="cls-33" x="70.08" y="81.34" width="8.11" height="4.55" transform="translate(148.26 167.23) rotate(-180)"/>
                <rect class="cls-33" x="75.21" y="89.12" width="2.98" height="4.55" transform="translate(153.39 182.78) rotate(-180)"/>
                <rect class="cls-33" x="70.08" y="89.12" width="2.98" height="4.55" transform="translate(143.13 182.78) rotate(-180)"/>
                <rect class="cls-33" x="70.08" y="98.1" width="8.11" height="4.55" transform="translate(148.26 200.75) rotate(-180)"/>
                <rect class="cls-33" x="75.2" y="105.88" width="2.98" height="3.58"/>
                <rect class="cls-33" x="70.08" y="105.88" width="2.98" height="3.58"/>
                <rect class="cls-33" x="70.08" y="148.12" width="8.11" height="4.55" transform="translate(148.26 300.79) rotate(-180)"/>
                <rect class="cls-33" x="75.21" y="155.9" width="2.98" height="4.55" transform="translate(153.39 316.34) rotate(-180)"/>
                <rect class="cls-33" x="70.08" y="155.9" width="2.98" height="4.55" transform="translate(143.13 316.34) rotate(-180)"/>
                <rect class="cls-33" x="70.08" y="164.75" width="8.11" height="4.55" transform="translate(148.26 334.04) rotate(-180)"/>
                <rect class="cls-33" x="75.21" y="172.53" width="2.98" height="4.55" transform="translate(153.39 349.6) rotate(-180)"/>
                <rect class="cls-33" x="70.08" y="172.53" width="2.98" height="4.55" transform="translate(143.13 349.6) rotate(-180)"/>
                <rect class="cls-33" x="70.08" y="181.38" width="8.11" height="4.55" transform="translate(148.26 367.3) rotate(-180)"/>
                <rect class="cls-33" x="75.21" y="189.15" width="2.98" height="4.55" transform="translate(153.39 382.86) rotate(-180)"/>
                <rect class="cls-33" x="70.08" y="189.15" width="2.98" height="4.55" transform="translate(143.13 382.86) rotate(-180)"/>
              </g>
              <path class="cls-40" d="M196.75,168.58v33.94c0,.85-.34,1.62-.9,2.18-.56.56-1.33.91-2.18.91l-20.05-28.56-9.37-13.35-.77-1.1-4.97-7.08-2.19-3.12-4.97-7.08-2.19-3.12-4.97-7.08-2.19-3.12-.27-.39-2.97-4.23-1.72-2.46-1.91-2.72-12.27-17.47-8.82-12.56-2.72-3.87-7.34-10.46-2.75-3.93-8.39-11.95-2.07-2.95-8.03-11.44h29.09l8.03,11.44,2.07,2.95,2.3,3.27,11.08,15.78,2.19,3.12,1.28,1.82,2.97,4.23.72,1.03,2.19,3.12,4.97,7.08,2.19,3.12,4.97,7.08,2.19,3.12,4.97,7.08.33.46,9.37,13.35,23.14,32.96Z"/>
              <polygon class="cls-40" points="188.21 205.61 174.29 205.61 173.61 204.64 160.61 186.12 158.42 183.01 153.45 175.92 151.26 172.81 146.29 165.72 144.1 162.61 141.71 159.21 139.12 155.52 138.74 154.98 136.94 152.41 122.84 132.33 114.02 119.76 112.1 117.03 99.66 99.31 97.28 95.92 80.49 72.01 77.52 67.77 73.44 61.96 71.37 59.01 63.34 47.57 77.26 47.57 77.52 47.94 80.49 52.17 85.29 59.01 87.36 61.96 97.51 76.42 100.26 80.33 105.97 88.47 109.35 93.29 112.1 97.19 114.02 99.93 122.84 112.5 136.54 132.01 138.73 135.13 138.74 135.14 141.71 139.38 143.7 142.21 145.89 145.32 150.86 152.41 153.05 155.52 158.02 162.61 160.21 165.72 173.61 184.81 188.21 205.61"/>
              <path class="cls-40" d="M164.17,205.61h-8.6l-6.52-9.29-2.19-3.12-4.97-7.08-.18-.25-2.01-2.86-.96-1.37-15.9-22.65-8.82-12.56-1.92-2.74-12.44-17.71-2.38-3.4-16.79-23.91-.86-1.23-2.11-3.01-.54-.77-1.77-2.52-3.69-5.26-1.44-2.05-1.61-2.29-8.28-11.79-5.47-7.79-2.07-2.95-7.28-10.37c2.51-.68,5.14-1.05,7.86-1.07l8.03,11.44,2.07,2.95,3.47,4.94,1.68,2.39,1.61,2.29,4.93,7.02,1.92,2.74.59.84.67.95,1.45,2.06.86,1.22,16.79,23.91,2.38,3.4,3.36,4.78,4.07,5.81,5,7.13,1.92,2.74,8.82,12.56,12.27,17.47,1.06,1.51,2.57,3.66,2.4,3.42.57.81,1.62,2.31,4.97,7.08,2.19,3.12,4.97,7.08,2.19,3.12,6.52,9.29Z"/>
              <path class="cls-25" d="M198.82,59.01v2.95H27.31c.65-1.03,1.36-2.01,2.12-2.95h169.39Z"/>
              <path class="cls-25" d="M79.63,145.4c.29-.01.58-.04.86-.07v60.29h-2.97v-60.16s.06,0,.1,0c.33-.01.66-.02.98-.02h0c.34,0,.69-.01,1.03-.03Z"/>
              <path class="cls-25" d="M80.49,47.63v61.93c-.28-.03-.57-.06-.86-.07-.34-.02-.68-.03-1.03-.03h-1.08v-61.87l2.97.04Z"/>
              <rect class="cls-25" x="138.74" y="47.57" width="2.97" height="158.04"/>
            </g>
            <g>
              <g>
                <g>
                  <circle class="cls-6" cx="92.93" cy="172.29" r="12.19"/>
                  <g>
                    <path class="cls-45" d="M131,184.18c-.14.46-.3.91-.5,1.33-2.09,4.66-7.36,7.17-12.4,5.69l-26.42-7.79c-3.35-.99-5.83-3.52-6.88-6.58-.68-1.97-.77-4.16-.14-6.31.36-1.23.93-2.34,1.65-3.3,2.53-3.36,6.96-4.98,11.24-3.72l26.42,7.79c5.5,1.62,8.64,7.4,7.02,12.89Z"/>
                    <path class="cls-56" d="M130.51,185.52c-2.09,4.66-7.36,7.17-12.4,5.69l-26.42-7.79c-3.35-.99-5.83-3.52-6.88-6.58,1.45,1.51,3.4,2.68,5.71,3.29l18.26,4.76h0s4.18,1.09,4.18,1.09c.26.07.52.13.79.18.27.11.54.22.82.31,3.61,1.24,7.43,1.14,10.75,0,1.79-.04,3.55-.37,5.18-.95Z"/>
                    <rect class="cls-53" x="151.94" y="153.58" width="18.93" height="12.38" rx="6.19" ry="6.19" transform="translate(-57.86 100.6) rotate(-29.61)"/>
                    <rect class="cls-53" x="133.48" y="144.89" width="18.93" height="9.8" rx="4.9" ry="4.9" transform="translate(-44.19 238.39) rotate(-71.67)"/>
                    <rect class="cls-53" x="144.67" y="142.91" width="24.17" height="17.32" rx="8.66" ry="8.66" transform="translate(-54.42 97.23) rotate(-29.61)"/>
                    <rect class="cls-53" x="125.15" y="139.86" width="25.85" height="57.77" rx="12.92" ry="12.92" transform="translate(95.65 382.61) rotate(-129.49)"/>
                    <rect class="cls-53" x="151.94" y="153.58" width="18.93" height="12.38" rx="6.19" ry="6.19" transform="translate(-57.86 100.6) rotate(-29.61)"/>
                    <path class="cls-39" d="M115.79,187.11c-1.71-2.07-2.67-4.53-2.9-7.02.48,1.61,1.29,3.15,2.42,4.52,4.53,5.51,12.68,6.3,18.19,1.76l23.17-19.09,1.46-1.21c.43-.35.83-.73,1.2-1.12.62-.12,1.23-.35,1.81-.68l1.16-.66,4.53-2.57c.98-.55,1.75-1.34,2.28-2.24s.83-1.96.86-3.02c.77,1.83.59,3.88-.38,5.51-.53.9-1.3,1.69-2.27,2.24l-5.7,3.24c-.58.33-1.19.56-1.82.69-.37.39-.77.76-1.19,1.11l-24.63,20.3c-5.51,4.54-13.65,3.76-18.19-1.75Z"/>
                  </g>
                </g>
                <g>
                  <rect class="cls-53" x="80.67" y="143.46" width="13.69" height="15.96" transform="translate(-6.87 4.18) rotate(-2.63)"/>
                  <path class="cls-16" d="M80.31,143.78l.22,4.77c2.75,3.2,6.52,5.49,10.8,6.37,1.04.22,2.12.35,3.21.38l-.56-12.15-13.67.63Z"/>
                  <path class="cls-53" d="M72.24,126.36l.89,8.44c1.12,10.66,10.67,18.39,21.33,17.27,6.41-.67,11.06-6.42,10.38-12.83l-1.26-11.99-.21-2.03-.08-.74-.23-2.21c-.56-5.34-5.35-9.21-10.69-8.65l-2.09.22-8.64.91c-1.14.12-2.23.42-3.23.87-2.2.99-3.98,2.71-5.06,4.81-.91,1.76-1.33,3.8-1.11,5.92Z"/>
                  <ellipse class="cls-49" cx="93.19" cy="143.02" rx="11.04" ry="9.04"/>
                  <ellipse class="cls-23" cx="101.91" cy="125.78" rx="4.19" ry="8.41" transform="translate(-5.67 4.82) rotate(-2.63)"/>
                  <path class="cls-16" d="M74.89,126.66c2.37,5.4,11.79,6.48,21.04,2.42,2.84-1.25,5.33-2.84,7.36-4.6l-.23-2.21c-.56-5.34-5.35-9.21-10.69-8.65l-2.09.22-8.64.91c-1.14.12-2.23.42-3.23.87-3.47,3.64-4.96,7.76-3.52,11.04Z"/>
                  <circle class="cls-12" cx="87.8" cy="132.1" r="1.34"/>
                  <circle class="cls-12" cx="97.28" cy="131.66" r="1.34"/>
                  <g>
                    <path class="cls-14" d="M97.42,136.95c-.03,1.1-.5,2.08-1.24,2.79-.09.09-.19.17-.29.25-.7.55-1.6.87-2.56.84h-.16c-.88-.03-1.68-.33-2.33-.84-.89-.69-1.48-1.75-1.54-2.94,0-.11,0-.22,0-.33,0-.21.1-.4.24-.54s.34-.22.55-.21l6.59.18c.43.01.76.37.75.79Z"/>
                    <path class="cls-1" d="M93.26,140.21c0,.21-.03.41-.08.61h-.02c-2.09-.06-3.76-1.72-3.87-3.77.28-.07.58-.11.89-.1,1.75.05,3.13,1.51,3.08,3.26Z"/>
                    <path class="cls-45" d="M96.52,136.15c-.05.78-1.28,1.37-2.76,1.33-1.48-.04-2.67-.7-2.68-1.48l5.44.15Z"/>
                  </g>
                  <path class="cls-49" d="M79.34,123.79h0v16.22h-8.18v-8.04c0-4.52,3.67-8.18,8.18-8.18Z" transform="translate(156.48 260.2) rotate(177.37)"/>
                  <circle class="cls-53" cx="74.61" cy="136.33" r="4.94"/>
                  <path class="cls-16" d="M73.09,135.84c-.08.88.39,1.68,1.13,2.07.38.2.84-.08.87-.5l.24-2.76c.04-.45-.4-.78-.83-.63-.76.27-1.34.97-1.41,1.83Z"/>
                  <circle class="cls-49" cx="74.64" cy="119.54" r="8.91"/>
                  <path class="cls-23" d="M65.75,119.95c.12,2.7,1.44,5.07,3.42,6.61-1.41-1.49-2.31-3.48-2.41-5.69-.23-4.91,3.58-9.08,8.49-9.3,2.22-.1,4.29.62,5.91,1.89-1.72-1.84-4.21-2.94-6.92-2.82-4.92.23-8.71,4.39-8.49,9.31Z"/>
                  <ellipse class="cls-49" cx="90.09" cy="115.33" rx="19.48" ry="11.17" transform="translate(-33.56 37.04) rotate(-19.67)"/>
                  <ellipse class="cls-46" cx="90.09" cy="115.33" rx="11.94" ry="6.85" transform="translate(-33.56 37.04) rotate(-19.67)"/>
                  <path class="cls-46" d="M104.39,119.55c1.96-2.75,2.7-5.64,1.79-8.18-2.08-5.81-11.97-7.59-22.1-3.96-4.28,1.53-7.92,3.78-10.54,6.31,2.53-3.54,7.09-6.86,12.79-8.89,10.13-3.62,20.02-1.84,22.1,3.96,1.2,3.35-.47,7.32-4.04,10.77Z"/>
                </g>
                <path class="cls-7" d="M87.68,158.42h0c14.47,0,26.21,11.75,26.21,26.21v38.51h-38.48v-52.45c0-6.77,5.5-12.27,12.27-12.27Z" transform="translate(-8.67 4.55) rotate(-2.63)"/>
                <rect class="cls-7" x="73.43" y="154.17" width="30.22" height="9.7" rx="4.85" ry="4.85" transform="translate(-7.22 4.24) rotate(-2.63)"/>
                <g>
                  <path class="cls-12" d="M134.79,320.02l1.08-87.29c.02-6,4.91-10.85,10.91-10.83h.29c6,.02,10.85,4.91,10.83,10.91l-1.08,87.29c0,.91-.75,1.65-1.66,1.65l-18.71-.07c-.91,0-1.65-.75-1.65-1.66Z"/>
                  <path class="cls-12" d="M112.66,221.75h29.29c8.37,0,15.17,6.8,15.17,15.17v3.7c0,2.42-1.96,4.38-4.38,4.38h-40.08c-6.41,0-11.62-5.21-11.62-11.62h0c0-6.41,5.21-11.62,11.62-11.62Z" transform="translate(255.17 468.37) rotate(-179.27)"/>
                </g>
                <path class="cls-31" d="M76.55,229.15c-.05,4.31,1.63,8.21,4.39,11.01,2.4,2.44,5.61,4.03,9.19,4.3.05,0,.11,0,.16.01.25.02.49.03.74.03l28.33.36c3.1.04,5.93-1.23,7.99-3.3,1.43-1.44,2.49-3.28,3.02-5.34.22-.85.35-1.74.37-2.65.18-6.49-5.02-11.87-11.3-11.95l-42.79-.55-.1,8.08Z"/>
                <path class="cls-31" d="M111.4,239.49l.35.43,3.95,4.9,20.19,25.02,42.63,52.92c.83,1.03,2.35,1.19,3.38.36l13.4-10.81c1.03-.83,1.19-2.35.36-3.38l-31.18-38.72-28.35-35.13-7.6-9.42c-2.14-2.66-5.27-4.06-8.43-4.1-.4,0-.8.01-1.2.05-2.07.2-4.11.99-5.85,2.39-4.73,3.82-5.47,10.75-1.65,15.48Z"/>
                <circle class="cls-6" cx="87.84" cy="175.9" r="12.19"/>
                <g>
                  <path class="cls-45" d="M98.87,214.23c-.46.14-.92.25-1.39.32-5.04.82-10.04-2.19-11.57-7.21l-8.05-26.34c-1.02-3.34-.27-6.8,1.71-9.37,1.27-1.65,3.04-2.94,5.19-3.59,1.22-.37,2.46-.51,3.67-.44,4.2.26,7.99,3.07,9.29,7.33l8.05,26.34c1.67,5.48-1.41,11.29-6.9,12.96Z"/>
                  <path class="cls-19" d="M97.49,214.55c-5.04.82-10.04-2.19-11.57-7.21l-8.05-26.34c-1.02-3.34-.27-6.8,1.71-9.37-.47,2.04-.37,4.31.4,6.58l6.08,17.86h0s1.39,4.09,1.39,4.09c.08.26.18.51.28.76.06.28.12.57.19.86.96,3.69,3.14,6.83,5.92,8.98,1.02,1.47,2.26,2.76,3.65,3.8Z"/>
                  <circle class="cls-6" cx="99.12" cy="206.02" r="14.83"/>
                  <rect class="cls-53" x="129.9" y="199.26" width="18.93" height="12.38" rx="6.19" ry="6.19" transform="translate(-8.04 5.69) rotate(-2.27)"/>
                  <rect class="cls-53" x="118.08" y="183.2" width="18.93" height="9.8" rx="4.9" ry="4.9" transform="translate(-95.14 142.72) rotate(-44.34)"/>
                  <rect class="cls-53" x="126.91" y="187.37" width="24.17" height="17.32" rx="8.66" ry="8.66" transform="translate(-7.66 5.67) rotate(-2.27)"/>
                  <rect class="cls-53" x="101.6" y="173.82" width="25.85" height="57.77" rx="12.92" ry="12.92" transform="translate(-59.53 357.34) rotate(-102.16)"/>
                  <rect class="cls-53" x="129.9" y="199.26" width="18.93" height="12.38" rx="6.19" ry="6.19" transform="translate(-8.04 5.69) rotate(-2.27)"/>
                  <path class="cls-39" d="M86.28,208.79c-.57-2.63-.29-5.25.65-7.56-.31,1.65-.3,3.39.07,5.13,1.5,6.97,8.37,11.42,15.35,9.91l29.35-6.32,1.86-.4c.54-.12,1.07-.27,1.58-.45.6.17,1.25.26,1.92.23l1.34-.05,5.21-.21c1.12-.04,2.17-.38,3.05-.94s1.64-1.36,2.15-2.29c-.15,1.98-1.26,3.71-2.87,4.72-.89.56-1.93.9-3.05.95l-6.55.26c-.67.03-1.32-.06-1.93-.22-.5.17-1.03.32-1.57.44l-31.2,6.72c-6.98,1.5-13.85-2.93-15.36-9.91Z"/>
                </g>
              </g>
              <g>
                <path class="cls-36" d="M183.61,204.21h0c1.28,0,2.31,1.04,2.31,2.31v.09h-4.62v-.09c0-1.28,1.04-2.31,2.31-2.31Z"/>
                <path class="cls-36" d="M178.99,204.21h0c1.28,0,2.31,1.04,2.31,2.31v.09h-4.62v-.09c0-1.28,1.04-2.31,2.31-2.31Z"/>
                <path class="cls-36" d="M174.37,204.21h0c1.28,0,2.31,1.04,2.31,2.31v.09h-4.62v-.09c0-1.28,1.04-2.31,2.31-2.31Z"/>
                <path class="cls-36" d="M169.75,204.21h0c1.28,0,2.31,1.04,2.31,2.31v.09h-4.62v-.09c0-1.28,1.04-2.31,2.31-2.31Z"/>
                <path class="cls-36" d="M165.12,204.21h0c1.28,0,2.31,1.04,2.31,2.31v.09h-4.62v-.09c0-1.28,1.04-2.31,2.31-2.31Z"/>
                <path class="cls-36" d="M160.5,204.21h0c1.28,0,2.31,1.04,2.31,2.31v.09h-4.62v-.09c0-1.28,1.04-2.31,2.31-2.31Z"/>
                <path class="cls-36" d="M155.88,204.21h0c1.28,0,2.31,1.04,2.31,2.31v.09h-4.62v-.09c0-1.28,1.04-2.31,2.31-2.31Z"/>
                <rect class="cls-57" x="147.43" y="205.31" width="52.75" height="3.77" rx="1.88" ry="1.88"/>
                <path class="cls-51" d="M185.65,209.07h44.01c1.85,0,3.45-1.25,3.9-3.04l8.58-34.08c.64-2.54-1.28-5.01-3.9-5.01h-38.85c-1.85,0-3.45,1.25-3.9,3.04l-9.84,39.09Z"/>
                <path class="cls-57" d="M242.14,171.95l-8.58,34.08c-.45,1.79-2.06,3.04-3.9,3.04h-44.01s.95-3.77.95-3.77h34.77c1.85,0,3.46-1.25,3.91-3.04l8.58-34.08c.11-.42.14-.84.12-1.24h4.27c2.62,0,4.55,2.47,3.91,5.01Z"/>
                <g>
                  <circle class="cls-36" cx="216.65" cy="189.13" r="2.2"/>
                  <path class="cls-36" d="M219.6,192.43c-.77,1.2-2.11,1.99-3.64,1.99-2.38,0-4.32-1.93-4.32-4.31,0-1.53.79-2.87,1.99-3.64-.43.67-.67,1.47-.67,2.32,0,2.38,1.93,4.31,4.32,4.31.85,0,1.65-.25,2.32-.67Z"/>
                </g>
              </g>
              <g>
                <circle class="cls-23" cx="57.37" cy="166.58" r="6.21"/>
                <rect class="cls-15" x="63.14" y="186.28" width="14.86" height="38.65" rx="7.43" ry="7.43" transform="translate(276.62 274.86) rotate(127.52)"/>
                <circle class="cls-27" cx="79.99" cy="212.31" r="7.97"/>
                <rect class="cls-41" x="80.78" y="180.95" width="12.27" height="38.65" rx="6.14" ry="6.14" transform="translate(70.44 417.98) rotate(-152.21)"/>
                <rect class="cls-41" x="89.87" y="178.06" width="12.16" height="17.47" rx="6.08" ry="6.08" transform="translate(229.1 24.41) rotate(66.54)"/>
                <rect class="cls-41" x="96.49" y="173.03" width="4.4" height="16.71" rx="2.2" ry="2.2" transform="translate(225.78 18.63) rotate(66.54)"/>
                <rect class="cls-6" x="63.14" y="186.28" width="14.86" height="38.65" rx="7.43" ry="7.43" transform="translate(276.62 274.86) rotate(127.52)"/>
                <circle class="cls-7" cx="79.99" cy="212.31" r="7.97"/>
                <rect class="cls-41" x="80.78" y="180.95" width="12.27" height="38.65" rx="6.14" ry="6.14" transform="translate(70.44 417.98) rotate(-152.21)"/>
                <rect class="cls-41" x="89.87" y="178.06" width="12.16" height="17.47" rx="6.08" ry="6.08" transform="translate(229.1 24.41) rotate(66.54)"/>
                <path class="cls-5" d="M103.97,183.32c-.22-.51-.51-.98-.84-1.39.18.58.26,1.17.26,1.76,0,2.35-1.37,4.58-3.66,5.58l-.6.26h0s-2.31,1-2.31,1l-1.68,3.19-10.03,19.04c-1.58,3-5.29,4.15-8.29,2.57-.77-.41-1.42-.95-1.93-1.59.46,1.51,1.5,2.85,3.01,3.64,3,1.58,6.71.43,8.29-2.57l11.71-22.23,2.91-1.26c2.29-1,3.66-3.23,3.66-5.58,0-.81-.16-1.63-.5-2.42Z"/>
                <rect class="cls-41" x="96.49" y="173.03" width="4.4" height="16.71" rx="2.2" ry="2.2" transform="translate(225.78 18.63) rotate(66.54)"/>
                <circle class="cls-6" cx="56.96" cy="200.35" r="11.65"/>
                <rect class="cls-7" x="12.72" y="204.64" width="61.49" height="35.13" rx="17.56" ry="17.56" transform="translate(-179.67 260.61) rotate(-88.7)"/>
                <path class="cls-7" d="M47.48,177.74h0c5.99,0,10.85,4.86,10.85,10.85v23.88c0,5.99-4.86,10.85-10.85,10.85h0c-9.88,0-17.9-8.02-17.9-17.9v-9.78c0-9.88,8.02-17.9,17.9-17.9Z" transform="translate(-157.52 239.92) rotate(-88.7)"/>
                <path class="cls-41" d="M50.84,176.88l-.25,11.08c-.01.6-.11,1.17-.28,1.72-.8,2.61-3.23,4.49-6.07,4.49-.05,0-.1,0-.14,0-3.51-.08-6.29-2.99-6.21-6.49l.09-3.8.17-7.28c.08-3.46,2.91-6.21,6.35-6.21.05,0,.1,0,.14,0,3.51.08,6.29,2.99,6.21,6.49Z"/>
                <rect class="cls-12" x="48.3" y="210.47" width="19.94" height="65.69" rx="9.97" ry="9.97" transform="translate(-186.31 296.05) rotate(-88.7)"/>
                <path class="cls-31" d="M45.31,243.52v69.63h-19.94v-69.63c0-5.51,4.47-9.97,9.97-9.97,2.75,0,5.24,1.12,7.05,2.92,1.8,1.8,2.92,4.3,2.92,7.05Z"/>
                <path class="cls-12" d="M115.57,306.34l-17.77,7.12-2.01-5.2-23.91-60.68c-1.98-5.14.57-10.91,5.71-12.89,1.18-.45,2.39-.67,3.59-.67,4,0,7.78,2.42,9.3,6.38l22.68,57.52,2.4,6.21v2.22Z"/>
                <path class="cls-5" d="M50.84,176.88l-.25,11.08c-.01.6-.11,1.17-.28,1.72-.16,0-.31,0-.47,0-4.82,0-9.12-2.28-11.86-5.81l.17-7.28c.08-3.46,2.91-6.21,6.35-6.21.05,0,.1,0,.14,0,3.51.08,6.29,2.99,6.21,6.49Z"/>
                <path class="cls-41" d="M61.87,170.79c0,8.82-6.29,16.03-14.21,16.5-.27.02-.54.02-.81.02-8.29,0-15.02-7.4-15.02-16.52,0-9.12,6.72-16.52,15.02-16.52.27,0,.54,0,.81.02,7.92.46,14.21,7.67,14.21,16.5Z"/>
                <g>
                  <path class="cls-14" d="M55.45,173.99c.04,1.16-.39,2.22-1.13,3.01-.09.1-.19.19-.29.28-.7.62-1.62,1.01-2.64,1.05h-.17c-.93.04-1.79-.23-2.5-.72-.98-.67-1.67-1.74-1.81-2.99-.01-.11-.02-.23-.03-.35,0-.22.08-.43.22-.58s.34-.25.57-.26l6.94-.23c.45-.02.83.34.84.79Z"/>
                  <path class="cls-1" d="M51.28,177.68c0,.22,0,.44-.04.65h-.02c-2.2.07-4.06-1.56-4.31-3.71.29-.1.6-.15.92-.16,1.84-.06,3.39,1.38,3.45,3.23Z"/>
                  <path class="cls-45" d="M54.45,173.21c0,.82-1.25,1.53-2.81,1.58-1.56.05-2.85-.56-2.91-1.39l5.72-.19Z"/>
                </g>
                <path class="cls-5" d="M61.87,170.79c0,8.82-6.29,16.03-14.21,16.5-.27.02-.54.02-.81.02-.5,0-1-.03-1.49-.08,7.6-.82,13.54-7.87,13.54-16.44s-5.94-15.62-13.54-16.44c.49-.05.98-.08,1.49-.08.27,0,.54,0,.81.02,7.92.46,14.21,7.67,14.21,16.5Z"/>
                <path class="cls-6" d="M34.45,198.39c0,.05,0,.1,0,.16-.15,4.96-3.45,8.89-7.49,8.95-.09,0-.17,0-.26,0-4.2-.11-7.54-4.37-7.45-9.51.05-2.85.65-5.15,2.32-6.81.86-.86,2.36-1.71,3.48-2.04.63-.19,1.28-.28,1.96-.26.45.01.89.07,1.31.17,3.56.86,6.21,4.75,6.14,9.34Z"/>
                <path class="cls-6" d="M34.76,198.2c0,.05,0,.11,0,.16-.13,3.58-1.89,6.64-4.39,8.14,1.22-1.6,2-3.72,2.09-6.05,0-.05,0-.11,0-.16.1-4.67-2.62-8.6-6.28-9.45-.44-.1-.89-.16-1.35-.17-.69-.01-1.37.08-2.02.27-.57.17-1.11.41-1.63.72,1.04-1.36,2.4-2.36,3.94-2.81.65-.19,1.32-.29,2.02-.27.46.01.92.07,1.35.17,3.67.85,6.38,4.79,6.28,9.46Z"/>
                <g>
                  <rect class="cls-7" x="12.45" y="190.29" width="14.86" height="38.65" rx="7.43" ry="7.43" transform="translate(-50.44 408.08) rotate(-155.07)"/>
                  <path class="cls-42" d="M31.92,196.4c-.74-1.16-1.8-2.14-3.15-2.76-3.72-1.73-8.14-.12-9.87,3.61l-10.03,21.57c-.47,1.01-.69,2.08-.69,3.13,0,.83.14,1.65.41,2.43-.75-1.19-1.15-2.57-1.15-3.98,0-1.05.22-2.11.69-3.13l10.03-21.57c1.73-3.72,6.15-5.34,9.87-3.61,1.9.88,3.26,2.47,3.89,4.31Z"/>
                  <circle class="cls-6" cx="15.3" cy="220.37" r="7.97"/>
                </g>
                <rect class="cls-49" x="28.87" y="151.46" width="36.79" height="14.39" rx="7.19" ry="7.19"/>
                <circle class="cls-49" cx="33.07" cy="166.58" r="6.21"/>
                <circle class="cls-41" cx="32" cy="170.79" r="4.98"/>
                <g>
                  <rect class="cls-5" x="45.16" y="212.38" width="4.4" height="11.24" rx="2.2" ry="2.2" transform="translate(268.78 190.72) rotate(95.23)"/>
                  <circle class="cls-5" cx="43.3" cy="219.54" r="4.33"/>
                  <rect class="cls-41" x="21.62" y="202.13" width="12.27" height="38.65" rx="6.14" ry="6.14" transform="translate(-193.42 251.39) rotate(-90.57)"/>
                  <rect class="cls-41" x="37.83" y="214.27" width="12.16" height="17.47" rx="6.08" ry="6.08" transform="translate(246.34 326.36) rotate(128.18)"/>
                  <rect class="cls-41" x="47.78" y="214.49" width="4.4" height="16.71" rx="2.2" ry="2.2" transform="translate(256.03 321.33) rotate(128.18)"/>
                  <rect class="cls-5" x="45.16" y="212.38" width="4.4" height="11.24" rx="2.2" ry="2.2" transform="translate(268.78 190.72) rotate(95.23)"/>
                  <circle class="cls-5" cx="43.3" cy="219.54" r="4.33"/>
                  <rect class="cls-41" x="21.62" y="202.13" width="12.27" height="38.65" rx="6.14" ry="6.14" transform="translate(-193.42 251.39) rotate(-90.57)"/>
                  <rect class="cls-41" x="37.83" y="214.27" width="12.16" height="17.47" rx="6.08" ry="6.08" transform="translate(246.34 326.36) rotate(128.18)"/>
                  <path class="cls-37" d="M51.38,226.87c-1.2,1.52-2.98,2.32-4.78,2.32-1.31,0-2.64-.42-3.75-1.3l-.7-.55-1.79-1.41-2.52.02-22.61.22c-3.39.03-6.16-2.69-6.2-6.07v-.06c0-.51.06-1,.18-1.47-.5.89-.79,1.92-.79,3.01v.06c.03,3.39,2.81,6.11,6.2,6.08l25.13-.25,2.49,1.96c1.11.88,2.44,1.3,3.75,1.3,1.8,0,3.58-.79,4.78-2.32.55-.7.93-1.49,1.12-2.3-.15.26-.32.52-.51.77Z"/>
                  <rect class="cls-41" x="47.78" y="214.49" width="4.4" height="16.71" rx="2.2" ry="2.2" transform="translate(256.03 321.33) rotate(128.18)"/>
                </g>
                <path class="cls-55" d="M30.36,170.63c0,1,.61,1.85,1.47,2.22.44.19.93-.17.93-.65v-3.13c0-.51-.53-.84-1-.63-.83.38-1.41,1.22-1.41,2.19Z"/>
                <rect class="cls-41" x="90.99" y="175.76" width="4.4" height="11.24" rx="2.2" ry="2.2" transform="translate(115.89 -21.27) rotate(33.59)"/>
                <circle class="cls-41" cx="92.62" cy="185.68" r="4.33"/>
                <ellipse class="cls-54" cx="44.36" cy="223.99" rx="2.66" ry="3.34" transform="translate(-145.39 96.97) rotate(-45)"/>
                <rect class="cls-49" x="41.73" y="148.53" width="20.14" height="8.04" rx="4.02" ry="4.02" transform="translate(103.6 305.1) rotate(-180)"/>
                <path class="cls-46" d="M42.9,149.72h11.57c1.11,0,2.12.45,2.84,1.18.17.17.33.36.47.56.4.59.66,1.28.7,2.04.63.33,1.2.76,1.7,1.26.19.19.37.39.54.61.99,1.22,1.57,2.78,1.57,4.47,0,2.49-1.26,4.68-3.18,5.97,3.68-.32,6.57-3.4,6.57-7.17,0-1.99-.8-3.78-2.11-5.09-.5-.5-1.07-.92-1.7-1.26-.06-1.01-.5-1.93-1.17-2.6-.73-.73-1.74-1.18-2.84-1.18h-12.09c-1.12,0-2.13.46-2.86,1.19Z"/>
                <circle class="cls-12" cx="46.25" cy="169.92" r="1.26"/>
                <circle class="cls-12" cx="58.93" cy="169.92" r="1.26"/>
                <g>
                  <circle class="cls-60" cx="60.51" cy="169.92" r="6.42"/>
                  <circle class="cls-60" cx="45.37" cy="169.92" r="6.42"/>
                  <line class="cls-60" x1="54.1" y1="170.17" x2="51.78" y2="170.17"/>
                </g>
                <rect class="cls-46" x="36.45" y="155.04" width="18.5" height="7.23" rx="3.62" ry="3.62"/>
              </g>
              <g>
                <path class="cls-4" d="M109.65,213.93c.99.81,1.96,1.63,2.91,2.48,3.15,2.78,6.1,5.73,8.85,8.84,6.39,7.22,11.7,15.28,15.79,23.91,6.39,13.48,9.81,28.36,9.81,43.64v21.5c0,10.09-3.05,19.94-8.74,28.26h33.1c-2.85-4.16-5.03-8.7-6.51-13.47-1.47-4.77-2.24-9.75-2.24-14.79v-21.5c0-25.07,9.22-49.06,25.6-67.55,2.75-3.11,5.7-6.07,8.85-8.84.95-.85,1.92-1.67,2.91-2.48h-90.32Z"/>
                <path class="cls-50" d="M109.65,213.93c.99.81,1.96,1.63,2.91,2.48h8.46c-.95-.85-1.92-1.67-2.91-2.48h-8.46Z"/>
                <rect class="cls-25" x="74.71" y="209.01" width="160.2" height="7.4" rx="3.7" ry="3.7" transform="translate(309.62 425.42) rotate(-180)"/>
                <path class="cls-4" d="M74.71,212.71c0,2.05,1.66,3.7,3.7,3.7h43.7c-2.04,0-3.7-1.66-3.7-3.7,0-1.02.41-1.95,1.08-2.61.67-.67,1.6-1.09,2.62-1.09h-43.7c-1.02,0-1.95.41-2.62,1.09-.67.67-1.08,1.59-1.08,2.61Z"/>
                <path class="cls-50" d="M112.56,216.41c3.15,2.78,6.1,5.73,8.85,8.84,6.39,7.22,11.7,15.28,15.79,23.91,6.39,13.48,9.81,28.36,9.81,43.64v21.5c0,10.09-3.05,19.94-8.74,28.26h8.46c5.69-8.32,8.74-18.17,8.74-28.26v-21.5c0-15.28-3.42-30.16-9.81-43.64-.04-.09-.08-.17-.12-.26-5.23-10.97,2.65-23.65,14.8-23.65h27.88c2.75-3.11,5.7-6.07,8.85-8.84h-84.51Z"/>
              </g>
            </g>
          </g>
          <g>
            <circle class="cls-62" cx="243.65" cy="82.02" r="74.31"/>
            <g class="cls-63">
              <g>
                <g>
                  <path class="cls-30" d="M333.78,164.46l-47.74-17.25c-1.55-.56-2.58-2.03-2.58-3.67V39.58c0-1.64,1.03-3.11,2.58-3.67l47.74-17.25c2.54-.92,5.23.97,5.23,3.67v138.45c0,2.7-2.68,4.59-5.23,3.67Z"/>
                  <path class="cls-10" d="M328.73,71.16c-5.89.66-11.76,1.5-17.62,2.4-2.93.45-5.86.93-8.78,1.43-2.96.51-5.98.94-8.91,1.65-.51.12-.42,1.01.13.94,2.87-.38,5.72-.99,8.58-1.48,2.92-.5,5.85-.97,8.79-1.42,5.93-.9,11.87-1.67,17.82-2.42.7-.09.72-1.19,0-1.11Z"/>
                  <path class="cls-10" d="M330.13,51.86c-4.79.2-9.58.73-14.29,1.62-.61.12-.35,1.03.26.93,4.65-.77,9.33-1.29,14.04-1.52.66-.03.66-1.06,0-1.03Z"/>
                  <path class="cls-10" d="M316.81,42.26c-4.94.74-9.86,1.56-14.76,2.49-.59.11-.34,1.01.25.9,4.92-.87,9.84-1.69,14.79-2.41.65-.09.37-1.08-.27-.98Z"/>
                </g>
                <g>
                  <path class="cls-17" d="M263.87,220.7c-7.29-4.92-7.37-4.98-18.3-12.36-1.06-.72-2.33-1.14-3.7-1.14-2.81,0-5.2,1.76-6.16,4.23h0q-2.41,6.24-4.16,10.79h0c-.21.54-.33,1.12-.33,1.73,0,2.66,2.16,4.81,4.81,4.81h25.38c2.43,0,4.41-1.97,4.41-4.41,0-1.52-.77-2.87-1.95-3.66Z"/>
                  <path class="cls-22" d="M262.49,225.21h-27.49c-1.48,0-2.81-.62-3.76-1.61,0,.12-.02.24-.02.35,0,2.66,2.16,4.81,4.81,4.81h25.38c2.43,0,4.41-1.97,4.41-4.41,0-.17-.01-.33-.03-.49-.86.82-2.02,1.33-3.3,1.33Z"/>
                  <path class="cls-17" d="M212.48,224.75c-5.75-6.66-5.81-6.73-14.44-16.71-.83-.97-1.95-1.7-3.28-2.06-2.71-.73-5.48.34-7.05,2.48h0q-3.95,5.39-6.83,9.33h0c-.34.47-.61,1-.77,1.59-.69,2.57.83,5.21,3.39,5.9,9.3,2.51,15.99,4.32,24.5,6.62,2.35.63,4.77-.76,5.4-3.1.4-1.47,0-2.97-.93-4.04Z"/>
                  <path class="cls-22" d="M209.97,228.73c-9.21-2.49-16.47-4.45-26.53-7.17-1.43-.39-2.55-1.33-3.21-2.53-.04.11-.08.22-.11.34-.69,2.57.83,5.21,3.39,5.9,9.3,2.51,15.99,4.32,24.5,6.62,2.35.63,4.77-.76,5.4-3.1.04-.16.07-.32.1-.48-1.04.57-2.3.76-3.54.43Z"/>
                  <path class="cls-11" d="M243.63,217.63c-5.57,0-10.51-3.99-11.51-9.67l-14.21-80.47c-1.12-6.37,3.13-12.44,9.49-13.56,6.36-1.13,12.44,3.12,13.56,9.49l14.21,80.47c1.12,6.37-3.13,12.44-9.49,13.56-.69.12-1.37.18-2.05.18Z"/>
                  <path class="cls-20" d="M195.94,218.56c-1.08,0-2.17-.15-3.26-.46-6.21-1.8-9.79-8.28-8-14.5l23.33-80.73c1.79-6.21,8.29-9.79,14.5-8,6.21,1.8,9.79,8.28,8,14.5l-23.33,80.73c-1.48,5.13-6.16,8.46-11.24,8.46Z"/>
                  <rect class="cls-47" x="188.55" y="157.73" width="34.46" height="8.45" rx="4.23" ry="4.23" transform="translate(-5.61 316.51) rotate(-74.37)"/>
                  <path class="cls-17" d="M235.61,81.65c-2.98,0-5.7-2.01-6.48-5.03-.91-3.58,1.25-7.22,4.82-8.14l23.08-5.9c3.58-.91,7.22,1.25,8.14,4.82.91,3.58-1.25,7.22-4.82,8.14l-23.08,5.9c-.56.14-1.11.21-1.66.21Z"/>
                  <path class="cls-22" d="M229.54,77.75c1.09,2.38,3.48,3.9,6.07,3.9.55,0,1.11-.07,1.66-.21l23.08-5.9c2.89-.74,4.85-3.26,5.02-6.08l-35.84,8.29Z"/>
                  <circle class="cls-20" cx="259.38" cy="68.89" r="8.47"/>
                  <path class="cls-44" d="M259.38,73.91c-2.24,0-4.28-1.51-4.86-3.78-.69-2.68.93-5.42,3.62-6.1l31.23-7.98c2.68-.69,5.42.93,6.1,3.62.69,2.68-.93,5.42-3.62,6.1l-31.23,7.98c-.42.11-.83.16-1.25.16Z"/>
                  <path class="cls-17" d="M243.65,120.57c-11.42,6.72-25.85-.43-31.54-6.28,3.57-6.05,4.24-11.07-2.55-24.7-3.87-7.77-.71-17.21,7.06-21.08,7.77-3.87,17.21-.7,21.08,7.07,8.76,17.59,10.76,31.26,5.95,44.99Z"/>
                  <path class="cls-17" d="M198.47,112.13c-.8,0-1.62-.15-2.42-.45-3.44-1.34-5.15-5.21-3.82-8.66l11.2-28.87c1.34-3.44,5.21-5.15,8.66-3.82,3.44,1.34,5.15,5.21,3.82,8.66l-11.2,28.87c-1.03,2.65-3.56,4.27-6.24,4.27Z"/>
                  <circle class="cls-20" cx="198.98" cy="104.98" r="8.42"/>
                  <path class="cls-35" d="M225.86,69.54l-5.7,4.02c1.41,2.38,3.95,3.84,6.64,3.5,3.17-.4,5.52-3.13,5.86-6.48l-6.8-1.05Z"/>
                  <path class="cls-20" d="M226.39,72.64l-4.32,4.78c-1.26,1.4-3.45,1.42-4.75.06l-4.71-4.97c-.65-.69-.48-1.81.35-2.27l5.05-2.82,10.52-1.86,3.3,1.38c.73.31,1.31.88,1.62,1.61l1.47,3.45c.55,1.29-.61,2.64-1.97,2.3l-6.56-1.66Z"/>
                  <path class="cls-34" d="M235.87,42.69c-1.72-11.59-15.75-10.59-19.19-10.05-3.44.54-16.93,6.6-10.23,11.85-3.98,4.89.09,11.59,7.51,11.86l16.14,11.93c5.97-4.98,14-19.44,5.77-25.6Z"/>
                  <path class="cls-52" d="M224.97,78.48c-1.22,7.82-2.13,12.59-2.13,12.59l14.69,3.99,1.65-6.04c1.07-5.6-5.7-12.55-14.2-10.55Z"/>
                  <path class="cls-52" d="M239.22,89.03c-.29-4.75-1.34-12.24,9.56-12.84.32,8.22-.05,18.88-.05,18.88"/>
                  <path class="cls-28" d="M239.17,89.03l-2.27,8.32,10.9,5.74s3.82-18.53,4.77-23.48c-7.38-2.78-11.89,2.41-13.39,9.41Z"/>
                  <path class="cls-32" d="M233.44,110l5.73-20.97c-1.9-7.59-12.52-8.86-17.98-5.95-.85,7.4-2.06,23.27-2.06,23.27,4.72-2.76,11.88-2.69,14.31,3.64Z"/>
                  <path class="cls-29" d="M239.17,89.03l-5.73,20.97s10.92-8.16,17.96,0c4.73-15.75,6.67-21.57,6.67-21.57-.85-5.82-13.54-6.43-18.9.61Z"/>
                  <g>
                    <path class="cls-44" d="M198.97,110c-2.58,0-4.77-1.97-4.99-4.59-.24-2.76,1.81-5.19,4.57-5.43l30.27-2.61c2.76-.24,5.19,1.81,5.43,4.57.24,2.76-1.81,5.19-4.57,5.43l-30.27,2.61c-.15.01-.29.02-.44.02Z"/>
                    <path class="cls-44" d="M230.22,96.5l-5.88,1.46-1.5,7.33,8.8,3.17c1.99.72,4.21-.06,5.32-1.86l1.06-1.73c1.24-2.01.66-4.64-1.3-5.95l-2.59-1.73c-1.15-.76-2.56-1.01-3.9-.68Z"/>
                  </g>
                  <path class="cls-20" d="M243.65,120.57c-1.6,4.55-3.94,9.1-7.04,13.8-3.02,4.58-8.03,7.07-13.14,7.07-2.97,0-5.97-.84-8.64-2.6-7.25-4.78-9.26-14.52-4.48-21.77.64-.97,1.23-1.89,1.75-2.78,5.69,5.85,20.11,13,31.54,6.28Z"/>
                  <path class="cls-44" d="M287.99,56.55l-.09.44-.49,8.57,5.42.19c1.57.05,3.04-.75,3.85-2.1l8.11-11.06-6.34-1.92s-.05-.02-.07-.03c-4.53-1.69-9.49,1.16-10.41,5.9Z"/>
                  <path class="cls-44" d="M304.07,62.05c-.09,0-.19,0-.29-.02-1.1-.16-1.86-1.17-1.7-2.27l.44-3.1-5.46.12s-.03,0-.04,0c-1.09,0-1.98-.87-2.01-1.96-.02-1.11.85-2.03,1.96-2.05l7.83-.17c.59-.01,1.15.23,1.55.68.39.44.57,1.03.48,1.62l-.78,5.45c-.14,1-1,1.72-1.98,1.72Z"/>
                  <rect class="cls-45" x="300.49" y="58.42" width="14.98" height="4.2" rx="1.71" ry="1.71"/>
                  <path class="cls-44" d="M299.69,67.2c-.14,0-.29-.02-.43-.05l-7.98-1.75c-1.08-.24-1.77-1.31-1.53-2.39.24-1.08,1.31-1.77,2.39-1.53l7.03,1.54,2.44-1.97c.86-.7,2.13-.56,2.82.3.7.86.56,2.13-.3,2.82l-3.19,2.58c-.36.29-.81.45-1.26.45Z"/>
                  <g>
                    <path class="cls-44" d="M226.84,59.91h-9.96v9.61c-.87.36-1.73.78-2.56,1.25l11.38,1.24,4.4-3.73-3.26-8.37Z"/>
                    <path class="cls-2" d="M229.3,66.24c-2.41,2.14-5.5,3.43-8.86,3.43-1.23,0-2.41-.19-3.54-.51v-9.25s9.94,0,9.94,0l2.46,6.32Z"/>
                    <g>
                      <path class="cls-44" d="M234.02,56.86h-2.75v-5.6h2.75c1.18,0,2.14.96,2.14,2.14v1.31c0,1.18-.96,2.14-2.14,2.14Z"/>
                      <ellipse class="cls-2" cx="233.72" cy="54.06" rx="1.24" ry="1.34"/>
                      <path class="cls-44" d="M217.56,50.36c2.65-1.26,4.95-3.66,5.83-6.64.82,2.34,2.6,7.11,9.67,6.74v4.64c0,7.03-5.27,12.72-11.78,12.72h0c-6.5,0-11.78-5.7-11.78-12.72v-3.39c2.74.15,5.54-.15,8.05-1.35Z"/>
                      <g>
                        <path class="cls-43" d="M224.85,57.91c.02.08.05.15.06.23.47,2.12-.88,4.22-3,4.68-2.12.47-4.22-.88-4.68-3-.02-.08-.03-.16-.04-.24l7.65-1.68Z"/>
                        <path class="cls-9" d="M222.42,60.5c.75-.09,1.48.05,2.11.37-.53.97-1.45,1.71-2.61,1.96-.82.18-1.64.09-2.36-.22.51-1.11,1.56-1.95,2.86-2.11Z"/>
                        <path class="cls-45" d="M224.91,58.14c.07.31.09.62.09.93l-7.38,1.77c-.17-.31-.3-.65-.38-1.02-.02-.08-.03-.16-.04-.24l7.65-1.68c.02.08.05.15.06.23Z"/>
                      </g>
                      <ellipse class="cls-13" cx="221.03" cy="54.16" rx=".86" ry="1.08" transform="translate(-5.5 32.41) rotate(-8.28)"/>
                      <ellipse class="cls-13" cx="215.11" cy="55.02" rx=".86" ry="1.08" transform="translate(-5.68 31.56) rotate(-8.28)"/>
                    </g>
                  </g>
                </g>
              </g>
              <rect class="cls-24" x="199.26" y="78.8" width="13.04" height="5.39" rx="2.69" ry="2.69" transform="translate(58.68 246.86) rotate(-69.95)"/>
              <rect class="cls-38" x="267.66" y="62.47" width="16.82" height="2.88" rx="1.44" ry="1.44" transform="translate(-7.29 66.68) rotate(-13.6)"/>
            </g>
            <circle class="cls-59" cx="243.65" cy="82.02" r="74.31"/>
          </g>
        </g>
      </g>
      <g>
        <rect class="cls-48" x="301.38" y="231.59" width="25.89" height="6.16" rx="2.15" ry="2.15"/>
        <rect class="cls-48" x="15.7" y="231.59" width="283.17" height="6.16" rx="2.15" ry="2.15"/>
      </g>
    </g>
  </g>
</svg>