<?xml version="1.0" encoding="UTF-8"?>
<svg id="Capa_2" data-name="Capa 2" xmlns="http://www.w3.org/2000/svg" viewBox="0 0 632.54 593.45">
  <defs>
    <style>
      .cls-1 {
        fill: #fff;
        stroke: #000;
        stroke-miterlimit: 10;
      }

      .cls-2 {
        fill: #b2dd45;
        stroke-width: 0px;
      }
    </style>
  </defs>
  <g id="Layer_1" data-name="Layer 1">
    <g>
      <path class="cls-2" d="M437.48,79.61c-1.24.31-2.47.64-3.69.97l-15.05-59.99c-7.04-28.08-106.4-27.35-221.92,1.63C81.29,51.2-6.65,97.45.4,125.52l112.21,447.33c7.04,28.08,106.4,27.35,221.92-1.63,115.52-28.98,203.46-75.23,196.42-103.3l-21.41-85.34c1.24-.28,2.47-.57,3.71-.88,84.22-21.13,135.53-105.88,114.61-189.3-20.93-83.42-106.16-133.92-190.38-112.8ZM501.63,346.44c-.36.09-.72.17-1.09.26l-58.74-234.18c.36-.09.72-.19,1.08-.28,67.59-16.95,135.53,21.73,151.76,86.41,16.22,64.67-25.42,130.85-93.01,147.8Z"/>
      <ellipse class="cls-1" cx="210.89" cy="79.1" rx="186.7" ry="41.89" transform="translate(-12.91 53.69) rotate(-14.08)"/>
    </g>
  </g>
</svg>