<?xml version="1.0" encoding="UTF-8"?>
<svg id="Capa_2" data-name="Capa 2" xmlns="http://www.w3.org/2000/svg" viewBox="0 0 500.48 788.75">
  <defs>
    <style>
      .cls-1 {
        fill: #4cf;
      }

      .cls-1, .cls-2, .cls-3 {
        stroke-width: 0px;
      }

      .cls-4 {
        fill: #fff;
        stroke: #000;
        stroke-miterlimit: 10;
      }

      .cls-2 {
        fill: #e6adec;
      }

      .cls-3 {
        fill: #e6e6e6;
      }
    </style>
  </defs>
  <g id="Layer_1" data-name="Layer 1">
    <g>
      <g>
        <path class="cls-2" d="M96.65,119.68L.43,695.89c-5.9,20,49.05,53.84,122.73,75.58s138.2,23.16,144.11,3.17L499.33,238.52,96.65,119.68Z"/>
        <path class="cls-4" d="M314.11,124.46c-111.2-32.82-208.56-34.96-217.46-4.78l-23.22,78.69c-8.91,30.18,74.02,81.24,185.21,114.06,111.2,32.82,208.56,34.96,217.46,4.78l23.22-78.69c8.91-30.18-74.02-81.24-185.21-114.06Z"/>
        <ellipse class="cls-3" cx="298.49" cy="182.61" rx="45.2" ry="192.74" transform="translate(38.95 417.32) rotate(-73.58)"/>
      </g>
      <g>
        <path class="cls-1" d="M125.34,48.92l85.59,26.79c4.36,1.36,7.06,5.72,6.34,10.23l-17.37,109.16c13.79,6.02,28.83,11.95,44.84,17.61l19.97-148.09c1.06-7.88-3.38-15.47-10.77-18.4L142.06,1.77c-12.15-4.83-25.98.51-31.72,12.26h0c-6.74,13.77.37,30.31,15.01,34.89Z"/>
        <ellipse class="cls-4" cx="128.71" cy="23.98" rx="21.92" ry="18.04" transform="translate(69.33 140.66) rotate(-73.58)"/>
      </g>
    </g>
  </g>
</svg>